<svg xmlns="http://www.w3.org/2000/svg" id="pcb-stackup_bottom" fill-rule="evenodd" stroke-width="0" stroke-linecap="round" stroke-linejoin="round" xmlns:xlink="http://www.w3.org/1999/xlink" clip-rule="evenodd" viewBox="845 970 2700 2100"><defs><style>.pcb-stackup_fr4 {color: #4D542C;} .pcb-stackup_cu {color: lightgrey;} .pcb-stackup_cf {color: silver;} .pcb-stackup_sm {color: #001E68; opacity: 0.9;} .pcb-stackup_ss {color: white;} .pcb-stackup_sp {color: #000000; opacity: 0;} .pcb-stackup_out {color: black;}</style><path id="BJmgTxa2kb_pad-12" d="M30.51 12.638L12.638 30.51h-25.276L-30.51 12.638v-25.276l17.872-17.872h25.276L30.51-12.638z"/><path id="BJmgTxa2kb_pad-13" d="M78.74 32.615L32.615 78.74h-65.23L-78.74 32.615v-65.23l46.125-46.125h65.23L78.74-32.615z"/><circle id="BJmgTxa2kb_pad-14" r="38.385"/><path id="BJmgTxa2kb_pad-15" d="M33 13.669L13.669 33h-27.338L-33 13.669v-27.338L-13.669-33h27.338L33-13.669z"/><circle id="BJmgTxa2kb_pad-16" r="63.305"/><path id="BJmgTxa2kb_pad-20" d="M22 9.113L9.113 22H-9.113L-22 9.113V-9.113L-9.113-22H9.113L22-9.113z"/><path id="BJmgTxa2kb_pad-12" d="M30.51 12.638L12.638 30.51h-25.276L-30.51 12.638v-25.276l17.872-17.872h25.276L30.51-12.638z"/><path id="BJmgTxa2kb_pad-13" d="M78.74 32.615L32.615 78.74h-65.23L-78.74 32.615v-65.23l46.125-46.125h65.23L78.74-32.615z"/><circle id="BJmgTxa2kb_pad-14" r="38.385"/><path id="BJmgTxa2kb_pad-15" d="M33 13.669L13.669 33h-27.338L-33 13.669v-27.338L-13.669-33h27.338L33-13.669z"/><circle id="BJmgTxa2kb_pad-16" r="63.305"/><path id="BJmgTxa2kb_pad-20" d="M22 9.113L9.113 22H-9.113L-22 9.113V-9.113L-9.113-22H9.113L22-9.113z"/><circle id="HJSe6g6hkW_pad-10" r="64.99"/><path id="HJSe6g6hkW_pad-12" d="M32.51 13.466L13.466 32.51h-26.932L-32.51 13.466v-26.932l19.044-19.044h26.932L32.51-13.466z"/><path id="HJSe6g6hkW_pad-13" d="M80.74 33.444L33.444 80.74h-66.888L-80.74 33.444v-66.888l47.296-47.296h66.888L80.74-33.444z"/><circle id="HJSe6g6hkW_pad-14" r="40.385"/><path id="HJSe6g6hkW_pad-15" d="M35 14.497L14.497 35h-28.994L-35 14.497v-28.994L-14.497-35h28.994L35-14.497z"/><circle id="HJSe6g6hkW_pad-16" r="65.305"/><path id="HJSe6g6hkW_pad-18" d="M-3-36h6v72h-6z"/><path id="BJmgTxa2kb_pad-12" d="M30.51 12.638L12.638 30.51h-25.276L-30.51 12.638v-25.276l17.872-17.872h25.276L30.51-12.638z"/><path id="BJmgTxa2kb_pad-13" d="M78.74 32.615L32.615 78.74h-65.23L-78.74 32.615v-65.23l46.125-46.125h65.23L78.74-32.615z"/><circle id="BJmgTxa2kb_pad-14" r="38.385"/><path id="BJmgTxa2kb_pad-15" d="M33 13.669L13.669 33h-27.338L-33 13.669v-27.338L-13.669-33h27.338L33-13.669z"/><circle id="BJmgTxa2kb_pad-16" r="63.305"/><path id="BJmgTxa2kb_pad-20" d="M22 9.113L9.113 22H-9.113L-22 9.113V-9.113L-9.113-22H9.113L22-9.113z"/><path id="BJmgTxa2kb_pad-12" d="M30.51 12.638L12.638 30.51h-25.276L-30.51 12.638v-25.276l17.872-17.872h25.276L30.51-12.638z"/><path id="BJmgTxa2kb_pad-13" d="M78.74 32.615L32.615 78.74h-65.23L-78.74 32.615v-65.23l46.125-46.125h65.23L78.74-32.615z"/><circle id="BJmgTxa2kb_pad-14" r="38.385"/><path id="BJmgTxa2kb_pad-15" d="M33 13.669L13.669 33h-27.338L-33 13.669v-27.338L-13.669-33h27.338L33-13.669z"/><circle id="BJmgTxa2kb_pad-16" r="63.305"/><path id="BJmgTxa2kb_pad-20" d="M22 9.113L9.113 22H-9.113L-22 9.113V-9.113L-9.113-22H9.113L22-9.113z"/><circle id="HJSe6g6hkW_pad-10" r="64.99"/><path id="HJSe6g6hkW_pad-12" d="M32.51 13.466L13.466 32.51h-26.932L-32.51 13.466v-26.932l19.044-19.044h26.932L32.51-13.466z"/><path id="HJSe6g6hkW_pad-13" d="M80.74 33.444L33.444 80.74h-66.888L-80.74 33.444v-66.888l47.296-47.296h66.888L80.74-33.444z"/><circle id="HJSe6g6hkW_pad-14" r="40.385"/><path id="HJSe6g6hkW_pad-15" d="M35 14.497L14.497 35h-28.994L-35 14.497v-28.994L-14.497-35h28.994L35-14.497z"/><circle id="HJSe6g6hkW_pad-16" r="65.305"/><path id="HJSe6g6hkW_pad-18" d="M-3-36h6v72h-6z"/><circle id="HJxx6ep21-_pad-1" r="12"/><circle id="HJxx6ep21-_pad-2" r="16.75"/><circle id="HJxx6ep21-_pad-3" r="18.7"/><circle id="HJxx6ep21-_pad-4" r="25.6"/><circle id="HJxx6ep21-_pad-5" r="43.3"/><circle id="HJxx6ep21-_pad-6" r="63"/><path id="BJmgTxa2kb_pad-12" d="M30.51 12.638L12.638 30.51h-25.276L-30.51 12.638v-25.276l17.872-17.872h25.276L30.51-12.638z"/><path id="BJmgTxa2kb_pad-13" d="M78.74 32.615L32.615 78.74h-65.23L-78.74 32.615v-65.23l46.125-46.125h65.23L78.74-32.615z"/><circle id="BJmgTxa2kb_pad-14" r="38.385"/><path id="BJmgTxa2kb_pad-15" d="M33 13.669L13.669 33h-27.338L-33 13.669v-27.338L-13.669-33h27.338L33-13.669z"/><circle id="BJmgTxa2kb_pad-16" r="63.305"/><path id="BJmgTxa2kb_pad-20" d="M22 9.113L9.113 22H-9.113L-22 9.113V-9.113L-9.113-22H9.113L22-9.113z"/><path id="BJmgTxa2kb_pad-12" d="M30.51 12.638L12.638 30.51h-25.276L-30.51 12.638v-25.276l17.872-17.872h25.276L30.51-12.638z"/><path id="BJmgTxa2kb_pad-13" d="M78.74 32.615L32.615 78.74h-65.23L-78.74 32.615v-65.23l46.125-46.125h65.23L78.74-32.615z"/><circle id="BJmgTxa2kb_pad-14" r="38.385"/><path id="BJmgTxa2kb_pad-15" d="M33 13.669L13.669 33h-27.338L-33 13.669v-27.338L-13.669-33h27.338L33-13.669z"/><circle id="BJmgTxa2kb_pad-16" r="63.305"/><path id="BJmgTxa2kb_pad-20" d="M22 9.113L9.113 22H-9.113L-22 9.113V-9.113L-9.113-22H9.113L22-9.113z"/><circle id="HJSe6g6hkW_pad-10" r="64.99"/><path id="HJSe6g6hkW_pad-12" d="M32.51 13.466L13.466 32.51h-26.932L-32.51 13.466v-26.932l19.044-19.044h26.932L32.51-13.466z"/><path id="HJSe6g6hkW_pad-13" d="M80.74 33.444L33.444 80.74h-66.888L-80.74 33.444v-66.888l47.296-47.296h66.888L80.74-33.444z"/><circle id="HJSe6g6hkW_pad-14" r="40.385"/><path id="HJSe6g6hkW_pad-15" d="M35 14.497L14.497 35h-28.994L-35 14.497v-28.994L-14.497-35h28.994L35-14.497z"/><circle id="HJSe6g6hkW_pad-16" r="65.305"/><path id="HJSe6g6hkW_pad-18" d="M-3-36h6v72h-6z"/><path id="BJmgTxa2kb_pad-12" d="M30.51 12.638L12.638 30.51h-25.276L-30.51 12.638v-25.276l17.872-17.872h25.276L30.51-12.638z"/><path id="BJmgTxa2kb_pad-13" d="M78.74 32.615L32.615 78.74h-65.23L-78.74 32.615v-65.23l46.125-46.125h65.23L78.74-32.615z"/><circle id="BJmgTxa2kb_pad-14" r="38.385"/><path id="BJmgTxa2kb_pad-15" d="M33 13.669L13.669 33h-27.338L-33 13.669v-27.338L-13.669-33h27.338L33-13.669z"/><circle id="BJmgTxa2kb_pad-16" r="63.305"/><path id="BJmgTxa2kb_pad-20" d="M22 9.113L9.113 22H-9.113L-22 9.113V-9.113L-9.113-22H9.113L22-9.113z"/><path id="BJmgTxa2kb_pad-12" d="M30.51 12.638L12.638 30.51h-25.276L-30.51 12.638v-25.276l17.872-17.872h25.276L30.51-12.638z"/><path id="BJmgTxa2kb_pad-13" d="M78.74 32.615L32.615 78.74h-65.23L-78.74 32.615v-65.23l46.125-46.125h65.23L78.74-32.615z"/><circle id="BJmgTxa2kb_pad-14" r="38.385"/><path id="BJmgTxa2kb_pad-15" d="M33 13.669L13.669 33h-27.338L-33 13.669v-27.338L-13.669-33h27.338L33-13.669z"/><circle id="BJmgTxa2kb_pad-16" r="63.305"/><path id="BJmgTxa2kb_pad-20" d="M22 9.113L9.113 22H-9.113L-22 9.113V-9.113L-9.113-22H9.113L22-9.113z"/><circle id="HJSe6g6hkW_pad-10" r="64.99"/><path id="HJSe6g6hkW_pad-12" d="M32.51 13.466L13.466 32.51h-26.932L-32.51 13.466v-26.932l19.044-19.044h26.932L32.51-13.466z"/><path id="HJSe6g6hkW_pad-13" d="M80.74 33.444L33.444 80.74h-66.888L-80.74 33.444v-66.888l47.296-47.296h66.888L80.74-33.444z"/><circle id="HJSe6g6hkW_pad-14" r="40.385"/><path id="HJSe6g6hkW_pad-15" d="M35 14.497L14.497 35h-28.994L-35 14.497v-28.994L-14.497-35h28.994L35-14.497z"/><circle id="HJSe6g6hkW_pad-16" r="65.305"/><path id="HJSe6g6hkW_pad-18" d="M-3-36h6v72h-6z"/><circle id="HJxx6ep21-_pad-1" r="12"/><circle id="HJxx6ep21-_pad-2" r="16.75"/><circle id="HJxx6ep21-_pad-3" r="18.7"/><circle id="HJxx6ep21-_pad-4" r="25.6"/><circle id="HJxx6ep21-_pad-5" r="43.3"/><circle id="HJxx6ep21-_pad-6" r="63"/><g id="pcb-stackup_bottom_cu"><path fill="none" stroke-width="5" d="M890.5 1132.31l18.02 18.02h4.5l4.5-4.51v-9l-4.5-4.51m-22.52 0v18.02m4.5 11.45l18.02 18.01H895l-4.5-4.5v-9.01l4.5-4.5h18.02l4.5 4.5v9.01l-4.5 4.5m-4.5 11.45l9 9.01H890.5m0-9.01v18.02m0 11.45v18.01m0-9h27.02l-9-9.01m-4.51 29.46v18.02m-9.01 11.45l-4.5 4.5v9.01l4.5 4.5h4.51l4.5-4.5v-4.5m0 4.5l4.51 4.5h4.5l4.5-4.5v-9.01l-4.5-4.5m-9.01 29.46v18.02m-9.01 11.45h18.02l4.5 4.5v9.01l-4.5 4.51-18.02-18.02-4.5 4.5v9.01l4.5 4.51h18.02m0 11.44l4.5 4.51v9.01l-4.5 4.5h-4.5l-18.02-18.02v18.02"/><path fill="none" stroke-width="56" d="M1945 1084v-28m100 0v28m100 0v-28m100 0v28m100 0v-28m100 0v28m100 0v-28m100 0v28m200 0v-28m100 0v28m100 0v-28m100 0v28m100 0v-28m100 0v28m-25 367v28m-100 0v-28m-100 0v28m-100 0v-28m-100 0v28m-100 0v-28m-100 0v28m-100 0v-28m-100 0v28m-100 0v-28m-100 0v28m-100 0v-28m-100 0v28m-100 0v-28m0 300v28m100 0v-28m100 0v28m100 0v-28m100 0v28m100 0v-28m100 0v28m100 0v-28m100 0v28m100 0v-28m100 0v28m100 0v-28m100 0v28m100 0v-28m25 1205v28m-100 0v-28m-100 0v28m-100 0v-28m-100 0v28m-100 0v-28m-100 0v28m-100 0v-28m-160 0v28m-100 0v-28m-100 0v28m-100 0v-28m-100 0v28m-100 0v-28m-100 0v28m-100 0v-28m-100 0v28m-100 0v-28"/><use x="1565" y="2840" xlink:href="#BJmgTxa2kb_pad-12"/><use x="1665" y="2840" xlink:href="#BJmgTxa2kb_pad-12"/><use x="1665" y="2740" xlink:href="#BJmgTxa2kb_pad-12"/><use x="1565" y="2740" xlink:href="#BJmgTxa2kb_pad-12"/><use x="1465" y="2740" xlink:href="#BJmgTxa2kb_pad-12"/><use x="1465" y="2840" xlink:href="#BJmgTxa2kb_pad-12"/><use x="3350" y="2170" xlink:href="#BJmgTxa2kb_pad-12"/><use x="3450" y="2170" xlink:href="#BJmgTxa2kb_pad-12"/><use x="3450" y="2070" xlink:href="#BJmgTxa2kb_pad-12"/><use x="3350" y="2070" xlink:href="#BJmgTxa2kb_pad-12"/><use x="3350" y="1970" xlink:href="#BJmgTxa2kb_pad-12"/><use x="3450" y="1970" xlink:href="#BJmgTxa2kb_pad-12"/><use x="1305" y="1297" xlink:href="#BJmgTxa2kb_pad-13"/><use x="1069" y="1297" xlink:href="#BJmgTxa2kb_pad-13"/><use x="1187" y="1100" xlink:href="#BJmgTxa2kb_pad-13"/><use x="1157" y="1100" xlink:href="#BJmgTxa2kb_pad-14"/><use x="1217" y="1100" xlink:href="#BJmgTxa2kb_pad-14"/><use x="1305" y="1267" xlink:href="#BJmgTxa2kb_pad-14"/><use x="1305" y="1327" xlink:href="#BJmgTxa2kb_pad-14"/><use x="1069" y="1327" xlink:href="#BJmgTxa2kb_pad-14"/><use x="1069" y="1267" xlink:href="#BJmgTxa2kb_pad-14"/><use x="1490" y="2000" xlink:href="#BJmgTxa2kb_pad-15"/><use x="1690" y="2000" xlink:href="#BJmgTxa2kb_pad-15"/><use x="1180.43" y="2420.79" xlink:href="#BJmgTxa2kb_pad-15"/><use x="1101.69" y="2420.79" xlink:href="#BJmgTxa2kb_pad-15"/><use x="1101.69" y="2519.21" xlink:href="#BJmgTxa2kb_pad-15"/><use x="1180.43" y="2519.21" xlink:href="#BJmgTxa2kb_pad-15"/><use x="1565" y="2540" xlink:href="#BJmgTxa2kb_pad-15"/><use x="1665" y="2540" xlink:href="#BJmgTxa2kb_pad-15"/><use x="1665" y="2640" xlink:href="#BJmgTxa2kb_pad-15"/><use x="1565" y="2640" xlink:href="#BJmgTxa2kb_pad-15"/><use x="995" y="2706.22" xlink:href="#BJmgTxa2kb_pad-16"/><use x="995" y="2233.78" xlink:href="#BJmgTxa2kb_pad-16"/><path fill="none" stroke-width="4.6" d="M1244.3 2599.2h41.4v-58.4h-41.4v58.4m0-53.81h41.4m0 4.59h-41.4m0 4.59h41.4m0 4.59h-41.4m0 4.59h41.4m0 4.59h-41.4m0 4.59h41.4m0 4.59h-41.4m0 4.59h41.4m0 4.59h-41.4m0 4.59h41.4m0 4.59h-41.4m60 3.32h41.4v-58.4h-41.4v58.4m0-53.81h41.4m0 4.59h-41.4m0 4.59h41.4m0 4.59h-41.4m0 4.59h41.4m0 4.59h-41.4m0 4.59h41.4m0 4.59h-41.4m0 4.59h41.4m0 4.59h-41.4m0 4.59h41.4m0 4.59h-41.4"/><path fill="none" stroke-width="32" d="M1265 2570l-25 25h-170l-50-50v-100l24.21-24.21h57.48M950 2280l45-45v-1.22M950 2280v380l45 45v1.22M1320 1620l190-190 280-280h519l37-37-1-43m360 205h-755l-10 10m-633 10l-2 2m1400-22l20 20h20"/><path fill="none" stroke-width="24" d="M2070 1385h-75l-25 25v150l-120 120v50m-70 50h-55l-40 40h-45l-25 25h-45l-45-45h-105l-90 90h-115l-20-70m25 285h-100m100 0l100 100m-218.31 215.79l-.78-.79m.78 99.21l-.78.79m-54.69 135L995 2706.22m670 33.78l10-10h25v-5l50-50v-50l55-55h25l-76.7-76.7v-355l71.7-71.7v-6.6l-25-25v-235l-20-20m265-625l5-5m-5 5v-85"/><use x="1995" y="1215" xlink:href="#BJmgTxa2kb_pad-20"/><use x="1940" y="1285" xlink:href="#BJmgTxa2kb_pad-20"/><use x="2070" y="1385" xlink:href="#BJmgTxa2kb_pad-20"/><use x="1915" y="1530" xlink:href="#BJmgTxa2kb_pad-20"/><use x="1710" y="1425" xlink:href="#BJmgTxa2kb_pad-20"/><use x="1510" y="1430" xlink:href="#BJmgTxa2kb_pad-20"/><use x="1295" y="1470" xlink:href="#BJmgTxa2kb_pad-20"/><use x="1195" y="1495" xlink:href="#BJmgTxa2kb_pad-20"/><use x="1145" y="1570" xlink:href="#BJmgTxa2kb_pad-20"/><use x="1045" y="1545" xlink:href="#BJmgTxa2kb_pad-20"/><use x="945" y="1495" xlink:href="#BJmgTxa2kb_pad-20"/><use x="945" y="1655" xlink:href="#BJmgTxa2kb_pad-20"/><use x="1045" y="1770" xlink:href="#BJmgTxa2kb_pad-20"/><use x="1145" y="1745" xlink:href="#BJmgTxa2kb_pad-20"/><use x="1195" y="1820" xlink:href="#BJmgTxa2kb_pad-20"/><use x="1312.5" y="1822.5" xlink:href="#BJmgTxa2kb_pad-20"/><use x="1120" y="1920" xlink:href="#BJmgTxa2kb_pad-20"/><use x="945" y="1820" xlink:href="#BJmgTxa2kb_pad-20"/><use x="1320" y="1945" xlink:href="#BJmgTxa2kb_pad-20"/><use x="1120" y="2105" xlink:href="#BJmgTxa2kb_pad-20"/><use x="1320" y="2205" xlink:href="#BJmgTxa2kb_pad-20"/><use x="1583" y="2293" xlink:href="#BJmgTxa2kb_pad-20"/><use x="1835" y="2450" xlink:href="#BJmgTxa2kb_pad-20"/><use x="1830" y="2570" xlink:href="#BJmgTxa2kb_pad-20"/><use x="1720" y="2585" xlink:href="#BJmgTxa2kb_pad-20"/><use x="2040" y="2451" xlink:href="#BJmgTxa2kb_pad-20"/><use x="2051" y="2321" xlink:href="#BJmgTxa2kb_pad-20"/><use x="2025" y="2210" xlink:href="#BJmgTxa2kb_pad-20"/><use x="2100" y="2155" xlink:href="#BJmgTxa2kb_pad-20"/><use x="2140" y="2200" xlink:href="#BJmgTxa2kb_pad-20"/><use x="2035" y="2125" xlink:href="#BJmgTxa2kb_pad-20"/><use x="1865" y="2145" xlink:href="#BJmgTxa2kb_pad-20"/><use x="1825" y="2060" xlink:href="#BJmgTxa2kb_pad-20"/><use x="1862" y="1936" xlink:href="#BJmgTxa2kb_pad-20"/><use x="1905" y="1815" xlink:href="#BJmgTxa2kb_pad-20"/><use x="1755" y="1825" xlink:href="#BJmgTxa2kb_pad-20"/><use x="1850" y="1730" xlink:href="#BJmgTxa2kb_pad-20"/><use x="1725" y="1695" xlink:href="#BJmgTxa2kb_pad-20"/><use x="1590" y="1800" xlink:href="#BJmgTxa2kb_pad-20"/><use x="1400" y="1645" xlink:href="#BJmgTxa2kb_pad-20"/><use x="1590" y="2000" xlink:href="#BJmgTxa2kb_pad-20"/><use x="2120" y="1950" xlink:href="#BJmgTxa2kb_pad-20"/><use x="2165" y="1995" xlink:href="#BJmgTxa2kb_pad-20"/><use x="2275" y="2085" xlink:href="#BJmgTxa2kb_pad-20"/><use x="2551" y="2211" xlink:href="#BJmgTxa2kb_pad-20"/><use x="2701" y="2121" xlink:href="#BJmgTxa2kb_pad-20"/><use x="2697.5" y="1977.5" xlink:href="#BJmgTxa2kb_pad-20"/><use x="2767.5" y="1982.5" xlink:href="#BJmgTxa2kb_pad-20"/><use x="2870" y="1820" xlink:href="#BJmgTxa2kb_pad-20"/><use x="3180" y="1690" xlink:href="#BJmgTxa2kb_pad-20"/><use x="3280" y="1650" xlink:href="#BJmgTxa2kb_pad-20"/><use x="3492" y="1667" xlink:href="#BJmgTxa2kb_pad-20"/><use x="3491" y="1391" xlink:href="#BJmgTxa2kb_pad-20"/><use x="2745" y="1295" xlink:href="#BJmgTxa2kb_pad-20"/><use x="2745" y="1070" xlink:href="#BJmgTxa2kb_pad-20"/><use x="2330" y="1615" xlink:href="#BJmgTxa2kb_pad-20"/><use x="2466" y="1676" xlink:href="#BJmgTxa2kb_pad-20"/><use x="3185" y="1945" xlink:href="#BJmgTxa2kb_pad-20"/><use x="3185" y="2070" xlink:href="#BJmgTxa2kb_pad-20"/><use x="3063" y="2203" xlink:href="#BJmgTxa2kb_pad-20"/><use x="3255" y="2265" xlink:href="#BJmgTxa2kb_pad-20"/><use x="3391" y="2566" xlink:href="#BJmgTxa2kb_pad-20"/><use x="3391" y="2836" xlink:href="#BJmgTxa2kb_pad-20"/><use x="2995" y="2905" xlink:href="#BJmgTxa2kb_pad-20"/><use x="2565" y="2970" xlink:href="#BJmgTxa2kb_pad-20"/><use x="2060" y="2590" xlink:href="#BJmgTxa2kb_pad-20"/><use x="1735" y="2805" xlink:href="#BJmgTxa2kb_pad-20"/><use x="1840" y="2905" xlink:href="#BJmgTxa2kb_pad-20"/><use x="1255" y="2935" xlink:href="#BJmgTxa2kb_pad-20"/><use x="1195" y="2846.42" xlink:href="#BJmgTxa2kb_pad-20"/><use x="1501" y="1241" xlink:href="#BJmgTxa2kb_pad-20"/><use x="1691" y="1081" xlink:href="#BJmgTxa2kb_pad-20"/><path fill="none" stroke-width="12" d="M1213.37 1473.37H882m0-3.37v670h388v-297.77l-1.5-1.5v-36.46l25.77-25.77h7.23l43.5-43.5v-130l-135-135H882m0 15.36h343.36m11.98 11.98H882m0 11.99h367.33m11.99 11.99H882m0 11.98h391.3m11.99 11.99H882m0 11.98h415.27m11.99 11.99H882m0 11.98h439.24m11.99 11.99H882m0 11.98h463m0 11.99H882m0 11.98h463m0 11.99H882m0 11.98h463m0 11.99H882m0 11.98h463m0 11.99H882m0 11.98h463m0 11.99H882m0 11.98h463m-2.05 11.99H882m0 11.98h448.97m-11.99 11.99H882m0 11.98h425m-19.21 11.99H882m0 11.98h393.8m-7.3 11.99H882m0 11.98h386.5m0 11.99H882m0 11.98h388m0 11.99H882m0 11.98h388m0 11.99H882m0 11.98h388m0 11.99H882m0 11.98h388m0 11.99H882m0 11.98h388m0 11.99H882m0 11.98h388m0 11.99H882m0 11.98h388m0 11.99H882m0 11.98h388m0 11.99H882m0 11.99h388m0 11.98H882m0 11.99h388m0 11.98H882m0 11.99h388m0 11.98H882m0 11.99h388m0 11.98H882m0 11.99h388m-90 287.79l.43.44m0 98.42l-.43.44m90 50.35h55m460 240l25-25h165l185-185v-265l-90-90v-55l-35-35v-30m65 30v75l90 90v295l-200 200h-175m5 30l-125 125h-10m135-125h185l215-215v-350l-80-80m-145 180l-85-85v-370l-75-75v-65l-40-40h-80l-40 40h-70l-15 15m405 580v145l65 65m610-635l27.5 22.5M2670 1955v-245l60-60h550m-100 40h-375l-35 35v255l-2.5 2.5"/><path fill="none" stroke-width="8" d="M884.37 1005l-.85.08-1.58.66-1.2 1.2-.66 1.58-.08.85v101.62l1.18-1.18h18.64l1.94 1.94 1.94-1.94h18.64l17.68 17.69v27.64l-.91.91.91.91v27.65l-3.16 3.16 3.16 3.16v18.64l-5.41 5.41 5.41 5.42v18.64l-13.18 13.18h-.33v9.09l.33.33 13.18 13.18v27.65l-4.5 4.5-8.82 8.83-.19.18v4.26l.33.33 13.18 13.18v27.65l-.91.91.91.91v27.65l-4.5 4.5-8.7 8.69-4.48 4.49h-41.16l-1.18-1.18V1444h335.17l9.56 3.96 7.31 7.31 100.89 100.89L1468 1421.09v-8.49l24.6-24.6h8.49l268.52-268.52 13.23-5.48h124.28l-2.81-2.81-7.31-17.64v-47.1l7.31-17.64 13.5-13.5 17.64-7.31h19.1l17.64 7.31 13.5 13.5 7.31 17.64v47.1l-7.31 17.64-2.81 2.81h24.24l-2.81-2.81-7.31-17.64v-47.1l7.31-17.64 13.5-13.5 17.64-7.31h19.1l17.64 7.31 13.5 13.5 7.31 17.64v47.1l-7.31 17.64-2.81 2.81h24.24l-2.81-2.81-7.31-17.64v-47.1l7.31-17.64 13.5-13.5 17.64-7.31h19.1l17.64 7.31 13.5 13.5 7.31 17.64v47.1l-7.31 17.64-2.81 2.81h24.24l-2.81-2.81-7.31-17.64v-47.1l7.31-17.64 13.5-13.5 17.64-7.31h19.1l17.64 7.31 13.5 13.5 7.31 17.64v47.1l-7.31 17.64-2.81 2.81h11.21l8.05-8.05-5.14-12.4v-47.1l7.31-17.64 13.5-13.5 17.64-7.31h19.1l17.64 7.31 13.5 13.5 7.31 17.64v47.1l-7.31 17.64-3.64 3.64.11 4.49-.16.41v.43l-2.58 6.23-2.43 6.29-.3.31-.17.4-4.77 4.77-4.65 4.88-.4.17-27.18 27.18-10.13 10.13-13.23 5.48h-262.38l-2.41 1h-12.74l-2.41-1h-231.31L1552 1438.91v8.49l-24.6 24.6h-8.49L1371 1619.91v105.58l8.43-3.49h278.97l24.6-24.6v-19.8l24.6-24.6h34.8l24.6 24.6v34.8l-6.6 6.6h39.77l7.83 3.24v-9.64l10-10v-28.97l4.87-11.76L1938 1546.75v-143.12l4.87-11.76 9-9 25-25 11.76-4.87h53.97l10-10h34.8l24.6 24.6v34.8l-.6.6h18.15l17.64 7.31 13.5 13.5 7.31 17.64v47.1l-7.31 17.64-5.81 5.81h30.24l-5.81-5.81-7.31-17.64v-47.1l7.31-17.64 13.5-13.5 17.64-7.31h19.1l10.49 4.34 60.42-57.39 3.68-3.69.34-.14.27-.26 4.87-1.87 4.81-1.99h.37l.35-.13 5.21.13h260.21l10.29 4.26 15.74 15.74h48.97l10.29 4.26 20 20 7.88 7.88 4.26 10.29v10.64l5.88-2.99 6.28-2.05 5.84-.92V1461h8v8h38v13.31l-1.03 6.53-2.05 6.28-3 5.89-3.88 5.35-4.68 4.68-1.33.96h39.09l-5.81-5.81-7.31-17.64v-47.1l7.31-17.64 13.5-13.5 17.64-7.31h19.1l17.64 7.31 13.5 13.5 7.31 17.64v47.1l-7.31 17.64-5.81 5.81h30.24l-5.81-5.81-7.31-17.64v-47.1l7.31-17.64 13.5-13.5 17.64-7.31h19.1l17.64 7.31 13.5 13.5 7.31 17.64v47.1l-7.31 17.64-5.81 5.81h30.24l-5.81-5.81-7.31-17.64v-47.1l7.31-17.64 13.5-13.5 17.64-7.31h19.1l17.64 7.31 13.5 13.5 7.31 17.64v47.1l-7.31 17.64-5.81 5.81h30.24l-5.81-5.81-7.31-17.64v-47.1l7.31-17.64 13.5-13.5 17.64-7.31h19.1l17.64 7.31 13.5 13.5 7.31 17.64v47.1l-7.31 17.64-5.81 5.81h30.24l-5.81-5.81-7.31-17.64v-47.1l7.31-17.64 13.5-13.5 17.64-7.31h19.1l17.64 7.31 13.5 13.5 7.31 17.64v47.1l-7.31 17.64-5.81 5.81h30.24l-5.81-5.81-7.31-17.64v-47.1l7.31-17.64 13.5-13.5 17.64-7.31h19.1l17.64 7.31 13.5 13.5 7.31 17.64v47.1l-7.31 17.64-10 10 .17.07 100 100 7.88 7.88 4.26 10.29v205.21l.08.2-.08 5.36v5.37l-.08.19v.21l-2.13 4.93-2.05 4.96-.15.15-.09.19-3.85 3.74-3.79 3.8-.19.08-23.17 22.5v38.23l4.06-4.06H3446V1966h8v8h-8v40.51h-7.52l5.08 4.98h27.36l29.59 29.59v41.84l-29.08 29.08 29.08 29.08v41.84l-29.59 29.59h-41.84l-29.08-29.08-29.08 29.08h-41.84l-29.59-29.59v-26.83l-55.35-55.35-7.88-7.88-4.26-10.29V1937.6l-5 5v19.8l-24.6 24.6h-34.8l-24.6-24.6v-34.8l24.6-24.6h19.8l94.36-94.36-2.45-2.45-7.31-17.64v-47.1l7.31-17.64 13.5-13.5 17.64-7.31h19.1l17.45 7.23v-28.63l-25-25v10.8l-24.6 24.6h-34.8l-16-16H3222v27h7.55l17.64 7.31 13.5 13.5 7.31 17.64v47.1l-7.31 17.64-13.5 13.5-17.64 7.31h-19.1l-12.62-5.23L3073 1946.6v166.8l13.6 13.6h98.97l10.29 4.26 7.88 7.88 75 75 4.26 10.29v9.17l14 14v34.8l-24.6 24.6h-24.42l-2.41 1h-68.97l-23.6 23.6v43.97l-4.26 10.29-60.74 60.74v281.8l58.6 58.6h33.97l10.29 4.26 7.88 7.88 37.86 37.86h3.97l10.29 4.26 56.47 56.47 8.53 3.53 10.5 10.51 9.09-3.77h19.1l17.64 7.31 13.5 13.5 7.31 17.64v47.1l-7.31 17.64-13.5 13.5-17.64 7.31h-19.1l-17.64-7.31-13.5-13.5-7.31-17.64v-31.95l-4-4v35.95l-7.31 17.64-13.5 13.5-17.64 7.31h-19.1l-17.64-7.31-13.5-13.5-7.31-17.64v-31.95l-4-4v35.95l-7.31 17.64-13.5 13.5-17.64 7.31h-19.1l-17.64-7.31-13.5-13.5-7.31-17.64v-31.95l-4-4v35.95l-7.31 17.64-13.5 13.5-17.64 7.31h-19.1l-17.64-7.31-13.5-13.5-7.31-17.64v-47.1l7.31-17.64 12.69-12.69v-14.52l-85.74-85.74-4.26-10.29v-496.14l4.26-10.29.74-.74v-101.8l-10.74-10.74-4.26-10.29V1827h-6.55l-17.64-7.31-13.5-13.5-7.31-17.64v-47.1l7.31-17.64 7.81-7.81h-34.24l7.81 7.81 7.31 17.64v47.1l-7.31 17.64-12.69 12.69v211.69l-4.26 10.29-10.74 10.74v751.8l104.6 104.6h16.95l17.64 7.31 13.5 13.5 7.31 17.64v47.1l-7.31 17.64-13.5 13.5-17.64 7.31h-19.1l-17.64-7.31-13.5-13.5-7.31-17.64v-46.95l-6.73-6.73 2.73 6.58v47.1l-7.31 17.64-13.5 13.5-17.64 7.31h-19.1l-17.64-7.31-13.5-13.5-7.31-17.64v-47.1l1.42-3.43-11.68-11.68 6.26 15.11v47.1l-7.31 17.64-13.5 13.5-17.64 7.31h-19.1l-17.64-7.31-13.5-13.5-7.31-17.64v-47.1l1.42-3.43-7.16-7.16-.74-1.79-1.87 1.88 4.35 10.5v47.1l-7.31 17.64-13.5 13.5-17.64 7.31h-19.1l-17.64-7.31-13.5-13.5-7.31-17.64v-47.1l7.31-17.64 13.5-13.5 17.64-7.31h1.95l4.6-4.6v-621.8l-119-119v763.52l2.69 2.69 7.31 17.64v47.1l-7.31 17.64-13.5 13.5-17.64 7.31h-19.1l-17.64-7.31-13.5-13.5-7.31-17.64v-45.95l-4 4v41.95l-7.31 17.64-13.5 13.5-17.64 7.31h-19.1l-17.64-7.31-13.5-13.5-7.31-17.64v-47.1l2.73-6.58-6.73 6.73v46.95l-7.31 17.64-13.5 13.5-17.64 7.31h-19.1l-17.64-7.31-13.5-13.5-7.31-17.64v-47.1l2.73-6.58-6.73 6.73v46.95l-7.31 17.64-13.5 13.5-17.64 7.31h-19.1l-17.64-7.31-13.5-13.5-7.31-17.64v-47.1l.63-1.51-4.63 4.91v43.7l-7.31 17.64-13.5 13.5-17.64 7.31h-19.1l-17.64-7.31-13.5-13.5-7.31-17.64v-40.95l-4 4v36.95l-7.31 17.64-13.5 13.5-17.64 7.31h-19.1l-17.64-7.31-13.5-13.5-7.31-17.64v-47.1l7.31-17.64 13.5-13.5 17.64-7.31h19.1l5.55 2.3 2.3-2.3H1882v14.4l-1 1v42.6h-38v-13.31l.9-5.69H1833v46.55l-7.31 17.64-13.5 13.5-17.64 7.31h-19.1l-17.64-7.31-13.5-13.5-7.31-17.64v-28.78l-4 4v24.78l-7.31 17.64-13.5 13.5-17.64 7.31h-19.1l-17.64-7.31-13.5-13.5-7.31-17.64v-40.81l-4 4.08v36.73l-7.31 17.64-13.5 13.5-17.64 7.31h-19.1l-17.64-7.31-13.5-13.5-7.31-17.64v-2.66l-13.17 31.79-12.32 12.32H3370.5l39.5-39.5v-442.46l5.33-12.87 9.84-9.84 84.83-84.83v-8.99l-12.32 12.32-34.18 14.16h-37l-34.18-14.16-26.15-26.15-14.16-34.18v-37l14.16-34.18 26.15-26.15 34.18-14.16h37l34.18 14.16 12.32 12.32v-966.98l-12.32 12.32-34.18 14.16h-37l-34.18-14.16-26.15-26.15-14.16-34.18v-37l14.16-34.18 26.15-26.15 34.18-14.16h37l34.18 14.16 12.32 12.32v-18.99l-84.83-84.83-9.84-9.84-5.33-12.87v-67.59l-.08-.85-.66-1.58-1.2-1.2-1.58-.66-.85-.08H1461.51l12.32 12.32 14.16 34.18v37l-14.16 34.18-26.15 26.15-34.18 14.16h-37l-34.18-14.16-26.15-26.15-14.16-34.18v-37l14.16-34.18 12.32-12.32H884.37m-4.37 4.93h265.92m2.67-2.67H1183v40.31l4 1.66 4-1.66v-40.31h34.41l54.33 54.33V1096h-4.35v8h4.35v34.41l-54.33 54.33H1191v-40.31l-4-1.66-4 1.66v40.31h-34.41l-54.33-54.33V1104h4.35v-8h-4.35v-34.41l54.33-54.33m-10.66 10.65H880m0 7.99h249.95m-7.99 7.98H880m0 7.99h233.98m-7.99 7.98H880m0 7.99h218.01m-3.75 7.98H880m0 7.99h214.26m0 7.98H880m0 7.99h214.26m4.35 7.98H880m0 7.99h214.26m0 7.98h-168m7.98 7.99h160.02m0 7.98H940.02m0 7.99h154.24m7.26 7.98h-161.5m0 7.99h169.48m7.99 7.98H940.02m0 7.99h185.45m7.99 7.98H940.02m-.99 7.99h202.41m-28.73 23.95h140.1m7.98-7.98H940.02m0 7.98h85.27m5.3-5.29l-54.33 54.33V1293h40.31l1.66 4-1.66 4h-40.31v34.41l54.33 54.33H1065v-4.35h8v4.35h34.41l54.33-54.33V1301h-40.31l-1.66-4 1.66-4h40.31v-34.41l-54.33-54.33H1073v4.35h-8v-4.35h-34.41m-13.28 13.28h-80.15m2.86 7.98h69.3m-7.98 7.99h-61.32m-2.45 7.98h55.78m-7.98 7.99h-55.79m-3.07 7.98h50.87m-1.12 7.99h-45.61m7.98 7.98h37.63m0 7.99h-36.24m0 7.98h36.24m0 15.97h-39.14m2.9-7.98h78.05m-41.81 15.97h-47.13m-1.52 7.98h48.65m0 7.99H935.6m4.42 7.99h38.14m7.99 7.98h-46.13m0 7.99h54.11m7.99 7.98h-62.1m0 7.99h70.08m7.99 7.98h-78.07m0 7.99h86.05m85.86 0h141.66m7.98 7.98H937.68m-7.99 7.99h549.72m-7.99 7.98H880m0 7.99h588m-4.06 7.98H880m0 7.99h575.95m-7.98 7.98H880m239.91-63.88h125.69m-7.98-7.98H1127.9m7.98-7.99h93.75m-7.98-7.98h-77.78m7.98-7.99h61.81m-7.4-7.4v-81.8l57.84-57.84h81.8l57.84 57.84v81.8l-57.84 57.84h-81.8l-57.84-57.84m0-.58h-46.42m1.9-7.99h44.52m0-7.99h-44.52m0-7.98h44.52m0-7.99h-44.52m0-15.97h44.52m0-7.98h-44.52m0-7.99h44.52m0-7.98h-44.52m-1.12-7.99h45.64m6.62-7.98h-60.25m-7.98-7.99h76.22m7.98-7.98h-92.19m-7.98-7.99h108.16m7.98-7.98h-124.13m62.31-31.94h8m0-7.99h-8m0-7.98h8m0-7.99h-8m0-7.98h8m41.56 31.94h470.93m-7.98 7.98H940.02m179.91 103.81h86.33m150.93-87.84h322.34m-7.98 7.99h-306.37m7.98 7.98h290.4m-7.98 7.99h-274.43m7.98 7.98h258.46m-7.98 7.99h-242.49m6.62 7.98h227.88m-7.98 7.99h-219.9m0 7.98h211.91m-7.98 7.99h-203.93m0 7.98h195.94m-7.98 7.99h-187.96m0 7.98h179.97m-7.98 7.99h-171.99m0 7.98h164m-7.98 7.99h-156.02m0 7.99h148.03m-7.98 7.98h-147.45m-7.99 7.99h147.45m-7.98 7.98h-147.45m-7.99 7.99h147.45m-7.98 7.98H1364.4m-7.99 7.99h147.45m-16.47 7.98h-138.96m75.58 71.87h-182.16m7.98 7.98h166.2m-7.99 7.99h-150.22m7.98 7.98h134.26m-7.99 7.99h-118.28m7.98 7.98h102.32m-7.99 7.99h-86.34m7.98 7.98h70.38m-7.99 7.99h-54.4m7.98 7.98h38.44m-7.99 7.99h-22.46m7.98 7.98h6.49m53.92 47.91h493.83m7.99-7.98h-493.84m7.99-7.99h493.83m7.99-7.98h-493.84m7.99-7.99h493.83m7.99-7.98h-493.84m7.99-7.99h493.83m6.17-7.98h-492.02m7.99-7.99H1938m0-7.98h-476.05m7.99-7.99H1938m0-7.98h-460.08m7.99-7.99H1938m0-7.98h-444.11m7.99-7.99H1938m0-7.98h-428.14m7.99-7.99H1938m0-7.98h-403.68m7.98-7.99H1938m0-7.98h-387.71m1.71-7.99h386m0-7.98h-380.23m7.99-7.99H1938m0-7.98h-364.25m7.98-7.99H1938m1.01-7.98h-349.29m7.98-7.99h344.62m7.2-7.98h-343.83m7.98-7.99h343.83m7.99-7.98h-343.83m7.98-7.99h343.83m14.48-7.98h-350.32m7.98-7.99h404.69m39.4 0h216.52m-9.28 7.99h-199.26m7.99 7.98h182.87m-8.41 7.99H2112m0 7.98h159.72m-8.4 7.99H2112m0 7.98h142.91m-8.4 7.99H2112m32.47 7.98h51.06m-9.58 7.99h-31.9m7.2 7.98h17.5m-3.31 7.99h-10.88m3.3 7.98h4.28m-.14 7.99h-4m0 7.98h4m0 7.99h-4m0 7.98h4m0 7.99h-4m-.2 7.98h4.4m3.31 7.99h-11.02m-3.31 7.98h17.64m196.75 138l10.29-4.26 7.88-7.88 32.86-32.86h176.8l27.86 27.86 7.88 7.88 10.29 4.26h55.8l-49.96 49.96-7.31 7.31-3.96 9.56v11.69l-1.99-1.44-5.89-3-6.28-2.05-5.84-.92V1761h-8v-51.89l-5.84.92-6.28 2.05-5.89 3-5.35 3.88-4.68 4.68-3.88 5.35-3 5.89-2.05 6.28-1.03 6.53V1761h38v59.89l-5.84-.92-6.28-2.05-5.89-3-5.35-3.88-4.68-4.68-3.88-5.35-3-5.89-2.05-6.28-1.03-6.53V1769h46v51.89l5.84-.92 6.28-2.05 5.89-3 1.99-1.44v137.68l-.39 1.28.39 3.86v3.87l.51 1.23.13 1.33 1.84 3.42 1.48 3.58.94.94.63 1.18 3 2.45 2.74 2.74.23.1v17.76l24.6 24.6h34.8l15.1-15.1 20.1 20.1h31.01l-4.11 9.93v202.97l-1.14-1.14-422.62-422.62 7.45-7.45 7.31-17.64v-47.1l-7.31-17.64-13.5-13.5-17.64-7.31h-19.1l-17.64 7.31-13.5 13.5-7.31 17.64v40.95l-4-4v-36.95l-7.31-17.64-13.5-13.5-17.64-7.31h-19.1l-17.64 7.31-13.5 13.5-7.31 17.64v40.95l-4-4v-36.95l-7.31-17.64-13.5-13.5-17.64-7.31h-19.1l-17.64 7.31-13.5 13.5-7.31 17.64v40.95l-4-4v-36.95l-7.31-17.64-13.5-13.5-17.64-7.31h-12.95l15-15h33.97l10.29-4.26 40.74-40.74h182l14 14h34.8l14-14h14.17m5.43-2.25h321.48m-7.98 7.98h-338.84m-7.98 7.99h338.83m-7.98 7.98h-583.64m7.99-7.98h209.44m-7.98-7.99h-193.48m-23.95 23.96h583.63m-7.98 7.99h-583.64m11.58 31.94h-41m7.98 7.98h25.04m-5.19 7.99h-14.66m3.31 7.98h8.04m-2.02 7.99h-4m0 7.98h4m0 7.99h-4m0 7.98h4m0 7.99h-4m100 0h4m0-7.99h-4m0-7.98h4m0-7.99h-4m0-7.98h4m2.02-7.99h-8.04m-3.31-7.98h14.66m5.19-7.99h-25.04m-7.98-7.98h41m16.02-7.99h-73.04m-26.96 0h-73.04m-10.53-7.98h624.44m-3.31 7.98h-110.6m-3.93-1.63l17.64 7.31 13.5 13.5 7.31 17.64v47.1l-7.31 17.64-13.5 13.5-17.64 7.31h-19.1l-17.64-7.31-13.5-13.5-7.31-17.64v-47.1l7.31-17.64 13.5-13.5 17.64-7.31h19.1m19.95 9.62h53.32m13.18 0h8m0 7.98h-8m0 7.99h8m0 7.98h-8m0 7.99h8m0 7.98h-8m0 7.99h8m-8 7.98h-48m0-7.98h10m0-7.99h-10m0-7.98h10.5m2.03-7.99h-14.55m-3.31-7.98h21.7m6.63-7.99h-33.52m-50.96-15.97h-73.04m-3.93-1.63l17.64 7.31 13.5 13.5 7.31 17.64v47.1l-7.31 17.64-13.5 13.5-17.64 7.31h-19.1l-17.64-7.31-13.5-13.5-7.31-17.64v-47.1l7.31-17.64 13.5-13.5 17.64-7.31h19.1m19.95 9.62h41m-7.98 7.98h-25.04m5.19 7.99h14.66m-3.31 7.98h-8.04m2.02 7.99h4m0 7.98h-4m0 7.99h4m0 7.98h-4m0 7.99h4m0 7.98h-4m-1.62 7.99h7.24m3.31 7.98h-13.86m-4.62 7.99h23.1m7.99 7.98h-39.08m-14.65 7.99h68.38m31.62 0H2644m0 7.98h-272.01m-7.99-7.98h40.19m-14.65-7.99h-33.52m2.43-7.98h23.1m-4.62-7.99h-13.86m3.31-7.98h7.24m-1.62-7.99h-4m0-7.98h4m0-7.99h-4m0-7.98h4m0-7.99h-4m0-7.98h4m2.02-7.99h-8.04m-3.31-7.98h14.66m5.19-7.99h-25.04m-7.98-7.98h41m16.02-7.99h-73.04m-26.96 0h-73.04m16.02 7.99h41m-7.98 7.98h-25.04m5.19 7.99h14.66m-3.31 7.98h-8.04m2.02 7.99h4m0 7.98h-4m0 7.99h4m0 7.98h-4m0 7.99h4m107.98 63.88H2644m0 7.98h-256.04m7.99 7.99H2644m0 7.98h-240.07m7.99 7.99H2644m0 7.98h-224.1m7.99 7.99H2644m0 7.98h-208.13m7.99 7.99H2644m0 7.98h-192.16m7.99 7.99H2644m0 7.98h-176.19m7.99 7.99H2644m0 7.98h-160.22m7.99 7.99h151.93m.3 7.98h-144.25m7.99 7.99h139.56m7.05 7.98h-138.63m7.99 7.99h131.79m0 7.98h-123.81m7.99 7.99h121m7.99 7.98h-121.01m7.99 7.99h121m41.7 0h23.3m-7.98-7.99h-7.34m23.31 15.97h-186.01m7.99 7.99H2778m-1 7.99h-197.4m7.99 7.98H2777m0 7.99h-181.43m7.99 7.98H2777m0 7.99h-165.46m7.99 7.98H2777m0 7.99h-149.49m7.99 7.98H2777m0 7.99h-133.52m7.99 7.98H2777m0 7.99h-117.55m7.99 7.98H2777m0 7.99h-101.58m7.99 7.98H2777m0 7.99h-85.61m7.99 7.98H2777m0 7.99h-69.64m7.99 7.98H2777m0 7.99h-53.66m7.98 7.98H2777m0 7.99h-37.69m7.98 7.98H2777m0 7.99h-21.72m7.98 7.98H2777m0 7.99h-5.75m61.75 0h99m0 7.98h-99m0 7.99h99m0 7.98h-99m0 7.99h99m0 7.98h-99m0 7.99h99m0 7.98h-99m0 7.99h99m-2.55 7.98H2833m0 7.99h94m0 7.98h-94m0 7.99h94m0 7.98h-94m0 7.99h94m0 7.98h-94m0 7.99h94m0 7.98h-94m0 7.99h94m0 7.99h-94m0 7.98h94m0 7.99h-94m0 7.98h94m0 7.99h-94m0 7.98h94m0 7.99h-94m0 7.98h94m0 7.99h-94m0 7.98h94m0 7.99h-94m0 7.98h94m0 7.99h-94m0 7.98h94m0 7.99h-94m0 7.98h94m0 7.99h-94m0 7.98h94m0 7.99h-94m0 7.98h94m0 7.99h-94m0 7.98h94m0 7.99h-94m0 7.98h94m0 7.99h-94m0 7.98h94m0 7.99h-94m0 7.98h94m0 7.99h-94m0 7.98h94m0 7.99h-94m0 7.98h94m0 7.99h-94m0 7.98h94m0 7.99h-94m0 7.98h94m0 7.99h-94m0 7.98h94m0 7.99h-94m0 7.98h94m0 7.99h-94m0 7.98h94m0 7.99h-94m0 7.98h94m0 7.99h-94m0 7.99h94m0 7.98h-94m0 7.99h94m0 7.98h-94m0 7.99h94m0 7.98h-94m0 7.99h94m0 7.98h-94m3.17 7.99h91.25m3.3 7.98h-86.56m7.98 7.99h85.81m7.98 7.98h-85.8m7.98 7.99h85.81m7.98 7.98h-85.8m7.98 7.99h85.81m7.98 7.98h-85.8m7.98 7.99h85.81m7.98 7.98h-85.8m7.98 7.99h85.81m7.98 7.98h-85.8m7.99 7.99h85m0 7.98h-56.7m14.95 7.99h39.5m-7.98 7.98h-23.54m4.75 7.99h14.04m-3.31 7.98h-7.42m1.71 7.99h4m0 7.98h-4m0 7.99h4m0 7.98h-4m0 7.99h4m0 7.98h-4m-1.93 7.99h7.86m3.31 7.98h-14.48m-5.07 7.99h24.62m7.98 7.98h-40.58m-15.72 7.99h72.02m27.98 0h72.02m-15.72-7.99h-40.58m7.98-7.98h24.62m-5.07-7.99h-14.48m3.31-7.98h7.86m-1.93-7.99h-4m0-7.98h4m0-7.99h-4m0-7.98h4m-3.3-7.99h-.7m65.99 71.87h72.02m-15.72-7.99h-40.58m7.98-7.98h24.62m-5.07-7.99h-14.48m3.31-7.98h7.86m-1.93-7.99h-4m0-7.98h4m0-7.99h-4m0-7.98h4m-3.3-7.99h-.7m100 0h.7m-.7 7.99h4m0 7.98h-4m0 7.99h4m0 7.98h-4m-1.93 7.99h7.86m3.31 7.98h-14.48m-5.07 7.99h24.62m7.98 7.98h-40.58m-15.72 7.99h72.02m27.98 0h16.35m-.63-7.99h8.62m-.64-7.98h8.62m-3.55-7.99h11.54m7.98-7.98h-16.21m1.93-7.99h17m0-7.98h-17m0-7.99h17m0-7.98h-17m0-7.99h17m0-7.98h-17m-1.71-7.99H3410m0-7.98h-22.02m-4.75-7.99H3410m0-7.98h-34.75m-14.95-7.99h49.7m0-7.98h-93m7.98 7.98h4.72m-25.69-15.97H3410m0-7.98h-113.98m-7.98-7.99H3410m0-7.98h-129.95m-7.98-7.99H3410m0-7.98h-145.92m-7.98-7.99H3410m0-7.98h-165.77m-14.1-7.99H3410m0-7.98h-187.86m-7.98-7.99H3410m0-7.98h-203.83m-7.98-7.99H3410m0-7.98h-220.73m-47.05-7.99H3410m0-7.98h-275.77m-7.98-7.99H3410m0-7.98h-291.74m-7.98-7.99H3410m0-7.98h-307.71m-7.98-7.99H3410m0-7.99h-322m0-7.98h322m0-7.99h-322m0-7.98h322m0-7.99h-322m0-7.98h322m0-7.99h-322m0-7.98h322m0-7.99h-322m0-7.98h322m0-7.99h-322m0-7.98h322m0-7.99h-322m0-7.98h322m0-7.99h-322m0-7.98h322m0-7.99h-322m0-7.98h322m0-7.99h-322m0-7.98h322m0-7.99h-322m0-7.98h322m.82-7.99H3088m0-7.98h326.13m6.29-7.99H3088m0-7.98h340.41m7.98-7.99H3088m0-7.98h356.38m7.98-7.99H3088m0-7.98h372.35m7.98-7.99H3088m0-7.98h388.32m7.98-7.99H3088m0-7.98h404.29m7.98-7.99h-18.04m17.03-7.98h9m-1.01-7.99h2.75m-102.23 15.97H3088m0-7.98h302.74m-7.99-7.99h-287.41m7.98-7.98h271.45m-7.99-7.99h-255.47m7.98-7.98h243.82m-3.31-7.99h-232.52m7.98-7.98h221.24m-3.31-7.99h-209.94m6.52-7.98h202.24m0-7.99H3153m0-7.99h199.01m0-7.98H3153m0-7.99h199.04m3.31-7.98H3153m0-7.99h205.66m3.3-7.98h-204.83m7.98-7.99h200.16m6.72-7.98H3173.1m102.78-7.99h104.1m7.98-7.98h-104.09m7.98-7.99h109.22m19.27-7.98H3297m0-7.99h213m0-7.98h-213m0-7.99h213m0-7.98h-213m-7.97-7.99H3510m0-7.98h-227m-.32-7.99H3510m0-7.98h-34.24m7.98-7.99H3510m0-7.98h-18.27m7.98-7.99H3510m0-7.98h-9.49m0-7.99h9.49m0-7.98h-9.49m0-7.99h9.49m0-7.98h-9.49m-5.26-7.99H3510m0-7.98h-22.74m-7.98-7.99H3510m0-7.98h-38.42m7.98-7.99H3510m0-7.98h-22.45m7.98-7.99H3510m0-7.98h-9.49m0-7.99h9.49m0-7.98h-9.49m0-7.99h9.49m0-7.98h-9.49m-1.09-7.99H3510m0-7.98h-18.56m-7.99-7.99H3510m0-7.99h-34.53m-7.03-9.52H3454V1974h40.51v14.44l-26.07 26.07m6.44-6.45H3510m0-7.98h-27.13m7.98-7.99H3510m0-7.98h-15.49m0-7.99H3510m0-7.98h-56m0-2.14h40.51v-14.44l-26.07-26.07H3454V1966m0-5.85h-8m0-7.98h8m0-7.99h-8m0-7.98h8m0-7.99h-8m-17.16 0h-1.34m0-7.98h82.5m0 7.98h-38.84m7.99 7.99H3510m0 7.98h-22.87m7.38 7.99H3510m0 7.98h-15.49m-40.51 15.97h-8m0 7.99h8m0 7.98h-8m0 7.99h8m0 7.98h-8m-5.95 7.99H3510m0-103.81h-82.5m0-7.98h82.5m0-7.99h-82.5m3.12-7.98H3510m0-7.99h-71.16m8.22-7.98H3510m0-7.99h-54.72m5.33-7.98H3510m0-7.99h-47m.07-7.98H3510m0-7.99h-47m0-7.98h47m0-7.99h-47m0-7.98h47m0-7.99h-47m0-7.98h47m0-7.99h-47m0-7.98h47m0-7.99h-47m0-7.98h47m0-7.99h-47m0-7.98h47m0-7.99h-47m0-7.98h47m0-7.99h-47m0-7.98h47m0-7.99h-47m0-7.98h47m0-7.99h-47m0-7.98h47m0-7.99h-47m0-7.99h47m0-7.98h-47m0-7.99h47m0-7.98h-47m-.69-7.99H3510m0-7.98h-51m-7.61-7.99H3510m0-7.98h-66.59m-7.99-7.99H3510m0-7.98h-82.56m-7.99-7.99H3510m0-7.98h-98.53m-7.99-7.99H3510m0-7.98h-114.5m-7.99-7.99H3510m0-7.98h-130.47m-7.99-7.99H3510m0-7.98h-146.44m-7.99-7.99H3510m0-7.98h-156.11m7.29-7.99H3510m0-7.98h-145.51m3.31-7.99H3510m0-7.98h-142m0-7.99h142m0-7.98h-142m0-7.99h142m0-7.98h-142m-.14-7.99H3510m0-7.98h-145.44m-3.31-7.99H3510m0-7.98h-155.95m-9.58-7.99H3510m0-7.98h-813.34m1.34 7.98h17.55m.45 0h8m0-.07l5.84.92 6.28 2.05 5.89 3 5.35 3.88 4.68 4.68 3.88 5.35 3 5.89 2.05 6.28 1.03 6.53V1461h-38v-51.89m.45.07h71.08m-9.58 7.99h-41.06m8.24 7.98h25.62m-3.31 7.99h-17.4m2.91 7.98h11.19m-.14 7.99h-10m0 7.98h10m0 7.99h-48m0-7.99h-8m0-7.98h8m0-7.99h-8m0-7.98h8m0-7.99h-8m0-7.98h8m-31.19-23.96H3510m0-7.98h-825.18m-7.98-7.99H3510m0-7.98h-841.15m35.76-43.74l-14.52-14.52H1973.4l-16 16h-34.8l-24.6-24.6v-34.8l24.6-24.6h10.58l9.66-4h769.32l13.23 5.48 8.52 8.52h28.49l24.6 24.6v34.8l-24.6 24.6h-34.8l-6-6h-3.76l-13.23-5.48m-4.18-4.18h-737.38m7.99-7.98h721.41m21.36 15.97H1661.58m-7.98 7.99h1727.2m7.99 7.98h-800.25m9.34 7.99h805.19m19.28 7.98h-816.48m112.31-119.78h637.97m3.31-7.98H1757.4m-7.98 7.98h187.4m-20.7 7.99h-174.69m-7.98 7.98h174.69m-7.99 7.99h-174.69m-7.98 7.98H1898m0 7.99h-188.51m-7.98 7.98H1898m0 7.99h-204.48m-7.98 7.98h215.44m7.98 7.99h-231.41m-7.98 7.98h247.38m-135.59-111.79h1592.58m-7.86 7.99H1773.37m-7.98 7.98h1597.38m-9.92 23.96h-622.46m36.47 7.98h585.15m0 7.99h-577.16m7.98 7.98h569.18m0 7.99H2787m0 7.98h565.38m3.31 7.99H2787m0 7.98h572m3.31 7.99h-576.27m-7.99 7.98h587.56m7.21 7.99h-602.75m74.4 79.85h51.06m-9.58 7.99h-31.9m7.2 7.98h17.5m-3.31 7.99h-10.88m3.3 7.98h4.28m-.14 7.99h-4m0 7.98h4m0 7.99h-4m0 7.98h4m0 7.99h-4m-.2 7.98h4.4m3.31 7.99h-11.02m-3.31 7.98h17.64m-100 0h-25.8m4.94-7.98h17.55m-3.31-7.99h-11.3m1.1-7.98h10m0-7.99h-10m182.47-63.88h51.06m-9.58 7.99h-31.9m7.2 7.98h17.5m-3.31 7.99h-10.88m3.3 7.98h4.28m-.14 7.99h-4m0 7.98h4m0 7.99h-4m0 7.98h4m0 7.99h-4m-.2 7.98h4.4m3.31 7.99h-11.02m-3.31 7.98h17.64m82.36 0h17.64m-3.31-7.98h-11.02m3.31-7.99h4.4m-.2-7.98h-4m0-7.99h4m0-7.98h-4m0-7.99h4m0-7.98h-4m-.14-7.99h4.28m3.3-7.98h-10.88m-3.31-7.99h17.5m7.2-7.98h-31.9m-9.58-7.99h51.06m48.94 0h51.06m-9.58 7.99h-31.9m7.2 7.98h17.5m-3.31 7.99h-10.88m3.3 7.98h4.28m-.14 7.99h-4m0 7.98h4m0 7.99h-4m0 7.98h4m0 7.99h-4m-.2 7.98h4.4m3.31 7.99h-11.02m-3.31 7.98h17.64m82.36 0h17.64m-3.31-7.98h-11.02m3.31-7.99h4.4m-.2-7.98h-4m0-7.99h4m0-7.98h-4m0-7.99h4m0-7.98h-4m-.14-7.99h4.28m3.3-7.98h-10.88m-3.31-7.99h17.5m7.2-7.98h-31.9m-9.58-7.99h51.06m172.12-47.91H3510m0-7.98h-23.07m14.28-7.99h8.79m0-7.98h-.8m-1.12-135.75h1.92m0-7.99h-9.91m9.91-7.98h-25.76m10.89-15.97H2340.28m-7.98 7.98h1092.74m-19.28 7.99H2317.13m31.14-23.96h1138.88m-7.99-7.98H2356.25m7.99-7.99h1106.94m-7.99-7.98H2372.22m5.92-7.99h251.77m5.54 2.3l-17.64-7.31-13.5-13.5-7.31-17.64v-47.1l7.31-17.64 13.5-13.5 17.64-7.31h19.1l17.64 7.31 13.5 13.5 7.31 17.64v47.1l-7.31 17.64-13.5 13.5-17.64 7.31h-19.1m-20.61-10.28h-51.35m-2.37 1.2l-6.28 2.05-5.84.92V1074h38v13.31l-1.03 6.53-2.05 6.28-3 5.89-3.88 5.35-4.68 4.68-5.35 3.88-5.89 3m-12.12-1.2h-8m0 4.17l-5.84-.92-6.28-2.05-5.89-3-5.35-3.88-4.68-4.68-3.88-5.35-3-5.89-2.05-6.28-1.03-6.53V1074h38v51.89m0-12.16h8m0-7.98h-8m0-7.99h8m0-7.98h-8m0-7.99h8m0-7.79h-8v-8h8v8m0-.19h48m0 7.98h-10m-.39 7.99H2597m1.75 7.98h-14.06m-3.63 7.99h20.99m4.8 7.98h-32.19m-48.15 7.99h-63.02m-2.37 1.2l-6.28 2.05-5.84.92V1074h38v13.31l-1.03 6.53-2.05 6.28-3 5.89-3.88 5.35-4.68 4.68-5.35 3.88-5.89 3m-12.12-1.2h-8m0 4.17l-5.84-.92-6.28-2.05-5.89-3-5.35-3.88-4.68-4.68-3.88-5.35-3-5.89-2.05-6.28-1.03-6.53V1074h38v51.89m0-12.16h8m0-7.98h-8m0-7.99h8m0-7.98h-8m0-7.99h8m0-7.79h-8v-8h8v8m0-.19h92m0-7.81h-38v-13.31l1.03-6.53 2.05-6.28 3-5.89 3.88-5.35 4.68-4.68 5.35-3.88 5.89-3 6.28-2.05 5.84-.92V1066m0-.18h8m0 .18v-51.89l5.84.92 6.28 2.05 5.89 3 5.35 3.88 4.68 4.68 3.88 5.35 3 5.89 2.05 6.28 1.03 6.53V1066h-38m0-8.16h-8m0-7.99h8m0-7.98h-8m0-7.99h8m0-7.98h-8m0-7.99h8m13.76 0h52.45m-7.99 7.99h-32.93m6.55 7.98h21.37m-3.31 7.99h-14.33m1.98 7.98H2597m0 7.99h-10m0 7.98h10m33.8-55.89h-271.6m15.59 7.98h52.45m1.64-.83l6.28-2.05 5.84-.92V1066h-38v-13.31l1.03-6.53 2.05-6.28 3-5.89 3.88-5.35 4.68-4.68 5.35-3.88 5.89-3m12.12.83h8m0-3.8l5.84.92 6.28 2.05 5.89 3 5.35 3.88 4.68 4.68 3.88 5.35 3 5.89 2.05 6.28 1.03 6.53V1066h-38v-51.89m0 11.79h-8m0 7.98h8m0 7.99h-8m0 7.98h8m0 7.99h-8m0 7.98h8m-8 7.99h-48m0 7.98h10m.39 7.99H2393m-1.75 7.98h14.06m3.63 7.99h-20.99m-4.8 7.98h32.19m11.17 7.99h-45.15m-79.31-15.97h-14.1m3.3-7.99h7.5m-1.75-7.98h-4m0-7.99h4m0-7.98h-4m0-7.99h4m0-7.98h-4m0-7.99h4m1.9-7.98h-7.8m-3.31-7.99h14.42m5.01-7.98h-24.44m-7.99-7.99h40.42m15.59-7.98h-71.6m-28.4 0h-71.6m15.59 7.98h40.42m-7.99 7.99h-24.44m5.01 7.98h14.42m-3.31 7.99h-7.8m1.9 7.98h4m0 7.99h-4m0 7.98h4m0 7.99h-4m0 7.98h4m0 7.99h-4m-1.75 7.98h7.5m3.3 7.99h-14.1m-4.8 7.98h23.7m-100 0h-23.7m4.8-7.98h14.1m-3.3-7.99h-7.5m1.75-7.98h4m0-7.99h-4m0-7.98h4m0-7.99h-4m0-7.98h4m0-7.99h-4m-1.9-7.98h7.8m3.31-7.99h-14.42m-5.01-7.98h24.44m7.99-7.99h-40.42m-15.59-7.98h71.6m-100 0h-71.6m15.59 7.98h40.42m-7.99 7.99h-24.44m5.01 7.98h14.42m-3.31 7.99h-7.8m1.9 7.98h4m0 7.99h-4m0 7.98h4m0 7.99h-4m0 7.98h4m0 7.99h-4m-1.75 7.98h7.5m3.3 7.99h-14.1m-4.8 7.98h23.7m-100 0h-429.31m3.31-7.98h421.2m-3.3-7.99h-414.6m3.31-7.98H1897m0-7.99h-409.01m0-7.98H1897m0-7.99h-409.01m0-7.98H1897m0-7.99h-409.69m-3.31-7.98h414.9m3.31-7.99h-421.52m-3.3-7.98h429.83m7.99-7.99h-441.13m-7.64-7.98h464.36m-163.43 111.79h-293.14m-7.42 7.98h292.58m-7.99 7.99h-292.58m-7.98 7.98h292.58m-7.99 7.99h-299.4m-19.28 7.98h310.7m-7.99 7.99h-470.93m7.98-7.99h116.74m-19.28-7.98h-89.47m7.98-7.99h66.68m-7.98-7.98h-51.44m0-7.99h43.45m-7.42-7.98h-36.03m0-7.99h32.72m-3.31-7.98h-29.41m-4.35-7.99h30.46m-3.31-7.98h-22.8m0-7.99h22.27m0-7.98h-22.27m0-7.99h22.27m0-7.98h-26.02m-7.98-7.99h34.68m3.31-7.98h-45.98m-7.98-7.99h57.27m3.3-7.98h-68.56m-7.99-7.99h79.86m7.64-7.98h-95.48m-37.08 0h-8m0 7.98h8m0 7.99h-8m0 7.98h8m0 7.99h-8m57.54 135.74h470.94m-23.96 23.96h-338.31m440.13 0h1592.58m7.99-7.99H1797.33m-357.35 255.53h-214.1m7.98 7.98H1432m-49.9 151.72h493.84m-7.99 7.98h-493.83m-3.12 7.99h488.97m-7.99 7.98H1371m0 7.99h473m-7.99 7.98H1371m0 7.99h332.88m-7.98 7.98H1371m0 7.99h316.91m-4.91 7.99h-312m0 7.98h312m0 7.99h-312m0 7.98h304.77m-7.98 7.99H1371m0 7.98h288.8m106.98-7.98H1808m0 7.98h-3.96m11.93-15.97H1767m0-7.98h51m0-7.99h-51m0-7.98h51m.39-7.99h-56.3m-7.99-7.99h67.6m6.33-7.98h-81.91m284.82 31.94h623.63m-10.57 23.96h-6.82M2624 1776.5h-8m0 7.98h8m0 7.99h-8m0 7.98h8m0 7.99h-8m0 7.98h8m15.07 0h4.93m-43.07 0h-50.47m7.99-7.98h31.59m-6.25-7.99h-20.72m3.31-7.98h13.83m-1.87-7.99H2568m0-7.98h10m60.17-143.74h-246.34m7.99-7.98h230.36m-7.98-7.99h-214.4m7.99-7.98h198.42m-7.98-7.99h-182.46m433.71 119.78h25.04m-5.19 7.99h-14.66m3.31 7.98h8.04m-2.02 7.99h-4m0 7.98h4m0 7.99h-4m0 7.98h4m0 7.99h-4m0 7.98h4m1.62 7.99h-7.24m-3.31 7.98h13.86m4.62 7.99h-23.1m-7.99 7.98h39.08m14.65 7.99H2848m0 7.98h69m0 7.99h-69m0 7.98h69m0 7.99h-69m0 7.98h69m0 7.99h-69m0 7.98h69m0 7.99h-69m0 7.98h69m0 7.99h-69m0 7.98h69m0 7.99h-69m0 7.98h69m0 7.99h-69m0 7.98h69m0 7.99h-69m0 7.98h69m0 7.99h-69m0 7.98h69m0 7.99h-69m0 7.98h69m0 7.99h-69m0 7.98h69m0 7.99h-69m0 7.98h69m0 7.99h-69.6m-3.31 7.99H2917m0 7.98h-80.39m-3.61 7.99h84m0 7.98h-84m0 7.99h84m0 7.98h-84m0 7.99h84m0 7.98h-84m0 7.99h84m0 7.98h-84m0 7.99h84m0 7.98h-84m0 7.99h84m0 7.98h-84m0 7.99h84m0 7.98h-84m0 7.99h84m.08 7.98H2833m0 7.99h87.38m6.74 7.98H2833m0 7.99h99m0 7.98h-99m0 7.99h99m0 7.98h-99m-191 63.88h-119m0-7.98h116.96m-7.98-7.99H2523m0-7.98h100.99m-7.98-7.99H2523m0-7.98h85.02m-7.98-7.99H2523m0-7.98h69.05m-7.99-7.99H2523m0-7.98h53.08m-7.99-7.99H2523m0-7.98h37.11m-7.99-7.99H2523m0-7.98h21.14m-7.99-7.99H2523m0-7.98h5.17m-5.17 127.76h119m0 7.98h-119m0 7.99h119m0 7.98h-119m0 7.99h119m0 7.98h-119m0 7.99h119m0 7.98h-119m0 7.99h119m0 7.98h-119m0 7.99h119m0 7.99h-119m0 7.98h119m0 7.99h-119m0 7.98h119m0 7.99h-119m0 7.98h119m0 7.99h-119m0 7.98h119m0 7.99h-119m0 7.98h119m0 7.99h-119m0 7.98h119m0 7.99h-119m0 7.98h119m0 7.99h-119m0 7.98h119m0 7.99h-119m0 7.98h119m0 7.99h-119m0 7.98h119m0 7.99h-119m0 7.98h119m0 7.99h-119m0 7.98h119m0 7.99h-119m0 7.98h119m0 7.99h-119m0 7.98h119m0 7.99h-119m0 7.98h119m0 7.99h-119m0 7.98h119m0 7.99h-119m0 7.98h119m0 7.99h-119m0 7.98h119m0 7.99h-119m0 7.98h119m0 7.99h-119m0 7.98h119m0 7.99h-119m0 7.98h119m0 7.99h-119m0 7.98h119m0 7.99h-119m0 7.99h119m0 7.98h-119m0 7.99h119m0 7.98h-119m0 7.99h119m0 7.98h-119m0 7.99h119m0 7.98h-119m0 7.99h119m0 7.98h-119m0 7.99h119m0 7.98h-119m0 7.99h119m0 7.98h-119m0 7.99h119m0 7.98h-119m0 7.99h119m0 7.98h-119m0 7.99h119m0 7.98h-119m0 7.99h119m-12.3 7.98H2523m0 7.99h91.75m-7.98 7.98h-83.54m4.75 7.99h74.04m-3.31 7.98h-67.42m1.71 7.99h64m0 7.98h-64m0 7.99h64m0 7.98h-64m0 7.99h64m0 7.98h-64m-1.93 7.99h67.86m3.31 7.98h-74.48m-5.07 7.99h84.62m7.98 7.98h-100.58m-15.72 7.99h132.02m27.98 0h72.02m-15.72-7.99h-40.58m7.98-7.98h24.62m-5.07-7.99h-14.48m3.31-7.98h7.86m-1.93-7.99h-4m0-7.98h4m0-7.99h-4m0-7.98h4m0-7.99h-4m0-7.98h4m.73-7.99h-6.44m-.66-7.98h-.37m97.72 0h1.76m1.55 7.98h6.44m-.73 7.99h-4m0 7.98h4m0 7.99h-4m0 7.98h4m0 7.99h-4m0 7.98h4m1.93 7.99h-7.86m-3.31 7.98h14.48m5.07 7.99h-24.62m-7.98 7.98h40.58m15.72 7.99h-72.02m100 0h72.02m-15.72-7.99h-40.58m7.98-7.98h24.62m-5.07-7.99h-14.48m3.31-7.98h7.86m-1.93-7.99h-4m0-7.98h4m0-7.99h-4m0-7.98h4m0-7.99h-4m0-7.98h4m-4.27-7.99h-1.44m-420.28 87.84h-72.02m15.72-7.99h40.58m-7.98-7.98h-24.62m5.07-7.99h14.48m-3.31-7.98h-7.86m1.93-7.99h4m0-7.98h-4m0-7.99h4m0-7.98h-4m0-7.99h4m0-7.98h-2.71m-92.05 55.89h-14.48m3.31-7.98h7.86m-1.93-7.99h-4m0-7.98h4m0-7.99h-4m0-7.98h4m0-7.99h-4m0-7.98h4m.27-7.99h1.44m-100 0h-1.44m-.27 7.99h-4m0 7.98h4m0 7.99h-4m0 7.98h4m0 7.99h-4m0 7.98h4m1.93 7.99h-7.86m-3.31 7.98h14.48m5.07 7.99h-24.62m-7.98 7.98h40.58m15.72 7.99h-72.02m-27.98 0h-72.02m15.72-7.99h40.58m-7.98-7.98h-24.62m5.07-7.99h14.48m-3.31-7.98h-7.86m1.93-7.99h4m0-7.98h-4m0-7.99h4m0-7.98h-4m0-7.99h4m0-7.98h-4m-90.76 55.89h-14.48m3.31-7.98h7.86m-1.93-7.99h-4m0-7.98h4m0-7.99h-4m0-7.98h4m0-7.99h-4m-10.31 55.9h24.62m7.98 7.98h-40.58m-15.72 7.99h72.02m-100 0h-172.02m15.72-7.99h52.7m1.47.75l-5.89-3-5.35-3.88-4.68-4.68-3.88-5.35-3-5.89-2.05-6.28-1.03-6.53V2974h38v51.89l-5.84-.92-6.28-2.05m12.12-.75h8m0 3.72V2974h-8v-8h8v8h38v13.31l-1.03 6.53-2.05 6.28-3 5.89-3.88 5.35-4.68 4.68-5.35 3.88-5.89 3-6.28 2.05-5.84.92m0-11.7h-8m0-7.99h8m0-7.98h-8m0-7.99h8m0-7.98h-8m0-7.99h8m0-7.98h48m0 7.98h-10m0 7.99h10m0 7.98h-10.46m-2 7.99h14.39m3.31 7.98h-21.46m-6.57 7.99h33.1m7.98 7.98h-52.7m-46.8-7.98h-33.1m5.07-7.99h21.46m-3.76-7.98h-14.39m1.93-7.99h10.46m-.46-7.98h-10m0-7.99h10m-10-7.98h48m0-7.99h8m0 7.71v-51.89l5.84.92 6.28 2.05 5.89 3 5.35 3.88 4.68 4.68 3.88 5.35 3 5.89 2.05 6.28 1.03 6.53V2966h-38m0-15.69h-8m0-7.99h8m0-7.98h-8m0-7.99h8m0-7.98h-7m0-7.99h87.7m-14.95 7.99h-51.09m11.09 7.98h32.02m-4.75 7.99h-20.92m3.62 7.98h13.99m-1.71 7.99h-10.38m.38 7.98h10m-93.62-7.98H1833m0 7.98h10m-95.69 55.9h-24.62m5.07-7.99h14.48m-3.31-7.98h-7.86m1.93-7.99h4m0-7.98h-4m0-7.99h4m0-7.98h-1.51m-98.49 0h-4m0 7.98h4m0 7.99h-4m0 7.98h4m1.93 7.99h-7.86m-3.31 7.98h14.48m5.07 7.99h-24.62m-7.98 7.98h40.58m15.72 7.99h-72.02m-27.98 0h-54.66m7.69-7.99h31.25m-7.98-7.98h-19.96m3.31-7.99h11.58m-3.31-7.98h-4.96m99.03-39.93h4m61.99 71.87h72.02m-15.72-7.99h-40.58m-284.14-145.16l-16.08-16.09v-10.05l-48.3 48.29-7.03 7.03-9.19 3.81h-107.32l-1.14.19-1.95.81h-2.91l-2.86.48-2.06-.48h-2.12l-2.68-1.11-2.83-.66-1.72-1.23-1.96-.81-2.05-2.05-2.36-1.69-1.12-1.79-13.25-13.24h-24.04l-24.6-24.61v-34.79l24.6-24.6h34.8l24.6 24.6v24.04l6.94 6.94h90.7l91.2-91.19 3.55-1.47-8.9-8.9V2744H1461v-8h8v8h40.51v14.44l-8.9 8.9 3.55 1.47 7.03 7.03 23.27 23.27 9.11-9.11-29.08-29.08v-41.84l27.32-27.32-29.81-29.81v-43.9l28.05-28.05-28.05-28.05v-43.9l31.05-31.05h43.9l28.05 28.05 28.05-28.05h43.9l31.05 31.05V2543h19.4l24.6 24.6v.15l10.25-10.25-46.08-46.07-4.87-11.77v-367.72l4.87-11.76 9-9.01 47.83-47.82v-.1l-1.13-1.12-9-9-4.87-11.76v-228.12l-1.25-1.25h-28.5l-26.12 26.13-9 9-11.76 4.87h-38.12l-11.12 11.13-9 9-11.76 4.87h-57.74l-11.76-4.87-40.12-40.13h-78.5l-76.12 76.13-9 9-11.76 4.87H1296v213.75l27.25 27.25h14.15l24.6 24.6v34.8l-24.6 24.6h-34.8l-7.6-7.6v279.16l6.19 6.2.96-.26H1321v41.5h8v8h-8v41.5h-18.85l-.96-.26-6.19 6.2V2795H880v235.63l.08.85.66 1.58 1.2 1.2 1.58.66.85.08h494.12l-12.32-12.32-14.16-34.18v-37l14.16-34.18 26.15-26.15 34.18-14.16h4.07m-7.53 1.43h-36.13m-7.98 7.99h24.83m-14.68 7.98h-18.14m-7.98 7.99h18.13m-7.98 7.98h-132.06m-12.93 0H880m0-7.98h335.35m-7.71-7.99H880m0-7.98h295.61m-7.98-7.99H880m0-7.98h279.64m-6.64-7.99H880m0-7.98h273m0-7.99H880m0-7.98h273m0-7.99H880m0-7.98h279.47m7.99-7.99H880m0-7.98h295.44m39.12 0h173.51m-7.99 7.98h-157.54m7.99 7.99h141.57m-7.99 7.98H1237m0 7.99h119.13m-7.99 7.98H1237m1.42 7.99h101.74m54.74 15.97h29.12m-7.98-7.99h-13.16m7.99-7.98h3.62m-18.44-55.9H880m0 119.78h485.73m-3.3 7.98H880m0 7.99h479.12m-3.31 7.98H880m0 7.99h472.5m-.49 7.98H880m0 7.99h472.01m0 7.98H880m0 7.99h472.01m.72 7.98H880m0 7.99h476.03m3.31 7.98H880m0 7.99h482.65m3.31 7.98H880m0 7.99h493.65m30.39-239.55H1295m0-7.99h117.02m7.99-7.98H1295m0-7.99h133.7m-7.98-7.98H1295m0-7.99h125.49m0-14.68v-14.44l26.07-26.07H1461V2736h-40.51m0-1.29H1295m0 7.99h166m0-7.99h8m0 1.29v-40.51h14.44l26.07 26.07V2736H1469m0 6.7h45.49m0 7.98h-4.98m-.23 7.99h5.21m5.73 7.98h-18.92m8.69 7.99h18.21m7.99 7.98h-18.21m7.98 7.99h17m-7.99 7.98h-1.02m-19.46-63.88h-4.98m0-7.99h4.98m.34-7.98h-8.14m-7.99-7.99h24.11m7.99-7.98h-40.08m-21.72 0h-8m0 7.98h8m0 7.99h-8m0 7.98h8m-29.72-23.95H1295m0 7.98h136.3m-7.99 7.99H1295m0 7.98h125.49m92.4-63.88H1295m0-7.98h217m0-7.99h-217m0-7.98h217m0-7.99h-217m0-7.98h217m3.11-7.99h-165.15m2.03-.54l-4.14 1.11H1329V2574h33v27.35l-1.11 4.14-2.15 3.72-3.03 3.03-3.72 2.15m8.06-7.44h163.05m7.98-7.99H1362m0-7.98h177.07m-6.03-7.99H1362m0-7.98h163.05m-7.98-7.99H1329m0-1.02h33v-27.35l-1.11-4.14-2.15-3.72-3.03-3.03-3.72-2.15-4.14-1.11H1329v41.5m0-6.96h-8m0-7.99h8m0-7.98h-8m0-7.99h8m0-7.98h-8m-25.45-7.99H1512m0 7.99h-157.43m6.47 7.98H1512m0 7.99h-150m0 7.98h150m0 7.99h-150m-33 15.97h-8m0 7.98h8m0 7.99h-8m0 7.98h8m0 7.99h-8m0 7.98h8m-34 55.9h225.88m7.98 7.98H1295m0 7.99h241.85m1.93 7.98H1295m0-183.65h223.92m7.98-7.99H1295m0-7.98h239.89m7.99-7.99H1295m0-7.98h426.3m0 7.98h-34.18m7.99 7.99h26.19m1.44 7.98h-19.65m7.99 7.99h14.97m7.81 7.98H1718m0 7.99h23.84m7.99 7.98H1718m19.46 7.99h20.35m7.99 7.98h-20.35m7.98 7.99h17.28m-7.99 7.98h-1.3m55.18 75.98l-3.6 3.6v43.97l-4.26 10.29-7.88 7.88-27.86 27.86v47l.81.82 14.15-14.15 7.31-7.31 9.56-3.96h159.4L2134 2589.23v-243.46l-86.04-86.04-3.96-9.56v-49.4l-31.04-31.04-3.96-9.56v-1.77l-16-16v-34.8l24.6-24.6h30.8L1936 1970.6v313.63l73.73 73.73 7.31 7.31 3.96 9.56v139.4l33.77 33.77h22.63l24.6 24.6v34.8l-24.6 24.6h-34.8l-24.6-24.6v-22.63l-45.04-45.04-3.96-9.56v-139.4l-73.73-73.73-7.31-7.31-3.96-9.56V2185.4l-1.6 1.6H1863v231.6l14 14v34.8l-24.6 24.6h-.8l34.26 34.26 7.88 7.88 4.26 10.29v56.14l-4.26 10.29-7.88 7.88-20 20-10.29 4.26h-38.97m-3.6 3.87h263.36m7.98-7.98H1865.5m8.19-7.99h167.82m-7.99-7.98h-151.84m7.98-7.99h135.88m-7.54-7.98h-122.64m2.64-7.99h120m0-7.98h-120m0-7.99h118.22m-7.98-7.98H1898m0-7.99h102.25m-7.98-7.98H1898m0-7.99h86.28m-7.98-7.98h-78.86m-3.31-7.99h76.9m-2.03-7.98h-82.3m-7.99-7.99H1969m0-7.98h-98.28m-7.98-7.99H1969m0-7.98h-114.25m2.48-7.99H1969m0-7.98h-103.79m7.99-7.99h95.8m0-7.98h-92m0-7.99h92m0-7.98h-92m0-7.99h92m0-7.98h-93.33m-7.98-7.99H1969m0-7.98h-106m0-7.99h106m0-7.98h-106m0-7.99h106m-7.4-7.98H1863m0-7.99h90.61m-7.98-7.99H1863m0-7.98h74.64m-7.98-7.99H1863m0-7.98h58.67m-7.99-7.99H1863m0-7.98h42.7m-7.99-7.99H1863m0-7.98h26.73m-4.35-7.99H1863m0-7.98h21m0-7.99h-21m0-7.98h21m0-7.99h-21m0-7.98h21m0-7.99h-21m0-7.98h21m0-7.99h-21m0-7.98h21m0-7.99h-21m0-7.98h21m0-7.99h-21m0-7.98h21m0-7.99h-21m73 0h98.95m-7.98-7.98H1936m0-7.99h82.98m-6.83-7.98H1936m0-7.99h73m-6.6-7.98H1936m0-7.99h58.41m-1.41-7.98h-57m0-7.99h57m0-7.98h-57m0-7.99h57m3.72-7.98H1936m0-7.99h68.7m7.99-7.98H1936m0-7.99h109.33m-7.98-7.98H1936m0-7.99h93.36m-7.98-7.98H1936m0-7.99h77.39m-7.98-7.98H1936m0-7.99h61.42m-7.98-7.99H1936m0-7.98h45.45m-7.98-7.99H1936m0-7.98h29.48m-7.98-7.99H1936m0-7.98h13.51m-7.98-7.99H1936m-168 0h-26.92m1.92 1.93l-31.05-31.05h-43.9l-31.05 31.05v43.9l31.05 31.05h43.9l31.05-31.05v-43.9m0 6.06h25m0 7.98h-25m0 7.99h25m0 7.98h-25m0 7.99h25m0 7.98h-27.08m-7.99 7.99H1768m0 7.99h-43.05m-7.99 7.98h53.78m4.98 7.99H1296m0 7.98h486.39m-7.99 7.99H1296m0 7.98h470.42m-7.99 7.99H1296m0 7.98h454.45m-7.99 7.99H1296m0 7.98h438.48m-7.99 7.99H1296m0 7.98h427m-1.7 7.99h-425.22m7.99 7.98h417.23m0 7.99h-409.25m7.99 7.98h401.26m0 7.99h-379.14m7.99 7.98h371.15m0 7.99h-363.17m3.87 7.98h359.3m0 7.99H1362m0 7.98h359.3m0 7.99H1362m-1.27 7.98h360.57m0 7.99h-368.55m-7.99 7.98h376.54m0 7.99H1295m0 7.98h426.3m0 7.99H1295m0 7.98h426.3m0 7.99H1295m0 7.98h426.3m0 7.99H1295m0 7.98h426.3m0 7.99H1295m0 7.98h426.3m0 7.99H1295m0 7.98h426.3m0 7.99H1295m0 7.98h426.3m0 7.99H1295m0 7.98h426.3m0 7.99H1295m0 7.99h426.3m0 7.98H1295m0 7.99h426.3m0 7.98H1295m0 7.99h426.3m0 7.98H1295m0 7.99h426.3m0 7.98H1295m0 7.99h426.3m0 7.98H1295m0 7.99h426.3m0 7.98H1295m292.12 15.97h55.76m-7.99 7.99h-39.78m7.98 7.98h23.81m-7.98 7.99h-7.84M1813 2654.86h255.37m-7.98 7.98H1813m0 7.99h239.4m-7.98 7.98H1813m0 7.99h223.43m-7.98 7.98h-217.2m-4.42 7.99h213.63m-7.98 7.98h-213.64m-7.98 7.99h213.63m-7.98 7.98h-213.64m-7.98 7.99h213.63m-7.98 7.99H1773m0 7.98h199.55m-7.98 7.99H1773m0 7.98h18.58m-7.99 7.99H1773m0 7.98h2.61m302.88-151.72h13.84m-5.85-7.98h13.83m-5.85-7.99h13.84m-6.3-7.98h14.28m7.99-7.99H2102m0-7.98h30.25m1.75-7.99h-32m0-7.98h32m0-7.99h-37.58m-7.99-7.98H2134m0-7.99h-53.55m-30.61-7.98H2134m0-7.99h-92.15m-7.98-7.98H2134m0-7.99h-108.12m-4.88-7.98h113m0-7.99h-113m0-7.98h113m0-7.99h-113m0-7.98h113m0-7.99h-113m0-7.98h113m0-7.99h-113m0-7.98h113m0-7.99h-113m0-7.98h113m0-7.99h-113m0-7.98h113m0-7.99h-113m0-7.98h113m0-7.99h-113m0-7.98h113m0-7.99h-113m-3.08-7.99H2134m0-7.98h-122.82m-7.99-7.99H2134m-2.33-7.98h-136.46m-7.99-7.99h136.46m-7.98-7.98h-136.46m-7.99-7.99h136.46m-7.98-7.98h-136.46m-7.99-7.99h136.46m-7.98-7.98H1947.3m-7.99-7.99h136.46m-7.98-7.98H1936m0-7.99h123.8m-7.98-7.98H1936m0-7.99h110.25m-2.25-7.98h-108m0-7.99h108m0-7.98h-108m0-7.99h108m0-7.98h-108m0-7.99h108m-1.06-7.98H1936m-272.96-151.72h-146.08m-5.01 5.01h-43.9l-31.05-31.05v-43.9l31.05-31.05h43.9l31.05 31.05v43.9l-31.05 31.05m13-12.99h130.1m-7.98-7.99h-114.14m7.99-7.99h98.16m-2.08-7.98h-94m0-7.99h94m0-7.98h-94m0-7.99h94m0-7.98h-94m-1.92-7.99h97.84m7.99-7.98h-113.82m-7.98-7.99h129.78m7.99-7.98h-145.76m-54.24 0H1296m0 7.98h158.89m-7.98 7.99H1296m0 7.98h142.92m-1.92 7.99h-141m0 7.98h141m0 7.99h-141m0 7.98h141m0 7.99h-141m0 7.98h143.08m7.99 7.99H1296m0 7.99h159.05m7.99 7.98H1296m0-103.81h472m0-7.98h-472m0-7.99h472m0-7.98h-427.36m12.37-7.99H1768m0-7.98h-407M1368.98 1896.27H1768m0-7.98h-391.03m7.98-7.99H1768m0-7.98h-135.33m8.25-7.99H1768m0-7.98h-119.09m51.24-7.99H1768m0-7.98h-58.12m7.98-7.99H1768m0-7.98h-42.15m7.98-7.99H1768m0 135.75h-50.88m7.99 7.98H1768m0 7.99h-34.91m-180.76-95.82h-159.39m7.98-7.99h143.16m-7.99-7.98h-127.18m7.98-7.99h111.22m-7.99-7.98h-95.24m7.98-7.99h79.28m-216.9 407.24h-.24m1027.69 774.56h24.62m7.98 7.98h-40.58m-15.72 7.99h72.02m1098.65-750.6H3510m0 7.98h-21.07m13.11 7.99h7.96m-85.76-79.85h-48.48m7.98-7.99h32.52m-7.99-7.98h-16.54m7.98-7.99h.58m-76.05 23.96h-44.87m-7.08-7.99h43.97m-7.99-7.98h-43.96m-7.99-7.99h43.97m-.8-7.98h-51.15m-7.99-7.99h59.14m0-7.98h-67.13m-7.98-7.99h70.8m-7.98-7.98h-70.81m-7.98-7.99h70.8m-7.98-7.98h-70.81m-12.82-7.99h75.64m-7.98-7.98h-175.81m-6.45-7.99h174.27M3239.29 2103.89H3073m0-7.99h161.21m-2.21-7.98h-159m0-7.99h159m0-7.98h-159m0-7.99h159m0-7.98h-159m0-7.99h159m0-7.98h-159m0-7.99h159m0-7.99h-159m0-7.98h159m0-7.99h-159m0-7.98h159m0-7.99h-159m0-7.98h91.71m-7.98-7.99H3073m0-7.98h75.74m-5.74-7.99h-70m0-7.98h70m0-7.99h-67.59m7.99-7.98h59.6m0-7.99h-51.62m7.99-7.98h51m7.99-7.99h-51.01m7.99-7.98h51m27.79-7.99h-70.81m7.99-7.98h70.8m7.99-7.99h-70.81m7.99-7.98h70.8m7.99-7.99h-70.8m7.98-7.98h70.8m7.99-7.99h-70.8m7.98-7.98h70.8m7.99-7.99h-70.8m7.98-7.98h9m31.62 0h30.18m7.99-7.99h-23.52m7.99-7.98h23.1m-4.62-7.99h-13.86m3.31-7.98h7.24m-1.62-7.99h-4m0-7.98h4m0-7.99h-4m0-7.98h4m0-7.99h-4m0-7.98h4m2.02-7.99h-8.04m-3.31-7.98h14.66m5.19-7.99h-25.04m-7.98-7.98h41m16.02-7.99h-73.04m-11.48-7.98h125m0 7.98h-13.52m13.52-15.97h-46.26m7.98-7.98h37.36m-7.99-7.99h-21.38m5.29-7.99h8.11m-7.99-7.98h-.12m-62.74 31.94H3222m0-7.98h29.28m-19.28 263.5h-5m0 7.99h5m0 7.98h-5m5 7.99h-10.74m-7.99 7.98H3232m0 7.99h-26.71m259.67-806.5h38.16m-47.92-47.91h-95.11m-5.54 2.3h-19.1l-17.64-7.31-13.5-13.5-7.31-17.64v-47.1l7.31-17.64 13.5-13.5 17.64-7.31h19.1l17.64 7.31 13.5 13.5 7.31 17.64v47.1l-7.31 17.64-13.5 13.5-17.64 7.31m20.61-10.28h72.06m-7.99-7.99h-56.08m4.8-7.98h43.3m-7.99-7.99h-32.01m1.75-7.98h22.31m-3.31-7.99h-19m0-7.98h17m0-7.99h-17m0-7.98h17m0-7.99h-17m-1.9-7.98h18.9m0-7.99h-22.21m-5.01-7.98H3410m0-7.99h-35.21m-15.59-7.98h50.8m-79.2 0h-71.6m-4.65-1.93l17.64 7.31 13.5 13.5 7.31 17.64v47.1l-7.31 17.64-13.5 13.5-17.64 7.31h-19.1l-17.64-7.31-13.5-13.5-7.31-17.64v-47.1l7.31-17.64 13.5-13.5 17.64-7.31h19.1m20.24 9.91h40.42m-7.99 7.99h-24.44m5.01 7.98h14.42m-3.31 7.99h-7.8m1.9 7.98h4m0 7.99h-4m0 7.98h4m0 7.99h-4m0 7.98h4m0 7.99h-4m-1.75 7.98h7.5m3.3 7.99h-14.1m-4.8 7.98h23.7m7.99 7.99h-39.68m-15.07 7.98h69.82m-100 0h-69.82m-5.54 2.3h-19.1l-17.64-7.31-13.5-13.5-7.31-17.64v-47.1l7.31-17.64 13.5-13.5 17.64-7.31h19.1l17.64 7.31 13.5 13.5 7.31 17.64v47.1l-7.31 17.64-13.5 13.5-17.64 7.31m20.61-10.28h39.68m-7.99-7.99h-23.7m4.8-7.98h14.1m-3.3-7.99h-7.5m1.75-7.98h4m0-7.99h-4m0-7.98h4m0-7.99h-4m0-7.98h4m0-7.99h-4m-1.9-7.98h7.8m3.31-7.99h-14.42m-5.01-7.98h24.44m7.99-7.99h-40.42m-15.59-7.98h71.6m-100 0h-71.6m-4.65-1.93l17.64 7.31 13.5 13.5 7.31 17.64v47.1l-7.31 17.64-13.5 13.5-17.64 7.31h-19.1l-17.64-7.31-13.5-13.5-7.31-17.64v-47.1l7.31-17.64 13.5-13.5 17.64-7.31h19.1m20.24 9.91h40.42m-7.99 7.99h-24.44m5.01 7.98h14.42m-3.31 7.99h-7.8m1.9 7.98h4m0 7.99h-4m0 7.98h4m0 7.99h-4m0 7.98h4m0 7.99h-4m-1.75 7.98h7.5m3.3 7.99h-14.1m-4.8 7.98h23.7m7.99 7.99h-39.68m-15.07 7.98h69.82m-100 0h-69.82m-5.54 2.3h-19.1l-17.64-7.31-13.5-13.5-7.31-17.64v-47.1l7.31-17.64 13.5-13.5 17.64-7.31h19.1l17.64 7.31 13.5 13.5 7.31 17.64v47.1l-7.31 17.64-13.5 13.5-17.64 7.31m20.61-10.28h39.68m-7.99-7.99h-23.7m4.8-7.98h14.1m-3.3-7.99h-7.5m1.75-7.98h4m0-7.99h-4m0-7.98h4m0-7.99h-4m0-7.98h4m0-7.99h-4m-1.9-7.98h7.8m3.31-7.99h-14.42m-5.01-7.98h24.44m7.99-7.99h-40.42m-15.59-7.98h71.6m-100 0h-71.6m-4.65-1.93l17.64 7.31 13.5 13.5 7.31 17.64v47.1l-7.31 17.64-13.5 13.5-17.64 7.31h-19.1l-17.64-7.31-13.5-13.5-7.31-17.64v-47.1l7.31-17.64 13.5-13.5 17.64-7.31h19.1m20.24 9.91h40.42m-7.99 7.99h-24.44m5.01 7.98h14.42m-3.31 7.99h-7.8m1.9 7.98h4m0 7.99h-4m0 7.98h4m0 7.99h-4m0 7.98h4m0 7.99h-4m-1.75 7.98h7.5m3.3 7.99h-14.1m-4.8 7.98h23.7m7.99 7.99h-39.68m-15.07 7.98h69.82m-100 0h-169.82m15.07-7.98h139.68m-7.99-7.99h-123.7m4.8-7.98h114.1m-3.3-7.99h-107.5m1.75-7.98h104m0-7.99h-104m0-7.98h104m0-7.99h-104m0-7.98h104m0-7.99h-104m-1.9-7.98h107.8m3.31-7.99h-114.42m-5.01-7.98h124.44m7.99-7.99h-140.42m-15.59-7.98h171.6m-303.56 7.98h-64.48m11.53 7.99h41.42m-6.55 7.98h-28.32m3.73 7.99h20.86m-1.98 7.98h-16.9m.45 7.99h16m0 7.98h-16m0 15.97h16m.39 7.99h-16.78m-1.92 7.98h20.62m3.63 7.99h-27.88m-6.4 7.98h40.68M2403 1065.82h-10m0-7.98h10m.45-7.99H2393m-1.9-7.98h14.33m3.73-7.99h-21.37m-5.01-7.98h32.93m-121.35 87.83h-11.21"/><path fill="none" stroke-width="16" d="M2320 1370h255l20 20h55l20 20v105l25 25h640l100 100v205l-35 34m5-49l-115 115v65l60 60m50-54l50.51 49.51-.51 4.49m-100 100l-6.97-1.97L3260 2085v-160l115-115v-140l-60-60h-660l-40-40h-200l-45 45h-265l-45 45h-40l-50 50v100l20 20h45l35 35v100l165 165h25l65 65v510l-240 255v10m-100 0v-5l300-300v-460l-40-40h-30l-235-235v-20l-75-75v-40l35-35v-70l60-60h35l60-60h275l50-50v-40l60 60h160l35 35h650l80 80v175m-85-20v-45m0 45l-135 135m-140-10l170-170h5m-100 0v35l-104 104v237l49 49v5l-2 8 2 2v90l-40 40v425l90 90h40l45 45v30l45 45m50-45h5l45 45m-50-45l-60-60h-10l-50-50h-40l-75-75v-305l65-65v-50l40-40h75l15-15v-35l-75-75h-105l-30-30v-190m-65-65v275l25 25v140l-15 15v455l105 105v35l50 50m-100 0v-80l-90-90v-485l5-5v-125l-15-15v-360l-25-25v-20m100 0v65l-40 40m-160-105v260l-15 15v775l135 135 5 20m-100 0v-20l-85-85v-605l-440-440v-55m-100 0v5l495 495v655l30 30v20m-75-55v-645l-400-400h-50l-100-100v-5m-100 0v5l135 135h100l240 240v815l-10-10v20m-40-70l-60 60v10m-100 0v-15l115-115v-690l-120-120h-80l-35-35m-45-45h130l195 195v755m-80-125v-585l-90-90v-15m-55 115l30 30v420l-230 230h-155l-25 25m-105-100l10-10v-70l40-40v-50l20-20h45l20-20v-45l-80-80v-310l85-85v-126l-13-13m83 4l260 260h15m-355-55l-30 30v275m350 505l180-180m280 165v30m0-30l25-25m-485 40v15m-240-1030v-20l-85-85v-40l45-45v-75l85-85h20l50-50h280l30-30v-90l20-20h165l65 65m-200 0v15m-85 125v5m0-5l-5 10m-110-150l100-95m-595 325l-55 55h-285l-72.5 72.5"/><path fill="none" stroke-width="10" d="M1720 2585v75l-30 30h-50l-25 25v55l50 50v20m39 51h-158l-31-31v-45l-25-25h-50l-95 95h-104.42l-6 1-39.58-39.58M1585 2970l56-57h75l99-98m-30-5l-81 81"/><path fill="none" stroke-width="15" d="M3400 2016v-137"/></g><g id="pcb-stackup_bottom_sm"><use x="1395" y="1070" xlink:href="#HJSe6g6hkW_pad-10"/><use x="3445" y="1270" xlink:href="#HJSe6g6hkW_pad-10"/><use x="3445" y="2370" xlink:href="#HJSe6g6hkW_pad-10"/><use x="1445" y="2970" xlink:href="#HJSe6g6hkW_pad-10"/><path fill="none" stroke-width="60" d="M1585 2984v-28m100 0v28m100 0v-28m100 0v28m100 0v-28m100 0v28m100 0v-28m100 0v28m100 0v-28m100 0v28m160 0v-28m100 0v28m100 0v-28m100 0v28m100 0v-28m100 0v28m100 0v-28m100 0v28m-25-1205v-28m-100 0v28m-100 0v-28m-100 0v28m-100 0v-28m-100 0v28m-100 0v-28m-100 0v28m-100 0v-28m-100 0v28m-100 0v-28m-100 0v28m-100 0v-28m-100 0v28m0-300v-28m100 0v28m100 0v-28m100 0v28m100 0v-28m100 0v28m100 0v-28m100 0v28m100 0v-28m100 0v28m100 0v-28m100 0v28m100 0v-28m100 0v28m25-395v-28m-100 0v28m-100 0v-28m-100 0v28m-100 0v-28m-100 0v28m-200 0v-28m-100 0v28m-100 0v-28m-100 0v28m-100 0v-28m-100 0v28m-100 0v-28m-100 0v28"/><use x="3350" y="1970" xlink:href="#HJSe6g6hkW_pad-12"/><use x="3450" y="1970" xlink:href="#HJSe6g6hkW_pad-12"/><use x="3450" y="2070" xlink:href="#HJSe6g6hkW_pad-12"/><use x="3350" y="2070" xlink:href="#HJSe6g6hkW_pad-12"/><use x="3350" y="2170" xlink:href="#HJSe6g6hkW_pad-12"/><use x="3450" y="2170" xlink:href="#HJSe6g6hkW_pad-12"/><use x="1665" y="2740" xlink:href="#HJSe6g6hkW_pad-12"/><use x="1565" y="2740" xlink:href="#HJSe6g6hkW_pad-12"/><use x="1465" y="2740" xlink:href="#HJSe6g6hkW_pad-12"/><use x="1465" y="2840" xlink:href="#HJSe6g6hkW_pad-12"/><use x="1565" y="2840" xlink:href="#HJSe6g6hkW_pad-12"/><use x="1665" y="2840" xlink:href="#HJSe6g6hkW_pad-12"/><use x="1305" y="1297" xlink:href="#HJSe6g6hkW_pad-13"/><use x="1069" y="1297" xlink:href="#HJSe6g6hkW_pad-13"/><use x="1187" y="1100" xlink:href="#HJSe6g6hkW_pad-13"/><use x="1157" y="1100" xlink:href="#HJSe6g6hkW_pad-14"/><use x="1217" y="1100" xlink:href="#HJSe6g6hkW_pad-14"/><use x="1305" y="1267" xlink:href="#HJSe6g6hkW_pad-14"/><use x="1305" y="1327" xlink:href="#HJSe6g6hkW_pad-14"/><use x="1069" y="1327" xlink:href="#HJSe6g6hkW_pad-14"/><use x="1069" y="1267" xlink:href="#HJSe6g6hkW_pad-14"/><use x="1490" y="2000" xlink:href="#HJSe6g6hkW_pad-15"/><use x="1690" y="2000" xlink:href="#HJSe6g6hkW_pad-15"/><use x="1180.43" y="2420.79" xlink:href="#HJSe6g6hkW_pad-15"/><use x="1101.69" y="2420.79" xlink:href="#HJSe6g6hkW_pad-15"/><use x="1101.69" y="2519.21" xlink:href="#HJSe6g6hkW_pad-15"/><use x="1180.43" y="2519.21" xlink:href="#HJSe6g6hkW_pad-15"/><use x="1565" y="2540" xlink:href="#HJSe6g6hkW_pad-15"/><use x="1665" y="2540" xlink:href="#HJSe6g6hkW_pad-15"/><use x="1665" y="2640" xlink:href="#HJSe6g6hkW_pad-15"/><use x="1565" y="2640" xlink:href="#HJSe6g6hkW_pad-15"/><use x="995" y="2706.22" xlink:href="#HJSe6g6hkW_pad-16"/><use x="995" y="2233.78" xlink:href="#HJSe6g6hkW_pad-16"/><path fill="none" stroke-width="5" d="M1242.5 2601h45v-62h-45v62m0-57.01h45m0 4.99h-45m0 4.99h45m0 4.99h-45m0 4.99h45m0 4.99h-45m0 4.99h45m0 4.99h-45m0 4.99h45m0 4.99h-45m0 4.99h45m0 4.99h-45m60 2.12h45v-62h-45v62m0-57.01h45m0 4.99h-45m0 4.99h45m0 4.99h-45m0 4.99h45m0 4.99h-45m0 4.99h45m0 4.99h-45m0 4.99h45m0 4.99h-45m0 4.99h45m0 4.99h-45"/><use x="1295" y="2570" xlink:href="#HJSe6g6hkW_pad-18"/></g><g id="pcb-stackup_bottom_drl1"><use x="1691" y="1081" xlink:href="#HJxx6ep21-_pad-1"/><use x="1501" y="1241" xlink:href="#HJxx6ep21-_pad-1"/><use x="1510" y="1430" xlink:href="#HJxx6ep21-_pad-1"/><use x="1710" y="1425" xlink:href="#HJxx6ep21-_pad-1"/><use x="1915" y="1530" xlink:href="#HJxx6ep21-_pad-1"/><use x="2070" y="1385" xlink:href="#HJxx6ep21-_pad-1"/><use x="1940" y="1285" xlink:href="#HJxx6ep21-_pad-1"/><use x="1995" y="1215" xlink:href="#HJxx6ep21-_pad-1"/><use x="2330" y="1615" xlink:href="#HJxx6ep21-_pad-1"/><use x="2466" y="1676" xlink:href="#HJxx6ep21-_pad-1"/><use x="2870" y="1820" xlink:href="#HJxx6ep21-_pad-1"/><use x="2767.5" y="1982.5" xlink:href="#HJxx6ep21-_pad-1"/><use x="2697.5" y="1977.5" xlink:href="#HJxx6ep21-_pad-1"/><use x="2701" y="2121" xlink:href="#HJxx6ep21-_pad-1"/><use x="2551" y="2211" xlink:href="#HJxx6ep21-_pad-1"/><use x="2275" y="2085" xlink:href="#HJxx6ep21-_pad-1"/><use x="2165" y="1995" xlink:href="#HJxx6ep21-_pad-1"/><use x="2120" y="1950" xlink:href="#HJxx6ep21-_pad-1"/><use x="1905" y="1815" xlink:href="#HJxx6ep21-_pad-1"/><use x="1755" y="1825" xlink:href="#HJxx6ep21-_pad-1"/><use x="1850" y="1730" xlink:href="#HJxx6ep21-_pad-1"/><use x="1725" y="1695" xlink:href="#HJxx6ep21-_pad-1"/><use x="1590" y="1800" xlink:href="#HJxx6ep21-_pad-1"/><use x="1400" y="1645" xlink:href="#HJxx6ep21-_pad-1"/><use x="1145" y="1570" xlink:href="#HJxx6ep21-_pad-1"/><use x="1195" y="1495" xlink:href="#HJxx6ep21-_pad-1"/><use x="1295" y="1470" xlink:href="#HJxx6ep21-_pad-1"/><use x="1045" y="1545" xlink:href="#HJxx6ep21-_pad-1"/><use x="945" y="1495" xlink:href="#HJxx6ep21-_pad-1"/><use x="945" y="1655" xlink:href="#HJxx6ep21-_pad-1"/><use x="1045" y="1770" xlink:href="#HJxx6ep21-_pad-1"/><use x="1145" y="1745" xlink:href="#HJxx6ep21-_pad-1"/><use x="1195" y="1820" xlink:href="#HJxx6ep21-_pad-1"/><use x="1312.5" y="1822.5" xlink:href="#HJxx6ep21-_pad-1"/><use x="1120" y="1920" xlink:href="#HJxx6ep21-_pad-1"/><use x="945" y="1820" xlink:href="#HJxx6ep21-_pad-1"/><use x="1320" y="1945" xlink:href="#HJxx6ep21-_pad-1"/><use x="1120" y="2105" xlink:href="#HJxx6ep21-_pad-1"/><use x="1320" y="2205" xlink:href="#HJxx6ep21-_pad-1"/><use x="1583" y="2293" xlink:href="#HJxx6ep21-_pad-1"/><use x="1835" y="2450" xlink:href="#HJxx6ep21-_pad-1"/><use x="1830" y="2570" xlink:href="#HJxx6ep21-_pad-1"/><use x="1720" y="2585" xlink:href="#HJxx6ep21-_pad-1"/><use x="2040" y="2451" xlink:href="#HJxx6ep21-_pad-1"/><use x="2051" y="2321" xlink:href="#HJxx6ep21-_pad-1"/><use x="2025" y="2210" xlink:href="#HJxx6ep21-_pad-1"/><use x="2100" y="2155" xlink:href="#HJxx6ep21-_pad-1"/><use x="2140" y="2200" xlink:href="#HJxx6ep21-_pad-1"/><use x="2035" y="2125" xlink:href="#HJxx6ep21-_pad-1"/><use x="1865" y="2145" xlink:href="#HJxx6ep21-_pad-1"/><use x="1825" y="2060" xlink:href="#HJxx6ep21-_pad-1"/><use x="1862" y="1936" xlink:href="#HJxx6ep21-_pad-1"/><use x="1590" y="2000" xlink:href="#HJxx6ep21-_pad-1"/><use x="2060" y="2590" xlink:href="#HJxx6ep21-_pad-1"/><use x="1735" y="2805" xlink:href="#HJxx6ep21-_pad-1"/><use x="1840" y="2905" xlink:href="#HJxx6ep21-_pad-1"/><use x="1255" y="2935" xlink:href="#HJxx6ep21-_pad-1"/><use x="1195" y="2846.4" xlink:href="#HJxx6ep21-_pad-1"/><use x="2565" y="2970" xlink:href="#HJxx6ep21-_pad-1"/><use x="2995" y="2905" xlink:href="#HJxx6ep21-_pad-1"/><use x="3391" y="2836" xlink:href="#HJxx6ep21-_pad-1"/><use x="3391" y="2566" xlink:href="#HJxx6ep21-_pad-1"/><use x="3255" y="2265" xlink:href="#HJxx6ep21-_pad-1"/><use x="3063" y="2203" xlink:href="#HJxx6ep21-_pad-1"/><use x="3185" y="2070" xlink:href="#HJxx6ep21-_pad-1"/><use x="3185" y="1945" xlink:href="#HJxx6ep21-_pad-1"/><use x="3180" y="1690" xlink:href="#HJxx6ep21-_pad-1"/><use x="3280" y="1650" xlink:href="#HJxx6ep21-_pad-1"/><use x="3492" y="1667" xlink:href="#HJxx6ep21-_pad-1"/><use x="3491" y="1391" xlink:href="#HJxx6ep21-_pad-1"/><use x="2745" y="1295" xlink:href="#HJxx6ep21-_pad-1"/><use x="2745" y="1070" xlink:href="#HJxx6ep21-_pad-1"/><use x="2645" y="1070" xlink:href="#HJxx6ep21-_pad-2"/><use x="2545" y="1070" xlink:href="#HJxx6ep21-_pad-2"/><use x="2445" y="1070" xlink:href="#HJxx6ep21-_pad-2"/><use x="2345" y="1070" xlink:href="#HJxx6ep21-_pad-2"/><use x="2245" y="1070" xlink:href="#HJxx6ep21-_pad-2"/><use x="2145" y="1070" xlink:href="#HJxx6ep21-_pad-2"/><use x="2045" y="1070" xlink:href="#HJxx6ep21-_pad-2"/><use x="1945" y="1070" xlink:href="#HJxx6ep21-_pad-2"/><use x="2020" y="1465" xlink:href="#HJxx6ep21-_pad-2"/><use x="2120" y="1465" xlink:href="#HJxx6ep21-_pad-2"/><use x="2220" y="1465" xlink:href="#HJxx6ep21-_pad-2"/><use x="2320" y="1465" xlink:href="#HJxx6ep21-_pad-2"/><use x="2420" y="1465" xlink:href="#HJxx6ep21-_pad-2"/><use x="2520" y="1465" xlink:href="#HJxx6ep21-_pad-2"/><use x="2620" y="1465" xlink:href="#HJxx6ep21-_pad-2"/><use x="2720" y="1465" xlink:href="#HJxx6ep21-_pad-2"/><use x="2820" y="1465" xlink:href="#HJxx6ep21-_pad-2"/><use x="2920" y="1465" xlink:href="#HJxx6ep21-_pad-2"/><use x="3020" y="1465" xlink:href="#HJxx6ep21-_pad-2"/><use x="3120" y="1465" xlink:href="#HJxx6ep21-_pad-2"/><use x="3220" y="1465" xlink:href="#HJxx6ep21-_pad-2"/><use x="3320" y="1465" xlink:href="#HJxx6ep21-_pad-2"/><use x="3320" y="1765" xlink:href="#HJxx6ep21-_pad-2"/><use x="3220" y="1765" xlink:href="#HJxx6ep21-_pad-2"/><use x="3120" y="1765" xlink:href="#HJxx6ep21-_pad-2"/><use x="3020" y="1765" xlink:href="#HJxx6ep21-_pad-2"/><use x="2920" y="1765" xlink:href="#HJxx6ep21-_pad-2"/><use x="2820" y="1765" xlink:href="#HJxx6ep21-_pad-2"/><use x="2720" y="1765" xlink:href="#HJxx6ep21-_pad-2"/><use x="2620" y="1765" xlink:href="#HJxx6ep21-_pad-2"/><use x="2520" y="1765" xlink:href="#HJxx6ep21-_pad-2"/><use x="2420" y="1765" xlink:href="#HJxx6ep21-_pad-2"/><use x="2320" y="1765" xlink:href="#HJxx6ep21-_pad-2"/><use x="2220" y="1765" xlink:href="#HJxx6ep21-_pad-2"/><use x="2120" y="1765" xlink:href="#HJxx6ep21-_pad-2"/><use x="2020" y="1765" xlink:href="#HJxx6ep21-_pad-2"/><use x="1690" y="2000" xlink:href="#HJxx6ep21-_pad-2"/><use x="1490" y="2000" xlink:href="#HJxx6ep21-_pad-2"/><use x="2845" y="1070" xlink:href="#HJxx6ep21-_pad-2"/><use x="2945" y="1070" xlink:href="#HJxx6ep21-_pad-2"/><use x="3045" y="1070" xlink:href="#HJxx6ep21-_pad-2"/><use x="3145" y="1070" xlink:href="#HJxx6ep21-_pad-2"/><use x="3245" y="1070" xlink:href="#HJxx6ep21-_pad-2"/><use x="3345" y="1070" xlink:href="#HJxx6ep21-_pad-2"/><use x="3345" y="2970" xlink:href="#HJxx6ep21-_pad-2"/><use x="3245" y="2970" xlink:href="#HJxx6ep21-_pad-2"/><use x="3145" y="2970" xlink:href="#HJxx6ep21-_pad-2"/><use x="3045" y="2970" xlink:href="#HJxx6ep21-_pad-2"/><use x="2945" y="2970" xlink:href="#HJxx6ep21-_pad-2"/><use x="2845" y="2970" xlink:href="#HJxx6ep21-_pad-2"/><use x="2745" y="2970" xlink:href="#HJxx6ep21-_pad-2"/><use x="2645" y="2970" xlink:href="#HJxx6ep21-_pad-2"/><use x="2485" y="2970" xlink:href="#HJxx6ep21-_pad-2"/><use x="2385" y="2970" xlink:href="#HJxx6ep21-_pad-2"/><use x="2285" y="2970" xlink:href="#HJxx6ep21-_pad-2"/><use x="2185" y="2970" xlink:href="#HJxx6ep21-_pad-2"/><use x="2085" y="2970" xlink:href="#HJxx6ep21-_pad-2"/><use x="1985" y="2970" xlink:href="#HJxx6ep21-_pad-2"/><use x="1885" y="2970" xlink:href="#HJxx6ep21-_pad-2"/><use x="1785" y="2970" xlink:href="#HJxx6ep21-_pad-2"/><use x="1685" y="2970" xlink:href="#HJxx6ep21-_pad-2"/><use x="1585" y="2970" xlink:href="#HJxx6ep21-_pad-2"/><use x="1565" y="2840" xlink:href="#HJxx6ep21-_pad-3"/><use x="1665" y="2840" xlink:href="#HJxx6ep21-_pad-3"/><use x="1665" y="2740" xlink:href="#HJxx6ep21-_pad-3"/><use x="1565" y="2740" xlink:href="#HJxx6ep21-_pad-3"/><use x="1465" y="2740" xlink:href="#HJxx6ep21-_pad-3"/><use x="1465" y="2840" xlink:href="#HJxx6ep21-_pad-3"/><use x="1565" y="2640" xlink:href="#HJxx6ep21-_pad-3"/><use x="1665" y="2640" xlink:href="#HJxx6ep21-_pad-3"/><use x="1665" y="2540" xlink:href="#HJxx6ep21-_pad-3"/><use x="1565" y="2540" xlink:href="#HJxx6ep21-_pad-3"/><use x="1180.4" y="2519.2" xlink:href="#HJxx6ep21-_pad-3"/><use x="1101.7" y="2519.2" xlink:href="#HJxx6ep21-_pad-3"/><use x="1101.7" y="2420.8" xlink:href="#HJxx6ep21-_pad-3"/><use x="1180.4" y="2420.8" xlink:href="#HJxx6ep21-_pad-3"/><use x="3350" y="2170" xlink:href="#HJxx6ep21-_pad-3"/><use x="3450" y="2170" xlink:href="#HJxx6ep21-_pad-3"/><use x="3450" y="2070" xlink:href="#HJxx6ep21-_pad-3"/><use x="3350" y="2070" xlink:href="#HJxx6ep21-_pad-3"/><use x="3350" y="1970" xlink:href="#HJxx6ep21-_pad-3"/><use x="3450" y="1970" xlink:href="#HJxx6ep21-_pad-3"/><use x="1305" y="1327" xlink:href="#HJxx6ep21-_pad-4"/><use x="1305" y="1297" xlink:href="#HJxx6ep21-_pad-4"/><use x="1305" y="1267" xlink:href="#HJxx6ep21-_pad-4"/><use x="1069" y="1267" xlink:href="#HJxx6ep21-_pad-4"/><use x="1069" y="1297" xlink:href="#HJxx6ep21-_pad-4"/><use x="1069" y="1327" xlink:href="#HJxx6ep21-_pad-4"/><use x="1157" y="1100" xlink:href="#HJxx6ep21-_pad-4"/><use x="1187" y="1100" xlink:href="#HJxx6ep21-_pad-4"/><use x="1217" y="1100" xlink:href="#HJxx6ep21-_pad-4"/><use x="995" y="2233.8" xlink:href="#HJxx6ep21-_pad-5"/><use x="995" y="2706.2" xlink:href="#HJxx6ep21-_pad-5"/><use x="1395" y="1070" xlink:href="#HJxx6ep21-_pad-6"/><use x="3445" y="1270" xlink:href="#HJxx6ep21-_pad-6"/><use x="3445" y="2370" xlink:href="#HJxx6ep21-_pad-6"/><use x="1445" y="2970" xlink:href="#HJxx6ep21-_pad-6"/></g><clipPath id="pcb-stackup_bottom_out"><path fill="none" stroke-width="10" d="M884.4 970h2521.2l11.4 1.7 10.5 4.9 8.6 7.8 5.9 9.9 2.8 11.2.2 64.5 100 100v1290l-100 100v450l-60 60H884.4l-11.4-1.7-10.5-4.9-8.6-7.8-5.9-9.9-2.8-11.2-.2-2025.1 1.7-11.4 4.9-10.5 7.8-8.6 9.9-5.9 15.1-3m447.6 100l.2 5 3 14.7 6.3 13.6 9.4 11.7 11.9 9.1 13.7 6.1 14.7 2.7 15-.9 14.3-4.4 12.9-7.7 10.7-10.5 8-12.7 4.7-14.3 1.2-14.9-2.4-14.8-5.8-13.8-8.9-12.1-11.6-9.6-13.4-6.6-14.6-3.3-15 .3-14.5 3.8-13.2 7.2-11.1 10.1-8.5 12.4-5.2 14-1.8 14.9m2050 200l.2 5 3 14.7 6.3 13.6 9.4 11.7 11.9 9.1 13.7 6.1 14.7 2.7 15-.9 14.3-4.4 12.9-7.7 10.7-10.5 8-12.7 4.7-14.3 1.2-14.9-2.4-14.8-5.8-13.8-8.9-12.1-11.6-9.6-13.4-6.6-14.6-3.3-15 .3-14.5 3.8-13.2 7.2-11.1 10.1-8.5 12.4-5.2 14-1.8 14.9m0 1100l.2 5 3 14.7 6.3 13.6 9.4 11.7 11.9 9.1 13.7 6.1 14.7 2.7 15-.9 14.3-4.4 12.9-7.7 10.7-10.5 8-12.7 4.7-14.3 1.2-14.9-2.4-14.8-5.8-13.8-8.9-12.1-11.6-9.6-13.4-6.6-14.6-3.3-15 .3-14.5 3.8-13.2 7.2-11.1 10.1-8.5 12.4-5.2 14-1.8 14.9m-2000 600l.2 5 3 14.7 6.3 13.6 9.4 11.7 11.9 9.1 13.7 6.1 14.7 2.7 15-.9 14.3-4.4 12.9-7.7 10.7-10.5 8-12.7 4.7-14.3 1.2-14.9-2.4-14.8-5.8-13.8-8.9-12.1-11.6-9.6-13.4-6.6-14.6-3.3-15 .3-14.5 3.8-13.2 7.2-11.1 10.1-8.5 12.4-5.2 14-1.8 14.9"/></clipPath><mask id="pcb-stackup_bottom_mech-mask"><g stroke="#000"><path fill="#fff" d="M845 970h2700v2100H845z"/><use xlink:href="#pcb-stackup_bottom_drl1"/></g></mask><mask id="pcb-stackup_bottom_cf-mask"><g fill="#fff" stroke="#fff"><use xlink:href="#pcb-stackup_bottom_sm"/></g></mask><mask id="pcb-stackup_bottom_sm-mask"><g stroke="#000"><path fill="#fff" d="M845 970h2700v2100H845z"/><use xlink:href="#pcb-stackup_bottom_sm"/></g></mask></defs><g><g mask="url(#pcb-stackup_bottom_mech-mask)" clip-path="url(#pcb-stackup_bottom_out)" transform="rotate(180 2195 2020)"><path fill="currentColor" d="M845 970h2700v2100H845z" class="pcb-stackup_fr4"/><use fill="currentColor" stroke="currentColor" xlink:href="#pcb-stackup_bottom_cu" class="pcb-stackup_cu"/><use fill="currentColor" stroke="currentColor" xlink:href="#pcb-stackup_bottom_cu" class="pcb-stackup_cf" mask="url(#pcb-stackup_bottom_cf-mask)"/><g mask="url(#pcb-stackup_bottom_sm-mask)"><path fill="currentColor" d="M845 970h2700v2100H845z" class="pcb-stackup_sm"/></g></g></g></svg>