<svg xmlns="http://www.w3.org/2000/svg" id="pcb-stackup_bottom" fill-rule="evenodd" stroke-width="0" stroke-linecap="round" stroke-linejoin="round" xmlns:xlink="http://www.w3.org/1999/xlink" clip-rule="evenodd" viewBox="2051.18 3051.18 1866.14 1866.14"><defs><style>.pcb-stackup_fr4 {color: #4D542C;} .pcb-stackup_cu {color: lightgrey;} .pcb-stackup_cf {color: goldenrod;} .pcb-stackup_sm {color: #004400; opacity: 0.9;} .pcb-stackup_ss {color: white;} .pcb-stackup_sp {color: #000000; opacity: 0;} .pcb-stackup_out {color: black;}</style><mask id="S15Aep21b_clear-1" stroke="#000"><path fill="#fff" d="M2096.85 3096.85h1774.81v1774.81H2096.85z"/><path d="M3810 4834.21V4800h34.21l-.7 5.32-3.98 9.61-6.34 8.26-8.26 6.34-9.61 3.98-5.32.7M3800 4834.21l-5.32-.7-9.61-3.98-8.26-6.34-6.34-8.26-3.98-9.61-.7-5.32H3800v34.21M3093.23 4820.5v-24.28h24.28l-.36 2.75-2.99 7.22-4.76 6.2-6.2 4.76-7.22 2.99-2.75.36M3083.23 4820.5l-2.75-.36-7.22-2.99-6.2-4.76-4.76-6.2-2.99-7.22-.37-2.75h24.29v24.28M3117.51 4786.22h-24.28v-24.28l2.75.36 7.22 2.99 6.2 4.76 4.76 6.2 2.99 7.22.36 2.75M3083.23 4786.22h-24.29l.37-2.75 2.99-7.22 4.76-6.2 6.2-4.76 7.22-2.99 2.75-.36v24.28M2888.23 4850.56l-11.58-1.14-11.13-3.38-10.26-5.48-8.99-7.38-7.38-8.99-5.49-10.26-3.37-11.13-1.14-11.58 1.14-11.58 3.37-11.13 5.49-10.26 7.38-8.99 8.99-7.38 10.26-5.48 11.13-3.38 11.58-1.14 11.58 1.14 11.13 3.38 10.26 5.48 8.99 7.38 7.38 8.99 5.48 10.26 3.38 11.13 1.14 11.58-1.14 11.58-3.38 11.13-5.48 10.26-7.38 8.99-8.99 7.38-10.26 5.48-11.13 3.38-11.58 1.14M2194.53 4655H2160v-34.53h34.53V4655M2150 4655h-34.53v-34.53H2150V4655M3138.9 4248.9h-137.8v-36.64l-5-2.47-6.17 4.74-9.61 3.98-5.32.7v-78.42l5.32.7 9.61 3.98 6.17 4.74 5-2.47v-36.64h137.8v137.8M2870 4249.23l-13.51-1.33-12.98-3.94-11.97-6.4-10.49-8.61-8.61-10.49-6.4-11.97-.27-.87-4.92-.9-2.66 3.47-8.26 6.34-9.61 3.98-5.32.7v-78.42l5.32.7 9.61 3.98 8.26 6.34 2.66 3.47 4.92-.9.27-.87 6.4-11.97 8.61-10.49 10.49-8.61 11.97-6.4 12.98-3.94 13.51-1.33 13.51 1.33 12.98 3.94 11.97 6.4 10.49 8.61 8.61 10.49 6.4 11.97.27.87 4.92.9 2.66-3.47 8.26-6.34 9.61-3.98 5.32-.7v78.42l-5.32-.7-9.61-3.98-8.26-6.34-2.66-3.47-4.92.9-.27.87-6.4 11.97-8.61 10.49-10.49 8.61-11.97 6.4-12.98 3.94-13.51 1.33M2765 4219.21l-5.32-.7-9.61-3.98-8.26-6.34-6.34-8.26-3.98-9.61-.7-5.32H2765v34.21M2180 4212.22V4180h32.22l-.63 4.8-3.78 9.14-6.02 7.85-7.85 6.02-9.14 3.78-4.8.63M2170 4212.22l-4.81-.63-9.13-3.78-7.85-6.02-6.02-7.85-3.78-9.14-.64-4.8H2170v32.22M2765 4175h-34.21l.7-5.32 3.98-9.61 6.34-8.26 8.26-6.34 9.61-3.98 5.32-.7V4175M2212.22 4170H2180v-32.23l4.8.64 9.14 3.78 7.85 6.02 6.02 7.85 3.78 9.13.63 4.81M2170 4170h-32.23l.64-4.81 3.78-9.13 6.02-7.85 7.85-6.02 9.13-3.78 4.81-.64V4170M3070 3949.23l-13.51-1.33-12.98-3.94-11.97-6.4-7.88-6.46-3.66-1.67-3.66 1.67-7.88 6.46-11.97 6.4-12.98 3.94-13.51 1.33-13.51-1.33-12.98-3.94-11.97-6.4-7.88-6.46-3.66-1.67-3.66 1.67-7.88 6.46-11.97 6.4-12.98 3.94-13.51 1.33-13.51-1.33-12.98-3.94-11.97-6.4-7.88-6.46-3.66-1.67-3.66 1.67-7.88 6.46-11.97 6.4-12.98 3.94-13.51 1.33-13.51-1.33-12.98-3.94-11.97-6.4-10.49-8.61-8.61-10.49-6.4-11.97-3.94-12.98-1.33-13.51 1.33-13.51 3.94-12.98 4.62-8.65V3835l1.14-11.58 3.38-11.13 5.48-10.26 7.38-8.99 523.06-523.06v-53.88h137.8v11.76l4.52 2.14 3.12-2.56 11.97-6.4 12.98-3.94 13.51-1.33 13.51 1.33 12.98 3.94 11.97 6.4 10.49 8.61 8.61 10.49 6.4 11.97 3.94 12.98 1.33 13.51-1.33 13.51-3.94 12.98-6.4 11.97-8.61 10.49-10.49 8.61-11.97 6.4-12.98 3.94-13.51 1.33-13.51-1.33-12.98-3.94-11.97-6.4-3.12-2.56-4.52 2.14v11.76h-53.88l-453.46 453.46.84 2.35 1.4 2.48 12.69 3.85 11.97 6.4 7.88 6.46 3.66 1.67 3.66-1.67 7.88-6.46 11.97-6.4 12.98-3.94 13.51-1.33 13.51 1.33 12.98 3.94 11.97 6.4 7.88 6.46 3.66 1.67 3.66-1.67 7.88-6.46 11.97-6.4 12.98-3.94 13.51-1.33 13.51 1.33 12.98 3.94 11.97 6.4 10.49 8.61 8.61 10.49 6.4 11.97 3.94 12.98 1.33 13.51-1.33 13.51-3.94 12.98-6.4 11.97-8.61 10.49-10.49 8.61-11.97 6.4-12.98 3.94-13.51 1.33M2175 3942.25l-13.12-1.29-12.62-3.83-11.62-6.21-10.2-8.37-8.36-10.19-6.21-11.62-3.83-12.62-1.29-13.12 1.29-13.12 3.83-12.62 6.21-11.62 8.36-10.19 10.2-8.37 11.62-6.21 12.62-3.83 13.12-1.29 13.12 1.29 12.62 3.83 11.62 6.21 10.19 8.37 8.37 10.19 6.21 11.62 3.83 12.62 1.29 13.12-1.29 13.12-3.83 12.62-6.21 11.62-8.37 10.19-10.19 8.37-11.62 6.21-12.62 3.83-13.12 1.29M3000 3169.21V3135h34.21l-.7 5.32-3.98 9.61-6.34 8.26-8.26 6.34-9.61 3.98-5.32.7"/></mask><path id="S15Aep21b_pad-12" d="M-29.53-29.53h59.06v59.06h-59.06z"/><circle id="S15Aep21b_pad-13" r="29.53"/><circle id="S15Aep21b_pad-14" r="19.685"/><path id="S15Aep21b_pad-15" d="M-29.53-29.53h59.06v59.06h-59.06z"/><circle id="S15Aep21b_pad-16" r="27.56"/><mask id="S15Aep21b_clear-1" stroke="#000"><path fill="#fff" d="M2096.85 3096.85h1774.81v1774.81H2096.85z"/><path d="M3810 4834.21V4800h34.21l-.7 5.32-3.98 9.61-6.34 8.26-8.26 6.34-9.61 3.98-5.32.7M3800 4834.21l-5.32-.7-9.61-3.98-8.26-6.34-6.34-8.26-3.98-9.61-.7-5.32H3800v34.21M3093.23 4820.5v-24.28h24.28l-.36 2.75-2.99 7.22-4.76 6.2-6.2 4.76-7.22 2.99-2.75.36M3083.23 4820.5l-2.75-.36-7.22-2.99-6.2-4.76-4.76-6.2-2.99-7.22-.37-2.75h24.29v24.28M3117.51 4786.22h-24.28v-24.28l2.75.36 7.22 2.99 6.2 4.76 4.76 6.2 2.99 7.22.36 2.75M3083.23 4786.22h-24.29l.37-2.75 2.99-7.22 4.76-6.2 6.2-4.76 7.22-2.99 2.75-.36v24.28M2888.23 4850.56l-11.58-1.14-11.13-3.38-10.26-5.48-8.99-7.38-7.38-8.99-5.49-10.26-3.37-11.13-1.14-11.58 1.14-11.58 3.37-11.13 5.49-10.26 7.38-8.99 8.99-7.38 10.26-5.48 11.13-3.38 11.58-1.14 11.58 1.14 11.13 3.38 10.26 5.48 8.99 7.38 7.38 8.99 5.48 10.26 3.38 11.13 1.14 11.58-1.14 11.58-3.38 11.13-5.48 10.26-7.38 8.99-8.99 7.38-10.26 5.48-11.13 3.38-11.58 1.14M2194.53 4655H2160v-34.53h34.53V4655M2150 4655h-34.53v-34.53H2150V4655M3138.9 4248.9h-137.8v-36.64l-5-2.47-6.17 4.74-9.61 3.98-5.32.7v-78.42l5.32.7 9.61 3.98 6.17 4.74 5-2.47v-36.64h137.8v137.8M2870 4249.23l-13.51-1.33-12.98-3.94-11.97-6.4-10.49-8.61-8.61-10.49-6.4-11.97-.27-.87-4.92-.9-2.66 3.47-8.26 6.34-9.61 3.98-5.32.7v-78.42l5.32.7 9.61 3.98 8.26 6.34 2.66 3.47 4.92-.9.27-.87 6.4-11.97 8.61-10.49 10.49-8.61 11.97-6.4 12.98-3.94 13.51-1.33 13.51 1.33 12.98 3.94 11.97 6.4 10.49 8.61 8.61 10.49 6.4 11.97.27.87 4.92.9 2.66-3.47 8.26-6.34 9.61-3.98 5.32-.7v78.42l-5.32-.7-9.61-3.98-8.26-6.34-2.66-3.47-4.92.9-.27.87-6.4 11.97-8.61 10.49-10.49 8.61-11.97 6.4-12.98 3.94-13.51 1.33M2765 4219.21l-5.32-.7-9.61-3.98-8.26-6.34-6.34-8.26-3.98-9.61-.7-5.32H2765v34.21M2180 4212.22V4180h32.22l-.63 4.8-3.78 9.14-6.02 7.85-7.85 6.02-9.14 3.78-4.8.63M2170 4212.22l-4.81-.63-9.13-3.78-7.85-6.02-6.02-7.85-3.78-9.14-.64-4.8H2170v32.22M2765 4175h-34.21l.7-5.32 3.98-9.61 6.34-8.26 8.26-6.34 9.61-3.98 5.32-.7V4175M2212.22 4170H2180v-32.23l4.8.64 9.14 3.78 7.85 6.02 6.02 7.85 3.78 9.13.63 4.81M2170 4170h-32.23l.64-4.81 3.78-9.13 6.02-7.85 7.85-6.02 9.13-3.78 4.81-.64V4170M3070 3949.23l-13.51-1.33-12.98-3.94-11.97-6.4-7.88-6.46-3.66-1.67-3.66 1.67-7.88 6.46-11.97 6.4-12.98 3.94-13.51 1.33-13.51-1.33-12.98-3.94-11.97-6.4-7.88-6.46-3.66-1.67-3.66 1.67-7.88 6.46-11.97 6.4-12.98 3.94-13.51 1.33-13.51-1.33-12.98-3.94-11.97-6.4-7.88-6.46-3.66-1.67-3.66 1.67-7.88 6.46-11.97 6.4-12.98 3.94-13.51 1.33-13.51-1.33-12.98-3.94-11.97-6.4-10.49-8.61-8.61-10.49-6.4-11.97-3.94-12.98-1.33-13.51 1.33-13.51 3.94-12.98 4.62-8.65V3835l1.14-11.58 3.38-11.13 5.48-10.26 7.38-8.99 523.06-523.06v-53.88h137.8v11.76l4.52 2.14 3.12-2.56 11.97-6.4 12.98-3.94 13.51-1.33 13.51 1.33 12.98 3.94 11.97 6.4 10.49 8.61 8.61 10.49 6.4 11.97 3.94 12.98 1.33 13.51-1.33 13.51-3.94 12.98-6.4 11.97-8.61 10.49-10.49 8.61-11.97 6.4-12.98 3.94-13.51 1.33-13.51-1.33-12.98-3.94-11.97-6.4-3.12-2.56-4.52 2.14v11.76h-53.88l-453.46 453.46.84 2.35 1.4 2.48 12.69 3.85 11.97 6.4 7.88 6.46 3.66 1.67 3.66-1.67 7.88-6.46 11.97-6.4 12.98-3.94 13.51-1.33 13.51 1.33 12.98 3.94 11.97 6.4 7.88 6.46 3.66 1.67 3.66-1.67 7.88-6.46 11.97-6.4 12.98-3.94 13.51-1.33 13.51 1.33 12.98 3.94 11.97 6.4 10.49 8.61 8.61 10.49 6.4 11.97 3.94 12.98 1.33 13.51-1.33 13.51-3.94 12.98-6.4 11.97-8.61 10.49-10.49 8.61-11.97 6.4-12.98 3.94-13.51 1.33M2175 3942.25l-13.12-1.29-12.62-3.83-11.62-6.21-10.2-8.37-8.36-10.19-6.21-11.62-3.83-12.62-1.29-13.12 1.29-13.12 3.83-12.62 6.21-11.62 8.36-10.19 10.2-8.37 11.62-6.21 12.62-3.83 13.12-1.29 13.12 1.29 12.62 3.83 11.62 6.21 10.19 8.37 8.37 10.19 6.21 11.62 3.83 12.62 1.29 13.12-1.29 13.12-3.83 12.62-6.21 11.62-8.37 10.19-10.19 8.37-11.62 6.21-12.62 3.83-13.12 1.29M3000 3169.21V3135h34.21l-.7 5.32-3.98 9.61-6.34 8.26-8.26 6.34-9.61 3.98-5.32.7"/></mask><path id="S15Aep21b_pad-12" d="M-29.53-29.53h59.06v59.06h-59.06z"/><circle id="S15Aep21b_pad-13" r="29.53"/><circle id="S15Aep21b_pad-14" r="19.685"/><path id="S15Aep21b_pad-15" d="M-29.53-29.53h59.06v59.06h-59.06z"/><circle id="S15Aep21b_pad-16" r="27.56"/><mask id="S15Aep21b_clear-1" stroke="#000"><path fill="#fff" d="M2096.85 3096.85h1774.81v1774.81H2096.85z"/><path d="M3810 4834.21V4800h34.21l-.7 5.32-3.98 9.61-6.34 8.26-8.26 6.34-9.61 3.98-5.32.7M3800 4834.21l-5.32-.7-9.61-3.98-8.26-6.34-6.34-8.26-3.98-9.61-.7-5.32H3800v34.21M3093.23 4820.5v-24.28h24.28l-.36 2.75-2.99 7.22-4.76 6.2-6.2 4.76-7.22 2.99-2.75.36M3083.23 4820.5l-2.75-.36-7.22-2.99-6.2-4.76-4.76-6.2-2.99-7.22-.37-2.75h24.29v24.28M3117.51 4786.22h-24.28v-24.28l2.75.36 7.22 2.99 6.2 4.76 4.76 6.2 2.99 7.22.36 2.75M3083.23 4786.22h-24.29l.37-2.75 2.99-7.22 4.76-6.2 6.2-4.76 7.22-2.99 2.75-.36v24.28M2888.23 4850.56l-11.58-1.14-11.13-3.38-10.26-5.48-8.99-7.38-7.38-8.99-5.49-10.26-3.37-11.13-1.14-11.58 1.14-11.58 3.37-11.13 5.49-10.26 7.38-8.99 8.99-7.38 10.26-5.48 11.13-3.38 11.58-1.14 11.58 1.14 11.13 3.38 10.26 5.48 8.99 7.38 7.38 8.99 5.48 10.26 3.38 11.13 1.14 11.58-1.14 11.58-3.38 11.13-5.48 10.26-7.38 8.99-8.99 7.38-10.26 5.48-11.13 3.38-11.58 1.14M2194.53 4655H2160v-34.53h34.53V4655M2150 4655h-34.53v-34.53H2150V4655M3138.9 4248.9h-137.8v-36.64l-5-2.47-6.17 4.74-9.61 3.98-5.32.7v-78.42l5.32.7 9.61 3.98 6.17 4.74 5-2.47v-36.64h137.8v137.8M2870 4249.23l-13.51-1.33-12.98-3.94-11.97-6.4-10.49-8.61-8.61-10.49-6.4-11.97-.27-.87-4.92-.9-2.66 3.47-8.26 6.34-9.61 3.98-5.32.7v-78.42l5.32.7 9.61 3.98 8.26 6.34 2.66 3.47 4.92-.9.27-.87 6.4-11.97 8.61-10.49 10.49-8.61 11.97-6.4 12.98-3.94 13.51-1.33 13.51 1.33 12.98 3.94 11.97 6.4 10.49 8.61 8.61 10.49 6.4 11.97.27.87 4.92.9 2.66-3.47 8.26-6.34 9.61-3.98 5.32-.7v78.42l-5.32-.7-9.61-3.98-8.26-6.34-2.66-3.47-4.92.9-.27.87-6.4 11.97-8.61 10.49-10.49 8.61-11.97 6.4-12.98 3.94-13.51 1.33M2765 4219.21l-5.32-.7-9.61-3.98-8.26-6.34-6.34-8.26-3.98-9.61-.7-5.32H2765v34.21M2180 4212.22V4180h32.22l-.63 4.8-3.78 9.14-6.02 7.85-7.85 6.02-9.14 3.78-4.8.63M2170 4212.22l-4.81-.63-9.13-3.78-7.85-6.02-6.02-7.85-3.78-9.14-.64-4.8H2170v32.22M2765 4175h-34.21l.7-5.32 3.98-9.61 6.34-8.26 8.26-6.34 9.61-3.98 5.32-.7V4175M2212.22 4170H2180v-32.23l4.8.64 9.14 3.78 7.85 6.02 6.02 7.85 3.78 9.13.63 4.81M2170 4170h-32.23l.64-4.81 3.78-9.13 6.02-7.85 7.85-6.02 9.13-3.78 4.81-.64V4170M3070 3949.23l-13.51-1.33-12.98-3.94-11.97-6.4-7.88-6.46-3.66-1.67-3.66 1.67-7.88 6.46-11.97 6.4-12.98 3.94-13.51 1.33-13.51-1.33-12.98-3.94-11.97-6.4-7.88-6.46-3.66-1.67-3.66 1.67-7.88 6.46-11.97 6.4-12.98 3.94-13.51 1.33-13.51-1.33-12.98-3.94-11.97-6.4-7.88-6.46-3.66-1.67-3.66 1.67-7.88 6.46-11.97 6.4-12.98 3.94-13.51 1.33-13.51-1.33-12.98-3.94-11.97-6.4-10.49-8.61-8.61-10.49-6.4-11.97-3.94-12.98-1.33-13.51 1.33-13.51 3.94-12.98 4.62-8.65V3835l1.14-11.58 3.38-11.13 5.48-10.26 7.38-8.99 523.06-523.06v-53.88h137.8v11.76l4.52 2.14 3.12-2.56 11.97-6.4 12.98-3.94 13.51-1.33 13.51 1.33 12.98 3.94 11.97 6.4 10.49 8.61 8.61 10.49 6.4 11.97 3.94 12.98 1.33 13.51-1.33 13.51-3.94 12.98-6.4 11.97-8.61 10.49-10.49 8.61-11.97 6.4-12.98 3.94-13.51 1.33-13.51-1.33-12.98-3.94-11.97-6.4-3.12-2.56-4.52 2.14v11.76h-53.88l-453.46 453.46.84 2.35 1.4 2.48 12.69 3.85 11.97 6.4 7.88 6.46 3.66 1.67 3.66-1.67 7.88-6.46 11.97-6.4 12.98-3.94 13.51-1.33 13.51 1.33 12.98 3.94 11.97 6.4 7.88 6.46 3.66 1.67 3.66-1.67 7.88-6.46 11.97-6.4 12.98-3.94 13.51-1.33 13.51 1.33 12.98 3.94 11.97 6.4 10.49 8.61 8.61 10.49 6.4 11.97 3.94 12.98 1.33 13.51-1.33 13.51-3.94 12.98-6.4 11.97-8.61 10.49-10.49 8.61-11.97 6.4-12.98 3.94-13.51 1.33M2175 3942.25l-13.12-1.29-12.62-3.83-11.62-6.21-10.2-8.37-8.36-10.19-6.21-11.62-3.83-12.62-1.29-13.12 1.29-13.12 3.83-12.62 6.21-11.62 8.36-10.19 10.2-8.37 11.62-6.21 12.62-3.83 13.12-1.29 13.12 1.29 12.62 3.83 11.62 6.21 10.19 8.37 8.37 10.19 6.21 11.62 3.83 12.62 1.29 13.12-1.29 13.12-3.83 12.62-6.21 11.62-8.37 10.19-10.19 8.37-11.62 6.21-12.62 3.83-13.12 1.29M3000 3169.21V3135h34.21l-.7 5.32-3.98 9.61-6.34 8.26-8.26 6.34-9.61 3.98-5.32.7"/></mask><path id="S15Aep21b_pad-12" d="M-29.53-29.53h59.06v59.06h-59.06z"/><circle id="S15Aep21b_pad-13" r="29.53"/><circle id="S15Aep21b_pad-14" r="19.685"/><path id="S15Aep21b_pad-15" d="M-29.53-29.53h59.06v59.06h-59.06z"/><circle id="S15Aep21b_pad-16" r="27.56"/><mask id="S15Aep21b_clear-1" stroke="#000"><path fill="#fff" d="M2096.85 3096.85h1774.81v1774.81H2096.85z"/><path d="M3810 4834.21V4800h34.21l-.7 5.32-3.98 9.61-6.34 8.26-8.26 6.34-9.61 3.98-5.32.7M3800 4834.21l-5.32-.7-9.61-3.98-8.26-6.34-6.34-8.26-3.98-9.61-.7-5.32H3800v34.21M3093.23 4820.5v-24.28h24.28l-.36 2.75-2.99 7.22-4.76 6.2-6.2 4.76-7.22 2.99-2.75.36M3083.23 4820.5l-2.75-.36-7.22-2.99-6.2-4.76-4.76-6.2-2.99-7.22-.37-2.75h24.29v24.28M3117.51 4786.22h-24.28v-24.28l2.75.36 7.22 2.99 6.2 4.76 4.76 6.2 2.99 7.22.36 2.75M3083.23 4786.22h-24.29l.37-2.75 2.99-7.22 4.76-6.2 6.2-4.76 7.22-2.99 2.75-.36v24.28M2888.23 4850.56l-11.58-1.14-11.13-3.38-10.26-5.48-8.99-7.38-7.38-8.99-5.49-10.26-3.37-11.13-1.14-11.58 1.14-11.58 3.37-11.13 5.49-10.26 7.38-8.99 8.99-7.38 10.26-5.48 11.13-3.38 11.58-1.14 11.58 1.14 11.13 3.38 10.26 5.48 8.99 7.38 7.38 8.99 5.48 10.26 3.38 11.13 1.14 11.58-1.14 11.58-3.38 11.13-5.48 10.26-7.38 8.99-8.99 7.38-10.26 5.48-11.13 3.38-11.58 1.14M2194.53 4655H2160v-34.53h34.53V4655M2150 4655h-34.53v-34.53H2150V4655M3138.9 4248.9h-137.8v-36.64l-5-2.47-6.17 4.74-9.61 3.98-5.32.7v-78.42l5.32.7 9.61 3.98 6.17 4.74 5-2.47v-36.64h137.8v137.8M2870 4249.23l-13.51-1.33-12.98-3.94-11.97-6.4-10.49-8.61-8.61-10.49-6.4-11.97-.27-.87-4.92-.9-2.66 3.47-8.26 6.34-9.61 3.98-5.32.7v-78.42l5.32.7 9.61 3.98 8.26 6.34 2.66 3.47 4.92-.9.27-.87 6.4-11.97 8.61-10.49 10.49-8.61 11.97-6.4 12.98-3.94 13.51-1.33 13.51 1.33 12.98 3.94 11.97 6.4 10.49 8.61 8.61 10.49 6.4 11.97.27.87 4.92.9 2.66-3.47 8.26-6.34 9.61-3.98 5.32-.7v78.42l-5.32-.7-9.61-3.98-8.26-6.34-2.66-3.47-4.92.9-.27.87-6.4 11.97-8.61 10.49-10.49 8.61-11.97 6.4-12.98 3.94-13.51 1.33M2765 4219.21l-5.32-.7-9.61-3.98-8.26-6.34-6.34-8.26-3.98-9.61-.7-5.32H2765v34.21M2180 4212.22V4180h32.22l-.63 4.8-3.78 9.14-6.02 7.85-7.85 6.02-9.14 3.78-4.8.63M2170 4212.22l-4.81-.63-9.13-3.78-7.85-6.02-6.02-7.85-3.78-9.14-.64-4.8H2170v32.22M2765 4175h-34.21l.7-5.32 3.98-9.61 6.34-8.26 8.26-6.34 9.61-3.98 5.32-.7V4175M2212.22 4170H2180v-32.23l4.8.64 9.14 3.78 7.85 6.02 6.02 7.85 3.78 9.13.63 4.81M2170 4170h-32.23l.64-4.81 3.78-9.13 6.02-7.85 7.85-6.02 9.13-3.78 4.81-.64V4170M3070 3949.23l-13.51-1.33-12.98-3.94-11.97-6.4-7.88-6.46-3.66-1.67-3.66 1.67-7.88 6.46-11.97 6.4-12.98 3.94-13.51 1.33-13.51-1.33-12.98-3.94-11.97-6.4-7.88-6.46-3.66-1.67-3.66 1.67-7.88 6.46-11.97 6.4-12.98 3.94-13.51 1.33-13.51-1.33-12.98-3.94-11.97-6.4-7.88-6.46-3.66-1.67-3.66 1.67-7.88 6.46-11.97 6.4-12.98 3.94-13.51 1.33-13.51-1.33-12.98-3.94-11.97-6.4-10.49-8.61-8.61-10.49-6.4-11.97-3.94-12.98-1.33-13.51 1.33-13.51 3.94-12.98 4.62-8.65V3835l1.14-11.58 3.38-11.13 5.48-10.26 7.38-8.99 523.06-523.06v-53.88h137.8v11.76l4.52 2.14 3.12-2.56 11.97-6.4 12.98-3.94 13.51-1.33 13.51 1.33 12.98 3.94 11.97 6.4 10.49 8.61 8.61 10.49 6.4 11.97 3.94 12.98 1.33 13.51-1.33 13.51-3.94 12.98-6.4 11.97-8.61 10.49-10.49 8.61-11.97 6.4-12.98 3.94-13.51 1.33-13.51-1.33-12.98-3.94-11.97-6.4-3.12-2.56-4.52 2.14v11.76h-53.88l-453.46 453.46.84 2.35 1.4 2.48 12.69 3.85 11.97 6.4 7.88 6.46 3.66 1.67 3.66-1.67 7.88-6.46 11.97-6.4 12.98-3.94 13.51-1.33 13.51 1.33 12.98 3.94 11.97 6.4 7.88 6.46 3.66 1.67 3.66-1.67 7.88-6.46 11.97-6.4 12.98-3.94 13.51-1.33 13.51 1.33 12.98 3.94 11.97 6.4 10.49 8.61 8.61 10.49 6.4 11.97 3.94 12.98 1.33 13.51-1.33 13.51-3.94 12.98-6.4 11.97-8.61 10.49-10.49 8.61-11.97 6.4-12.98 3.94-13.51 1.33M2175 3942.25l-13.12-1.29-12.62-3.83-11.62-6.21-10.2-8.37-8.36-10.19-6.21-11.62-3.83-12.62-1.29-13.12 1.29-13.12 3.83-12.62 6.21-11.62 8.36-10.19 10.2-8.37 11.62-6.21 12.62-3.83 13.12-1.29 13.12 1.29 12.62 3.83 11.62 6.21 10.19 8.37 8.37 10.19 6.21 11.62 3.83 12.62 1.29 13.12-1.29 13.12-3.83 12.62-6.21 11.62-8.37 10.19-10.19 8.37-11.62 6.21-12.62 3.83-13.12 1.29M3000 3169.21V3135h34.21l-.7 5.32-3.98 9.61-6.34 8.26-8.26 6.34-9.61 3.98-5.32.7"/></mask><path id="S15Aep21b_pad-12" d="M-29.53-29.53h59.06v59.06h-59.06z"/><circle id="S15Aep21b_pad-13" r="29.53"/><circle id="S15Aep21b_pad-14" r="19.685"/><path id="S15Aep21b_pad-15" d="M-29.53-29.53h59.06v59.06h-59.06z"/><circle id="S15Aep21b_pad-16" r="27.56"/><path id="BJ-qAgp21-_pad-23" d="M-33.53-33.53h67.06v67.06h-67.06z"/><circle id="BJ-qAgp21-_pad-24" r="33.53"/><circle id="BJ-qAgp21-_pad-25" r="23.685"/><path id="BJ-qAgp21-_pad-26" d="M-33.53-33.53h67.06v67.06h-67.06z"/><circle id="BJ-qAgp21-_pad-27" r="31.56"/><mask id="S15Aep21b_clear-1" stroke="#000"><path fill="#fff" d="M2096.85 3096.85h1774.81v1774.81H2096.85z"/><path d="M3810 4834.21V4800h34.21l-.7 5.32-3.98 9.61-6.34 8.26-8.26 6.34-9.61 3.98-5.32.7M3800 4834.21l-5.32-.7-9.61-3.98-8.26-6.34-6.34-8.26-3.98-9.61-.7-5.32H3800v34.21M3093.23 4820.5v-24.28h24.28l-.36 2.75-2.99 7.22-4.76 6.2-6.2 4.76-7.22 2.99-2.75.36M3083.23 4820.5l-2.75-.36-7.22-2.99-6.2-4.76-4.76-6.2-2.99-7.22-.37-2.75h24.29v24.28M3117.51 4786.22h-24.28v-24.28l2.75.36 7.22 2.99 6.2 4.76 4.76 6.2 2.99 7.22.36 2.75M3083.23 4786.22h-24.29l.37-2.75 2.99-7.22 4.76-6.2 6.2-4.76 7.22-2.99 2.75-.36v24.28M2888.23 4850.56l-11.58-1.14-11.13-3.38-10.26-5.48-8.99-7.38-7.38-8.99-5.49-10.26-3.37-11.13-1.14-11.58 1.14-11.58 3.37-11.13 5.49-10.26 7.38-8.99 8.99-7.38 10.26-5.48 11.13-3.38 11.58-1.14 11.58 1.14 11.13 3.38 10.26 5.48 8.99 7.38 7.38 8.99 5.48 10.26 3.38 11.13 1.14 11.58-1.14 11.58-3.38 11.13-5.48 10.26-7.38 8.99-8.99 7.38-10.26 5.48-11.13 3.38-11.58 1.14M2194.53 4655H2160v-34.53h34.53V4655M2150 4655h-34.53v-34.53H2150V4655M3138.9 4248.9h-137.8v-36.64l-5-2.47-6.17 4.74-9.61 3.98-5.32.7v-78.42l5.32.7 9.61 3.98 6.17 4.74 5-2.47v-36.64h137.8v137.8M2870 4249.23l-13.51-1.33-12.98-3.94-11.97-6.4-10.49-8.61-8.61-10.49-6.4-11.97-.27-.87-4.92-.9-2.66 3.47-8.26 6.34-9.61 3.98-5.32.7v-78.42l5.32.7 9.61 3.98 8.26 6.34 2.66 3.47 4.92-.9.27-.87 6.4-11.97 8.61-10.49 10.49-8.61 11.97-6.4 12.98-3.94 13.51-1.33 13.51 1.33 12.98 3.94 11.97 6.4 10.49 8.61 8.61 10.49 6.4 11.97.27.87 4.92.9 2.66-3.47 8.26-6.34 9.61-3.98 5.32-.7v78.42l-5.32-.7-9.61-3.98-8.26-6.34-2.66-3.47-4.92.9-.27.87-6.4 11.97-8.61 10.49-10.49 8.61-11.97 6.4-12.98 3.94-13.51 1.33M2765 4219.21l-5.32-.7-9.61-3.98-8.26-6.34-6.34-8.26-3.98-9.61-.7-5.32H2765v34.21M2180 4212.22V4180h32.22l-.63 4.8-3.78 9.14-6.02 7.85-7.85 6.02-9.14 3.78-4.8.63M2170 4212.22l-4.81-.63-9.13-3.78-7.85-6.02-6.02-7.85-3.78-9.14-.64-4.8H2170v32.22M2765 4175h-34.21l.7-5.32 3.98-9.61 6.34-8.26 8.26-6.34 9.61-3.98 5.32-.7V4175M2212.22 4170H2180v-32.23l4.8.64 9.14 3.78 7.85 6.02 6.02 7.85 3.78 9.13.63 4.81M2170 4170h-32.23l.64-4.81 3.78-9.13 6.02-7.85 7.85-6.02 9.13-3.78 4.81-.64V4170M3070 3949.23l-13.51-1.33-12.98-3.94-11.97-6.4-7.88-6.46-3.66-1.67-3.66 1.67-7.88 6.46-11.97 6.4-12.98 3.94-13.51 1.33-13.51-1.33-12.98-3.94-11.97-6.4-7.88-6.46-3.66-1.67-3.66 1.67-7.88 6.46-11.97 6.4-12.98 3.94-13.51 1.33-13.51-1.33-12.98-3.94-11.97-6.4-7.88-6.46-3.66-1.67-3.66 1.67-7.88 6.46-11.97 6.4-12.98 3.94-13.51 1.33-13.51-1.33-12.98-3.94-11.97-6.4-10.49-8.61-8.61-10.49-6.4-11.97-3.94-12.98-1.33-13.51 1.33-13.51 3.94-12.98 4.62-8.65V3835l1.14-11.58 3.38-11.13 5.48-10.26 7.38-8.99 523.06-523.06v-53.88h137.8v11.76l4.52 2.14 3.12-2.56 11.97-6.4 12.98-3.94 13.51-1.33 13.51 1.33 12.98 3.94 11.97 6.4 10.49 8.61 8.61 10.49 6.4 11.97 3.94 12.98 1.33 13.51-1.33 13.51-3.94 12.98-6.4 11.97-8.61 10.49-10.49 8.61-11.97 6.4-12.98 3.94-13.51 1.33-13.51-1.33-12.98-3.94-11.97-6.4-3.12-2.56-4.52 2.14v11.76h-53.88l-453.46 453.46.84 2.35 1.4 2.48 12.69 3.85 11.97 6.4 7.88 6.46 3.66 1.67 3.66-1.67 7.88-6.46 11.97-6.4 12.98-3.94 13.51-1.33 13.51 1.33 12.98 3.94 11.97 6.4 7.88 6.46 3.66 1.67 3.66-1.67 7.88-6.46 11.97-6.4 12.98-3.94 13.51-1.33 13.51 1.33 12.98 3.94 11.97 6.4 10.49 8.61 8.61 10.49 6.4 11.97 3.94 12.98 1.33 13.51-1.33 13.51-3.94 12.98-6.4 11.97-8.61 10.49-10.49 8.61-11.97 6.4-12.98 3.94-13.51 1.33M2175 3942.25l-13.12-1.29-12.62-3.83-11.62-6.21-10.2-8.37-8.36-10.19-6.21-11.62-3.83-12.62-1.29-13.12 1.29-13.12 3.83-12.62 6.21-11.62 8.36-10.19 10.2-8.37 11.62-6.21 12.62-3.83 13.12-1.29 13.12 1.29 12.62 3.83 11.62 6.21 10.19 8.37 8.37 10.19 6.21 11.62 3.83 12.62 1.29 13.12-1.29 13.12-3.83 12.62-6.21 11.62-8.37 10.19-10.19 8.37-11.62 6.21-12.62 3.83-13.12 1.29M3000 3169.21V3135h34.21l-.7 5.32-3.98 9.61-6.34 8.26-8.26 6.34-9.61 3.98-5.32.7"/></mask><path id="S15Aep21b_pad-12" d="M-29.53-29.53h59.06v59.06h-59.06z"/><circle id="S15Aep21b_pad-13" r="29.53"/><circle id="S15Aep21b_pad-14" r="19.685"/><path id="S15Aep21b_pad-15" d="M-29.53-29.53h59.06v59.06h-59.06z"/><circle id="S15Aep21b_pad-16" r="27.56"/><mask id="S15Aep21b_clear-1" stroke="#000"><path fill="#fff" d="M2096.85 3096.85h1774.81v1774.81H2096.85z"/><path d="M3810 4834.21V4800h34.21l-.7 5.32-3.98 9.61-6.34 8.26-8.26 6.34-9.61 3.98-5.32.7M3800 4834.21l-5.32-.7-9.61-3.98-8.26-6.34-6.34-8.26-3.98-9.61-.7-5.32H3800v34.21M3093.23 4820.5v-24.28h24.28l-.36 2.75-2.99 7.22-4.76 6.2-6.2 4.76-7.22 2.99-2.75.36M3083.23 4820.5l-2.75-.36-7.22-2.99-6.2-4.76-4.76-6.2-2.99-7.22-.37-2.75h24.29v24.28M3117.51 4786.22h-24.28v-24.28l2.75.36 7.22 2.99 6.2 4.76 4.76 6.2 2.99 7.22.36 2.75M3083.23 4786.22h-24.29l.37-2.75 2.99-7.22 4.76-6.2 6.2-4.76 7.22-2.99 2.75-.36v24.28M2888.23 4850.56l-11.58-1.14-11.13-3.38-10.26-5.48-8.99-7.38-7.38-8.99-5.49-10.26-3.37-11.13-1.14-11.58 1.14-11.58 3.37-11.13 5.49-10.26 7.38-8.99 8.99-7.38 10.26-5.48 11.13-3.38 11.58-1.14 11.58 1.14 11.13 3.38 10.26 5.48 8.99 7.38 7.38 8.99 5.48 10.26 3.38 11.13 1.14 11.58-1.14 11.58-3.38 11.13-5.48 10.26-7.38 8.99-8.99 7.38-10.26 5.48-11.13 3.38-11.58 1.14M2194.53 4655H2160v-34.53h34.53V4655M2150 4655h-34.53v-34.53H2150V4655M3138.9 4248.9h-137.8v-36.64l-5-2.47-6.17 4.74-9.61 3.98-5.32.7v-78.42l5.32.7 9.61 3.98 6.17 4.74 5-2.47v-36.64h137.8v137.8M2870 4249.23l-13.51-1.33-12.98-3.94-11.97-6.4-10.49-8.61-8.61-10.49-6.4-11.97-.27-.87-4.92-.9-2.66 3.47-8.26 6.34-9.61 3.98-5.32.7v-78.42l5.32.7 9.61 3.98 8.26 6.34 2.66 3.47 4.92-.9.27-.87 6.4-11.97 8.61-10.49 10.49-8.61 11.97-6.4 12.98-3.94 13.51-1.33 13.51 1.33 12.98 3.94 11.97 6.4 10.49 8.61 8.61 10.49 6.4 11.97.27.87 4.92.9 2.66-3.47 8.26-6.34 9.61-3.98 5.32-.7v78.42l-5.32-.7-9.61-3.98-8.26-6.34-2.66-3.47-4.92.9-.27.87-6.4 11.97-8.61 10.49-10.49 8.61-11.97 6.4-12.98 3.94-13.51 1.33M2765 4219.21l-5.32-.7-9.61-3.98-8.26-6.34-6.34-8.26-3.98-9.61-.7-5.32H2765v34.21M2180 4212.22V4180h32.22l-.63 4.8-3.78 9.14-6.02 7.85-7.85 6.02-9.14 3.78-4.8.63M2170 4212.22l-4.81-.63-9.13-3.78-7.85-6.02-6.02-7.85-3.78-9.14-.64-4.8H2170v32.22M2765 4175h-34.21l.7-5.32 3.98-9.61 6.34-8.26 8.26-6.34 9.61-3.98 5.32-.7V4175M2212.22 4170H2180v-32.23l4.8.64 9.14 3.78 7.85 6.02 6.02 7.85 3.78 9.13.63 4.81M2170 4170h-32.23l.64-4.81 3.78-9.13 6.02-7.85 7.85-6.02 9.13-3.78 4.81-.64V4170M3070 3949.23l-13.51-1.33-12.98-3.94-11.97-6.4-7.88-6.46-3.66-1.67-3.66 1.67-7.88 6.46-11.97 6.4-12.98 3.94-13.51 1.33-13.51-1.33-12.98-3.94-11.97-6.4-7.88-6.46-3.66-1.67-3.66 1.67-7.88 6.46-11.97 6.4-12.98 3.94-13.51 1.33-13.51-1.33-12.98-3.94-11.97-6.4-7.88-6.46-3.66-1.67-3.66 1.67-7.88 6.46-11.97 6.4-12.98 3.94-13.51 1.33-13.51-1.33-12.98-3.94-11.97-6.4-10.49-8.61-8.61-10.49-6.4-11.97-3.94-12.98-1.33-13.51 1.33-13.51 3.94-12.98 4.62-8.65V3835l1.14-11.58 3.38-11.13 5.48-10.26 7.38-8.99 523.06-523.06v-53.88h137.8v11.76l4.52 2.14 3.12-2.56 11.97-6.4 12.98-3.94 13.51-1.33 13.51 1.33 12.98 3.94 11.97 6.4 10.49 8.61 8.61 10.49 6.4 11.97 3.94 12.98 1.33 13.51-1.33 13.51-3.94 12.98-6.4 11.97-8.61 10.49-10.49 8.61-11.97 6.4-12.98 3.94-13.51 1.33-13.51-1.33-12.98-3.94-11.97-6.4-3.12-2.56-4.52 2.14v11.76h-53.88l-453.46 453.46.84 2.35 1.4 2.48 12.69 3.85 11.97 6.4 7.88 6.46 3.66 1.67 3.66-1.67 7.88-6.46 11.97-6.4 12.98-3.94 13.51-1.33 13.51 1.33 12.98 3.94 11.97 6.4 7.88 6.46 3.66 1.67 3.66-1.67 7.88-6.46 11.97-6.4 12.98-3.94 13.51-1.33 13.51 1.33 12.98 3.94 11.97 6.4 10.49 8.61 8.61 10.49 6.4 11.97 3.94 12.98 1.33 13.51-1.33 13.51-3.94 12.98-6.4 11.97-8.61 10.49-10.49 8.61-11.97 6.4-12.98 3.94-13.51 1.33M2175 3942.25l-13.12-1.29-12.62-3.83-11.62-6.21-10.2-8.37-8.36-10.19-6.21-11.62-3.83-12.62-1.29-13.12 1.29-13.12 3.83-12.62 6.21-11.62 8.36-10.19 10.2-8.37 11.62-6.21 12.62-3.83 13.12-1.29 13.12 1.29 12.62 3.83 11.62 6.21 10.19 8.37 8.37 10.19 6.21 11.62 3.83 12.62 1.29 13.12-1.29 13.12-3.83 12.62-6.21 11.62-8.37 10.19-10.19 8.37-11.62 6.21-12.62 3.83-13.12 1.29M3000 3169.21V3135h34.21l-.7 5.32-3.98 9.61-6.34 8.26-8.26 6.34-9.61 3.98-5.32.7"/></mask><path id="S15Aep21b_pad-12" d="M-29.53-29.53h59.06v59.06h-59.06z"/><circle id="S15Aep21b_pad-13" r="29.53"/><circle id="S15Aep21b_pad-14" r="19.685"/><path id="S15Aep21b_pad-15" d="M-29.53-29.53h59.06v59.06h-59.06z"/><circle id="S15Aep21b_pad-16" r="27.56"/><mask id="S15Aep21b_clear-1" stroke="#000"><path fill="#fff" d="M2096.85 3096.85h1774.81v1774.81H2096.85z"/><path d="M3810 4834.21V4800h34.21l-.7 5.32-3.98 9.61-6.34 8.26-8.26 6.34-9.61 3.98-5.32.7M3800 4834.21l-5.32-.7-9.61-3.98-8.26-6.34-6.34-8.26-3.98-9.61-.7-5.32H3800v34.21M3093.23 4820.5v-24.28h24.28l-.36 2.75-2.99 7.22-4.76 6.2-6.2 4.76-7.22 2.99-2.75.36M3083.23 4820.5l-2.75-.36-7.22-2.99-6.2-4.76-4.76-6.2-2.99-7.22-.37-2.75h24.29v24.28M3117.51 4786.22h-24.28v-24.28l2.75.36 7.22 2.99 6.2 4.76 4.76 6.2 2.99 7.22.36 2.75M3083.23 4786.22h-24.29l.37-2.75 2.99-7.22 4.76-6.2 6.2-4.76 7.22-2.99 2.75-.36v24.28M2888.23 4850.56l-11.58-1.14-11.13-3.38-10.26-5.48-8.99-7.38-7.38-8.99-5.49-10.26-3.37-11.13-1.14-11.58 1.14-11.58 3.37-11.13 5.49-10.26 7.38-8.99 8.99-7.38 10.26-5.48 11.13-3.38 11.58-1.14 11.58 1.14 11.13 3.38 10.26 5.48 8.99 7.38 7.38 8.99 5.48 10.26 3.38 11.13 1.14 11.58-1.14 11.58-3.38 11.13-5.48 10.26-7.38 8.99-8.99 7.38-10.26 5.48-11.13 3.38-11.58 1.14M2194.53 4655H2160v-34.53h34.53V4655M2150 4655h-34.53v-34.53H2150V4655M3138.9 4248.9h-137.8v-36.64l-5-2.47-6.17 4.74-9.61 3.98-5.32.7v-78.42l5.32.7 9.61 3.98 6.17 4.74 5-2.47v-36.64h137.8v137.8M2870 4249.23l-13.51-1.33-12.98-3.94-11.97-6.4-10.49-8.61-8.61-10.49-6.4-11.97-.27-.87-4.92-.9-2.66 3.47-8.26 6.34-9.61 3.98-5.32.7v-78.42l5.32.7 9.61 3.98 8.26 6.34 2.66 3.47 4.92-.9.27-.87 6.4-11.97 8.61-10.49 10.49-8.61 11.97-6.4 12.98-3.94 13.51-1.33 13.51 1.33 12.98 3.94 11.97 6.4 10.49 8.61 8.61 10.49 6.4 11.97.27.87 4.92.9 2.66-3.47 8.26-6.34 9.61-3.98 5.32-.7v78.42l-5.32-.7-9.61-3.98-8.26-6.34-2.66-3.47-4.92.9-.27.87-6.4 11.97-8.61 10.49-10.49 8.61-11.97 6.4-12.98 3.94-13.51 1.33M2765 4219.21l-5.32-.7-9.61-3.98-8.26-6.34-6.34-8.26-3.98-9.61-.7-5.32H2765v34.21M2180 4212.22V4180h32.22l-.63 4.8-3.78 9.14-6.02 7.85-7.85 6.02-9.14 3.78-4.8.63M2170 4212.22l-4.81-.63-9.13-3.78-7.85-6.02-6.02-7.85-3.78-9.14-.64-4.8H2170v32.22M2765 4175h-34.21l.7-5.32 3.98-9.61 6.34-8.26 8.26-6.34 9.61-3.98 5.32-.7V4175M2212.22 4170H2180v-32.23l4.8.64 9.14 3.78 7.85 6.02 6.02 7.85 3.78 9.13.63 4.81M2170 4170h-32.23l.64-4.81 3.78-9.13 6.02-7.85 7.85-6.02 9.13-3.78 4.81-.64V4170M3070 3949.23l-13.51-1.33-12.98-3.94-11.97-6.4-7.88-6.46-3.66-1.67-3.66 1.67-7.88 6.46-11.97 6.4-12.98 3.94-13.51 1.33-13.51-1.33-12.98-3.94-11.97-6.4-7.88-6.46-3.66-1.67-3.66 1.67-7.88 6.46-11.97 6.4-12.98 3.94-13.51 1.33-13.51-1.33-12.98-3.94-11.97-6.4-7.88-6.46-3.66-1.67-3.66 1.67-7.88 6.46-11.97 6.4-12.98 3.94-13.51 1.33-13.51-1.33-12.98-3.94-11.97-6.4-10.49-8.61-8.61-10.49-6.4-11.97-3.94-12.98-1.33-13.51 1.33-13.51 3.94-12.98 4.62-8.65V3835l1.14-11.58 3.38-11.13 5.48-10.26 7.38-8.99 523.06-523.06v-53.88h137.8v11.76l4.52 2.14 3.12-2.56 11.97-6.4 12.98-3.94 13.51-1.33 13.51 1.33 12.98 3.94 11.97 6.4 10.49 8.61 8.61 10.49 6.4 11.97 3.94 12.98 1.33 13.51-1.33 13.51-3.94 12.98-6.4 11.97-8.61 10.49-10.49 8.61-11.97 6.4-12.98 3.94-13.51 1.33-13.51-1.33-12.98-3.94-11.97-6.4-3.12-2.56-4.52 2.14v11.76h-53.88l-453.46 453.46.84 2.35 1.4 2.48 12.69 3.85 11.97 6.4 7.88 6.46 3.66 1.67 3.66-1.67 7.88-6.46 11.97-6.4 12.98-3.94 13.51-1.33 13.51 1.33 12.98 3.94 11.97 6.4 7.88 6.46 3.66 1.67 3.66-1.67 7.88-6.46 11.97-6.4 12.98-3.94 13.51-1.33 13.51 1.33 12.98 3.94 11.97 6.4 10.49 8.61 8.61 10.49 6.4 11.97 3.94 12.98 1.33 13.51-1.33 13.51-3.94 12.98-6.4 11.97-8.61 10.49-10.49 8.61-11.97 6.4-12.98 3.94-13.51 1.33M2175 3942.25l-13.12-1.29-12.62-3.83-11.62-6.21-10.2-8.37-8.36-10.19-6.21-11.62-3.83-12.62-1.29-13.12 1.29-13.12 3.83-12.62 6.21-11.62 8.36-10.19 10.2-8.37 11.62-6.21 12.62-3.83 13.12-1.29 13.12 1.29 12.62 3.83 11.62 6.21 10.19 8.37 8.37 10.19 6.21 11.62 3.83 12.62 1.29 13.12-1.29 13.12-3.83 12.62-6.21 11.62-8.37 10.19-10.19 8.37-11.62 6.21-12.62 3.83-13.12 1.29M3000 3169.21V3135h34.21l-.7 5.32-3.98 9.61-6.34 8.26-8.26 6.34-9.61 3.98-5.32.7"/></mask><path id="S15Aep21b_pad-12" d="M-29.53-29.53h59.06v59.06h-59.06z"/><circle id="S15Aep21b_pad-13" r="29.53"/><circle id="S15Aep21b_pad-14" r="19.685"/><path id="S15Aep21b_pad-15" d="M-29.53-29.53h59.06v59.06h-59.06z"/><circle id="S15Aep21b_pad-16" r="27.56"/><mask id="S15Aep21b_clear-1" stroke="#000"><path fill="#fff" d="M2096.85 3096.85h1774.81v1774.81H2096.85z"/><path d="M3810 4834.21V4800h34.21l-.7 5.32-3.98 9.61-6.34 8.26-8.26 6.34-9.61 3.98-5.32.7M3800 4834.21l-5.32-.7-9.61-3.98-8.26-6.34-6.34-8.26-3.98-9.61-.7-5.32H3800v34.21M3093.23 4820.5v-24.28h24.28l-.36 2.75-2.99 7.22-4.76 6.2-6.2 4.76-7.22 2.99-2.75.36M3083.23 4820.5l-2.75-.36-7.22-2.99-6.2-4.76-4.76-6.2-2.99-7.22-.37-2.75h24.29v24.28M3117.51 4786.22h-24.28v-24.28l2.75.36 7.22 2.99 6.2 4.76 4.76 6.2 2.99 7.22.36 2.75M3083.23 4786.22h-24.29l.37-2.75 2.99-7.22 4.76-6.2 6.2-4.76 7.22-2.99 2.75-.36v24.28M2888.23 4850.56l-11.58-1.14-11.13-3.38-10.26-5.48-8.99-7.38-7.38-8.99-5.49-10.26-3.37-11.13-1.14-11.58 1.14-11.58 3.37-11.13 5.49-10.26 7.38-8.99 8.99-7.38 10.26-5.48 11.13-3.38 11.58-1.14 11.58 1.14 11.13 3.38 10.26 5.48 8.99 7.38 7.38 8.99 5.48 10.26 3.38 11.13 1.14 11.58-1.14 11.58-3.38 11.13-5.48 10.26-7.38 8.99-8.99 7.38-10.26 5.48-11.13 3.38-11.58 1.14M2194.53 4655H2160v-34.53h34.53V4655M2150 4655h-34.53v-34.53H2150V4655M3138.9 4248.9h-137.8v-36.64l-5-2.47-6.17 4.74-9.61 3.98-5.32.7v-78.42l5.32.7 9.61 3.98 6.17 4.74 5-2.47v-36.64h137.8v137.8M2870 4249.23l-13.51-1.33-12.98-3.94-11.97-6.4-10.49-8.61-8.61-10.49-6.4-11.97-.27-.87-4.92-.9-2.66 3.47-8.26 6.34-9.61 3.98-5.32.7v-78.42l5.32.7 9.61 3.98 8.26 6.34 2.66 3.47 4.92-.9.27-.87 6.4-11.97 8.61-10.49 10.49-8.61 11.97-6.4 12.98-3.94 13.51-1.33 13.51 1.33 12.98 3.94 11.97 6.4 10.49 8.61 8.61 10.49 6.4 11.97.27.87 4.92.9 2.66-3.47 8.26-6.34 9.61-3.98 5.32-.7v78.42l-5.32-.7-9.61-3.98-8.26-6.34-2.66-3.47-4.92.9-.27.87-6.4 11.97-8.61 10.49-10.49 8.61-11.97 6.4-12.98 3.94-13.51 1.33M2765 4219.21l-5.32-.7-9.61-3.98-8.26-6.34-6.34-8.26-3.98-9.61-.7-5.32H2765v34.21M2180 4212.22V4180h32.22l-.63 4.8-3.78 9.14-6.02 7.85-7.85 6.02-9.14 3.78-4.8.63M2170 4212.22l-4.81-.63-9.13-3.78-7.85-6.02-6.02-7.85-3.78-9.14-.64-4.8H2170v32.22M2765 4175h-34.21l.7-5.32 3.98-9.61 6.34-8.26 8.26-6.34 9.61-3.98 5.32-.7V4175M2212.22 4170H2180v-32.23l4.8.64 9.14 3.78 7.85 6.02 6.02 7.85 3.78 9.13.63 4.81M2170 4170h-32.23l.64-4.81 3.78-9.13 6.02-7.85 7.85-6.02 9.13-3.78 4.81-.64V4170M3070 3949.23l-13.51-1.33-12.98-3.94-11.97-6.4-7.88-6.46-3.66-1.67-3.66 1.67-7.88 6.46-11.97 6.4-12.98 3.94-13.51 1.33-13.51-1.33-12.98-3.94-11.97-6.4-7.88-6.46-3.66-1.67-3.66 1.67-7.88 6.46-11.97 6.4-12.98 3.94-13.51 1.33-13.51-1.33-12.98-3.94-11.97-6.4-7.88-6.46-3.66-1.67-3.66 1.67-7.88 6.46-11.97 6.4-12.98 3.94-13.51 1.33-13.51-1.33-12.98-3.94-11.97-6.4-10.49-8.61-8.61-10.49-6.4-11.97-3.94-12.98-1.33-13.51 1.33-13.51 3.94-12.98 4.62-8.65V3835l1.14-11.58 3.38-11.13 5.48-10.26 7.38-8.99 523.06-523.06v-53.88h137.8v11.76l4.52 2.14 3.12-2.56 11.97-6.4 12.98-3.94 13.51-1.33 13.51 1.33 12.98 3.94 11.97 6.4 10.49 8.61 8.61 10.49 6.4 11.97 3.94 12.98 1.33 13.51-1.33 13.51-3.94 12.98-6.4 11.97-8.61 10.49-10.49 8.61-11.97 6.4-12.98 3.94-13.51 1.33-13.51-1.33-12.98-3.94-11.97-6.4-3.12-2.56-4.52 2.14v11.76h-53.88l-453.46 453.46.84 2.35 1.4 2.48 12.69 3.85 11.97 6.4 7.88 6.46 3.66 1.67 3.66-1.67 7.88-6.46 11.97-6.4 12.98-3.94 13.51-1.33 13.51 1.33 12.98 3.94 11.97 6.4 7.88 6.46 3.66 1.67 3.66-1.67 7.88-6.46 11.97-6.4 12.98-3.94 13.51-1.33 13.51 1.33 12.98 3.94 11.97 6.4 10.49 8.61 8.61 10.49 6.4 11.97 3.94 12.98 1.33 13.51-1.33 13.51-3.94 12.98-6.4 11.97-8.61 10.49-10.49 8.61-11.97 6.4-12.98 3.94-13.51 1.33M2175 3942.25l-13.12-1.29-12.62-3.83-11.62-6.21-10.2-8.37-8.36-10.19-6.21-11.62-3.83-12.62-1.29-13.12 1.29-13.12 3.83-12.62 6.21-11.62 8.36-10.19 10.2-8.37 11.62-6.21 12.62-3.83 13.12-1.29 13.12 1.29 12.62 3.83 11.62 6.21 10.19 8.37 8.37 10.19 6.21 11.62 3.83 12.62 1.29 13.12-1.29 13.12-3.83 12.62-6.21 11.62-8.37 10.19-10.19 8.37-11.62 6.21-12.62 3.83-13.12 1.29M3000 3169.21V3135h34.21l-.7 5.32-3.98 9.61-6.34 8.26-8.26 6.34-9.61 3.98-5.32.7"/></mask><path id="S15Aep21b_pad-12" d="M-29.53-29.53h59.06v59.06h-59.06z"/><circle id="S15Aep21b_pad-13" r="29.53"/><circle id="S15Aep21b_pad-14" r="19.685"/><path id="S15Aep21b_pad-15" d="M-29.53-29.53h59.06v59.06h-59.06z"/><circle id="S15Aep21b_pad-16" r="27.56"/><path id="BJ-qAgp21-_pad-23" d="M-33.53-33.53h67.06v67.06h-67.06z"/><circle id="BJ-qAgp21-_pad-24" r="33.53"/><circle id="BJ-qAgp21-_pad-25" r="23.685"/><path id="BJ-qAgp21-_pad-26" d="M-33.53-33.53h67.06v67.06h-67.06z"/><circle id="BJ-qAgp21-_pad-27" r="31.56"/><circle id="ByI5Axph1b_pad-1" r="9.84"/><circle id="ByI5Axph1b_pad-2" r="13.78"/><circle id="ByI5Axph1b_pad-3" r="16.73"/><circle id="ByI5Axph1b_pad-4" r="17.715"/><mask id="S15Aep21b_clear-1" stroke="#000"><path fill="#fff" d="M2096.85 3096.85h1774.81v1774.81H2096.85z"/><path d="M3810 4834.21V4800h34.21l-.7 5.32-3.98 9.61-6.34 8.26-8.26 6.34-9.61 3.98-5.32.7M3800 4834.21l-5.32-.7-9.61-3.98-8.26-6.34-6.34-8.26-3.98-9.61-.7-5.32H3800v34.21M3093.23 4820.5v-24.28h24.28l-.36 2.75-2.99 7.22-4.76 6.2-6.2 4.76-7.22 2.99-2.75.36M3083.23 4820.5l-2.75-.36-7.22-2.99-6.2-4.76-4.76-6.2-2.99-7.22-.37-2.75h24.29v24.28M3117.51 4786.22h-24.28v-24.28l2.75.36 7.22 2.99 6.2 4.76 4.76 6.2 2.99 7.22.36 2.75M3083.23 4786.22h-24.29l.37-2.75 2.99-7.22 4.76-6.2 6.2-4.76 7.22-2.99 2.75-.36v24.28M2888.23 4850.56l-11.58-1.14-11.13-3.38-10.26-5.48-8.99-7.38-7.38-8.99-5.49-10.26-3.37-11.13-1.14-11.58 1.14-11.58 3.37-11.13 5.49-10.26 7.38-8.99 8.99-7.38 10.26-5.48 11.13-3.38 11.58-1.14 11.58 1.14 11.13 3.38 10.26 5.48 8.99 7.38 7.38 8.99 5.48 10.26 3.38 11.13 1.14 11.58-1.14 11.58-3.38 11.13-5.48 10.26-7.38 8.99-8.99 7.38-10.26 5.48-11.13 3.38-11.58 1.14M2194.53 4655H2160v-34.53h34.53V4655M2150 4655h-34.53v-34.53H2150V4655M3138.9 4248.9h-137.8v-36.64l-5-2.47-6.17 4.74-9.61 3.98-5.32.7v-78.42l5.32.7 9.61 3.98 6.17 4.74 5-2.47v-36.64h137.8v137.8M2870 4249.23l-13.51-1.33-12.98-3.94-11.97-6.4-10.49-8.61-8.61-10.49-6.4-11.97-.27-.87-4.92-.9-2.66 3.47-8.26 6.34-9.61 3.98-5.32.7v-78.42l5.32.7 9.61 3.98 8.26 6.34 2.66 3.47 4.92-.9.27-.87 6.4-11.97 8.61-10.49 10.49-8.61 11.97-6.4 12.98-3.94 13.51-1.33 13.51 1.33 12.98 3.94 11.97 6.4 10.49 8.61 8.61 10.49 6.4 11.97.27.87 4.92.9 2.66-3.47 8.26-6.34 9.61-3.98 5.32-.7v78.42l-5.32-.7-9.61-3.98-8.26-6.34-2.66-3.47-4.92.9-.27.87-6.4 11.97-8.61 10.49-10.49 8.61-11.97 6.4-12.98 3.94-13.51 1.33M2765 4219.21l-5.32-.7-9.61-3.98-8.26-6.34-6.34-8.26-3.98-9.61-.7-5.32H2765v34.21M2180 4212.22V4180h32.22l-.63 4.8-3.78 9.14-6.02 7.85-7.85 6.02-9.14 3.78-4.8.63M2170 4212.22l-4.81-.63-9.13-3.78-7.85-6.02-6.02-7.85-3.78-9.14-.64-4.8H2170v32.22M2765 4175h-34.21l.7-5.32 3.98-9.61 6.34-8.26 8.26-6.34 9.61-3.98 5.32-.7V4175M2212.22 4170H2180v-32.23l4.8.64 9.14 3.78 7.85 6.02 6.02 7.85 3.78 9.13.63 4.81M2170 4170h-32.23l.64-4.81 3.78-9.13 6.02-7.85 7.85-6.02 9.13-3.78 4.81-.64V4170M3070 3949.23l-13.51-1.33-12.98-3.94-11.97-6.4-7.88-6.46-3.66-1.67-3.66 1.67-7.88 6.46-11.97 6.4-12.98 3.94-13.51 1.33-13.51-1.33-12.98-3.94-11.97-6.4-7.88-6.46-3.66-1.67-3.66 1.67-7.88 6.46-11.97 6.4-12.98 3.94-13.51 1.33-13.51-1.33-12.98-3.94-11.97-6.4-7.88-6.46-3.66-1.67-3.66 1.67-7.88 6.46-11.97 6.4-12.98 3.94-13.51 1.33-13.51-1.33-12.98-3.94-11.97-6.4-10.49-8.61-8.61-10.49-6.4-11.97-3.94-12.98-1.33-13.51 1.33-13.51 3.94-12.98 4.62-8.65V3835l1.14-11.58 3.38-11.13 5.48-10.26 7.38-8.99 523.06-523.06v-53.88h137.8v11.76l4.52 2.14 3.12-2.56 11.97-6.4 12.98-3.94 13.51-1.33 13.51 1.33 12.98 3.94 11.97 6.4 10.49 8.61 8.61 10.49 6.4 11.97 3.94 12.98 1.33 13.51-1.33 13.51-3.94 12.98-6.4 11.97-8.61 10.49-10.49 8.61-11.97 6.4-12.98 3.94-13.51 1.33-13.51-1.33-12.98-3.94-11.97-6.4-3.12-2.56-4.52 2.14v11.76h-53.88l-453.46 453.46.84 2.35 1.4 2.48 12.69 3.85 11.97 6.4 7.88 6.46 3.66 1.67 3.66-1.67 7.88-6.46 11.97-6.4 12.98-3.94 13.51-1.33 13.51 1.33 12.98 3.94 11.97 6.4 7.88 6.46 3.66 1.67 3.66-1.67 7.88-6.46 11.97-6.4 12.98-3.94 13.51-1.33 13.51 1.33 12.98 3.94 11.97 6.4 10.49 8.61 8.61 10.49 6.4 11.97 3.94 12.98 1.33 13.51-1.33 13.51-3.94 12.98-6.4 11.97-8.61 10.49-10.49 8.61-11.97 6.4-12.98 3.94-13.51 1.33M2175 3942.25l-13.12-1.29-12.62-3.83-11.62-6.21-10.2-8.37-8.36-10.19-6.21-11.62-3.83-12.62-1.29-13.12 1.29-13.12 3.83-12.62 6.21-11.62 8.36-10.19 10.2-8.37 11.62-6.21 12.62-3.83 13.12-1.29 13.12 1.29 12.62 3.83 11.62 6.21 10.19 8.37 8.37 10.19 6.21 11.62 3.83 12.62 1.29 13.12-1.29 13.12-3.83 12.62-6.21 11.62-8.37 10.19-10.19 8.37-11.62 6.21-12.62 3.83-13.12 1.29M3000 3169.21V3135h34.21l-.7 5.32-3.98 9.61-6.34 8.26-8.26 6.34-9.61 3.98-5.32.7"/></mask><path id="S15Aep21b_pad-12" d="M-29.53-29.53h59.06v59.06h-59.06z"/><circle id="S15Aep21b_pad-13" r="29.53"/><circle id="S15Aep21b_pad-14" r="19.685"/><path id="S15Aep21b_pad-15" d="M-29.53-29.53h59.06v59.06h-59.06z"/><circle id="S15Aep21b_pad-16" r="27.56"/><mask id="S15Aep21b_clear-1" stroke="#000"><path fill="#fff" d="M2096.85 3096.85h1774.81v1774.81H2096.85z"/><path d="M3810 4834.21V4800h34.21l-.7 5.32-3.98 9.61-6.34 8.26-8.26 6.34-9.61 3.98-5.32.7M3800 4834.21l-5.32-.7-9.61-3.98-8.26-6.34-6.34-8.26-3.98-9.61-.7-5.32H3800v34.21M3093.23 4820.5v-24.28h24.28l-.36 2.75-2.99 7.22-4.76 6.2-6.2 4.76-7.22 2.99-2.75.36M3083.23 4820.5l-2.75-.36-7.22-2.99-6.2-4.76-4.76-6.2-2.99-7.22-.37-2.75h24.29v24.28M3117.51 4786.22h-24.28v-24.28l2.75.36 7.22 2.99 6.2 4.76 4.76 6.2 2.99 7.22.36 2.75M3083.23 4786.22h-24.29l.37-2.75 2.99-7.22 4.76-6.2 6.2-4.76 7.22-2.99 2.75-.36v24.28M2888.23 4850.56l-11.58-1.14-11.13-3.38-10.26-5.48-8.99-7.38-7.38-8.99-5.49-10.26-3.37-11.13-1.14-11.58 1.14-11.58 3.37-11.13 5.49-10.26 7.38-8.99 8.99-7.38 10.26-5.48 11.13-3.38 11.58-1.14 11.58 1.14 11.13 3.38 10.26 5.48 8.99 7.38 7.38 8.99 5.48 10.26 3.38 11.13 1.14 11.58-1.14 11.58-3.38 11.13-5.48 10.26-7.38 8.99-8.99 7.38-10.26 5.48-11.13 3.38-11.58 1.14M2194.53 4655H2160v-34.53h34.53V4655M2150 4655h-34.53v-34.53H2150V4655M3138.9 4248.9h-137.8v-36.64l-5-2.47-6.17 4.74-9.61 3.98-5.32.7v-78.42l5.32.7 9.61 3.98 6.17 4.74 5-2.47v-36.64h137.8v137.8M2870 4249.23l-13.51-1.33-12.98-3.94-11.97-6.4-10.49-8.61-8.61-10.49-6.4-11.97-.27-.87-4.92-.9-2.66 3.47-8.26 6.34-9.61 3.98-5.32.7v-78.42l5.32.7 9.61 3.98 8.26 6.34 2.66 3.47 4.92-.9.27-.87 6.4-11.97 8.61-10.49 10.49-8.61 11.97-6.4 12.98-3.94 13.51-1.33 13.51 1.33 12.98 3.94 11.97 6.4 10.49 8.61 8.61 10.49 6.4 11.97.27.87 4.92.9 2.66-3.47 8.26-6.34 9.61-3.98 5.32-.7v78.42l-5.32-.7-9.61-3.98-8.26-6.34-2.66-3.47-4.92.9-.27.87-6.4 11.97-8.61 10.49-10.49 8.61-11.97 6.4-12.98 3.94-13.51 1.33M2765 4219.21l-5.32-.7-9.61-3.98-8.26-6.34-6.34-8.26-3.98-9.61-.7-5.32H2765v34.21M2180 4212.22V4180h32.22l-.63 4.8-3.78 9.14-6.02 7.85-7.85 6.02-9.14 3.78-4.8.63M2170 4212.22l-4.81-.63-9.13-3.78-7.85-6.02-6.02-7.85-3.78-9.14-.64-4.8H2170v32.22M2765 4175h-34.21l.7-5.32 3.98-9.61 6.34-8.26 8.26-6.34 9.61-3.98 5.32-.7V4175M2212.22 4170H2180v-32.23l4.8.64 9.14 3.78 7.85 6.02 6.02 7.85 3.78 9.13.63 4.81M2170 4170h-32.23l.64-4.81 3.78-9.13 6.02-7.85 7.85-6.02 9.13-3.78 4.81-.64V4170M3070 3949.23l-13.51-1.33-12.98-3.94-11.97-6.4-7.88-6.46-3.66-1.67-3.66 1.67-7.88 6.46-11.97 6.4-12.98 3.94-13.51 1.33-13.51-1.33-12.98-3.94-11.97-6.4-7.88-6.46-3.66-1.67-3.66 1.67-7.88 6.46-11.97 6.4-12.98 3.94-13.51 1.33-13.51-1.33-12.98-3.94-11.97-6.4-7.88-6.46-3.66-1.67-3.66 1.67-7.88 6.46-11.97 6.4-12.98 3.94-13.51 1.33-13.51-1.33-12.98-3.94-11.97-6.4-10.49-8.61-8.61-10.49-6.4-11.97-3.94-12.98-1.33-13.51 1.33-13.51 3.94-12.98 4.62-8.65V3835l1.14-11.58 3.38-11.13 5.48-10.26 7.38-8.99 523.06-523.06v-53.88h137.8v11.76l4.52 2.14 3.12-2.56 11.97-6.4 12.98-3.94 13.51-1.33 13.51 1.33 12.98 3.94 11.97 6.4 10.49 8.61 8.61 10.49 6.4 11.97 3.94 12.98 1.33 13.51-1.33 13.51-3.94 12.98-6.4 11.97-8.61 10.49-10.49 8.61-11.97 6.4-12.98 3.94-13.51 1.33-13.51-1.33-12.98-3.94-11.97-6.4-3.12-2.56-4.52 2.14v11.76h-53.88l-453.46 453.46.84 2.35 1.4 2.48 12.69 3.85 11.97 6.4 7.88 6.46 3.66 1.67 3.66-1.67 7.88-6.46 11.97-6.4 12.98-3.94 13.51-1.33 13.51 1.33 12.98 3.94 11.97 6.4 7.88 6.46 3.66 1.67 3.66-1.67 7.88-6.46 11.97-6.4 12.98-3.94 13.51-1.33 13.51 1.33 12.98 3.94 11.97 6.4 10.49 8.61 8.61 10.49 6.4 11.97 3.94 12.98 1.33 13.51-1.33 13.51-3.94 12.98-6.4 11.97-8.61 10.49-10.49 8.61-11.97 6.4-12.98 3.94-13.51 1.33M2175 3942.25l-13.12-1.29-12.62-3.83-11.62-6.21-10.2-8.37-8.36-10.19-6.21-11.62-3.83-12.62-1.29-13.12 1.29-13.12 3.83-12.62 6.21-11.62 8.36-10.19 10.2-8.37 11.62-6.21 12.62-3.83 13.12-1.29 13.12 1.29 12.62 3.83 11.62 6.21 10.19 8.37 8.37 10.19 6.21 11.62 3.83 12.62 1.29 13.12-1.29 13.12-3.83 12.62-6.21 11.62-8.37 10.19-10.19 8.37-11.62 6.21-12.62 3.83-13.12 1.29M3000 3169.21V3135h34.21l-.7 5.32-3.98 9.61-6.34 8.26-8.26 6.34-9.61 3.98-5.32.7"/></mask><path id="S15Aep21b_pad-12" d="M-29.53-29.53h59.06v59.06h-59.06z"/><circle id="S15Aep21b_pad-13" r="29.53"/><circle id="S15Aep21b_pad-14" r="19.685"/><path id="S15Aep21b_pad-15" d="M-29.53-29.53h59.06v59.06h-59.06z"/><circle id="S15Aep21b_pad-16" r="27.56"/><mask id="S15Aep21b_clear-1" stroke="#000"><path fill="#fff" d="M2096.85 3096.85h1774.81v1774.81H2096.85z"/><path d="M3810 4834.21V4800h34.21l-.7 5.32-3.98 9.61-6.34 8.26-8.26 6.34-9.61 3.98-5.32.7M3800 4834.21l-5.32-.7-9.61-3.98-8.26-6.34-6.34-8.26-3.98-9.61-.7-5.32H3800v34.21M3093.23 4820.5v-24.28h24.28l-.36 2.75-2.99 7.22-4.76 6.2-6.2 4.76-7.22 2.99-2.75.36M3083.23 4820.5l-2.75-.36-7.22-2.99-6.2-4.76-4.76-6.2-2.99-7.22-.37-2.75h24.29v24.28M3117.51 4786.22h-24.28v-24.28l2.75.36 7.22 2.99 6.2 4.76 4.76 6.2 2.99 7.22.36 2.75M3083.23 4786.22h-24.29l.37-2.75 2.99-7.22 4.76-6.2 6.2-4.76 7.22-2.99 2.75-.36v24.28M2888.23 4850.56l-11.58-1.14-11.13-3.38-10.26-5.48-8.99-7.38-7.38-8.99-5.49-10.26-3.37-11.13-1.14-11.58 1.14-11.58 3.37-11.13 5.49-10.26 7.38-8.99 8.99-7.38 10.26-5.48 11.13-3.38 11.58-1.14 11.58 1.14 11.13 3.38 10.26 5.48 8.99 7.38 7.38 8.99 5.48 10.26 3.38 11.13 1.14 11.58-1.14 11.58-3.38 11.13-5.48 10.26-7.38 8.99-8.99 7.38-10.26 5.48-11.13 3.38-11.58 1.14M2194.53 4655H2160v-34.53h34.53V4655M2150 4655h-34.53v-34.53H2150V4655M3138.9 4248.9h-137.8v-36.64l-5-2.47-6.17 4.74-9.61 3.98-5.32.7v-78.42l5.32.7 9.61 3.98 6.17 4.74 5-2.47v-36.64h137.8v137.8M2870 4249.23l-13.51-1.33-12.98-3.94-11.97-6.4-10.49-8.61-8.61-10.49-6.4-11.97-.27-.87-4.92-.9-2.66 3.47-8.26 6.34-9.61 3.98-5.32.7v-78.42l5.32.7 9.61 3.98 8.26 6.34 2.66 3.47 4.92-.9.27-.87 6.4-11.97 8.61-10.49 10.49-8.61 11.97-6.4 12.98-3.94 13.51-1.33 13.51 1.33 12.98 3.94 11.97 6.4 10.49 8.61 8.61 10.49 6.4 11.97.27.87 4.92.9 2.66-3.47 8.26-6.34 9.61-3.98 5.32-.7v78.42l-5.32-.7-9.61-3.98-8.26-6.34-2.66-3.47-4.92.9-.27.87-6.4 11.97-8.61 10.49-10.49 8.61-11.97 6.4-12.98 3.94-13.51 1.33M2765 4219.21l-5.32-.7-9.61-3.98-8.26-6.34-6.34-8.26-3.98-9.61-.7-5.32H2765v34.21M2180 4212.22V4180h32.22l-.63 4.8-3.78 9.14-6.02 7.85-7.85 6.02-9.14 3.78-4.8.63M2170 4212.22l-4.81-.63-9.13-3.78-7.85-6.02-6.02-7.85-3.78-9.14-.64-4.8H2170v32.22M2765 4175h-34.21l.7-5.32 3.98-9.61 6.34-8.26 8.26-6.34 9.61-3.98 5.32-.7V4175M2212.22 4170H2180v-32.23l4.8.64 9.14 3.78 7.85 6.02 6.02 7.85 3.78 9.13.63 4.81M2170 4170h-32.23l.64-4.81 3.78-9.13 6.02-7.85 7.85-6.02 9.13-3.78 4.81-.64V4170M3070 3949.23l-13.51-1.33-12.98-3.94-11.97-6.4-7.88-6.46-3.66-1.67-3.66 1.67-7.88 6.46-11.97 6.4-12.98 3.94-13.51 1.33-13.51-1.33-12.98-3.94-11.97-6.4-7.88-6.46-3.66-1.67-3.66 1.67-7.88 6.46-11.97 6.4-12.98 3.94-13.51 1.33-13.51-1.33-12.98-3.94-11.97-6.4-7.88-6.46-3.66-1.67-3.66 1.67-7.88 6.46-11.97 6.4-12.98 3.94-13.51 1.33-13.51-1.33-12.98-3.94-11.97-6.4-10.49-8.61-8.61-10.49-6.4-11.97-3.94-12.98-1.33-13.51 1.33-13.51 3.94-12.98 4.62-8.65V3835l1.14-11.58 3.38-11.13 5.48-10.26 7.38-8.99 523.06-523.06v-53.88h137.8v11.76l4.52 2.14 3.12-2.56 11.97-6.4 12.98-3.94 13.51-1.33 13.51 1.33 12.98 3.94 11.97 6.4 10.49 8.61 8.61 10.49 6.4 11.97 3.94 12.98 1.33 13.51-1.33 13.51-3.94 12.98-6.4 11.97-8.61 10.49-10.49 8.61-11.97 6.4-12.98 3.94-13.51 1.33-13.51-1.33-12.98-3.94-11.97-6.4-3.12-2.56-4.52 2.14v11.76h-53.88l-453.46 453.46.84 2.35 1.4 2.48 12.69 3.85 11.97 6.4 7.88 6.46 3.66 1.67 3.66-1.67 7.88-6.46 11.97-6.4 12.98-3.94 13.51-1.33 13.51 1.33 12.98 3.94 11.97 6.4 7.88 6.46 3.66 1.67 3.66-1.67 7.88-6.46 11.97-6.4 12.98-3.94 13.51-1.33 13.51 1.33 12.98 3.94 11.97 6.4 10.49 8.61 8.61 10.49 6.4 11.97 3.94 12.98 1.33 13.51-1.33 13.51-3.94 12.98-6.4 11.97-8.61 10.49-10.49 8.61-11.97 6.4-12.98 3.94-13.51 1.33M2175 3942.25l-13.12-1.29-12.62-3.83-11.62-6.21-10.2-8.37-8.36-10.19-6.21-11.62-3.83-12.62-1.29-13.12 1.29-13.12 3.83-12.62 6.21-11.62 8.36-10.19 10.2-8.37 11.62-6.21 12.62-3.83 13.12-1.29 13.12 1.29 12.62 3.83 11.62 6.21 10.19 8.37 8.37 10.19 6.21 11.62 3.83 12.62 1.29 13.12-1.29 13.12-3.83 12.62-6.21 11.62-8.37 10.19-10.19 8.37-11.62 6.21-12.62 3.83-13.12 1.29M3000 3169.21V3135h34.21l-.7 5.32-3.98 9.61-6.34 8.26-8.26 6.34-9.61 3.98-5.32.7"/></mask><path id="S15Aep21b_pad-12" d="M-29.53-29.53h59.06v59.06h-59.06z"/><circle id="S15Aep21b_pad-13" r="29.53"/><circle id="S15Aep21b_pad-14" r="19.685"/><path id="S15Aep21b_pad-15" d="M-29.53-29.53h59.06v59.06h-59.06z"/><circle id="S15Aep21b_pad-16" r="27.56"/><mask id="S15Aep21b_clear-1" stroke="#000"><path fill="#fff" d="M2096.85 3096.85h1774.81v1774.81H2096.85z"/><path d="M3810 4834.21V4800h34.21l-.7 5.32-3.98 9.61-6.34 8.26-8.26 6.34-9.61 3.98-5.32.7M3800 4834.21l-5.32-.7-9.61-3.98-8.26-6.34-6.34-8.26-3.98-9.61-.7-5.32H3800v34.21M3093.23 4820.5v-24.28h24.28l-.36 2.75-2.99 7.22-4.76 6.2-6.2 4.76-7.22 2.99-2.75.36M3083.23 4820.5l-2.75-.36-7.22-2.99-6.2-4.76-4.76-6.2-2.99-7.22-.37-2.75h24.29v24.28M3117.51 4786.22h-24.28v-24.28l2.75.36 7.22 2.99 6.2 4.76 4.76 6.2 2.99 7.22.36 2.75M3083.23 4786.22h-24.29l.37-2.75 2.99-7.22 4.76-6.2 6.2-4.76 7.22-2.99 2.75-.36v24.28M2888.23 4850.56l-11.58-1.14-11.13-3.38-10.26-5.48-8.99-7.38-7.38-8.99-5.49-10.26-3.37-11.13-1.14-11.58 1.14-11.58 3.37-11.13 5.49-10.26 7.38-8.99 8.99-7.38 10.26-5.48 11.13-3.38 11.58-1.14 11.58 1.14 11.13 3.38 10.26 5.48 8.99 7.38 7.38 8.99 5.48 10.26 3.38 11.13 1.14 11.58-1.14 11.58-3.38 11.13-5.48 10.26-7.38 8.99-8.99 7.38-10.26 5.48-11.13 3.38-11.58 1.14M2194.53 4655H2160v-34.53h34.53V4655M2150 4655h-34.53v-34.53H2150V4655M3138.9 4248.9h-137.8v-36.64l-5-2.47-6.17 4.74-9.61 3.98-5.32.7v-78.42l5.32.7 9.61 3.98 6.17 4.74 5-2.47v-36.64h137.8v137.8M2870 4249.23l-13.51-1.33-12.98-3.94-11.97-6.4-10.49-8.61-8.61-10.49-6.4-11.97-.27-.87-4.92-.9-2.66 3.47-8.26 6.34-9.61 3.98-5.32.7v-78.42l5.32.7 9.61 3.98 8.26 6.34 2.66 3.47 4.92-.9.27-.87 6.4-11.97 8.61-10.49 10.49-8.61 11.97-6.4 12.98-3.94 13.51-1.33 13.51 1.33 12.98 3.94 11.97 6.4 10.49 8.61 8.61 10.49 6.4 11.97.27.87 4.92.9 2.66-3.47 8.26-6.34 9.61-3.98 5.32-.7v78.42l-5.32-.7-9.61-3.98-8.26-6.34-2.66-3.47-4.92.9-.27.87-6.4 11.97-8.61 10.49-10.49 8.61-11.97 6.4-12.98 3.94-13.51 1.33M2765 4219.21l-5.32-.7-9.61-3.98-8.26-6.34-6.34-8.26-3.98-9.61-.7-5.32H2765v34.21M2180 4212.22V4180h32.22l-.63 4.8-3.78 9.14-6.02 7.85-7.85 6.02-9.14 3.78-4.8.63M2170 4212.22l-4.81-.63-9.13-3.78-7.85-6.02-6.02-7.85-3.78-9.14-.64-4.8H2170v32.22M2765 4175h-34.21l.7-5.32 3.98-9.61 6.34-8.26 8.26-6.34 9.61-3.98 5.32-.7V4175M2212.22 4170H2180v-32.23l4.8.64 9.14 3.78 7.85 6.02 6.02 7.85 3.78 9.13.63 4.81M2170 4170h-32.23l.64-4.81 3.78-9.13 6.02-7.85 7.85-6.02 9.13-3.78 4.81-.64V4170M3070 3949.23l-13.51-1.33-12.98-3.94-11.97-6.4-7.88-6.46-3.66-1.67-3.66 1.67-7.88 6.46-11.97 6.4-12.98 3.94-13.51 1.33-13.51-1.33-12.98-3.94-11.97-6.4-7.88-6.46-3.66-1.67-3.66 1.67-7.88 6.46-11.97 6.4-12.98 3.94-13.51 1.33-13.51-1.33-12.98-3.94-11.97-6.4-7.88-6.46-3.66-1.67-3.66 1.67-7.88 6.46-11.97 6.4-12.98 3.94-13.51 1.33-13.51-1.33-12.98-3.94-11.97-6.4-10.49-8.61-8.61-10.49-6.4-11.97-3.94-12.98-1.33-13.51 1.33-13.51 3.94-12.98 4.62-8.65V3835l1.14-11.58 3.38-11.13 5.48-10.26 7.38-8.99 523.06-523.06v-53.88h137.8v11.76l4.52 2.14 3.12-2.56 11.97-6.4 12.98-3.94 13.51-1.33 13.51 1.33 12.98 3.94 11.97 6.4 10.49 8.61 8.61 10.49 6.4 11.97 3.94 12.98 1.33 13.51-1.33 13.51-3.94 12.98-6.4 11.97-8.61 10.49-10.49 8.61-11.97 6.4-12.98 3.94-13.51 1.33-13.51-1.33-12.98-3.94-11.97-6.4-3.12-2.56-4.52 2.14v11.76h-53.88l-453.46 453.46.84 2.35 1.4 2.48 12.69 3.85 11.97 6.4 7.88 6.46 3.66 1.67 3.66-1.67 7.88-6.46 11.97-6.4 12.98-3.94 13.51-1.33 13.51 1.33 12.98 3.94 11.97 6.4 7.88 6.46 3.66 1.67 3.66-1.67 7.88-6.46 11.97-6.4 12.98-3.94 13.51-1.33 13.51 1.33 12.98 3.94 11.97 6.4 10.49 8.61 8.61 10.49 6.4 11.97 3.94 12.98 1.33 13.51-1.33 13.51-3.94 12.98-6.4 11.97-8.61 10.49-10.49 8.61-11.97 6.4-12.98 3.94-13.51 1.33M2175 3942.25l-13.12-1.29-12.62-3.83-11.62-6.21-10.2-8.37-8.36-10.19-6.21-11.62-3.83-12.62-1.29-13.12 1.29-13.12 3.83-12.62 6.21-11.62 8.36-10.19 10.2-8.37 11.62-6.21 12.62-3.83 13.12-1.29 13.12 1.29 12.62 3.83 11.62 6.21 10.19 8.37 8.37 10.19 6.21 11.62 3.83 12.62 1.29 13.12-1.29 13.12-3.83 12.62-6.21 11.62-8.37 10.19-10.19 8.37-11.62 6.21-12.62 3.83-13.12 1.29M3000 3169.21V3135h34.21l-.7 5.32-3.98 9.61-6.34 8.26-8.26 6.34-9.61 3.98-5.32.7"/></mask><path id="S15Aep21b_pad-12" d="M-29.53-29.53h59.06v59.06h-59.06z"/><circle id="S15Aep21b_pad-13" r="29.53"/><circle id="S15Aep21b_pad-14" r="19.685"/><path id="S15Aep21b_pad-15" d="M-29.53-29.53h59.06v59.06h-59.06z"/><circle id="S15Aep21b_pad-16" r="27.56"/><path id="BJ-qAgp21-_pad-23" d="M-33.53-33.53h67.06v67.06h-67.06z"/><circle id="BJ-qAgp21-_pad-24" r="33.53"/><circle id="BJ-qAgp21-_pad-25" r="23.685"/><path id="BJ-qAgp21-_pad-26" d="M-33.53-33.53h67.06v67.06h-67.06z"/><circle id="BJ-qAgp21-_pad-27" r="31.56"/><mask id="S15Aep21b_clear-1" stroke="#000"><path fill="#fff" d="M2096.85 3096.85h1774.81v1774.81H2096.85z"/><path d="M3810 4834.21V4800h34.21l-.7 5.32-3.98 9.61-6.34 8.26-8.26 6.34-9.61 3.98-5.32.7M3800 4834.21l-5.32-.7-9.61-3.98-8.26-6.34-6.34-8.26-3.98-9.61-.7-5.32H3800v34.21M3093.23 4820.5v-24.28h24.28l-.36 2.75-2.99 7.22-4.76 6.2-6.2 4.76-7.22 2.99-2.75.36M3083.23 4820.5l-2.75-.36-7.22-2.99-6.2-4.76-4.76-6.2-2.99-7.22-.37-2.75h24.29v24.28M3117.51 4786.22h-24.28v-24.28l2.75.36 7.22 2.99 6.2 4.76 4.76 6.2 2.99 7.22.36 2.75M3083.23 4786.22h-24.29l.37-2.75 2.99-7.22 4.76-6.2 6.2-4.76 7.22-2.99 2.75-.36v24.28M2888.23 4850.56l-11.58-1.14-11.13-3.38-10.26-5.48-8.99-7.38-7.38-8.99-5.49-10.26-3.37-11.13-1.14-11.58 1.14-11.58 3.37-11.13 5.49-10.26 7.38-8.99 8.99-7.38 10.26-5.48 11.13-3.38 11.58-1.14 11.58 1.14 11.13 3.38 10.26 5.48 8.99 7.38 7.38 8.99 5.48 10.26 3.38 11.13 1.14 11.58-1.14 11.58-3.38 11.13-5.48 10.26-7.38 8.99-8.99 7.38-10.26 5.48-11.13 3.38-11.58 1.14M2194.53 4655H2160v-34.53h34.53V4655M2150 4655h-34.53v-34.53H2150V4655M3138.9 4248.9h-137.8v-36.64l-5-2.47-6.17 4.74-9.61 3.98-5.32.7v-78.42l5.32.7 9.61 3.98 6.17 4.74 5-2.47v-36.64h137.8v137.8M2870 4249.23l-13.51-1.33-12.98-3.94-11.97-6.4-10.49-8.61-8.61-10.49-6.4-11.97-.27-.87-4.92-.9-2.66 3.47-8.26 6.34-9.61 3.98-5.32.7v-78.42l5.32.7 9.61 3.98 8.26 6.34 2.66 3.47 4.92-.9.27-.87 6.4-11.97 8.61-10.49 10.49-8.61 11.97-6.4 12.98-3.94 13.51-1.33 13.51 1.33 12.98 3.94 11.97 6.4 10.49 8.61 8.61 10.49 6.4 11.97.27.87 4.92.9 2.66-3.47 8.26-6.34 9.61-3.98 5.32-.7v78.42l-5.32-.7-9.61-3.98-8.26-6.34-2.66-3.47-4.92.9-.27.87-6.4 11.97-8.61 10.49-10.49 8.61-11.97 6.4-12.98 3.94-13.51 1.33M2765 4219.21l-5.32-.7-9.61-3.98-8.26-6.34-6.34-8.26-3.98-9.61-.7-5.32H2765v34.21M2180 4212.22V4180h32.22l-.63 4.8-3.78 9.14-6.02 7.85-7.85 6.02-9.14 3.78-4.8.63M2170 4212.22l-4.81-.63-9.13-3.78-7.85-6.02-6.02-7.85-3.78-9.14-.64-4.8H2170v32.22M2765 4175h-34.21l.7-5.32 3.98-9.61 6.34-8.26 8.26-6.34 9.61-3.98 5.32-.7V4175M2212.22 4170H2180v-32.23l4.8.64 9.14 3.78 7.85 6.02 6.02 7.85 3.78 9.13.63 4.81M2170 4170h-32.23l.64-4.81 3.78-9.13 6.02-7.85 7.85-6.02 9.13-3.78 4.81-.64V4170M3070 3949.23l-13.51-1.33-12.98-3.94-11.97-6.4-7.88-6.46-3.66-1.67-3.66 1.67-7.88 6.46-11.97 6.4-12.98 3.94-13.51 1.33-13.51-1.33-12.98-3.94-11.97-6.4-7.88-6.46-3.66-1.67-3.66 1.67-7.88 6.46-11.97 6.4-12.98 3.94-13.51 1.33-13.51-1.33-12.98-3.94-11.97-6.4-7.88-6.46-3.66-1.67-3.66 1.67-7.88 6.46-11.97 6.4-12.98 3.94-13.51 1.33-13.51-1.33-12.98-3.94-11.97-6.4-10.49-8.61-8.61-10.49-6.4-11.97-3.94-12.98-1.33-13.51 1.33-13.51 3.94-12.98 4.62-8.65V3835l1.14-11.58 3.38-11.13 5.48-10.26 7.38-8.99 523.06-523.06v-53.88h137.8v11.76l4.52 2.14 3.12-2.56 11.97-6.4 12.98-3.94 13.51-1.33 13.51 1.33 12.98 3.94 11.97 6.4 10.49 8.61 8.61 10.49 6.4 11.97 3.94 12.98 1.33 13.51-1.33 13.51-3.94 12.98-6.4 11.97-8.61 10.49-10.49 8.61-11.97 6.4-12.98 3.94-13.51 1.33-13.51-1.33-12.98-3.94-11.97-6.4-3.12-2.56-4.52 2.14v11.76h-53.88l-453.46 453.46.84 2.35 1.4 2.48 12.69 3.85 11.97 6.4 7.88 6.46 3.66 1.67 3.66-1.67 7.88-6.46 11.97-6.4 12.98-3.94 13.51-1.33 13.51 1.33 12.98 3.94 11.97 6.4 7.88 6.46 3.66 1.67 3.66-1.67 7.88-6.46 11.97-6.4 12.98-3.94 13.51-1.33 13.51 1.33 12.98 3.94 11.97 6.4 10.49 8.61 8.61 10.49 6.4 11.97 3.94 12.98 1.33 13.51-1.33 13.51-3.94 12.98-6.4 11.97-8.61 10.49-10.49 8.61-11.97 6.4-12.98 3.94-13.51 1.33M2175 3942.25l-13.12-1.29-12.62-3.83-11.62-6.21-10.2-8.37-8.36-10.19-6.21-11.62-3.83-12.62-1.29-13.12 1.29-13.12 3.83-12.62 6.21-11.62 8.36-10.19 10.2-8.37 11.62-6.21 12.62-3.83 13.12-1.29 13.12 1.29 12.62 3.83 11.62 6.21 10.19 8.37 8.37 10.19 6.21 11.62 3.83 12.62 1.29 13.12-1.29 13.12-3.83 12.62-6.21 11.62-8.37 10.19-10.19 8.37-11.62 6.21-12.62 3.83-13.12 1.29M3000 3169.21V3135h34.21l-.7 5.32-3.98 9.61-6.34 8.26-8.26 6.34-9.61 3.98-5.32.7"/></mask><path id="S15Aep21b_pad-12" d="M-29.53-29.53h59.06v59.06h-59.06z"/><circle id="S15Aep21b_pad-13" r="29.53"/><circle id="S15Aep21b_pad-14" r="19.685"/><path id="S15Aep21b_pad-15" d="M-29.53-29.53h59.06v59.06h-59.06z"/><circle id="S15Aep21b_pad-16" r="27.56"/><mask id="S15Aep21b_clear-1" stroke="#000"><path fill="#fff" d="M2096.85 3096.85h1774.81v1774.81H2096.85z"/><path d="M3810 4834.21V4800h34.21l-.7 5.32-3.98 9.61-6.34 8.26-8.26 6.34-9.61 3.98-5.32.7M3800 4834.21l-5.32-.7-9.61-3.98-8.26-6.34-6.34-8.26-3.98-9.61-.7-5.32H3800v34.21M3093.23 4820.5v-24.28h24.28l-.36 2.75-2.99 7.22-4.76 6.2-6.2 4.76-7.22 2.99-2.75.36M3083.23 4820.5l-2.75-.36-7.22-2.99-6.2-4.76-4.76-6.2-2.99-7.22-.37-2.75h24.29v24.28M3117.51 4786.22h-24.28v-24.28l2.75.36 7.22 2.99 6.2 4.76 4.76 6.2 2.99 7.22.36 2.75M3083.23 4786.22h-24.29l.37-2.75 2.99-7.22 4.76-6.2 6.2-4.76 7.22-2.99 2.75-.36v24.28M2888.23 4850.56l-11.58-1.14-11.13-3.38-10.26-5.48-8.99-7.38-7.38-8.99-5.49-10.26-3.37-11.13-1.14-11.58 1.14-11.58 3.37-11.13 5.49-10.26 7.38-8.99 8.99-7.38 10.26-5.48 11.13-3.38 11.58-1.14 11.58 1.14 11.13 3.38 10.26 5.48 8.99 7.38 7.38 8.99 5.48 10.26 3.38 11.13 1.14 11.58-1.14 11.58-3.38 11.13-5.48 10.26-7.38 8.99-8.99 7.38-10.26 5.48-11.13 3.38-11.58 1.14M2194.53 4655H2160v-34.53h34.53V4655M2150 4655h-34.53v-34.53H2150V4655M3138.9 4248.9h-137.8v-36.64l-5-2.47-6.17 4.74-9.61 3.98-5.32.7v-78.42l5.32.7 9.61 3.98 6.17 4.74 5-2.47v-36.64h137.8v137.8M2870 4249.23l-13.51-1.33-12.98-3.94-11.97-6.4-10.49-8.61-8.61-10.49-6.4-11.97-.27-.87-4.92-.9-2.66 3.47-8.26 6.34-9.61 3.98-5.32.7v-78.42l5.32.7 9.61 3.98 8.26 6.34 2.66 3.47 4.92-.9.27-.87 6.4-11.97 8.61-10.49 10.49-8.61 11.97-6.4 12.98-3.94 13.51-1.33 13.51 1.33 12.98 3.94 11.97 6.4 10.49 8.61 8.61 10.49 6.4 11.97.27.87 4.92.9 2.66-3.47 8.26-6.34 9.61-3.98 5.32-.7v78.42l-5.32-.7-9.61-3.98-8.26-6.34-2.66-3.47-4.92.9-.27.87-6.4 11.97-8.61 10.49-10.49 8.61-11.97 6.4-12.98 3.94-13.51 1.33M2765 4219.21l-5.32-.7-9.61-3.98-8.26-6.34-6.34-8.26-3.98-9.61-.7-5.32H2765v34.21M2180 4212.22V4180h32.22l-.63 4.8-3.78 9.14-6.02 7.85-7.85 6.02-9.14 3.78-4.8.63M2170 4212.22l-4.81-.63-9.13-3.78-7.85-6.02-6.02-7.85-3.78-9.14-.64-4.8H2170v32.22M2765 4175h-34.21l.7-5.32 3.98-9.61 6.34-8.26 8.26-6.34 9.61-3.98 5.32-.7V4175M2212.22 4170H2180v-32.23l4.8.64 9.14 3.78 7.85 6.02 6.02 7.85 3.78 9.13.63 4.81M2170 4170h-32.23l.64-4.81 3.78-9.13 6.02-7.85 7.85-6.02 9.13-3.78 4.81-.64V4170M3070 3949.23l-13.51-1.33-12.98-3.94-11.97-6.4-7.88-6.46-3.66-1.67-3.66 1.67-7.88 6.46-11.97 6.4-12.98 3.94-13.51 1.33-13.51-1.33-12.98-3.94-11.97-6.4-7.88-6.46-3.66-1.67-3.66 1.67-7.88 6.46-11.97 6.4-12.98 3.94-13.51 1.33-13.51-1.33-12.98-3.94-11.97-6.4-7.88-6.46-3.66-1.67-3.66 1.67-7.88 6.46-11.97 6.4-12.98 3.94-13.51 1.33-13.51-1.33-12.98-3.94-11.97-6.4-10.49-8.61-8.61-10.49-6.4-11.97-3.94-12.98-1.33-13.51 1.33-13.51 3.94-12.98 4.62-8.65V3835l1.14-11.58 3.38-11.13 5.48-10.26 7.38-8.99 523.06-523.06v-53.88h137.8v11.76l4.52 2.14 3.12-2.56 11.97-6.4 12.98-3.94 13.51-1.33 13.51 1.33 12.98 3.94 11.97 6.4 10.49 8.61 8.61 10.49 6.4 11.97 3.94 12.98 1.33 13.51-1.33 13.51-3.94 12.98-6.4 11.97-8.61 10.49-10.49 8.61-11.97 6.4-12.98 3.94-13.51 1.33-13.51-1.33-12.98-3.94-11.97-6.4-3.12-2.56-4.52 2.14v11.76h-53.88l-453.46 453.46.84 2.35 1.4 2.48 12.69 3.85 11.97 6.4 7.88 6.46 3.66 1.67 3.66-1.67 7.88-6.46 11.97-6.4 12.98-3.94 13.51-1.33 13.51 1.33 12.98 3.94 11.97 6.4 7.88 6.46 3.66 1.67 3.66-1.67 7.88-6.46 11.97-6.4 12.98-3.94 13.51-1.33 13.51 1.33 12.98 3.94 11.97 6.4 10.49 8.61 8.61 10.49 6.4 11.97 3.94 12.98 1.33 13.51-1.33 13.51-3.94 12.98-6.4 11.97-8.61 10.49-10.49 8.61-11.97 6.4-12.98 3.94-13.51 1.33M2175 3942.25l-13.12-1.29-12.62-3.83-11.62-6.21-10.2-8.37-8.36-10.19-6.21-11.62-3.83-12.62-1.29-13.12 1.29-13.12 3.83-12.62 6.21-11.62 8.36-10.19 10.2-8.37 11.62-6.21 12.62-3.83 13.12-1.29 13.12 1.29 12.62 3.83 11.62 6.21 10.19 8.37 8.37 10.19 6.21 11.62 3.83 12.62 1.29 13.12-1.29 13.12-3.83 12.62-6.21 11.62-8.37 10.19-10.19 8.37-11.62 6.21-12.62 3.83-13.12 1.29M3000 3169.21V3135h34.21l-.7 5.32-3.98 9.61-6.34 8.26-8.26 6.34-9.61 3.98-5.32.7"/></mask><path id="S15Aep21b_pad-12" d="M-29.53-29.53h59.06v59.06h-59.06z"/><circle id="S15Aep21b_pad-13" r="29.53"/><circle id="S15Aep21b_pad-14" r="19.685"/><path id="S15Aep21b_pad-15" d="M-29.53-29.53h59.06v59.06h-59.06z"/><circle id="S15Aep21b_pad-16" r="27.56"/><mask id="S15Aep21b_clear-1" stroke="#000"><path fill="#fff" d="M2096.85 3096.85h1774.81v1774.81H2096.85z"/><path d="M3810 4834.21V4800h34.21l-.7 5.32-3.98 9.61-6.34 8.26-8.26 6.34-9.61 3.98-5.32.7M3800 4834.21l-5.32-.7-9.61-3.98-8.26-6.34-6.34-8.26-3.98-9.61-.7-5.32H3800v34.21M3093.23 4820.5v-24.28h24.28l-.36 2.75-2.99 7.22-4.76 6.2-6.2 4.76-7.22 2.99-2.75.36M3083.23 4820.5l-2.75-.36-7.22-2.99-6.2-4.76-4.76-6.2-2.99-7.22-.37-2.75h24.29v24.28M3117.51 4786.22h-24.28v-24.28l2.75.36 7.22 2.99 6.2 4.76 4.76 6.2 2.99 7.22.36 2.75M3083.23 4786.22h-24.29l.37-2.75 2.99-7.22 4.76-6.2 6.2-4.76 7.22-2.99 2.75-.36v24.28M2888.23 4850.56l-11.58-1.14-11.13-3.38-10.26-5.48-8.99-7.38-7.38-8.99-5.49-10.26-3.37-11.13-1.14-11.58 1.14-11.58 3.37-11.13 5.49-10.26 7.38-8.99 8.99-7.38 10.26-5.48 11.13-3.38 11.58-1.14 11.58 1.14 11.13 3.38 10.26 5.48 8.99 7.38 7.38 8.99 5.48 10.26 3.38 11.13 1.14 11.58-1.14 11.58-3.38 11.13-5.48 10.26-7.38 8.99-8.99 7.38-10.26 5.48-11.13 3.38-11.58 1.14M2194.53 4655H2160v-34.53h34.53V4655M2150 4655h-34.53v-34.53H2150V4655M3138.9 4248.9h-137.8v-36.64l-5-2.47-6.17 4.74-9.61 3.98-5.32.7v-78.42l5.32.7 9.61 3.98 6.17 4.74 5-2.47v-36.64h137.8v137.8M2870 4249.23l-13.51-1.33-12.98-3.94-11.97-6.4-10.49-8.61-8.61-10.49-6.4-11.97-.27-.87-4.92-.9-2.66 3.47-8.26 6.34-9.61 3.98-5.32.7v-78.42l5.32.7 9.61 3.98 8.26 6.34 2.66 3.47 4.92-.9.27-.87 6.4-11.97 8.61-10.49 10.49-8.61 11.97-6.4 12.98-3.94 13.51-1.33 13.51 1.33 12.98 3.94 11.97 6.4 10.49 8.61 8.61 10.49 6.4 11.97.27.87 4.92.9 2.66-3.47 8.26-6.34 9.61-3.98 5.32-.7v78.42l-5.32-.7-9.61-3.98-8.26-6.34-2.66-3.47-4.92.9-.27.87-6.4 11.97-8.61 10.49-10.49 8.61-11.97 6.4-12.98 3.94-13.51 1.33M2765 4219.21l-5.32-.7-9.61-3.98-8.26-6.34-6.34-8.26-3.98-9.61-.7-5.32H2765v34.21M2180 4212.22V4180h32.22l-.63 4.8-3.78 9.14-6.02 7.85-7.85 6.02-9.14 3.78-4.8.63M2170 4212.22l-4.81-.63-9.13-3.78-7.85-6.02-6.02-7.85-3.78-9.14-.64-4.8H2170v32.22M2765 4175h-34.21l.7-5.32 3.98-9.61 6.34-8.26 8.26-6.34 9.61-3.98 5.32-.7V4175M2212.22 4170H2180v-32.23l4.8.64 9.14 3.78 7.85 6.02 6.02 7.85 3.78 9.13.63 4.81M2170 4170h-32.23l.64-4.81 3.78-9.13 6.02-7.85 7.85-6.02 9.13-3.78 4.81-.64V4170M3070 3949.23l-13.51-1.33-12.98-3.94-11.97-6.4-7.88-6.46-3.66-1.67-3.66 1.67-7.88 6.46-11.97 6.4-12.98 3.94-13.51 1.33-13.51-1.33-12.98-3.94-11.97-6.4-7.88-6.46-3.66-1.67-3.66 1.67-7.88 6.46-11.97 6.4-12.98 3.94-13.51 1.33-13.51-1.33-12.98-3.94-11.97-6.4-7.88-6.46-3.66-1.67-3.66 1.67-7.88 6.46-11.97 6.4-12.98 3.94-13.51 1.33-13.51-1.33-12.98-3.94-11.97-6.4-10.49-8.61-8.61-10.49-6.4-11.97-3.94-12.98-1.33-13.51 1.33-13.51 3.94-12.98 4.62-8.65V3835l1.14-11.58 3.38-11.13 5.48-10.26 7.38-8.99 523.06-523.06v-53.88h137.8v11.76l4.52 2.14 3.12-2.56 11.97-6.4 12.98-3.94 13.51-1.33 13.51 1.33 12.98 3.94 11.97 6.4 10.49 8.61 8.61 10.49 6.4 11.97 3.94 12.98 1.33 13.51-1.33 13.51-3.94 12.98-6.4 11.97-8.61 10.49-10.49 8.61-11.97 6.4-12.98 3.94-13.51 1.33-13.51-1.33-12.98-3.94-11.97-6.4-3.12-2.56-4.52 2.14v11.76h-53.88l-453.46 453.46.84 2.35 1.4 2.48 12.69 3.85 11.97 6.4 7.88 6.46 3.66 1.67 3.66-1.67 7.88-6.46 11.97-6.4 12.98-3.94 13.51-1.33 13.51 1.33 12.98 3.94 11.97 6.4 7.88 6.46 3.66 1.67 3.66-1.67 7.88-6.46 11.97-6.4 12.98-3.94 13.51-1.33 13.51 1.33 12.98 3.94 11.97 6.4 10.49 8.61 8.61 10.49 6.4 11.97 3.94 12.98 1.33 13.51-1.33 13.51-3.94 12.98-6.4 11.97-8.61 10.49-10.49 8.61-11.97 6.4-12.98 3.94-13.51 1.33M2175 3942.25l-13.12-1.29-12.62-3.83-11.62-6.21-10.2-8.37-8.36-10.19-6.21-11.62-3.83-12.62-1.29-13.12 1.29-13.12 3.83-12.62 6.21-11.62 8.36-10.19 10.2-8.37 11.62-6.21 12.62-3.83 13.12-1.29 13.12 1.29 12.62 3.83 11.62 6.21 10.19 8.37 8.37 10.19 6.21 11.62 3.83 12.62 1.29 13.12-1.29 13.12-3.83 12.62-6.21 11.62-8.37 10.19-10.19 8.37-11.62 6.21-12.62 3.83-13.12 1.29M3000 3169.21V3135h34.21l-.7 5.32-3.98 9.61-6.34 8.26-8.26 6.34-9.61 3.98-5.32.7"/></mask><path id="S15Aep21b_pad-12" d="M-29.53-29.53h59.06v59.06h-59.06z"/><circle id="S15Aep21b_pad-13" r="29.53"/><circle id="S15Aep21b_pad-14" r="19.685"/><path id="S15Aep21b_pad-15" d="M-29.53-29.53h59.06v59.06h-59.06z"/><circle id="S15Aep21b_pad-16" r="27.56"/><mask id="S15Aep21b_clear-1" stroke="#000"><path fill="#fff" d="M2096.85 3096.85h1774.81v1774.81H2096.85z"/><path d="M3810 4834.21V4800h34.21l-.7 5.32-3.98 9.61-6.34 8.26-8.26 6.34-9.61 3.98-5.32.7M3800 4834.21l-5.32-.7-9.61-3.98-8.26-6.34-6.34-8.26-3.98-9.61-.7-5.32H3800v34.21M3093.23 4820.5v-24.28h24.28l-.36 2.75-2.99 7.22-4.76 6.2-6.2 4.76-7.22 2.99-2.75.36M3083.23 4820.5l-2.75-.36-7.22-2.99-6.2-4.76-4.76-6.2-2.99-7.22-.37-2.75h24.29v24.28M3117.51 4786.22h-24.28v-24.28l2.75.36 7.22 2.99 6.2 4.76 4.76 6.2 2.99 7.22.36 2.75M3083.23 4786.22h-24.29l.37-2.75 2.99-7.22 4.76-6.2 6.2-4.76 7.22-2.99 2.75-.36v24.28M2888.23 4850.56l-11.58-1.14-11.13-3.38-10.26-5.48-8.99-7.38-7.38-8.99-5.49-10.26-3.37-11.13-1.14-11.58 1.14-11.58 3.37-11.13 5.49-10.26 7.38-8.99 8.99-7.38 10.26-5.48 11.13-3.38 11.58-1.14 11.58 1.14 11.13 3.38 10.26 5.48 8.99 7.38 7.38 8.99 5.48 10.26 3.38 11.13 1.14 11.58-1.14 11.58-3.38 11.13-5.48 10.26-7.38 8.99-8.99 7.38-10.26 5.48-11.13 3.38-11.58 1.14M2194.53 4655H2160v-34.53h34.53V4655M2150 4655h-34.53v-34.53H2150V4655M3138.9 4248.9h-137.8v-36.64l-5-2.47-6.17 4.74-9.61 3.98-5.32.7v-78.42l5.32.7 9.61 3.98 6.17 4.74 5-2.47v-36.64h137.8v137.8M2870 4249.23l-13.51-1.33-12.98-3.94-11.97-6.4-10.49-8.61-8.61-10.49-6.4-11.97-.27-.87-4.92-.9-2.66 3.47-8.26 6.34-9.61 3.98-5.32.7v-78.42l5.32.7 9.61 3.98 8.26 6.34 2.66 3.47 4.92-.9.27-.87 6.4-11.97 8.61-10.49 10.49-8.61 11.97-6.4 12.98-3.94 13.51-1.33 13.51 1.33 12.98 3.94 11.97 6.4 10.49 8.61 8.61 10.49 6.4 11.97.27.87 4.92.9 2.66-3.47 8.26-6.34 9.61-3.98 5.32-.7v78.42l-5.32-.7-9.61-3.98-8.26-6.34-2.66-3.47-4.92.9-.27.87-6.4 11.97-8.61 10.49-10.49 8.61-11.97 6.4-12.98 3.94-13.51 1.33M2765 4219.21l-5.32-.7-9.61-3.98-8.26-6.34-6.34-8.26-3.98-9.61-.7-5.32H2765v34.21M2180 4212.22V4180h32.22l-.63 4.8-3.78 9.14-6.02 7.85-7.85 6.02-9.14 3.78-4.8.63M2170 4212.22l-4.81-.63-9.13-3.78-7.85-6.02-6.02-7.85-3.78-9.14-.64-4.8H2170v32.22M2765 4175h-34.21l.7-5.32 3.98-9.61 6.34-8.26 8.26-6.34 9.61-3.98 5.32-.7V4175M2212.22 4170H2180v-32.23l4.8.64 9.14 3.78 7.85 6.02 6.02 7.85 3.78 9.13.63 4.81M2170 4170h-32.23l.64-4.81 3.78-9.13 6.02-7.85 7.85-6.02 9.13-3.78 4.81-.64V4170M3070 3949.23l-13.51-1.33-12.98-3.94-11.97-6.4-7.88-6.46-3.66-1.67-3.66 1.67-7.88 6.46-11.97 6.4-12.98 3.94-13.51 1.33-13.51-1.33-12.98-3.94-11.97-6.4-7.88-6.46-3.66-1.67-3.66 1.67-7.88 6.46-11.97 6.4-12.98 3.94-13.51 1.33-13.51-1.33-12.98-3.94-11.97-6.4-7.88-6.46-3.66-1.67-3.66 1.67-7.88 6.46-11.97 6.4-12.98 3.94-13.51 1.33-13.51-1.33-12.98-3.94-11.97-6.4-10.49-8.61-8.61-10.49-6.4-11.97-3.94-12.98-1.33-13.51 1.33-13.51 3.94-12.98 4.62-8.65V3835l1.14-11.58 3.38-11.13 5.48-10.26 7.38-8.99 523.06-523.06v-53.88h137.8v11.76l4.52 2.14 3.12-2.56 11.97-6.4 12.98-3.94 13.51-1.33 13.51 1.33 12.98 3.94 11.97 6.4 10.49 8.61 8.61 10.49 6.4 11.97 3.94 12.98 1.33 13.51-1.33 13.51-3.94 12.98-6.4 11.97-8.61 10.49-10.49 8.61-11.97 6.4-12.98 3.94-13.51 1.33-13.51-1.33-12.98-3.94-11.97-6.4-3.12-2.56-4.52 2.14v11.76h-53.88l-453.46 453.46.84 2.35 1.4 2.48 12.69 3.85 11.97 6.4 7.88 6.46 3.66 1.67 3.66-1.67 7.88-6.46 11.97-6.4 12.98-3.94 13.51-1.33 13.51 1.33 12.98 3.94 11.97 6.4 7.88 6.46 3.66 1.67 3.66-1.67 7.88-6.46 11.97-6.4 12.98-3.94 13.51-1.33 13.51 1.33 12.98 3.94 11.97 6.4 10.49 8.61 8.61 10.49 6.4 11.97 3.94 12.98 1.33 13.51-1.33 13.51-3.94 12.98-6.4 11.97-8.61 10.49-10.49 8.61-11.97 6.4-12.98 3.94-13.51 1.33M2175 3942.25l-13.12-1.29-12.62-3.83-11.62-6.21-10.2-8.37-8.36-10.19-6.21-11.62-3.83-12.62-1.29-13.12 1.29-13.12 3.83-12.62 6.21-11.62 8.36-10.19 10.2-8.37 11.62-6.21 12.62-3.83 13.12-1.29 13.12 1.29 12.62 3.83 11.62 6.21 10.19 8.37 8.37 10.19 6.21 11.62 3.83 12.62 1.29 13.12-1.29 13.12-3.83 12.62-6.21 11.62-8.37 10.19-10.19 8.37-11.62 6.21-12.62 3.83-13.12 1.29M3000 3169.21V3135h34.21l-.7 5.32-3.98 9.61-6.34 8.26-8.26 6.34-9.61 3.98-5.32.7"/></mask><path id="S15Aep21b_pad-12" d="M-29.53-29.53h59.06v59.06h-59.06z"/><circle id="S15Aep21b_pad-13" r="29.53"/><circle id="S15Aep21b_pad-14" r="19.685"/><path id="S15Aep21b_pad-15" d="M-29.53-29.53h59.06v59.06h-59.06z"/><circle id="S15Aep21b_pad-16" r="27.56"/><path id="BJ-qAgp21-_pad-23" d="M-33.53-33.53h67.06v67.06h-67.06z"/><circle id="BJ-qAgp21-_pad-24" r="33.53"/><circle id="BJ-qAgp21-_pad-25" r="23.685"/><path id="BJ-qAgp21-_pad-26" d="M-33.53-33.53h67.06v67.06h-67.06z"/><circle id="BJ-qAgp21-_pad-27" r="31.56"/><circle id="ByI5Axph1b_pad-1" r="9.84"/><circle id="ByI5Axph1b_pad-2" r="13.78"/><circle id="ByI5Axph1b_pad-3" r="16.73"/><circle id="ByI5Axph1b_pad-4" r="17.715"/><g id="pcb-stackup_bottom_cu"><g mask="url(#S15Aep21b_clear-1)"><path d="M3871.66 4763.9h-34.4l-2.47 5 4.74 6.17 3.98 9.61.7 5.32h-78.42l.7-5.32 3.98-9.61 4.74-6.17-2.47-5h-36.64v-137.8h135.56V3096.85H3024.5l-1.6 4.73.29.23 6.34 8.26 3.98 9.61.7 5.32H2995v5h-5v39.21l-5.32-.7-9.61-3.98-6.17-4.74-5 2.47v36.64h-137.8v-102.05h-729.25v1617.52l5 1.79 4.2-5.11 8.18-6.72 1.24-4.8V4665h79.06v34.53l1.15 4.73 8.27 6.79 8.61 10.49 5.53 10.34h470.14l11.58 1.14 11.13 3.38 10.26 5.48 8.99 7.38 7.38 8.99 5.48 10.26 3.38 11.13 1.14 11.58-1.14 11.58-3.38 11.13-5.48 10.26-7.38 8.99-8.99 7.38-10.26 5.48-11.13 3.38-11.58 1.14h-502.01l-11.58-1.14-11.13-3.38-10.26-5.48-8.99-7.38-6.37-6.37-9.38-2.85-11.97-6.4-10.49-8.61-4.2-5.11-5 1.79v66.03h1774.81V4763.9"/></g><path fill="none" stroke-width="39.37" d="M3450.78 4795H3805m-358-3.78l3.78 3.78m-362.55-3.78H3447M2478 4180h292m-595-5l303 5m-291.78 611.22h502.01M2155 4760l31.22 31.22M2770 3835v45m0-45l550-550m-550 895v59l30 30h126l44-44m0-45v45"/><use x="2155" y="4660" xlink:href="#S15Aep21b_pad-12"/><use x="3805" y="4695" xlink:href="#S15Aep21b_pad-12"/><use x="3070" y="4180" xlink:href="#S15Aep21b_pad-12"/><use x="2155" y="4760" xlink:href="#S15Aep21b_pad-13"/><use x="3805" y="4795" xlink:href="#S15Aep21b_pad-13"/><use x="3435" y="3285" xlink:href="#S15Aep21b_pad-13"/><use x="2770" y="3880" xlink:href="#S15Aep21b_pad-13"/><use x="2870" y="3880" xlink:href="#S15Aep21b_pad-13"/><use x="2970" y="3880" xlink:href="#S15Aep21b_pad-13"/><use x="3070" y="3880" xlink:href="#S15Aep21b_pad-13"/><use x="2770" y="4180" xlink:href="#S15Aep21b_pad-13"/><use x="2870" y="4180" xlink:href="#S15Aep21b_pad-13"/><use x="2970" y="4180" xlink:href="#S15Aep21b_pad-13"/><use x="2995" y="3130" xlink:href="#S15Aep21b_pad-13"/><use x="2688.23" y="4791.22" xlink:href="#S15Aep21b_pad-14"/><use x="2888.23" y="4791.22" xlink:href="#S15Aep21b_pad-14"/><use x="3088.23" y="4791.22" xlink:href="#S15Aep21b_pad-14"/><use x="3320" y="3285" xlink:href="#S15Aep21b_pad-15"/><use x="2895" y="3130" xlink:href="#S15Aep21b_pad-15"/><use x="2175" y="3875" xlink:href="#S15Aep21b_pad-16"/><use x="2175" y="4175" xlink:href="#S15Aep21b_pad-16"/></g><g id="pcb-stackup_bottom_sm"><use x="2155" y="4660" xlink:href="#BJ-qAgp21-_pad-23"/><use x="3805" y="4695" xlink:href="#BJ-qAgp21-_pad-23"/><use x="3070" y="4180" xlink:href="#BJ-qAgp21-_pad-23"/><use x="2155" y="4760" xlink:href="#BJ-qAgp21-_pad-24"/><use x="3805" y="4795" xlink:href="#BJ-qAgp21-_pad-24"/><use x="3435" y="3285" xlink:href="#BJ-qAgp21-_pad-24"/><use x="2770" y="3880" xlink:href="#BJ-qAgp21-_pad-24"/><use x="2870" y="3880" xlink:href="#BJ-qAgp21-_pad-24"/><use x="2970" y="3880" xlink:href="#BJ-qAgp21-_pad-24"/><use x="3070" y="3880" xlink:href="#BJ-qAgp21-_pad-24"/><use x="2770" y="4180" xlink:href="#BJ-qAgp21-_pad-24"/><use x="2870" y="4180" xlink:href="#BJ-qAgp21-_pad-24"/><use x="2970" y="4180" xlink:href="#BJ-qAgp21-_pad-24"/><use x="2995" y="3130" xlink:href="#BJ-qAgp21-_pad-24"/><use x="2688.23" y="4791.22" xlink:href="#BJ-qAgp21-_pad-25"/><use x="2888.23" y="4791.22" xlink:href="#BJ-qAgp21-_pad-25"/><use x="3088.23" y="4791.22" xlink:href="#BJ-qAgp21-_pad-25"/><use x="3320" y="3285" xlink:href="#BJ-qAgp21-_pad-26"/><use x="2895" y="3130" xlink:href="#BJ-qAgp21-_pad-26"/><use x="2175" y="3875" xlink:href="#BJ-qAgp21-_pad-27"/><use x="2175" y="4175" xlink:href="#BJ-qAgp21-_pad-27"/></g><g id="pcb-stackup_bottom_drl1"><use x="2688.23" y="4791.22" xlink:href="#ByI5Axph1b_pad-1"/><use x="2888.23" y="4791.22" xlink:href="#ByI5Axph1b_pad-1"/><use x="3088.23" y="4791.22" xlink:href="#ByI5Axph1b_pad-1"/><use x="3320" y="3285" xlink:href="#ByI5Axph1b_pad-2"/><use x="3435" y="3285" xlink:href="#ByI5Axph1b_pad-2"/><use x="2175" y="3875" xlink:href="#ByI5Axph1b_pad-3"/><use x="2175" y="4175" xlink:href="#ByI5Axph1b_pad-3"/><use x="2895" y="3130" xlink:href="#ByI5Axph1b_pad-4"/><use x="2995" y="3130" xlink:href="#ByI5Axph1b_pad-4"/><use x="2970" y="3880" xlink:href="#ByI5Axph1b_pad-4"/><use x="2870" y="3880" xlink:href="#ByI5Axph1b_pad-4"/><use x="2770" y="3880" xlink:href="#ByI5Axph1b_pad-4"/><use x="3070" y="3880" xlink:href="#ByI5Axph1b_pad-4"/><use x="3070" y="4180" xlink:href="#ByI5Axph1b_pad-4"/><use x="2970" y="4180" xlink:href="#ByI5Axph1b_pad-4"/><use x="2870" y="4180" xlink:href="#ByI5Axph1b_pad-4"/><use x="2770" y="4180" xlink:href="#ByI5Axph1b_pad-4"/><use x="2155" y="4660" xlink:href="#ByI5Axph1b_pad-4"/><use x="3805" y="4695" xlink:href="#ByI5Axph1b_pad-4"/><use x="3805" y="4795" xlink:href="#ByI5Axph1b_pad-4"/><use x="2155" y="4760" xlink:href="#ByI5Axph1b_pad-4"/></g><clipPath id="pcb-stackup_bottom_out"><path fill="none" stroke-width="11.81" d="M2051.18 3051.18v1866.14h1866.14V3051.18H2051.18"/></clipPath><mask id="pcb-stackup_bottom_mech-mask"><g stroke="#000"><path fill="#fff" d="M2051.18 3051.18h1866.14v1866.14H2051.18z"/><use xlink:href="#pcb-stackup_bottom_drl1"/></g></mask><mask id="pcb-stackup_bottom_cf-mask"><g fill="#fff" stroke="#fff"><use xlink:href="#pcb-stackup_bottom_sm"/></g></mask><mask id="pcb-stackup_bottom_sm-mask"><g stroke="#000"><path fill="#fff" d="M2051.18 3051.18h1866.14v1866.14H2051.18z"/><use xlink:href="#pcb-stackup_bottom_sm"/></g></mask></defs><g><g mask="url(#pcb-stackup_bottom_mech-mask)" clip-path="url(#pcb-stackup_bottom_out)" transform="rotate(180 2984.25 3984.25)"><path fill="currentColor" d="M2051.18 3051.18h1866.14v1866.14H2051.18z" class="pcb-stackup_fr4"/><use fill="currentColor" stroke="currentColor" xlink:href="#pcb-stackup_bottom_cu" class="pcb-stackup_cu"/><use fill="currentColor" stroke="currentColor" xlink:href="#pcb-stackup_bottom_cu" class="pcb-stackup_cf" mask="url(#pcb-stackup_bottom_cf-mask)"/><g mask="url(#pcb-stackup_bottom_sm-mask)"><path fill="currentColor" d="M2051.18 3051.18h1866.14v1866.14H2051.18z" class="pcb-stackup_sm"/><use fill="currentColor" stroke="currentColor" xlink:href="#pcb-stackup_bottom_ss" class="pcb-stackup_ss"/></g></g></g></svg>