<svg xmlns="http://www.w3.org/2000/svg" id="pcb-stackup_top" fill-rule="evenodd" stroke-width="0" stroke-linecap="round" stroke-linejoin="round" xmlns:xlink="http://www.w3.org/1999/xlink" clip-rule="evenodd" viewBox="2051.18 3051.18 1866.14 1866.14"><defs><style>.pcb-stackup_fr4 {color: #4D542C;} .pcb-stackup_cu {color: lightgrey;} .pcb-stackup_cf {color: goldenrod;} .pcb-stackup_sm {color: #004400; opacity: 0.9;} .pcb-stackup_ss {color: white;} .pcb-stackup_sp {color: #000000; opacity: 0;} .pcb-stackup_out {color: black;}</style><mask id="HyXqCx63Jb_clear-1" stroke="#000"><path fill="#fff" d="M2096.85 3096.85h1774.81v1774.81H2096.85z"/><path d="M3810 4834.21V4800h34.21l-.7 5.32-3.98 9.61-6.34 8.26-8.26 6.34-9.61 3.98-5.32.7M3800 4834.21l-5.32-.7-9.61-3.98-8.26-6.34-6.34-8.26-3.98-9.61-.7-5.32H3800v34.21M3093.23 4820.5v-24.28h24.28l-.36 2.75-2.99 7.22-4.76 6.2-6.2 4.76-7.22 2.99-2.75.36M3083.23 4820.5l-2.75-.36-7.22-2.99-6.2-4.76-4.76-6.2-2.99-7.22-.37-2.75h24.29v24.28M3117.51 4786.22h-24.28v-24.28l2.75.36 7.22 2.99 6.2 4.76 4.76 6.2 2.99 7.22.36 2.75M3083.23 4786.22h-24.29l.37-2.75 2.99-7.22 4.76-6.2 6.2-4.76 7.22-2.99 2.75-.36v24.28M2688.23 4850.56l-11.58-1.14-11.13-3.38-10.26-5.48-8.99-7.38-7.38-8.99-5.49-10.26-3.37-11.13-1.14-11.58 1.14-11.58 3.37-11.13 5.49-10.26 7.38-8.99 8.99-7.38 10.26-5.48 11.13-3.38 11.58-1.14 11.58 1.14 11.13 3.38 10.26 5.48 8.99 7.38 7.38 8.99 5.48 10.26 3.38 11.13 1.14 11.58-1.14 11.58-3.38 11.13-5.48 10.26-7.38 8.99-8.99 7.38-10.26 5.48-11.13 3.38-11.58 1.14M2194.53 4655H2160v-34.53h34.53V4655M2150 4655h-34.53v-34.53H2150V4655M3138.9 4248.9h-137.8v-36.64l-5-2.47-6.17 4.74-9.61 3.98-5.32.7v-78.42l5.32.7 9.61 3.98 6.17 4.74 5-2.47v-36.64h137.8v137.8M2888.23 4850.56l-11.58-1.14-11.13-3.38-10.26-5.48-8.99-7.38-18.23-18.23-7.38-8.99-5.48-10.26-3.38-11.13-1.14-11.58v-557.85l-4.62-8.65-.27-.87-4.92-.9-2.66 3.47-8.26 6.34-9.61 3.98-5.32.7v-78.42l5.32.7 9.61 3.98 8.26 6.34 2.66 3.47 4.92-.9.27-.87 6.4-11.97 8.61-10.49 10.49-8.61 11.97-6.4 12.98-3.94 13.51-1.33 13.51 1.33 12.98 3.94 11.97 6.4 10.49 8.61 8.61 10.49 6.4 11.97.27.87 4.92.9 2.66-3.47 8.26-6.34 9.61-3.98 5.32-.7v78.42l-5.32-.7-9.61-3.98-8.26-6.34-2.66-3.47-4.92.9-.27.87-4.62 8.65v533.27l.85.85 7.38 8.99 5.48 10.26 3.38 11.13 1.14 11.58-1.14 11.58-3.38 11.13-5.48 10.26-7.38 8.99-8.99 7.38-10.26 5.48-11.13 3.38-11.58 1.14M2765 4219.21l-5.32-.7-9.61-3.98-8.26-6.34-6.34-8.26-3.98-9.61-.7-5.32H2765v34.21M2180 4212.22V4180h32.22l-.63 4.8-3.78 9.14-6.02 7.85-7.85 6.02-9.14 3.78-4.8.63M2170 4212.22l-4.81-.63-9.13-3.78-7.85-6.02-6.02-7.85-3.78-9.14-.64-4.8H2170v32.22M2765 4175h-34.21l.7-5.32 3.98-9.61 6.34-8.26 8.26-6.34 9.61-3.98 5.32-.7V4175M2212.22 4170H2180v-32.23l4.8.64 9.14 3.78 7.85 6.02 6.02 7.85 3.78 9.13.63 4.81M2170 4170h-32.23l.64-4.81 3.78-9.13 6.02-7.85 7.85-6.02 9.13-3.78 4.81-.64V4170M3000 3169.21V3135h34.21l-.7 5.32-3.98 9.61-6.34 8.26-8.26 6.34-9.61 3.98-5.32.7"/></mask><path id="HyXqCx63Jb_pad-10" d="M-33.465-21.655h66.93v43.31h-66.93z"/><path id="HyXqCx63Jb_pad-12" d="M-29.53-29.53h59.06v59.06h-59.06z"/><circle id="HyXqCx63Jb_pad-13" r="29.53"/><circle id="HyXqCx63Jb_pad-14" r="19.685"/><path id="HyXqCx63Jb_pad-15" d="M-29.53-29.53h59.06v59.06h-59.06z"/><circle id="HyXqCx63Jb_pad-16" r="27.56"/><mask id="HyXqCx63Jb_clear-1" stroke="#000"><path fill="#fff" d="M2096.85 3096.85h1774.81v1774.81H2096.85z"/><path d="M3810 4834.21V4800h34.21l-.7 5.32-3.98 9.61-6.34 8.26-8.26 6.34-9.61 3.98-5.32.7M3800 4834.21l-5.32-.7-9.61-3.98-8.26-6.34-6.34-8.26-3.98-9.61-.7-5.32H3800v34.21M3093.23 4820.5v-24.28h24.28l-.36 2.75-2.99 7.22-4.76 6.2-6.2 4.76-7.22 2.99-2.75.36M3083.23 4820.5l-2.75-.36-7.22-2.99-6.2-4.76-4.76-6.2-2.99-7.22-.37-2.75h24.29v24.28M3117.51 4786.22h-24.28v-24.28l2.75.36 7.22 2.99 6.2 4.76 4.76 6.2 2.99 7.22.36 2.75M3083.23 4786.22h-24.29l.37-2.75 2.99-7.22 4.76-6.2 6.2-4.76 7.22-2.99 2.75-.36v24.28M2688.23 4850.56l-11.58-1.14-11.13-3.38-10.26-5.48-8.99-7.38-7.38-8.99-5.49-10.26-3.37-11.13-1.14-11.58 1.14-11.58 3.37-11.13 5.49-10.26 7.38-8.99 8.99-7.38 10.26-5.48 11.13-3.38 11.58-1.14 11.58 1.14 11.13 3.38 10.26 5.48 8.99 7.38 7.38 8.99 5.48 10.26 3.38 11.13 1.14 11.58-1.14 11.58-3.38 11.13-5.48 10.26-7.38 8.99-8.99 7.38-10.26 5.48-11.13 3.38-11.58 1.14M2194.53 4655H2160v-34.53h34.53V4655M2150 4655h-34.53v-34.53H2150V4655M3138.9 4248.9h-137.8v-36.64l-5-2.47-6.17 4.74-9.61 3.98-5.32.7v-78.42l5.32.7 9.61 3.98 6.17 4.74 5-2.47v-36.64h137.8v137.8M2888.23 4850.56l-11.58-1.14-11.13-3.38-10.26-5.48-8.99-7.38-18.23-18.23-7.38-8.99-5.48-10.26-3.38-11.13-1.14-11.58v-557.85l-4.62-8.65-.27-.87-4.92-.9-2.66 3.47-8.26 6.34-9.61 3.98-5.32.7v-78.42l5.32.7 9.61 3.98 8.26 6.34 2.66 3.47 4.92-.9.27-.87 6.4-11.97 8.61-10.49 10.49-8.61 11.97-6.4 12.98-3.94 13.51-1.33 13.51 1.33 12.98 3.94 11.97 6.4 10.49 8.61 8.61 10.49 6.4 11.97.27.87 4.92.9 2.66-3.47 8.26-6.34 9.61-3.98 5.32-.7v78.42l-5.32-.7-9.61-3.98-8.26-6.34-2.66-3.47-4.92.9-.27.87-4.62 8.65v533.27l.85.85 7.38 8.99 5.48 10.26 3.38 11.13 1.14 11.58-1.14 11.58-3.38 11.13-5.48 10.26-7.38 8.99-8.99 7.38-10.26 5.48-11.13 3.38-11.58 1.14M2765 4219.21l-5.32-.7-9.61-3.98-8.26-6.34-6.34-8.26-3.98-9.61-.7-5.32H2765v34.21M2180 4212.22V4180h32.22l-.63 4.8-3.78 9.14-6.02 7.85-7.85 6.02-9.14 3.78-4.8.63M2170 4212.22l-4.81-.63-9.13-3.78-7.85-6.02-6.02-7.85-3.78-9.14-.64-4.8H2170v32.22M2765 4175h-34.21l.7-5.32 3.98-9.61 6.34-8.26 8.26-6.34 9.61-3.98 5.32-.7V4175M2212.22 4170H2180v-32.23l4.8.64 9.14 3.78 7.85 6.02 6.02 7.85 3.78 9.13.63 4.81M2170 4170h-32.23l.64-4.81 3.78-9.13 6.02-7.85 7.85-6.02 9.13-3.78 4.81-.64V4170M3000 3169.21V3135h34.21l-.7 5.32-3.98 9.61-6.34 8.26-8.26 6.34-9.61 3.98-5.32.7"/></mask><path id="HyXqCx63Jb_pad-10" d="M-33.465-21.655h66.93v43.31h-66.93z"/><path id="HyXqCx63Jb_pad-12" d="M-29.53-29.53h59.06v59.06h-59.06z"/><circle id="HyXqCx63Jb_pad-13" r="29.53"/><circle id="HyXqCx63Jb_pad-14" r="19.685"/><path id="HyXqCx63Jb_pad-15" d="M-29.53-29.53h59.06v59.06h-59.06z"/><circle id="HyXqCx63Jb_pad-16" r="27.56"/><mask id="HyXqCx63Jb_clear-1" stroke="#000"><path fill="#fff" d="M2096.85 3096.85h1774.81v1774.81H2096.85z"/><path d="M3810 4834.21V4800h34.21l-.7 5.32-3.98 9.61-6.34 8.26-8.26 6.34-9.61 3.98-5.32.7M3800 4834.21l-5.32-.7-9.61-3.98-8.26-6.34-6.34-8.26-3.98-9.61-.7-5.32H3800v34.21M3093.23 4820.5v-24.28h24.28l-.36 2.75-2.99 7.22-4.76 6.2-6.2 4.76-7.22 2.99-2.75.36M3083.23 4820.5l-2.75-.36-7.22-2.99-6.2-4.76-4.76-6.2-2.99-7.22-.37-2.75h24.29v24.28M3117.51 4786.22h-24.28v-24.28l2.75.36 7.22 2.99 6.2 4.76 4.76 6.2 2.99 7.22.36 2.75M3083.23 4786.22h-24.29l.37-2.75 2.99-7.22 4.76-6.2 6.2-4.76 7.22-2.99 2.75-.36v24.28M2688.23 4850.56l-11.58-1.14-11.13-3.38-10.26-5.48-8.99-7.38-7.38-8.99-5.49-10.26-3.37-11.13-1.14-11.58 1.14-11.58 3.37-11.13 5.49-10.26 7.38-8.99 8.99-7.38 10.26-5.48 11.13-3.38 11.58-1.14 11.58 1.14 11.13 3.38 10.26 5.48 8.99 7.38 7.38 8.99 5.48 10.26 3.38 11.13 1.14 11.58-1.14 11.58-3.38 11.13-5.48 10.26-7.38 8.99-8.99 7.38-10.26 5.48-11.13 3.38-11.58 1.14M2194.53 4655H2160v-34.53h34.53V4655M2150 4655h-34.53v-34.53H2150V4655M3138.9 4248.9h-137.8v-36.64l-5-2.47-6.17 4.74-9.61 3.98-5.32.7v-78.42l5.32.7 9.61 3.98 6.17 4.74 5-2.47v-36.64h137.8v137.8M2888.23 4850.56l-11.58-1.14-11.13-3.38-10.26-5.48-8.99-7.38-18.23-18.23-7.38-8.99-5.48-10.26-3.38-11.13-1.14-11.58v-557.85l-4.62-8.65-.27-.87-4.92-.9-2.66 3.47-8.26 6.34-9.61 3.98-5.32.7v-78.42l5.32.7 9.61 3.98 8.26 6.34 2.66 3.47 4.92-.9.27-.87 6.4-11.97 8.61-10.49 10.49-8.61 11.97-6.4 12.98-3.94 13.51-1.33 13.51 1.33 12.98 3.94 11.97 6.4 10.49 8.61 8.61 10.49 6.4 11.97.27.87 4.92.9 2.66-3.47 8.26-6.34 9.61-3.98 5.32-.7v78.42l-5.32-.7-9.61-3.98-8.26-6.34-2.66-3.47-4.92.9-.27.87-4.62 8.65v533.27l.85.85 7.38 8.99 5.48 10.26 3.38 11.13 1.14 11.58-1.14 11.58-3.38 11.13-5.48 10.26-7.38 8.99-8.99 7.38-10.26 5.48-11.13 3.38-11.58 1.14M2765 4219.21l-5.32-.7-9.61-3.98-8.26-6.34-6.34-8.26-3.98-9.61-.7-5.32H2765v34.21M2180 4212.22V4180h32.22l-.63 4.8-3.78 9.14-6.02 7.85-7.85 6.02-9.14 3.78-4.8.63M2170 4212.22l-4.81-.63-9.13-3.78-7.85-6.02-6.02-7.85-3.78-9.14-.64-4.8H2170v32.22M2765 4175h-34.21l.7-5.32 3.98-9.61 6.34-8.26 8.26-6.34 9.61-3.98 5.32-.7V4175M2212.22 4170H2180v-32.23l4.8.64 9.14 3.78 7.85 6.02 6.02 7.85 3.78 9.13.63 4.81M2170 4170h-32.23l.64-4.81 3.78-9.13 6.02-7.85 7.85-6.02 9.13-3.78 4.81-.64V4170M3000 3169.21V3135h34.21l-.7 5.32-3.98 9.61-6.34 8.26-8.26 6.34-9.61 3.98-5.32.7"/></mask><path id="HyXqCx63Jb_pad-10" d="M-33.465-21.655h66.93v43.31h-66.93z"/><path id="HyXqCx63Jb_pad-12" d="M-29.53-29.53h59.06v59.06h-59.06z"/><circle id="HyXqCx63Jb_pad-13" r="29.53"/><circle id="HyXqCx63Jb_pad-14" r="19.685"/><path id="HyXqCx63Jb_pad-15" d="M-29.53-29.53h59.06v59.06h-59.06z"/><circle id="HyXqCx63Jb_pad-16" r="27.56"/><mask id="HyXqCx63Jb_clear-1" stroke="#000"><path fill="#fff" d="M2096.85 3096.85h1774.81v1774.81H2096.85z"/><path d="M3810 4834.21V4800h34.21l-.7 5.32-3.98 9.61-6.34 8.26-8.26 6.34-9.61 3.98-5.32.7M3800 4834.21l-5.32-.7-9.61-3.98-8.26-6.34-6.34-8.26-3.98-9.61-.7-5.32H3800v34.21M3093.23 4820.5v-24.28h24.28l-.36 2.75-2.99 7.22-4.76 6.2-6.2 4.76-7.22 2.99-2.75.36M3083.23 4820.5l-2.75-.36-7.22-2.99-6.2-4.76-4.76-6.2-2.99-7.22-.37-2.75h24.29v24.28M3117.51 4786.22h-24.28v-24.28l2.75.36 7.22 2.99 6.2 4.76 4.76 6.2 2.99 7.22.36 2.75M3083.23 4786.22h-24.29l.37-2.75 2.99-7.22 4.76-6.2 6.2-4.76 7.22-2.99 2.75-.36v24.28M2688.23 4850.56l-11.58-1.14-11.13-3.38-10.26-5.48-8.99-7.38-7.38-8.99-5.49-10.26-3.37-11.13-1.14-11.58 1.14-11.58 3.37-11.13 5.49-10.26 7.38-8.99 8.99-7.38 10.26-5.48 11.13-3.38 11.58-1.14 11.58 1.14 11.13 3.38 10.26 5.48 8.99 7.38 7.38 8.99 5.48 10.26 3.38 11.13 1.14 11.58-1.14 11.58-3.38 11.13-5.48 10.26-7.38 8.99-8.99 7.38-10.26 5.48-11.13 3.38-11.58 1.14M2194.53 4655H2160v-34.53h34.53V4655M2150 4655h-34.53v-34.53H2150V4655M3138.9 4248.9h-137.8v-36.64l-5-2.47-6.17 4.74-9.61 3.98-5.32.7v-78.42l5.32.7 9.61 3.98 6.17 4.74 5-2.47v-36.64h137.8v137.8M2888.23 4850.56l-11.58-1.14-11.13-3.38-10.26-5.48-8.99-7.38-18.23-18.23-7.38-8.99-5.48-10.26-3.38-11.13-1.14-11.58v-557.85l-4.62-8.65-.27-.87-4.92-.9-2.66 3.47-8.26 6.34-9.61 3.98-5.32.7v-78.42l5.32.7 9.61 3.98 8.26 6.34 2.66 3.47 4.92-.9.27-.87 6.4-11.97 8.61-10.49 10.49-8.61 11.97-6.4 12.98-3.94 13.51-1.33 13.51 1.33 12.98 3.94 11.97 6.4 10.49 8.61 8.61 10.49 6.4 11.97.27.87 4.92.9 2.66-3.47 8.26-6.34 9.61-3.98 5.32-.7v78.42l-5.32-.7-9.61-3.98-8.26-6.34-2.66-3.47-4.92.9-.27.87-4.62 8.65v533.27l.85.85 7.38 8.99 5.48 10.26 3.38 11.13 1.14 11.58-1.14 11.58-3.38 11.13-5.48 10.26-7.38 8.99-8.99 7.38-10.26 5.48-11.13 3.38-11.58 1.14M2765 4219.21l-5.32-.7-9.61-3.98-8.26-6.34-6.34-8.26-3.98-9.61-.7-5.32H2765v34.21M2180 4212.22V4180h32.22l-.63 4.8-3.78 9.14-6.02 7.85-7.85 6.02-9.14 3.78-4.8.63M2170 4212.22l-4.81-.63-9.13-3.78-7.85-6.02-6.02-7.85-3.78-9.14-.64-4.8H2170v32.22M2765 4175h-34.21l.7-5.32 3.98-9.61 6.34-8.26 8.26-6.34 9.61-3.98 5.32-.7V4175M2212.22 4170H2180v-32.23l4.8.64 9.14 3.78 7.85 6.02 6.02 7.85 3.78 9.13.63 4.81M2170 4170h-32.23l.64-4.81 3.78-9.13 6.02-7.85 7.85-6.02 9.13-3.78 4.81-.64V4170M3000 3169.21V3135h34.21l-.7 5.32-3.98 9.61-6.34 8.26-8.26 6.34-9.61 3.98-5.32.7"/></mask><path id="HyXqCx63Jb_pad-10" d="M-33.465-21.655h66.93v43.31h-66.93z"/><path id="HyXqCx63Jb_pad-12" d="M-29.53-29.53h59.06v59.06h-59.06z"/><circle id="HyXqCx63Jb_pad-13" r="29.53"/><circle id="HyXqCx63Jb_pad-14" r="19.685"/><path id="HyXqCx63Jb_pad-15" d="M-29.53-29.53h59.06v59.06h-59.06z"/><circle id="HyXqCx63Jb_pad-16" r="27.56"/><path id="SkH5ClTh1b_pad-22" d="M-37.465-25.655h74.93v51.31h-74.93z"/><path id="SkH5ClTh1b_pad-23" d="M-33.53-33.53h67.06v67.06h-67.06z"/><circle id="SkH5ClTh1b_pad-24" r="33.53"/><circle id="SkH5ClTh1b_pad-25" r="23.685"/><path id="SkH5ClTh1b_pad-26" d="M-33.53-33.53h67.06v67.06h-67.06z"/><circle id="SkH5ClTh1b_pad-27" r="31.56"/><mask id="HyXqCx63Jb_clear-1" stroke="#000"><path fill="#fff" d="M2096.85 3096.85h1774.81v1774.81H2096.85z"/><path d="M3810 4834.21V4800h34.21l-.7 5.32-3.98 9.61-6.34 8.26-8.26 6.34-9.61 3.98-5.32.7M3800 4834.21l-5.32-.7-9.61-3.98-8.26-6.34-6.34-8.26-3.98-9.61-.7-5.32H3800v34.21M3093.23 4820.5v-24.28h24.28l-.36 2.75-2.99 7.22-4.76 6.2-6.2 4.76-7.22 2.99-2.75.36M3083.23 4820.5l-2.75-.36-7.22-2.99-6.2-4.76-4.76-6.2-2.99-7.22-.37-2.75h24.29v24.28M3117.51 4786.22h-24.28v-24.28l2.75.36 7.22 2.99 6.2 4.76 4.76 6.2 2.99 7.22.36 2.75M3083.23 4786.22h-24.29l.37-2.75 2.99-7.22 4.76-6.2 6.2-4.76 7.22-2.99 2.75-.36v24.28M2688.23 4850.56l-11.58-1.14-11.13-3.38-10.26-5.48-8.99-7.38-7.38-8.99-5.49-10.26-3.37-11.13-1.14-11.58 1.14-11.58 3.37-11.13 5.49-10.26 7.38-8.99 8.99-7.38 10.26-5.48 11.13-3.38 11.58-1.14 11.58 1.14 11.13 3.38 10.26 5.48 8.99 7.38 7.38 8.99 5.48 10.26 3.38 11.13 1.14 11.58-1.14 11.58-3.38 11.13-5.48 10.26-7.38 8.99-8.99 7.38-10.26 5.48-11.13 3.38-11.58 1.14M2194.53 4655H2160v-34.53h34.53V4655M2150 4655h-34.53v-34.53H2150V4655M3138.9 4248.9h-137.8v-36.64l-5-2.47-6.17 4.74-9.61 3.98-5.32.7v-78.42l5.32.7 9.61 3.98 6.17 4.74 5-2.47v-36.64h137.8v137.8M2888.23 4850.56l-11.58-1.14-11.13-3.38-10.26-5.48-8.99-7.38-18.23-18.23-7.38-8.99-5.48-10.26-3.38-11.13-1.14-11.58v-557.85l-4.62-8.65-.27-.87-4.92-.9-2.66 3.47-8.26 6.34-9.61 3.98-5.32.7v-78.42l5.32.7 9.61 3.98 8.26 6.34 2.66 3.47 4.92-.9.27-.87 6.4-11.97 8.61-10.49 10.49-8.61 11.97-6.4 12.98-3.94 13.51-1.33 13.51 1.33 12.98 3.94 11.97 6.4 10.49 8.61 8.61 10.49 6.4 11.97.27.87 4.92.9 2.66-3.47 8.26-6.34 9.61-3.98 5.32-.7v78.42l-5.32-.7-9.61-3.98-8.26-6.34-2.66-3.47-4.92.9-.27.87-4.62 8.65v533.27l.85.85 7.38 8.99 5.48 10.26 3.38 11.13 1.14 11.58-1.14 11.58-3.38 11.13-5.48 10.26-7.38 8.99-8.99 7.38-10.26 5.48-11.13 3.38-11.58 1.14M2765 4219.21l-5.32-.7-9.61-3.98-8.26-6.34-6.34-8.26-3.98-9.61-.7-5.32H2765v34.21M2180 4212.22V4180h32.22l-.63 4.8-3.78 9.14-6.02 7.85-7.85 6.02-9.14 3.78-4.8.63M2170 4212.22l-4.81-.63-9.13-3.78-7.85-6.02-6.02-7.85-3.78-9.14-.64-4.8H2170v32.22M2765 4175h-34.21l.7-5.32 3.98-9.61 6.34-8.26 8.26-6.34 9.61-3.98 5.32-.7V4175M2212.22 4170H2180v-32.23l4.8.64 9.14 3.78 7.85 6.02 6.02 7.85 3.78 9.13.63 4.81M2170 4170h-32.23l.64-4.81 3.78-9.13 6.02-7.85 7.85-6.02 9.13-3.78 4.81-.64V4170M3000 3169.21V3135h34.21l-.7 5.32-3.98 9.61-6.34 8.26-8.26 6.34-9.61 3.98-5.32.7"/></mask><path id="HyXqCx63Jb_pad-10" d="M-33.465-21.655h66.93v43.31h-66.93z"/><path id="HyXqCx63Jb_pad-12" d="M-29.53-29.53h59.06v59.06h-59.06z"/><circle id="HyXqCx63Jb_pad-13" r="29.53"/><circle id="HyXqCx63Jb_pad-14" r="19.685"/><path id="HyXqCx63Jb_pad-15" d="M-29.53-29.53h59.06v59.06h-59.06z"/><circle id="HyXqCx63Jb_pad-16" r="27.56"/><mask id="HyXqCx63Jb_clear-1" stroke="#000"><path fill="#fff" d="M2096.85 3096.85h1774.81v1774.81H2096.85z"/><path d="M3810 4834.21V4800h34.21l-.7 5.32-3.98 9.61-6.34 8.26-8.26 6.34-9.61 3.98-5.32.7M3800 4834.21l-5.32-.7-9.61-3.98-8.26-6.34-6.34-8.26-3.98-9.61-.7-5.32H3800v34.21M3093.23 4820.5v-24.28h24.28l-.36 2.75-2.99 7.22-4.76 6.2-6.2 4.76-7.22 2.99-2.75.36M3083.23 4820.5l-2.75-.36-7.22-2.99-6.2-4.76-4.76-6.2-2.99-7.22-.37-2.75h24.29v24.28M3117.51 4786.22h-24.28v-24.28l2.75.36 7.22 2.99 6.2 4.76 4.76 6.2 2.99 7.22.36 2.75M3083.23 4786.22h-24.29l.37-2.75 2.99-7.22 4.76-6.2 6.2-4.76 7.22-2.99 2.75-.36v24.28M2688.23 4850.56l-11.58-1.14-11.13-3.38-10.26-5.48-8.99-7.38-7.38-8.99-5.49-10.26-3.37-11.13-1.14-11.58 1.14-11.58 3.37-11.13 5.49-10.26 7.38-8.99 8.99-7.38 10.26-5.48 11.13-3.38 11.58-1.14 11.58 1.14 11.13 3.38 10.26 5.48 8.99 7.38 7.38 8.99 5.48 10.26 3.38 11.13 1.14 11.58-1.14 11.58-3.38 11.13-5.48 10.26-7.38 8.99-8.99 7.38-10.26 5.48-11.13 3.38-11.58 1.14M2194.53 4655H2160v-34.53h34.53V4655M2150 4655h-34.53v-34.53H2150V4655M3138.9 4248.9h-137.8v-36.64l-5-2.47-6.17 4.74-9.61 3.98-5.32.7v-78.42l5.32.7 9.61 3.98 6.17 4.74 5-2.47v-36.64h137.8v137.8M2888.23 4850.56l-11.58-1.14-11.13-3.38-10.26-5.48-8.99-7.38-18.23-18.23-7.38-8.99-5.48-10.26-3.38-11.13-1.14-11.58v-557.85l-4.62-8.65-.27-.87-4.92-.9-2.66 3.47-8.26 6.34-9.61 3.98-5.32.7v-78.42l5.32.7 9.61 3.98 8.26 6.34 2.66 3.47 4.92-.9.27-.87 6.4-11.97 8.61-10.49 10.49-8.61 11.97-6.4 12.98-3.94 13.51-1.33 13.51 1.33 12.98 3.94 11.97 6.4 10.49 8.61 8.61 10.49 6.4 11.97.27.87 4.92.9 2.66-3.47 8.26-6.34 9.61-3.98 5.32-.7v78.42l-5.32-.7-9.61-3.98-8.26-6.34-2.66-3.47-4.92.9-.27.87-4.62 8.65v533.27l.85.85 7.38 8.99 5.48 10.26 3.38 11.13 1.14 11.58-1.14 11.58-3.38 11.13-5.48 10.26-7.38 8.99-8.99 7.38-10.26 5.48-11.13 3.38-11.58 1.14M2765 4219.21l-5.32-.7-9.61-3.98-8.26-6.34-6.34-8.26-3.98-9.61-.7-5.32H2765v34.21M2180 4212.22V4180h32.22l-.63 4.8-3.78 9.14-6.02 7.85-7.85 6.02-9.14 3.78-4.8.63M2170 4212.22l-4.81-.63-9.13-3.78-7.85-6.02-6.02-7.85-3.78-9.14-.64-4.8H2170v32.22M2765 4175h-34.21l.7-5.32 3.98-9.61 6.34-8.26 8.26-6.34 9.61-3.98 5.32-.7V4175M2212.22 4170H2180v-32.23l4.8.64 9.14 3.78 7.85 6.02 6.02 7.85 3.78 9.13.63 4.81M2170 4170h-32.23l.64-4.81 3.78-9.13 6.02-7.85 7.85-6.02 9.13-3.78 4.81-.64V4170M3000 3169.21V3135h34.21l-.7 5.32-3.98 9.61-6.34 8.26-8.26 6.34-9.61 3.98-5.32.7"/></mask><path id="HyXqCx63Jb_pad-10" d="M-33.465-21.655h66.93v43.31h-66.93z"/><path id="HyXqCx63Jb_pad-12" d="M-29.53-29.53h59.06v59.06h-59.06z"/><circle id="HyXqCx63Jb_pad-13" r="29.53"/><circle id="HyXqCx63Jb_pad-14" r="19.685"/><path id="HyXqCx63Jb_pad-15" d="M-29.53-29.53h59.06v59.06h-59.06z"/><circle id="HyXqCx63Jb_pad-16" r="27.56"/><mask id="HyXqCx63Jb_clear-1" stroke="#000"><path fill="#fff" d="M2096.85 3096.85h1774.81v1774.81H2096.85z"/><path d="M3810 4834.21V4800h34.21l-.7 5.32-3.98 9.61-6.34 8.26-8.26 6.34-9.61 3.98-5.32.7M3800 4834.21l-5.32-.7-9.61-3.98-8.26-6.34-6.34-8.26-3.98-9.61-.7-5.32H3800v34.21M3093.23 4820.5v-24.28h24.28l-.36 2.75-2.99 7.22-4.76 6.2-6.2 4.76-7.22 2.99-2.75.36M3083.23 4820.5l-2.75-.36-7.22-2.99-6.2-4.76-4.76-6.2-2.99-7.22-.37-2.75h24.29v24.28M3117.51 4786.22h-24.28v-24.28l2.75.36 7.22 2.99 6.2 4.76 4.76 6.2 2.99 7.22.36 2.75M3083.23 4786.22h-24.29l.37-2.75 2.99-7.22 4.76-6.2 6.2-4.76 7.22-2.99 2.75-.36v24.28M2688.23 4850.56l-11.58-1.14-11.13-3.38-10.26-5.48-8.99-7.38-7.38-8.99-5.49-10.26-3.37-11.13-1.14-11.58 1.14-11.58 3.37-11.13 5.49-10.26 7.38-8.99 8.99-7.38 10.26-5.48 11.13-3.38 11.58-1.14 11.58 1.14 11.13 3.38 10.26 5.48 8.99 7.38 7.38 8.99 5.48 10.26 3.38 11.13 1.14 11.58-1.14 11.58-3.38 11.13-5.48 10.26-7.38 8.99-8.99 7.38-10.26 5.48-11.13 3.38-11.58 1.14M2194.53 4655H2160v-34.53h34.53V4655M2150 4655h-34.53v-34.53H2150V4655M3138.9 4248.9h-137.8v-36.64l-5-2.47-6.17 4.74-9.61 3.98-5.32.7v-78.42l5.32.7 9.61 3.98 6.17 4.74 5-2.47v-36.64h137.8v137.8M2888.23 4850.56l-11.58-1.14-11.13-3.38-10.26-5.48-8.99-7.38-18.23-18.23-7.38-8.99-5.48-10.26-3.38-11.13-1.14-11.58v-557.85l-4.62-8.65-.27-.87-4.92-.9-2.66 3.47-8.26 6.34-9.61 3.98-5.32.7v-78.42l5.32.7 9.61 3.98 8.26 6.34 2.66 3.47 4.92-.9.27-.87 6.4-11.97 8.61-10.49 10.49-8.61 11.97-6.4 12.98-3.94 13.51-1.33 13.51 1.33 12.98 3.94 11.97 6.4 10.49 8.61 8.61 10.49 6.4 11.97.27.87 4.92.9 2.66-3.47 8.26-6.34 9.61-3.98 5.32-.7v78.42l-5.32-.7-9.61-3.98-8.26-6.34-2.66-3.47-4.92.9-.27.87-4.62 8.65v533.27l.85.85 7.38 8.99 5.48 10.26 3.38 11.13 1.14 11.58-1.14 11.58-3.38 11.13-5.48 10.26-7.38 8.99-8.99 7.38-10.26 5.48-11.13 3.38-11.58 1.14M2765 4219.21l-5.32-.7-9.61-3.98-8.26-6.34-6.34-8.26-3.98-9.61-.7-5.32H2765v34.21M2180 4212.22V4180h32.22l-.63 4.8-3.78 9.14-6.02 7.85-7.85 6.02-9.14 3.78-4.8.63M2170 4212.22l-4.81-.63-9.13-3.78-7.85-6.02-6.02-7.85-3.78-9.14-.64-4.8H2170v32.22M2765 4175h-34.21l.7-5.32 3.98-9.61 6.34-8.26 8.26-6.34 9.61-3.98 5.32-.7V4175M2212.22 4170H2180v-32.23l4.8.64 9.14 3.78 7.85 6.02 6.02 7.85 3.78 9.13.63 4.81M2170 4170h-32.23l.64-4.81 3.78-9.13 6.02-7.85 7.85-6.02 9.13-3.78 4.81-.64V4170M3000 3169.21V3135h34.21l-.7 5.32-3.98 9.61-6.34 8.26-8.26 6.34-9.61 3.98-5.32.7"/></mask><path id="HyXqCx63Jb_pad-10" d="M-33.465-21.655h66.93v43.31h-66.93z"/><path id="HyXqCx63Jb_pad-12" d="M-29.53-29.53h59.06v59.06h-59.06z"/><circle id="HyXqCx63Jb_pad-13" r="29.53"/><circle id="HyXqCx63Jb_pad-14" r="19.685"/><path id="HyXqCx63Jb_pad-15" d="M-29.53-29.53h59.06v59.06h-59.06z"/><circle id="HyXqCx63Jb_pad-16" r="27.56"/><mask id="HyXqCx63Jb_clear-1" stroke="#000"><path fill="#fff" d="M2096.85 3096.85h1774.81v1774.81H2096.85z"/><path d="M3810 4834.21V4800h34.21l-.7 5.32-3.98 9.61-6.34 8.26-8.26 6.34-9.61 3.98-5.32.7M3800 4834.21l-5.32-.7-9.61-3.98-8.26-6.34-6.34-8.26-3.98-9.61-.7-5.32H3800v34.21M3093.23 4820.5v-24.28h24.28l-.36 2.75-2.99 7.22-4.76 6.2-6.2 4.76-7.22 2.99-2.75.36M3083.23 4820.5l-2.75-.36-7.22-2.99-6.2-4.76-4.76-6.2-2.99-7.22-.37-2.75h24.29v24.28M3117.51 4786.22h-24.28v-24.28l2.75.36 7.22 2.99 6.2 4.76 4.76 6.2 2.99 7.22.36 2.75M3083.23 4786.22h-24.29l.37-2.75 2.99-7.22 4.76-6.2 6.2-4.76 7.22-2.99 2.75-.36v24.28M2688.23 4850.56l-11.58-1.14-11.13-3.38-10.26-5.48-8.99-7.38-7.38-8.99-5.49-10.26-3.37-11.13-1.14-11.58 1.14-11.58 3.37-11.13 5.49-10.26 7.38-8.99 8.99-7.38 10.26-5.48 11.13-3.38 11.58-1.14 11.58 1.14 11.13 3.38 10.26 5.48 8.99 7.38 7.38 8.99 5.48 10.26 3.38 11.13 1.14 11.58-1.14 11.58-3.38 11.13-5.48 10.26-7.38 8.99-8.99 7.38-10.26 5.48-11.13 3.38-11.58 1.14M2194.53 4655H2160v-34.53h34.53V4655M2150 4655h-34.53v-34.53H2150V4655M3138.9 4248.9h-137.8v-36.64l-5-2.47-6.17 4.74-9.61 3.98-5.32.7v-78.42l5.32.7 9.61 3.98 6.17 4.74 5-2.47v-36.64h137.8v137.8M2888.23 4850.56l-11.58-1.14-11.13-3.38-10.26-5.48-8.99-7.38-18.23-18.23-7.38-8.99-5.48-10.26-3.38-11.13-1.14-11.58v-557.85l-4.62-8.65-.27-.87-4.92-.9-2.66 3.47-8.26 6.34-9.61 3.98-5.32.7v-78.42l5.32.7 9.61 3.98 8.26 6.34 2.66 3.47 4.92-.9.27-.87 6.4-11.97 8.61-10.49 10.49-8.61 11.97-6.4 12.98-3.94 13.51-1.33 13.51 1.33 12.98 3.94 11.97 6.4 10.49 8.61 8.61 10.49 6.4 11.97.27.87 4.92.9 2.66-3.47 8.26-6.34 9.61-3.98 5.32-.7v78.42l-5.32-.7-9.61-3.98-8.26-6.34-2.66-3.47-4.92.9-.27.87-4.62 8.65v533.27l.85.85 7.38 8.99 5.48 10.26 3.38 11.13 1.14 11.58-1.14 11.58-3.38 11.13-5.48 10.26-7.38 8.99-8.99 7.38-10.26 5.48-11.13 3.38-11.58 1.14M2765 4219.21l-5.32-.7-9.61-3.98-8.26-6.34-6.34-8.26-3.98-9.61-.7-5.32H2765v34.21M2180 4212.22V4180h32.22l-.63 4.8-3.78 9.14-6.02 7.85-7.85 6.02-9.14 3.78-4.8.63M2170 4212.22l-4.81-.63-9.13-3.78-7.85-6.02-6.02-7.85-3.78-9.14-.64-4.8H2170v32.22M2765 4175h-34.21l.7-5.32 3.98-9.61 6.34-8.26 8.26-6.34 9.61-3.98 5.32-.7V4175M2212.22 4170H2180v-32.23l4.8.64 9.14 3.78 7.85 6.02 6.02 7.85 3.78 9.13.63 4.81M2170 4170h-32.23l.64-4.81 3.78-9.13 6.02-7.85 7.85-6.02 9.13-3.78 4.81-.64V4170M3000 3169.21V3135h34.21l-.7 5.32-3.98 9.61-6.34 8.26-8.26 6.34-9.61 3.98-5.32.7"/></mask><path id="HyXqCx63Jb_pad-10" d="M-33.465-21.655h66.93v43.31h-66.93z"/><path id="HyXqCx63Jb_pad-12" d="M-29.53-29.53h59.06v59.06h-59.06z"/><circle id="HyXqCx63Jb_pad-13" r="29.53"/><circle id="HyXqCx63Jb_pad-14" r="19.685"/><path id="HyXqCx63Jb_pad-15" d="M-29.53-29.53h59.06v59.06h-59.06z"/><circle id="HyXqCx63Jb_pad-16" r="27.56"/><path id="SkH5ClTh1b_pad-22" d="M-37.465-25.655h74.93v51.31h-74.93z"/><path id="SkH5ClTh1b_pad-23" d="M-33.53-33.53h67.06v67.06h-67.06z"/><circle id="SkH5ClTh1b_pad-24" r="33.53"/><circle id="SkH5ClTh1b_pad-25" r="23.685"/><path id="SkH5ClTh1b_pad-26" d="M-33.53-33.53h67.06v67.06h-67.06z"/><circle id="SkH5ClTh1b_pad-27" r="31.56"/><circle id="ByI5Axph1b_pad-1" r="9.84"/><circle id="ByI5Axph1b_pad-2" r="13.78"/><circle id="ByI5Axph1b_pad-3" r="16.73"/><circle id="ByI5Axph1b_pad-4" r="17.715"/><mask id="HyXqCx63Jb_clear-1" stroke="#000"><path fill="#fff" d="M2096.85 3096.85h1774.81v1774.81H2096.85z"/><path d="M3810 4834.21V4800h34.21l-.7 5.32-3.98 9.61-6.34 8.26-8.26 6.34-9.61 3.98-5.32.7M3800 4834.21l-5.32-.7-9.61-3.98-8.26-6.34-6.34-8.26-3.98-9.61-.7-5.32H3800v34.21M3093.23 4820.5v-24.28h24.28l-.36 2.75-2.99 7.22-4.76 6.2-6.2 4.76-7.22 2.99-2.75.36M3083.23 4820.5l-2.75-.36-7.22-2.99-6.2-4.76-4.76-6.2-2.99-7.22-.37-2.75h24.29v24.28M3117.51 4786.22h-24.28v-24.28l2.75.36 7.22 2.99 6.2 4.76 4.76 6.2 2.99 7.22.36 2.75M3083.23 4786.22h-24.29l.37-2.75 2.99-7.22 4.76-6.2 6.2-4.76 7.22-2.99 2.75-.36v24.28M2688.23 4850.56l-11.58-1.14-11.13-3.38-10.26-5.48-8.99-7.38-7.38-8.99-5.49-10.26-3.37-11.13-1.14-11.58 1.14-11.58 3.37-11.13 5.49-10.26 7.38-8.99 8.99-7.38 10.26-5.48 11.13-3.38 11.58-1.14 11.58 1.14 11.13 3.38 10.26 5.48 8.99 7.38 7.38 8.99 5.48 10.26 3.38 11.13 1.14 11.58-1.14 11.58-3.38 11.13-5.48 10.26-7.38 8.99-8.99 7.38-10.26 5.48-11.13 3.38-11.58 1.14M2194.53 4655H2160v-34.53h34.53V4655M2150 4655h-34.53v-34.53H2150V4655M3138.9 4248.9h-137.8v-36.64l-5-2.47-6.17 4.74-9.61 3.98-5.32.7v-78.42l5.32.7 9.61 3.98 6.17 4.74 5-2.47v-36.64h137.8v137.8M2888.23 4850.56l-11.58-1.14-11.13-3.38-10.26-5.48-8.99-7.38-18.23-18.23-7.38-8.99-5.48-10.26-3.38-11.13-1.14-11.58v-557.85l-4.62-8.65-.27-.87-4.92-.9-2.66 3.47-8.26 6.34-9.61 3.98-5.32.7v-78.42l5.32.7 9.61 3.98 8.26 6.34 2.66 3.47 4.92-.9.27-.87 6.4-11.97 8.61-10.49 10.49-8.61 11.97-6.4 12.98-3.94 13.51-1.33 13.51 1.33 12.98 3.94 11.97 6.4 10.49 8.61 8.61 10.49 6.4 11.97.27.87 4.92.9 2.66-3.47 8.26-6.34 9.61-3.98 5.32-.7v78.42l-5.32-.7-9.61-3.98-8.26-6.34-2.66-3.47-4.92.9-.27.87-4.62 8.65v533.27l.85.85 7.38 8.99 5.48 10.26 3.38 11.13 1.14 11.58-1.14 11.58-3.38 11.13-5.48 10.26-7.38 8.99-8.99 7.38-10.26 5.48-11.13 3.38-11.58 1.14M2765 4219.21l-5.32-.7-9.61-3.98-8.26-6.34-6.34-8.26-3.98-9.61-.7-5.32H2765v34.21M2180 4212.22V4180h32.22l-.63 4.8-3.78 9.14-6.02 7.85-7.85 6.02-9.14 3.78-4.8.63M2170 4212.22l-4.81-.63-9.13-3.78-7.85-6.02-6.02-7.85-3.78-9.14-.64-4.8H2170v32.22M2765 4175h-34.21l.7-5.32 3.98-9.61 6.34-8.26 8.26-6.34 9.61-3.98 5.32-.7V4175M2212.22 4170H2180v-32.23l4.8.64 9.14 3.78 7.85 6.02 6.02 7.85 3.78 9.13.63 4.81M2170 4170h-32.23l.64-4.81 3.78-9.13 6.02-7.85 7.85-6.02 9.13-3.78 4.81-.64V4170M3000 3169.21V3135h34.21l-.7 5.32-3.98 9.61-6.34 8.26-8.26 6.34-9.61 3.98-5.32.7"/></mask><path id="HyXqCx63Jb_pad-10" d="M-33.465-21.655h66.93v43.31h-66.93z"/><path id="HyXqCx63Jb_pad-12" d="M-29.53-29.53h59.06v59.06h-59.06z"/><circle id="HyXqCx63Jb_pad-13" r="29.53"/><circle id="HyXqCx63Jb_pad-14" r="19.685"/><path id="HyXqCx63Jb_pad-15" d="M-29.53-29.53h59.06v59.06h-59.06z"/><circle id="HyXqCx63Jb_pad-16" r="27.56"/><mask id="HyXqCx63Jb_clear-1" stroke="#000"><path fill="#fff" d="M2096.85 3096.85h1774.81v1774.81H2096.85z"/><path d="M3810 4834.21V4800h34.21l-.7 5.32-3.98 9.61-6.34 8.26-8.26 6.34-9.61 3.98-5.32.7M3800 4834.21l-5.32-.7-9.61-3.98-8.26-6.34-6.34-8.26-3.98-9.61-.7-5.32H3800v34.21M3093.23 4820.5v-24.28h24.28l-.36 2.75-2.99 7.22-4.76 6.2-6.2 4.76-7.22 2.99-2.75.36M3083.23 4820.5l-2.75-.36-7.22-2.99-6.2-4.76-4.76-6.2-2.99-7.22-.37-2.75h24.29v24.28M3117.51 4786.22h-24.28v-24.28l2.75.36 7.22 2.99 6.2 4.76 4.76 6.2 2.99 7.22.36 2.75M3083.23 4786.22h-24.29l.37-2.75 2.99-7.22 4.76-6.2 6.2-4.76 7.22-2.99 2.75-.36v24.28M2688.23 4850.56l-11.58-1.14-11.13-3.38-10.26-5.48-8.99-7.38-7.38-8.99-5.49-10.26-3.37-11.13-1.14-11.58 1.14-11.58 3.37-11.13 5.49-10.26 7.38-8.99 8.99-7.38 10.26-5.48 11.13-3.38 11.58-1.14 11.58 1.14 11.13 3.38 10.26 5.48 8.99 7.38 7.38 8.99 5.48 10.26 3.38 11.13 1.14 11.58-1.14 11.58-3.38 11.13-5.48 10.26-7.38 8.99-8.99 7.38-10.26 5.48-11.13 3.38-11.58 1.14M2194.53 4655H2160v-34.53h34.53V4655M2150 4655h-34.53v-34.53H2150V4655M3138.9 4248.9h-137.8v-36.64l-5-2.47-6.17 4.74-9.61 3.98-5.32.7v-78.42l5.32.7 9.61 3.98 6.17 4.74 5-2.47v-36.64h137.8v137.8M2888.23 4850.56l-11.58-1.14-11.13-3.38-10.26-5.48-8.99-7.38-18.23-18.23-7.38-8.99-5.48-10.26-3.38-11.13-1.14-11.58v-557.85l-4.62-8.65-.27-.87-4.92-.9-2.66 3.47-8.26 6.34-9.61 3.98-5.32.7v-78.42l5.32.7 9.61 3.98 8.26 6.34 2.66 3.47 4.92-.9.27-.87 6.4-11.97 8.61-10.49 10.49-8.61 11.97-6.4 12.98-3.94 13.51-1.33 13.51 1.33 12.98 3.94 11.97 6.4 10.49 8.61 8.61 10.49 6.4 11.97.27.87 4.92.9 2.66-3.47 8.26-6.34 9.61-3.98 5.32-.7v78.42l-5.32-.7-9.61-3.98-8.26-6.34-2.66-3.47-4.92.9-.27.87-4.62 8.65v533.27l.85.85 7.38 8.99 5.48 10.26 3.38 11.13 1.14 11.58-1.14 11.58-3.38 11.13-5.48 10.26-7.38 8.99-8.99 7.38-10.26 5.48-11.13 3.38-11.58 1.14M2765 4219.21l-5.32-.7-9.61-3.98-8.26-6.34-6.34-8.26-3.98-9.61-.7-5.32H2765v34.21M2180 4212.22V4180h32.22l-.63 4.8-3.78 9.14-6.02 7.85-7.85 6.02-9.14 3.78-4.8.63M2170 4212.22l-4.81-.63-9.13-3.78-7.85-6.02-6.02-7.85-3.78-9.14-.64-4.8H2170v32.22M2765 4175h-34.21l.7-5.32 3.98-9.61 6.34-8.26 8.26-6.34 9.61-3.98 5.32-.7V4175M2212.22 4170H2180v-32.23l4.8.64 9.14 3.78 7.85 6.02 6.02 7.85 3.78 9.13.63 4.81M2170 4170h-32.23l.64-4.81 3.78-9.13 6.02-7.85 7.85-6.02 9.13-3.78 4.81-.64V4170M3000 3169.21V3135h34.21l-.7 5.32-3.98 9.61-6.34 8.26-8.26 6.34-9.61 3.98-5.32.7"/></mask><path id="HyXqCx63Jb_pad-10" d="M-33.465-21.655h66.93v43.31h-66.93z"/><path id="HyXqCx63Jb_pad-12" d="M-29.53-29.53h59.06v59.06h-59.06z"/><circle id="HyXqCx63Jb_pad-13" r="29.53"/><circle id="HyXqCx63Jb_pad-14" r="19.685"/><path id="HyXqCx63Jb_pad-15" d="M-29.53-29.53h59.06v59.06h-59.06z"/><circle id="HyXqCx63Jb_pad-16" r="27.56"/><mask id="HyXqCx63Jb_clear-1" stroke="#000"><path fill="#fff" d="M2096.85 3096.85h1774.81v1774.81H2096.85z"/><path d="M3810 4834.21V4800h34.21l-.7 5.32-3.98 9.61-6.34 8.26-8.26 6.34-9.61 3.98-5.32.7M3800 4834.21l-5.32-.7-9.61-3.98-8.26-6.34-6.34-8.26-3.98-9.61-.7-5.32H3800v34.21M3093.23 4820.5v-24.28h24.28l-.36 2.75-2.99 7.22-4.76 6.2-6.2 4.76-7.22 2.99-2.75.36M3083.23 4820.5l-2.75-.36-7.22-2.99-6.2-4.76-4.76-6.2-2.99-7.22-.37-2.75h24.29v24.28M3117.51 4786.22h-24.28v-24.28l2.75.36 7.22 2.99 6.2 4.76 4.76 6.2 2.99 7.22.36 2.75M3083.23 4786.22h-24.29l.37-2.75 2.99-7.22 4.76-6.2 6.2-4.76 7.22-2.99 2.75-.36v24.28M2688.23 4850.56l-11.58-1.14-11.13-3.38-10.26-5.48-8.99-7.38-7.38-8.99-5.49-10.26-3.37-11.13-1.14-11.58 1.14-11.58 3.37-11.13 5.49-10.26 7.38-8.99 8.99-7.38 10.26-5.48 11.13-3.38 11.58-1.14 11.58 1.14 11.13 3.38 10.26 5.48 8.99 7.38 7.38 8.99 5.48 10.26 3.38 11.13 1.14 11.58-1.14 11.58-3.38 11.13-5.48 10.26-7.38 8.99-8.99 7.38-10.26 5.48-11.13 3.38-11.58 1.14M2194.53 4655H2160v-34.53h34.53V4655M2150 4655h-34.53v-34.53H2150V4655M3138.9 4248.9h-137.8v-36.64l-5-2.47-6.17 4.74-9.61 3.98-5.32.7v-78.42l5.32.7 9.61 3.98 6.17 4.74 5-2.47v-36.64h137.8v137.8M2888.23 4850.56l-11.58-1.14-11.13-3.38-10.26-5.48-8.99-7.38-18.23-18.23-7.38-8.99-5.48-10.26-3.38-11.13-1.14-11.58v-557.85l-4.62-8.65-.27-.87-4.92-.9-2.66 3.47-8.26 6.34-9.61 3.98-5.32.7v-78.42l5.32.7 9.61 3.98 8.26 6.34 2.66 3.47 4.92-.9.27-.87 6.4-11.97 8.61-10.49 10.49-8.61 11.97-6.4 12.98-3.94 13.51-1.33 13.51 1.33 12.98 3.94 11.97 6.4 10.49 8.61 8.61 10.49 6.4 11.97.27.87 4.92.9 2.66-3.47 8.26-6.34 9.61-3.98 5.32-.7v78.42l-5.32-.7-9.61-3.98-8.26-6.34-2.66-3.47-4.92.9-.27.87-4.62 8.65v533.27l.85.85 7.38 8.99 5.48 10.26 3.38 11.13 1.14 11.58-1.14 11.58-3.38 11.13-5.48 10.26-7.38 8.99-8.99 7.38-10.26 5.48-11.13 3.38-11.58 1.14M2765 4219.21l-5.32-.7-9.61-3.98-8.26-6.34-6.34-8.26-3.98-9.61-.7-5.32H2765v34.21M2180 4212.22V4180h32.22l-.63 4.8-3.78 9.14-6.02 7.85-7.85 6.02-9.14 3.78-4.8.63M2170 4212.22l-4.81-.63-9.13-3.78-7.85-6.02-6.02-7.85-3.78-9.14-.64-4.8H2170v32.22M2765 4175h-34.21l.7-5.32 3.98-9.61 6.34-8.26 8.26-6.34 9.61-3.98 5.32-.7V4175M2212.22 4170H2180v-32.23l4.8.64 9.14 3.78 7.85 6.02 6.02 7.85 3.78 9.13.63 4.81M2170 4170h-32.23l.64-4.81 3.78-9.13 6.02-7.85 7.85-6.02 9.13-3.78 4.81-.64V4170M3000 3169.21V3135h34.21l-.7 5.32-3.98 9.61-6.34 8.26-8.26 6.34-9.61 3.98-5.32.7"/></mask><path id="HyXqCx63Jb_pad-10" d="M-33.465-21.655h66.93v43.31h-66.93z"/><path id="HyXqCx63Jb_pad-12" d="M-29.53-29.53h59.06v59.06h-59.06z"/><circle id="HyXqCx63Jb_pad-13" r="29.53"/><circle id="HyXqCx63Jb_pad-14" r="19.685"/><path id="HyXqCx63Jb_pad-15" d="M-29.53-29.53h59.06v59.06h-59.06z"/><circle id="HyXqCx63Jb_pad-16" r="27.56"/><mask id="HyXqCx63Jb_clear-1" stroke="#000"><path fill="#fff" d="M2096.85 3096.85h1774.81v1774.81H2096.85z"/><path d="M3810 4834.21V4800h34.21l-.7 5.32-3.98 9.61-6.34 8.26-8.26 6.34-9.61 3.98-5.32.7M3800 4834.21l-5.32-.7-9.61-3.98-8.26-6.34-6.34-8.26-3.98-9.61-.7-5.32H3800v34.21M3093.23 4820.5v-24.28h24.28l-.36 2.75-2.99 7.22-4.76 6.2-6.2 4.76-7.22 2.99-2.75.36M3083.23 4820.5l-2.75-.36-7.22-2.99-6.2-4.76-4.76-6.2-2.99-7.22-.37-2.75h24.29v24.28M3117.51 4786.22h-24.28v-24.28l2.75.36 7.22 2.99 6.2 4.76 4.76 6.2 2.99 7.22.36 2.75M3083.23 4786.22h-24.29l.37-2.75 2.99-7.22 4.76-6.2 6.2-4.76 7.22-2.99 2.75-.36v24.28M2688.23 4850.56l-11.58-1.14-11.13-3.38-10.26-5.48-8.99-7.38-7.38-8.99-5.49-10.26-3.37-11.13-1.14-11.58 1.14-11.58 3.37-11.13 5.49-10.26 7.38-8.99 8.99-7.38 10.26-5.48 11.13-3.38 11.58-1.14 11.58 1.14 11.13 3.38 10.26 5.48 8.99 7.38 7.38 8.99 5.48 10.26 3.38 11.13 1.14 11.58-1.14 11.58-3.38 11.13-5.48 10.26-7.38 8.99-8.99 7.38-10.26 5.48-11.13 3.38-11.58 1.14M2194.53 4655H2160v-34.53h34.53V4655M2150 4655h-34.53v-34.53H2150V4655M3138.9 4248.9h-137.8v-36.64l-5-2.47-6.17 4.74-9.61 3.98-5.32.7v-78.42l5.32.7 9.61 3.98 6.17 4.74 5-2.47v-36.64h137.8v137.8M2888.23 4850.56l-11.58-1.14-11.13-3.38-10.26-5.48-8.99-7.38-18.23-18.23-7.38-8.99-5.48-10.26-3.38-11.13-1.14-11.58v-557.85l-4.62-8.65-.27-.87-4.92-.9-2.66 3.47-8.26 6.34-9.61 3.98-5.32.7v-78.42l5.32.7 9.61 3.98 8.26 6.34 2.66 3.47 4.92-.9.27-.87 6.4-11.97 8.61-10.49 10.49-8.61 11.97-6.4 12.98-3.94 13.51-1.33 13.51 1.33 12.98 3.94 11.97 6.4 10.49 8.61 8.61 10.49 6.4 11.97.27.87 4.92.9 2.66-3.47 8.26-6.34 9.61-3.98 5.32-.7v78.42l-5.32-.7-9.61-3.98-8.26-6.34-2.66-3.47-4.92.9-.27.87-4.62 8.65v533.27l.85.85 7.38 8.99 5.48 10.26 3.38 11.13 1.14 11.58-1.14 11.58-3.38 11.13-5.48 10.26-7.38 8.99-8.99 7.38-10.26 5.48-11.13 3.38-11.58 1.14M2765 4219.21l-5.32-.7-9.61-3.98-8.26-6.34-6.34-8.26-3.98-9.61-.7-5.32H2765v34.21M2180 4212.22V4180h32.22l-.63 4.8-3.78 9.14-6.02 7.85-7.85 6.02-9.14 3.78-4.8.63M2170 4212.22l-4.81-.63-9.13-3.78-7.85-6.02-6.02-7.85-3.78-9.14-.64-4.8H2170v32.22M2765 4175h-34.21l.7-5.32 3.98-9.61 6.34-8.26 8.26-6.34 9.61-3.98 5.32-.7V4175M2212.22 4170H2180v-32.23l4.8.64 9.14 3.78 7.85 6.02 6.02 7.85 3.78 9.13.63 4.81M2170 4170h-32.23l.64-4.81 3.78-9.13 6.02-7.85 7.85-6.02 9.13-3.78 4.81-.64V4170M3000 3169.21V3135h34.21l-.7 5.32-3.98 9.61-6.34 8.26-8.26 6.34-9.61 3.98-5.32.7"/></mask><path id="HyXqCx63Jb_pad-10" d="M-33.465-21.655h66.93v43.31h-66.93z"/><path id="HyXqCx63Jb_pad-12" d="M-29.53-29.53h59.06v59.06h-59.06z"/><circle id="HyXqCx63Jb_pad-13" r="29.53"/><circle id="HyXqCx63Jb_pad-14" r="19.685"/><path id="HyXqCx63Jb_pad-15" d="M-29.53-29.53h59.06v59.06h-59.06z"/><circle id="HyXqCx63Jb_pad-16" r="27.56"/><path id="SkH5ClTh1b_pad-22" d="M-37.465-25.655h74.93v51.31h-74.93z"/><path id="SkH5ClTh1b_pad-23" d="M-33.53-33.53h67.06v67.06h-67.06z"/><circle id="SkH5ClTh1b_pad-24" r="33.53"/><circle id="SkH5ClTh1b_pad-25" r="23.685"/><path id="SkH5ClTh1b_pad-26" d="M-33.53-33.53h67.06v67.06h-67.06z"/><circle id="SkH5ClTh1b_pad-27" r="31.56"/><mask id="HyXqCx63Jb_clear-1" stroke="#000"><path fill="#fff" d="M2096.85 3096.85h1774.81v1774.81H2096.85z"/><path d="M3810 4834.21V4800h34.21l-.7 5.32-3.98 9.61-6.34 8.26-8.26 6.34-9.61 3.98-5.32.7M3800 4834.21l-5.32-.7-9.61-3.98-8.26-6.34-6.34-8.26-3.98-9.61-.7-5.32H3800v34.21M3093.23 4820.5v-24.28h24.28l-.36 2.75-2.99 7.22-4.76 6.2-6.2 4.76-7.22 2.99-2.75.36M3083.23 4820.5l-2.75-.36-7.22-2.99-6.2-4.76-4.76-6.2-2.99-7.22-.37-2.75h24.29v24.28M3117.51 4786.22h-24.28v-24.28l2.75.36 7.22 2.99 6.2 4.76 4.76 6.2 2.99 7.22.36 2.75M3083.23 4786.22h-24.29l.37-2.75 2.99-7.22 4.76-6.2 6.2-4.76 7.22-2.99 2.75-.36v24.28M2688.23 4850.56l-11.58-1.14-11.13-3.38-10.26-5.48-8.99-7.38-7.38-8.99-5.49-10.26-3.37-11.13-1.14-11.58 1.14-11.58 3.37-11.13 5.49-10.26 7.38-8.99 8.99-7.38 10.26-5.48 11.13-3.38 11.58-1.14 11.58 1.14 11.13 3.38 10.26 5.48 8.99 7.38 7.38 8.99 5.48 10.26 3.38 11.13 1.14 11.58-1.14 11.58-3.38 11.13-5.48 10.26-7.38 8.99-8.99 7.38-10.26 5.48-11.13 3.38-11.58 1.14M2194.53 4655H2160v-34.53h34.53V4655M2150 4655h-34.53v-34.53H2150V4655M3138.9 4248.9h-137.8v-36.64l-5-2.47-6.17 4.74-9.61 3.98-5.32.7v-78.42l5.32.7 9.61 3.98 6.17 4.74 5-2.47v-36.64h137.8v137.8M2888.23 4850.56l-11.58-1.14-11.13-3.38-10.26-5.48-8.99-7.38-18.23-18.23-7.38-8.99-5.48-10.26-3.38-11.13-1.14-11.58v-557.85l-4.62-8.65-.27-.87-4.92-.9-2.66 3.47-8.26 6.34-9.61 3.98-5.32.7v-78.42l5.32.7 9.61 3.98 8.26 6.34 2.66 3.47 4.92-.9.27-.87 6.4-11.97 8.61-10.49 10.49-8.61 11.97-6.4 12.98-3.94 13.51-1.33 13.51 1.33 12.98 3.94 11.97 6.4 10.49 8.61 8.61 10.49 6.4 11.97.27.87 4.92.9 2.66-3.47 8.26-6.34 9.61-3.98 5.32-.7v78.42l-5.32-.7-9.61-3.98-8.26-6.34-2.66-3.47-4.92.9-.27.87-4.62 8.65v533.27l.85.85 7.38 8.99 5.48 10.26 3.38 11.13 1.14 11.58-1.14 11.58-3.38 11.13-5.48 10.26-7.38 8.99-8.99 7.38-10.26 5.48-11.13 3.38-11.58 1.14M2765 4219.21l-5.32-.7-9.61-3.98-8.26-6.34-6.34-8.26-3.98-9.61-.7-5.32H2765v34.21M2180 4212.22V4180h32.22l-.63 4.8-3.78 9.14-6.02 7.85-7.85 6.02-9.14 3.78-4.8.63M2170 4212.22l-4.81-.63-9.13-3.78-7.85-6.02-6.02-7.85-3.78-9.14-.64-4.8H2170v32.22M2765 4175h-34.21l.7-5.32 3.98-9.61 6.34-8.26 8.26-6.34 9.61-3.98 5.32-.7V4175M2212.22 4170H2180v-32.23l4.8.64 9.14 3.78 7.85 6.02 6.02 7.85 3.78 9.13.63 4.81M2170 4170h-32.23l.64-4.81 3.78-9.13 6.02-7.85 7.85-6.02 9.13-3.78 4.81-.64V4170M3000 3169.21V3135h34.21l-.7 5.32-3.98 9.61-6.34 8.26-8.26 6.34-9.61 3.98-5.32.7"/></mask><path id="HyXqCx63Jb_pad-10" d="M-33.465-21.655h66.93v43.31h-66.93z"/><path id="HyXqCx63Jb_pad-12" d="M-29.53-29.53h59.06v59.06h-59.06z"/><circle id="HyXqCx63Jb_pad-13" r="29.53"/><circle id="HyXqCx63Jb_pad-14" r="19.685"/><path id="HyXqCx63Jb_pad-15" d="M-29.53-29.53h59.06v59.06h-59.06z"/><circle id="HyXqCx63Jb_pad-16" r="27.56"/><mask id="HyXqCx63Jb_clear-1" stroke="#000"><path fill="#fff" d="M2096.85 3096.85h1774.81v1774.81H2096.85z"/><path d="M3810 4834.21V4800h34.21l-.7 5.32-3.98 9.61-6.34 8.26-8.26 6.34-9.61 3.98-5.32.7M3800 4834.21l-5.32-.7-9.61-3.98-8.26-6.34-6.34-8.26-3.98-9.61-.7-5.32H3800v34.21M3093.23 4820.5v-24.28h24.28l-.36 2.75-2.99 7.22-4.76 6.2-6.2 4.76-7.22 2.99-2.75.36M3083.23 4820.5l-2.75-.36-7.22-2.99-6.2-4.76-4.76-6.2-2.99-7.22-.37-2.75h24.29v24.28M3117.51 4786.22h-24.28v-24.28l2.75.36 7.22 2.99 6.2 4.76 4.76 6.2 2.99 7.22.36 2.75M3083.23 4786.22h-24.29l.37-2.75 2.99-7.22 4.76-6.2 6.2-4.76 7.22-2.99 2.75-.36v24.28M2688.23 4850.56l-11.58-1.14-11.13-3.38-10.26-5.48-8.99-7.38-7.38-8.99-5.49-10.26-3.37-11.13-1.14-11.58 1.14-11.58 3.37-11.13 5.49-10.26 7.38-8.99 8.99-7.38 10.26-5.48 11.13-3.38 11.58-1.14 11.58 1.14 11.13 3.38 10.26 5.48 8.99 7.38 7.38 8.99 5.48 10.26 3.38 11.13 1.14 11.58-1.14 11.58-3.38 11.13-5.48 10.26-7.38 8.99-8.99 7.38-10.26 5.48-11.13 3.38-11.58 1.14M2194.53 4655H2160v-34.53h34.53V4655M2150 4655h-34.53v-34.53H2150V4655M3138.9 4248.9h-137.8v-36.64l-5-2.47-6.17 4.74-9.61 3.98-5.32.7v-78.42l5.32.7 9.61 3.98 6.17 4.74 5-2.47v-36.64h137.8v137.8M2888.23 4850.56l-11.58-1.14-11.13-3.38-10.26-5.48-8.99-7.38-18.23-18.23-7.38-8.99-5.48-10.26-3.38-11.13-1.14-11.58v-557.85l-4.62-8.65-.27-.87-4.92-.9-2.66 3.47-8.26 6.34-9.61 3.98-5.32.7v-78.42l5.32.7 9.61 3.98 8.26 6.34 2.66 3.47 4.92-.9.27-.87 6.4-11.97 8.61-10.49 10.49-8.61 11.97-6.4 12.98-3.94 13.51-1.33 13.51 1.33 12.98 3.94 11.97 6.4 10.49 8.61 8.61 10.49 6.4 11.97.27.87 4.92.9 2.66-3.47 8.26-6.34 9.61-3.98 5.32-.7v78.42l-5.32-.7-9.61-3.98-8.26-6.34-2.66-3.47-4.92.9-.27.87-4.62 8.65v533.27l.85.85 7.38 8.99 5.48 10.26 3.38 11.13 1.14 11.58-1.14 11.58-3.38 11.13-5.48 10.26-7.38 8.99-8.99 7.38-10.26 5.48-11.13 3.38-11.58 1.14M2765 4219.21l-5.32-.7-9.61-3.98-8.26-6.34-6.34-8.26-3.98-9.61-.7-5.32H2765v34.21M2180 4212.22V4180h32.22l-.63 4.8-3.78 9.14-6.02 7.85-7.85 6.02-9.14 3.78-4.8.63M2170 4212.22l-4.81-.63-9.13-3.78-7.85-6.02-6.02-7.85-3.78-9.14-.64-4.8H2170v32.22M2765 4175h-34.21l.7-5.32 3.98-9.61 6.34-8.26 8.26-6.34 9.61-3.98 5.32-.7V4175M2212.22 4170H2180v-32.23l4.8.64 9.14 3.78 7.85 6.02 6.02 7.85 3.78 9.13.63 4.81M2170 4170h-32.23l.64-4.81 3.78-9.13 6.02-7.85 7.85-6.02 9.13-3.78 4.81-.64V4170M3000 3169.21V3135h34.21l-.7 5.32-3.98 9.61-6.34 8.26-8.26 6.34-9.61 3.98-5.32.7"/></mask><path id="HyXqCx63Jb_pad-10" d="M-33.465-21.655h66.93v43.31h-66.93z"/><path id="HyXqCx63Jb_pad-12" d="M-29.53-29.53h59.06v59.06h-59.06z"/><circle id="HyXqCx63Jb_pad-13" r="29.53"/><circle id="HyXqCx63Jb_pad-14" r="19.685"/><path id="HyXqCx63Jb_pad-15" d="M-29.53-29.53h59.06v59.06h-59.06z"/><circle id="HyXqCx63Jb_pad-16" r="27.56"/><mask id="HyXqCx63Jb_clear-1" stroke="#000"><path fill="#fff" d="M2096.85 3096.85h1774.81v1774.81H2096.85z"/><path d="M3810 4834.21V4800h34.21l-.7 5.32-3.98 9.61-6.34 8.26-8.26 6.34-9.61 3.98-5.32.7M3800 4834.21l-5.32-.7-9.61-3.98-8.26-6.34-6.34-8.26-3.98-9.61-.7-5.32H3800v34.21M3093.23 4820.5v-24.28h24.28l-.36 2.75-2.99 7.22-4.76 6.2-6.2 4.76-7.22 2.99-2.75.36M3083.23 4820.5l-2.75-.36-7.22-2.99-6.2-4.76-4.76-6.2-2.99-7.22-.37-2.75h24.29v24.28M3117.51 4786.22h-24.28v-24.28l2.75.36 7.22 2.99 6.2 4.76 4.76 6.2 2.99 7.22.36 2.75M3083.23 4786.22h-24.29l.37-2.75 2.99-7.22 4.76-6.2 6.2-4.76 7.22-2.99 2.75-.36v24.28M2688.23 4850.56l-11.58-1.14-11.13-3.38-10.26-5.48-8.99-7.38-7.38-8.99-5.49-10.26-3.37-11.13-1.14-11.58 1.14-11.58 3.37-11.13 5.49-10.26 7.38-8.99 8.99-7.38 10.26-5.48 11.13-3.38 11.58-1.14 11.58 1.14 11.13 3.38 10.26 5.48 8.99 7.38 7.38 8.99 5.48 10.26 3.38 11.13 1.14 11.58-1.14 11.58-3.38 11.13-5.48 10.26-7.38 8.99-8.99 7.38-10.26 5.48-11.13 3.38-11.58 1.14M2194.53 4655H2160v-34.53h34.53V4655M2150 4655h-34.53v-34.53H2150V4655M3138.9 4248.9h-137.8v-36.64l-5-2.47-6.17 4.74-9.61 3.98-5.32.7v-78.42l5.32.7 9.61 3.98 6.17 4.74 5-2.47v-36.64h137.8v137.8M2888.23 4850.56l-11.58-1.14-11.13-3.38-10.26-5.48-8.99-7.38-18.23-18.23-7.38-8.99-5.48-10.26-3.38-11.13-1.14-11.58v-557.85l-4.62-8.65-.27-.87-4.92-.9-2.66 3.47-8.26 6.34-9.61 3.98-5.32.7v-78.42l5.32.7 9.61 3.98 8.26 6.34 2.66 3.47 4.92-.9.27-.87 6.4-11.97 8.61-10.49 10.49-8.61 11.97-6.4 12.98-3.94 13.51-1.33 13.51 1.33 12.98 3.94 11.97 6.4 10.49 8.61 8.61 10.49 6.4 11.97.27.87 4.92.9 2.66-3.47 8.26-6.34 9.61-3.98 5.32-.7v78.42l-5.32-.7-9.61-3.98-8.26-6.34-2.66-3.47-4.92.9-.27.87-4.62 8.65v533.27l.85.85 7.38 8.99 5.48 10.26 3.38 11.13 1.14 11.58-1.14 11.58-3.38 11.13-5.48 10.26-7.38 8.99-8.99 7.38-10.26 5.48-11.13 3.38-11.58 1.14M2765 4219.21l-5.32-.7-9.61-3.98-8.26-6.34-6.34-8.26-3.98-9.61-.7-5.32H2765v34.21M2180 4212.22V4180h32.22l-.63 4.8-3.78 9.14-6.02 7.85-7.85 6.02-9.14 3.78-4.8.63M2170 4212.22l-4.81-.63-9.13-3.78-7.85-6.02-6.02-7.85-3.78-9.14-.64-4.8H2170v32.22M2765 4175h-34.21l.7-5.32 3.98-9.61 6.34-8.26 8.26-6.34 9.61-3.98 5.32-.7V4175M2212.22 4170H2180v-32.23l4.8.64 9.14 3.78 7.85 6.02 6.02 7.85 3.78 9.13.63 4.81M2170 4170h-32.23l.64-4.81 3.78-9.13 6.02-7.85 7.85-6.02 9.13-3.78 4.81-.64V4170M3000 3169.21V3135h34.21l-.7 5.32-3.98 9.61-6.34 8.26-8.26 6.34-9.61 3.98-5.32.7"/></mask><path id="HyXqCx63Jb_pad-10" d="M-33.465-21.655h66.93v43.31h-66.93z"/><path id="HyXqCx63Jb_pad-12" d="M-29.53-29.53h59.06v59.06h-59.06z"/><circle id="HyXqCx63Jb_pad-13" r="29.53"/><circle id="HyXqCx63Jb_pad-14" r="19.685"/><path id="HyXqCx63Jb_pad-15" d="M-29.53-29.53h59.06v59.06h-59.06z"/><circle id="HyXqCx63Jb_pad-16" r="27.56"/><mask id="HyXqCx63Jb_clear-1" stroke="#000"><path fill="#fff" d="M2096.85 3096.85h1774.81v1774.81H2096.85z"/><path d="M3810 4834.21V4800h34.21l-.7 5.32-3.98 9.61-6.34 8.26-8.26 6.34-9.61 3.98-5.32.7M3800 4834.21l-5.32-.7-9.61-3.98-8.26-6.34-6.34-8.26-3.98-9.61-.7-5.32H3800v34.21M3093.23 4820.5v-24.28h24.28l-.36 2.75-2.99 7.22-4.76 6.2-6.2 4.76-7.22 2.99-2.75.36M3083.23 4820.5l-2.75-.36-7.22-2.99-6.2-4.76-4.76-6.2-2.99-7.22-.37-2.75h24.29v24.28M3117.51 4786.22h-24.28v-24.28l2.75.36 7.22 2.99 6.2 4.76 4.76 6.2 2.99 7.22.36 2.75M3083.23 4786.22h-24.29l.37-2.75 2.99-7.22 4.76-6.2 6.2-4.76 7.22-2.99 2.75-.36v24.28M2688.23 4850.56l-11.58-1.14-11.13-3.38-10.26-5.48-8.99-7.38-7.38-8.99-5.49-10.26-3.37-11.13-1.14-11.58 1.14-11.58 3.37-11.13 5.49-10.26 7.38-8.99 8.99-7.38 10.26-5.48 11.13-3.38 11.58-1.14 11.58 1.14 11.13 3.38 10.26 5.48 8.99 7.38 7.38 8.99 5.48 10.26 3.38 11.13 1.14 11.58-1.14 11.58-3.38 11.13-5.48 10.26-7.38 8.99-8.99 7.38-10.26 5.48-11.13 3.38-11.58 1.14M2194.53 4655H2160v-34.53h34.53V4655M2150 4655h-34.53v-34.53H2150V4655M3138.9 4248.9h-137.8v-36.64l-5-2.47-6.17 4.74-9.61 3.98-5.32.7v-78.42l5.32.7 9.61 3.98 6.17 4.74 5-2.47v-36.64h137.8v137.8M2888.23 4850.56l-11.58-1.14-11.13-3.38-10.26-5.48-8.99-7.38-18.23-18.23-7.38-8.99-5.48-10.26-3.38-11.13-1.14-11.58v-557.85l-4.62-8.65-.27-.87-4.92-.9-2.66 3.47-8.26 6.34-9.61 3.98-5.32.7v-78.42l5.32.7 9.61 3.98 8.26 6.34 2.66 3.47 4.92-.9.27-.87 6.4-11.97 8.61-10.49 10.49-8.61 11.97-6.4 12.98-3.94 13.51-1.33 13.51 1.33 12.98 3.94 11.97 6.4 10.49 8.61 8.61 10.49 6.4 11.97.27.87 4.92.9 2.66-3.47 8.26-6.34 9.61-3.98 5.32-.7v78.42l-5.32-.7-9.61-3.98-8.26-6.34-2.66-3.47-4.92.9-.27.87-4.62 8.65v533.27l.85.85 7.38 8.99 5.48 10.26 3.38 11.13 1.14 11.58-1.14 11.58-3.38 11.13-5.48 10.26-7.38 8.99-8.99 7.38-10.26 5.48-11.13 3.38-11.58 1.14M2765 4219.21l-5.32-.7-9.61-3.98-8.26-6.34-6.34-8.26-3.98-9.61-.7-5.32H2765v34.21M2180 4212.22V4180h32.22l-.63 4.8-3.78 9.14-6.02 7.85-7.85 6.02-9.14 3.78-4.8.63M2170 4212.22l-4.81-.63-9.13-3.78-7.85-6.02-6.02-7.85-3.78-9.14-.64-4.8H2170v32.22M2765 4175h-34.21l.7-5.32 3.98-9.61 6.34-8.26 8.26-6.34 9.61-3.98 5.32-.7V4175M2212.22 4170H2180v-32.23l4.8.64 9.14 3.78 7.85 6.02 6.02 7.85 3.78 9.13.63 4.81M2170 4170h-32.23l.64-4.81 3.78-9.13 6.02-7.85 7.85-6.02 9.13-3.78 4.81-.64V4170M3000 3169.21V3135h34.21l-.7 5.32-3.98 9.61-6.34 8.26-8.26 6.34-9.61 3.98-5.32.7"/></mask><path id="HyXqCx63Jb_pad-10" d="M-33.465-21.655h66.93v43.31h-66.93z"/><path id="HyXqCx63Jb_pad-12" d="M-29.53-29.53h59.06v59.06h-59.06z"/><circle id="HyXqCx63Jb_pad-13" r="29.53"/><circle id="HyXqCx63Jb_pad-14" r="19.685"/><path id="HyXqCx63Jb_pad-15" d="M-29.53-29.53h59.06v59.06h-59.06z"/><circle id="HyXqCx63Jb_pad-16" r="27.56"/><path id="SkH5ClTh1b_pad-22" d="M-37.465-25.655h74.93v51.31h-74.93z"/><path id="SkH5ClTh1b_pad-23" d="M-33.53-33.53h67.06v67.06h-67.06z"/><circle id="SkH5ClTh1b_pad-24" r="33.53"/><circle id="SkH5ClTh1b_pad-25" r="23.685"/><path id="SkH5ClTh1b_pad-26" d="M-33.53-33.53h67.06v67.06h-67.06z"/><circle id="SkH5ClTh1b_pad-27" r="31.56"/><circle id="ByI5Axph1b_pad-1" r="9.84"/><circle id="ByI5Axph1b_pad-2" r="13.78"/><circle id="ByI5Axph1b_pad-3" r="16.73"/><circle id="ByI5Axph1b_pad-4" r="17.715"/><g id="pcb-stackup_top_cu"><g mask="url(#HyXqCx63Jb_clear-1)"><path d="M3871.66 4763.9h-34.4l-2.47 5 4.74 6.17 3.98 9.61.7 5.32h-78.42l.7-5.32 3.98-9.61 4.74-6.17-2.47-5h-36.64v-53.88l-343.06-343.06-7.38-8.99-5.48-10.26-3.38-11.13-1.14-11.58v-971.1H3251.1v-137.8h137.8v11.76l4.52 2.14 3.12-2.56 11.97-6.4 12.98-3.94 13.51-1.33 13.51 1.33 12.98 3.94 11.97 6.4 10.49 8.61 8.61 10.49 6.4 11.97 3.94 12.98 1.33 13.51-1.33 13.51-3.94 12.98-4.62 8.65v980.28l325.68 325.68h51.64V3096.85H3024.5l-1.6 4.73.29.23 6.34 8.26 3.98 9.61.7 5.32H2995v5h-5v39.21l-5.32-.7-9.61-3.98-6.17-4.74-5 2.47v36.64h-9.56V3505l-1.14 11.58-3.38 11.13-5.48 10.26-7.38 8.99-7.62 7.62v263.36l5 3 9.17-4.9 12.98-3.94 13.51-1.33 13.51 1.33 12.98 3.94 11.97 6.4 7.88 6.46 3.66 1.67 3.66-1.67 7.88-6.46 11.97-6.4 12.98-3.94 13.51-1.33 13.51 1.33 12.98 3.94 11.97 6.4 10.49 8.61 8.61 10.49 6.4 11.97 3.94 12.98 1.33 13.51-1.33 13.51-3.94 12.98-6.4 11.97-8.61 10.49-10.49 8.61-11.97 6.4-12.98 3.94-13.51 1.33-13.51-1.33-12.98-3.94-11.97-6.4-7.88-6.46-3.66-1.67-3.66 1.67-7.88 6.46-11.97 6.4-12.98 3.94-13.51 1.33-13.51-1.33-12.98-3.94-11.97-6.4-7.88-6.46-3.66-1.67-3.66 1.67-7.88 6.46-11.97 6.4-12.98 3.94-13.51 1.33-13.51-1.33-12.98-3.94-11.97-6.4-7.88-6.46-3.66-1.67-3.66 1.67-7.88 6.46-11.97 6.4-12.98 3.94-13.51 1.33-13.51-1.33-12.98-3.94-11.97-6.4-10.49-8.61-8.61-10.49-6.4-11.97-2.85-9.38-425.74-425.74-4.61 1.92v50.88h-38.5v319.87l2.79 5.22 3.83 12.62 1.29 13.12-1.29 13.12-3.83 12.62-6.21 11.62-8.37 10.19-10.19 8.37-11.62 6.21-12.62 3.83-13.12 1.29-13.12-1.29-12.62-3.83-11.62-6.21-10.2-8.37-8.36-10.19-6.21-11.62-3.83-12.62-1.29-13.12 1.29-13.12 3.83-12.62 2.79-5.22v-380.89l1.14-11.58 3.38-11.13 5.48-10.26 1.51-1.83V3295.83h145.67v7.95l6.98 3.73 8.99 7.38 498.3 498.3 9.38 2.85 9.17 4.9 5-3V3530l1.14-11.58 3.38-11.13 5.48-10.26 7.38-8.99 7.62-7.62V3198.9h-9.56v-102.05h-729.25v1617.52l5 1.79 4.2-5.11 8.18-6.72 1.24-4.8V4665h79.06v34.53l1.15 4.73 8.27 6.79 8.61 10.49 6.4 11.97 3.94 12.98 1.33 13.51-1.33 13.51-3.94 12.98-6.4 11.97-8.61 10.49-10.49 8.61-11.97 6.4-12.98 3.94-13.51 1.33-13.51-1.33-12.98-3.94-11.97-6.4-10.49-8.61-4.2-5.11-5 1.79v66.03h1774.81V4763.9"/></g><use x="2200" y="3356.85" xlink:href="#HyXqCx63Jb_pad-10"/><use x="2200" y="3463.15" xlink:href="#HyXqCx63Jb_pad-10"/><path fill="none" stroke-width="39.37" d="M2175 3463.15V3875m-20 320v465m0-465l20-20m0-711.85h25m0-106.3h46.85L2770 3880m100 300v592.99l18.23 18.23M2970 4100v80m0-80l70-70h60l59-59m0-677v677m-164-841l164 164m276 1031l370 370m-370-1410v1040m-465-145v492.99l118.23 118.23M2870 3530v350m0-350l25-25m0-375v375"/><use x="2155" y="4660" xlink:href="#HyXqCx63Jb_pad-12"/><use x="3805" y="4695" xlink:href="#HyXqCx63Jb_pad-12"/><use x="3070" y="4180" xlink:href="#HyXqCx63Jb_pad-12"/><use x="2155" y="4760" xlink:href="#HyXqCx63Jb_pad-13"/><use x="3805" y="4795" xlink:href="#HyXqCx63Jb_pad-13"/><use x="3435" y="3285" xlink:href="#HyXqCx63Jb_pad-13"/><use x="2770" y="3880" xlink:href="#HyXqCx63Jb_pad-13"/><use x="2870" y="3880" xlink:href="#HyXqCx63Jb_pad-13"/><use x="2970" y="3880" xlink:href="#HyXqCx63Jb_pad-13"/><use x="3070" y="3880" xlink:href="#HyXqCx63Jb_pad-13"/><use x="2770" y="4180" xlink:href="#HyXqCx63Jb_pad-13"/><use x="2870" y="4180" xlink:href="#HyXqCx63Jb_pad-13"/><use x="2970" y="4180" xlink:href="#HyXqCx63Jb_pad-13"/><use x="2995" y="3130" xlink:href="#HyXqCx63Jb_pad-13"/><use x="2688.23" y="4791.22" xlink:href="#HyXqCx63Jb_pad-14"/><use x="2888.23" y="4791.22" xlink:href="#HyXqCx63Jb_pad-14"/><use x="3088.23" y="4791.22" xlink:href="#HyXqCx63Jb_pad-14"/><use x="3320" y="3285" xlink:href="#HyXqCx63Jb_pad-15"/><use x="2895" y="3130" xlink:href="#HyXqCx63Jb_pad-15"/><use x="2175" y="3875" xlink:href="#HyXqCx63Jb_pad-16"/><use x="2175" y="4175" xlink:href="#HyXqCx63Jb_pad-16"/></g><g id="pcb-stackup_top_ss"><path fill="none" stroke-width="10" d="M3473.99 3285a99 99 0 0 1-198 0 99 99 0 0 1 198 0M3215 4555v283.46M2561.46 4555H3215m-653.54 283.46H3215M2561.46 4555v283.46m-449.96 65.02v-39.99l19.99-19.99 20 19.99v39.99m19.99-59.98h19.99-9.99v39.99h-10m49.98-39.99v39.99h30l9.99-10v-29.99M2565 5498v59.98h29.99l10-10v-19.99l-10-10H2565m19.99 0l20-19.99m59.98 0h-39.99l39.99 39.99v9.99l-10 10h-19.99l-10-10m1136.52-609.5v-39.99l19.99-19.99 20 19.99v39.99m29.99-59.98h19.99l10 10v19.99l-10 10h-19.99l-10-10v-19.99l10-10m49.98 39.99v-29.99l10-10h29.99v39.99m29.99 9.99v-9.99h-10 20-10v-29.99l10-10m-697.45-1409.52l-10 10H3234l-10-10V3429l10-10h19.99l10 10m59.98-10h-39.99l39.99 39.99v9.99l-10 10h-19.99l-10-10m-560.98 835V4254l10-10h19.99l10 10v49.98m19.99-59.98h19.99-9.99v59.98l-10-10m-571.99-723l-10 10H2181l-10-10V3531l10-10h19.99l10 10m19.99-10h19.99-9.99v59.98l-10-10M2151 4237v59.98h29.99l10-10v-19.99l-10-10H2151m19.99 0l20-19.99m19.99 0h19.99-9.99v59.98l-10-10m640.02-1013v-39.99l19.99-19.99 20 19.99v39.99m19.99-59.98h29.99l10 10-10 9.99h-19.99l-10 10 10 10h29.99"/><path fill="none" stroke-width="23.62" d="M3095.2 4094.96a11.81 11.81 0 0 1-23.62 0 11.81 11.81 0 0 1 23.62 0"/><path fill="none" stroke-width="9.84" d="M3126.1 4180a4.92 4.92 0 0 1-9.84 0 4.92 4.92 0 0 1 9.84 0"/><path fill="none" stroke-width="7.87" d="M3122.76 4055a25 25 0 0 1 0-50M2105 4810h100m0-200v200m-100-200h100m-100 0v200m1650 35h100m0-200v200m-100-200h100m-100 0v200m-1037.76-919.33v208.66m405.52-208.66V4005m0 50v79.33m-405.52-208.66h405.52m-405.52 208.66h405.52m-952.29-740.08v31.5m59.06-31.5v31.5M2175 3925h30v200m-60 0h60m-60-200v200m0-200h30m0 200v9m0-218v9m870-845v100m-200-100h200m-200 0v100h200"/><path fill="none" stroke-width="5.91" d="M3220 3284.52h39.36m-19.68 19.68v-39.36"/></g><g id="pcb-stackup_top_sm"><use x="2200" y="3356.85" xlink:href="#SkH5ClTh1b_pad-22"/><use x="2200" y="3463.15" xlink:href="#SkH5ClTh1b_pad-22"/><use x="2155" y="4660" xlink:href="#SkH5ClTh1b_pad-23"/><use x="3805" y="4695" xlink:href="#SkH5ClTh1b_pad-23"/><use x="3070" y="4180" xlink:href="#SkH5ClTh1b_pad-23"/><use x="2155" y="4760" xlink:href="#SkH5ClTh1b_pad-24"/><use x="3805" y="4795" xlink:href="#SkH5ClTh1b_pad-24"/><use x="3435" y="3285" xlink:href="#SkH5ClTh1b_pad-24"/><use x="2770" y="3880" xlink:href="#SkH5ClTh1b_pad-24"/><use x="2870" y="3880" xlink:href="#SkH5ClTh1b_pad-24"/><use x="2970" y="3880" xlink:href="#SkH5ClTh1b_pad-24"/><use x="3070" y="3880" xlink:href="#SkH5ClTh1b_pad-24"/><use x="2770" y="4180" xlink:href="#SkH5ClTh1b_pad-24"/><use x="2870" y="4180" xlink:href="#SkH5ClTh1b_pad-24"/><use x="2970" y="4180" xlink:href="#SkH5ClTh1b_pad-24"/><use x="2995" y="3130" xlink:href="#SkH5ClTh1b_pad-24"/><use x="2688.23" y="4791.22" xlink:href="#SkH5ClTh1b_pad-25"/><use x="2888.23" y="4791.22" xlink:href="#SkH5ClTh1b_pad-25"/><use x="3088.23" y="4791.22" xlink:href="#SkH5ClTh1b_pad-25"/><use x="3320" y="3285" xlink:href="#SkH5ClTh1b_pad-26"/><use x="2895" y="3130" xlink:href="#SkH5ClTh1b_pad-26"/><use x="2175" y="3875" xlink:href="#SkH5ClTh1b_pad-27"/><use x="2175" y="4175" xlink:href="#SkH5ClTh1b_pad-27"/></g><g id="pcb-stackup_top_drl1"><use x="2688.23" y="4791.22" xlink:href="#ByI5Axph1b_pad-1"/><use x="2888.23" y="4791.22" xlink:href="#ByI5Axph1b_pad-1"/><use x="3088.23" y="4791.22" xlink:href="#ByI5Axph1b_pad-1"/><use x="3320" y="3285" xlink:href="#ByI5Axph1b_pad-2"/><use x="3435" y="3285" xlink:href="#ByI5Axph1b_pad-2"/><use x="2175" y="3875" xlink:href="#ByI5Axph1b_pad-3"/><use x="2175" y="4175" xlink:href="#ByI5Axph1b_pad-3"/><use x="2895" y="3130" xlink:href="#ByI5Axph1b_pad-4"/><use x="2995" y="3130" xlink:href="#ByI5Axph1b_pad-4"/><use x="2970" y="3880" xlink:href="#ByI5Axph1b_pad-4"/><use x="2870" y="3880" xlink:href="#ByI5Axph1b_pad-4"/><use x="2770" y="3880" xlink:href="#ByI5Axph1b_pad-4"/><use x="3070" y="3880" xlink:href="#ByI5Axph1b_pad-4"/><use x="3070" y="4180" xlink:href="#ByI5Axph1b_pad-4"/><use x="2970" y="4180" xlink:href="#ByI5Axph1b_pad-4"/><use x="2870" y="4180" xlink:href="#ByI5Axph1b_pad-4"/><use x="2770" y="4180" xlink:href="#ByI5Axph1b_pad-4"/><use x="2155" y="4660" xlink:href="#ByI5Axph1b_pad-4"/><use x="3805" y="4695" xlink:href="#ByI5Axph1b_pad-4"/><use x="3805" y="4795" xlink:href="#ByI5Axph1b_pad-4"/><use x="2155" y="4760" xlink:href="#ByI5Axph1b_pad-4"/></g><clipPath id="pcb-stackup_top_out"><path fill="none" stroke-width="11.81" d="M2051.18 3051.18v1866.14h1866.14V3051.18H2051.18"/></clipPath><mask id="pcb-stackup_top_mech-mask"><g stroke="#000"><path fill="#fff" d="M2051.18 3051.18h1866.14v1866.14H2051.18z"/><use xlink:href="#pcb-stackup_top_drl1"/></g></mask><mask id="pcb-stackup_top_cf-mask"><g fill="#fff" stroke="#fff"><use xlink:href="#pcb-stackup_top_sm"/></g></mask><mask id="pcb-stackup_top_sm-mask"><g stroke="#000"><path fill="#fff" d="M2051.18 3051.18h1866.14v1866.14H2051.18z"/><use xlink:href="#pcb-stackup_top_sm"/></g></mask></defs><g><g mask="url(#pcb-stackup_top_mech-mask)" clip-path="url(#pcb-stackup_top_out)" transform="matrix(1 0 0 -1 0 7968.5)"><path fill="currentColor" d="M2051.18 3051.18h1866.14v1866.14H2051.18z" class="pcb-stackup_fr4"/><use fill="currentColor" stroke="currentColor" xlink:href="#pcb-stackup_top_cu" class="pcb-stackup_cu"/><use fill="currentColor" stroke="currentColor" xlink:href="#pcb-stackup_top_cu" class="pcb-stackup_cf" mask="url(#pcb-stackup_top_cf-mask)"/><g mask="url(#pcb-stackup_top_sm-mask)"><path fill="currentColor" d="M2051.18 3051.18h1866.14v1866.14H2051.18z" class="pcb-stackup_sm"/><use fill="currentColor" stroke="currentColor" xlink:href="#pcb-stackup_top_ss" class="pcb-stackup_ss"/></g></g></g></svg>