<svg xmlns="http://www.w3.org/2000/svg" id="pcb-stackup_bottom" fill-rule="evenodd" stroke-width="0" stroke-linecap="round" stroke-linejoin="round" xmlns:xlink="http://www.w3.org/1999/xlink" clip-rule="evenodd" viewBox="312.1 115 1100 1050"><defs><style>.pcb-stackup_fr4 {color: #4D542C;} .pcb-stackup_cu {color: lightgrey;} .pcb-stackup_cf {color: goldenrod;} .pcb-stackup_sm {color: #2E0051; opacity: 0.9;} .pcb-stackup_ss {color: white;} .pcb-stackup_sp {color: #000000; opacity: 0;} .pcb-stackup_out {color: black;}</style><path id="BkgunxphJW_pad-10" d="M-79.9-29.9H79.9v59.8H-79.9z"/><circle id="BkgunxphJW_pad-12" r="9"/><path id="BkgunxphJW_pad-10" d="M-79.9-29.9H79.9v59.8H-79.9z"/><circle id="BkgunxphJW_pad-12" r="9"/><path id="BkgunxphJW_pad-10" d="M-79.9-29.9H79.9v59.8H-79.9z"/><circle id="BkgunxphJW_pad-12" r="9"/><path id="BkgunxphJW_pad-10" d="M-79.9-29.9H79.9v59.8H-79.9z"/><circle id="BkgunxphJW_pad-12" r="9"/><path id="ByfOng6ny-_pad-10" d="M-83.9-33.9H83.9v67.8H-83.9z"/><path id="BkgunxphJW_pad-10" d="M-79.9-29.9H79.9v59.8H-79.9z"/><circle id="BkgunxphJW_pad-12" r="9"/><path id="BkgunxphJW_pad-10" d="M-79.9-29.9H79.9v59.8H-79.9z"/><circle id="BkgunxphJW_pad-12" r="9"/><path id="BkgunxphJW_pad-10" d="M-79.9-29.9H79.9v59.8H-79.9z"/><circle id="BkgunxphJW_pad-12" r="9"/><path id="BkgunxphJW_pad-10" d="M-79.9-29.9H79.9v59.8H-79.9z"/><circle id="BkgunxphJW_pad-12" r="9"/><path id="ByfOng6ny-_pad-10" d="M-83.9-33.9H83.9v67.8H-83.9z"/><circle id="B1md2x63kb_pad-1" r="5"/><path id="BkgunxphJW_pad-10" d="M-79.9-29.9H79.9v59.8H-79.9z"/><circle id="BkgunxphJW_pad-12" r="9"/><path id="BkgunxphJW_pad-10" d="M-79.9-29.9H79.9v59.8H-79.9z"/><circle id="BkgunxphJW_pad-12" r="9"/><path id="BkgunxphJW_pad-10" d="M-79.9-29.9H79.9v59.8H-79.9z"/><circle id="BkgunxphJW_pad-12" r="9"/><path id="BkgunxphJW_pad-10" d="M-79.9-29.9H79.9v59.8H-79.9z"/><circle id="BkgunxphJW_pad-12" r="9"/><path id="ByfOng6ny-_pad-10" d="M-83.9-33.9H83.9v67.8H-83.9z"/><path id="BkgunxphJW_pad-10" d="M-79.9-29.9H79.9v59.8H-79.9z"/><circle id="BkgunxphJW_pad-12" r="9"/><path id="BkgunxphJW_pad-10" d="M-79.9-29.9H79.9v59.8H-79.9z"/><circle id="BkgunxphJW_pad-12" r="9"/><path id="BkgunxphJW_pad-10" d="M-79.9-29.9H79.9v59.8H-79.9z"/><circle id="BkgunxphJW_pad-12" r="9"/><path id="BkgunxphJW_pad-10" d="M-79.9-29.9H79.9v59.8H-79.9z"/><circle id="BkgunxphJW_pad-12" r="9"/><path id="ByfOng6ny-_pad-10" d="M-83.9-33.9H83.9v67.8H-83.9z"/><circle id="B1md2x63kb_pad-1" r="5"/><g id="pcb-stackup_bottom_cu"><use x="407" y="588.5" xlink:href="#BkgunxphJW_pad-10"/><use x="407" y="781.5" xlink:href="#BkgunxphJW_pad-10"/><use x="1317.2" y="781.5" xlink:href="#BkgunxphJW_pad-10"/><use x="1317.2" y="588.5" xlink:href="#BkgunxphJW_pad-10"/><path fill="none" stroke-width="10" d="M332.1 543.6V135h1060v408.6h-69.9v39.9h-10v-39.9h-76.9l-3.8 1-3.4 2-2.8 2.8-2 3.4-1 3.8v26.9h89.9v10h-89.9v26.9l1 3.9 2 3.4 2.8 2.8 3.4 1.9 3.8 1.1h76.9v-40h10v40h69.9v103h-69.9v40h-99.9v-26.9l1-3.9 2-3.4 2.8-2.8 3.4-1.9 3.8-1.1h76.9v89.9h-76.9l-3.8-1-3.4-2-2.8-2.8-2-3.4-1-3.8v-26.9h99.9v39.9h69.9V1145h-1060V826.4H402v-39.9h10v39.9h76.9l3.8-1 3.4-2 2.8-2.8 2-3.4 1-3.8v-26.9H412v-10h89.9v-26.9l-1-3.9-2-3.4-2.8-2.8-3.4-1.9-3.8-1.1H412v40h-10v-40h-69.9v-103H402v-40h99.9v26.9l-1 3.9-2 3.4-2.8 2.8-3.4 1.9-3.8 1.1H412v-89.9h76.9l3.8 1 3.4 2 2.8 2.8 2 3.4 1 3.8v26.9H402v-39.9h-69.9m0-5h1060m0-9.9h-1060m0-9.8h1060m0-9.9h-1060m0-9.8h1060m0-9.9h-1060m0-9.8h1060m0-9.9h-1060m0-9.8h1060m0-9.9h-1060m0-9.8h1060m0-9.9h-1060m0-9.8h1060m0-9.9h-1060m0-9.8h1060m0-9.9h-1060m0-9.8h1060m0-9.9h-1060m0-9.8h1060m0-9.9h-1060m0-9.8h1060m0-9.9h-1060m0-9.8h1060m0-9.9h-1060m0-9.8h1060m0-9.9h-1060m0-9.8h1060m0-9.9h-1060m0-9.8h1060m0-9.9h-1060m0-9.8h1060m0-9.9h-1060m0-9.8h1060m0-9.9h-1060m0-9.8h1060m0-9.9h-1060m0-9.8h1060m0-9.9h-1060m0-9.8h1060m0-9.9h-1060m0-9.8h1060m-69.9 403.8h-10m0 9.9h10m0 9.8h-10m0 9.9h10m-10 9.8H412m0-9.8h-10m0-9.9h10m0-9.8h-10m0-9.9h10m0 49.3h-10m0 9.8h10m0 9.9h-10m0 9.8h10m-79.9 9.9h1060m0 9.8h-1060m0 9.9h1060m0 9.8h-1060m0 9.9h1060m0 9.8h-1060m0 9.9h1060m0 9.8h-1060m0 9.9h1060m0 9.8h-1060m0 9.9h1060m-69.9 9.8h-10m0 9.9h10m0 9.8h-10m0 9.9h10m-10 9.8H686.1m0-7.7v15.8L675 804h-15.8l-11.1-11.1v-15.8l4.6-4.6-4.6-4.6v-15.8l11.1-11.1H675l11.1 11.1v15.8l-4.6 4.6 4.6 4.6m-2.2-2.1h538.4m0-9.9H686.1m0-9.8h536.2m1.2-9.9H679.4m-24.6 0H500.7m1.2 9.9h146.2m0 9.8H501.9m0 9.9h148.4m-2.2 9.8H412m0-9.8h-10m0-9.9h10m0-9.8h-10m0-9.9h10m0 49.3h-10m0 9.8h10m0 9.9h-10m0 9.8h10m-79.9 9.9h1060m0 9.8h-1060m0 9.9h1060m0 9.8h-1060m0 9.9h1060m0 9.8h-1060m0 9.9h1060m0 9.8h-1060m0 9.9h1060m0 9.8H946.7m4.4 4.4L940 916h-15.8l-9.6 9.6-9.6-9.6h-15.8l-11.1 11.1v15.8l11.1 11.1H905l9.6-9.6 9.6 9.6H940l11.1-11.1v-15.8m0 5.5h441m0 9.8h-441m-9.4 9.9h450.4m0 9.8h-1060m0-9.8h555.4m-9.4-9.9h-546m0-9.8h546m4.4-9.9H332.1m0 49.3h1060m0 9.8h-1060m0 9.9h1060m0 9.8h-1060m0 9.9h1060m0 9.8h-1060m0 9.9h1060m0 9.8h-1060m0 9.9h1060m0 9.8h-1060m0 9.9h1060m0 9.8h-1060m0 9.9h1060m0 9.8h-1060m0 9.9h1060m0 9.8h-1060m0 9.9h1060m0 9.8h-1060m162.6-315.2h734.8m-6.9-9.8h-721m.3-9.9h720.4m0-9.8h-538m-34.4 0h-148m-2.7-167.5H1225m-2.7-9.8H501.9m0-9.9h720.4m0-9.8H501.9m0-19.7h720.4m0-9.9H501.9m0-9.8h720.4m4-9.9H497.9m413.8 374.3h5.8m5 29.6h-15.8m405.5-128.1h10m0-9.8h-10m0-9.9h10m0-9.8h-10m0-167.5h10m0-9.8h-10m0-9.9h10m0-9.8h-10"/><use x="1312.1" y="515" xlink:href="#BkgunxphJW_pad-12"/><use x="1362.1" y="515" xlink:href="#BkgunxphJW_pad-12"/><use x="1362.1" y="465" xlink:href="#BkgunxphJW_pad-12"/><use x="1362.1" y="415" xlink:href="#BkgunxphJW_pad-12"/><use x="1362.1" y="365" xlink:href="#BkgunxphJW_pad-12"/><use x="1362.1" y="315" xlink:href="#BkgunxphJW_pad-12"/><use x="1362.1" y="265" xlink:href="#BkgunxphJW_pad-12"/><use x="1362.1" y="215" xlink:href="#BkgunxphJW_pad-12"/><use x="1362.1" y="165" xlink:href="#BkgunxphJW_pad-12"/><use x="1312.1" y="165" xlink:href="#BkgunxphJW_pad-12"/><use x="1262.1" y="165" xlink:href="#BkgunxphJW_pad-12"/><use x="1212.1" y="165" xlink:href="#BkgunxphJW_pad-12"/><use x="1162.1" y="165" xlink:href="#BkgunxphJW_pad-12"/><use x="1112.1" y="165" xlink:href="#BkgunxphJW_pad-12"/><use x="1062.1" y="165" xlink:href="#BkgunxphJW_pad-12"/><use x="1012.1" y="165" xlink:href="#BkgunxphJW_pad-12"/><use x="962.1" y="165" xlink:href="#BkgunxphJW_pad-12"/><use x="912.1" y="165" xlink:href="#BkgunxphJW_pad-12"/><use x="862.1" y="165" xlink:href="#BkgunxphJW_pad-12"/><use x="812.1" y="165" xlink:href="#BkgunxphJW_pad-12"/><use x="762.1" y="165" xlink:href="#BkgunxphJW_pad-12"/><use x="712.1" y="165" xlink:href="#BkgunxphJW_pad-12"/><use x="662.1" y="165" xlink:href="#BkgunxphJW_pad-12"/><use x="612.1" y="165" xlink:href="#BkgunxphJW_pad-12"/><use x="562.1" y="165" xlink:href="#BkgunxphJW_pad-12"/><use x="512.1" y="165" xlink:href="#BkgunxphJW_pad-12"/><use x="462.1" y="165" xlink:href="#BkgunxphJW_pad-12"/><use x="412.1" y="165" xlink:href="#BkgunxphJW_pad-12"/><use x="362.1" y="165" xlink:href="#BkgunxphJW_pad-12"/><use x="362.1" y="215" xlink:href="#BkgunxphJW_pad-12"/><use x="362.1" y="265" xlink:href="#BkgunxphJW_pad-12"/><use x="362.1" y="315" xlink:href="#BkgunxphJW_pad-12"/><use x="362.1" y="365" xlink:href="#BkgunxphJW_pad-12"/><use x="362.1" y="415" xlink:href="#BkgunxphJW_pad-12"/><use x="362.1" y="465" xlink:href="#BkgunxphJW_pad-12"/><use x="362.1" y="515" xlink:href="#BkgunxphJW_pad-12"/><use x="412.1" y="515" xlink:href="#BkgunxphJW_pad-12"/><use x="462.1" y="515" xlink:href="#BkgunxphJW_pad-12"/><use x="462.1" y="465" xlink:href="#BkgunxphJW_pad-12"/><use x="462.1" y="415" xlink:href="#BkgunxphJW_pad-12"/><use x="462.1" y="365" xlink:href="#BkgunxphJW_pad-12"/><use x="462.1" y="315" xlink:href="#BkgunxphJW_pad-12"/><use x="462.1" y="265" xlink:href="#BkgunxphJW_pad-12"/><use x="587.1" y="290" xlink:href="#BkgunxphJW_pad-12"/><use x="637.1" y="290" xlink:href="#BkgunxphJW_pad-12"/><use x="687.1" y="290" xlink:href="#BkgunxphJW_pad-12"/><use x="737.1" y="290" xlink:href="#BkgunxphJW_pad-12"/><use x="787.1" y="290" xlink:href="#BkgunxphJW_pad-12"/><use x="837.1" y="290" xlink:href="#BkgunxphJW_pad-12"/><use x="887.1" y="290" xlink:href="#BkgunxphJW_pad-12"/><use x="937.1" y="290" xlink:href="#BkgunxphJW_pad-12"/><use x="987.1" y="290" xlink:href="#BkgunxphJW_pad-12"/><use x="1037.1" y="290" xlink:href="#BkgunxphJW_pad-12"/><use x="1087.1" y="290" xlink:href="#BkgunxphJW_pad-12"/><use x="1137.1" y="290" xlink:href="#BkgunxphJW_pad-12"/><use x="1137.1" y="340" xlink:href="#BkgunxphJW_pad-12"/><use x="1137.1" y="390" xlink:href="#BkgunxphJW_pad-12"/><use x="1137.1" y="440" xlink:href="#BkgunxphJW_pad-12"/><use x="1137.1" y="490" xlink:href="#BkgunxphJW_pad-12"/><use x="1137.1" y="540" xlink:href="#BkgunxphJW_pad-12"/><use x="1112.1" y="560" xlink:href="#BkgunxphJW_pad-12"/><use x="1137.1" y="590" xlink:href="#BkgunxphJW_pad-12"/><use x="1112.1" y="615" xlink:href="#BkgunxphJW_pad-12"/><use x="1137.1" y="640" xlink:href="#BkgunxphJW_pad-12"/><use x="1182.1" y="660" xlink:href="#BkgunxphJW_pad-12"/><use x="1217.1" y="660" xlink:href="#BkgunxphJW_pad-12"/><use x="1217.1" y="710" xlink:href="#BkgunxphJW_pad-12"/><use x="1182.1" y="710" xlink:href="#BkgunxphJW_pad-12"/><use x="1137.1" y="710" xlink:href="#BkgunxphJW_pad-12"/><use x="1137.1" y="740" xlink:href="#BkgunxphJW_pad-12"/><use x="1102.1" y="695" xlink:href="#BkgunxphJW_pad-12"/><use x="1072.1" y="665" xlink:href="#BkgunxphJW_pad-12"/><use x="1062.1" y="620" xlink:href="#BkgunxphJW_pad-12"/><use x="1062.1" y="560" xlink:href="#BkgunxphJW_pad-12"/><use x="942.1" y="605" xlink:href="#BkgunxphJW_pad-12"/><use x="792.1" y="605" xlink:href="#BkgunxphJW_pad-12"/><use x="677.1" y="605" xlink:href="#BkgunxphJW_pad-12"/><use x="667.1" y="640" xlink:href="#BkgunxphJW_pad-12"/><use x="652.1" y="675" xlink:href="#BkgunxphJW_pad-12"/><use x="622.1" y="700" xlink:href="#BkgunxphJW_pad-12"/><use x="582.1" y="710" xlink:href="#BkgunxphJW_pad-12"/><use x="587.1" y="740" xlink:href="#BkgunxphJW_pad-12"/><use x="542.1" y="710" xlink:href="#BkgunxphJW_pad-12"/><use x="502.1" y="710" xlink:href="#BkgunxphJW_pad-12"/><use x="502.1" y="660" xlink:href="#BkgunxphJW_pad-12"/><use x="542.1" y="660" xlink:href="#BkgunxphJW_pad-12"/><use x="587.1" y="640" xlink:href="#BkgunxphJW_pad-12"/><use x="612.1" y="615" xlink:href="#BkgunxphJW_pad-12"/><use x="587.1" y="590" xlink:href="#BkgunxphJW_pad-12"/><use x="622.1" y="585" xlink:href="#BkgunxphJW_pad-12"/><use x="642.1" y="560" xlink:href="#BkgunxphJW_pad-12"/><use x="677.1" y="545" xlink:href="#BkgunxphJW_pad-12"/><use x="587.1" y="540" xlink:href="#BkgunxphJW_pad-12"/><use x="587.1" y="490" xlink:href="#BkgunxphJW_pad-12"/><use x="587.1" y="440" xlink:href="#BkgunxphJW_pad-12"/><use x="587.1" y="390" xlink:href="#BkgunxphJW_pad-12"/><use x="587.1" y="340" xlink:href="#BkgunxphJW_pad-12"/><use x="667.1" y="760" xlink:href="#BkgunxphJW_pad-12"/><use x="667.1" y="785" xlink:href="#BkgunxphJW_pad-12"/><use x="687.1" y="840" xlink:href="#BkgunxphJW_pad-12"/><use x="637.1" y="840" xlink:href="#BkgunxphJW_pad-12"/><use x="587.1" y="840" xlink:href="#BkgunxphJW_pad-12"/><use x="587.1" y="790" xlink:href="#BkgunxphJW_pad-12"/><use x="462.1" y="865" xlink:href="#BkgunxphJW_pad-12"/><use x="412.1" y="865" xlink:href="#BkgunxphJW_pad-12"/><use x="362.1" y="865" xlink:href="#BkgunxphJW_pad-12"/><use x="362.1" y="915" xlink:href="#BkgunxphJW_pad-12"/><use x="362.1" y="965" xlink:href="#BkgunxphJW_pad-12"/><use x="362.1" y="1015" xlink:href="#BkgunxphJW_pad-12"/><use x="362.1" y="1065" xlink:href="#BkgunxphJW_pad-12"/><use x="362.1" y="1115" xlink:href="#BkgunxphJW_pad-12"/><use x="412.1" y="1115" xlink:href="#BkgunxphJW_pad-12"/><use x="462.1" y="1115" xlink:href="#BkgunxphJW_pad-12"/><use x="512.1" y="1115" xlink:href="#BkgunxphJW_pad-12"/><use x="562.1" y="1115" xlink:href="#BkgunxphJW_pad-12"/><use x="612.1" y="1115" xlink:href="#BkgunxphJW_pad-12"/><use x="612.1" y="1065" xlink:href="#BkgunxphJW_pad-12"/><use x="612.1" y="1015" xlink:href="#BkgunxphJW_pad-12"/><use x="612.1" y="965" xlink:href="#BkgunxphJW_pad-12"/><use x="562.1" y="965" xlink:href="#BkgunxphJW_pad-12"/><use x="512.1" y="965" xlink:href="#BkgunxphJW_pad-12"/><use x="462.1" y="965" xlink:href="#BkgunxphJW_pad-12"/><use x="462.1" y="915" xlink:href="#BkgunxphJW_pad-12"/><use x="737.1" y="840" xlink:href="#BkgunxphJW_pad-12"/><use x="787.1" y="840" xlink:href="#BkgunxphJW_pad-12"/><use x="837.1" y="840" xlink:href="#BkgunxphJW_pad-12"/><use x="887.1" y="840" xlink:href="#BkgunxphJW_pad-12"/><use x="937.1" y="840" xlink:href="#BkgunxphJW_pad-12"/><use x="987.1" y="840" xlink:href="#BkgunxphJW_pad-12"/><use x="1037.1" y="840" xlink:href="#BkgunxphJW_pad-12"/><use x="1087.1" y="840" xlink:href="#BkgunxphJW_pad-12"/><use x="1137.1" y="840" xlink:href="#BkgunxphJW_pad-12"/><use x="1137.1" y="790" xlink:href="#BkgunxphJW_pad-12"/><use x="1262.1" y="865" xlink:href="#BkgunxphJW_pad-12"/><use x="1312.1" y="865" xlink:href="#BkgunxphJW_pad-12"/><use x="1362.1" y="865" xlink:href="#BkgunxphJW_pad-12"/><use x="1362.1" y="915" xlink:href="#BkgunxphJW_pad-12"/><use x="1362.1" y="965" xlink:href="#BkgunxphJW_pad-12"/><use x="1362.1" y="1015" xlink:href="#BkgunxphJW_pad-12"/><use x="1362.1" y="1065" xlink:href="#BkgunxphJW_pad-12"/><use x="1362.1" y="1115" xlink:href="#BkgunxphJW_pad-12"/><use x="1312.1" y="1115" xlink:href="#BkgunxphJW_pad-12"/><use x="1262.1" y="1115" xlink:href="#BkgunxphJW_pad-12"/><use x="1212.1" y="1115" xlink:href="#BkgunxphJW_pad-12"/><use x="1162.1" y="1115" xlink:href="#BkgunxphJW_pad-12"/><use x="1112.1" y="1115" xlink:href="#BkgunxphJW_pad-12"/><use x="1112.1" y="1065" xlink:href="#BkgunxphJW_pad-12"/><use x="1112.1" y="1015" xlink:href="#BkgunxphJW_pad-12"/><use x="1112.1" y="965" xlink:href="#BkgunxphJW_pad-12"/><use x="1162.1" y="965" xlink:href="#BkgunxphJW_pad-12"/><use x="1212.1" y="965" xlink:href="#BkgunxphJW_pad-12"/><use x="1262.1" y="965" xlink:href="#BkgunxphJW_pad-12"/><use x="1262.1" y="915" xlink:href="#BkgunxphJW_pad-12"/><use x="932.1" y="935" xlink:href="#BkgunxphJW_pad-12"/><use x="897.1" y="935" xlink:href="#BkgunxphJW_pad-12"/><use x="1262.1" y="515" xlink:href="#BkgunxphJW_pad-12"/><use x="1262.1" y="465" xlink:href="#BkgunxphJW_pad-12"/><use x="1262.1" y="415" xlink:href="#BkgunxphJW_pad-12"/><use x="1262.1" y="365" xlink:href="#BkgunxphJW_pad-12"/><use x="1262.1" y="315" xlink:href="#BkgunxphJW_pad-12"/><use x="1262.1" y="265" xlink:href="#BkgunxphJW_pad-12"/></g><g id="pcb-stackup_bottom_sm"><use x="407" y="588.5" xlink:href="#ByfOng6ny-_pad-10"/><use x="407" y="781.5" xlink:href="#ByfOng6ny-_pad-10"/><use x="1317.2" y="781.5" xlink:href="#ByfOng6ny-_pad-10"/><use x="1317.2" y="588.5" xlink:href="#ByfOng6ny-_pad-10"/></g><g id="pcb-stackup_bottom_drl1"><use x="36210" y="16500" xlink:href="#B1md2x63kb_pad-1"/><use x="41210" y="16500" xlink:href="#B1md2x63kb_pad-1"/><use x="46210" y="16500" xlink:href="#B1md2x63kb_pad-1"/><use x="51210" y="16500" xlink:href="#B1md2x63kb_pad-1"/><use x="56210" y="16500" xlink:href="#B1md2x63kb_pad-1"/><use x="61210" y="16500" xlink:href="#B1md2x63kb_pad-1"/><use x="66210" y="16500" xlink:href="#B1md2x63kb_pad-1"/><use x="71210" y="16500" xlink:href="#B1md2x63kb_pad-1"/><use x="76210" y="16500" xlink:href="#B1md2x63kb_pad-1"/><use x="81210" y="16500" xlink:href="#B1md2x63kb_pad-1"/><use x="86210" y="16500" xlink:href="#B1md2x63kb_pad-1"/><use x="91210" y="16500" xlink:href="#B1md2x63kb_pad-1"/><use x="96210" y="16500" xlink:href="#B1md2x63kb_pad-1"/><use x="10121" y="16500" xlink:href="#B1md2x63kb_pad-1"/><use x="10621" y="16500" xlink:href="#B1md2x63kb_pad-1"/><use x="11121" y="16500" xlink:href="#B1md2x63kb_pad-1"/><use x="11621" y="16500" xlink:href="#B1md2x63kb_pad-1"/><use x="12121" y="16500" xlink:href="#B1md2x63kb_pad-1"/><use x="12621" y="16500" xlink:href="#B1md2x63kb_pad-1"/><use x="13121" y="16500" xlink:href="#B1md2x63kb_pad-1"/><use x="13621" y="16500" xlink:href="#B1md2x63kb_pad-1"/><use x="13621" y="21500" xlink:href="#B1md2x63kb_pad-1"/><use x="13621" y="26500" xlink:href="#B1md2x63kb_pad-1"/><use x="13621" y="31500" xlink:href="#B1md2x63kb_pad-1"/><use x="13621" y="36500" xlink:href="#B1md2x63kb_pad-1"/><use x="13621" y="41500" xlink:href="#B1md2x63kb_pad-1"/><use x="13621" y="46500" xlink:href="#B1md2x63kb_pad-1"/><use x="13621" y="51500" xlink:href="#B1md2x63kb_pad-1"/><use x="13121" y="51500" xlink:href="#B1md2x63kb_pad-1"/><use x="12621" y="51500" xlink:href="#B1md2x63kb_pad-1"/><use x="12621" y="46500" xlink:href="#B1md2x63kb_pad-1"/><use x="12621" y="41500" xlink:href="#B1md2x63kb_pad-1"/><use x="12621" y="36500" xlink:href="#B1md2x63kb_pad-1"/><use x="12621" y="31500" xlink:href="#B1md2x63kb_pad-1"/><use x="12621" y="26500" xlink:href="#B1md2x63kb_pad-1"/><use x="11371" y="29000" xlink:href="#B1md2x63kb_pad-1"/><use x="10871" y="29000" xlink:href="#B1md2x63kb_pad-1"/><use x="10371" y="29000" xlink:href="#B1md2x63kb_pad-1"/><use x="98710" y="29000" xlink:href="#B1md2x63kb_pad-1"/><use x="93710" y="29000" xlink:href="#B1md2x63kb_pad-1"/><use x="88710" y="29000" xlink:href="#B1md2x63kb_pad-1"/><use x="83710" y="29000" xlink:href="#B1md2x63kb_pad-1"/><use x="78710" y="29000" xlink:href="#B1md2x63kb_pad-1"/><use x="73710" y="29000" xlink:href="#B1md2x63kb_pad-1"/><use x="68710" y="29000" xlink:href="#B1md2x63kb_pad-1"/><use x="63710" y="29000" xlink:href="#B1md2x63kb_pad-1"/><use x="58710" y="29000" xlink:href="#B1md2x63kb_pad-1"/><use x="58710" y="34000" xlink:href="#B1md2x63kb_pad-1"/><use x="58710" y="39000" xlink:href="#B1md2x63kb_pad-1"/><use x="58710" y="44000" xlink:href="#B1md2x63kb_pad-1"/><use x="58710" y="49000" xlink:href="#B1md2x63kb_pad-1"/><use x="58710" y="54000" xlink:href="#B1md2x63kb_pad-1"/><use x="62210" y="58500" xlink:href="#B1md2x63kb_pad-1"/><use x="64210" y="56000" xlink:href="#B1md2x63kb_pad-1"/><use x="67710" y="54500" xlink:href="#B1md2x63kb_pad-1"/><use x="67710" y="60500" xlink:href="#B1md2x63kb_pad-1"/><use x="66710" y="64000" xlink:href="#B1md2x63kb_pad-1"/><use x="65210" y="67500" xlink:href="#B1md2x63kb_pad-1"/><use x="62210" y="70000" xlink:href="#B1md2x63kb_pad-1"/><use x="58210" y="71000" xlink:href="#B1md2x63kb_pad-1"/><use x="58710" y="74000" xlink:href="#B1md2x63kb_pad-1"/><use x="54210" y="71000" xlink:href="#B1md2x63kb_pad-1"/><use x="50210" y="71000" xlink:href="#B1md2x63kb_pad-1"/><use x="50210" y="66000" xlink:href="#B1md2x63kb_pad-1"/><use x="54210" y="66000" xlink:href="#B1md2x63kb_pad-1"/><use x="58710" y="64000" xlink:href="#B1md2x63kb_pad-1"/><use x="61210" y="61500" xlink:href="#B1md2x63kb_pad-1"/><use x="58710" y="59000" xlink:href="#B1md2x63kb_pad-1"/><use x="46210" y="51500" xlink:href="#B1md2x63kb_pad-1"/><use x="41210" y="51500" xlink:href="#B1md2x63kb_pad-1"/><use x="36210" y="51500" xlink:href="#B1md2x63kb_pad-1"/><use x="36210" y="46500" xlink:href="#B1md2x63kb_pad-1"/><use x="36210" y="41500" xlink:href="#B1md2x63kb_pad-1"/><use x="36210" y="36500" xlink:href="#B1md2x63kb_pad-1"/><use x="36210" y="31500" xlink:href="#B1md2x63kb_pad-1"/><use x="36210" y="26500" xlink:href="#B1md2x63kb_pad-1"/><use x="36210" y="21500" xlink:href="#B1md2x63kb_pad-1"/><use x="46210" y="26500" xlink:href="#B1md2x63kb_pad-1"/><use x="46210" y="31500" xlink:href="#B1md2x63kb_pad-1"/><use x="46210" y="36500" xlink:href="#B1md2x63kb_pad-1"/><use x="46210" y="41500" xlink:href="#B1md2x63kb_pad-1"/><use x="46210" y="46500" xlink:href="#B1md2x63kb_pad-1"/><use x="79210" y="60500" xlink:href="#B1md2x63kb_pad-1"/><use x="94210" y="60500" xlink:href="#B1md2x63kb_pad-1"/><use x="10621" y="62000" xlink:href="#B1md2x63kb_pad-1"/><use x="10721" y="66500" xlink:href="#B1md2x63kb_pad-1"/><use x="11021" y="69500" xlink:href="#B1md2x63kb_pad-1"/><use x="11371" y="71000" xlink:href="#B1md2x63kb_pad-1"/><use x="11371" y="74000" xlink:href="#B1md2x63kb_pad-1"/><use x="11821" y="71000" xlink:href="#B1md2x63kb_pad-1"/><use x="12171" y="71000" xlink:href="#B1md2x63kb_pad-1"/><use x="12171" y="66000" xlink:href="#B1md2x63kb_pad-1"/><use x="11821" y="66000" xlink:href="#B1md2x63kb_pad-1"/><use x="11371" y="64000" xlink:href="#B1md2x63kb_pad-1"/><use x="11121" y="61500" xlink:href="#B1md2x63kb_pad-1"/><use x="11371" y="59000" xlink:href="#B1md2x63kb_pad-1"/><use x="11121" y="56000" xlink:href="#B1md2x63kb_pad-1"/><use x="11371" y="54000" xlink:href="#B1md2x63kb_pad-1"/><use x="11371" y="49000" xlink:href="#B1md2x63kb_pad-1"/><use x="11371" y="44000" xlink:href="#B1md2x63kb_pad-1"/><use x="11371" y="39000" xlink:href="#B1md2x63kb_pad-1"/><use x="11371" y="34000" xlink:href="#B1md2x63kb_pad-1"/><use x="10621" y="56000" xlink:href="#B1md2x63kb_pad-1"/><use x="11371" y="79000" xlink:href="#B1md2x63kb_pad-1"/><use x="11371" y="84000" xlink:href="#B1md2x63kb_pad-1"/><use x="10871" y="84000" xlink:href="#B1md2x63kb_pad-1"/><use x="10371" y="84000" xlink:href="#B1md2x63kb_pad-1"/><use x="98710" y="84000" xlink:href="#B1md2x63kb_pad-1"/><use x="93710" y="84000" xlink:href="#B1md2x63kb_pad-1"/><use x="88710" y="84000" xlink:href="#B1md2x63kb_pad-1"/><use x="83710" y="84000" xlink:href="#B1md2x63kb_pad-1"/><use x="78710" y="84000" xlink:href="#B1md2x63kb_pad-1"/><use x="73710" y="84000" xlink:href="#B1md2x63kb_pad-1"/><use x="68710" y="84000" xlink:href="#B1md2x63kb_pad-1"/><use x="63710" y="84000" xlink:href="#B1md2x63kb_pad-1"/><use x="58710" y="84000" xlink:href="#B1md2x63kb_pad-1"/><use x="58710" y="79000" xlink:href="#B1md2x63kb_pad-1"/><use x="66710" y="78500" xlink:href="#B1md2x63kb_pad-1"/><use x="66710" y="76000" xlink:href="#B1md2x63kb_pad-1"/><use x="46210" y="86500" xlink:href="#B1md2x63kb_pad-1"/><use x="41210" y="86500" xlink:href="#B1md2x63kb_pad-1"/><use x="36210" y="86500" xlink:href="#B1md2x63kb_pad-1"/><use x="36210" y="91500" xlink:href="#B1md2x63kb_pad-1"/><use x="36210" y="96500" xlink:href="#B1md2x63kb_pad-1"/><use x="36210" y="10150" xlink:href="#B1md2x63kb_pad-1"/><use x="36210" y="10650" xlink:href="#B1md2x63kb_pad-1"/><use x="36210" y="11150" xlink:href="#B1md2x63kb_pad-1"/><use x="41210" y="11150" xlink:href="#B1md2x63kb_pad-1"/><use x="46210" y="11150" xlink:href="#B1md2x63kb_pad-1"/><use x="51210" y="11150" xlink:href="#B1md2x63kb_pad-1"/><use x="56210" y="11150" xlink:href="#B1md2x63kb_pad-1"/><use x="61210" y="11150" xlink:href="#B1md2x63kb_pad-1"/><use x="61210" y="10650" xlink:href="#B1md2x63kb_pad-1"/><use x="61210" y="10150" xlink:href="#B1md2x63kb_pad-1"/><use x="61210" y="96500" xlink:href="#B1md2x63kb_pad-1"/><use x="56210" y="96500" xlink:href="#B1md2x63kb_pad-1"/><use x="51210" y="96500" xlink:href="#B1md2x63kb_pad-1"/><use x="46210" y="96500" xlink:href="#B1md2x63kb_pad-1"/><use x="46210" y="91500" xlink:href="#B1md2x63kb_pad-1"/><use x="89710" y="93500" xlink:href="#B1md2x63kb_pad-1"/><use x="93210" y="93500" xlink:href="#B1md2x63kb_pad-1"/><use x="11121" y="96500" xlink:href="#B1md2x63kb_pad-1"/><use x="11621" y="96500" xlink:href="#B1md2x63kb_pad-1"/><use x="12121" y="96500" xlink:href="#B1md2x63kb_pad-1"/><use x="12621" y="96500" xlink:href="#B1md2x63kb_pad-1"/><use x="12621" y="91500" xlink:href="#B1md2x63kb_pad-1"/><use x="12621" y="86500" xlink:href="#B1md2x63kb_pad-1"/><use x="13121" y="86500" xlink:href="#B1md2x63kb_pad-1"/><use x="13621" y="86500" xlink:href="#B1md2x63kb_pad-1"/><use x="13621" y="91500" xlink:href="#B1md2x63kb_pad-1"/><use x="13621" y="96500" xlink:href="#B1md2x63kb_pad-1"/><use x="13621" y="10150" xlink:href="#B1md2x63kb_pad-1"/><use x="13621" y="10650" xlink:href="#B1md2x63kb_pad-1"/><use x="13621" y="11150" xlink:href="#B1md2x63kb_pad-1"/><use x="13121" y="11150" xlink:href="#B1md2x63kb_pad-1"/><use x="12621" y="11150" xlink:href="#B1md2x63kb_pad-1"/><use x="12121" y="11150" xlink:href="#B1md2x63kb_pad-1"/><use x="11621" y="11150" xlink:href="#B1md2x63kb_pad-1"/><use x="11121" y="11150" xlink:href="#B1md2x63kb_pad-1"/><use x="11121" y="10650" xlink:href="#B1md2x63kb_pad-1"/><use x="11121" y="10150" xlink:href="#B1md2x63kb_pad-1"/></g><clipPath id="pcb-stackup_bottom_out"><path fill="none" d="M312.1 115h1100v1050h-1100V115"/></clipPath><mask id="pcb-stackup_bottom_mech-mask"><g stroke="#000"><path fill="#fff" d="M312.1 115h1100v1050h-1100z"/><use xlink:href="#pcb-stackup_bottom_drl1"/></g></mask><mask id="pcb-stackup_bottom_cf-mask"><g fill="#fff" stroke="#fff"><use xlink:href="#pcb-stackup_bottom_sm"/></g></mask><mask id="pcb-stackup_bottom_sm-mask"><g stroke="#000"><path fill="#fff" d="M312.1 115h1100v1050h-1100z"/><use xlink:href="#pcb-stackup_bottom_sm"/></g></mask></defs><g><g mask="url(#pcb-stackup_bottom_mech-mask)" clip-path="url(#pcb-stackup_bottom_out)" transform="rotate(180 862.1 640)"><path fill="currentColor" d="M312.1 115h1100v1050h-1100z" class="pcb-stackup_fr4"/><use fill="currentColor" stroke="currentColor" xlink:href="#pcb-stackup_bottom_cu" class="pcb-stackup_cu"/><use fill="currentColor" stroke="currentColor" xlink:href="#pcb-stackup_bottom_cu" class="pcb-stackup_cf" mask="url(#pcb-stackup_bottom_cf-mask)"/><g mask="url(#pcb-stackup_bottom_sm-mask)"><path fill="currentColor" d="M312.1 115h1100v1050h-1100z" class="pcb-stackup_sm"/><use fill="currentColor" stroke="currentColor" xlink:href="#pcb-stackup_bottom_ss" class="pcb-stackup_ss"/></g></g></g></svg>