<svg xmlns="http://www.w3.org/2000/svg" id="pcb-stackup_bottom" fill-rule="evenodd" stroke-width="0" stroke-linecap="round" stroke-linejoin="round" xmlns:xlink="http://www.w3.org/1999/xlink" clip-rule="evenodd" viewBox="215900 -113030 22860 12700"><defs><style>.pcb-stackup_fr4 {color: #4D542C;} .pcb-stackup_cu {color: lightgrey;} .pcb-stackup_cf {color: goldenrod;} .pcb-stackup_sm {color: #8B0000; opacity: 0.9;} .pcb-stackup_ss {color: white;} .pcb-stackup_sp {color: #000000; opacity: 0;} .pcb-stackup_out {color: black;}</style><path id="HyNRxa21Z_pad-11" d="M-1016-863.6h2032V863.6h-2032z"/><rect id="HyNRxa21Z_pad-12" width="2032" height="1727.2" x="-1016" y="-863.6" rx="863.6" ry="863.6"/><path id="HyNRxa21Z_pad-13" d="M-1050-700h2100V700h-2100z"/><path id="HyNRxa21Z_pad-14" d="M-600-450H600v900H-600z"/><path id="HyNRxa21Z_pad-15" d="M-500-500H500V500H-500z"/><circle id="HyNRxa21Z_pad-16" r="350"/><path id="HyNRxa21Z_pad-11" d="M-1016-863.6h2032V863.6h-2032z"/><rect id="HyNRxa21Z_pad-12" width="2032" height="1727.2" x="-1016" y="-863.6" rx="863.6" ry="863.6"/><path id="HyNRxa21Z_pad-13" d="M-1050-700h2100V700h-2100z"/><path id="HyNRxa21Z_pad-14" d="M-600-450H600v900H-600z"/><path id="HyNRxa21Z_pad-15" d="M-500-500H500V500H-500z"/><circle id="HyNRxa21Z_pad-16" r="350"/><path id="SyxERxT3yb_pad-11" d="M-1216-1063.6h2432v2127.2h-2432z"/><rect id="SyxERxT3yb_pad-12" width="2432" height="2127.2" x="-1216" y="-1063.6" rx="1063.6" ry="1063.6"/><path id="SyxERxT3yb_pad-13" d="M-1250-900h2500V900h-2500z"/><path id="SyxERxT3yb_pad-14" d="M-800-650H800V650H-800z"/><path id="SyxERxT3yb_pad-15" d="M-700-700H700V700H-700z"/><path id="HyNRxa21Z_pad-11" d="M-1016-863.6h2032V863.6h-2032z"/><rect id="HyNRxa21Z_pad-12" width="2032" height="1727.2" x="-1016" y="-863.6" rx="863.6" ry="863.6"/><path id="HyNRxa21Z_pad-13" d="M-1050-700h2100V700h-2100z"/><path id="HyNRxa21Z_pad-14" d="M-600-450H600v900H-600z"/><path id="HyNRxa21Z_pad-15" d="M-500-500H500V500H-500z"/><circle id="HyNRxa21Z_pad-16" r="350"/><path id="HyNRxa21Z_pad-11" d="M-1016-863.6h2032V863.6h-2032z"/><rect id="HyNRxa21Z_pad-12" width="2032" height="1727.2" x="-1016" y="-863.6" rx="863.6" ry="863.6"/><path id="HyNRxa21Z_pad-13" d="M-1050-700h2100V700h-2100z"/><path id="HyNRxa21Z_pad-14" d="M-600-450H600v900H-600z"/><path id="HyNRxa21Z_pad-15" d="M-500-500H500V500H-500z"/><circle id="HyNRxa21Z_pad-16" r="350"/><path id="SyxERxT3yb_pad-11" d="M-1216-1063.6h2432v2127.2h-2432z"/><rect id="SyxERxT3yb_pad-12" width="2432" height="2127.2" x="-1216" y="-1063.6" rx="1063.6" ry="1063.6"/><path id="SyxERxT3yb_pad-13" d="M-1250-900h2500V900h-2500z"/><path id="SyxERxT3yb_pad-14" d="M-800-650H800V650H-800z"/><path id="SyxERxT3yb_pad-15" d="M-700-700H700V700H-700z"/><path id="SkZVCxphJ-_pad-16" d="M-1216-1063.6h2432v2127.2h-2432z"/><rect id="SkZVCxphJ-_pad-17" width="2432" height="2127.2" x="-1216" y="-1063.6" rx="1063.6" ry="1063.6"/><path id="SkZVCxphJ-_pad-18" d="M-1250-900h2500V900h-2500z"/><path id="SkZVCxphJ-_pad-19" d="M-800-650H800V650H-800z"/><path id="SkZVCxphJ-_pad-20" d="M-700-700H700V700H-700z"/><mask id="SkZVCxphJ-_clear-1" stroke="#000"><path fill="#fff" d="M219799.38-112920h14824.786v12122.6H219799.38z"/><use x="236220" y="-110490" xlink:href="#SkZVCxphJ-_pad-16"/><use x="236220" y="-107950" xlink:href="#SkZVCxphJ-_pad-17"/><use x="236220" y="-105410" xlink:href="#SkZVCxphJ-_pad-17"/><use x="236220" y="-102870" xlink:href="#SkZVCxphJ-_pad-17"/><use x="218440" y="-102870" xlink:href="#SkZVCxphJ-_pad-16"/><use x="218440" y="-105410" xlink:href="#SkZVCxphJ-_pad-17"/><use x="218440" y="-107950" xlink:href="#SkZVCxphJ-_pad-17"/><use x="218440" y="-110490" xlink:href="#SkZVCxphJ-_pad-17"/><use x="222625" y="-104595" xlink:href="#SkZVCxphJ-_pad-18"/><use x="231725" y="-109095" xlink:href="#SkZVCxphJ-_pad-18"/><use x="231725" y="-104595" xlink:href="#SkZVCxphJ-_pad-18"/><use x="222625" y="-109095" xlink:href="#SkZVCxphJ-_pad-18"/><use x="229365" y="-111605" xlink:href="#SkZVCxphJ-_pad-19"/><use x="231565" y="-111605" xlink:href="#SkZVCxphJ-_pad-19"/><use x="224535" y="-111585" xlink:href="#SkZVCxphJ-_pad-19"/><use x="222335" y="-111585" xlink:href="#SkZVCxphJ-_pad-19"/><use x="225785" y="-101915" xlink:href="#SkZVCxphJ-_pad-20"/><use x="228485" y="-101915" xlink:href="#SkZVCxphJ-_pad-20"/><use x="227135" y="-101915" xlink:href="#SkZVCxphJ-_pad-20"/></mask><path id="HyNRxa21Z_pad-11" d="M-1016-863.6h2032V863.6h-2032z"/><rect id="HyNRxa21Z_pad-12" width="2032" height="1727.2" x="-1016" y="-863.6" rx="863.6" ry="863.6"/><path id="HyNRxa21Z_pad-13" d="M-1050-700h2100V700h-2100z"/><path id="HyNRxa21Z_pad-14" d="M-600-450H600v900H-600z"/><path id="HyNRxa21Z_pad-15" d="M-500-500H500V500H-500z"/><circle id="HyNRxa21Z_pad-16" r="350"/><path id="HyNRxa21Z_pad-11" d="M-1016-863.6h2032V863.6h-2032z"/><rect id="HyNRxa21Z_pad-12" width="2032" height="1727.2" x="-1016" y="-863.6" rx="863.6" ry="863.6"/><path id="HyNRxa21Z_pad-13" d="M-1050-700h2100V700h-2100z"/><path id="HyNRxa21Z_pad-14" d="M-600-450H600v900H-600z"/><path id="HyNRxa21Z_pad-15" d="M-500-500H500V500H-500z"/><circle id="HyNRxa21Z_pad-16" r="350"/><path id="SyxERxT3yb_pad-11" d="M-1216-1063.6h2432v2127.2h-2432z"/><rect id="SyxERxT3yb_pad-12" width="2432" height="2127.2" x="-1216" y="-1063.6" rx="1063.6" ry="1063.6"/><path id="SyxERxT3yb_pad-13" d="M-1250-900h2500V900h-2500z"/><path id="SyxERxT3yb_pad-14" d="M-800-650H800V650H-800z"/><path id="SyxERxT3yb_pad-15" d="M-700-700H700V700H-700z"/><path id="HyNRxa21Z_pad-11" d="M-1016-863.6h2032V863.6h-2032z"/><rect id="HyNRxa21Z_pad-12" width="2032" height="1727.2" x="-1016" y="-863.6" rx="863.6" ry="863.6"/><path id="HyNRxa21Z_pad-13" d="M-1050-700h2100V700h-2100z"/><path id="HyNRxa21Z_pad-14" d="M-600-450H600v900H-600z"/><path id="HyNRxa21Z_pad-15" d="M-500-500H500V500H-500z"/><circle id="HyNRxa21Z_pad-16" r="350"/><path id="HyNRxa21Z_pad-11" d="M-1016-863.6h2032V863.6h-2032z"/><rect id="HyNRxa21Z_pad-12" width="2032" height="1727.2" x="-1016" y="-863.6" rx="863.6" ry="863.6"/><path id="HyNRxa21Z_pad-13" d="M-1050-700h2100V700h-2100z"/><path id="HyNRxa21Z_pad-14" d="M-600-450H600v900H-600z"/><path id="HyNRxa21Z_pad-15" d="M-500-500H500V500H-500z"/><circle id="HyNRxa21Z_pad-16" r="350"/><path id="SyxERxT3yb_pad-11" d="M-1216-1063.6h2432v2127.2h-2432z"/><rect id="SyxERxT3yb_pad-12" width="2432" height="2127.2" x="-1216" y="-1063.6" rx="1063.6" ry="1063.6"/><path id="SyxERxT3yb_pad-13" d="M-1250-900h2500V900h-2500z"/><path id="SyxERxT3yb_pad-14" d="M-800-650H800V650H-800z"/><path id="SyxERxT3yb_pad-15" d="M-700-700H700V700H-700z"/><path id="SkZVCxphJ-_pad-16" d="M-1216-1063.6h2432v2127.2h-2432z"/><rect id="SkZVCxphJ-_pad-17" width="2432" height="2127.2" x="-1216" y="-1063.6" rx="1063.6" ry="1063.6"/><path id="SkZVCxphJ-_pad-18" d="M-1250-900h2500V900h-2500z"/><path id="SkZVCxphJ-_pad-19" d="M-800-650H800V650H-800z"/><path id="SkZVCxphJ-_pad-20" d="M-700-700H700V700H-700z"/><mask id="SkZVCxphJ-_clear-1" stroke="#000"><path fill="#fff" d="M219799.38-112920h14824.786v12122.6H219799.38z"/><use x="236220" y="-110490" xlink:href="#SkZVCxphJ-_pad-16"/><use x="236220" y="-107950" xlink:href="#SkZVCxphJ-_pad-17"/><use x="236220" y="-105410" xlink:href="#SkZVCxphJ-_pad-17"/><use x="236220" y="-102870" xlink:href="#SkZVCxphJ-_pad-17"/><use x="218440" y="-102870" xlink:href="#SkZVCxphJ-_pad-16"/><use x="218440" y="-105410" xlink:href="#SkZVCxphJ-_pad-17"/><use x="218440" y="-107950" xlink:href="#SkZVCxphJ-_pad-17"/><use x="218440" y="-110490" xlink:href="#SkZVCxphJ-_pad-17"/><use x="222625" y="-104595" xlink:href="#SkZVCxphJ-_pad-18"/><use x="231725" y="-109095" xlink:href="#SkZVCxphJ-_pad-18"/><use x="231725" y="-104595" xlink:href="#SkZVCxphJ-_pad-18"/><use x="222625" y="-109095" xlink:href="#SkZVCxphJ-_pad-18"/><use x="229365" y="-111605" xlink:href="#SkZVCxphJ-_pad-19"/><use x="231565" y="-111605" xlink:href="#SkZVCxphJ-_pad-19"/><use x="224535" y="-111585" xlink:href="#SkZVCxphJ-_pad-19"/><use x="222335" y="-111585" xlink:href="#SkZVCxphJ-_pad-19"/><use x="225785" y="-101915" xlink:href="#SkZVCxphJ-_pad-20"/><use x="228485" y="-101915" xlink:href="#SkZVCxphJ-_pad-20"/><use x="227135" y="-101915" xlink:href="#SkZVCxphJ-_pad-20"/></mask><path id="HyNRxa21Z_pad-11" d="M-1016-863.6h2032V863.6h-2032z"/><rect id="HyNRxa21Z_pad-12" width="2032" height="1727.2" x="-1016" y="-863.6" rx="863.6" ry="863.6"/><path id="HyNRxa21Z_pad-13" d="M-1050-700h2100V700h-2100z"/><path id="HyNRxa21Z_pad-14" d="M-600-450H600v900H-600z"/><path id="HyNRxa21Z_pad-15" d="M-500-500H500V500H-500z"/><circle id="HyNRxa21Z_pad-16" r="350"/><path id="HyNRxa21Z_pad-11" d="M-1016-863.6h2032V863.6h-2032z"/><rect id="HyNRxa21Z_pad-12" width="2032" height="1727.2" x="-1016" y="-863.6" rx="863.6" ry="863.6"/><path id="HyNRxa21Z_pad-13" d="M-1050-700h2100V700h-2100z"/><path id="HyNRxa21Z_pad-14" d="M-600-450H600v900H-600z"/><path id="HyNRxa21Z_pad-15" d="M-500-500H500V500H-500z"/><circle id="HyNRxa21Z_pad-16" r="350"/><path id="SyxERxT3yb_pad-11" d="M-1216-1063.6h2432v2127.2h-2432z"/><rect id="SyxERxT3yb_pad-12" width="2432" height="2127.2" x="-1216" y="-1063.6" rx="1063.6" ry="1063.6"/><path id="SyxERxT3yb_pad-13" d="M-1250-900h2500V900h-2500z"/><path id="SyxERxT3yb_pad-14" d="M-800-650H800V650H-800z"/><path id="SyxERxT3yb_pad-15" d="M-700-700H700V700H-700z"/><path id="HyNRxa21Z_pad-11" d="M-1016-863.6h2032V863.6h-2032z"/><rect id="HyNRxa21Z_pad-12" width="2032" height="1727.2" x="-1016" y="-863.6" rx="863.6" ry="863.6"/><path id="HyNRxa21Z_pad-13" d="M-1050-700h2100V700h-2100z"/><path id="HyNRxa21Z_pad-14" d="M-600-450H600v900H-600z"/><path id="HyNRxa21Z_pad-15" d="M-500-500H500V500H-500z"/><circle id="HyNRxa21Z_pad-16" r="350"/><path id="HyNRxa21Z_pad-11" d="M-1016-863.6h2032V863.6h-2032z"/><rect id="HyNRxa21Z_pad-12" width="2032" height="1727.2" x="-1016" y="-863.6" rx="863.6" ry="863.6"/><path id="HyNRxa21Z_pad-13" d="M-1050-700h2100V700h-2100z"/><path id="HyNRxa21Z_pad-14" d="M-600-450H600v900H-600z"/><path id="HyNRxa21Z_pad-15" d="M-500-500H500V500H-500z"/><circle id="HyNRxa21Z_pad-16" r="350"/><path id="SyxERxT3yb_pad-11" d="M-1216-1063.6h2432v2127.2h-2432z"/><rect id="SyxERxT3yb_pad-12" width="2432" height="2127.2" x="-1216" y="-1063.6" rx="1063.6" ry="1063.6"/><path id="SyxERxT3yb_pad-13" d="M-1250-900h2500V900h-2500z"/><path id="SyxERxT3yb_pad-14" d="M-800-650H800V650H-800z"/><path id="SyxERxT3yb_pad-15" d="M-700-700H700V700H-700z"/><path id="SkZVCxphJ-_pad-16" d="M-1216-1063.6h2432v2127.2h-2432z"/><rect id="SkZVCxphJ-_pad-17" width="2432" height="2127.2" x="-1216" y="-1063.6" rx="1063.6" ry="1063.6"/><path id="SkZVCxphJ-_pad-18" d="M-1250-900h2500V900h-2500z"/><path id="SkZVCxphJ-_pad-19" d="M-800-650H800V650H-800z"/><path id="SkZVCxphJ-_pad-20" d="M-700-700H700V700H-700z"/><mask id="SkZVCxphJ-_clear-1" stroke="#000"><path fill="#fff" d="M219799.38-112920h14824.786v12122.6H219799.38z"/><use x="236220" y="-110490" xlink:href="#SkZVCxphJ-_pad-16"/><use x="236220" y="-107950" xlink:href="#SkZVCxphJ-_pad-17"/><use x="236220" y="-105410" xlink:href="#SkZVCxphJ-_pad-17"/><use x="236220" y="-102870" xlink:href="#SkZVCxphJ-_pad-17"/><use x="218440" y="-102870" xlink:href="#SkZVCxphJ-_pad-16"/><use x="218440" y="-105410" xlink:href="#SkZVCxphJ-_pad-17"/><use x="218440" y="-107950" xlink:href="#SkZVCxphJ-_pad-17"/><use x="218440" y="-110490" xlink:href="#SkZVCxphJ-_pad-17"/><use x="222625" y="-104595" xlink:href="#SkZVCxphJ-_pad-18"/><use x="231725" y="-109095" xlink:href="#SkZVCxphJ-_pad-18"/><use x="231725" y="-104595" xlink:href="#SkZVCxphJ-_pad-18"/><use x="222625" y="-109095" xlink:href="#SkZVCxphJ-_pad-18"/><use x="229365" y="-111605" xlink:href="#SkZVCxphJ-_pad-19"/><use x="231565" y="-111605" xlink:href="#SkZVCxphJ-_pad-19"/><use x="224535" y="-111585" xlink:href="#SkZVCxphJ-_pad-19"/><use x="222335" y="-111585" xlink:href="#SkZVCxphJ-_pad-19"/><use x="225785" y="-101915" xlink:href="#SkZVCxphJ-_pad-20"/><use x="228485" y="-101915" xlink:href="#SkZVCxphJ-_pad-20"/><use x="227135" y="-101915" xlink:href="#SkZVCxphJ-_pad-20"/></mask><path id="HyNRxa21Z_pad-11" d="M-1016-863.6h2032V863.6h-2032z"/><rect id="HyNRxa21Z_pad-12" width="2032" height="1727.2" x="-1016" y="-863.6" rx="863.6" ry="863.6"/><path id="HyNRxa21Z_pad-13" d="M-1050-700h2100V700h-2100z"/><path id="HyNRxa21Z_pad-14" d="M-600-450H600v900H-600z"/><path id="HyNRxa21Z_pad-15" d="M-500-500H500V500H-500z"/><circle id="HyNRxa21Z_pad-16" r="350"/><path id="HyNRxa21Z_pad-11" d="M-1016-863.6h2032V863.6h-2032z"/><rect id="HyNRxa21Z_pad-12" width="2032" height="1727.2" x="-1016" y="-863.6" rx="863.6" ry="863.6"/><path id="HyNRxa21Z_pad-13" d="M-1050-700h2100V700h-2100z"/><path id="HyNRxa21Z_pad-14" d="M-600-450H600v900H-600z"/><path id="HyNRxa21Z_pad-15" d="M-500-500H500V500H-500z"/><circle id="HyNRxa21Z_pad-16" r="350"/><path id="SyxERxT3yb_pad-11" d="M-1216-1063.6h2432v2127.2h-2432z"/><rect id="SyxERxT3yb_pad-12" width="2432" height="2127.2" x="-1216" y="-1063.6" rx="1063.6" ry="1063.6"/><path id="SyxERxT3yb_pad-13" d="M-1250-900h2500V900h-2500z"/><path id="SyxERxT3yb_pad-14" d="M-800-650H800V650H-800z"/><path id="SyxERxT3yb_pad-15" d="M-700-700H700V700H-700z"/><path id="HyNRxa21Z_pad-11" d="M-1016-863.6h2032V863.6h-2032z"/><rect id="HyNRxa21Z_pad-12" width="2032" height="1727.2" x="-1016" y="-863.6" rx="863.6" ry="863.6"/><path id="HyNRxa21Z_pad-13" d="M-1050-700h2100V700h-2100z"/><path id="HyNRxa21Z_pad-14" d="M-600-450H600v900H-600z"/><path id="HyNRxa21Z_pad-15" d="M-500-500H500V500H-500z"/><circle id="HyNRxa21Z_pad-16" r="350"/><path id="HyNRxa21Z_pad-11" d="M-1016-863.6h2032V863.6h-2032z"/><rect id="HyNRxa21Z_pad-12" width="2032" height="1727.2" x="-1016" y="-863.6" rx="863.6" ry="863.6"/><path id="HyNRxa21Z_pad-13" d="M-1050-700h2100V700h-2100z"/><path id="HyNRxa21Z_pad-14" d="M-600-450H600v900H-600z"/><path id="HyNRxa21Z_pad-15" d="M-500-500H500V500H-500z"/><circle id="HyNRxa21Z_pad-16" r="350"/><path id="SyxERxT3yb_pad-11" d="M-1216-1063.6h2432v2127.2h-2432z"/><rect id="SyxERxT3yb_pad-12" width="2432" height="2127.2" x="-1216" y="-1063.6" rx="1063.6" ry="1063.6"/><path id="SyxERxT3yb_pad-13" d="M-1250-900h2500V900h-2500z"/><path id="SyxERxT3yb_pad-14" d="M-800-650H800V650H-800z"/><path id="SyxERxT3yb_pad-15" d="M-700-700H700V700H-700z"/><path id="SkZVCxphJ-_pad-16" d="M-1216-1063.6h2432v2127.2h-2432z"/><rect id="SkZVCxphJ-_pad-17" width="2432" height="2127.2" x="-1216" y="-1063.6" rx="1063.6" ry="1063.6"/><path id="SkZVCxphJ-_pad-18" d="M-1250-900h2500V900h-2500z"/><path id="SkZVCxphJ-_pad-19" d="M-800-650H800V650H-800z"/><path id="SkZVCxphJ-_pad-20" d="M-700-700H700V700H-700z"/><mask id="SkZVCxphJ-_clear-1" stroke="#000"><path fill="#fff" d="M219799.38-112920h14824.786v12122.6H219799.38z"/><use x="236220" y="-110490" xlink:href="#SkZVCxphJ-_pad-16"/><use x="236220" y="-107950" xlink:href="#SkZVCxphJ-_pad-17"/><use x="236220" y="-105410" xlink:href="#SkZVCxphJ-_pad-17"/><use x="236220" y="-102870" xlink:href="#SkZVCxphJ-_pad-17"/><use x="218440" y="-102870" xlink:href="#SkZVCxphJ-_pad-16"/><use x="218440" y="-105410" xlink:href="#SkZVCxphJ-_pad-17"/><use x="218440" y="-107950" xlink:href="#SkZVCxphJ-_pad-17"/><use x="218440" y="-110490" xlink:href="#SkZVCxphJ-_pad-17"/><use x="222625" y="-104595" xlink:href="#SkZVCxphJ-_pad-18"/><use x="231725" y="-109095" xlink:href="#SkZVCxphJ-_pad-18"/><use x="231725" y="-104595" xlink:href="#SkZVCxphJ-_pad-18"/><use x="222625" y="-109095" xlink:href="#SkZVCxphJ-_pad-18"/><use x="229365" y="-111605" xlink:href="#SkZVCxphJ-_pad-19"/><use x="231565" y="-111605" xlink:href="#SkZVCxphJ-_pad-19"/><use x="224535" y="-111585" xlink:href="#SkZVCxphJ-_pad-19"/><use x="222335" y="-111585" xlink:href="#SkZVCxphJ-_pad-19"/><use x="225785" y="-101915" xlink:href="#SkZVCxphJ-_pad-20"/><use x="228485" y="-101915" xlink:href="#SkZVCxphJ-_pad-20"/><use x="227135" y="-101915" xlink:href="#SkZVCxphJ-_pad-20"/></mask><circle id="HyDNAe63yW_pad-1" r="250"/><circle id="HyDNAe63yW_pad-2" r="508"/><path id="HyNRxa21Z_pad-11" d="M-1016-863.6h2032V863.6h-2032z"/><rect id="HyNRxa21Z_pad-12" width="2032" height="1727.2" x="-1016" y="-863.6" rx="863.6" ry="863.6"/><path id="HyNRxa21Z_pad-13" d="M-1050-700h2100V700h-2100z"/><path id="HyNRxa21Z_pad-14" d="M-600-450H600v900H-600z"/><path id="HyNRxa21Z_pad-15" d="M-500-500H500V500H-500z"/><circle id="HyNRxa21Z_pad-16" r="350"/><path id="HyNRxa21Z_pad-11" d="M-1016-863.6h2032V863.6h-2032z"/><rect id="HyNRxa21Z_pad-12" width="2032" height="1727.2" x="-1016" y="-863.6" rx="863.6" ry="863.6"/><path id="HyNRxa21Z_pad-13" d="M-1050-700h2100V700h-2100z"/><path id="HyNRxa21Z_pad-14" d="M-600-450H600v900H-600z"/><path id="HyNRxa21Z_pad-15" d="M-500-500H500V500H-500z"/><circle id="HyNRxa21Z_pad-16" r="350"/><path id="SyxERxT3yb_pad-11" d="M-1216-1063.6h2432v2127.2h-2432z"/><rect id="SyxERxT3yb_pad-12" width="2432" height="2127.2" x="-1216" y="-1063.6" rx="1063.6" ry="1063.6"/><path id="SyxERxT3yb_pad-13" d="M-1250-900h2500V900h-2500z"/><path id="SyxERxT3yb_pad-14" d="M-800-650H800V650H-800z"/><path id="SyxERxT3yb_pad-15" d="M-700-700H700V700H-700z"/><path id="HyNRxa21Z_pad-11" d="M-1016-863.6h2032V863.6h-2032z"/><rect id="HyNRxa21Z_pad-12" width="2032" height="1727.2" x="-1016" y="-863.6" rx="863.6" ry="863.6"/><path id="HyNRxa21Z_pad-13" d="M-1050-700h2100V700h-2100z"/><path id="HyNRxa21Z_pad-14" d="M-600-450H600v900H-600z"/><path id="HyNRxa21Z_pad-15" d="M-500-500H500V500H-500z"/><circle id="HyNRxa21Z_pad-16" r="350"/><path id="HyNRxa21Z_pad-11" d="M-1016-863.6h2032V863.6h-2032z"/><rect id="HyNRxa21Z_pad-12" width="2032" height="1727.2" x="-1016" y="-863.6" rx="863.6" ry="863.6"/><path id="HyNRxa21Z_pad-13" d="M-1050-700h2100V700h-2100z"/><path id="HyNRxa21Z_pad-14" d="M-600-450H600v900H-600z"/><path id="HyNRxa21Z_pad-15" d="M-500-500H500V500H-500z"/><circle id="HyNRxa21Z_pad-16" r="350"/><path id="SyxERxT3yb_pad-11" d="M-1216-1063.6h2432v2127.2h-2432z"/><rect id="SyxERxT3yb_pad-12" width="2432" height="2127.2" x="-1216" y="-1063.6" rx="1063.6" ry="1063.6"/><path id="SyxERxT3yb_pad-13" d="M-1250-900h2500V900h-2500z"/><path id="SyxERxT3yb_pad-14" d="M-800-650H800V650H-800z"/><path id="SyxERxT3yb_pad-15" d="M-700-700H700V700H-700z"/><path id="SkZVCxphJ-_pad-16" d="M-1216-1063.6h2432v2127.2h-2432z"/><rect id="SkZVCxphJ-_pad-17" width="2432" height="2127.2" x="-1216" y="-1063.6" rx="1063.6" ry="1063.6"/><path id="SkZVCxphJ-_pad-18" d="M-1250-900h2500V900h-2500z"/><path id="SkZVCxphJ-_pad-19" d="M-800-650H800V650H-800z"/><path id="SkZVCxphJ-_pad-20" d="M-700-700H700V700H-700z"/><mask id="SkZVCxphJ-_clear-1" stroke="#000"><path fill="#fff" d="M219799.38-112920h14824.786v12122.6H219799.38z"/><use x="236220" y="-110490" xlink:href="#SkZVCxphJ-_pad-16"/><use x="236220" y="-107950" xlink:href="#SkZVCxphJ-_pad-17"/><use x="236220" y="-105410" xlink:href="#SkZVCxphJ-_pad-17"/><use x="236220" y="-102870" xlink:href="#SkZVCxphJ-_pad-17"/><use x="218440" y="-102870" xlink:href="#SkZVCxphJ-_pad-16"/><use x="218440" y="-105410" xlink:href="#SkZVCxphJ-_pad-17"/><use x="218440" y="-107950" xlink:href="#SkZVCxphJ-_pad-17"/><use x="218440" y="-110490" xlink:href="#SkZVCxphJ-_pad-17"/><use x="222625" y="-104595" xlink:href="#SkZVCxphJ-_pad-18"/><use x="231725" y="-109095" xlink:href="#SkZVCxphJ-_pad-18"/><use x="231725" y="-104595" xlink:href="#SkZVCxphJ-_pad-18"/><use x="222625" y="-109095" xlink:href="#SkZVCxphJ-_pad-18"/><use x="229365" y="-111605" xlink:href="#SkZVCxphJ-_pad-19"/><use x="231565" y="-111605" xlink:href="#SkZVCxphJ-_pad-19"/><use x="224535" y="-111585" xlink:href="#SkZVCxphJ-_pad-19"/><use x="222335" y="-111585" xlink:href="#SkZVCxphJ-_pad-19"/><use x="225785" y="-101915" xlink:href="#SkZVCxphJ-_pad-20"/><use x="228485" y="-101915" xlink:href="#SkZVCxphJ-_pad-20"/><use x="227135" y="-101915" xlink:href="#SkZVCxphJ-_pad-20"/></mask><path id="HyNRxa21Z_pad-11" d="M-1016-863.6h2032V863.6h-2032z"/><rect id="HyNRxa21Z_pad-12" width="2032" height="1727.2" x="-1016" y="-863.6" rx="863.6" ry="863.6"/><path id="HyNRxa21Z_pad-13" d="M-1050-700h2100V700h-2100z"/><path id="HyNRxa21Z_pad-14" d="M-600-450H600v900H-600z"/><path id="HyNRxa21Z_pad-15" d="M-500-500H500V500H-500z"/><circle id="HyNRxa21Z_pad-16" r="350"/><path id="HyNRxa21Z_pad-11" d="M-1016-863.6h2032V863.6h-2032z"/><rect id="HyNRxa21Z_pad-12" width="2032" height="1727.2" x="-1016" y="-863.6" rx="863.6" ry="863.6"/><path id="HyNRxa21Z_pad-13" d="M-1050-700h2100V700h-2100z"/><path id="HyNRxa21Z_pad-14" d="M-600-450H600v900H-600z"/><path id="HyNRxa21Z_pad-15" d="M-500-500H500V500H-500z"/><circle id="HyNRxa21Z_pad-16" r="350"/><path id="SyxERxT3yb_pad-11" d="M-1216-1063.6h2432v2127.2h-2432z"/><rect id="SyxERxT3yb_pad-12" width="2432" height="2127.2" x="-1216" y="-1063.6" rx="1063.6" ry="1063.6"/><path id="SyxERxT3yb_pad-13" d="M-1250-900h2500V900h-2500z"/><path id="SyxERxT3yb_pad-14" d="M-800-650H800V650H-800z"/><path id="SyxERxT3yb_pad-15" d="M-700-700H700V700H-700z"/><path id="HyNRxa21Z_pad-11" d="M-1016-863.6h2032V863.6h-2032z"/><rect id="HyNRxa21Z_pad-12" width="2032" height="1727.2" x="-1016" y="-863.6" rx="863.6" ry="863.6"/><path id="HyNRxa21Z_pad-13" d="M-1050-700h2100V700h-2100z"/><path id="HyNRxa21Z_pad-14" d="M-600-450H600v900H-600z"/><path id="HyNRxa21Z_pad-15" d="M-500-500H500V500H-500z"/><circle id="HyNRxa21Z_pad-16" r="350"/><path id="HyNRxa21Z_pad-11" d="M-1016-863.6h2032V863.6h-2032z"/><rect id="HyNRxa21Z_pad-12" width="2032" height="1727.2" x="-1016" y="-863.6" rx="863.6" ry="863.6"/><path id="HyNRxa21Z_pad-13" d="M-1050-700h2100V700h-2100z"/><path id="HyNRxa21Z_pad-14" d="M-600-450H600v900H-600z"/><path id="HyNRxa21Z_pad-15" d="M-500-500H500V500H-500z"/><circle id="HyNRxa21Z_pad-16" r="350"/><path id="SyxERxT3yb_pad-11" d="M-1216-1063.6h2432v2127.2h-2432z"/><rect id="SyxERxT3yb_pad-12" width="2432" height="2127.2" x="-1216" y="-1063.6" rx="1063.6" ry="1063.6"/><path id="SyxERxT3yb_pad-13" d="M-1250-900h2500V900h-2500z"/><path id="SyxERxT3yb_pad-14" d="M-800-650H800V650H-800z"/><path id="SyxERxT3yb_pad-15" d="M-700-700H700V700H-700z"/><path id="SkZVCxphJ-_pad-16" d="M-1216-1063.6h2432v2127.2h-2432z"/><rect id="SkZVCxphJ-_pad-17" width="2432" height="2127.2" x="-1216" y="-1063.6" rx="1063.6" ry="1063.6"/><path id="SkZVCxphJ-_pad-18" d="M-1250-900h2500V900h-2500z"/><path id="SkZVCxphJ-_pad-19" d="M-800-650H800V650H-800z"/><path id="SkZVCxphJ-_pad-20" d="M-700-700H700V700H-700z"/><mask id="SkZVCxphJ-_clear-1" stroke="#000"><path fill="#fff" d="M219799.38-112920h14824.786v12122.6H219799.38z"/><use x="236220" y="-110490" xlink:href="#SkZVCxphJ-_pad-16"/><use x="236220" y="-107950" xlink:href="#SkZVCxphJ-_pad-17"/><use x="236220" y="-105410" xlink:href="#SkZVCxphJ-_pad-17"/><use x="236220" y="-102870" xlink:href="#SkZVCxphJ-_pad-17"/><use x="218440" y="-102870" xlink:href="#SkZVCxphJ-_pad-16"/><use x="218440" y="-105410" xlink:href="#SkZVCxphJ-_pad-17"/><use x="218440" y="-107950" xlink:href="#SkZVCxphJ-_pad-17"/><use x="218440" y="-110490" xlink:href="#SkZVCxphJ-_pad-17"/><use x="222625" y="-104595" xlink:href="#SkZVCxphJ-_pad-18"/><use x="231725" y="-109095" xlink:href="#SkZVCxphJ-_pad-18"/><use x="231725" y="-104595" xlink:href="#SkZVCxphJ-_pad-18"/><use x="222625" y="-109095" xlink:href="#SkZVCxphJ-_pad-18"/><use x="229365" y="-111605" xlink:href="#SkZVCxphJ-_pad-19"/><use x="231565" y="-111605" xlink:href="#SkZVCxphJ-_pad-19"/><use x="224535" y="-111585" xlink:href="#SkZVCxphJ-_pad-19"/><use x="222335" y="-111585" xlink:href="#SkZVCxphJ-_pad-19"/><use x="225785" y="-101915" xlink:href="#SkZVCxphJ-_pad-20"/><use x="228485" y="-101915" xlink:href="#SkZVCxphJ-_pad-20"/><use x="227135" y="-101915" xlink:href="#SkZVCxphJ-_pad-20"/></mask><path id="HyNRxa21Z_pad-11" d="M-1016-863.6h2032V863.6h-2032z"/><rect id="HyNRxa21Z_pad-12" width="2032" height="1727.2" x="-1016" y="-863.6" rx="863.6" ry="863.6"/><path id="HyNRxa21Z_pad-13" d="M-1050-700h2100V700h-2100z"/><path id="HyNRxa21Z_pad-14" d="M-600-450H600v900H-600z"/><path id="HyNRxa21Z_pad-15" d="M-500-500H500V500H-500z"/><circle id="HyNRxa21Z_pad-16" r="350"/><path id="HyNRxa21Z_pad-11" d="M-1016-863.6h2032V863.6h-2032z"/><rect id="HyNRxa21Z_pad-12" width="2032" height="1727.2" x="-1016" y="-863.6" rx="863.6" ry="863.6"/><path id="HyNRxa21Z_pad-13" d="M-1050-700h2100V700h-2100z"/><path id="HyNRxa21Z_pad-14" d="M-600-450H600v900H-600z"/><path id="HyNRxa21Z_pad-15" d="M-500-500H500V500H-500z"/><circle id="HyNRxa21Z_pad-16" r="350"/><path id="SyxERxT3yb_pad-11" d="M-1216-1063.6h2432v2127.2h-2432z"/><rect id="SyxERxT3yb_pad-12" width="2432" height="2127.2" x="-1216" y="-1063.6" rx="1063.6" ry="1063.6"/><path id="SyxERxT3yb_pad-13" d="M-1250-900h2500V900h-2500z"/><path id="SyxERxT3yb_pad-14" d="M-800-650H800V650H-800z"/><path id="SyxERxT3yb_pad-15" d="M-700-700H700V700H-700z"/><path id="HyNRxa21Z_pad-11" d="M-1016-863.6h2032V863.6h-2032z"/><rect id="HyNRxa21Z_pad-12" width="2032" height="1727.2" x="-1016" y="-863.6" rx="863.6" ry="863.6"/><path id="HyNRxa21Z_pad-13" d="M-1050-700h2100V700h-2100z"/><path id="HyNRxa21Z_pad-14" d="M-600-450H600v900H-600z"/><path id="HyNRxa21Z_pad-15" d="M-500-500H500V500H-500z"/><circle id="HyNRxa21Z_pad-16" r="350"/><path id="HyNRxa21Z_pad-11" d="M-1016-863.6h2032V863.6h-2032z"/><rect id="HyNRxa21Z_pad-12" width="2032" height="1727.2" x="-1016" y="-863.6" rx="863.6" ry="863.6"/><path id="HyNRxa21Z_pad-13" d="M-1050-700h2100V700h-2100z"/><path id="HyNRxa21Z_pad-14" d="M-600-450H600v900H-600z"/><path id="HyNRxa21Z_pad-15" d="M-500-500H500V500H-500z"/><circle id="HyNRxa21Z_pad-16" r="350"/><path id="SyxERxT3yb_pad-11" d="M-1216-1063.6h2432v2127.2h-2432z"/><rect id="SyxERxT3yb_pad-12" width="2432" height="2127.2" x="-1216" y="-1063.6" rx="1063.6" ry="1063.6"/><path id="SyxERxT3yb_pad-13" d="M-1250-900h2500V900h-2500z"/><path id="SyxERxT3yb_pad-14" d="M-800-650H800V650H-800z"/><path id="SyxERxT3yb_pad-15" d="M-700-700H700V700H-700z"/><path id="SkZVCxphJ-_pad-16" d="M-1216-1063.6h2432v2127.2h-2432z"/><rect id="SkZVCxphJ-_pad-17" width="2432" height="2127.2" x="-1216" y="-1063.6" rx="1063.6" ry="1063.6"/><path id="SkZVCxphJ-_pad-18" d="M-1250-900h2500V900h-2500z"/><path id="SkZVCxphJ-_pad-19" d="M-800-650H800V650H-800z"/><path id="SkZVCxphJ-_pad-20" d="M-700-700H700V700H-700z"/><mask id="SkZVCxphJ-_clear-1" stroke="#000"><path fill="#fff" d="M219799.38-112920h14824.786v12122.6H219799.38z"/><use x="236220" y="-110490" xlink:href="#SkZVCxphJ-_pad-16"/><use x="236220" y="-107950" xlink:href="#SkZVCxphJ-_pad-17"/><use x="236220" y="-105410" xlink:href="#SkZVCxphJ-_pad-17"/><use x="236220" y="-102870" xlink:href="#SkZVCxphJ-_pad-17"/><use x="218440" y="-102870" xlink:href="#SkZVCxphJ-_pad-16"/><use x="218440" y="-105410" xlink:href="#SkZVCxphJ-_pad-17"/><use x="218440" y="-107950" xlink:href="#SkZVCxphJ-_pad-17"/><use x="218440" y="-110490" xlink:href="#SkZVCxphJ-_pad-17"/><use x="222625" y="-104595" xlink:href="#SkZVCxphJ-_pad-18"/><use x="231725" y="-109095" xlink:href="#SkZVCxphJ-_pad-18"/><use x="231725" y="-104595" xlink:href="#SkZVCxphJ-_pad-18"/><use x="222625" y="-109095" xlink:href="#SkZVCxphJ-_pad-18"/><use x="229365" y="-111605" xlink:href="#SkZVCxphJ-_pad-19"/><use x="231565" y="-111605" xlink:href="#SkZVCxphJ-_pad-19"/><use x="224535" y="-111585" xlink:href="#SkZVCxphJ-_pad-19"/><use x="222335" y="-111585" xlink:href="#SkZVCxphJ-_pad-19"/><use x="225785" y="-101915" xlink:href="#SkZVCxphJ-_pad-20"/><use x="228485" y="-101915" xlink:href="#SkZVCxphJ-_pad-20"/><use x="227135" y="-101915" xlink:href="#SkZVCxphJ-_pad-20"/></mask><path id="HyNRxa21Z_pad-11" d="M-1016-863.6h2032V863.6h-2032z"/><rect id="HyNRxa21Z_pad-12" width="2032" height="1727.2" x="-1016" y="-863.6" rx="863.6" ry="863.6"/><path id="HyNRxa21Z_pad-13" d="M-1050-700h2100V700h-2100z"/><path id="HyNRxa21Z_pad-14" d="M-600-450H600v900H-600z"/><path id="HyNRxa21Z_pad-15" d="M-500-500H500V500H-500z"/><circle id="HyNRxa21Z_pad-16" r="350"/><path id="HyNRxa21Z_pad-11" d="M-1016-863.6h2032V863.6h-2032z"/><rect id="HyNRxa21Z_pad-12" width="2032" height="1727.2" x="-1016" y="-863.6" rx="863.6" ry="863.6"/><path id="HyNRxa21Z_pad-13" d="M-1050-700h2100V700h-2100z"/><path id="HyNRxa21Z_pad-14" d="M-600-450H600v900H-600z"/><path id="HyNRxa21Z_pad-15" d="M-500-500H500V500H-500z"/><circle id="HyNRxa21Z_pad-16" r="350"/><path id="SyxERxT3yb_pad-11" d="M-1216-1063.6h2432v2127.2h-2432z"/><rect id="SyxERxT3yb_pad-12" width="2432" height="2127.2" x="-1216" y="-1063.6" rx="1063.6" ry="1063.6"/><path id="SyxERxT3yb_pad-13" d="M-1250-900h2500V900h-2500z"/><path id="SyxERxT3yb_pad-14" d="M-800-650H800V650H-800z"/><path id="SyxERxT3yb_pad-15" d="M-700-700H700V700H-700z"/><path id="HyNRxa21Z_pad-11" d="M-1016-863.6h2032V863.6h-2032z"/><rect id="HyNRxa21Z_pad-12" width="2032" height="1727.2" x="-1016" y="-863.6" rx="863.6" ry="863.6"/><path id="HyNRxa21Z_pad-13" d="M-1050-700h2100V700h-2100z"/><path id="HyNRxa21Z_pad-14" d="M-600-450H600v900H-600z"/><path id="HyNRxa21Z_pad-15" d="M-500-500H500V500H-500z"/><circle id="HyNRxa21Z_pad-16" r="350"/><path id="HyNRxa21Z_pad-11" d="M-1016-863.6h2032V863.6h-2032z"/><rect id="HyNRxa21Z_pad-12" width="2032" height="1727.2" x="-1016" y="-863.6" rx="863.6" ry="863.6"/><path id="HyNRxa21Z_pad-13" d="M-1050-700h2100V700h-2100z"/><path id="HyNRxa21Z_pad-14" d="M-600-450H600v900H-600z"/><path id="HyNRxa21Z_pad-15" d="M-500-500H500V500H-500z"/><circle id="HyNRxa21Z_pad-16" r="350"/><path id="SyxERxT3yb_pad-11" d="M-1216-1063.6h2432v2127.2h-2432z"/><rect id="SyxERxT3yb_pad-12" width="2432" height="2127.2" x="-1216" y="-1063.6" rx="1063.6" ry="1063.6"/><path id="SyxERxT3yb_pad-13" d="M-1250-900h2500V900h-2500z"/><path id="SyxERxT3yb_pad-14" d="M-800-650H800V650H-800z"/><path id="SyxERxT3yb_pad-15" d="M-700-700H700V700H-700z"/><path id="SkZVCxphJ-_pad-16" d="M-1216-1063.6h2432v2127.2h-2432z"/><rect id="SkZVCxphJ-_pad-17" width="2432" height="2127.2" x="-1216" y="-1063.6" rx="1063.6" ry="1063.6"/><path id="SkZVCxphJ-_pad-18" d="M-1250-900h2500V900h-2500z"/><path id="SkZVCxphJ-_pad-19" d="M-800-650H800V650H-800z"/><path id="SkZVCxphJ-_pad-20" d="M-700-700H700V700H-700z"/><mask id="SkZVCxphJ-_clear-1" stroke="#000"><path fill="#fff" d="M219799.38-112920h14824.786v12122.6H219799.38z"/><use x="236220" y="-110490" xlink:href="#SkZVCxphJ-_pad-16"/><use x="236220" y="-107950" xlink:href="#SkZVCxphJ-_pad-17"/><use x="236220" y="-105410" xlink:href="#SkZVCxphJ-_pad-17"/><use x="236220" y="-102870" xlink:href="#SkZVCxphJ-_pad-17"/><use x="218440" y="-102870" xlink:href="#SkZVCxphJ-_pad-16"/><use x="218440" y="-105410" xlink:href="#SkZVCxphJ-_pad-17"/><use x="218440" y="-107950" xlink:href="#SkZVCxphJ-_pad-17"/><use x="218440" y="-110490" xlink:href="#SkZVCxphJ-_pad-17"/><use x="222625" y="-104595" xlink:href="#SkZVCxphJ-_pad-18"/><use x="231725" y="-109095" xlink:href="#SkZVCxphJ-_pad-18"/><use x="231725" y="-104595" xlink:href="#SkZVCxphJ-_pad-18"/><use x="222625" y="-109095" xlink:href="#SkZVCxphJ-_pad-18"/><use x="229365" y="-111605" xlink:href="#SkZVCxphJ-_pad-19"/><use x="231565" y="-111605" xlink:href="#SkZVCxphJ-_pad-19"/><use x="224535" y="-111585" xlink:href="#SkZVCxphJ-_pad-19"/><use x="222335" y="-111585" xlink:href="#SkZVCxphJ-_pad-19"/><use x="225785" y="-101915" xlink:href="#SkZVCxphJ-_pad-20"/><use x="228485" y="-101915" xlink:href="#SkZVCxphJ-_pad-20"/><use x="227135" y="-101915" xlink:href="#SkZVCxphJ-_pad-20"/></mask><circle id="HyDNAe63yW_pad-1" r="250"/><circle id="HyDNAe63yW_pad-2" r="508"/><g id="pcb-stackup_bottom_cu"><use x="236220" y="-110490" xlink:href="#HyNRxa21Z_pad-11"/><use x="236220" y="-107950" xlink:href="#HyNRxa21Z_pad-12"/><use x="236220" y="-105410" xlink:href="#HyNRxa21Z_pad-12"/><use x="236220" y="-102870" xlink:href="#HyNRxa21Z_pad-12"/><use x="218440" y="-102870" xlink:href="#HyNRxa21Z_pad-11"/><use x="218440" y="-105410" xlink:href="#HyNRxa21Z_pad-12"/><use x="218440" y="-107950" xlink:href="#HyNRxa21Z_pad-12"/><use x="218440" y="-110490" xlink:href="#HyNRxa21Z_pad-12"/><use x="222625" y="-104595" xlink:href="#HyNRxa21Z_pad-13"/><use x="231725" y="-109095" xlink:href="#HyNRxa21Z_pad-13"/><use x="231725" y="-104595" xlink:href="#HyNRxa21Z_pad-13"/><use x="222625" y="-109095" xlink:href="#HyNRxa21Z_pad-13"/><use x="229365" y="-111605" xlink:href="#HyNRxa21Z_pad-14"/><use x="231565" y="-111605" xlink:href="#HyNRxa21Z_pad-14"/><use x="224535" y="-111585" xlink:href="#HyNRxa21Z_pad-14"/><use x="222335" y="-111585" xlink:href="#HyNRxa21Z_pad-14"/><use x="225785" y="-101915" xlink:href="#HyNRxa21Z_pad-15"/><use x="228485" y="-101915" xlink:href="#HyNRxa21Z_pad-15"/><use x="227135" y="-101915" xlink:href="#HyNRxa21Z_pad-15"/><use x="226796.251" y="-108879.14" xlink:href="#HyNRxa21Z_pad-16"/><use x="223789.989" y="-107294.991" xlink:href="#HyNRxa21Z_pad-16"/><use x="228228.165" y="-109356.445" xlink:href="#HyNRxa21Z_pad-16"/><use x="229528.749" y="-108778.898" xlink:href="#HyNRxa21Z_pad-16"/><use x="232723.938" y="-107326.43" xlink:href="#HyNRxa21Z_pad-16"/><use x="228106.428" y="-107328.182" xlink:href="#HyNRxa21Z_pad-16"/><use x="227055" y="-105325" xlink:href="#HyNRxa21Z_pad-16"/><use x="228295" y="-105355.011" xlink:href="#HyNRxa21Z_pad-16"/><use x="228465" y="-104005" xlink:href="#HyNRxa21Z_pad-16"/><use x="227055" y="-107425" xlink:href="#HyNRxa21Z_pad-16"/><use x="224225.002" y="-104925" xlink:href="#HyNRxa21Z_pad-16"/><use x="232705" y="-112425" xlink:href="#HyNRxa21Z_pad-16"/><use x="220735" y="-112255" xlink:href="#HyNRxa21Z_pad-16"/><path fill="none" stroke-width="250" d="M226301.277-108879.14h494.974m-3006.262 1584.149l1584.149-1584.149h927.139M231725-109095h3240l1100 1100v60l155-15m-13595-1145h-2980l-1150 1150-55-5m14283.938 623.57h-1742.721m-2874.789-1.752v-1906.526l121.737-121.737m2753.052 2030.015l-1102.469-1102.469-349.999-349.999M225445-102395v360l340 120m10435-3495v2540m-6845-7865l-471.834 471.834m-163.168 1393.89v368.278m445.002 445.002V-104595m-445.002-3905.998l445.002 445.002m190-3379.004v700m-471.834 471.834v1230.722l-163.168 163.168m360.001 4189.275l85.001 85.001m-1764.999-85.001h1679.998M227335-104595l85.001-85.001M224535-111585h4720l120 120v30m-2320 6110v450l280 280m1850 0h2580l70-70v-20l-110 90m-9340 110l240-110m-4185 1725v-2510l85-85-85 55m8615 85l140-140v-200"/><path fill="none" stroke-width="100" d="M227135-101915h1310l20-20 20 20"/><path fill="none" stroke-width="250" d="M228465-104005v2070l20 20m-190-3934.985v494.974M227055-107425l1240 1240v335.015"/><path fill="none" stroke-width="200" d="M228445-101915l20 20 20-20"/><path fill="none" stroke-width="250" d="M224225.002-104925H224615l850 850m1670 1410l-1410-1410h-260m1670 2160v-750m4430-8940h320l820-820m-1130 990h430m-10650-200h970m-1590-620l620 620m970 0l10 50"/><path d="M224746.673-101055.301l-96.673-233.389v-340.56l158.75-158.75h849.25v20h254v-20h20v-254h-20v-20h-254v20h-849.25l-158.75-158.75v-340.56l96.673-233.389 178.629-178.628 233.389-96.673h340.559l158.748 158.748V-103050h17.2l-278.608-278.608-222.429-44.244-246.562-164.747-432.863-432.863-72.946 30.29-111.79.098v171.383l-96.673 233.389-178.628 178.629-233.389 96.673h-890.56l-158.75-158.75V-104468h20v-254h-20v-1049.25l158.75-158.75h890.56l137.911 57.125 88.993-36.953 391.857-.342 362.16 149.641 153.868 153.6 216.302 144.528 641.009 641.009 222.429 44.244 246.562 164.747 1410 1410 32.599 48.788v-218.276l-74.555-74.425-150.273-361.898-.342-391.857 149.641-362.16 32.682-32.739-201.708-201.357-150.273-361.898-.342-391.857 149.641-362.16 16.729-16.758-510.924-510.924-105.345.092-362.16-149.641-277.326-276.843-150.273-361.898-.342-391.857 149.641-362.16 49.091-49.176-29.54-12.206-75.661-75.529h-474.421l-913.873 913.873.092 105.345-149.641 362.16-276.843 277.326-361.898 150.273-391.857.342-362.16-149.641-277.326-276.843-150.273-361.898-.342-391.857 106.397-257.5H221575l-247.765-49.283-210.044-140.348-140.348-210.044-37.348-187.765h-892.731l76.581 385-114.074 573.489-324.856 486.181-309.484 206.791 415.801 371.503 253.977 527.245 2.649 15.765-121.141 232.026H218567v-20h-254v20h-1359.217l-121.141-232.026 2.649-15.765 253.977-527.245 415.801-371.503-309.484-206.791-324.856-486.181-114.074-573.489 114.074-573.489 324.856-486.181 314.781-210.33-314.781-210.33-324.856-486.181-114.074-573.489 114.074-573.489 324.856-486.181 486.181-324.856 573.489-114.074h369.49l573.489 114.074 486.181 324.856 324.856 486.181 114.074 573.489-114.074 573.489-41.1 61.511h971.324l37.348-187.765 140.348-210.044 210.044-140.348 247.765-49.283h2100l247.765 49.283 210.044 140.348 140.348 210.044 49.283 247.765v892.756l514.297-514.297 246.562-164.747 290.839-57.852h789.002l74.425-74.555 361.898-150.273 391.857-.342 325.37 134.44 75.946-183.804 276.843-277.326 361.898-150.273 391.857-.342 362.16 149.641 277.326 276.843 93.219 224.496 176.022-73.091 391.857-.342 303.742 125.503V-109795l49.283-247.765 140.348-210.044 210.044-140.348 247.765-49.283h2100l247.765 49.283 210.044 140.348 140.348 210.044 37.348 187.765h1146.055v-1498.6l49.283-247.765 140.348-210.044 210.044-140.348 247.765-49.283h2032l247.765 49.283 210.044 140.348 140.348 210.044 49.283 247.765v1727.2l-49.283 247.765-140.348 210.044-210.044 140.348-36.331 7.227 16.981 11.346 324.856 486.181 114.074 573.489-114.074 573.489-324.856 486.181-309.484 206.791 415.801 371.503 253.977 527.245 2.649 15.765-121.141 232.026H236347v-20h-254v20h-1359.217l-121.141-232.026 2.649-15.765 253.977-527.245 415.801-371.503-309.484-206.791-324.856-486.181-114.074-573.489 76.581-385h-1202.731l-37.348 187.765-30.906 46.254 216.242 215.865 150.273 361.898.342 391.857-149.641 362.16-276.843 277.326-361.898 150.273-391.857.342-362.16-149.641-75.661-75.529h-1109.831l-290.839-57.852-246.562-164.747-1004.791-1004.791-105.345.092-362.16-149.641-105.092-104.909v86.985l74.555 74.425 150.273 361.898.342 391.857-149.641 362.16-85.062 85.21 140.253 209.904L229055-106185v196.878l74.555 74.425 150.273 361.898.342 391.857-115.359 279.192H230040v-540.559l96.673-233.389 178.628-178.629 233.389-96.673h890.56l158.75 158.75v1049.25h254v-1049.25l158.75-158.75h890.56l233.389 96.673 178.628 178.629 96.673 233.389v540.559l-158.75 158.75h-3052.5l-158.75-158.75h-875.189l-34.282 82.968-32.682 32.739 201.708 201.357 150.273 361.898.342 391.857-17.039 41.24H230040v-540.559l158.75-158.75H231598v1049.25h254V-104468h1399.25l158.75 158.75v540.559l-96.673 233.389-178.628 178.629-233.389 96.673h-890.56l-158.75-158.75h-254l-158.75 158.75h-890.56l-233.389-96.673-178.628-178.629-96.673-233.389h-606.869l-132.602 320.92-75.529 75.661v143.084h5387.642l2.649-15.765 253.977-527.245 411.84-367.964-411.84-367.964-253.977-527.245-2.649-15.765 121.141-232.026H236093v2286h254v-2286h1359.217l121.141 232.026-2.649 15.765-253.977 527.245-411.84 367.964 411.84 367.964 253.977 527.245 2.649 15.765-121.141 232.026h-2972.434l-121.141-232.026H229225v214.324l7.765 1.545 210.044 140.348 140.348 210.044 30.192 151.791h4999.293l121.141-232.026H236093v1213.924h254V-102743h1359.217l121.141 232.026-2.649 15.765-253.977 527.245-436.412 389.918-552.407 193.23-234.913-144.26h-254l-234.913 144.26-552.407-193.23-436.412-389.918-253.977-527.245-2.649-15.765h-4999.293l19.091 95.974v1000l-49.283 247.765-85.016 127.235h7697.767l854.092-854.092v-9571.816l-854.092-854.092h-3505.817l.079 90.069-149.641 362.16-276.843 277.326-361.898 150.273-89.348.078v285.094l-49.283 247.765-140.348 210.044-210.044 140.348-247.765 49.283h-1200l-247.765-49.283-210.044-140.348-40.845-61.129-141.648 141.647-233.389 96.673h-440.559l-158.75-158.75v-799.25h20v-254h-20v-20h-254v20h-949.25l-158.75-158.75v-290.56l57.447-138.69h-2483.179l65.732 158.69v290.56l-158.75 158.75H224662v-20h-254v20h-20v254h20v799.25h254v-799.25h949.25l158.75 158.75v270.56h2360v-290.56l158.75-158.75h949.25v799.25l-158.75 158.75h-440.559l-233.389-96.673-178.629-178.628-96.673-233.389h-2360v20l-96.673 233.389-178.629 178.628-233.389 96.673h-440.559l-158.75-158.75h-254l-158.75 158.75h-440.559l-233.389-96.673-141.648-141.647-40.845 61.129-210.044 140.348-247.765 49.283h-1200l-247.765-49.283-210.044-140.348-140.348-210.044-6.453-32.443-17.976-3.576-48.254-9.598-246.561-164.747-172.323-172.323-105.345.092-362.16-149.641-277.326-276.843-150.273-361.898-.228-261.788h-2285.852l-854.092 854.092v8310.158h179v-704.16l96.673-233.389 178.629-178.628 197.559-81.832-172.593-154.205-253.977-527.245-2.649-15.765 121.141-232.026H218313v2286h254v-2286h1359.217l121.141 232.026-2.649 15.765-74.403 154.459H220940v-540.559l96.673-233.389 178.628-178.629 233.389-96.673h890.56l158.75 158.75v1049.25h-1399.25l-158.75-158.75h-969.694l-179.574 372.786-172.593 154.205 197.559 81.832 178.629 178.628 96.673 233.389v91.219h849v-540.559l158.75-158.75H222498v1049.25l-158.75 158.75h-890.56l-233.389-96.673-178.628-178.629-96.673-233.389h-849v612.941l-158.75 158.75h-2984.5l-158.75-158.75h-179v1261.658l14.002 14.002H216789v-704.16l158.75-158.75H218313v1212.85h254V-102743h1365.25l158.75 158.75v704.16l-96.673 233.389-178.629 178.628-233.389 96.673h-856.559l-158.75-158.75h-254l-158.75 158.75h-856.559l-233.389-96.673-178.629-178.628-96.673-233.389h-164.998l840.09 840.09h7297.882l-15.301-15.301"/><path fill="none" stroke-width="254" d="M224746.673-101055.301l-96.673-233.389v-340.56l158.75-158.75h849.25v20h254v-20h20v-254h-20v-20h-254v20h-849.25l-158.75-158.75v-340.56l96.673-233.389 178.629-178.628 233.389-96.673h340.559l158.748 158.748V-103050h17.2l-278.608-278.608-222.429-44.244-246.562-164.747-432.863-432.863-72.946 30.29-111.79.098v171.383l-96.673 233.389-178.628 178.629-233.389 96.673h-890.56l-158.75-158.75V-104468h20v-254h-20v-1049.25l158.75-158.75h890.56l137.911 57.125 88.993-36.953 391.857-.342 362.16 149.641 153.868 153.6 216.302 144.528 641.009 641.009 222.429 44.244 246.562 164.747 1410 1410 32.599 48.788v-218.276l-74.555-74.425-150.273-361.898-.342-391.857 149.641-362.16 32.682-32.739-201.708-201.357-150.273-361.898-.342-391.857 149.641-362.16 16.729-16.758-510.924-510.924-105.345.092-362.16-149.641-277.326-276.843-150.273-361.898-.342-391.857 149.641-362.16 49.091-49.176-29.54-12.206-75.661-75.529h-474.421l-913.873 913.873.092 105.345-149.641 362.16-276.843 277.326-361.898 150.273-391.857.342-362.16-149.641-277.326-276.843-150.273-361.898-.342-391.857 106.397-257.5H221575l-247.765-49.283-210.044-140.348-140.348-210.044-37.348-187.765h-892.731l76.581 385-114.074 573.489-324.856 486.181-309.484 206.791 415.801 371.503 253.977 527.245 2.649 15.765-121.141 232.026H218567v-20h-254v20h-1359.217l-121.141-232.026 2.649-15.765 253.977-527.245 415.801-371.503-309.484-206.791-324.856-486.181-114.074-573.489 114.074-573.489 324.856-486.181 314.781-210.33-314.781-210.33-324.856-486.181-114.074-573.489 114.074-573.489 324.856-486.181 486.181-324.856 573.489-114.074h369.49l573.489 114.074 486.181 324.856 324.856 486.181 114.074 573.489-114.074 573.489-41.1 61.511h971.324l37.348-187.765 140.348-210.044 210.044-140.348 247.765-49.283h2100l247.765 49.283 210.044 140.348 140.348 210.044 49.283 247.765v892.756l514.297-514.297 246.562-164.747 290.839-57.852h789.002l74.425-74.555 361.898-150.273 391.857-.342 325.37 134.44 75.946-183.804 276.843-277.326 361.898-150.273 391.857-.342 362.16 149.641 277.326 276.843 93.219 224.496 176.022-73.091 391.857-.342 303.742 125.503V-109795l49.283-247.765 140.348-210.044 210.044-140.348 247.765-49.283h2100l247.765 49.283 210.044 140.348 140.348 210.044 37.348 187.765h1146.055v-1498.6l49.283-247.765 140.348-210.044 210.044-140.348 247.765-49.283h2032l247.765 49.283 210.044 140.348 140.348 210.044 49.283 247.765v1727.2l-49.283 247.765-140.348 210.044-210.044 140.348-36.331 7.227 16.981 11.346 324.856 486.181 114.074 573.489-114.074 573.489-324.856 486.181-309.484 206.791 415.801 371.503 253.977 527.245 2.649 15.765-121.141 232.026H236347v-20h-254v20h-1359.217l-121.141-232.026 2.649-15.765 253.977-527.245 415.801-371.503-309.484-206.791-324.856-486.181-114.074-573.489 76.581-385h-1202.731l-37.348 187.765-30.906 46.254 216.242 215.865 150.273 361.898.342 391.857-149.641 362.16-276.843 277.326-361.898 150.273-391.857.342-362.16-149.641-75.661-75.529h-1109.831l-290.839-57.852-246.562-164.747-1004.791-1004.791-105.345.092-362.16-149.641-105.092-104.909v86.985l74.555 74.425 150.273 361.898.342 391.857-149.641 362.16-85.062 85.21 140.253 209.904L229055-106185v196.878l74.555 74.425 150.273 361.898.342 391.857-115.359 279.192H230040v-540.559l96.673-233.389 178.628-178.629 233.389-96.673h890.56l158.75 158.75v1049.25h254v-1049.25l158.75-158.75h890.56l233.389 96.673 178.628 178.629 96.673 233.389v540.559l-158.75 158.75h-3052.5l-158.75-158.75h-875.189l-34.282 82.968-32.682 32.739 201.708 201.357 150.273 361.898.342 391.857-17.039 41.24H230040v-540.559l158.75-158.75H231598v1049.25h254V-104468h1399.25l158.75 158.75v540.559l-96.673 233.389-178.628 178.629-233.389 96.673h-890.56l-158.75-158.75h-254l-158.75 158.75h-890.56l-233.389-96.673-178.628-178.629-96.673-233.389h-606.869l-132.602 320.92-75.529 75.661v143.084h5387.642l2.649-15.765 253.977-527.245 411.84-367.964-411.84-367.964-253.977-527.245-2.649-15.765 121.141-232.026H236093v2286h254v-2286h1359.217l121.141 232.026-2.649 15.765-253.977 527.245-411.84 367.964 411.84 367.964 253.977 527.245 2.649 15.765-121.141 232.026h-2972.434l-121.141-232.026H229225v214.324l7.765 1.545 210.044 140.348 140.348 210.044 30.192 151.791h4999.293l121.141-232.026H236093v1213.924h254V-102743h1359.217l121.141 232.026-2.649 15.765-253.977 527.245-436.412 389.918-552.407 193.23-234.913-144.26h-254l-234.913 144.26-552.407-193.23-436.412-389.918-253.977-527.245-2.649-15.765h-4999.293l19.091 95.974v1000l-49.283 247.765-85.016 127.235h7697.767l854.092-854.092v-9571.816l-854.092-854.092h-3505.817l.079 90.069-149.641 362.16-276.843 277.326-361.898 150.273-89.348.078v285.094l-49.283 247.765-140.348 210.044-210.044 140.348-247.765 49.283h-1200l-247.765-49.283-210.044-140.348-40.845-61.129-141.648 141.647-233.389 96.673h-440.559l-158.75-158.75v-799.25h20v-254h-20v-20h-254v20h-949.25l-158.75-158.75v-290.56l57.447-138.69h-2483.179l65.732 158.69v290.56l-158.75 158.75H224662v-20h-254v20h-20v254h20v799.25h254v-799.25h949.25l158.75 158.75v270.56h2360v-290.56l158.75-158.75h949.25v799.25l-158.75 158.75h-440.559l-233.389-96.673-178.629-178.628-96.673-233.389h-2360v20l-96.673 233.389-178.629 178.628-233.389 96.673h-440.559l-158.75-158.75h-254l-158.75 158.75h-440.559l-233.389-96.673-141.648-141.647-40.845 61.129-210.044 140.348-247.765 49.283h-1200l-247.765-49.283-210.044-140.348-140.348-210.044-6.453-32.443-17.976-3.576-48.254-9.598-246.561-164.747-172.323-172.323-105.345.092-362.16-149.641-277.326-276.843-150.273-361.898-.228-261.788h-2285.852l-854.092 854.092v8310.158h179v-704.16l96.673-233.389 178.629-178.628 197.559-81.832-172.593-154.205-253.977-527.245-2.649-15.765 121.141-232.026H218313v2286h254v-2286h1359.217l121.141 232.026-2.649 15.765-74.403 154.459H220940v-540.559l96.673-233.389 178.628-178.629 233.389-96.673h890.56l158.75 158.75v1049.25h-1399.25l-158.75-158.75h-969.694l-179.574 372.786-172.593 154.205 197.559 81.832 178.629 178.628 96.673 233.389v91.219h849v-540.559l158.75-158.75H222498v1049.25l-158.75 158.75h-890.56l-233.389-96.673-178.628-178.629-96.673-233.389h-849v612.941l-158.75 158.75h-2984.5l-158.75-158.75h-179v1261.658l14.002 14.002H216789v-704.16l158.75-158.75H218313v1212.85h254V-102743h1365.25l158.75 158.75v704.16l-96.673 233.389-178.629 178.628-233.389 96.673h-856.559l-158.75-158.75h-254l-158.75 158.75h-856.559l-233.389-96.673-178.629-178.628-96.673-233.389h-164.998l840.09 840.09h7297.882l-15.301-15.301"/></g><g id="pcb-stackup_bottom_sm"><use x="236220" y="-110490" xlink:href="#SyxERxT3yb_pad-11"/><use x="236220" y="-107950" xlink:href="#SyxERxT3yb_pad-12"/><use x="236220" y="-105410" xlink:href="#SyxERxT3yb_pad-12"/><use x="236220" y="-102870" xlink:href="#SyxERxT3yb_pad-12"/><use x="218440" y="-102870" xlink:href="#SyxERxT3yb_pad-11"/><use x="218440" y="-105410" xlink:href="#SyxERxT3yb_pad-12"/><use x="218440" y="-107950" xlink:href="#SyxERxT3yb_pad-12"/><use x="218440" y="-110490" xlink:href="#SyxERxT3yb_pad-12"/><use x="222625" y="-104595" xlink:href="#SyxERxT3yb_pad-13"/><use x="231725" y="-109095" xlink:href="#SyxERxT3yb_pad-13"/><use x="231725" y="-104595" xlink:href="#SyxERxT3yb_pad-13"/><use x="222625" y="-109095" xlink:href="#SyxERxT3yb_pad-13"/><use x="229365" y="-111605" xlink:href="#SyxERxT3yb_pad-14"/><use x="231565" y="-111605" xlink:href="#SyxERxT3yb_pad-14"/><use x="224535" y="-111585" xlink:href="#SyxERxT3yb_pad-14"/><use x="222335" y="-111585" xlink:href="#SyxERxT3yb_pad-14"/><use x="225785" y="-101915" xlink:href="#SyxERxT3yb_pad-15"/><use x="228485" y="-101915" xlink:href="#SyxERxT3yb_pad-15"/><use x="227135" y="-101915" xlink:href="#SyxERxT3yb_pad-15"/></g><g id="pcb-stackup_bottom_ss"><g mask="url(#SkZVCxphJ-_clear-1)"><path fill="none" stroke-width="150" d="M229950.769-102273.525v-314.286l-28.571-57.143-57.143-28.571h-114.286l-57.143 28.571m257.143 342.858l-57.143 28.571h-142.857l-57.143-28.571-28.571-57.143v-57.143l28.571-57.143 57.143-28.571h142.857l57.143-28.572m542.857-142.857v400m-257.142-400v314.286l28.571 57.143 57.143 28.571h85.714l57.143-28.571 28.571-28.572m200-342.857h228.572m-142.857-200v514.286l28.571 57.143 57.143 28.571h57.143m285.714 0l-57.143-28.571-28.571-28.572-28.572-57.143v-171.428l28.572-57.143 28.571-28.572 57.143-28.571h85.714l57.143 28.571 28.572 28.572 28.571 57.143v171.428l-28.571 57.143-28.572 28.572-57.143 28.571h-85.714m-7829.259 0v-314.286l-28.571-57.143-57.143-28.571h-114.286l-57.143 28.571m257.143 342.858l-57.143 28.571h-142.857l-57.143-28.571-28.571-57.143v-57.143l28.571-57.143 57.143-28.571h142.857l57.143-28.572m542.857-142.857v400m-257.142-400v314.286l28.571 57.143 57.143 28.571h85.714l57.143-28.571 28.571-28.572m200-342.857h228.572m-142.857-200v514.286l28.571 57.143 57.143 28.571h57.143m285.714 0l-57.143-28.571-28.571-28.572-28.572-57.143v-171.428l28.572-57.143 28.571-28.572 57.143-28.571h85.714l57.143 28.571 28.572 28.572 28.571 57.143v171.428l-28.571 57.143-28.572 28.572-57.143 28.571h-85.714"/><path fill="none" stroke-width="200" d="M233407.13-109191.19l1000-333.333-1000-333.334m1000-476.19l-47.619 95.238-47.619 47.619-95.238 47.619h-285.714l-95.238-47.619-47.619-47.619-47.619-95.238v-142.857l47.619-95.238 47.619-47.619 95.238-47.619h285.714l95.238 47.619 47.619 47.619 47.619 95.238v142.857m-666.666-1190.476h666.666m-666.666 428.571h523.809l95.238-47.619 47.619-95.238v-142.857l-47.619-95.238-47.619-47.619m-571.428-333.334v-380.952m-333.334 238.095h857.143l95.238-47.619 47.619-95.238v-95.238"/><path fill="none" stroke-width="125" d="M234195-107491.666l33.333-100 33.333-33.334 66.667-33.333h100l66.667 33.333 33.333 33.334 33.333 66.666v266.667h-700v-233.333l33.334-66.667 33.333-33.333 66.667-33.334h66.666l66.667 33.334 33.333 33.333 33.334 66.667v233.333m-333.334-600v-400m700 200h-700m700-433.333h-700l700-400h-700m33.334 3990l-33.334 66.666v100l33.334 100 66.666 66.667 66.667 33.333 133.333 33.334h100L234395-104535l66.666-33.333 66.667-66.667 33.333-100v-66.666l-33.333-100-33.333-33.334h-233.334v133.334m300-433.334h-700l700-400h-700m700-333.333h-700V-106135l33.334-100 66.666-66.666 66.667-33.334 133.333-33.333h100L234395-106335l66.666 33.334 66.667 66.666 33.333 100v166.667m-666.666 3706.667l-33.334 66.666v100l33.334 100 66.666 66.667 66.667 33.333 133.333 33.334h100L234395-101895l66.666-33.333 66.667-66.667 33.333-100v-66.666l-33.333-100-33.333-33.334h-233.334v133.334m300-433.334h-700l700-400h-700m700-333.333h-700V-103495l33.334-100 66.666-66.666 66.667-33.334 133.333-33.333h100L234395-103695l66.666 33.334 66.667 66.666 33.333 100v166.667"/><path fill="none" stroke-width="200" d="M219899.38-109735.188l1000-333.333-1000-333.334m1000-333.333h-666.666m-333.334 0l47.62 47.619 47.619-47.619-47.619-47.619-47.62 47.619h95.239m238.095-476.19h666.666m-571.428 0l-47.619-47.62-47.619-95.238v-142.857l47.619-95.238 95.238-47.619h523.809"/><path fill="none" stroke-width="125" d="M220687.25-107550.998l33.333-100 33.333-33.334 66.667-33.333h100l66.667 33.333 33.333 33.334 33.333 66.666v266.667h-700v-233.333l33.334-66.667 33.333-33.333 66.667-33.334h66.666l66.667 33.334 33.333 33.333 33.334 66.667v233.333m-333.334-600v-400m700 200h-700m700-433.333h-700l700-400h-700m33.334 3974.666l-33.334 66.666v100l33.334 100 66.666 66.667 66.667 33.333 133.333 33.334h100l133.334-33.334 66.666-33.333 66.667-66.667 33.333-100v-66.666l-33.333-100-33.333-33.334h-233.334v133.334m300-433.334h-700l700-400h-700m700-333.333h-700v-166.667l33.334-100 66.666-66.666 66.667-33.334 133.333-33.333h100l133.334 33.333 66.666 33.334 66.667 66.666 33.333 100v166.667"/><path fill="none" stroke-width="250" d="M223490.558-101002.573l-95.238-47.619-47.619-47.619-47.619-95.238v-285.714l47.619-95.238 47.619-47.619 95.238-47.619h142.857l95.238 47.619 47.619 47.619 47.619 95.238v285.714l-47.619 95.238-47.619 47.619-95.238 47.619h-142.857m761.905-666.666v666.666m0-571.428l47.619-47.619 95.238-47.619h142.857l95.238 47.619 47.619 95.238v523.809m5012.592 0l-95.238-47.619-47.619-47.619-47.619-95.238v-285.714l47.619-95.238 47.619-47.619 95.238-47.619h142.858l95.238 47.619 47.619 47.619 47.619 95.238v285.714l-47.619 95.238-47.619 47.619-95.238 47.619h-142.858m619.048-666.666h380.952m-238.095 666.666v-857.142l47.619-95.239 95.238-47.619h95.238m190.477 333.334h380.952m-238.095 666.666v-857.142l47.619-95.239 95.238-47.619h95.238"/><path fill="none" stroke-width="125" d="M220387.25-102351.666l-33.334 66.666v100l33.334 100 66.666 66.667 66.667 33.333 133.333 33.334h100l133.334-33.334 66.666-33.333 66.667-66.667 33.333-100v-66.666l-33.333-100-33.333-33.334h-233.334v133.334m300-433.334h-700l700-400h-700m700-333.333h-700V-103585l33.334-100 66.666-66.666 66.667-33.334 133.333-33.333h100l133.334 33.333 66.666 33.334 66.667 66.666 33.333 100v166.667"/><path fill="none" stroke-width="150" d="M228977.776-106845a1802.776 1802.776 0 0 1-3605.552 0 1802.776 1802.776 0 0 1 3605.552 0M224175-110345v7000m6000-7000h-6000m6000 7000v-7000m-6000 7000h6000m790-7585h-1000m0-1350h1000m-8030 20h1000m0 1350h-1000"/><path fill="none" stroke-width="203.2" d="M226735-102915v2000h800v-2000h-800m1354 2016v-2032m-1908 0v2032m1908 0a1016 1016 0 0 0 1016-1016 1016 1016 0 0 0-1016-1016m-1908 0a1016 1016 0 0 0-1016 1016 1016 1016 0 0 0 1016 1016"/><path fill="none" stroke-width="150" d="M231438.333-105971.666l33.333-100v-166.667l-33.333-66.667-33.333-33.333-66.667-33.333h-66.667l-66.666 33.333-33.334 33.333-33.333 66.667L231105-106105l-33.334 66.667-33.333 33.333-66.667 33.334H230905l-66.667-33.334-33.333-33.333-33.334-66.667v-166.666l33.334-100m-33.334-233.334l700-166.666-500-133.334 500-133.333-700-166.667m700-633.333v400m0-200h-700l100 66.667 66.667 66.666 33.333 66.667m-2770-3443.333v333.333h-700M227835-111115v-233.333m366.666-100v333.333h-700v-333.333m700-300h-700V-111915l33.334-100 66.666-66.666 66.667-33.334 133.333-33.333h100L228035-112115l66.666 33.334 66.667 66.666 33.333 100v166.667m-633.333-666.667l-33.333-33.333-33.334-66.667v-166.666l33.334-66.667 33.333-33.333 66.667-33.334h66.666l100 33.334 400 400V-112815m-1780 1903.334v333.333h-700M226055-111145v-233.333m366.666-100v333.333h-700v-333.333m700-300h-700V-111945l33.334-100 66.666-66.666 66.667-33.334 133.333-33.333h100L226255-112145l66.666 33.334 66.667 66.666 33.333 100v166.667m0-1066.667v400m0-200h-700l100 66.667 66.667 66.667 33.333 66.666m-3960 11143.334h500l100 33.333 66.667 66.667 33.333 100v66.666m0-600h-700v-266.666l33.334-66.667 33.333-33.333 66.667-33.334h100l66.666 33.334 33.334 33.333 33.333 66.667v266.666m333.333-1066.666v400m0-200h-700l100 66.666 66.667 66.667 33.333 66.667"/></g></g><g id="pcb-stackup_bottom_drl2"><use x="220735" y="-112255" xlink:href="#HyDNAe63yW_pad-1"/><use x="223790" y="-107295" xlink:href="#HyDNAe63yW_pad-1"/><use x="224225" y="-104925" xlink:href="#HyDNAe63yW_pad-1"/><use x="226796" y="-108879" xlink:href="#HyDNAe63yW_pad-1"/><use x="227055" y="-105325" xlink:href="#HyDNAe63yW_pad-1"/><use x="227055" y="-107425" xlink:href="#HyDNAe63yW_pad-1"/><use x="228106" y="-107328" xlink:href="#HyDNAe63yW_pad-1"/><use x="228228" y="-109356" xlink:href="#HyDNAe63yW_pad-1"/><use x="228295" y="-105355" xlink:href="#HyDNAe63yW_pad-1"/><use x="228465" y="-104005" xlink:href="#HyDNAe63yW_pad-1"/><use x="229529" y="-108779" xlink:href="#HyDNAe63yW_pad-1"/><use x="232705" y="-112425" xlink:href="#HyDNAe63yW_pad-1"/><use x="232724" y="-107326" xlink:href="#HyDNAe63yW_pad-1"/><use x="218440" y="-102870" xlink:href="#HyDNAe63yW_pad-2"/><use x="218440" y="-105410" xlink:href="#HyDNAe63yW_pad-2"/><use x="218440" y="-107950" xlink:href="#HyDNAe63yW_pad-2"/><use x="218440" y="-110490" xlink:href="#HyDNAe63yW_pad-2"/><use x="236220" y="-102870" xlink:href="#HyDNAe63yW_pad-2"/><use x="236220" y="-105410" xlink:href="#HyDNAe63yW_pad-2"/><use x="236220" y="-107950" xlink:href="#HyDNAe63yW_pad-2"/><use x="236220" y="-110490" xlink:href="#HyDNAe63yW_pad-2"/></g><clipPath id="pcb-stackup_bottom_out"><path fill="none" stroke-width="150" d="M237490-100330h-20320l-1270-1270v-10160l1270-1270h20320l1270 1270v10160l-1270 1270"/></clipPath><mask id="pcb-stackup_bottom_mech-mask"><g stroke="#000"><path fill="#fff" d="M215900-113030h22860v12700h-22860z"/><use xlink:href="#pcb-stackup_bottom_drl1"/><use xlink:href="#pcb-stackup_bottom_drl2"/></g></mask><mask id="pcb-stackup_bottom_cf-mask"><g fill="#fff" stroke="#fff"><use xlink:href="#pcb-stackup_bottom_sm"/></g></mask><mask id="pcb-stackup_bottom_sm-mask"><g stroke="#000"><path fill="#fff" d="M215900-113030h22860v12700h-22860z"/><use xlink:href="#pcb-stackup_bottom_sm"/></g></mask></defs><g><g mask="url(#pcb-stackup_bottom_mech-mask)" clip-path="url(#pcb-stackup_bottom_out)" transform="rotate(180 227330 -106680)"><path fill="currentColor" d="M215900-113030h22860v12700h-22860z" class="pcb-stackup_fr4"/><use fill="currentColor" stroke="currentColor" xlink:href="#pcb-stackup_bottom_cu" class="pcb-stackup_cu"/><use fill="currentColor" stroke="currentColor" xlink:href="#pcb-stackup_bottom_cu" class="pcb-stackup_cf" mask="url(#pcb-stackup_bottom_cf-mask)"/><g mask="url(#pcb-stackup_bottom_sm-mask)"><path fill="currentColor" d="M215900-113030h22860v12700h-22860z" class="pcb-stackup_sm"/><use fill="currentColor" stroke="currentColor" xlink:href="#pcb-stackup_bottom_ss" class="pcb-stackup_ss"/></g></g></g></svg>