<svg xmlns="http://www.w3.org/2000/svg" id="pcb-stackup_top" fill-rule="evenodd" stroke-width="0" stroke-linecap="round" stroke-linejoin="round" xmlns:xlink="http://www.w3.org/1999/xlink" clip-rule="evenodd" viewBox="215900 -113030 22860 12700"><defs><style>.pcb-stackup_fr4 {color: #4D542C;} .pcb-stackup_cu {color: lightgrey;} .pcb-stackup_cf {color: goldenrod;} .pcb-stackup_sm {color: #8B0000; opacity: 0.9;} .pcb-stackup_ss {color: white;} .pcb-stackup_sp {color: #000000; opacity: 0;} .pcb-stackup_out {color: black;}</style><path id="HyXEAeThJW_pad-11" d="M-450-600h900V600h-900z"/><path id="HyXEAeThJW_pad-12" d="M-600-450H600v900H-600z"/><path id="HyXEAeThJW_pad-13" d="M-1016-863.6h2032V863.6h-2032z"/><rect id="HyXEAeThJW_pad-14" width="2032" height="1727.2" x="-1016" y="-863.6" rx="863.6" ry="863.6"/><path id="HyXEAeThJW_pad-15" d="M-600-375H600v750H-600z"/><path id="HyXEAeThJW_pad-16" d="M-775-300H775v600H-775z"/><path id="HyXEAeThJW_pad-17" d="M-1649.73-849.63h3299.46V849.63h-3299.46z"/><circle id="HyXEAeThJW_pad-18" r="350"/><path id="HyXEAeThJW_pad-11" d="M-450-600h900V600h-900z"/><path id="HyXEAeThJW_pad-12" d="M-600-450H600v900H-600z"/><path id="HyXEAeThJW_pad-13" d="M-1016-863.6h2032V863.6h-2032z"/><rect id="HyXEAeThJW_pad-14" width="2032" height="1727.2" x="-1016" y="-863.6" rx="863.6" ry="863.6"/><path id="HyXEAeThJW_pad-15" d="M-600-375H600v750H-600z"/><path id="HyXEAeThJW_pad-16" d="M-775-300H775v600H-775z"/><path id="HyXEAeThJW_pad-17" d="M-1649.73-849.63h3299.46V849.63h-3299.46z"/><circle id="HyXEAeThJW_pad-18" r="350"/><path id="SJEN0eph1b_pad-11" d="M-650-800H650V800H-650z"/><path id="SJEN0eph1b_pad-12" d="M-800-650H800V650H-800z"/><path id="SJEN0eph1b_pad-13" d="M-1216-1063.6h2432v2127.2h-2432z"/><rect id="SJEN0eph1b_pad-14" width="2432" height="2127.2" x="-1216" y="-1063.6" rx="1063.6" ry="1063.6"/><path id="SJEN0eph1b_pad-15" d="M-800-575H800V575H-800z"/><path id="SJEN0eph1b_pad-16" d="M-975-500H975V500H-975z"/><path id="SJEN0eph1b_pad-17" d="M-1849.73-1049.63h3699.46v2099.26h-3699.46z"/><path id="HyXEAeThJW_pad-11" d="M-450-600h900V600h-900z"/><path id="HyXEAeThJW_pad-12" d="M-600-450H600v900H-600z"/><path id="HyXEAeThJW_pad-13" d="M-1016-863.6h2032V863.6h-2032z"/><rect id="HyXEAeThJW_pad-14" width="2032" height="1727.2" x="-1016" y="-863.6" rx="863.6" ry="863.6"/><path id="HyXEAeThJW_pad-15" d="M-600-375H600v750H-600z"/><path id="HyXEAeThJW_pad-16" d="M-775-300H775v600H-775z"/><path id="HyXEAeThJW_pad-17" d="M-1649.73-849.63h3299.46V849.63h-3299.46z"/><circle id="HyXEAeThJW_pad-18" r="350"/><path id="HyXEAeThJW_pad-11" d="M-450-600h900V600h-900z"/><path id="HyXEAeThJW_pad-12" d="M-600-450H600v900H-600z"/><path id="HyXEAeThJW_pad-13" d="M-1016-863.6h2032V863.6h-2032z"/><rect id="HyXEAeThJW_pad-14" width="2032" height="1727.2" x="-1016" y="-863.6" rx="863.6" ry="863.6"/><path id="HyXEAeThJW_pad-15" d="M-600-375H600v750H-600z"/><path id="HyXEAeThJW_pad-16" d="M-775-300H775v600H-775z"/><path id="HyXEAeThJW_pad-17" d="M-1649.73-849.63h3299.46V849.63h-3299.46z"/><circle id="HyXEAeThJW_pad-18" r="350"/><path id="SJEN0eph1b_pad-11" d="M-650-800H650V800H-650z"/><path id="SJEN0eph1b_pad-12" d="M-800-650H800V650H-800z"/><path id="SJEN0eph1b_pad-13" d="M-1216-1063.6h2432v2127.2h-2432z"/><rect id="SJEN0eph1b_pad-14" width="2432" height="2127.2" x="-1216" y="-1063.6" rx="1063.6" ry="1063.6"/><path id="SJEN0eph1b_pad-15" d="M-800-575H800V575H-800z"/><path id="SJEN0eph1b_pad-16" d="M-975-500H975V500H-975z"/><path id="SJEN0eph1b_pad-17" d="M-1849.73-1049.63h3699.46v2099.26h-3699.46z"/><path id="ByH4ReanJ-_pad-12" d="M-650-800H650V800H-650z"/><path id="ByH4ReanJ-_pad-13" d="M-800-650H800V650H-800z"/><path id="ByH4ReanJ-_pad-14" d="M-1216-1063.6h2432v2127.2h-2432z"/><rect id="ByH4ReanJ-_pad-15" width="2432" height="2127.2" x="-1216" y="-1063.6" rx="1063.6" ry="1063.6"/><path id="ByH4ReanJ-_pad-16" d="M-800-575H800V575H-800z"/><path id="ByH4ReanJ-_pad-17" d="M-975-500H975V500H-975z"/><path id="ByH4ReanJ-_pad-18" d="M-1849.73-1049.63h3699.46v2099.26h-3699.46z"/><mask id="ByH4ReanJ-_clear-1" stroke="#000"><path fill="#fff" d="M216815-112886.666h21030v12460h-21030z"/><use x="233485" y="-108835" xlink:href="#ByH4ReanJ-_pad-12"/><use x="233485" y="-111035" xlink:href="#ByH4ReanJ-_pad-12"/><use x="223325" y="-111155" xlink:href="#ByH4ReanJ-_pad-13"/><use x="221125" y="-111155" xlink:href="#ByH4ReanJ-_pad-13"/><use x="227530" y="-111150" xlink:href="#ByH4ReanJ-_pad-13"/><use x="225330" y="-111150" xlink:href="#ByH4ReanJ-_pad-13"/><use x="221075" y="-108995" xlink:href="#ByH4ReanJ-_pad-12"/><use x="221075" y="-106795" xlink:href="#ByH4ReanJ-_pad-12"/><use x="223015" y="-108985" xlink:href="#ByH4ReanJ-_pad-12"/><use x="223015" y="-106785" xlink:href="#ByH4ReanJ-_pad-12"/><use x="233365" y="-104415" xlink:href="#ByH4ReanJ-_pad-12"/><use x="233365" y="-106615" xlink:href="#ByH4ReanJ-_pad-12"/><use x="236220" y="-110490" xlink:href="#ByH4ReanJ-_pad-14"/><use x="236220" y="-107950" xlink:href="#ByH4ReanJ-_pad-15"/><use x="236220" y="-105410" xlink:href="#ByH4ReanJ-_pad-15"/><use x="236220" y="-102870" xlink:href="#ByH4ReanJ-_pad-15"/><use x="218440" y="-102870" xlink:href="#ByH4ReanJ-_pad-14"/><use x="218440" y="-105410" xlink:href="#ByH4ReanJ-_pad-15"/><use x="218440" y="-107950" xlink:href="#ByH4ReanJ-_pad-15"/><use x="218440" y="-110490" xlink:href="#ByH4ReanJ-_pad-15"/><use x="229575" y="-111195" xlink:href="#ByH4ReanJ-_pad-16"/><use x="231475" y="-111195" xlink:href="#ByH4ReanJ-_pad-16"/><use x="221125" y="-104355" xlink:href="#ByH4ReanJ-_pad-16"/><use x="223025" y="-104355" xlink:href="#ByH4ReanJ-_pad-16"/><use x="223085" y="-102585" xlink:href="#ByH4ReanJ-_pad-16"/><use x="221185" y="-102585" xlink:href="#ByH4ReanJ-_pad-16"/><use x="225565" y="-105350" xlink:href="#ByH4ReanJ-_pad-17"/><use x="225565" y="-106620" xlink:href="#ByH4ReanJ-_pad-17"/><use x="225565" y="-107890" xlink:href="#ByH4ReanJ-_pad-17"/><use x="225565" y="-109160" xlink:href="#ByH4ReanJ-_pad-17"/><use x="230965" y="-109160" xlink:href="#ByH4ReanJ-_pad-17"/><use x="230965" y="-107890" xlink:href="#ByH4ReanJ-_pad-17"/><use x="230965" y="-106620" xlink:href="#ByH4ReanJ-_pad-17"/><use x="230965" y="-105350" xlink:href="#ByH4ReanJ-_pad-17"/><use x="226354.18" y="-101955" xlink:href="#ByH4ReanJ-_pad-18"/><use x="231855.82" y="-101955" xlink:href="#ByH4ReanJ-_pad-18"/></mask><path id="HyXEAeThJW_pad-11" d="M-450-600h900V600h-900z"/><path id="HyXEAeThJW_pad-12" d="M-600-450H600v900H-600z"/><path id="HyXEAeThJW_pad-13" d="M-1016-863.6h2032V863.6h-2032z"/><rect id="HyXEAeThJW_pad-14" width="2032" height="1727.2" x="-1016" y="-863.6" rx="863.6" ry="863.6"/><path id="HyXEAeThJW_pad-15" d="M-600-375H600v750H-600z"/><path id="HyXEAeThJW_pad-16" d="M-775-300H775v600H-775z"/><path id="HyXEAeThJW_pad-17" d="M-1649.73-849.63h3299.46V849.63h-3299.46z"/><circle id="HyXEAeThJW_pad-18" r="350"/><path id="HyXEAeThJW_pad-11" d="M-450-600h900V600h-900z"/><path id="HyXEAeThJW_pad-12" d="M-600-450H600v900H-600z"/><path id="HyXEAeThJW_pad-13" d="M-1016-863.6h2032V863.6h-2032z"/><rect id="HyXEAeThJW_pad-14" width="2032" height="1727.2" x="-1016" y="-863.6" rx="863.6" ry="863.6"/><path id="HyXEAeThJW_pad-15" d="M-600-375H600v750H-600z"/><path id="HyXEAeThJW_pad-16" d="M-775-300H775v600H-775z"/><path id="HyXEAeThJW_pad-17" d="M-1649.73-849.63h3299.46V849.63h-3299.46z"/><circle id="HyXEAeThJW_pad-18" r="350"/><path id="SJEN0eph1b_pad-11" d="M-650-800H650V800H-650z"/><path id="SJEN0eph1b_pad-12" d="M-800-650H800V650H-800z"/><path id="SJEN0eph1b_pad-13" d="M-1216-1063.6h2432v2127.2h-2432z"/><rect id="SJEN0eph1b_pad-14" width="2432" height="2127.2" x="-1216" y="-1063.6" rx="1063.6" ry="1063.6"/><path id="SJEN0eph1b_pad-15" d="M-800-575H800V575H-800z"/><path id="SJEN0eph1b_pad-16" d="M-975-500H975V500H-975z"/><path id="SJEN0eph1b_pad-17" d="M-1849.73-1049.63h3699.46v2099.26h-3699.46z"/><path id="HyXEAeThJW_pad-11" d="M-450-600h900V600h-900z"/><path id="HyXEAeThJW_pad-12" d="M-600-450H600v900H-600z"/><path id="HyXEAeThJW_pad-13" d="M-1016-863.6h2032V863.6h-2032z"/><rect id="HyXEAeThJW_pad-14" width="2032" height="1727.2" x="-1016" y="-863.6" rx="863.6" ry="863.6"/><path id="HyXEAeThJW_pad-15" d="M-600-375H600v750H-600z"/><path id="HyXEAeThJW_pad-16" d="M-775-300H775v600H-775z"/><path id="HyXEAeThJW_pad-17" d="M-1649.73-849.63h3299.46V849.63h-3299.46z"/><circle id="HyXEAeThJW_pad-18" r="350"/><path id="HyXEAeThJW_pad-11" d="M-450-600h900V600h-900z"/><path id="HyXEAeThJW_pad-12" d="M-600-450H600v900H-600z"/><path id="HyXEAeThJW_pad-13" d="M-1016-863.6h2032V863.6h-2032z"/><rect id="HyXEAeThJW_pad-14" width="2032" height="1727.2" x="-1016" y="-863.6" rx="863.6" ry="863.6"/><path id="HyXEAeThJW_pad-15" d="M-600-375H600v750H-600z"/><path id="HyXEAeThJW_pad-16" d="M-775-300H775v600H-775z"/><path id="HyXEAeThJW_pad-17" d="M-1649.73-849.63h3299.46V849.63h-3299.46z"/><circle id="HyXEAeThJW_pad-18" r="350"/><path id="SJEN0eph1b_pad-11" d="M-650-800H650V800H-650z"/><path id="SJEN0eph1b_pad-12" d="M-800-650H800V650H-800z"/><path id="SJEN0eph1b_pad-13" d="M-1216-1063.6h2432v2127.2h-2432z"/><rect id="SJEN0eph1b_pad-14" width="2432" height="2127.2" x="-1216" y="-1063.6" rx="1063.6" ry="1063.6"/><path id="SJEN0eph1b_pad-15" d="M-800-575H800V575H-800z"/><path id="SJEN0eph1b_pad-16" d="M-975-500H975V500H-975z"/><path id="SJEN0eph1b_pad-17" d="M-1849.73-1049.63h3699.46v2099.26h-3699.46z"/><path id="ByH4ReanJ-_pad-12" d="M-650-800H650V800H-650z"/><path id="ByH4ReanJ-_pad-13" d="M-800-650H800V650H-800z"/><path id="ByH4ReanJ-_pad-14" d="M-1216-1063.6h2432v2127.2h-2432z"/><rect id="ByH4ReanJ-_pad-15" width="2432" height="2127.2" x="-1216" y="-1063.6" rx="1063.6" ry="1063.6"/><path id="ByH4ReanJ-_pad-16" d="M-800-575H800V575H-800z"/><path id="ByH4ReanJ-_pad-17" d="M-975-500H975V500H-975z"/><path id="ByH4ReanJ-_pad-18" d="M-1849.73-1049.63h3699.46v2099.26h-3699.46z"/><mask id="ByH4ReanJ-_clear-1" stroke="#000"><path fill="#fff" d="M216815-112886.666h21030v12460h-21030z"/><use x="233485" y="-108835" xlink:href="#ByH4ReanJ-_pad-12"/><use x="233485" y="-111035" xlink:href="#ByH4ReanJ-_pad-12"/><use x="223325" y="-111155" xlink:href="#ByH4ReanJ-_pad-13"/><use x="221125" y="-111155" xlink:href="#ByH4ReanJ-_pad-13"/><use x="227530" y="-111150" xlink:href="#ByH4ReanJ-_pad-13"/><use x="225330" y="-111150" xlink:href="#ByH4ReanJ-_pad-13"/><use x="221075" y="-108995" xlink:href="#ByH4ReanJ-_pad-12"/><use x="221075" y="-106795" xlink:href="#ByH4ReanJ-_pad-12"/><use x="223015" y="-108985" xlink:href="#ByH4ReanJ-_pad-12"/><use x="223015" y="-106785" xlink:href="#ByH4ReanJ-_pad-12"/><use x="233365" y="-104415" xlink:href="#ByH4ReanJ-_pad-12"/><use x="233365" y="-106615" xlink:href="#ByH4ReanJ-_pad-12"/><use x="236220" y="-110490" xlink:href="#ByH4ReanJ-_pad-14"/><use x="236220" y="-107950" xlink:href="#ByH4ReanJ-_pad-15"/><use x="236220" y="-105410" xlink:href="#ByH4ReanJ-_pad-15"/><use x="236220" y="-102870" xlink:href="#ByH4ReanJ-_pad-15"/><use x="218440" y="-102870" xlink:href="#ByH4ReanJ-_pad-14"/><use x="218440" y="-105410" xlink:href="#ByH4ReanJ-_pad-15"/><use x="218440" y="-107950" xlink:href="#ByH4ReanJ-_pad-15"/><use x="218440" y="-110490" xlink:href="#ByH4ReanJ-_pad-15"/><use x="229575" y="-111195" xlink:href="#ByH4ReanJ-_pad-16"/><use x="231475" y="-111195" xlink:href="#ByH4ReanJ-_pad-16"/><use x="221125" y="-104355" xlink:href="#ByH4ReanJ-_pad-16"/><use x="223025" y="-104355" xlink:href="#ByH4ReanJ-_pad-16"/><use x="223085" y="-102585" xlink:href="#ByH4ReanJ-_pad-16"/><use x="221185" y="-102585" xlink:href="#ByH4ReanJ-_pad-16"/><use x="225565" y="-105350" xlink:href="#ByH4ReanJ-_pad-17"/><use x="225565" y="-106620" xlink:href="#ByH4ReanJ-_pad-17"/><use x="225565" y="-107890" xlink:href="#ByH4ReanJ-_pad-17"/><use x="225565" y="-109160" xlink:href="#ByH4ReanJ-_pad-17"/><use x="230965" y="-109160" xlink:href="#ByH4ReanJ-_pad-17"/><use x="230965" y="-107890" xlink:href="#ByH4ReanJ-_pad-17"/><use x="230965" y="-106620" xlink:href="#ByH4ReanJ-_pad-17"/><use x="230965" y="-105350" xlink:href="#ByH4ReanJ-_pad-17"/><use x="226354.18" y="-101955" xlink:href="#ByH4ReanJ-_pad-18"/><use x="231855.82" y="-101955" xlink:href="#ByH4ReanJ-_pad-18"/></mask><path id="HyXEAeThJW_pad-11" d="M-450-600h900V600h-900z"/><path id="HyXEAeThJW_pad-12" d="M-600-450H600v900H-600z"/><path id="HyXEAeThJW_pad-13" d="M-1016-863.6h2032V863.6h-2032z"/><rect id="HyXEAeThJW_pad-14" width="2032" height="1727.2" x="-1016" y="-863.6" rx="863.6" ry="863.6"/><path id="HyXEAeThJW_pad-15" d="M-600-375H600v750H-600z"/><path id="HyXEAeThJW_pad-16" d="M-775-300H775v600H-775z"/><path id="HyXEAeThJW_pad-17" d="M-1649.73-849.63h3299.46V849.63h-3299.46z"/><circle id="HyXEAeThJW_pad-18" r="350"/><path id="HyXEAeThJW_pad-11" d="M-450-600h900V600h-900z"/><path id="HyXEAeThJW_pad-12" d="M-600-450H600v900H-600z"/><path id="HyXEAeThJW_pad-13" d="M-1016-863.6h2032V863.6h-2032z"/><rect id="HyXEAeThJW_pad-14" width="2032" height="1727.2" x="-1016" y="-863.6" rx="863.6" ry="863.6"/><path id="HyXEAeThJW_pad-15" d="M-600-375H600v750H-600z"/><path id="HyXEAeThJW_pad-16" d="M-775-300H775v600H-775z"/><path id="HyXEAeThJW_pad-17" d="M-1649.73-849.63h3299.46V849.63h-3299.46z"/><circle id="HyXEAeThJW_pad-18" r="350"/><path id="SJEN0eph1b_pad-11" d="M-650-800H650V800H-650z"/><path id="SJEN0eph1b_pad-12" d="M-800-650H800V650H-800z"/><path id="SJEN0eph1b_pad-13" d="M-1216-1063.6h2432v2127.2h-2432z"/><rect id="SJEN0eph1b_pad-14" width="2432" height="2127.2" x="-1216" y="-1063.6" rx="1063.6" ry="1063.6"/><path id="SJEN0eph1b_pad-15" d="M-800-575H800V575H-800z"/><path id="SJEN0eph1b_pad-16" d="M-975-500H975V500H-975z"/><path id="SJEN0eph1b_pad-17" d="M-1849.73-1049.63h3699.46v2099.26h-3699.46z"/><path id="HyXEAeThJW_pad-11" d="M-450-600h900V600h-900z"/><path id="HyXEAeThJW_pad-12" d="M-600-450H600v900H-600z"/><path id="HyXEAeThJW_pad-13" d="M-1016-863.6h2032V863.6h-2032z"/><rect id="HyXEAeThJW_pad-14" width="2032" height="1727.2" x="-1016" y="-863.6" rx="863.6" ry="863.6"/><path id="HyXEAeThJW_pad-15" d="M-600-375H600v750H-600z"/><path id="HyXEAeThJW_pad-16" d="M-775-300H775v600H-775z"/><path id="HyXEAeThJW_pad-17" d="M-1649.73-849.63h3299.46V849.63h-3299.46z"/><circle id="HyXEAeThJW_pad-18" r="350"/><path id="HyXEAeThJW_pad-11" d="M-450-600h900V600h-900z"/><path id="HyXEAeThJW_pad-12" d="M-600-450H600v900H-600z"/><path id="HyXEAeThJW_pad-13" d="M-1016-863.6h2032V863.6h-2032z"/><rect id="HyXEAeThJW_pad-14" width="2032" height="1727.2" x="-1016" y="-863.6" rx="863.6" ry="863.6"/><path id="HyXEAeThJW_pad-15" d="M-600-375H600v750H-600z"/><path id="HyXEAeThJW_pad-16" d="M-775-300H775v600H-775z"/><path id="HyXEAeThJW_pad-17" d="M-1649.73-849.63h3299.46V849.63h-3299.46z"/><circle id="HyXEAeThJW_pad-18" r="350"/><path id="SJEN0eph1b_pad-11" d="M-650-800H650V800H-650z"/><path id="SJEN0eph1b_pad-12" d="M-800-650H800V650H-800z"/><path id="SJEN0eph1b_pad-13" d="M-1216-1063.6h2432v2127.2h-2432z"/><rect id="SJEN0eph1b_pad-14" width="2432" height="2127.2" x="-1216" y="-1063.6" rx="1063.6" ry="1063.6"/><path id="SJEN0eph1b_pad-15" d="M-800-575H800V575H-800z"/><path id="SJEN0eph1b_pad-16" d="M-975-500H975V500H-975z"/><path id="SJEN0eph1b_pad-17" d="M-1849.73-1049.63h3699.46v2099.26h-3699.46z"/><path id="ByH4ReanJ-_pad-12" d="M-650-800H650V800H-650z"/><path id="ByH4ReanJ-_pad-13" d="M-800-650H800V650H-800z"/><path id="ByH4ReanJ-_pad-14" d="M-1216-1063.6h2432v2127.2h-2432z"/><rect id="ByH4ReanJ-_pad-15" width="2432" height="2127.2" x="-1216" y="-1063.6" rx="1063.6" ry="1063.6"/><path id="ByH4ReanJ-_pad-16" d="M-800-575H800V575H-800z"/><path id="ByH4ReanJ-_pad-17" d="M-975-500H975V500H-975z"/><path id="ByH4ReanJ-_pad-18" d="M-1849.73-1049.63h3699.46v2099.26h-3699.46z"/><mask id="ByH4ReanJ-_clear-1" stroke="#000"><path fill="#fff" d="M216815-112886.666h21030v12460h-21030z"/><use x="233485" y="-108835" xlink:href="#ByH4ReanJ-_pad-12"/><use x="233485" y="-111035" xlink:href="#ByH4ReanJ-_pad-12"/><use x="223325" y="-111155" xlink:href="#ByH4ReanJ-_pad-13"/><use x="221125" y="-111155" xlink:href="#ByH4ReanJ-_pad-13"/><use x="227530" y="-111150" xlink:href="#ByH4ReanJ-_pad-13"/><use x="225330" y="-111150" xlink:href="#ByH4ReanJ-_pad-13"/><use x="221075" y="-108995" xlink:href="#ByH4ReanJ-_pad-12"/><use x="221075" y="-106795" xlink:href="#ByH4ReanJ-_pad-12"/><use x="223015" y="-108985" xlink:href="#ByH4ReanJ-_pad-12"/><use x="223015" y="-106785" xlink:href="#ByH4ReanJ-_pad-12"/><use x="233365" y="-104415" xlink:href="#ByH4ReanJ-_pad-12"/><use x="233365" y="-106615" xlink:href="#ByH4ReanJ-_pad-12"/><use x="236220" y="-110490" xlink:href="#ByH4ReanJ-_pad-14"/><use x="236220" y="-107950" xlink:href="#ByH4ReanJ-_pad-15"/><use x="236220" y="-105410" xlink:href="#ByH4ReanJ-_pad-15"/><use x="236220" y="-102870" xlink:href="#ByH4ReanJ-_pad-15"/><use x="218440" y="-102870" xlink:href="#ByH4ReanJ-_pad-14"/><use x="218440" y="-105410" xlink:href="#ByH4ReanJ-_pad-15"/><use x="218440" y="-107950" xlink:href="#ByH4ReanJ-_pad-15"/><use x="218440" y="-110490" xlink:href="#ByH4ReanJ-_pad-15"/><use x="229575" y="-111195" xlink:href="#ByH4ReanJ-_pad-16"/><use x="231475" y="-111195" xlink:href="#ByH4ReanJ-_pad-16"/><use x="221125" y="-104355" xlink:href="#ByH4ReanJ-_pad-16"/><use x="223025" y="-104355" xlink:href="#ByH4ReanJ-_pad-16"/><use x="223085" y="-102585" xlink:href="#ByH4ReanJ-_pad-16"/><use x="221185" y="-102585" xlink:href="#ByH4ReanJ-_pad-16"/><use x="225565" y="-105350" xlink:href="#ByH4ReanJ-_pad-17"/><use x="225565" y="-106620" xlink:href="#ByH4ReanJ-_pad-17"/><use x="225565" y="-107890" xlink:href="#ByH4ReanJ-_pad-17"/><use x="225565" y="-109160" xlink:href="#ByH4ReanJ-_pad-17"/><use x="230965" y="-109160" xlink:href="#ByH4ReanJ-_pad-17"/><use x="230965" y="-107890" xlink:href="#ByH4ReanJ-_pad-17"/><use x="230965" y="-106620" xlink:href="#ByH4ReanJ-_pad-17"/><use x="230965" y="-105350" xlink:href="#ByH4ReanJ-_pad-17"/><use x="226354.18" y="-101955" xlink:href="#ByH4ReanJ-_pad-18"/><use x="231855.82" y="-101955" xlink:href="#ByH4ReanJ-_pad-18"/></mask><path id="HyXEAeThJW_pad-11" d="M-450-600h900V600h-900z"/><path id="HyXEAeThJW_pad-12" d="M-600-450H600v900H-600z"/><path id="HyXEAeThJW_pad-13" d="M-1016-863.6h2032V863.6h-2032z"/><rect id="HyXEAeThJW_pad-14" width="2032" height="1727.2" x="-1016" y="-863.6" rx="863.6" ry="863.6"/><path id="HyXEAeThJW_pad-15" d="M-600-375H600v750H-600z"/><path id="HyXEAeThJW_pad-16" d="M-775-300H775v600H-775z"/><path id="HyXEAeThJW_pad-17" d="M-1649.73-849.63h3299.46V849.63h-3299.46z"/><circle id="HyXEAeThJW_pad-18" r="350"/><path id="HyXEAeThJW_pad-11" d="M-450-600h900V600h-900z"/><path id="HyXEAeThJW_pad-12" d="M-600-450H600v900H-600z"/><path id="HyXEAeThJW_pad-13" d="M-1016-863.6h2032V863.6h-2032z"/><rect id="HyXEAeThJW_pad-14" width="2032" height="1727.2" x="-1016" y="-863.6" rx="863.6" ry="863.6"/><path id="HyXEAeThJW_pad-15" d="M-600-375H600v750H-600z"/><path id="HyXEAeThJW_pad-16" d="M-775-300H775v600H-775z"/><path id="HyXEAeThJW_pad-17" d="M-1649.73-849.63h3299.46V849.63h-3299.46z"/><circle id="HyXEAeThJW_pad-18" r="350"/><path id="SJEN0eph1b_pad-11" d="M-650-800H650V800H-650z"/><path id="SJEN0eph1b_pad-12" d="M-800-650H800V650H-800z"/><path id="SJEN0eph1b_pad-13" d="M-1216-1063.6h2432v2127.2h-2432z"/><rect id="SJEN0eph1b_pad-14" width="2432" height="2127.2" x="-1216" y="-1063.6" rx="1063.6" ry="1063.6"/><path id="SJEN0eph1b_pad-15" d="M-800-575H800V575H-800z"/><path id="SJEN0eph1b_pad-16" d="M-975-500H975V500H-975z"/><path id="SJEN0eph1b_pad-17" d="M-1849.73-1049.63h3699.46v2099.26h-3699.46z"/><path id="HyXEAeThJW_pad-11" d="M-450-600h900V600h-900z"/><path id="HyXEAeThJW_pad-12" d="M-600-450H600v900H-600z"/><path id="HyXEAeThJW_pad-13" d="M-1016-863.6h2032V863.6h-2032z"/><rect id="HyXEAeThJW_pad-14" width="2032" height="1727.2" x="-1016" y="-863.6" rx="863.6" ry="863.6"/><path id="HyXEAeThJW_pad-15" d="M-600-375H600v750H-600z"/><path id="HyXEAeThJW_pad-16" d="M-775-300H775v600H-775z"/><path id="HyXEAeThJW_pad-17" d="M-1649.73-849.63h3299.46V849.63h-3299.46z"/><circle id="HyXEAeThJW_pad-18" r="350"/><path id="HyXEAeThJW_pad-11" d="M-450-600h900V600h-900z"/><path id="HyXEAeThJW_pad-12" d="M-600-450H600v900H-600z"/><path id="HyXEAeThJW_pad-13" d="M-1016-863.6h2032V863.6h-2032z"/><rect id="HyXEAeThJW_pad-14" width="2032" height="1727.2" x="-1016" y="-863.6" rx="863.6" ry="863.6"/><path id="HyXEAeThJW_pad-15" d="M-600-375H600v750H-600z"/><path id="HyXEAeThJW_pad-16" d="M-775-300H775v600H-775z"/><path id="HyXEAeThJW_pad-17" d="M-1649.73-849.63h3299.46V849.63h-3299.46z"/><circle id="HyXEAeThJW_pad-18" r="350"/><path id="SJEN0eph1b_pad-11" d="M-650-800H650V800H-650z"/><path id="SJEN0eph1b_pad-12" d="M-800-650H800V650H-800z"/><path id="SJEN0eph1b_pad-13" d="M-1216-1063.6h2432v2127.2h-2432z"/><rect id="SJEN0eph1b_pad-14" width="2432" height="2127.2" x="-1216" y="-1063.6" rx="1063.6" ry="1063.6"/><path id="SJEN0eph1b_pad-15" d="M-800-575H800V575H-800z"/><path id="SJEN0eph1b_pad-16" d="M-975-500H975V500H-975z"/><path id="SJEN0eph1b_pad-17" d="M-1849.73-1049.63h3699.46v2099.26h-3699.46z"/><path id="ByH4ReanJ-_pad-12" d="M-650-800H650V800H-650z"/><path id="ByH4ReanJ-_pad-13" d="M-800-650H800V650H-800z"/><path id="ByH4ReanJ-_pad-14" d="M-1216-1063.6h2432v2127.2h-2432z"/><rect id="ByH4ReanJ-_pad-15" width="2432" height="2127.2" x="-1216" y="-1063.6" rx="1063.6" ry="1063.6"/><path id="ByH4ReanJ-_pad-16" d="M-800-575H800V575H-800z"/><path id="ByH4ReanJ-_pad-17" d="M-975-500H975V500H-975z"/><path id="ByH4ReanJ-_pad-18" d="M-1849.73-1049.63h3699.46v2099.26h-3699.46z"/><mask id="ByH4ReanJ-_clear-1" stroke="#000"><path fill="#fff" d="M216815-112886.666h21030v12460h-21030z"/><use x="233485" y="-108835" xlink:href="#ByH4ReanJ-_pad-12"/><use x="233485" y="-111035" xlink:href="#ByH4ReanJ-_pad-12"/><use x="223325" y="-111155" xlink:href="#ByH4ReanJ-_pad-13"/><use x="221125" y="-111155" xlink:href="#ByH4ReanJ-_pad-13"/><use x="227530" y="-111150" xlink:href="#ByH4ReanJ-_pad-13"/><use x="225330" y="-111150" xlink:href="#ByH4ReanJ-_pad-13"/><use x="221075" y="-108995" xlink:href="#ByH4ReanJ-_pad-12"/><use x="221075" y="-106795" xlink:href="#ByH4ReanJ-_pad-12"/><use x="223015" y="-108985" xlink:href="#ByH4ReanJ-_pad-12"/><use x="223015" y="-106785" xlink:href="#ByH4ReanJ-_pad-12"/><use x="233365" y="-104415" xlink:href="#ByH4ReanJ-_pad-12"/><use x="233365" y="-106615" xlink:href="#ByH4ReanJ-_pad-12"/><use x="236220" y="-110490" xlink:href="#ByH4ReanJ-_pad-14"/><use x="236220" y="-107950" xlink:href="#ByH4ReanJ-_pad-15"/><use x="236220" y="-105410" xlink:href="#ByH4ReanJ-_pad-15"/><use x="236220" y="-102870" xlink:href="#ByH4ReanJ-_pad-15"/><use x="218440" y="-102870" xlink:href="#ByH4ReanJ-_pad-14"/><use x="218440" y="-105410" xlink:href="#ByH4ReanJ-_pad-15"/><use x="218440" y="-107950" xlink:href="#ByH4ReanJ-_pad-15"/><use x="218440" y="-110490" xlink:href="#ByH4ReanJ-_pad-15"/><use x="229575" y="-111195" xlink:href="#ByH4ReanJ-_pad-16"/><use x="231475" y="-111195" xlink:href="#ByH4ReanJ-_pad-16"/><use x="221125" y="-104355" xlink:href="#ByH4ReanJ-_pad-16"/><use x="223025" y="-104355" xlink:href="#ByH4ReanJ-_pad-16"/><use x="223085" y="-102585" xlink:href="#ByH4ReanJ-_pad-16"/><use x="221185" y="-102585" xlink:href="#ByH4ReanJ-_pad-16"/><use x="225565" y="-105350" xlink:href="#ByH4ReanJ-_pad-17"/><use x="225565" y="-106620" xlink:href="#ByH4ReanJ-_pad-17"/><use x="225565" y="-107890" xlink:href="#ByH4ReanJ-_pad-17"/><use x="225565" y="-109160" xlink:href="#ByH4ReanJ-_pad-17"/><use x="230965" y="-109160" xlink:href="#ByH4ReanJ-_pad-17"/><use x="230965" y="-107890" xlink:href="#ByH4ReanJ-_pad-17"/><use x="230965" y="-106620" xlink:href="#ByH4ReanJ-_pad-17"/><use x="230965" y="-105350" xlink:href="#ByH4ReanJ-_pad-17"/><use x="226354.18" y="-101955" xlink:href="#ByH4ReanJ-_pad-18"/><use x="231855.82" y="-101955" xlink:href="#ByH4ReanJ-_pad-18"/></mask><circle id="HyDNAe63yW_pad-1" r="250"/><circle id="HyDNAe63yW_pad-2" r="508"/><path id="HyXEAeThJW_pad-11" d="M-450-600h900V600h-900z"/><path id="HyXEAeThJW_pad-12" d="M-600-450H600v900H-600z"/><path id="HyXEAeThJW_pad-13" d="M-1016-863.6h2032V863.6h-2032z"/><rect id="HyXEAeThJW_pad-14" width="2032" height="1727.2" x="-1016" y="-863.6" rx="863.6" ry="863.6"/><path id="HyXEAeThJW_pad-15" d="M-600-375H600v750H-600z"/><path id="HyXEAeThJW_pad-16" d="M-775-300H775v600H-775z"/><path id="HyXEAeThJW_pad-17" d="M-1649.73-849.63h3299.46V849.63h-3299.46z"/><circle id="HyXEAeThJW_pad-18" r="350"/><path id="HyXEAeThJW_pad-11" d="M-450-600h900V600h-900z"/><path id="HyXEAeThJW_pad-12" d="M-600-450H600v900H-600z"/><path id="HyXEAeThJW_pad-13" d="M-1016-863.6h2032V863.6h-2032z"/><rect id="HyXEAeThJW_pad-14" width="2032" height="1727.2" x="-1016" y="-863.6" rx="863.6" ry="863.6"/><path id="HyXEAeThJW_pad-15" d="M-600-375H600v750H-600z"/><path id="HyXEAeThJW_pad-16" d="M-775-300H775v600H-775z"/><path id="HyXEAeThJW_pad-17" d="M-1649.73-849.63h3299.46V849.63h-3299.46z"/><circle id="HyXEAeThJW_pad-18" r="350"/><path id="SJEN0eph1b_pad-11" d="M-650-800H650V800H-650z"/><path id="SJEN0eph1b_pad-12" d="M-800-650H800V650H-800z"/><path id="SJEN0eph1b_pad-13" d="M-1216-1063.6h2432v2127.2h-2432z"/><rect id="SJEN0eph1b_pad-14" width="2432" height="2127.2" x="-1216" y="-1063.6" rx="1063.6" ry="1063.6"/><path id="SJEN0eph1b_pad-15" d="M-800-575H800V575H-800z"/><path id="SJEN0eph1b_pad-16" d="M-975-500H975V500H-975z"/><path id="SJEN0eph1b_pad-17" d="M-1849.73-1049.63h3699.46v2099.26h-3699.46z"/><path id="HyXEAeThJW_pad-11" d="M-450-600h900V600h-900z"/><path id="HyXEAeThJW_pad-12" d="M-600-450H600v900H-600z"/><path id="HyXEAeThJW_pad-13" d="M-1016-863.6h2032V863.6h-2032z"/><rect id="HyXEAeThJW_pad-14" width="2032" height="1727.2" x="-1016" y="-863.6" rx="863.6" ry="863.6"/><path id="HyXEAeThJW_pad-15" d="M-600-375H600v750H-600z"/><path id="HyXEAeThJW_pad-16" d="M-775-300H775v600H-775z"/><path id="HyXEAeThJW_pad-17" d="M-1649.73-849.63h3299.46V849.63h-3299.46z"/><circle id="HyXEAeThJW_pad-18" r="350"/><path id="HyXEAeThJW_pad-11" d="M-450-600h900V600h-900z"/><path id="HyXEAeThJW_pad-12" d="M-600-450H600v900H-600z"/><path id="HyXEAeThJW_pad-13" d="M-1016-863.6h2032V863.6h-2032z"/><rect id="HyXEAeThJW_pad-14" width="2032" height="1727.2" x="-1016" y="-863.6" rx="863.6" ry="863.6"/><path id="HyXEAeThJW_pad-15" d="M-600-375H600v750H-600z"/><path id="HyXEAeThJW_pad-16" d="M-775-300H775v600H-775z"/><path id="HyXEAeThJW_pad-17" d="M-1649.73-849.63h3299.46V849.63h-3299.46z"/><circle id="HyXEAeThJW_pad-18" r="350"/><path id="SJEN0eph1b_pad-11" d="M-650-800H650V800H-650z"/><path id="SJEN0eph1b_pad-12" d="M-800-650H800V650H-800z"/><path id="SJEN0eph1b_pad-13" d="M-1216-1063.6h2432v2127.2h-2432z"/><rect id="SJEN0eph1b_pad-14" width="2432" height="2127.2" x="-1216" y="-1063.6" rx="1063.6" ry="1063.6"/><path id="SJEN0eph1b_pad-15" d="M-800-575H800V575H-800z"/><path id="SJEN0eph1b_pad-16" d="M-975-500H975V500H-975z"/><path id="SJEN0eph1b_pad-17" d="M-1849.73-1049.63h3699.46v2099.26h-3699.46z"/><path id="ByH4ReanJ-_pad-12" d="M-650-800H650V800H-650z"/><path id="ByH4ReanJ-_pad-13" d="M-800-650H800V650H-800z"/><path id="ByH4ReanJ-_pad-14" d="M-1216-1063.6h2432v2127.2h-2432z"/><rect id="ByH4ReanJ-_pad-15" width="2432" height="2127.2" x="-1216" y="-1063.6" rx="1063.6" ry="1063.6"/><path id="ByH4ReanJ-_pad-16" d="M-800-575H800V575H-800z"/><path id="ByH4ReanJ-_pad-17" d="M-975-500H975V500H-975z"/><path id="ByH4ReanJ-_pad-18" d="M-1849.73-1049.63h3699.46v2099.26h-3699.46z"/><mask id="ByH4ReanJ-_clear-1" stroke="#000"><path fill="#fff" d="M216815-112886.666h21030v12460h-21030z"/><use x="233485" y="-108835" xlink:href="#ByH4ReanJ-_pad-12"/><use x="233485" y="-111035" xlink:href="#ByH4ReanJ-_pad-12"/><use x="223325" y="-111155" xlink:href="#ByH4ReanJ-_pad-13"/><use x="221125" y="-111155" xlink:href="#ByH4ReanJ-_pad-13"/><use x="227530" y="-111150" xlink:href="#ByH4ReanJ-_pad-13"/><use x="225330" y="-111150" xlink:href="#ByH4ReanJ-_pad-13"/><use x="221075" y="-108995" xlink:href="#ByH4ReanJ-_pad-12"/><use x="221075" y="-106795" xlink:href="#ByH4ReanJ-_pad-12"/><use x="223015" y="-108985" xlink:href="#ByH4ReanJ-_pad-12"/><use x="223015" y="-106785" xlink:href="#ByH4ReanJ-_pad-12"/><use x="233365" y="-104415" xlink:href="#ByH4ReanJ-_pad-12"/><use x="233365" y="-106615" xlink:href="#ByH4ReanJ-_pad-12"/><use x="236220" y="-110490" xlink:href="#ByH4ReanJ-_pad-14"/><use x="236220" y="-107950" xlink:href="#ByH4ReanJ-_pad-15"/><use x="236220" y="-105410" xlink:href="#ByH4ReanJ-_pad-15"/><use x="236220" y="-102870" xlink:href="#ByH4ReanJ-_pad-15"/><use x="218440" y="-102870" xlink:href="#ByH4ReanJ-_pad-14"/><use x="218440" y="-105410" xlink:href="#ByH4ReanJ-_pad-15"/><use x="218440" y="-107950" xlink:href="#ByH4ReanJ-_pad-15"/><use x="218440" y="-110490" xlink:href="#ByH4ReanJ-_pad-15"/><use x="229575" y="-111195" xlink:href="#ByH4ReanJ-_pad-16"/><use x="231475" y="-111195" xlink:href="#ByH4ReanJ-_pad-16"/><use x="221125" y="-104355" xlink:href="#ByH4ReanJ-_pad-16"/><use x="223025" y="-104355" xlink:href="#ByH4ReanJ-_pad-16"/><use x="223085" y="-102585" xlink:href="#ByH4ReanJ-_pad-16"/><use x="221185" y="-102585" xlink:href="#ByH4ReanJ-_pad-16"/><use x="225565" y="-105350" xlink:href="#ByH4ReanJ-_pad-17"/><use x="225565" y="-106620" xlink:href="#ByH4ReanJ-_pad-17"/><use x="225565" y="-107890" xlink:href="#ByH4ReanJ-_pad-17"/><use x="225565" y="-109160" xlink:href="#ByH4ReanJ-_pad-17"/><use x="230965" y="-109160" xlink:href="#ByH4ReanJ-_pad-17"/><use x="230965" y="-107890" xlink:href="#ByH4ReanJ-_pad-17"/><use x="230965" y="-106620" xlink:href="#ByH4ReanJ-_pad-17"/><use x="230965" y="-105350" xlink:href="#ByH4ReanJ-_pad-17"/><use x="226354.18" y="-101955" xlink:href="#ByH4ReanJ-_pad-18"/><use x="231855.82" y="-101955" xlink:href="#ByH4ReanJ-_pad-18"/></mask><path id="HyXEAeThJW_pad-11" d="M-450-600h900V600h-900z"/><path id="HyXEAeThJW_pad-12" d="M-600-450H600v900H-600z"/><path id="HyXEAeThJW_pad-13" d="M-1016-863.6h2032V863.6h-2032z"/><rect id="HyXEAeThJW_pad-14" width="2032" height="1727.2" x="-1016" y="-863.6" rx="863.6" ry="863.6"/><path id="HyXEAeThJW_pad-15" d="M-600-375H600v750H-600z"/><path id="HyXEAeThJW_pad-16" d="M-775-300H775v600H-775z"/><path id="HyXEAeThJW_pad-17" d="M-1649.73-849.63h3299.46V849.63h-3299.46z"/><circle id="HyXEAeThJW_pad-18" r="350"/><path id="HyXEAeThJW_pad-11" d="M-450-600h900V600h-900z"/><path id="HyXEAeThJW_pad-12" d="M-600-450H600v900H-600z"/><path id="HyXEAeThJW_pad-13" d="M-1016-863.6h2032V863.6h-2032z"/><rect id="HyXEAeThJW_pad-14" width="2032" height="1727.2" x="-1016" y="-863.6" rx="863.6" ry="863.6"/><path id="HyXEAeThJW_pad-15" d="M-600-375H600v750H-600z"/><path id="HyXEAeThJW_pad-16" d="M-775-300H775v600H-775z"/><path id="HyXEAeThJW_pad-17" d="M-1649.73-849.63h3299.46V849.63h-3299.46z"/><circle id="HyXEAeThJW_pad-18" r="350"/><path id="SJEN0eph1b_pad-11" d="M-650-800H650V800H-650z"/><path id="SJEN0eph1b_pad-12" d="M-800-650H800V650H-800z"/><path id="SJEN0eph1b_pad-13" d="M-1216-1063.6h2432v2127.2h-2432z"/><rect id="SJEN0eph1b_pad-14" width="2432" height="2127.2" x="-1216" y="-1063.6" rx="1063.6" ry="1063.6"/><path id="SJEN0eph1b_pad-15" d="M-800-575H800V575H-800z"/><path id="SJEN0eph1b_pad-16" d="M-975-500H975V500H-975z"/><path id="SJEN0eph1b_pad-17" d="M-1849.73-1049.63h3699.46v2099.26h-3699.46z"/><path id="HyXEAeThJW_pad-11" d="M-450-600h900V600h-900z"/><path id="HyXEAeThJW_pad-12" d="M-600-450H600v900H-600z"/><path id="HyXEAeThJW_pad-13" d="M-1016-863.6h2032V863.6h-2032z"/><rect id="HyXEAeThJW_pad-14" width="2032" height="1727.2" x="-1016" y="-863.6" rx="863.6" ry="863.6"/><path id="HyXEAeThJW_pad-15" d="M-600-375H600v750H-600z"/><path id="HyXEAeThJW_pad-16" d="M-775-300H775v600H-775z"/><path id="HyXEAeThJW_pad-17" d="M-1649.73-849.63h3299.46V849.63h-3299.46z"/><circle id="HyXEAeThJW_pad-18" r="350"/><path id="HyXEAeThJW_pad-11" d="M-450-600h900V600h-900z"/><path id="HyXEAeThJW_pad-12" d="M-600-450H600v900H-600z"/><path id="HyXEAeThJW_pad-13" d="M-1016-863.6h2032V863.6h-2032z"/><rect id="HyXEAeThJW_pad-14" width="2032" height="1727.2" x="-1016" y="-863.6" rx="863.6" ry="863.6"/><path id="HyXEAeThJW_pad-15" d="M-600-375H600v750H-600z"/><path id="HyXEAeThJW_pad-16" d="M-775-300H775v600H-775z"/><path id="HyXEAeThJW_pad-17" d="M-1649.73-849.63h3299.46V849.63h-3299.46z"/><circle id="HyXEAeThJW_pad-18" r="350"/><path id="SJEN0eph1b_pad-11" d="M-650-800H650V800H-650z"/><path id="SJEN0eph1b_pad-12" d="M-800-650H800V650H-800z"/><path id="SJEN0eph1b_pad-13" d="M-1216-1063.6h2432v2127.2h-2432z"/><rect id="SJEN0eph1b_pad-14" width="2432" height="2127.2" x="-1216" y="-1063.6" rx="1063.6" ry="1063.6"/><path id="SJEN0eph1b_pad-15" d="M-800-575H800V575H-800z"/><path id="SJEN0eph1b_pad-16" d="M-975-500H975V500H-975z"/><path id="SJEN0eph1b_pad-17" d="M-1849.73-1049.63h3699.46v2099.26h-3699.46z"/><path id="ByH4ReanJ-_pad-12" d="M-650-800H650V800H-650z"/><path id="ByH4ReanJ-_pad-13" d="M-800-650H800V650H-800z"/><path id="ByH4ReanJ-_pad-14" d="M-1216-1063.6h2432v2127.2h-2432z"/><rect id="ByH4ReanJ-_pad-15" width="2432" height="2127.2" x="-1216" y="-1063.6" rx="1063.6" ry="1063.6"/><path id="ByH4ReanJ-_pad-16" d="M-800-575H800V575H-800z"/><path id="ByH4ReanJ-_pad-17" d="M-975-500H975V500H-975z"/><path id="ByH4ReanJ-_pad-18" d="M-1849.73-1049.63h3699.46v2099.26h-3699.46z"/><mask id="ByH4ReanJ-_clear-1" stroke="#000"><path fill="#fff" d="M216815-112886.666h21030v12460h-21030z"/><use x="233485" y="-108835" xlink:href="#ByH4ReanJ-_pad-12"/><use x="233485" y="-111035" xlink:href="#ByH4ReanJ-_pad-12"/><use x="223325" y="-111155" xlink:href="#ByH4ReanJ-_pad-13"/><use x="221125" y="-111155" xlink:href="#ByH4ReanJ-_pad-13"/><use x="227530" y="-111150" xlink:href="#ByH4ReanJ-_pad-13"/><use x="225330" y="-111150" xlink:href="#ByH4ReanJ-_pad-13"/><use x="221075" y="-108995" xlink:href="#ByH4ReanJ-_pad-12"/><use x="221075" y="-106795" xlink:href="#ByH4ReanJ-_pad-12"/><use x="223015" y="-108985" xlink:href="#ByH4ReanJ-_pad-12"/><use x="223015" y="-106785" xlink:href="#ByH4ReanJ-_pad-12"/><use x="233365" y="-104415" xlink:href="#ByH4ReanJ-_pad-12"/><use x="233365" y="-106615" xlink:href="#ByH4ReanJ-_pad-12"/><use x="236220" y="-110490" xlink:href="#ByH4ReanJ-_pad-14"/><use x="236220" y="-107950" xlink:href="#ByH4ReanJ-_pad-15"/><use x="236220" y="-105410" xlink:href="#ByH4ReanJ-_pad-15"/><use x="236220" y="-102870" xlink:href="#ByH4ReanJ-_pad-15"/><use x="218440" y="-102870" xlink:href="#ByH4ReanJ-_pad-14"/><use x="218440" y="-105410" xlink:href="#ByH4ReanJ-_pad-15"/><use x="218440" y="-107950" xlink:href="#ByH4ReanJ-_pad-15"/><use x="218440" y="-110490" xlink:href="#ByH4ReanJ-_pad-15"/><use x="229575" y="-111195" xlink:href="#ByH4ReanJ-_pad-16"/><use x="231475" y="-111195" xlink:href="#ByH4ReanJ-_pad-16"/><use x="221125" y="-104355" xlink:href="#ByH4ReanJ-_pad-16"/><use x="223025" y="-104355" xlink:href="#ByH4ReanJ-_pad-16"/><use x="223085" y="-102585" xlink:href="#ByH4ReanJ-_pad-16"/><use x="221185" y="-102585" xlink:href="#ByH4ReanJ-_pad-16"/><use x="225565" y="-105350" xlink:href="#ByH4ReanJ-_pad-17"/><use x="225565" y="-106620" xlink:href="#ByH4ReanJ-_pad-17"/><use x="225565" y="-107890" xlink:href="#ByH4ReanJ-_pad-17"/><use x="225565" y="-109160" xlink:href="#ByH4ReanJ-_pad-17"/><use x="230965" y="-109160" xlink:href="#ByH4ReanJ-_pad-17"/><use x="230965" y="-107890" xlink:href="#ByH4ReanJ-_pad-17"/><use x="230965" y="-106620" xlink:href="#ByH4ReanJ-_pad-17"/><use x="230965" y="-105350" xlink:href="#ByH4ReanJ-_pad-17"/><use x="226354.18" y="-101955" xlink:href="#ByH4ReanJ-_pad-18"/><use x="231855.82" y="-101955" xlink:href="#ByH4ReanJ-_pad-18"/></mask><path id="HyXEAeThJW_pad-11" d="M-450-600h900V600h-900z"/><path id="HyXEAeThJW_pad-12" d="M-600-450H600v900H-600z"/><path id="HyXEAeThJW_pad-13" d="M-1016-863.6h2032V863.6h-2032z"/><rect id="HyXEAeThJW_pad-14" width="2032" height="1727.2" x="-1016" y="-863.6" rx="863.6" ry="863.6"/><path id="HyXEAeThJW_pad-15" d="M-600-375H600v750H-600z"/><path id="HyXEAeThJW_pad-16" d="M-775-300H775v600H-775z"/><path id="HyXEAeThJW_pad-17" d="M-1649.73-849.63h3299.46V849.63h-3299.46z"/><circle id="HyXEAeThJW_pad-18" r="350"/><path id="HyXEAeThJW_pad-11" d="M-450-600h900V600h-900z"/><path id="HyXEAeThJW_pad-12" d="M-600-450H600v900H-600z"/><path id="HyXEAeThJW_pad-13" d="M-1016-863.6h2032V863.6h-2032z"/><rect id="HyXEAeThJW_pad-14" width="2032" height="1727.2" x="-1016" y="-863.6" rx="863.6" ry="863.6"/><path id="HyXEAeThJW_pad-15" d="M-600-375H600v750H-600z"/><path id="HyXEAeThJW_pad-16" d="M-775-300H775v600H-775z"/><path id="HyXEAeThJW_pad-17" d="M-1649.73-849.63h3299.46V849.63h-3299.46z"/><circle id="HyXEAeThJW_pad-18" r="350"/><path id="SJEN0eph1b_pad-11" d="M-650-800H650V800H-650z"/><path id="SJEN0eph1b_pad-12" d="M-800-650H800V650H-800z"/><path id="SJEN0eph1b_pad-13" d="M-1216-1063.6h2432v2127.2h-2432z"/><rect id="SJEN0eph1b_pad-14" width="2432" height="2127.2" x="-1216" y="-1063.6" rx="1063.6" ry="1063.6"/><path id="SJEN0eph1b_pad-15" d="M-800-575H800V575H-800z"/><path id="SJEN0eph1b_pad-16" d="M-975-500H975V500H-975z"/><path id="SJEN0eph1b_pad-17" d="M-1849.73-1049.63h3699.46v2099.26h-3699.46z"/><path id="HyXEAeThJW_pad-11" d="M-450-600h900V600h-900z"/><path id="HyXEAeThJW_pad-12" d="M-600-450H600v900H-600z"/><path id="HyXEAeThJW_pad-13" d="M-1016-863.6h2032V863.6h-2032z"/><rect id="HyXEAeThJW_pad-14" width="2032" height="1727.2" x="-1016" y="-863.6" rx="863.6" ry="863.6"/><path id="HyXEAeThJW_pad-15" d="M-600-375H600v750H-600z"/><path id="HyXEAeThJW_pad-16" d="M-775-300H775v600H-775z"/><path id="HyXEAeThJW_pad-17" d="M-1649.73-849.63h3299.46V849.63h-3299.46z"/><circle id="HyXEAeThJW_pad-18" r="350"/><path id="HyXEAeThJW_pad-11" d="M-450-600h900V600h-900z"/><path id="HyXEAeThJW_pad-12" d="M-600-450H600v900H-600z"/><path id="HyXEAeThJW_pad-13" d="M-1016-863.6h2032V863.6h-2032z"/><rect id="HyXEAeThJW_pad-14" width="2032" height="1727.2" x="-1016" y="-863.6" rx="863.6" ry="863.6"/><path id="HyXEAeThJW_pad-15" d="M-600-375H600v750H-600z"/><path id="HyXEAeThJW_pad-16" d="M-775-300H775v600H-775z"/><path id="HyXEAeThJW_pad-17" d="M-1649.73-849.63h3299.46V849.63h-3299.46z"/><circle id="HyXEAeThJW_pad-18" r="350"/><path id="SJEN0eph1b_pad-11" d="M-650-800H650V800H-650z"/><path id="SJEN0eph1b_pad-12" d="M-800-650H800V650H-800z"/><path id="SJEN0eph1b_pad-13" d="M-1216-1063.6h2432v2127.2h-2432z"/><rect id="SJEN0eph1b_pad-14" width="2432" height="2127.2" x="-1216" y="-1063.6" rx="1063.6" ry="1063.6"/><path id="SJEN0eph1b_pad-15" d="M-800-575H800V575H-800z"/><path id="SJEN0eph1b_pad-16" d="M-975-500H975V500H-975z"/><path id="SJEN0eph1b_pad-17" d="M-1849.73-1049.63h3699.46v2099.26h-3699.46z"/><path id="ByH4ReanJ-_pad-12" d="M-650-800H650V800H-650z"/><path id="ByH4ReanJ-_pad-13" d="M-800-650H800V650H-800z"/><path id="ByH4ReanJ-_pad-14" d="M-1216-1063.6h2432v2127.2h-2432z"/><rect id="ByH4ReanJ-_pad-15" width="2432" height="2127.2" x="-1216" y="-1063.6" rx="1063.6" ry="1063.6"/><path id="ByH4ReanJ-_pad-16" d="M-800-575H800V575H-800z"/><path id="ByH4ReanJ-_pad-17" d="M-975-500H975V500H-975z"/><path id="ByH4ReanJ-_pad-18" d="M-1849.73-1049.63h3699.46v2099.26h-3699.46z"/><mask id="ByH4ReanJ-_clear-1" stroke="#000"><path fill="#fff" d="M216815-112886.666h21030v12460h-21030z"/><use x="233485" y="-108835" xlink:href="#ByH4ReanJ-_pad-12"/><use x="233485" y="-111035" xlink:href="#ByH4ReanJ-_pad-12"/><use x="223325" y="-111155" xlink:href="#ByH4ReanJ-_pad-13"/><use x="221125" y="-111155" xlink:href="#ByH4ReanJ-_pad-13"/><use x="227530" y="-111150" xlink:href="#ByH4ReanJ-_pad-13"/><use x="225330" y="-111150" xlink:href="#ByH4ReanJ-_pad-13"/><use x="221075" y="-108995" xlink:href="#ByH4ReanJ-_pad-12"/><use x="221075" y="-106795" xlink:href="#ByH4ReanJ-_pad-12"/><use x="223015" y="-108985" xlink:href="#ByH4ReanJ-_pad-12"/><use x="223015" y="-106785" xlink:href="#ByH4ReanJ-_pad-12"/><use x="233365" y="-104415" xlink:href="#ByH4ReanJ-_pad-12"/><use x="233365" y="-106615" xlink:href="#ByH4ReanJ-_pad-12"/><use x="236220" y="-110490" xlink:href="#ByH4ReanJ-_pad-14"/><use x="236220" y="-107950" xlink:href="#ByH4ReanJ-_pad-15"/><use x="236220" y="-105410" xlink:href="#ByH4ReanJ-_pad-15"/><use x="236220" y="-102870" xlink:href="#ByH4ReanJ-_pad-15"/><use x="218440" y="-102870" xlink:href="#ByH4ReanJ-_pad-14"/><use x="218440" y="-105410" xlink:href="#ByH4ReanJ-_pad-15"/><use x="218440" y="-107950" xlink:href="#ByH4ReanJ-_pad-15"/><use x="218440" y="-110490" xlink:href="#ByH4ReanJ-_pad-15"/><use x="229575" y="-111195" xlink:href="#ByH4ReanJ-_pad-16"/><use x="231475" y="-111195" xlink:href="#ByH4ReanJ-_pad-16"/><use x="221125" y="-104355" xlink:href="#ByH4ReanJ-_pad-16"/><use x="223025" y="-104355" xlink:href="#ByH4ReanJ-_pad-16"/><use x="223085" y="-102585" xlink:href="#ByH4ReanJ-_pad-16"/><use x="221185" y="-102585" xlink:href="#ByH4ReanJ-_pad-16"/><use x="225565" y="-105350" xlink:href="#ByH4ReanJ-_pad-17"/><use x="225565" y="-106620" xlink:href="#ByH4ReanJ-_pad-17"/><use x="225565" y="-107890" xlink:href="#ByH4ReanJ-_pad-17"/><use x="225565" y="-109160" xlink:href="#ByH4ReanJ-_pad-17"/><use x="230965" y="-109160" xlink:href="#ByH4ReanJ-_pad-17"/><use x="230965" y="-107890" xlink:href="#ByH4ReanJ-_pad-17"/><use x="230965" y="-106620" xlink:href="#ByH4ReanJ-_pad-17"/><use x="230965" y="-105350" xlink:href="#ByH4ReanJ-_pad-17"/><use x="226354.18" y="-101955" xlink:href="#ByH4ReanJ-_pad-18"/><use x="231855.82" y="-101955" xlink:href="#ByH4ReanJ-_pad-18"/></mask><path id="HyXEAeThJW_pad-11" d="M-450-600h900V600h-900z"/><path id="HyXEAeThJW_pad-12" d="M-600-450H600v900H-600z"/><path id="HyXEAeThJW_pad-13" d="M-1016-863.6h2032V863.6h-2032z"/><rect id="HyXEAeThJW_pad-14" width="2032" height="1727.2" x="-1016" y="-863.6" rx="863.6" ry="863.6"/><path id="HyXEAeThJW_pad-15" d="M-600-375H600v750H-600z"/><path id="HyXEAeThJW_pad-16" d="M-775-300H775v600H-775z"/><path id="HyXEAeThJW_pad-17" d="M-1649.73-849.63h3299.46V849.63h-3299.46z"/><circle id="HyXEAeThJW_pad-18" r="350"/><path id="HyXEAeThJW_pad-11" d="M-450-600h900V600h-900z"/><path id="HyXEAeThJW_pad-12" d="M-600-450H600v900H-600z"/><path id="HyXEAeThJW_pad-13" d="M-1016-863.6h2032V863.6h-2032z"/><rect id="HyXEAeThJW_pad-14" width="2032" height="1727.2" x="-1016" y="-863.6" rx="863.6" ry="863.6"/><path id="HyXEAeThJW_pad-15" d="M-600-375H600v750H-600z"/><path id="HyXEAeThJW_pad-16" d="M-775-300H775v600H-775z"/><path id="HyXEAeThJW_pad-17" d="M-1649.73-849.63h3299.46V849.63h-3299.46z"/><circle id="HyXEAeThJW_pad-18" r="350"/><path id="SJEN0eph1b_pad-11" d="M-650-800H650V800H-650z"/><path id="SJEN0eph1b_pad-12" d="M-800-650H800V650H-800z"/><path id="SJEN0eph1b_pad-13" d="M-1216-1063.6h2432v2127.2h-2432z"/><rect id="SJEN0eph1b_pad-14" width="2432" height="2127.2" x="-1216" y="-1063.6" rx="1063.6" ry="1063.6"/><path id="SJEN0eph1b_pad-15" d="M-800-575H800V575H-800z"/><path id="SJEN0eph1b_pad-16" d="M-975-500H975V500H-975z"/><path id="SJEN0eph1b_pad-17" d="M-1849.73-1049.63h3699.46v2099.26h-3699.46z"/><path id="HyXEAeThJW_pad-11" d="M-450-600h900V600h-900z"/><path id="HyXEAeThJW_pad-12" d="M-600-450H600v900H-600z"/><path id="HyXEAeThJW_pad-13" d="M-1016-863.6h2032V863.6h-2032z"/><rect id="HyXEAeThJW_pad-14" width="2032" height="1727.2" x="-1016" y="-863.6" rx="863.6" ry="863.6"/><path id="HyXEAeThJW_pad-15" d="M-600-375H600v750H-600z"/><path id="HyXEAeThJW_pad-16" d="M-775-300H775v600H-775z"/><path id="HyXEAeThJW_pad-17" d="M-1649.73-849.63h3299.46V849.63h-3299.46z"/><circle id="HyXEAeThJW_pad-18" r="350"/><path id="HyXEAeThJW_pad-11" d="M-450-600h900V600h-900z"/><path id="HyXEAeThJW_pad-12" d="M-600-450H600v900H-600z"/><path id="HyXEAeThJW_pad-13" d="M-1016-863.6h2032V863.6h-2032z"/><rect id="HyXEAeThJW_pad-14" width="2032" height="1727.2" x="-1016" y="-863.6" rx="863.6" ry="863.6"/><path id="HyXEAeThJW_pad-15" d="M-600-375H600v750H-600z"/><path id="HyXEAeThJW_pad-16" d="M-775-300H775v600H-775z"/><path id="HyXEAeThJW_pad-17" d="M-1649.73-849.63h3299.46V849.63h-3299.46z"/><circle id="HyXEAeThJW_pad-18" r="350"/><path id="SJEN0eph1b_pad-11" d="M-650-800H650V800H-650z"/><path id="SJEN0eph1b_pad-12" d="M-800-650H800V650H-800z"/><path id="SJEN0eph1b_pad-13" d="M-1216-1063.6h2432v2127.2h-2432z"/><rect id="SJEN0eph1b_pad-14" width="2432" height="2127.2" x="-1216" y="-1063.6" rx="1063.6" ry="1063.6"/><path id="SJEN0eph1b_pad-15" d="M-800-575H800V575H-800z"/><path id="SJEN0eph1b_pad-16" d="M-975-500H975V500H-975z"/><path id="SJEN0eph1b_pad-17" d="M-1849.73-1049.63h3699.46v2099.26h-3699.46z"/><path id="ByH4ReanJ-_pad-12" d="M-650-800H650V800H-650z"/><path id="ByH4ReanJ-_pad-13" d="M-800-650H800V650H-800z"/><path id="ByH4ReanJ-_pad-14" d="M-1216-1063.6h2432v2127.2h-2432z"/><rect id="ByH4ReanJ-_pad-15" width="2432" height="2127.2" x="-1216" y="-1063.6" rx="1063.6" ry="1063.6"/><path id="ByH4ReanJ-_pad-16" d="M-800-575H800V575H-800z"/><path id="ByH4ReanJ-_pad-17" d="M-975-500H975V500H-975z"/><path id="ByH4ReanJ-_pad-18" d="M-1849.73-1049.63h3699.46v2099.26h-3699.46z"/><mask id="ByH4ReanJ-_clear-1" stroke="#000"><path fill="#fff" d="M216815-112886.666h21030v12460h-21030z"/><use x="233485" y="-108835" xlink:href="#ByH4ReanJ-_pad-12"/><use x="233485" y="-111035" xlink:href="#ByH4ReanJ-_pad-12"/><use x="223325" y="-111155" xlink:href="#ByH4ReanJ-_pad-13"/><use x="221125" y="-111155" xlink:href="#ByH4ReanJ-_pad-13"/><use x="227530" y="-111150" xlink:href="#ByH4ReanJ-_pad-13"/><use x="225330" y="-111150" xlink:href="#ByH4ReanJ-_pad-13"/><use x="221075" y="-108995" xlink:href="#ByH4ReanJ-_pad-12"/><use x="221075" y="-106795" xlink:href="#ByH4ReanJ-_pad-12"/><use x="223015" y="-108985" xlink:href="#ByH4ReanJ-_pad-12"/><use x="223015" y="-106785" xlink:href="#ByH4ReanJ-_pad-12"/><use x="233365" y="-104415" xlink:href="#ByH4ReanJ-_pad-12"/><use x="233365" y="-106615" xlink:href="#ByH4ReanJ-_pad-12"/><use x="236220" y="-110490" xlink:href="#ByH4ReanJ-_pad-14"/><use x="236220" y="-107950" xlink:href="#ByH4ReanJ-_pad-15"/><use x="236220" y="-105410" xlink:href="#ByH4ReanJ-_pad-15"/><use x="236220" y="-102870" xlink:href="#ByH4ReanJ-_pad-15"/><use x="218440" y="-102870" xlink:href="#ByH4ReanJ-_pad-14"/><use x="218440" y="-105410" xlink:href="#ByH4ReanJ-_pad-15"/><use x="218440" y="-107950" xlink:href="#ByH4ReanJ-_pad-15"/><use x="218440" y="-110490" xlink:href="#ByH4ReanJ-_pad-15"/><use x="229575" y="-111195" xlink:href="#ByH4ReanJ-_pad-16"/><use x="231475" y="-111195" xlink:href="#ByH4ReanJ-_pad-16"/><use x="221125" y="-104355" xlink:href="#ByH4ReanJ-_pad-16"/><use x="223025" y="-104355" xlink:href="#ByH4ReanJ-_pad-16"/><use x="223085" y="-102585" xlink:href="#ByH4ReanJ-_pad-16"/><use x="221185" y="-102585" xlink:href="#ByH4ReanJ-_pad-16"/><use x="225565" y="-105350" xlink:href="#ByH4ReanJ-_pad-17"/><use x="225565" y="-106620" xlink:href="#ByH4ReanJ-_pad-17"/><use x="225565" y="-107890" xlink:href="#ByH4ReanJ-_pad-17"/><use x="225565" y="-109160" xlink:href="#ByH4ReanJ-_pad-17"/><use x="230965" y="-109160" xlink:href="#ByH4ReanJ-_pad-17"/><use x="230965" y="-107890" xlink:href="#ByH4ReanJ-_pad-17"/><use x="230965" y="-106620" xlink:href="#ByH4ReanJ-_pad-17"/><use x="230965" y="-105350" xlink:href="#ByH4ReanJ-_pad-17"/><use x="226354.18" y="-101955" xlink:href="#ByH4ReanJ-_pad-18"/><use x="231855.82" y="-101955" xlink:href="#ByH4ReanJ-_pad-18"/></mask><circle id="HyDNAe63yW_pad-1" r="250"/><circle id="HyDNAe63yW_pad-2" r="508"/><g id="pcb-stackup_top_cu"><use x="233485" y="-108835" xlink:href="#HyXEAeThJW_pad-11"/><use x="233485" y="-111035" xlink:href="#HyXEAeThJW_pad-11"/><use x="223325" y="-111155" xlink:href="#HyXEAeThJW_pad-12"/><use x="221125" y="-111155" xlink:href="#HyXEAeThJW_pad-12"/><use x="227530" y="-111150" xlink:href="#HyXEAeThJW_pad-12"/><use x="225330" y="-111150" xlink:href="#HyXEAeThJW_pad-12"/><use x="221075" y="-108995" xlink:href="#HyXEAeThJW_pad-11"/><use x="221075" y="-106795" xlink:href="#HyXEAeThJW_pad-11"/><use x="223015" y="-108985" xlink:href="#HyXEAeThJW_pad-11"/><use x="223015" y="-106785" xlink:href="#HyXEAeThJW_pad-11"/><use x="233365" y="-104415" xlink:href="#HyXEAeThJW_pad-11"/><use x="233365" y="-106615" xlink:href="#HyXEAeThJW_pad-11"/><use x="236220" y="-110490" xlink:href="#HyXEAeThJW_pad-13"/><use x="236220" y="-107950" xlink:href="#HyXEAeThJW_pad-14"/><use x="236220" y="-105410" xlink:href="#HyXEAeThJW_pad-14"/><use x="236220" y="-102870" xlink:href="#HyXEAeThJW_pad-14"/><use x="218440" y="-102870" xlink:href="#HyXEAeThJW_pad-13"/><use x="218440" y="-105410" xlink:href="#HyXEAeThJW_pad-14"/><use x="218440" y="-107950" xlink:href="#HyXEAeThJW_pad-14"/><use x="218440" y="-110490" xlink:href="#HyXEAeThJW_pad-14"/><use x="229575" y="-111195" xlink:href="#HyXEAeThJW_pad-15"/><use x="231475" y="-111195" xlink:href="#HyXEAeThJW_pad-15"/><use x="221125" y="-104355" xlink:href="#HyXEAeThJW_pad-15"/><use x="223025" y="-104355" xlink:href="#HyXEAeThJW_pad-15"/><use x="223085" y="-102585" xlink:href="#HyXEAeThJW_pad-15"/><use x="221185" y="-102585" xlink:href="#HyXEAeThJW_pad-15"/><use x="225565" y="-105350" xlink:href="#HyXEAeThJW_pad-16"/><use x="225565" y="-106620" xlink:href="#HyXEAeThJW_pad-16"/><use x="225565" y="-107890" xlink:href="#HyXEAeThJW_pad-16"/><use x="225565" y="-109160" xlink:href="#HyXEAeThJW_pad-16"/><use x="230965" y="-109160" xlink:href="#HyXEAeThJW_pad-16"/><use x="230965" y="-107890" xlink:href="#HyXEAeThJW_pad-16"/><use x="230965" y="-106620" xlink:href="#HyXEAeThJW_pad-16"/><use x="230965" y="-105350" xlink:href="#HyXEAeThJW_pad-16"/><use x="226354.18" y="-101955" xlink:href="#HyXEAeThJW_pad-17"/><use x="231855.82" y="-101955" xlink:href="#HyXEAeThJW_pad-17"/><use x="226796.251" y="-108879.14" xlink:href="#HyXEAeThJW_pad-18"/><use x="223789.989" y="-107294.991" xlink:href="#HyXEAeThJW_pad-18"/><use x="228228.165" y="-109356.445" xlink:href="#HyXEAeThJW_pad-18"/><use x="229528.749" y="-108778.898" xlink:href="#HyXEAeThJW_pad-18"/><use x="232723.938" y="-107326.43" xlink:href="#HyXEAeThJW_pad-18"/><use x="228106.428" y="-107328.182" xlink:href="#HyXEAeThJW_pad-18"/><use x="227055" y="-105325" xlink:href="#HyXEAeThJW_pad-18"/><use x="228295" y="-105355.011" xlink:href="#HyXEAeThJW_pad-18"/><use x="228465" y="-104005" xlink:href="#HyXEAeThJW_pad-18"/><use x="227055" y="-107425" xlink:href="#HyXEAeThJW_pad-18"/><use x="224225.002" y="-104925" xlink:href="#HyXEAeThJW_pad-18"/><use x="232705" y="-112425" xlink:href="#HyXEAeThJW_pad-18"/><use x="220735" y="-112255" xlink:href="#HyXEAeThJW_pad-18"/><path fill="none" stroke-width="250" d="M230965-106620h-1151.386m-1383.184-1383.184h-612.963m-875.956-875.956h-145.26m1021.216 875.956l-875.956-875.956m2872.103 2259.14l-1383.184-1383.184M226590-109160l206.251 206.251v74.609M225565-109160h1025m-2800.011 2300.011v-435.002M223715-106785l74.989-74.989M223015-106785h700m6225 1985l550-550m-550 1025v-475m-1179.999 1654.999L229940-104325m-5595 830l349.999 349.999h4065.002M230490-105350h475v-1270m-7880 4035h350l910-910m-1320-860v-2420l-10-10m70 4200v-1710l-60-60m-3060 1400v-1880l1110-1110v-850m110 4210h-850l-370-370m-1525-4995h1630m1005 1005v150m-1005-1155l1005 1005m2779.45 5590H222640l-1230-1230h-225m5169.18 630h-1899.73l-600 600m5324.3-7773.897l349.999 349.999M229575-111195v625m3498.937 3593.569l-349.999-349.999m-4362.493-2030.015h-133.28m5136.835 2671.077l-291.063-291.063M233365-106615v-70.368M229575-110570l-1213.555 1213.555m-133.28 0h723.037l227.548 227.548M227398.246-106620l358.183-358.183 349.999-349.999M225565-106620h1833.246"/><path fill="none" stroke-width="500" d="M230965-107890v-1270m510-2035v350l2010 2010m-2520-325h2195l325 325m-3365-3490h-2115l-190 190m2305-190l1130 1130h225m-3945 45v-640m285-285v-60m-285 345l285-285m3660 880h210m1800 2360h927.6l1655-1655h152.4"/><path fill="none" stroke-width="250" d="M236220-110490h-152.4m-4817.6-705h225m-3660-940l190-190m5110 3340l-10 10 380 140m-8155-2315h150m6585.001 5285.001L233365-104565v150m-7885-6735l2696.806 2696.806 440.025.001 1208.192 1208.192h2174.978l65 65v1315.002m-18.811 2619.999h298.81l1020-1020v-150m-1509.18 2460v-1099.63l190.37-190.37m-6481.19-2105h1465l25 25"/><path fill="none" stroke-width="500" d="M223015-108985h-1930l-10-10m2920 10l1095 1095m-2075-1095h980m1095 1095h475m-7125-2600h1360l1275 1275v370-150"/><path fill="none" stroke-width="250" d="M228465-104005v-1180.011l-170-170M225565-107890h1025l465 465m-5980-1420v-150m2240-2260v1970l-300 300m-3215-1505v70l1275 1275v150m-2635-1495h152.4m5632.602 5070.026v494.974m239.997-734.971l-239.997 239.997m-28.191-2550.027l268.188 268.188m-1900-268.188h1631.812m268.188 268.188v2041.842m-2225-1985.03l325-325m-325 1875.002v-1550.002M221125-104980l1114.999-1114.999M221125-104355v-625m11580-7445v610l780 780m-12370-220v-620l-380-380"/><path d="M221357.638-101562.56H220585l-247.765-49.283-210.044-140.348-55.045-82.381-77.819 187.871-178.629 178.628-233.389 96.673h-856.559l-158.75-158.75V-102743h20v-254h-20v-2286h20v-254h-20v-20h-254v20h-1359.217l-121.141-232.026 2.649-15.765 253.977-527.245 415.801-371.503-309.484-206.791-324.856-486.181-114.074-573.489 114.074-573.489 324.856-486.181 314.781-210.33-314.781-210.33-324.856-486.181-114.074-573.489 114.074-573.489 324.856-486.181 486.181-324.856 573.489-114.074h369.49l573.489 114.074 486.181 324.856 116.883 174.927 76.262 15.17V-111605l19.693-99.002-147.081-354.21-.228-261.788h-2285.852l-854.092 854.092v8310.158h179v-704.16l96.673-233.389 178.629-178.628 197.559-81.832-172.593-154.205-253.977-527.245-2.649-15.765 121.141-232.026H218313v2286h-1365.25l-158.75-158.75h-179v1261.658l14.002 14.002H216789v-704.16l158.75-158.75H218313v1212.85l-158.75 158.75h-856.559l-233.389-96.673-178.629-178.628-96.673-233.389h-164.998l840.09 840.09h4416.106l-522.56-522.56"/><path fill="none" stroke-width="254" d="M221357.638-101562.56H220585l-247.765-49.283-210.044-140.348-55.045-82.381-77.819 187.871-178.629 178.628-233.389 96.673h-856.559l-158.75-158.75V-102743h20v-254h-20v-2286h20v-254h-20v-20h-254v20h-1359.217l-121.141-232.026 2.649-15.765 253.977-527.245 415.801-371.503-309.484-206.791-324.856-486.181-114.074-573.489 114.074-573.489 324.856-486.181 314.781-210.33-314.781-210.33-324.856-486.181-114.074-573.489 114.074-573.489 324.856-486.181 486.181-324.856 573.489-114.074h369.49l573.489 114.074 486.181 324.856 116.883 174.927 76.262 15.17V-111605l19.693-99.002-147.081-354.21-.228-261.788h-2285.852l-854.092 854.092v8310.158h179v-704.16l96.673-233.389 178.629-178.628 197.559-81.832-172.593-154.205-253.977-527.245-2.649-15.765 121.141-232.026H218313v2286h-1365.25l-158.75-158.75h-179v1261.658l14.002 14.002H216789v-704.16l158.75-158.75H218313v1212.85l-158.75 158.75h-856.559l-233.389-96.673-178.629-178.628-96.673-233.389h-164.998l840.09 840.09h4416.106l-522.56-522.56"/><path d="M238050-101894.092v-9571.816l-854.092-854.092h-3505.817l.033 37.56H233935l247.765 49.283 210.044 140.348 140.348 210.044 49.283 247.765v151.291l23.403-117.656 140.348-210.044 210.044-140.348 247.765-49.283h2032l247.765 49.283 210.044 140.348 140.348 210.044 49.283 247.765v1727.2l-49.283 247.765-140.348 210.044-210.044 140.348-36.331 7.227 16.981 11.346 324.856 486.181 114.074 573.489-114.074 573.489-324.856 486.181-309.484 206.791 415.801 371.503 253.977 527.245 2.649 15.765-121.141 232.026H236347v-20h-254v20h-1359.217l-121.141-232.026 2.649-15.765 253.977-527.245 415.801-371.503-309.484-206.791-324.856-486.181-114.074-573.489 5.11-25.692-18.823 3.744-130.133 194.757-138.109 92.282 18.109 12.1 140.348 210.044 49.283 247.765v1200l-49.283 247.765-140.348 210.044-63.143 42.191 63.143 42.191 140.348 210.044 49.283 247.765v1200l-49.283 247.765-140.348 210.044-191.81 128.165h531.643l2.649-15.765 253.977-527.245 411.84-367.964-411.84-367.964-253.977-527.245-2.649-15.765 121.141-232.026H236093v2286h254v-2286h1359.217l121.141 232.026-2.649 15.765-253.977 527.245-411.84 367.964 411.84 367.964 253.977 527.245 2.649 15.765-121.141 232.026h-2972.434l-121.141-232.026h-531.643l-18.234 12.183-60.852 12.104 101.794 152.344 49.283 247.765v293.656h459.652l121.141-232.026H236093v1213.924h254V-102743h1359.217l121.141 232.026-2.649 15.765-253.977 527.245-436.412 389.918-552.407 193.23-234.913-144.26h-254l-234.913 144.26-552.407-193.23-436.412-389.918-253.977-527.245-2.649-15.765h-459.652v1405.604l-13.003 65.37h3055.921l854.092-854.092"/><path fill="none" stroke-width="254" d="M238050-101894.092v-9571.816l-854.092-854.092h-3505.817l.033 37.56H233935l247.765 49.283 210.044 140.348 140.348 210.044 49.283 247.765v151.291l23.403-117.656 140.348-210.044 210.044-140.348 247.765-49.283h2032l247.765 49.283 210.044 140.348 140.348 210.044 49.283 247.765v1727.2l-49.283 247.765-140.348 210.044-210.044 140.348-36.331 7.227 16.981 11.346 324.856 486.181 114.074 573.489-114.074 573.489-324.856 486.181-309.484 206.791 415.801 371.503 253.977 527.245 2.649 15.765-121.141 232.026H236347v-20h-254v20h-1359.217l-121.141-232.026 2.649-15.765 253.977-527.245 415.801-371.503-309.484-206.791-324.856-486.181-114.074-573.489 5.11-25.692-18.823 3.744-130.133 194.757-138.109 92.282 18.109 12.1 140.348 210.044 49.283 247.765v1200l-49.283 247.765-140.348 210.044-63.143 42.191 63.143 42.191 140.348 210.044 49.283 247.765v1200l-49.283 247.765-140.348 210.044-191.81 128.165h531.643l2.649-15.765 253.977-527.245 411.84-367.964-411.84-367.964-253.977-527.245-2.649-15.765 121.141-232.026H236093v2286h254v-2286h1359.217l121.141 232.026-2.649 15.765-253.977 527.245-411.84 367.964 411.84 367.964 253.977 527.245 2.649 15.765-121.141 232.026h-2972.434l-121.141-232.026h-531.643l-18.234 12.183-60.852 12.104 101.794 152.344 49.283 247.765v293.656h459.652l121.141-232.026H236093v1213.924h254V-102743h1359.217l121.141 232.026-2.649 15.765-253.977 527.245-436.412 389.918-552.407 193.23-234.913-144.26h-254l-234.913 144.26-552.407-193.23-436.412-389.918-253.977-527.245-2.649-15.765h-459.652v1405.604l-13.003 65.37h3055.921l854.092-854.092"/><path d="M227479.83-104200.069l149.641-362.16 32.682-32.739-201.708-201.357-150.273-361.898-.342-391.857 131.606-318.511-43.19 8.591h-457.912l34.666 83.69v140.56l-158.75 158.75H225692v-20h-254v20h-20v254h20v649.25h254v-649.25h1124.25l158.75 158.75v140.56l-96.673 233.389-178.629 178.628-233.389 96.673h-615.559l-158.75-158.75h-254l-158.75 158.75h-199.204l-19.515 47.229-272.104 272.579 93.974 62.791 127.4 127.4h2470.287l-.258-295.068"/><path fill="none" stroke-width="254" d="M227479.83-104200.069l149.641-362.16 32.682-32.739-201.708-201.357-150.273-361.898-.342-391.857 131.606-318.511-43.19 8.591h-457.912l34.666 83.69v140.56l-158.75 158.75H225692v-20h-254v20h-20v254h20v649.25h254v-649.25h1124.25l158.75 158.75v140.56l-96.673 233.389-178.629 178.628-233.389 96.673h-615.559l-158.75-158.75h-254l-158.75 158.75h-199.204l-19.515 47.229-272.104 272.579 93.974 62.791 127.4 127.4h2470.287l-.258-295.068"/></g><g id="pcb-stackup_top_sm"><use x="233485" y="-108835" xlink:href="#SJEN0eph1b_pad-11"/><use x="233485" y="-111035" xlink:href="#SJEN0eph1b_pad-11"/><use x="223325" y="-111155" xlink:href="#SJEN0eph1b_pad-12"/><use x="221125" y="-111155" xlink:href="#SJEN0eph1b_pad-12"/><use x="227530" y="-111150" xlink:href="#SJEN0eph1b_pad-12"/><use x="225330" y="-111150" xlink:href="#SJEN0eph1b_pad-12"/><use x="221075" y="-108995" xlink:href="#SJEN0eph1b_pad-11"/><use x="221075" y="-106795" xlink:href="#SJEN0eph1b_pad-11"/><use x="223015" y="-108985" xlink:href="#SJEN0eph1b_pad-11"/><use x="223015" y="-106785" xlink:href="#SJEN0eph1b_pad-11"/><use x="233365" y="-104415" xlink:href="#SJEN0eph1b_pad-11"/><use x="233365" y="-106615" xlink:href="#SJEN0eph1b_pad-11"/><use x="236220" y="-110490" xlink:href="#SJEN0eph1b_pad-13"/><use x="236220" y="-107950" xlink:href="#SJEN0eph1b_pad-14"/><use x="236220" y="-105410" xlink:href="#SJEN0eph1b_pad-14"/><use x="236220" y="-102870" xlink:href="#SJEN0eph1b_pad-14"/><use x="218440" y="-102870" xlink:href="#SJEN0eph1b_pad-13"/><use x="218440" y="-105410" xlink:href="#SJEN0eph1b_pad-14"/><use x="218440" y="-107950" xlink:href="#SJEN0eph1b_pad-14"/><use x="218440" y="-110490" xlink:href="#SJEN0eph1b_pad-14"/><use x="229575" y="-111195" xlink:href="#SJEN0eph1b_pad-15"/><use x="231475" y="-111195" xlink:href="#SJEN0eph1b_pad-15"/><use x="221125" y="-104355" xlink:href="#SJEN0eph1b_pad-15"/><use x="223025" y="-104355" xlink:href="#SJEN0eph1b_pad-15"/><use x="223085" y="-102585" xlink:href="#SJEN0eph1b_pad-15"/><use x="221185" y="-102585" xlink:href="#SJEN0eph1b_pad-15"/><use x="225565" y="-105350" xlink:href="#SJEN0eph1b_pad-16"/><use x="225565" y="-106620" xlink:href="#SJEN0eph1b_pad-16"/><use x="225565" y="-107890" xlink:href="#SJEN0eph1b_pad-16"/><use x="225565" y="-109160" xlink:href="#SJEN0eph1b_pad-16"/><use x="230965" y="-109160" xlink:href="#SJEN0eph1b_pad-16"/><use x="230965" y="-107890" xlink:href="#SJEN0eph1b_pad-16"/><use x="230965" y="-106620" xlink:href="#SJEN0eph1b_pad-16"/><use x="230965" y="-105350" xlink:href="#SJEN0eph1b_pad-16"/><use x="226354.18" y="-101955" xlink:href="#SJEN0eph1b_pad-17"/><use x="231855.82" y="-101955" xlink:href="#SJEN0eph1b_pad-17"/></g><g id="pcb-stackup_top_ss"><g mask="url(#ByH4ReanJ-_clear-1)"><path fill="none" stroke-width="150" d="M232810-110435v1000m1350 0v-1000m-12435-45h1000m0-1350h-1000m4205 1355h1000m0-1350h-1000m-4180 4430v-1000m-1350 0v1000m3290 10v-1000m-1350 0v1000m10350 1370v1000m1350 0v-1000m3450-3205v7620m-2540-7620v7620m-280-10440v1550m2820 8890h-2540m0-7620h2540m280-1270v-1550h-3100m-17500 7900v-7620m2540 7620v-7620m280 10440v-1550m-2820-8890h2540m0 7620h-2540m-280 1270v1550h3100m10185-9275h700m0-1200h-700m-8450 8040h700m0-1200h-700m760 1770h-700m0 1200h700m3705-2695v-145m4150 145v-145m0-5005v145m-4150-145v145m0 5005h4150m-4150-5150h4150m-4150 5005h-1400m3815.42 2870h-149.86m998.22 0h200.66m-1049.02 0v-749.3m0 749.3v701.04m0-701.04l848.36 701.04v-1402.08l-848.36 701.04m3996.246-7916.666l-333.333-233.334m333.333-166.666h-700v266.666l33.334 66.667 33.333 33.333 66.667 33.334h100l66.666-33.334 33.334-33.333 33.333-66.667v-266.666m-366.667 1000V-109405l33.334-66.666 33.333-33.334 100-66.666 133.333-33.334h266.667l66.667 33.334 33.333 33.333 33.333 66.667v133.333l-33.333 66.667-33.333 33.333-66.667 33.333h-166.667l-66.666-33.333-33.334-33.333-33.333-66.667v-133.333l33.333-66.667 33.334-33.333 66.666-33.334m-10163.333-3196.666l-233.333 333.333m-166.667-333.333v700H222005l66.666-33.334 33.334-33.333 33.333-66.667v-100l-33.333-66.666-33.334-33.334-66.666-33.333h-266.667m1033.333 366.667h-333.333L222405-112435l33.333 33.334 66.667 33.333h166.666l66.667-33.333 33.333-33.334 33.334-66.666v-166.667l-33.334-66.667-33.333-33.333-66.667-33.333H222505l-66.667 33.333-33.333 33.333m3923.333-76.666l-233.333 333.333m-166.667-333.333v700H226195l66.666-33.334 33.334-33.333 33.333-66.667v-100l-33.333-66.666-33.334-33.334-66.666-33.333h-266.667m1000 133.333v-466.666m-166.667 733.333l-166.666-500h433.333m-4666.667 2736.667l-333.333-233.334m333.333-166.666h-700v266.666l33.334 66.667 33.333 33.333 66.667 33.334h100l66.666-33.334 33.334-33.333 33.333-66.667v-266.666m333.333 1066.666v-400m0 200h-700l100-66.666 66.667-66.667 33.333-66.667m2540-46.666l-333.333-233.334m333.333-166.666h-700v266.666l33.334 66.667 33.333 33.333 66.667 33.334h100l66.666-33.334 33.334-33.333 33.333-66.667v-266.666m-300 666.666l-33.333 33.334-33.334 66.666v166.667l33.334 66.667 33.333 33.333 66.667 33.333h66.666l100-33.333 400-400v433.333m7246.667 4703.334l-233.333 333.333m-166.667-333.333v700H231515l66.666-33.334 33.334-33.333 33.333-66.667v-100l-33.333-66.666-33.334-33.334-66.666-33.333h-266.667m633.333 366.667H232315l-233.334-266.667h100l66.667-33.333 33.333-33.334 33.334-66.666v-166.667l-33.334-66.667-33.333-33.333-66.667-33.333h-200l-66.666 33.333-33.334 33.333m3336.667 2983.334v700H235485l66.666-33.334 33.334-33.333 33.333-66.667v-100l-33.333-66.666-33.334-33.334-66.666-33.333h-266.667m666.667 300l33.333 33.333 66.667 33.334h166.666l66.667-33.334 33.333-33.333 33.334-66.667v-66.666l-33.334-100-400-400H236285m-18366.667-10v700H218185l66.666-33.334 33.334-33.333 33.333-66.667v-100l-33.333-66.666-33.334-33.334-66.666-33.333h-266.667m1066.667-333.333h-400m200 0v700l-66.667-100-66.667-66.667-66.666-33.333M230368.333-112695l-33.333-33.333-100-33.333h-66.667l-100 33.333-66.667 66.667-33.333 66.666-33.333 133.334v100l33.333 133.333 33.333 66.667 66.667 66.666 100 33.334h66.667l100-33.334 33.333-33.333m266.667 0l33.333 33.333 66.667 33.334h166.666l66.667-33.334 33.333-33.333 33.334-66.667v-66.666l-33.334-100-400-400H231035M221928.333-105785l-33.333-33.333-100-33.333h-66.667l-100 33.333-66.667 66.667-33.333 66.666-33.333 133.334v100l33.333 133.333 33.333 66.667 66.667 66.666 100 33.334h66.667l100-33.334 33.333-33.333m600-166.667v-466.666m-166.667 733.333l-166.666-500h433.333m-520 4103.333l-33.333-33.333-100-33.333h-66.667l-100 33.333-66.667 66.667-33.333 66.666-33.333 133.334v100l33.333 133.333 33.333 66.667 66.667 66.666 100 33.334h66.667l100-33.334 33.333-33.333m666.667-633.333h-400m200 0v700l-66.667-100-66.667-66.667-66.666-33.333m2993.333-3486.667l-66.667 33.333-66.666 66.667-100 100-66.667 33.333h-66.667m33.334-166.666l-66.667 33.333-66.667 66.667-33.333 133.333v233.333l33.333 133.334 66.667 66.666 66.667 33.334h133.333l66.667-33.334 66.666-66.666L225335-104035v-233.333l-33.334-133.333-66.666-66.667-66.667-33.333H225035m966.666 0h-400m200 0v700l-66.666-100-66.667-66.667-66.667-33.333m3046.667 250v700H228815l100-33.334 66.666-66.666 33.334-66.667 33.333-133.333v-100L229015-103585l-33.334-66.666-66.666-66.667-100-33.333h-166.667m1066.667 0h-400m200 0v700l-66.667-100-66.667-66.667-66.666-33.333m-5443.334 1620v700m400-700l-300 400m300 300l-400-400m10036.667-90h333.333m-400-200l233.334 700 233.333-700"/></g></g><g id="pcb-stackup_top_drl2"><use x="220735" y="-112255" xlink:href="#HyDNAe63yW_pad-1"/><use x="223790" y="-107295" xlink:href="#HyDNAe63yW_pad-1"/><use x="224225" y="-104925" xlink:href="#HyDNAe63yW_pad-1"/><use x="226796" y="-108879" xlink:href="#HyDNAe63yW_pad-1"/><use x="227055" y="-105325" xlink:href="#HyDNAe63yW_pad-1"/><use x="227055" y="-107425" xlink:href="#HyDNAe63yW_pad-1"/><use x="228106" y="-107328" xlink:href="#HyDNAe63yW_pad-1"/><use x="228228" y="-109356" xlink:href="#HyDNAe63yW_pad-1"/><use x="228295" y="-105355" xlink:href="#HyDNAe63yW_pad-1"/><use x="228465" y="-104005" xlink:href="#HyDNAe63yW_pad-1"/><use x="229529" y="-108779" xlink:href="#HyDNAe63yW_pad-1"/><use x="232705" y="-112425" xlink:href="#HyDNAe63yW_pad-1"/><use x="232724" y="-107326" xlink:href="#HyDNAe63yW_pad-1"/><use x="218440" y="-102870" xlink:href="#HyDNAe63yW_pad-2"/><use x="218440" y="-105410" xlink:href="#HyDNAe63yW_pad-2"/><use x="218440" y="-107950" xlink:href="#HyDNAe63yW_pad-2"/><use x="218440" y="-110490" xlink:href="#HyDNAe63yW_pad-2"/><use x="236220" y="-102870" xlink:href="#HyDNAe63yW_pad-2"/><use x="236220" y="-105410" xlink:href="#HyDNAe63yW_pad-2"/><use x="236220" y="-107950" xlink:href="#HyDNAe63yW_pad-2"/><use x="236220" y="-110490" xlink:href="#HyDNAe63yW_pad-2"/></g><clipPath id="pcb-stackup_top_out"><path fill="none" stroke-width="150" d="M237490-100330h-20320l-1270-1270v-10160l1270-1270h20320l1270 1270v10160l-1270 1270"/></clipPath><mask id="pcb-stackup_top_mech-mask"><g stroke="#000"><path fill="#fff" d="M215900-113030h22860v12700h-22860z"/><use xlink:href="#pcb-stackup_top_drl1"/><use xlink:href="#pcb-stackup_top_drl2"/></g></mask><mask id="pcb-stackup_top_cf-mask"><g fill="#fff" stroke="#fff"><use xlink:href="#pcb-stackup_top_sm"/></g></mask><mask id="pcb-stackup_top_sm-mask"><g stroke="#000"><path fill="#fff" d="M215900-113030h22860v12700h-22860z"/><use xlink:href="#pcb-stackup_top_sm"/></g></mask></defs><g><g mask="url(#pcb-stackup_top_mech-mask)" clip-path="url(#pcb-stackup_top_out)" transform="matrix(1 0 0 -1 0 -213360)"><path fill="currentColor" d="M215900-113030h22860v12700h-22860z" class="pcb-stackup_fr4"/><use fill="currentColor" stroke="currentColor" xlink:href="#pcb-stackup_top_cu" class="pcb-stackup_cu"/><use fill="currentColor" stroke="currentColor" xlink:href="#pcb-stackup_top_cu" class="pcb-stackup_cf" mask="url(#pcb-stackup_top_cf-mask)"/><g mask="url(#pcb-stackup_top_sm-mask)"><path fill="currentColor" d="M215900-113030h22860v12700h-22860z" class="pcb-stackup_sm"/><use fill="currentColor" stroke="currentColor" xlink:href="#pcb-stackup_top_ss" class="pcb-stackup_ss"/></g></g></g></svg>