<svg xmlns="http://www.w3.org/2000/svg" id="pcb-stackup_bottom" fill-rule="evenodd" stroke-width="0" stroke-linecap="round" stroke-linejoin="round" xmlns:xlink="http://www.w3.org/1999/xlink" clip-rule="evenodd" viewBox="394 394 1960 1960"><defs><style>.pcb-stackup_fr4 {color: #4D542C;} .pcb-stackup_cu {color: lightgrey;} .pcb-stackup_cf {color: goldenrod;} .pcb-stackup_sm {color: #004400; opacity: 0.9;} .pcb-stackup_ss {color: white;} .pcb-stackup_sp {color: #000000; opacity: 0;} .pcb-stackup_out {color: black;}</style><circle id="rklRkba31Z_pad-33" r="20"/><path id="rklRkba31Z_pad-16" d="M-33.465-33.465h66.929v66.929h-66.929z"/><circle id="rklRkba31Z_pad-17" r="33.465"/><path id="rklRkba31Z_pad-26" d="M-33.267-33.267h66.535v66.535h-66.535z"/><circle id="rklRkba31Z_pad-28" r="33.267"/><circle id="rklRkba31Z_pad-29" r="93.701"/><circle id="rklRkba31Z_pad-33" r="20"/><path id="rklRkba31Z_pad-16" d="M-33.465-33.465h66.929v66.929h-66.929z"/><circle id="rklRkba31Z_pad-17" r="33.465"/><path id="rklRkba31Z_pad-26" d="M-33.267-33.267h66.535v66.535h-66.535z"/><circle id="rklRkba31Z_pad-28" r="33.267"/><circle id="rklRkba31Z_pad-29" r="93.701"/><path id="BJ-Ck-Tn1b_pad-70" d="M-37.465-37.465h74.929v74.929h-74.929z"/><circle id="BJ-Ck-Tn1b_pad-68" r="37.465"/><circle id="BJ-Ck-Tn1b_pad-35" r="63"/><path id="BJ-Ck-Tn1b_pad-54" d="M-37.267-37.267h74.535v74.535h-74.535z"/><circle id="BJ-Ck-Tn1b_pad-50" r="37.267"/><circle id="BJ-Ck-Tn1b_pad-48" r="97.701"/><circle id="rklRkba31Z_pad-33" r="20"/><path id="rklRkba31Z_pad-16" d="M-33.465-33.465h66.929v66.929h-66.929z"/><circle id="rklRkba31Z_pad-17" r="33.465"/><path id="rklRkba31Z_pad-26" d="M-33.267-33.267h66.535v66.535h-66.535z"/><circle id="rklRkba31Z_pad-28" r="33.267"/><circle id="rklRkba31Z_pad-29" r="93.701"/><circle id="rklRkba31Z_pad-33" r="20"/><path id="rklRkba31Z_pad-16" d="M-33.465-33.465h66.929v66.929h-66.929z"/><circle id="rklRkba31Z_pad-17" r="33.465"/><path id="rklRkba31Z_pad-26" d="M-33.267-33.267h66.535v66.535h-66.535z"/><circle id="rklRkba31Z_pad-28" r="33.267"/><circle id="rklRkba31Z_pad-29" r="93.701"/><path id="BJ-Ck-Tn1b_pad-70" d="M-37.465-37.465h74.929v74.929h-74.929z"/><circle id="BJ-Ck-Tn1b_pad-68" r="37.465"/><circle id="BJ-Ck-Tn1b_pad-35" r="63"/><path id="BJ-Ck-Tn1b_pad-54" d="M-37.267-37.267h74.535v74.535h-74.535z"/><circle id="BJ-Ck-Tn1b_pad-50" r="37.267"/><circle id="BJ-Ck-Tn1b_pad-48" r="97.701"/><circle id="BkM0Jban1W_pad-1" r="9.55"/><circle id="BkM0Jban1W_pad-2" r="21.45"/><circle id="BkM0Jban1W_pad-3" r="21.65"/><circle id="BkM0Jban1W_pad-4" r="63"/><circle id="BkM0Jban1W_pad-5" r="64.15"/><circle id="rklRkba31Z_pad-33" r="20"/><path id="rklRkba31Z_pad-16" d="M-33.465-33.465h66.929v66.929h-66.929z"/><circle id="rklRkba31Z_pad-17" r="33.465"/><path id="rklRkba31Z_pad-26" d="M-33.267-33.267h66.535v66.535h-66.535z"/><circle id="rklRkba31Z_pad-28" r="33.267"/><circle id="rklRkba31Z_pad-29" r="93.701"/><circle id="rklRkba31Z_pad-33" r="20"/><path id="rklRkba31Z_pad-16" d="M-33.465-33.465h66.929v66.929h-66.929z"/><circle id="rklRkba31Z_pad-17" r="33.465"/><path id="rklRkba31Z_pad-26" d="M-33.267-33.267h66.535v66.535h-66.535z"/><circle id="rklRkba31Z_pad-28" r="33.267"/><circle id="rklRkba31Z_pad-29" r="93.701"/><path id="BJ-Ck-Tn1b_pad-70" d="M-37.465-37.465h74.929v74.929h-74.929z"/><circle id="BJ-Ck-Tn1b_pad-68" r="37.465"/><circle id="BJ-Ck-Tn1b_pad-35" r="63"/><path id="BJ-Ck-Tn1b_pad-54" d="M-37.267-37.267h74.535v74.535h-74.535z"/><circle id="BJ-Ck-Tn1b_pad-50" r="37.267"/><circle id="BJ-Ck-Tn1b_pad-48" r="97.701"/><circle id="rklRkba31Z_pad-33" r="20"/><path id="rklRkba31Z_pad-16" d="M-33.465-33.465h66.929v66.929h-66.929z"/><circle id="rklRkba31Z_pad-17" r="33.465"/><path id="rklRkba31Z_pad-26" d="M-33.267-33.267h66.535v66.535h-66.535z"/><circle id="rklRkba31Z_pad-28" r="33.267"/><circle id="rklRkba31Z_pad-29" r="93.701"/><circle id="rklRkba31Z_pad-33" r="20"/><path id="rklRkba31Z_pad-16" d="M-33.465-33.465h66.929v66.929h-66.929z"/><circle id="rklRkba31Z_pad-17" r="33.465"/><path id="rklRkba31Z_pad-26" d="M-33.267-33.267h66.535v66.535h-66.535z"/><circle id="rklRkba31Z_pad-28" r="33.267"/><circle id="rklRkba31Z_pad-29" r="93.701"/><path id="BJ-Ck-Tn1b_pad-70" d="M-37.465-37.465h74.929v74.929h-74.929z"/><circle id="BJ-Ck-Tn1b_pad-68" r="37.465"/><circle id="BJ-Ck-Tn1b_pad-35" r="63"/><path id="BJ-Ck-Tn1b_pad-54" d="M-37.267-37.267h74.535v74.535h-74.535z"/><circle id="BJ-Ck-Tn1b_pad-50" r="37.267"/><circle id="BJ-Ck-Tn1b_pad-48" r="97.701"/><circle id="BkM0Jban1W_pad-1" r="9.55"/><circle id="BkM0Jban1W_pad-2" r="21.45"/><circle id="BkM0Jban1W_pad-3" r="21.65"/><circle id="BkM0Jban1W_pad-4" r="63"/><circle id="BkM0Jban1W_pad-5" r="64.15"/><g id="pcb-stackup_bottom_cu"><path fill="none" stroke-width="10" d="M1531.619 1981.656l51.535-51.534h253.496l27.985-27.986h104.18v328.347m0-983.858V967.232m0 934.904h55.905M775.641 2230.483v-272.441l-55.906-55.906m1304.985-327.165l-63.543 63.543v128.309l-20 20h-56.539l-20 20v75.313l20 20m84.177-934.904l-156.445 156.445h-318.185l-76.657 76.658M1893.98 647.78h-525.055m599.89 319.452V722.614l-74.835-74.834M719.735 1902.136h160.08l20-20v-75.313l-20-20h-84.173l-20.001-20.001v-520.197m855.978 635.031h-100M806.533 819.045L666.937 958.64v563.533l52.798 52.798m581.674-324.951v161.408l-157.32 157.32v269.154m963.659-1046.536v543.961l-20 20h-360.091l-133.311-133.311m-450.257 615.886l48.466 48.465v100l51.534 51.535M1106.533 819.045h659.232l19.999 20v189.624m-140.236-35h-564.371L906.533 819.045m844.231 48.467H1055l-48.467-48.467m906.376 25.172l-131.752-131.752h-230.468m-104.752 35h291.634m-493.482 1090.437l92.32-92.321v-564.778l-20-20h-279.685m207.365 777.099l68.466 68.465v59.999l-20 20H961.248l-129.702-129.702M601.465 735.579v1092.027l20.002 20.003h210.079m240.178-736.806h-70.358l-20 20v457.931l-149.82 149.82m239.82-453.219h180.043m-531.674 398.691l-63.27.002m901.704-650.359H924.343l-20 20v503.033l-72.797 72.797m664.391-847.034h-115.295l-11.886-11.886H875l-20 20v311.378l29.343 29.342v336.348l-52.797 52.797m692.797-298.428l204.742 204.743h323.903l20 20v380.847l-20.002 20.003h-140.077m-404.74-773.57h-105.641l-20 20v624.513l20.002 20.002h510.379m-438.566-488.219l379.164 379.164h59.402"/><use x="1368.925" y="647.78" xlink:href="#rklRkba31Z_pad-33"/><use x="1417.528" y="1200.335" xlink:href="#rklRkba31Z_pad-33"/><use x="1893.98" y="647.78" xlink:href="#rklRkba31Z_pad-33"/><use x="1968.815" y="967.232" xlink:href="#rklRkba31Z_pad-33"/><use x="1301.409" y="1250.02" xlink:href="#rklRkba31Z_pad-33"/><use x="1594.346" y="1222.016" xlink:href="#rklRkba31Z_pad-33"/><use x="2107.748" y="791.366" xlink:href="#rklRkba31Z_pad-33"/><use x="1785.764" y="1028.669" xlink:href="#rklRkba31Z_pad-33"/><use x="1645.528" y="993.669" xlink:href="#rklRkba31Z_pad-33"/><use x="1750.764" y="867.512" xlink:href="#rklRkba31Z_pad-33"/><use x="1550.689" y="712.465" xlink:href="#rklRkba31Z_pad-33"/><use x="1912.909" y="844.217" xlink:href="#rklRkba31Z_pad-33"/><use x="1737.571" y="747.465" xlink:href="#rklRkba31Z_pad-33"/><use x="1445.937" y="747.465" xlink:href="#rklRkba31Z_pad-33"/><use x="1036.724" y="1160.803" xlink:href="#rklRkba31Z_pad-33"/><use x="601.465" y="735.579" xlink:href="#rklRkba31Z_pad-33"/><use x="1071.724" y="1110.803" xlink:href="#rklRkba31Z_pad-33"/><use x="1251.409" y="1285.335" xlink:href="#rklRkba31Z_pad-33"/><use x="1071.366" y="1285.335" xlink:href="#rklRkba31Z_pad-33"/><use x="656.465" y="1684.028" xlink:href="#rklRkba31Z_pad-33"/><use x="1558.169" y="1033.669" xlink:href="#rklRkba31Z_pad-33"/><use x="1495.937" y="782.465" xlink:href="#rklRkba31Z_pad-33"/><use x="1524.343" y="1222.016" xlink:href="#rklRkba31Z_pad-33"/><use x="1508.169" y="1074.039" xlink:href="#rklRkba31Z_pad-33"/><use x="1474.343" y="1250.335" xlink:href="#rklRkba31Z_pad-33"/><path fill="none" stroke-width="25" d="M435 2290.631h234.087m213.106 0h375.566m210.224 0h394.268m213.155 0h237.577M435 2265.762h223.247m234.786 0h356.766m226.095 0h375.517m234.834 0h226.738M435 2240.894h218.413m244.453 0h349.883m230.196 0h368.632m244.502 0h221.904M435 2216.025h218.803m243.672 0h353.839m223.065 0h372.588m243.672 0h222.344M435 2191.156h224.566m232.148 0h369.268m203.729 0h388.019m232.148 0h228.105M435 2166.287h236.529m208.222 0h399.248m167.695 0h417.999m208.222 0h240.068M435 2141.419h257.427m166.426 0h455.4m97.188 0h474.15m166.426 0h260.966M435 2116.55h299.81m81.66 0h133.281m354.316 0h623.955m81.612 0h303.349M435 2091.681h306.646m67.988 0h109.892m414.765 0h600.519m67.988 0h310.185M435 2066.812h306.646m67.988 0h84.991m451.922 0h588.263m67.988 0h310.185M435 2041.944h306.646m67.988 0h60.136m94.112 0h117.9m264.765 0h588.263m67.988 0h310.185M435 2017.075h306.646m67.988 0h35.283m94.112 0h146.317m261.201 0h134.21m201.729 0h252.324m67.988 0h310.185M435 1992.206h306.646m172.48 0h188.652m240.4 0h126.935m223.017 0h157.5m152.168 0h310.185M435 1967.337h302.886m155.928 0h195.536m231.221 0h150.323m221.455 0h158.281m152.168 0h310.185M435 1942.469h238.139m220.675 0h187.968m224.58 0h177.373m587.568 0h241.68M435 1917.6h224.517m251.874 0h173.76m217.842 0h166.142m615.84 0h228.008M435 1892.731h223.198m273.799 0h170.146m204.415 0h162.577m223.898 0h133.964m259.248 0h226.738M435 1867.862h159.673m339.13 0h155.84m216.915 0h162.577m223.36 0h138.164m249.14 0h233.184M435 1842.993h136.479m362.324 0h148.028m224.727 0h162.577m210.811 0h150.713m272.334 0h209.99M435 1818.125h132.475m366.328 0h151.154m225.946 0h519.756m276.338 0h205.986M435 1793.256h132.475m67.988 0h22.003m273.261 0h170.831m234.248 0h497.88m273.311 0h205.986M435 1768.387h132.475m67.988 0h27.326m245.624 0h201.689m67.989 0h88.456m94.112 0h29.278m717.06 0h205.986M435 1743.518h132.475m67.988 0h48.37m209.785 0h216.484m67.989 0h113.311m815.595 0h205.986M435 1718.65h132.475m331.026 0h211.601m67.989 0h124.296m804.61 0h205.986M435 1693.781h132.475m355.879 0h186.748m67.989 0h124.296m114.131 0h454.277m236.202 0h205.986M435 1668.912h132.475m380.782 0h161.845m67.989 0h124.296m114.131 0h448.956m241.523 0h205.986M435 1644.043h132.475m405.635 0h136.992m67.989 0h124.296m114.131 0h404.473m286.006 0h205.986M435 1619.175h132.475m67.988 0h41.534m215.937 0H903.9m94.063 0h112.139m67.989 0h124.296m114.131 0h379.62m310.859 0h205.986M435 1594.306h132.475m67.988 0h25.226m253.096 0h14.93m86.143 0h95.244m67.989 0h124.296m114.131 0h354.767m335.712 0h205.986M435 1569.437h132.475m67.988 0h22.247m277.949 0h11.687m68 0h94.756m80.343 0h111.942m114.131 0h329.864m94.111 0h35.674m73.458 0h13.094m144.278 0h205.986M435 1544.568h132.475m370.87 0h9m68.001 0h105.889m94.063 0h87.089m114.131 0h305.011m94.11 0h40.07m251.288 0h205.986M435 1519.699h132.475m370.87 0h9m68.001 0h130.743m94.112 0h62.186m114.131 0h280.157m94.063 0h59.892m124.531 0h24.297m107.539 0h205.986M435 1494.831h132.475m133.467 0h40.704m196.699 0h9m68.001 0h155.596m94.112 0h37.333m114.131 0h255.255m94.11 0h90.508m113.008 0h69.61m67.988 0h205.986M435 1469.962h132.475m133.467 0h40.704m196.699 0h9m68.001 0h180.499m94.062 0h12.463m114.148 0h230.401m94.111 0h137.383m69.014 0h91.582m67.988 0h205.986M435 1445.093h132.475m133.467 0h40.704m67.988 0h40.703m88.008 0h9m68.001 0h205.352m195.82 0h205.548m484.883 0h206.034M435 1420.224h132.475m133.467 0h40.704m67.988 0h40.703m88.008 0h9m68.001 0h230.205m170.967 0h180.645m496.358 0h219.462M435 1395.356h132.475m133.467 0h40.704m67.988 0h40.703m88.008 0h9m68.001 0h252.081m149.091 0h155.792m485.664 0h255.009M435 1370.487h132.475m133.467 0h40.704m67.988 0h40.703m88.008 0h9m68.001 0h252.081m149.091 0h130.939m572.186 0h193.34M435 1345.618h132.475m370.87 0h9m68.001 0h252.081m149.091 0h106.084m617.403 0h172.978M435 1320.749h132.475m370.87 0h9m68.001 0h23.369m65.303 0h114.776m197.724 0h81.183m242.45 0h131.524m270.087 0h171.221M435 1295.881h132.475m370.87 0h9m68.001 0h8.243m392.929 0h45.928m252.803 0h141.436m285.077 0h171.221M435 1271.012h132.475m370.87 0h9m68.001 0h9.318m391.854 0h13.653m260.224 0h158.232m293.135 0h171.221M435 1246.143h132.475m370.87 0h9m68.001 0h28.497m55.048 0h124.982m441.669 0h180.596m295.624 0h171.221M435 1221.274h132.475m370.87 0h9m68.001 0h247.003m380.976 0h205.498m292.939 0h171.221M435 1196.406h132.475m370.87 0h9m121.81 0h233.232m166.134 0h14.53m152.608 0h221.466m284.637 0h171.221M435 1171.537h132.475m370.87 0h9m546.029 0h379.083m192.744 0h8.573m67.988 0h171.221M435 1146.668h132.475m370.87 0h9m469.173 0h7.599m412.274 0h63.164m138.496 0h35.675m68.036 0h171.221M435 1121.799h132.475m133.467 0h127.08m110.323 0h10.353m170.701 0h229.131m67.988 0h32.5m412.276 0h73.516m67.988 0h70.928m68.036 0h171.221M435 1096.93h132.475m133.467 0h120.049m117.354 0h29.864m150.409 0h229.912m537.617 0h48.663m67.988 0h70.928m68.036 0h171.221M435 1072.062h132.475m133.467 0h120.049m117.354 0h105.156m56.416 0h257.549m229.413 0h179.668m38.448 0h11.924m94.131 0h23.76m67.988 0h70.928m68.036 0h171.221M435 1047.193h132.475m133.467 0h120.049m784.151 0h135.479m90.302 0h10.897m160.978 0h70.928m68.036 0h171.221M435 1022.324h132.475m133.467 0h120.049m863.643 0h52.568m97.139 0h32.353m136.104 0h70.928m68.036 0h171.221M435 997.455h132.475m133.467 0h120.049m67.988 0h148.907m656.464 0h54.424m73.945 0h68.828m115.108 0h67.071m68.036 0h171.221M435 972.587h132.475m133.467 0h120.049m67.988 0h124.054m676.434 0h62.286m67.988 0h96.661m101.093 0h56.231m68.036 0h171.221M435 947.718h132.475m157.442 0h96.074m67.988 0h99.199m94.063 0h553.642m19.301 0h96.569m67.988 0h104.376m89.424 0h60.185m68.036 0h171.221M435 922.849h132.475m67.988 0h20.196m94.111 0h71.221m67.988 0h74.298m94.11 0h694.366m67.988 0h115.069m67.988 0h70.928m68.036 0h171.221M435 897.98h132.475m67.988 0h45.099m94.063 0h46.366m67.988 0h49.444m94.111 0h11.992m775.215 0h115.069m67.988 0h70.928m68.036 0h171.221M435 873.112h132.475m67.988 0h8.563m1175.715 0h54.229m128.828 0h70.928m68.036 0h171.221M435 848.243h132.475m67.988 0h8.563m1175.715 0h44.365m138.692 0h70.928m68.036 0h171.221M435 823.374h132.475m67.988 0h8.563m1171.565 0h29.423m157.784 0h68.731m72.43 0h169.024M435 798.505h132.475m67.988 0h8.563m1148.225 0h27.91m103.78 0h10.874m67.983 0h56.524m96.893 0h156.768M435 773.636h132.475m67.988 0h8.563m1134.504 0h16.729m94.111 0h45.44m67.988 0h59.453m90.987 0h159.745M435 748.768h119.39m94.16 0h201.201m1014.766 0h70.293m67.988 0h83.819m42.256 0h184.11M435 723.899h118.95m95.04 0h754.375m436.298 0h83.379m79.756 0h310.185M435 699.03h135.21m62.52 0h870.927m311.104 0h83.428m94.11 0h320.684M435 674.161h893.121m639.277 0h345.585M435 649.293h884.966m622.968 0h370.049M435 624.424h891.215m610.47 0h376.298M566.226 599.555h1611.992m-1585.82-24.869h1559.648M606.753 549.818h1530.986M613.882 524.949h1516.68M615.201 500.08h1514.042m-1518.29-24.869h1522.538M600.406 450.343h1543.681m-659.932 1491.278h2.783l-6.447 8.703-4.272 8.385-2.907 8.948-1.472 9.294v9.41l1.472 9.294 2.907 8.949 4.272 8.384 5.531 7.612 6.654 6.653 7.611 5.532 8.385 4.271 8.949 2.907 9.294 1.473h9.409l9.294-1.473 8.949-2.907 8.384-4.271 7.612-5.532 6.654-6.653 4.376-5.885 4.429 5.885 6.654 6.653 7.611 5.532 8.385 4.271 8.949 2.907 9.294 1.473h9.409l9.294-1.473 8.949-2.907 8.384-4.271 7.612-5.532 6.654-6.653 5.531-7.612 4.272-8.384 2.907-8.949 1.472-9.294v-9.41l-1.472-9.294-1.831-6.032 151.026-.1 7.263-1.445 6.732-3.105.025 59.457h84.13l.043 98.059-14.499 4.941-8.572 3.951-8.234 4.612-7.847 5.244-7.412 5.842-6.931 6.407-6.407 6.931-5.843 7.412-5.243 7.847-4.612 8.235-3.951 8.571-3.267 8.855-2.563 9.084-1.841 9.257-1.109 9.372-.37 9.431.37 9.43 1.109 9.373 1.841 9.257 2.563 9.084 3.267 8.855 3.951 8.57 4.612 8.235 5.243 7.848 5.843 7.412 6.433 6.956-433.825-.003 8.865-12.457 4.321-7.715 3.702-8.031 3.061-8.298 2.401-8.512 1.725-8.673 1.039-8.783.348-8.837-.348-8.837-1.039-8.782-1.725-8.673-2.401-8.512-3.061-8.298-3.702-8.032-4.321-7.715-4.914-7.354-5.475-6.945-6.004-6.494-6.493-6.003-6.945-5.476-7.354-4.913-7.715-4.321-8.032-3.703-8.298-3.06-8.512-2.401-8.673-1.725-8.782-1.039-8.837-.348-8.838.348-8.782 1.039-8.673 1.725-8.512 2.401-8.298 3.06-8.031 3.703-7.715 4.321-7.355 4.913-6.945 5.476-6.493 6.003-6.004 6.494-5.475 6.945-4.913 7.354-4.322 7.715-3.702 8.032-3.06 8.298-2.402 8.512-1.724 8.673-1.04 8.782-.348 8.837.348 8.837 1.04 8.783 1.724 8.673 2.402 8.512 3.06 8.298 3.702 8.031 4.322 7.715 8.955 12.482-415.138-.047 6.407-6.931 5.844-7.412 5.243-7.848 4.611-8.235 3.952-8.57 3.266-8.855 2.563-9.084 1.841-9.257 1.109-9.373.37-9.43-.37-9.431-1.109-9.372-1.841-9.257-2.563-9.084-3.266-8.855-3.952-8.571-4.611-8.235-5.243-7.847-5.844-7.412-6.407-6.931-6.93-6.407-7.412-5.842-7.848-5.244-8.234-4.612-8.572-3.951-14.496-4.859-.003-98.103 39.59-.038 94.06 93.887 6.158 4.114 6.947 2.563 7.353.87 333.778-.097 7.263-1.445 6.724-3.1 5.816-4.584 21.679-21.816 4.114-6.157 2.563-6.948.87-7.353-.097-62.47-1.445-7.262-3.1-6.726-4.584-5.815-32.351-32.352 1.391-9.135v-9.409l-1.473-9.294-2.906-8.949-4.272-8.384-5.532-7.612-1.01-1.094 15.378.002v-75.341l56.308-56.486 4.114-6.156 2.563-6.947.483-2.436 1.571-.835 12.979 12.842 6.158 4.114 6.946 2.563 7.354.87h454.345l-16.19 16.311-4.114 6.157-2.563 6.948-.87 7.362.097 77.777.29 4.09-9.91 9.909-134.475.014 1.705-7.585.739-9.381-.739-9.38-2.195-9.15-3.601-8.693-4.918-8.024-6.11-7.154-7.155-6.111-8.023-4.917-8.693-3.601-9.15-2.196-9.381-.738-9.38.738-9.15 2.196-8.693 3.601-8.023 4.917-4.792 3.926.003-15.378h-119.929v119.929h12.5M659.068 879.009h42.92l-59.004 59.173-4.114 6.158-2.563 6.947-.87 7.353.097 566.004 1.445 7.263 3.1 6.724 4.584 5.815 16.884 16.885-1.395 8.951v9.378l1.467 9.264 2.898 8.92 4.257 8.355 5.513 7.588 6.632 6.632 7.588 5.513 6.808 3.543-6.808 3.591-7.588 5.513-3.931 3.71-6.153-2.485-7.096-1.703-7.274-.573-7.275.573-7.094 1.703-6.742 2.792-2.401 1.345.012-874.196 3.859-3.967 4.289-5.903 3.312-6.501 2.255-6.94 1.142-7.207v-7.297l-1.142-7.206-2.255-6.939-3.312-6.502-4.289-5.904-5.16-5.159-5.903-4.288-6.501-3.314-6.94-2.254-7.207-1.142h-7.297l-7.206 1.142-6.939 2.254-6.502 3.314-5.904 4.288-5.159 5.159-4.288 5.904-3.313 6.502-2.256 6.939-1.14 7.206v7.297l1.14 7.207 2.256 6.94 3.313 6.501 4.288 5.903 3.851 3.95.105 1060.351 1.445 7.262 3.099 6.725 4.586 5.815 21.817 21.681 6.158 4.114 6.946 2.563 7.354.87 43.05.155-2.898 8.92-1.467 9.264v9.377l1.467 9.264 2.898 8.92 4.257 8.356 5.513 7.588 6.632 6.631 7.588 5.513 8.357 4.257 8.918 2.899 9.264 1.467h9.379l8.957-1.406 10.724 10.742.034 143.382-14.498 4.994-8.571 3.951-8.235 4.612-7.848 5.244-7.412 5.842-6.93 6.407-6.407 6.931-5.843 7.412-5.244 7.847-4.611 8.235-3.952 8.571-3.266 8.855-2.562 9.084-1.841 9.257-1.109 9.372-.371 9.431.371 9.43 1.109 9.373 1.841 9.257 2.562 9.084 3.266 8.855 3.952 8.57 4.611 8.235 5.244 7.848 5.843 7.412 6.261 6.953h-258V596.505l8.912 6.041 7.715 4.321 8.032 3.703 8.298 3.06 8.512 2.401 8.673 1.725 8.782 1.039 8.837.348 8.837-.348 8.783-1.039 8.673-1.725 8.512-2.401 8.298-3.06 8.031-3.703 7.715-4.321 7.355-4.913 6.944-5.476 6.494-6.003 6.004-6.494 5.475-6.945 4.913-7.354 4.322-7.715 3.702-8.032 3.06-8.298 2.402-8.512 1.724-8.673 1.04-8.782.347-8.837-.347-8.837-1.04-8.783-1.724-8.673-2.402-8.512-3.06-8.298-3.702-8.031-4.322-7.715-4.913-7.355-6.297-7.832 1574.222.024-6.234 7.808-4.913 7.355-4.321 7.715-3.703 8.031-3.06 8.298-2.401 8.512-1.725 8.673-1.039 8.783-.348 8.837.348 8.837 1.039 8.782 1.725 8.673 2.401 8.512 3.06 8.298 3.703 8.032 4.321 7.715 4.913 7.354 5.476 6.945 6.003 6.494 6.494 6.003 6.945 5.476 7.354 4.913 7.715 4.321 8.032 3.703 8.298 3.06 8.512 2.401 8.673 1.725 8.782 1.039 8.837.348 8.837-.348 8.783-1.039 8.673-1.725 8.512-2.401 8.298-3.06 8.031-3.703 7.715-4.321 12.482-8.955-.025 1721.868-261.69.019 6.407-6.931 5.842-7.412 5.244-7.848 4.612-8.235 3.951-8.57 3.267-8.855 2.561-9.084 1.841-9.257 1.109-9.373.372-9.43-.372-9.431-1.109-9.372-1.841-9.257-2.561-9.084-3.267-8.855-3.951-8.571-4.612-8.235-5.244-7.847-5.842-7.412-6.407-6.931-6.931-6.407-7.412-5.842-7.848-5.244-8.234-4.612-8.571-3.951-14.498-4.859-.001-157.87 10.453 3.55 9.262 1.467h9.379l9.264-1.467 8.919-2.899 8.357-4.257 7.588-5.513 6.631-6.631 5.513-7.588 4.257-8.356 2.898-8.92 1.467-9.264v-9.377l-1.467-9.264-2.898-8.92-4.838-9.225 21.841-21.975 4.114-6.157 2.563-6.948.87-7.353-.097-383.32-1.445-7.262-3.1-6.725-4.584-5.815-21.816-21.678-6.157-4.114-6.948-2.563-7.353-.87H1742.1l-1.943-8.432 350.062-.097 7.263-1.445 6.725-3.1 5.815-4.584 21.679-21.816 4.114-6.158 2.563-6.946.87-7.354V825.61l6.119-6.912 3.813-6.222 2.792-6.741 1.704-7.095.572-7.274-.572-7.274-1.704-7.096-2.792-6.74-3.813-6.222-4.738-5.548-5.549-4.739-6.222-3.813-6.741-2.792-7.095-1.704-7.274-.572-7.274.572-7.095 1.704-6.741 2.792-6.222 3.813-5.549 4.739-4.738 5.548-3.813 6.222-2.792 6.74-1.704 7.096-.572 7.274.572 7.274 1.704 7.095 2.792 6.741 3.813 6.222 4.738 5.549 1.373 1.267.008 367.17-4.945-8.864-5.244-7.848-5.842-7.412-6.407-6.93-6.931-6.407-7.412-5.842-7.848-5.245-8.234-4.611-8.571-3.952-14.498-4.858-.001-129.256 6.119-6.895 3.813-6.221 2.792-6.742 1.704-7.094.572-7.275-.572-7.274-1.704-7.096-2.792-6.74-3.813-6.222-4.738-5.548-1.373-1.269-.105-212.94-1.445-7.262-3.1-6.725-4.584-5.815-50.651-50.651-.53-9.185-1.703-7.094-2.793-6.742-3.812-6.221-4.739-5.549-5.549-4.739-6.221-3.812-6.742-2.792-7.094-1.703-7.275-.573-7.274.573-7.096 1.703-6.74 2.792-6.222 3.812-5.548 4.739-1.269 1.373-456.721.008-6.853-6.12-6.222-3.812-6.741-2.792-7.095-1.703-7.274-.573-7.274.573-7.096 1.703-6.74 2.792-6.222 3.812-5.548 4.739-4.739 5.549-3.813 6.221-2.792 6.742-1.704 7.094-.572 7.275.572 7.274 1.704 7.096 2.792 6.741 3.813 6.221 4.739 5.548 5.548 4.739 6.222 3.812 6.74 2.793 7.096 1.703 7.274.573 7.274-.573 7.095-1.703 6.741-2.793 6.222-3.812 5.549-4.739 1.267-1.371 115.021-.009-5.024 5.853-3.813 6.221-2.792 6.742-1.704 7.094-.572 7.275.138 3.492-24.227.008-3.964-3.859-5.902-4.288-6.502-3.313-6.939-2.256-7.208-1.14h-7.296l-7.208 1.14-6.939 2.256-6.502 3.313-5.902 4.288-5.159 5.159-4.29 5.904-3.313 6.502-2.254 6.939-1.142 7.206-.005 7.141-5.933.008-6.37-5.871-6.461-3.618-7.127-2.009-4.937-.388-496.218.097-7.263 1.445-6.725 3.099-5.815 4.586-17.886 17.886-9.777-4.178-9.15-2.195-9.38-.739-9.381.739-9.149 2.195-8.693 3.601-8.024 4.918-4.791 3.925.002-15.378H646.568v119.929h12.5m133.664-1.617l9.096 1.432h9.41l9.293-1.472 2.956-.834.11 227.91 1.445 7.262 3.1 6.725 4.584 5.815 20.13 20.13-6.563 5.021-7.848-5.245-8.234-4.611-8.572-3.952-8.854-3.266-9.084-2.562-9.256-1.841-9.373-1.11-9.432-.37-9.43.37-9.373 1.11-9.257 1.841-9.084 2.562-8.854 3.266-8.571 3.952-8.235 4.611-7.848 5.245-6.572 5.181.021-182.828 94.319-94.365m93.745-1.848l6.033 1.831 9.294 1.472h9.41l9.095-1.432 124.785 124.786-123.247.088-7.262 1.444-6.724 3.101-5.815 4.584-15.57 15.56V875.539m372.974 902.398h-75.349v15.283l-8.536-6.334v-205.088l129.33-129.332-.01 280.046-45.43 45.451m-146.89 8.923l-7.443 5.418-6.654 6.654-5.531 7.612-4.272 8.384-2.907 8.949-1.472 9.294v9.409l1.472 9.294 2.907 8.949 4.272 8.385 5.531 7.611 6.654 6.654 5.884 4.376-5.884 4.429-6.654 6.654-5.531 7.612-4.272 8.384-2.907 8.949-1.472 9.294v9.409l1.472 9.294 2.907 8.949 4.272 8.385 5.531 7.611 6.654 6.654 5.884 4.376-5.884 4.429-6.654 6.654-5.531 7.612-4.272 8.384-2.907 8.949-1.472 9.294v9.409l1.472 9.294.833 2.956-112.272.01-83.041-82.995.012-40.448 4.96-2.428 5.815-4.584 21.679-21.817 4.114-6.156 2.563-6.947.87-7.355-.097-77.784-1.445-7.263-3.1-6.724-4.584-5.816-21.816-21.679-6.158-4.114-4.576-1.894.124-4.355 1.467-9.264v-9.378l-1.407-8.958 115.596-115.715 4.114-6.157 2.563-6.947.87-7.354v-388.037l6.063 3.067 6.94 2.254 7.207 1.142h7.297l7.206-1.142 6.939-2.254 6.502-3.314 5.904-4.289 3.949-3.85 232.501-.008-1.965 11.217-7.274.572-7.096 1.703-6.741 2.793-6.221 3.812-5.548 4.739-4.739 5.549-3.812 6.221-2.793 6.742-.972 3.445-8.452-.118-7.207 1.141-6.94 2.255-6.501 3.314-5.903 4.288-3.95 3.851-111.701.008-6.861-6.12-6.222-3.812-6.741-2.793-7.095-1.702-7.274-.573-7.274.573-7.096 1.702-6.74 2.793-6.222 3.812-5.548 4.739-4.739 5.549-3.813 6.221-2.792 6.742-1.704 7.094-.572 7.275.572 7.274 1.704 7.096 2.792 6.741 3.813 6.221 4.739 5.548 5.548 4.739 6.222 3.812 6.74 2.793 7.096 1.703 7.274.573 7.274-.573 7.095-1.703 6.741-2.793 6.222-3.812 5.549-4.739 1.267-1.371 111.701-.009 6.862 6.119 6.221 3.812 6.741 2.793 7.096 1.703 7.274.573 7.275-.573 7.094-1.703 4.138-1.592-.007 70.441-149.773 149.882-4.114 6.158-2.563 6.946-.87 7.363v218.107M891.13 1624.81l-1.407-8.958 38.572-38.692 4.114-6.157 2.563-6.948.871-7.353v-489.991l13.5-1.542h113.427l-8.841 2.674-6.501 3.312-5.903 4.289-3.95 3.85-38.68.106-7.262 1.445-6.726 3.1-5.815 4.584-21.679 21.816-4.114 6.158-2.563 6.946-.87 7.354v444.873l-58.736 58.512v-9.378m-45.937-162.544l-8.957-1.406h-9.379l-9.264 1.467-8.918 2.899-1.549.714.014-103.268 14.499-4.996 8.572-3.952 8.234-4.611 7.848-5.244 6.572-5.181-.022 115.903m-157.528 283.986l-6.808 3.544-7.588 5.513-6.632 6.631-5.513 7.588-4.257 8.356-2.898 8.92-1.467 9.263v9.378l1.467 9.264 2.968 9.07-30.062.005-1.56-13.501v-78.468l5.706 2.848 6.939 2.255 7.206 1.142h7.297l7.207-1.142 6.94-2.255 2.681-1.236 7.664 6.627 7.996 4.901 2.714 1.25m3.101-399.842l6.572 5.181 7.848 5.244 8.235 4.611 8.571 3.952 14.497 4.858.017 157.933-5.951-2.338-9.12-2.189-9.35-.737-9.349.737-4.298.854-7.651-7.659v-170.409m1190.051 345.324l-6.807 3.543-7.588 5.513-6.631 6.632-5.34 7.328-446.528-.012-1.566-13.502v-446.826l7.148-.034 6.913-1.083-.102 8.374 1.14 7.207 2.256 6.94 3.313 6.501 4.288 5.903 5.159 5.16 5.904 4.289 6.502 3.312 6.939 2.255 7.206 1.142 5.516.069 356.839 356.69 6.157 4.115 6.948 2.563 7.353.87h8.643l5.312 7.316 6.631 6.631 7.588 5.513 6.807 3.544m72.558-89.909l-5.875-6.858-7.132-6.09-7.996-4.901-2.714-1.25 6.809-3.591 7.588-5.513 6.631-6.631 5.513-7.588 4.257-8.356 2.898-8.92 1.467-9.263v-9.378l-1.467-9.264-2.898-8.92-4.257-8.356-5.513-7.588-6.631-6.631-7.588-5.513-8.357-4.257-8.919-2.899-9.264-1.467h-9.379l-9.262 1.467-8.92 2.899-8.356 4.257-7.588 5.513-6.631 6.631-5.513 7.588-4.259 8.356-2.897 8.92-1.468 9.264v9.378l1.468 9.263 2.897 8.92 4.259 8.356 5.513 7.588 6.631 6.631 7.588 5.513 6.807 3.544-6.807 3.59-7.588 5.513-6.631 6.631-3.568 4.676-137.166-137.185 313.246.086 1.514 13.5v45.849l-7.418-1.668-9.35-.737-9.35.737-9.119 2.189-8.664 3.589-7.998 4.9-7.131 6.091-6.091 7.131-4.9 7.997-3.589 8.664-2.19 9.121-.735 9.349.735 9.349.855 4.298m-29.231-457.903l-14.496 4.858-8.572 3.952-8.234 4.611-7.847 5.245-7.412 5.842-6.931 6.407-6.407 6.93-5.843 7.412-5.243 7.848-4.612 8.235-3.951 8.571-3.267 8.854-2.563 9.084-1.841 9.258-1.109 9.372-.37 9.431.37 9.43 1.109 9.373 1.841 9.257 2.563 9.084 3.267 8.854 3.951 8.571 4.612 8.235 5.243 7.848 5.181 6.572-136.024-.022-99.936-99.912-.518-9.174-1.703-7.094-2.792-6.741-3.812-6.222-4.739-5.549-5.549-4.739-6.221-3.812-6.742-2.793-7.094-1.703-7.275-.572-7.274.572-7.096 1.703-6.741 2.793-6.221 3.812-5.548 4.739-2.101 2.273-4.823-4.751-5.903-4.288-6.501-3.314-6.94-2.254-7.207-1.142h-7.297l-7.206 1.142-6.939 2.254-6.502 3.314-5.904 4.288-5.159 5.159-4.288 5.904-3.368 6.649-6.985-.534-7.275.573-3.286.654.172-6.593 43.278-43.291 307.609-.098 7.263-1.445 6.724-3.1 5.816-4.584 102.647-102.648.024 87.357m-517.92 23.248l-5.358.064-.009-46.895 13.5-1.538h40.283l-48.345 48.31m440.365-474.56l3.95 3.85 5.903 4.289 6.501 3.312 6.94 2.255 7.207 1.141 5.514.07 41.495 41.483-.136 68.881-6.502-3.313-6.939-2.256-7.206-1.14-5.516-.071-109.428-109.278-6.156-4.114-6.948-2.563-7.353-.87h-196.24l-1.672-1.68 276.549-.005m-156.371 99.694l3.948 3.85 6.663 4.714-171.853.007.118-8.571 161.109-.009m-585.328 328.19l-1.14-7.207-2.255-6.94-3.314-6.501-4.288-5.903-5.159-5.16-5.904-4.289-6.502-3.312-6.939-2.255-2.112-.42 286.406.001-9.83 10.355-3.618 6.46-2.009 7.128-.388 4.927v56.786l-14.162-13.975-6.156-4.114-6.948-2.563-7.363-.87h-201.992l2.533-7.644 1.14-7.208v-7.296m-97.74-229.756l14.202 14.066 6.157 4.114 6.948 2.563 7.353.87 661.615.009 3.949 3.85 5.903 4.289 6.503 3.312 6.938 2.255 7.207 1.142 7.149.176-.008 80.475-3.85 3.95-4.289 5.903-3.314 6.501-2.254 6.94-1.142 7.207v7.297l1.142 7.206 2.254 6.939 3.314 6.502 4.289 5.904 5.158 5.159 5.903 4.288 6.503 3.314 6.938 2.255 7.207 1.141h7.297l7.207-1.141 6.94-2.255 6.501-3.314 5.903-4.288 5.16-5.159 4.289-5.904 3.312-6.502 2.255-6.939 1.142-7.206v-7.297l-1.142-7.207-2.255-6.94-3.312-6.501-4.289-5.903-3.85-3.95-.106-157.948-1.445-7.262-3.1-6.725-4.584-5.815-21.816-21.678-6.156-4.114-6.948-2.563-7.353-.87h-4.639l6.644-4.721 5.16-5.16 4.289-5.903 3.312-6.501 2.182-6.679 83.72 83.709.549 9.201 1.703 7.096 2.793 6.741 3.812 6.221 4.739 5.548 5.548 4.739 6.221 3.812 6.741 2.793 7.096 1.703 7.274.573 7.275-.573 7.094-1.703 6.742-2.793 3.292-1.854-.005 49.289-3.85 3.95-4.29 5.903-3.313 6.501-2.254 6.94-1.142 7.207-.07 5.514-123.034 123.048-248.361.031 2.392-7.283.867-4.898 7.566.03 7.206-1.141 6.939-2.255 6.502-3.314 5.904-4.288 5.159-5.159 4.288-5.904 3.314-6.502 2.255-6.939 1.141-7.206v-7.297l-.672-4.844 7.431-.008 6.911 6.12 6.221 3.812 6.742 2.793 7.094 1.703 7.275.572 7.274-.572 7.096-1.703 6.741-2.793 6.221-3.812 5.548-4.739 4.739-5.549 3.812-6.221 2.793-6.742 1.703-7.094.573-7.275-.573-7.274-1.703-7.096-2.793-6.74-3.812-6.222-4.739-5.548-5.548-4.739-6.221-3.812-6.741-2.793-7.096-1.704-7.274-.572-7.275.572-7.094 1.704-6.742 2.793-6.221 3.812-5.549 4.739-1.268 1.371-517.169.009-82.972-83.345 9.095-1.432-5.29 5.615-4.178-4.178"/><use x="1244.089" y="1837.902" xlink:href="#rklRkba31Z_pad-16"/><use x="1144.089" y="1837.902" xlink:href="#rklRkba31Z_pad-17"/><use x="1244.089" y="1937.902" xlink:href="#rklRkba31Z_pad-17"/><use x="1144.089" y="1937.902" xlink:href="#rklRkba31Z_pad-17"/><use x="1244.089" y="2037.902" xlink:href="#rklRkba31Z_pad-17"/><use x="1144.089" y="2037.902" xlink:href="#rklRkba31Z_pad-17"/><use x="1531.619" y="1881.656" xlink:href="#rklRkba31Z_pad-16"/><use x="1531.619" y="1981.656" xlink:href="#rklRkba31Z_pad-17"/><use x="1631.619" y="1881.656" xlink:href="#rklRkba31Z_pad-17"/><use x="1631.619" y="1981.656" xlink:href="#rklRkba31Z_pad-17"/><use x="1912.909" y="1956.664" xlink:href="#rklRkba31Z_pad-26"/><use x="706.533" y="819.045" xlink:href="#rklRkba31Z_pad-16"/><use x="831.546" y="1956.664" xlink:href="#rklRkba31Z_pad-26"/><use x="831.546" y="1847.609" xlink:href="#rklRkba31Z_pad-28"/><use x="831.546" y="1738.554" xlink:href="#rklRkba31Z_pad-28"/><use x="831.546" y="1629.499" xlink:href="#rklRkba31Z_pad-28"/><use x="831.546" y="1520.444" xlink:href="#rklRkba31Z_pad-28"/><use x="719.735" y="1902.136" xlink:href="#rklRkba31Z_pad-28"/><use x="719.735" y="1793.081" xlink:href="#rklRkba31Z_pad-28"/><use x="719.735" y="1684.026" xlink:href="#rklRkba31Z_pad-28"/><use x="719.735" y="1574.971" xlink:href="#rklRkba31Z_pad-28"/><use x="775.641" y="1246.625" xlink:href="#rklRkba31Z_pad-29"/><use x="775.641" y="2230.483" xlink:href="#rklRkba31Z_pad-29"/><use x="1912.909" y="1847.609" xlink:href="#rklRkba31Z_pad-28"/><use x="1912.909" y="1738.554" xlink:href="#rklRkba31Z_pad-28"/><use x="1912.909" y="1629.499" xlink:href="#rklRkba31Z_pad-28"/><use x="1912.909" y="1520.444" xlink:href="#rklRkba31Z_pad-28"/><use x="2024.72" y="1902.136" xlink:href="#rklRkba31Z_pad-28"/><use x="2024.72" y="1793.081" xlink:href="#rklRkba31Z_pad-28"/><use x="2024.72" y="1684.026" xlink:href="#rklRkba31Z_pad-28"/><use x="2024.72" y="1574.971" xlink:href="#rklRkba31Z_pad-28"/><use x="1968.815" y="2230.483" xlink:href="#rklRkba31Z_pad-29"/><use x="1968.815" y="1246.625" xlink:href="#rklRkba31Z_pad-29"/><use x="806.533" y="819.045" xlink:href="#rklRkba31Z_pad-17"/><use x="906.533" y="819.045" xlink:href="#rklRkba31Z_pad-17"/><use x="1006.533" y="819.045" xlink:href="#rklRkba31Z_pad-17"/><use x="1106.533" y="819.045" xlink:href="#rklRkba31Z_pad-17"/></g><g id="pcb-stackup_bottom_sm"><use x="1244.089" y="1837.902" xlink:href="#BJ-Ck-Tn1b_pad-70"/><use x="1144.089" y="1837.902" xlink:href="#BJ-Ck-Tn1b_pad-68"/><use x="1244.089" y="1937.902" xlink:href="#BJ-Ck-Tn1b_pad-68"/><use x="1144.089" y="1937.902" xlink:href="#BJ-Ck-Tn1b_pad-68"/><use x="1244.089" y="2037.902" xlink:href="#BJ-Ck-Tn1b_pad-68"/><use x="1144.089" y="2037.902" xlink:href="#BJ-Ck-Tn1b_pad-68"/><use x="1531.619" y="1881.656" xlink:href="#BJ-Ck-Tn1b_pad-70"/><use x="1531.619" y="1981.656" xlink:href="#BJ-Ck-Tn1b_pad-68"/><use x="1631.619" y="1881.656" xlink:href="#BJ-Ck-Tn1b_pad-68"/><use x="1631.619" y="1981.656" xlink:href="#BJ-Ck-Tn1b_pad-68"/><use x="2244.194" y="506.512" xlink:href="#BJ-Ck-Tn1b_pad-35"/><use x="500.261" y="506.512" xlink:href="#BJ-Ck-Tn1b_pad-35"/><use x="1362.852" y="2244.194" xlink:href="#BJ-Ck-Tn1b_pad-35"/><use x="1912.909" y="1956.664" xlink:href="#BJ-Ck-Tn1b_pad-54"/><use x="706.533" y="819.045" xlink:href="#BJ-Ck-Tn1b_pad-70"/><use x="831.546" y="1956.664" xlink:href="#BJ-Ck-Tn1b_pad-54"/><use x="831.546" y="1847.609" xlink:href="#BJ-Ck-Tn1b_pad-50"/><use x="831.546" y="1738.554" xlink:href="#BJ-Ck-Tn1b_pad-50"/><use x="831.546" y="1629.499" xlink:href="#BJ-Ck-Tn1b_pad-50"/><use x="831.546" y="1520.444" xlink:href="#BJ-Ck-Tn1b_pad-50"/><use x="719.735" y="1902.136" xlink:href="#BJ-Ck-Tn1b_pad-50"/><use x="719.735" y="1793.081" xlink:href="#BJ-Ck-Tn1b_pad-50"/><use x="719.735" y="1684.026" xlink:href="#BJ-Ck-Tn1b_pad-50"/><use x="719.735" y="1574.971" xlink:href="#BJ-Ck-Tn1b_pad-50"/><use x="775.641" y="1246.625" xlink:href="#BJ-Ck-Tn1b_pad-48"/><use x="775.641" y="2230.483" xlink:href="#BJ-Ck-Tn1b_pad-48"/><use x="1912.909" y="1847.609" xlink:href="#BJ-Ck-Tn1b_pad-50"/><use x="1912.909" y="1738.554" xlink:href="#BJ-Ck-Tn1b_pad-50"/><use x="1912.909" y="1629.499" xlink:href="#BJ-Ck-Tn1b_pad-50"/><use x="1912.909" y="1520.444" xlink:href="#BJ-Ck-Tn1b_pad-50"/><use x="2024.72" y="1902.136" xlink:href="#BJ-Ck-Tn1b_pad-50"/><use x="2024.72" y="1793.081" xlink:href="#BJ-Ck-Tn1b_pad-50"/><use x="2024.72" y="1684.026" xlink:href="#BJ-Ck-Tn1b_pad-50"/><use x="2024.72" y="1574.971" xlink:href="#BJ-Ck-Tn1b_pad-50"/><use x="1968.815" y="2230.483" xlink:href="#BJ-Ck-Tn1b_pad-48"/><use x="1968.815" y="1246.625" xlink:href="#BJ-Ck-Tn1b_pad-48"/><use x="806.533" y="819.045" xlink:href="#BJ-Ck-Tn1b_pad-68"/><use x="906.533" y="819.045" xlink:href="#BJ-Ck-Tn1b_pad-68"/><use x="1006.533" y="819.045" xlink:href="#BJ-Ck-Tn1b_pad-68"/><use x="1106.533" y="819.045" xlink:href="#BJ-Ck-Tn1b_pad-68"/></g><g id="pcb-stackup_bottom_drl1"><use x="1368.9" y="647.8" xlink:href="#BkM0Jban1W_pad-1"/><use x="1445.9" y="747.5" xlink:href="#BkM0Jban1W_pad-1"/><use x="1495.9" y="782.5" xlink:href="#BkM0Jban1W_pad-1"/><use x="1550.7" y="712.5" xlink:href="#BkM0Jban1W_pad-1"/><use x="1737.6" y="747.5" xlink:href="#BkM0Jban1W_pad-1"/><use x="1750.8" y="867.5" xlink:href="#BkM0Jban1W_pad-1"/><use x="1912.9" y="844.2" xlink:href="#BkM0Jban1W_pad-1"/><use x="1968.8" y="967.2" xlink:href="#BkM0Jban1W_pad-1"/><use x="1785.8" y="1028.7" xlink:href="#BkM0Jban1W_pad-1"/><use x="1645.5" y="993.7" xlink:href="#BkM0Jban1W_pad-1"/><use x="1558.2" y="1033.7" xlink:href="#BkM0Jban1W_pad-1"/><use x="1508.2" y="1074" xlink:href="#BkM0Jban1W_pad-1"/><use x="1524.3" y="1222" xlink:href="#BkM0Jban1W_pad-1"/><use x="1474.3" y="1250.3" xlink:href="#BkM0Jban1W_pad-1"/><use x="1417.5" y="1200.3" xlink:href="#BkM0Jban1W_pad-1"/><use x="1301.4" y="1250" xlink:href="#BkM0Jban1W_pad-1"/><use x="1251.4" y="1285.3" xlink:href="#BkM0Jban1W_pad-1"/><use x="1071.4" y="1285.3" xlink:href="#BkM0Jban1W_pad-1"/><use x="1036.7" y="1160.8" xlink:href="#BkM0Jban1W_pad-1"/><use x="1071.7" y="1110.8" xlink:href="#BkM0Jban1W_pad-1"/><use x="1594.3" y="1222" xlink:href="#BkM0Jban1W_pad-1"/><use x="1894" y="647.8" xlink:href="#BkM0Jban1W_pad-1"/><use x="2107.7" y="791.4" xlink:href="#BkM0Jban1W_pad-1"/><use x="601.5" y="735.6" xlink:href="#BkM0Jban1W_pad-1"/><use x="656.5" y="1684" xlink:href="#BkM0Jban1W_pad-1"/><use x="1912.9" y="1956.7" xlink:href="#BkM0Jban1W_pad-2"/><use x="1912.9" y="1847.6" xlink:href="#BkM0Jban1W_pad-2"/><use x="1912.9" y="1738.6" xlink:href="#BkM0Jban1W_pad-2"/><use x="1912.9" y="1629.5" xlink:href="#BkM0Jban1W_pad-2"/><use x="1912.9" y="1520.4" xlink:href="#BkM0Jban1W_pad-2"/><use x="2024.7" y="1575" xlink:href="#BkM0Jban1W_pad-2"/><use x="2024.7" y="1684" xlink:href="#BkM0Jban1W_pad-2"/><use x="2024.7" y="1793.1" xlink:href="#BkM0Jban1W_pad-2"/><use x="2024.7" y="1902.1" xlink:href="#BkM0Jban1W_pad-2"/><use x="831.5" y="1956.7" xlink:href="#BkM0Jban1W_pad-2"/><use x="831.5" y="1847.6" xlink:href="#BkM0Jban1W_pad-2"/><use x="831.5" y="1738.6" xlink:href="#BkM0Jban1W_pad-2"/><use x="831.5" y="1629.5" xlink:href="#BkM0Jban1W_pad-2"/><use x="831.5" y="1520.4" xlink:href="#BkM0Jban1W_pad-2"/><use x="719.7" y="1575" xlink:href="#BkM0Jban1W_pad-2"/><use x="719.7" y="1684" xlink:href="#BkM0Jban1W_pad-2"/><use x="719.7" y="1793.1" xlink:href="#BkM0Jban1W_pad-2"/><use x="719.7" y="1902.1" xlink:href="#BkM0Jban1W_pad-2"/><use x="1244.1" y="1837.9" xlink:href="#BkM0Jban1W_pad-3"/><use x="1144.1" y="1837.9" xlink:href="#BkM0Jban1W_pad-3"/><use x="1144.1" y="1937.9" xlink:href="#BkM0Jban1W_pad-3"/><use x="1244.1" y="1937.9" xlink:href="#BkM0Jban1W_pad-3"/><use x="1244.1" y="2037.9" xlink:href="#BkM0Jban1W_pad-3"/><use x="1144.1" y="2037.9" xlink:href="#BkM0Jban1W_pad-3"/><use x="1531.6" y="1981.7" xlink:href="#BkM0Jban1W_pad-3"/><use x="1531.6" y="1881.7" xlink:href="#BkM0Jban1W_pad-3"/><use x="1631.6" y="1881.7" xlink:href="#BkM0Jban1W_pad-3"/><use x="1631.6" y="1981.7" xlink:href="#BkM0Jban1W_pad-3"/><use x="1106.5" y="819" xlink:href="#BkM0Jban1W_pad-3"/><use x="1006.5" y="819" xlink:href="#BkM0Jban1W_pad-3"/><use x="906.5" y="819" xlink:href="#BkM0Jban1W_pad-3"/><use x="806.5" y="819" xlink:href="#BkM0Jban1W_pad-3"/><use x="706.5" y="819" xlink:href="#BkM0Jban1W_pad-3"/><use x="2244.2" y="506.5" xlink:href="#BkM0Jban1W_pad-4"/><use x="500.3" y="506.5" xlink:href="#BkM0Jban1W_pad-4"/><use x="1362.9" y="2244.2" xlink:href="#BkM0Jban1W_pad-4"/><use x="775.6" y="1246.6" xlink:href="#BkM0Jban1W_pad-5"/><use x="775.6" y="2230.5" xlink:href="#BkM0Jban1W_pad-5"/><use x="1968.8" y="2230.5" xlink:href="#BkM0Jban1W_pad-5"/><use x="1968.8" y="1246.6" xlink:href="#BkM0Jban1W_pad-5"/></g><clipPath id="pcb-stackup_bottom_out"><path fill="none" stroke-width="6" d="M394 394h1960v1960H394V394"/></clipPath><mask id="pcb-stackup_bottom_mech-mask"><g stroke="#000"><path fill="#fff" d="M394 394h1960v1960H394z"/><use xlink:href="#pcb-stackup_bottom_drl1"/></g></mask><mask id="pcb-stackup_bottom_cf-mask"><g fill="#fff" stroke="#fff"><use xlink:href="#pcb-stackup_bottom_sm"/></g></mask><mask id="pcb-stackup_bottom_sm-mask"><g stroke="#000"><path fill="#fff" d="M394 394h1960v1960H394z"/><use xlink:href="#pcb-stackup_bottom_sm"/></g></mask></defs><g><g mask="url(#pcb-stackup_bottom_mech-mask)" clip-path="url(#pcb-stackup_bottom_out)" transform="rotate(180 1374 1374)"><path fill="currentColor" d="M394 394h1960v1960H394z" class="pcb-stackup_fr4"/><use fill="currentColor" stroke="currentColor" xlink:href="#pcb-stackup_bottom_cu" class="pcb-stackup_cu"/><use fill="currentColor" stroke="currentColor" xlink:href="#pcb-stackup_bottom_cu" class="pcb-stackup_cf" mask="url(#pcb-stackup_bottom_cf-mask)"/><g mask="url(#pcb-stackup_bottom_sm-mask)"><path fill="currentColor" d="M394 394h1960v1960H394z" class="pcb-stackup_sm"/></g></g></g></svg>