<svg xmlns="http://www.w3.org/2000/svg" id="pcb-stackup_bottom" fill-rule="evenodd" stroke-width="0" stroke-linecap="round" stroke-linejoin="round" xmlns:xlink="http://www.w3.org/1999/xlink" clip-rule="evenodd" viewBox="109855 -140970 32395 39370"><defs><style>.pcb-stackup_fr4 {color: #4D542C;} .pcb-stackup_cu {color: lightgrey;} .pcb-stackup_cf {color: goldenrod;} .pcb-stackup_sm {color: #2E0051; opacity: 0.9;} .pcb-stackup_ss {color: white;} .pcb-stackup_sp {color: #000000; opacity: 0;} .pcb-stackup_out {color: black;}</style><path id="SkndeT21W_pad-11" d="M-863.6-1016H863.6v2032H-863.6z"/><rect id="SkndeT21W_pad-12" width="1727.2" height="2032" x="-863.6" y="-1016" rx="863.6" ry="863.6"/><path id="SkndeT21W_pad-13" d="M-1016-863.6h2032V863.6h-2032z"/><rect id="SkndeT21W_pad-14" width="2032" height="1727.2" x="-1016" y="-863.6" rx="863.6" ry="863.6"/><circle id="SkndeT21W_pad-15" r="750"/><circle id="SkndeT21W_pad-16" r="300"/><path id="SkndeT21W_pad-11" d="M-863.6-1016H863.6v2032H-863.6z"/><rect id="SkndeT21W_pad-12" width="1727.2" height="2032" x="-863.6" y="-1016" rx="863.6" ry="863.6"/><path id="SkndeT21W_pad-13" d="M-1016-863.6h2032V863.6h-2032z"/><rect id="SkndeT21W_pad-14" width="2032" height="1727.2" x="-1016" y="-863.6" rx="863.6" ry="863.6"/><circle id="SkndeT21W_pad-15" r="750"/><circle id="SkndeT21W_pad-16" r="300"/><path id="Syln_xan1b_pad-11" d="M-863.6-1016H863.6v2032H-863.6z"/><rect id="Syln_xan1b_pad-12" width="1727.2" height="2032" x="-863.6" y="-1016" rx="863.6" ry="863.6"/><path id="Syln_xan1b_pad-13" d="M-1016-863.6h2032V863.6h-2032z"/><rect id="Syln_xan1b_pad-14" width="2032" height="1727.2" x="-1016" y="-863.6" rx="863.6" ry="863.6"/><path id="SkndeT21W_pad-11" d="M-863.6-1016H863.6v2032H-863.6z"/><rect id="SkndeT21W_pad-12" width="1727.2" height="2032" x="-863.6" y="-1016" rx="863.6" ry="863.6"/><path id="SkndeT21W_pad-13" d="M-1016-863.6h2032V863.6h-2032z"/><rect id="SkndeT21W_pad-14" width="2032" height="1727.2" x="-1016" y="-863.6" rx="863.6" ry="863.6"/><circle id="SkndeT21W_pad-15" r="750"/><circle id="SkndeT21W_pad-16" r="300"/><path id="SkndeT21W_pad-11" d="M-863.6-1016H863.6v2032H-863.6z"/><rect id="SkndeT21W_pad-12" width="1727.2" height="2032" x="-863.6" y="-1016" rx="863.6" ry="863.6"/><path id="SkndeT21W_pad-13" d="M-1016-863.6h2032V863.6h-2032z"/><rect id="SkndeT21W_pad-14" width="2032" height="1727.2" x="-1016" y="-863.6" rx="863.6" ry="863.6"/><circle id="SkndeT21W_pad-15" r="750"/><circle id="SkndeT21W_pad-16" r="300"/><path id="Syln_xan1b_pad-11" d="M-863.6-1016H863.6v2032H-863.6z"/><rect id="Syln_xan1b_pad-12" width="1727.2" height="2032" x="-863.6" y="-1016" rx="863.6" ry="863.6"/><path id="Syln_xan1b_pad-13" d="M-1016-863.6h2032V863.6h-2032z"/><rect id="Syln_xan1b_pad-14" width="2032" height="1727.2" x="-1016" y="-863.6" rx="863.6" ry="863.6"/><path id="SkndeT21W_pad-11" d="M-863.6-1016H863.6v2032H-863.6z"/><rect id="SkndeT21W_pad-12" width="1727.2" height="2032" x="-863.6" y="-1016" rx="863.6" ry="863.6"/><path id="SkndeT21W_pad-13" d="M-1016-863.6h2032V863.6h-2032z"/><rect id="SkndeT21W_pad-14" width="2032" height="1727.2" x="-1016" y="-863.6" rx="863.6" ry="863.6"/><circle id="SkndeT21W_pad-15" r="750"/><circle id="SkndeT21W_pad-16" r="300"/><path id="SkndeT21W_pad-11" d="M-863.6-1016H863.6v2032H-863.6z"/><rect id="SkndeT21W_pad-12" width="1727.2" height="2032" x="-863.6" y="-1016" rx="863.6" ry="863.6"/><path id="SkndeT21W_pad-13" d="M-1016-863.6h2032V863.6h-2032z"/><rect id="SkndeT21W_pad-14" width="2032" height="1727.2" x="-1016" y="-863.6" rx="863.6" ry="863.6"/><circle id="SkndeT21W_pad-15" r="750"/><circle id="SkndeT21W_pad-16" r="300"/><path id="Syln_xan1b_pad-11" d="M-863.6-1016H863.6v2032H-863.6z"/><rect id="Syln_xan1b_pad-12" width="1727.2" height="2032" x="-863.6" y="-1016" rx="863.6" ry="863.6"/><path id="Syln_xan1b_pad-13" d="M-1016-863.6h2032V863.6h-2032z"/><rect id="Syln_xan1b_pad-14" width="2032" height="1727.2" x="-1016" y="-863.6" rx="863.6" ry="863.6"/><path id="SkndeT21W_pad-11" d="M-863.6-1016H863.6v2032H-863.6z"/><rect id="SkndeT21W_pad-12" width="1727.2" height="2032" x="-863.6" y="-1016" rx="863.6" ry="863.6"/><path id="SkndeT21W_pad-13" d="M-1016-863.6h2032V863.6h-2032z"/><rect id="SkndeT21W_pad-14" width="2032" height="1727.2" x="-1016" y="-863.6" rx="863.6" ry="863.6"/><circle id="SkndeT21W_pad-15" r="750"/><circle id="SkndeT21W_pad-16" r="300"/><path id="SkndeT21W_pad-11" d="M-863.6-1016H863.6v2032H-863.6z"/><rect id="SkndeT21W_pad-12" width="1727.2" height="2032" x="-863.6" y="-1016" rx="863.6" ry="863.6"/><path id="SkndeT21W_pad-13" d="M-1016-863.6h2032V863.6h-2032z"/><rect id="SkndeT21W_pad-14" width="2032" height="1727.2" x="-1016" y="-863.6" rx="863.6" ry="863.6"/><circle id="SkndeT21W_pad-15" r="750"/><circle id="SkndeT21W_pad-16" r="300"/><path id="Syln_xan1b_pad-11" d="M-863.6-1016H863.6v2032H-863.6z"/><rect id="Syln_xan1b_pad-12" width="1727.2" height="2032" x="-863.6" y="-1016" rx="863.6" ry="863.6"/><path id="Syln_xan1b_pad-13" d="M-1016-863.6h2032V863.6h-2032z"/><rect id="Syln_xan1b_pad-14" width="2032" height="1727.2" x="-1016" y="-863.6" rx="863.6" ry="863.6"/><path id="SkndeT21W_pad-11" d="M-863.6-1016H863.6v2032H-863.6z"/><rect id="SkndeT21W_pad-12" width="1727.2" height="2032" x="-863.6" y="-1016" rx="863.6" ry="863.6"/><path id="SkndeT21W_pad-13" d="M-1016-863.6h2032V863.6h-2032z"/><rect id="SkndeT21W_pad-14" width="2032" height="1727.2" x="-1016" y="-863.6" rx="863.6" ry="863.6"/><circle id="SkndeT21W_pad-15" r="750"/><circle id="SkndeT21W_pad-16" r="300"/><path id="SkndeT21W_pad-11" d="M-863.6-1016H863.6v2032H-863.6z"/><rect id="SkndeT21W_pad-12" width="1727.2" height="2032" x="-863.6" y="-1016" rx="863.6" ry="863.6"/><path id="SkndeT21W_pad-13" d="M-1016-863.6h2032V863.6h-2032z"/><rect id="SkndeT21W_pad-14" width="2032" height="1727.2" x="-1016" y="-863.6" rx="863.6" ry="863.6"/><circle id="SkndeT21W_pad-15" r="750"/><circle id="SkndeT21W_pad-16" r="300"/><path id="Syln_xan1b_pad-11" d="M-863.6-1016H863.6v2032H-863.6z"/><rect id="Syln_xan1b_pad-12" width="1727.2" height="2032" x="-863.6" y="-1016" rx="863.6" ry="863.6"/><path id="Syln_xan1b_pad-13" d="M-1016-863.6h2032V863.6h-2032z"/><rect id="Syln_xan1b_pad-14" width="2032" height="1727.2" x="-1016" y="-863.6" rx="863.6" ry="863.6"/><path id="SkndeT21W_pad-11" d="M-863.6-1016H863.6v2032H-863.6z"/><rect id="SkndeT21W_pad-12" width="1727.2" height="2032" x="-863.6" y="-1016" rx="863.6" ry="863.6"/><path id="SkndeT21W_pad-13" d="M-1016-863.6h2032V863.6h-2032z"/><rect id="SkndeT21W_pad-14" width="2032" height="1727.2" x="-1016" y="-863.6" rx="863.6" ry="863.6"/><circle id="SkndeT21W_pad-15" r="750"/><circle id="SkndeT21W_pad-16" r="300"/><path id="SkndeT21W_pad-11" d="M-863.6-1016H863.6v2032H-863.6z"/><rect id="SkndeT21W_pad-12" width="1727.2" height="2032" x="-863.6" y="-1016" rx="863.6" ry="863.6"/><path id="SkndeT21W_pad-13" d="M-1016-863.6h2032V863.6h-2032z"/><rect id="SkndeT21W_pad-14" width="2032" height="1727.2" x="-1016" y="-863.6" rx="863.6" ry="863.6"/><circle id="SkndeT21W_pad-15" r="750"/><circle id="SkndeT21W_pad-16" r="300"/><path id="Syln_xan1b_pad-11" d="M-863.6-1016H863.6v2032H-863.6z"/><rect id="Syln_xan1b_pad-12" width="1727.2" height="2032" x="-863.6" y="-1016" rx="863.6" ry="863.6"/><path id="Syln_xan1b_pad-13" d="M-1016-863.6h2032V863.6h-2032z"/><rect id="Syln_xan1b_pad-14" width="2032" height="1727.2" x="-1016" y="-863.6" rx="863.6" ry="863.6"/><path id="SkndeT21W_pad-11" d="M-863.6-1016H863.6v2032H-863.6z"/><rect id="SkndeT21W_pad-12" width="1727.2" height="2032" x="-863.6" y="-1016" rx="863.6" ry="863.6"/><path id="SkndeT21W_pad-13" d="M-1016-863.6h2032V863.6h-2032z"/><rect id="SkndeT21W_pad-14" width="2032" height="1727.2" x="-1016" y="-863.6" rx="863.6" ry="863.6"/><circle id="SkndeT21W_pad-15" r="750"/><circle id="SkndeT21W_pad-16" r="300"/><path id="SkndeT21W_pad-11" d="M-863.6-1016H863.6v2032H-863.6z"/><rect id="SkndeT21W_pad-12" width="1727.2" height="2032" x="-863.6" y="-1016" rx="863.6" ry="863.6"/><path id="SkndeT21W_pad-13" d="M-1016-863.6h2032V863.6h-2032z"/><rect id="SkndeT21W_pad-14" width="2032" height="1727.2" x="-1016" y="-863.6" rx="863.6" ry="863.6"/><circle id="SkndeT21W_pad-15" r="750"/><circle id="SkndeT21W_pad-16" r="300"/><path id="Syln_xan1b_pad-11" d="M-863.6-1016H863.6v2032H-863.6z"/><rect id="Syln_xan1b_pad-12" width="1727.2" height="2032" x="-863.6" y="-1016" rx="863.6" ry="863.6"/><path id="Syln_xan1b_pad-13" d="M-1016-863.6h2032V863.6h-2032z"/><rect id="Syln_xan1b_pad-14" width="2032" height="1727.2" x="-1016" y="-863.6" rx="863.6" ry="863.6"/><path id="SkndeT21W_pad-11" d="M-863.6-1016H863.6v2032H-863.6z"/><rect id="SkndeT21W_pad-12" width="1727.2" height="2032" x="-863.6" y="-1016" rx="863.6" ry="863.6"/><path id="SkndeT21W_pad-13" d="M-1016-863.6h2032V863.6h-2032z"/><rect id="SkndeT21W_pad-14" width="2032" height="1727.2" x="-1016" y="-863.6" rx="863.6" ry="863.6"/><circle id="SkndeT21W_pad-15" r="750"/><circle id="SkndeT21W_pad-16" r="300"/><path id="SkndeT21W_pad-11" d="M-863.6-1016H863.6v2032H-863.6z"/><rect id="SkndeT21W_pad-12" width="1727.2" height="2032" x="-863.6" y="-1016" rx="863.6" ry="863.6"/><path id="SkndeT21W_pad-13" d="M-1016-863.6h2032V863.6h-2032z"/><rect id="SkndeT21W_pad-14" width="2032" height="1727.2" x="-1016" y="-863.6" rx="863.6" ry="863.6"/><circle id="SkndeT21W_pad-15" r="750"/><circle id="SkndeT21W_pad-16" r="300"/><path id="Syln_xan1b_pad-11" d="M-863.6-1016H863.6v2032H-863.6z"/><rect id="Syln_xan1b_pad-12" width="1727.2" height="2032" x="-863.6" y="-1016" rx="863.6" ry="863.6"/><path id="Syln_xan1b_pad-13" d="M-1016-863.6h2032V863.6h-2032z"/><rect id="Syln_xan1b_pad-14" width="2032" height="1727.2" x="-1016" y="-863.6" rx="863.6" ry="863.6"/><circle id="Hkw2ue6hy-_pad-1" r="200"/><circle id="Hkw2ue6hy-_pad-2" r="400"/><circle id="Hkw2ue6hy-_pad-3" r="508"/><path id="SkndeT21W_pad-11" d="M-863.6-1016H863.6v2032H-863.6z"/><rect id="SkndeT21W_pad-12" width="1727.2" height="2032" x="-863.6" y="-1016" rx="863.6" ry="863.6"/><path id="SkndeT21W_pad-13" d="M-1016-863.6h2032V863.6h-2032z"/><rect id="SkndeT21W_pad-14" width="2032" height="1727.2" x="-1016" y="-863.6" rx="863.6" ry="863.6"/><circle id="SkndeT21W_pad-15" r="750"/><circle id="SkndeT21W_pad-16" r="300"/><path id="SkndeT21W_pad-11" d="M-863.6-1016H863.6v2032H-863.6z"/><rect id="SkndeT21W_pad-12" width="1727.2" height="2032" x="-863.6" y="-1016" rx="863.6" ry="863.6"/><path id="SkndeT21W_pad-13" d="M-1016-863.6h2032V863.6h-2032z"/><rect id="SkndeT21W_pad-14" width="2032" height="1727.2" x="-1016" y="-863.6" rx="863.6" ry="863.6"/><circle id="SkndeT21W_pad-15" r="750"/><circle id="SkndeT21W_pad-16" r="300"/><path id="Syln_xan1b_pad-11" d="M-863.6-1016H863.6v2032H-863.6z"/><rect id="Syln_xan1b_pad-12" width="1727.2" height="2032" x="-863.6" y="-1016" rx="863.6" ry="863.6"/><path id="Syln_xan1b_pad-13" d="M-1016-863.6h2032V863.6h-2032z"/><rect id="Syln_xan1b_pad-14" width="2032" height="1727.2" x="-1016" y="-863.6" rx="863.6" ry="863.6"/><path id="SkndeT21W_pad-11" d="M-863.6-1016H863.6v2032H-863.6z"/><rect id="SkndeT21W_pad-12" width="1727.2" height="2032" x="-863.6" y="-1016" rx="863.6" ry="863.6"/><path id="SkndeT21W_pad-13" d="M-1016-863.6h2032V863.6h-2032z"/><rect id="SkndeT21W_pad-14" width="2032" height="1727.2" x="-1016" y="-863.6" rx="863.6" ry="863.6"/><circle id="SkndeT21W_pad-15" r="750"/><circle id="SkndeT21W_pad-16" r="300"/><path id="SkndeT21W_pad-11" d="M-863.6-1016H863.6v2032H-863.6z"/><rect id="SkndeT21W_pad-12" width="1727.2" height="2032" x="-863.6" y="-1016" rx="863.6" ry="863.6"/><path id="SkndeT21W_pad-13" d="M-1016-863.6h2032V863.6h-2032z"/><rect id="SkndeT21W_pad-14" width="2032" height="1727.2" x="-1016" y="-863.6" rx="863.6" ry="863.6"/><circle id="SkndeT21W_pad-15" r="750"/><circle id="SkndeT21W_pad-16" r="300"/><path id="Syln_xan1b_pad-11" d="M-863.6-1016H863.6v2032H-863.6z"/><rect id="Syln_xan1b_pad-12" width="1727.2" height="2032" x="-863.6" y="-1016" rx="863.6" ry="863.6"/><path id="Syln_xan1b_pad-13" d="M-1016-863.6h2032V863.6h-2032z"/><rect id="Syln_xan1b_pad-14" width="2032" height="1727.2" x="-1016" y="-863.6" rx="863.6" ry="863.6"/><path id="SkndeT21W_pad-11" d="M-863.6-1016H863.6v2032H-863.6z"/><rect id="SkndeT21W_pad-12" width="1727.2" height="2032" x="-863.6" y="-1016" rx="863.6" ry="863.6"/><path id="SkndeT21W_pad-13" d="M-1016-863.6h2032V863.6h-2032z"/><rect id="SkndeT21W_pad-14" width="2032" height="1727.2" x="-1016" y="-863.6" rx="863.6" ry="863.6"/><circle id="SkndeT21W_pad-15" r="750"/><circle id="SkndeT21W_pad-16" r="300"/><path id="SkndeT21W_pad-11" d="M-863.6-1016H863.6v2032H-863.6z"/><rect id="SkndeT21W_pad-12" width="1727.2" height="2032" x="-863.6" y="-1016" rx="863.6" ry="863.6"/><path id="SkndeT21W_pad-13" d="M-1016-863.6h2032V863.6h-2032z"/><rect id="SkndeT21W_pad-14" width="2032" height="1727.2" x="-1016" y="-863.6" rx="863.6" ry="863.6"/><circle id="SkndeT21W_pad-15" r="750"/><circle id="SkndeT21W_pad-16" r="300"/><path id="Syln_xan1b_pad-11" d="M-863.6-1016H863.6v2032H-863.6z"/><rect id="Syln_xan1b_pad-12" width="1727.2" height="2032" x="-863.6" y="-1016" rx="863.6" ry="863.6"/><path id="Syln_xan1b_pad-13" d="M-1016-863.6h2032V863.6h-2032z"/><rect id="Syln_xan1b_pad-14" width="2032" height="1727.2" x="-1016" y="-863.6" rx="863.6" ry="863.6"/><path id="SkndeT21W_pad-11" d="M-863.6-1016H863.6v2032H-863.6z"/><rect id="SkndeT21W_pad-12" width="1727.2" height="2032" x="-863.6" y="-1016" rx="863.6" ry="863.6"/><path id="SkndeT21W_pad-13" d="M-1016-863.6h2032V863.6h-2032z"/><rect id="SkndeT21W_pad-14" width="2032" height="1727.2" x="-1016" y="-863.6" rx="863.6" ry="863.6"/><circle id="SkndeT21W_pad-15" r="750"/><circle id="SkndeT21W_pad-16" r="300"/><path id="SkndeT21W_pad-11" d="M-863.6-1016H863.6v2032H-863.6z"/><rect id="SkndeT21W_pad-12" width="1727.2" height="2032" x="-863.6" y="-1016" rx="863.6" ry="863.6"/><path id="SkndeT21W_pad-13" d="M-1016-863.6h2032V863.6h-2032z"/><rect id="SkndeT21W_pad-14" width="2032" height="1727.2" x="-1016" y="-863.6" rx="863.6" ry="863.6"/><circle id="SkndeT21W_pad-15" r="750"/><circle id="SkndeT21W_pad-16" r="300"/><path id="Syln_xan1b_pad-11" d="M-863.6-1016H863.6v2032H-863.6z"/><rect id="Syln_xan1b_pad-12" width="1727.2" height="2032" x="-863.6" y="-1016" rx="863.6" ry="863.6"/><path id="Syln_xan1b_pad-13" d="M-1016-863.6h2032V863.6h-2032z"/><rect id="Syln_xan1b_pad-14" width="2032" height="1727.2" x="-1016" y="-863.6" rx="863.6" ry="863.6"/><path id="SkndeT21W_pad-11" d="M-863.6-1016H863.6v2032H-863.6z"/><rect id="SkndeT21W_pad-12" width="1727.2" height="2032" x="-863.6" y="-1016" rx="863.6" ry="863.6"/><path id="SkndeT21W_pad-13" d="M-1016-863.6h2032V863.6h-2032z"/><rect id="SkndeT21W_pad-14" width="2032" height="1727.2" x="-1016" y="-863.6" rx="863.6" ry="863.6"/><circle id="SkndeT21W_pad-15" r="750"/><circle id="SkndeT21W_pad-16" r="300"/><path id="SkndeT21W_pad-11" d="M-863.6-1016H863.6v2032H-863.6z"/><rect id="SkndeT21W_pad-12" width="1727.2" height="2032" x="-863.6" y="-1016" rx="863.6" ry="863.6"/><path id="SkndeT21W_pad-13" d="M-1016-863.6h2032V863.6h-2032z"/><rect id="SkndeT21W_pad-14" width="2032" height="1727.2" x="-1016" y="-863.6" rx="863.6" ry="863.6"/><circle id="SkndeT21W_pad-15" r="750"/><circle id="SkndeT21W_pad-16" r="300"/><path id="Syln_xan1b_pad-11" d="M-863.6-1016H863.6v2032H-863.6z"/><rect id="Syln_xan1b_pad-12" width="1727.2" height="2032" x="-863.6" y="-1016" rx="863.6" ry="863.6"/><path id="Syln_xan1b_pad-13" d="M-1016-863.6h2032V863.6h-2032z"/><rect id="Syln_xan1b_pad-14" width="2032" height="1727.2" x="-1016" y="-863.6" rx="863.6" ry="863.6"/><path id="SkndeT21W_pad-11" d="M-863.6-1016H863.6v2032H-863.6z"/><rect id="SkndeT21W_pad-12" width="1727.2" height="2032" x="-863.6" y="-1016" rx="863.6" ry="863.6"/><path id="SkndeT21W_pad-13" d="M-1016-863.6h2032V863.6h-2032z"/><rect id="SkndeT21W_pad-14" width="2032" height="1727.2" x="-1016" y="-863.6" rx="863.6" ry="863.6"/><circle id="SkndeT21W_pad-15" r="750"/><circle id="SkndeT21W_pad-16" r="300"/><path id="SkndeT21W_pad-11" d="M-863.6-1016H863.6v2032H-863.6z"/><rect id="SkndeT21W_pad-12" width="1727.2" height="2032" x="-863.6" y="-1016" rx="863.6" ry="863.6"/><path id="SkndeT21W_pad-13" d="M-1016-863.6h2032V863.6h-2032z"/><rect id="SkndeT21W_pad-14" width="2032" height="1727.2" x="-1016" y="-863.6" rx="863.6" ry="863.6"/><circle id="SkndeT21W_pad-15" r="750"/><circle id="SkndeT21W_pad-16" r="300"/><path id="Syln_xan1b_pad-11" d="M-863.6-1016H863.6v2032H-863.6z"/><rect id="Syln_xan1b_pad-12" width="1727.2" height="2032" x="-863.6" y="-1016" rx="863.6" ry="863.6"/><path id="Syln_xan1b_pad-13" d="M-1016-863.6h2032V863.6h-2032z"/><rect id="Syln_xan1b_pad-14" width="2032" height="1727.2" x="-1016" y="-863.6" rx="863.6" ry="863.6"/><path id="SkndeT21W_pad-11" d="M-863.6-1016H863.6v2032H-863.6z"/><rect id="SkndeT21W_pad-12" width="1727.2" height="2032" x="-863.6" y="-1016" rx="863.6" ry="863.6"/><path id="SkndeT21W_pad-13" d="M-1016-863.6h2032V863.6h-2032z"/><rect id="SkndeT21W_pad-14" width="2032" height="1727.2" x="-1016" y="-863.6" rx="863.6" ry="863.6"/><circle id="SkndeT21W_pad-15" r="750"/><circle id="SkndeT21W_pad-16" r="300"/><path id="SkndeT21W_pad-11" d="M-863.6-1016H863.6v2032H-863.6z"/><rect id="SkndeT21W_pad-12" width="1727.2" height="2032" x="-863.6" y="-1016" rx="863.6" ry="863.6"/><path id="SkndeT21W_pad-13" d="M-1016-863.6h2032V863.6h-2032z"/><rect id="SkndeT21W_pad-14" width="2032" height="1727.2" x="-1016" y="-863.6" rx="863.6" ry="863.6"/><circle id="SkndeT21W_pad-15" r="750"/><circle id="SkndeT21W_pad-16" r="300"/><path id="Syln_xan1b_pad-11" d="M-863.6-1016H863.6v2032H-863.6z"/><rect id="Syln_xan1b_pad-12" width="1727.2" height="2032" x="-863.6" y="-1016" rx="863.6" ry="863.6"/><path id="Syln_xan1b_pad-13" d="M-1016-863.6h2032V863.6h-2032z"/><rect id="Syln_xan1b_pad-14" width="2032" height="1727.2" x="-1016" y="-863.6" rx="863.6" ry="863.6"/><path id="SkndeT21W_pad-11" d="M-863.6-1016H863.6v2032H-863.6z"/><rect id="SkndeT21W_pad-12" width="1727.2" height="2032" x="-863.6" y="-1016" rx="863.6" ry="863.6"/><path id="SkndeT21W_pad-13" d="M-1016-863.6h2032V863.6h-2032z"/><rect id="SkndeT21W_pad-14" width="2032" height="1727.2" x="-1016" y="-863.6" rx="863.6" ry="863.6"/><circle id="SkndeT21W_pad-15" r="750"/><circle id="SkndeT21W_pad-16" r="300"/><path id="SkndeT21W_pad-11" d="M-863.6-1016H863.6v2032H-863.6z"/><rect id="SkndeT21W_pad-12" width="1727.2" height="2032" x="-863.6" y="-1016" rx="863.6" ry="863.6"/><path id="SkndeT21W_pad-13" d="M-1016-863.6h2032V863.6h-2032z"/><rect id="SkndeT21W_pad-14" width="2032" height="1727.2" x="-1016" y="-863.6" rx="863.6" ry="863.6"/><circle id="SkndeT21W_pad-15" r="750"/><circle id="SkndeT21W_pad-16" r="300"/><path id="Syln_xan1b_pad-11" d="M-863.6-1016H863.6v2032H-863.6z"/><rect id="Syln_xan1b_pad-12" width="1727.2" height="2032" x="-863.6" y="-1016" rx="863.6" ry="863.6"/><path id="Syln_xan1b_pad-13" d="M-1016-863.6h2032V863.6h-2032z"/><rect id="Syln_xan1b_pad-14" width="2032" height="1727.2" x="-1016" y="-863.6" rx="863.6" ry="863.6"/><circle id="Hkw2ue6hy-_pad-1" r="200"/><circle id="Hkw2ue6hy-_pad-2" r="400"/><circle id="Hkw2ue6hy-_pad-3" r="508"/><g id="pcb-stackup_bottom_cu"><use x="135359" y="-137850" xlink:href="#SkndeT21W_pad-11"/><use x="132819" y="-137850" xlink:href="#SkndeT21W_pad-12"/><use x="130279" y="-137850" xlink:href="#SkndeT21W_pad-12"/><use x="127739" y="-137850" xlink:href="#SkndeT21W_pad-12"/><use x="125199" y="-137850" xlink:href="#SkndeT21W_pad-12"/><use x="122659" y="-137850" xlink:href="#SkndeT21W_pad-12"/><use x="112395" y="-105410" xlink:href="#SkndeT21W_pad-13"/><use x="112395" y="-107950" xlink:href="#SkndeT21W_pad-14"/><use x="112395" y="-110490" xlink:href="#SkndeT21W_pad-14"/><use x="112395" y="-113030" xlink:href="#SkndeT21W_pad-14"/><use x="112395" y="-115570" xlink:href="#SkndeT21W_pad-14"/><use x="112395" y="-118110" xlink:href="#SkndeT21W_pad-14"/><use x="112395" y="-120650" xlink:href="#SkndeT21W_pad-14"/><use x="112395" y="-123190" xlink:href="#SkndeT21W_pad-14"/><use x="112395" y="-125730" xlink:href="#SkndeT21W_pad-14"/><use x="112395" y="-128270" xlink:href="#SkndeT21W_pad-14"/><use x="112395" y="-130810" xlink:href="#SkndeT21W_pad-14"/><use x="112395" y="-133350" xlink:href="#SkndeT21W_pad-14"/><use x="112395" y="-135890" xlink:href="#SkndeT21W_pad-14"/><use x="112395" y="-138430" xlink:href="#SkndeT21W_pad-14"/><use x="117359" y="-114600" xlink:href="#SkndeT21W_pad-15"/><use x="116859" y="-137350" xlink:href="#SkndeT21W_pad-16"/><use x="128905" y="-126111" xlink:href="#SkndeT21W_pad-16"/><use x="136779" y="-131445" xlink:href="#SkndeT21W_pad-16"/><use x="123571" y="-125349" xlink:href="#SkndeT21W_pad-16"/><use x="118359" y="-131350" xlink:href="#SkndeT21W_pad-16"/><use x="121018.011" y="-131600" xlink:href="#SkndeT21W_pad-16"/><use x="131699" y="-115189" xlink:href="#SkndeT21W_pad-16"/><use x="129859" y="-130350" xlink:href="#SkndeT21W_pad-16"/><use x="129109" y="-131100" xlink:href="#SkndeT21W_pad-16"/><use x="124390.696" y="-123513.306" xlink:href="#SkndeT21W_pad-16"/><use x="123571" y="-124079" xlink:href="#SkndeT21W_pad-16"/><use x="121793" y="-126111" xlink:href="#SkndeT21W_pad-16"/><use x="119327.895" y="-126457.122" xlink:href="#SkndeT21W_pad-16"/><use x="132521.259" y="-124437.741" xlink:href="#SkndeT21W_pad-16"/><use x="125859" y="-116600" xlink:href="#SkndeT21W_pad-16"/><path fill="none" stroke-width="500" d="M117359-114600l749.999-749.999m3981.002 0l15639-15639m-19620.002 15639h3981.002m15639-23179.602l-986.409-986.409h-4949.982m5936.391 8527.011v-7540.602m-5936.391-986.409L130279-138002.4v152.4"/><path fill="none" stroke-width="250" d="M122659-137850h-5300l-500 500m12470.264 11239H128905m7874-5334h-3302l-4147.736 4147.736V-126111M112395-120650h6477l4699-4699m-2552.989-6251H118609l-250 250m-5964 18320h17145l2159-2159m-1840-15585.264v424.264m0-5227.6v4803.336m-2120-6923.336l2120 2120m-2120-2272.4v152.4m1070.001 6297.601L129109-131100m-3910-6750v2840l3610.001 3610.001M116447.39-115570l7643.307-7643.307 299.999-299.999M112395-115570h4052.39m1154.61-2540l5669.001-5669.001M112395-118110h5207m5669.001-5669.001L123571-124079m-9910 889h-1266m4590.775 0H113661m6245.775-2921l-2921 2921m4807.225-2921h-1886.225m-578.88-346.122h-6205.773L112395-125730m13464 9130v-1175.482l6662.259-6662.259"/><path d="M133483.623-127995.201l-6.622-1417.206.057-.297-.058-.296 4.764-23.951 4.677-24.101.167-.252.059-.297 13.595-20.347 13.516-20.434.25-.169.169-.252 20.329-13.583 20.325-13.719.297-.06.251-.168 23.94-4.761 24.068-4.905.297.058.296-.059h1424.423l1145-1145h-2381.62l-3702.539 3702.538v871.462l-57.852 290.839-164.747 246.562-246.562 164.747-118.399 23.551-66.377 66.493-343.528 142.646-371.966.324-343.776-142.045-263.249-262.79-142.646-343.528-.324-371.966 142.045-343.776 262.79-263.249 194.591-80.802v-313.27l57.852-290.839 164.747-246.562 4147.736-4147.737 246.562-164.746L133477-132205h2739.537l32.136-32.192 343.528-142.646 251.8-.219v-4294.803l-83.074 200.558-178.628 178.629-233.389 96.673h-704.16l-158.75-158.75V-137723h20v-254h-20v-20h-254v20h-20v254h20v1365.25l-158.75 158.75h-704.16l-233.389-96.673-178.628-178.629-63.573-153.478-14.83 22.195-486.181 324.856-573.489 114.074-573.489-114.074-486.181-324.856-210.33-314.781-210.33 314.781-486.181 324.856-518.65 103.166 62.562 62.562 164.747 246.562 57.852 290.839v4665.137l32.192 32.136 142.646 343.528.324 371.966-142.045 343.776-262.79 263.249-343.528 142.646-371.966.324-343.776-142.045-263.249-262.79-142.646-343.528-.001-1.637h-.328l-343.776-142.045-263.249-262.79-142.646-343.528-.041-46.876-3512.522-3512.522-164.747-246.562L124439-135010v-1395.352l-299.67-200.233-210.33-314.781-210.33 314.781-486.181 324.856-573.489 114.074-573.489-114.074-486.181-324.856-323.676-484.415h-3512.412l-111.125 268.943-262.79 263.249-343.528 142.646-371.966.324-343.776-142.045-263.249-262.79-142.646-343.528-.324-371.966 142.045-343.776 262.79-263.249 343.528-142.646 46.876-.041 102.522-102.522 246.562-164.747L117359-138610h3916.654l323.676-484.415 486.181-324.856 573.489-114.074 573.489 114.074 486.181 324.856 210.33 314.781 210.33-314.781 486.181-324.856 573.489-114.074 573.489 114.074 486.181 324.856 210.33 314.781 210.33-314.781 486.181-324.856 573.489-114.074 573.489 114.074 486.181 324.856 210.33 314.781 210.33-314.781 486.181-324.856 573.489-114.074 233.016 46.35 654.802-654.802.002-.003 214.315-143.2h-20491.334l-4.541 1192.417 265.325-397.087 486.181-324.856 573.489-114.074h369.49l573.489 114.074 486.181 324.856 324.856 486.181 114.074 573.489-114.074 573.489-324.856 486.181-314.781 210.33 314.781 210.33 324.856 486.181 114.074 573.489-114.074 573.489-324.856 486.181-314.781 210.33 314.781 210.33 324.856 486.181 114.074 573.489-114.074 573.489-324.856 486.181-314.781 210.33 314.781 210.33 324.856 486.181 114.074 573.489-50.348 253.117h3802.06l-263.249-262.79-142.646-343.528-.324-371.966 142.045-343.776 262.79-263.249 343.528-142.646 120.209-.105 25.75-17.205 290.84-57.852h1846.548l32.136-32.192 343.528-142.646 371.966-.324 343.776 142.045 263.249 262.79 142.646 343.528.324 371.966-142.045 343.776-262.79 263.249-343.528 142.646-371.966.324-343.776-142.045-33.175-33.117h-1295.949l-7.827 18.943-262.79 263.249-343.528 142.646-371.966.324-343.776-142.045h-3802.06l-63.726 320.372-324.856 486.181-314.781 210.33 314.781 210.33 324.856 486.181 114.074 573.489-114.074 573.489-320.318 479.389h5121.479l32.136-32.192 343.528-142.646 371.966-.324 343.776 142.045 263.249 262.79 48.354 116.449h1062.096l32.136-32.192 343.528-142.646 371.966-.324 343.776 142.045 263.249 262.79 142.646 343.528.324 371.966-142.045 343.776-262.79 263.249-343.528 142.646-371.966.324-343.776-142.045-33.175-33.117h-1009.305l-2698.401 2698.401-246.562 164.747-290.839 57.852h-3146.127l-200.233 299.67-314.781 210.33 314.781 210.33 200.233 299.67h4717.55l4078.68-4078.68-.04-45.487 142.045-343.776 262.79-263.249 343.528-142.646 371.966-.324 343.776 142.045 263.249 262.79 142.646 343.528.324 371.966-142.045 343.776-105.827 106.011 104.902 104.719 66.848 160.986 145.823-.127 343.776 142.045 263.249 262.79 142.646 343.528.324 371.966-142.045 343.776-262.79 263.249-343.528 142.646-46.876.041-6343.428 6343.428h3536.23l11760.202-11760.202"/><path fill="none" stroke-width="254" d="M133483.623-127995.201l-6.622-1417.206.057-.297-.058-.296 4.764-23.951 4.677-24.101.167-.252.059-.297 13.595-20.347 13.516-20.434.25-.169.169-.252 20.329-13.583 20.325-13.719.297-.06.251-.168 23.94-4.761 24.068-4.905.297.058.296-.059h1424.423l1145-1145h-2381.62l-3702.539 3702.538v871.462l-57.852 290.839-164.747 246.562-246.562 164.747-118.399 23.551-66.377 66.493-343.528 142.646-371.966.324-343.776-142.045-263.249-262.79-142.646-343.528-.324-371.966 142.045-343.776 262.79-263.249 194.591-80.802v-313.27l57.852-290.839 164.747-246.562 4147.736-4147.737 246.562-164.746L133477-132205h2739.537l32.136-32.192 343.528-142.646 251.8-.219v-4294.803l-83.074 200.558-178.628 178.629-233.389 96.673h-704.16l-158.75-158.75V-137723h20v-254h-20v-20h-254v20h-20v254h20v1365.25l-158.75 158.75h-704.16l-233.389-96.673-178.628-178.629-63.573-153.478-14.83 22.195-486.181 324.856-573.489 114.074-573.489-114.074-486.181-324.856-210.33-314.781-210.33 314.781-486.181 324.856-518.65 103.166 62.562 62.562 164.747 246.562 57.852 290.839v4665.137l32.192 32.136 142.646 343.528.324 371.966-142.045 343.776-262.79 263.249-343.528 142.646-371.966.324-343.776-142.045-263.249-262.79-142.646-343.528-.001-1.637h-.328l-343.776-142.045-263.249-262.79-142.646-343.528-.041-46.876-3512.522-3512.522-164.747-246.562L124439-135010v-1395.352l-299.67-200.233-210.33-314.781-210.33 314.781-486.181 324.856-573.489 114.074-573.489-114.074-486.181-324.856-323.676-484.415h-3512.412l-111.125 268.943-262.79 263.249-343.528 142.646-371.966.324-343.776-142.045-263.249-262.79-142.646-343.528-.324-371.966 142.045-343.776 262.79-263.249 343.528-142.646 46.876-.041 102.522-102.522 246.562-164.747L117359-138610h3916.654l323.676-484.415 486.181-324.856 573.489-114.074 573.489 114.074 486.181 324.856 210.33 314.781 210.33-314.781 486.181-324.856 573.489-114.074 573.489 114.074 486.181 324.856 210.33 314.781 210.33-314.781 486.181-324.856 573.489-114.074 573.489 114.074 486.181 324.856 210.33 314.781 210.33-314.781 486.181-324.856 573.489-114.074 233.016 46.35 654.802-654.802.002-.003 214.315-143.2h-20491.334l-4.541 1192.417 265.325-397.087 486.181-324.856 573.489-114.074h369.49l573.489 114.074 486.181 324.856 324.856 486.181 114.074 573.489-114.074 573.489-324.856 486.181-314.781 210.33 314.781 210.33 324.856 486.181 114.074 573.489-114.074 573.489-324.856 486.181-314.781 210.33 314.781 210.33 324.856 486.181 114.074 573.489-114.074 573.489-324.856 486.181-314.781 210.33 314.781 210.33 324.856 486.181 114.074 573.489-50.348 253.117h3802.06l-263.249-262.79-142.646-343.528-.324-371.966 142.045-343.776 262.79-263.249 343.528-142.646 120.209-.105 25.75-17.205 290.84-57.852h1846.548l32.136-32.192 343.528-142.646 371.966-.324 343.776 142.045 263.249 262.79 142.646 343.528.324 371.966-142.045 343.776-262.79 263.249-343.528 142.646-371.966.324-343.776-142.045-33.175-33.117h-1295.949l-7.827 18.943-262.79 263.249-343.528 142.646-371.966.324-343.776-142.045h-3802.06l-63.726 320.372-324.856 486.181-314.781 210.33 314.781 210.33 324.856 486.181 114.074 573.489-114.074 573.489-320.318 479.389h5121.479l32.136-32.192 343.528-142.646 371.966-.324 343.776 142.045 263.249 262.79 48.354 116.449h1062.096l32.136-32.192 343.528-142.646 371.966-.324 343.776 142.045 263.249 262.79 142.646 343.528.324 371.966-142.045 343.776-262.79 263.249-343.528 142.646-371.966.324-343.776-142.045-33.175-33.117h-1009.305l-2698.401 2698.401-246.562 164.747-290.839 57.852h-3146.127l-200.233 299.67-314.781 210.33 314.781 210.33 200.233 299.67h4717.55l4078.68-4078.68-.04-45.487 142.045-343.776 262.79-263.249 343.528-142.646 371.966-.324 343.776 142.045 263.249 262.79 142.646 343.528.324 371.966-142.045 343.776-105.827 106.011 104.902 104.719 66.848 160.986 145.823-.127 343.776 142.045 263.249 262.79 142.646 343.528.324 371.966-142.045 343.776-262.79 263.249-343.528 142.646-46.876.041-6343.428 6343.428h3536.23l11760.202-11760.202"/><path d="M133495.266-125503.685l-358.87 358.871 177.055 176.746 142.646 343.528.324 371.966-142.045 343.776-262.79 263.249-343.528 142.646-46.876.041L126619-117460.68v298.217l32.192 32.136 142.646 343.528.324 371.966-142.045 343.776-262.79 263.249-343.528 142.646-371.966.324-343.776-142.045-263.249-262.79-142.646-343.528-.324-371.966 103.57-250.659-2311.617 2311.617-98.082 65.536-189.033 126.307-56.191 11.177-282.484 56.191-.005-.001h-3345.878l.122 139.284-210.409 509.23-26.439 26.485h10717.806l1538.68-1538.68-.04-45.487 142.045-343.776 262.79-263.249 343.528-142.646 371.966-.324 343.776 142.045 263.249 262.79 142.646 343.528.324 371.966-142.045 343.776-262.79 263.249-343.528 142.646-46.876.041-1761.522 1761.522-246.562 164.747L129540-112270h-15700.352l-200.233 299.67-314.781 210.33 314.781 210.33 324.856 486.181 114.074 573.489-114.074 573.489-324.856 486.181-314.781 210.33 314.781 210.33 324.856 486.181 114.074 573.489-114.074 573.489-324.856 486.181-22.195 14.83 153.478 63.573 178.629 178.628 96.673 233.389v704.16l-158.75 158.75H112522v-20h-254v20h-20v254h20v1212.85l-158.75 158.75h571.5l-158.75-158.75V-105283h1365.25l158.75 158.75v704.16l-96.673 233.389-178.629 178.628-233.389 96.673h-2284.618l-233.389-96.673-178.629-178.628-87.54-211.34-8.047 2113.041h22858.679l-108.499-23218.685"/><path fill="none" stroke-width="254" d="M133495.266-125503.685l-358.87 358.871 177.055 176.746 142.646 343.528.324 371.966-142.045 343.776-262.79 263.249-343.528 142.646-46.876.041L126619-117460.68v298.217l32.192 32.136 142.646 343.528.324 371.966-142.045 343.776-262.79 263.249-343.528 142.646-371.966.324-343.776-142.045-263.249-262.79-142.646-343.528-.324-371.966 103.57-250.659-2311.617 2311.617-98.082 65.536-189.033 126.307-56.191 11.177-282.484 56.191-.005-.001h-3345.878l.122 139.284-210.409 509.23-26.439 26.485h10717.806l1538.68-1538.68-.04-45.487 142.045-343.776 262.79-263.249 343.528-142.646 371.966-.324 343.776 142.045 263.249 262.79 142.646 343.528.324 371.966-142.045 343.776-262.79 263.249-343.528 142.646-46.876.041-1761.522 1761.522-246.562 164.747L129540-112270h-15700.352l-200.233 299.67-314.781 210.33 314.781 210.33 324.856 486.181 114.074 573.489-114.074 573.489-324.856 486.181-314.781 210.33 314.781 210.33 324.856 486.181 114.074 573.489-114.074 573.489-324.856 486.181-22.195 14.83 153.478 63.573 178.629 178.628 96.673 233.389v704.16l-158.75 158.75H112522v-20h-254v20h-20v254h20v1212.85l-158.75 158.75h571.5l-158.75-158.75V-105283h1365.25l158.75 158.75v704.16l-96.673 233.389-178.629 178.628-233.389 96.673h-2284.618l-233.389-96.673-178.629-178.628-87.54-211.34-8.047 2113.041h22858.679l-108.499-23218.685"/></g><g id="pcb-stackup_bottom_sm"><use x="135359" y="-137850" xlink:href="#Syln_xan1b_pad-11"/><use x="132819" y="-137850" xlink:href="#Syln_xan1b_pad-12"/><use x="130279" y="-137850" xlink:href="#Syln_xan1b_pad-12"/><use x="127739" y="-137850" xlink:href="#Syln_xan1b_pad-12"/><use x="125199" y="-137850" xlink:href="#Syln_xan1b_pad-12"/><use x="122659" y="-137850" xlink:href="#Syln_xan1b_pad-12"/><use x="112395" y="-105410" xlink:href="#Syln_xan1b_pad-13"/><use x="112395" y="-107950" xlink:href="#Syln_xan1b_pad-14"/><use x="112395" y="-110490" xlink:href="#Syln_xan1b_pad-14"/><use x="112395" y="-113030" xlink:href="#Syln_xan1b_pad-14"/><use x="112395" y="-115570" xlink:href="#Syln_xan1b_pad-14"/><use x="112395" y="-118110" xlink:href="#Syln_xan1b_pad-14"/><use x="112395" y="-120650" xlink:href="#Syln_xan1b_pad-14"/><use x="112395" y="-123190" xlink:href="#Syln_xan1b_pad-14"/><use x="112395" y="-125730" xlink:href="#Syln_xan1b_pad-14"/><use x="112395" y="-128270" xlink:href="#Syln_xan1b_pad-14"/><use x="112395" y="-130810" xlink:href="#Syln_xan1b_pad-14"/><use x="112395" y="-133350" xlink:href="#Syln_xan1b_pad-14"/><use x="112395" y="-135890" xlink:href="#Syln_xan1b_pad-14"/><use x="112395" y="-138430" xlink:href="#Syln_xan1b_pad-14"/></g><g id="pcb-stackup_bottom_ss"><path fill="none" stroke-width="100" d="M139195.5-103457.907l210.73-127.768m88.22-1579.755l-77.42 103.2-82.25 87.4m-563.32 165.3l-34.01-.37m394.58-42.7l-132.43 32.12m-161.08 10.95h-67.06m228.14-10.95l-161.08 10.95m403.26-95l-109.75 51.93m202.75-122.23l-93 70.3m-697.47 78.35l-9.18.97m-174.47-130.75l-51.32-54.25m86.75 120.77l-35.43-66.52m51.7 142.25l-16.27-75.73m112.79 66.84l-41.56 3.91-54.96 4.98m122.77-11.5l-26.25 2.61m-1041.67-1856.72h1077.1m-299.32 1386.45l-666.67-666.67m965.99-533.31v1666.67m-234.97-184.03l-64.35-38.9v-243.76m-777.78-1199.98h1077.1m954.96 827.75l11.66 79.91m10.21-188.04l-21.87 108.13m-1518.6 836.05l15.94-29.41m287.11 0l15.89 29.41m-226.72-92.02l32.5-10.1m69.77 0l32.5 10.1 29.36 15.89m25.59 21.11l21.11 25.61m-46.7-46.72l25.59 21.11m-3186.135-3274.04l36.675-58.15m-129.611-684.09l-127.768 210.73m274.632-407.39l-146.864 196.66m311.632-377.98l-164.768 181.32m39.116 841.47l64.724-14.17m438.907-1320.25l-196.664 146.86m630.964-382l-223.58 107.38m2361.12 1838.43l-666.67 666.67m-2513.021-880.06l11.176-65.43m-528.375 688.81v1762.91m51.758-2279.29l-38.574 254.33m101.399-499.68l-62.825 245.35m255.913-703.94l-107.367 223.58m-187.12 734.69l-13.184 262.05m200.304-996.74l-85.721 235.01m2537.877 351.74l-200.04 199.97m-1700.955-579.21l58.052 36.74m-244.467 5.53l56.369-39.28m241.591 153.54l427.08 407.99m-441.511-472.07l14.431 64.08m-53.493-119.79l39.062 55.71m-277.942 194.61l-39.279-56.38-14.159-64.83m818.571-1625.04l-210.72 127.76m-1125.05 3883.57l13.184 262.1m915.202-3998.81l-181.315 164.77m-60.928 1008.62l65.322 11.18m3672.365 4907.99l223.57-107.367m-1220.37 307.617l262.1-13.129m10.69-872.613l36.57 54.688m207.08 779.35l245.34-62.825m-499.68 101.4l254.34-38.575m245.34-62.825l235.02-85.721m-674.05-563.964l-3.47 34.939m-9.92-101.779l13.39 66.84m-3.47 34.939l-10.14 32.497-15.96 29.406m-3412.539-668.348l127.768 210.72 146.864 196.669m-381.999-630.979l107.367 223.59m1732.039 1284.016l254.35 38.575m-2242.302-2026.521l62.825 245.33 85.721 235.01m1594.076 1444.781l245.33 62.825m1707.69-1483.336l-20.57 32.22m33.7-68.74l-13.13 36.52m-47.58 59.03v590.268m27.01-617.078l-27.01 26.81m65.26-135.42l-4.55 39.87m-9.02-107.2l10.1 32.44M134561.284-105444.29l38.574 254.35m2504.342 2039.65h870.93m-1132.97-13.129l262.04 13.129m-528.86-656.956l-34.89-3.472m-138.41-169.758l5.32-42.481 14.92-38.629m-314.83 711.046l235.03 85.721m267.75-545.899l-34.89 3.472m-1280.169-90.061l181.315 164.768m407.384 274.632l223.58 107.367m-977.047-728.081l164.768 181.314m377.979 311.632l210.72 127.768m-407.384-274.632l196.664 146.864m-607.851-1493.715l14.159-64.83m152.181-104.11l40.582 3.26m-195.746 231.11l-11.176-65.43m47.851 123.54l-36.675-58.11m76.66-212.23l38.194-15.89m-72.592 41.44l34.398-25.55m38.194-15.89l40.31-6.25m-152.181 104.11l39.279-56.42m4394.213-2534.29l-26.53 64.72-9.39 71.78 21.86 108.18m-954.58 810.93v-1666.66m193.14 3536.08v-3555.89m-427.74 3569.18l3.47 34.89m-2095.32-255.6l-93.97-105.68m199.54 186.36l-1.34-.65m-198.2-185.71l-84.1-126.08m380.12 180.07l-40.59 37.21-32.55 44.54-23.34 50.62m-1.34-.65l-104.23-80.03m916.02-942.22l-300.03 300.03m411.14-522.25h-444.45v222.22h333.34m777.78 0v-222.22m-666.67-311.09v311.09m222.22 0v-311.09m444.45 311.09h-444.45m111.11 222.22h333.34m-9.5 1011.78l-34.45 72.43m-511.61-973.1l666.67 666.67M137000.52-105492.85l355.58-355.58m666.67 666.67v132.98l-67.71 42.05-52.9 58.97m-1141.55-116.75l-71.18-41.18m163.36 174.86l-36.41-74.06-55.77-59.62m-293.4-33.21l-47.3 28.71m269.52-36.68v-76.07m-222.22-111.11v195.15m222.22-84.04l111.11-111.11h400.02l-200.04-199.98m-355.52-355.58v377.78l-177.79 177.78m366.64-366.64l-188.85-188.92m712.84 1079.54l-253.81-8.02-242.72-19.44m994.46 19.1l-243.75 7.45m243.37-23.39l.38 15.94m-243.75 7.45l-254.18.91m-940.49-58.8l3.53-34.89m440.43 66.23l4.5-50.01-13.02-84.47m1149.52 1138.83l-21.1-25.662m108.56 72.916l-32.45-10.145m-29.4-15.95l-25.61-21.159m55.01 37.109l-29.4-15.95m-62.61-76.227l-10.08-32.497m25.98 61.903l-15.9-29.406m303 29.406l-21.15 25.662-25.67 21.159m-61.9 26.095l-34.93 3.473m96.83-29.568l-29.4 15.95-32.5 10.145m-34.93 3.473l-34.89-3.473m-46.34-1160.434l29.46-15.89m32.5-10.1l34.89-3.52 34.88 3.52m-157.39 47.1l25.66-21.11m-72.26 181l-4.18-37.54m29.62-96.74l21.16-25.61m-47.25 87.46l10.15-32.44m-112.96-46.28l-12.32 82.14m111.6 31.47l3.53-34.89m30.93 138.01l-18.5-30.91m42.75 57.29l-24.25-26.38m24.25 602.385v-576.005m-42.75-57.29l-11.78-34.67m24.14 695.093l30.39-27.128m-68.7 99.231l14.93-38.63m-20.23 81.11l5.3-42.48m14.93-38.63l23.38-33.473m-40.08 149.522l-3.53-34.939m-2263.19-1728.526l11.88-70.52M136023.2-105711.22l11.18 65.43m-47.96-123.58l36.78 58.15m-322.81-2.33l41.23-61.42m292.76 129.18l-14.17 64.83m112.25-65.37l-21.86-108.5m-368.98-20.14l58.16-36.67m162.43-91.58l-108.55-21.92m-53.88 113.5l65.43-11.18m-88.27-91.58l-29.95-115.13m118.22 206.71l64.83 14.17m-183.05-220.88l-25.33-107.9m259.22 612.85l-67.44 40.08m172.37-7.04l34.39-72.54m-155.06 173.66l67.77-42m-119.47-52.08l-75.63 6.4m195.1 45.68l52.9-59.12m-65.6-89.42l-39.33 56.38m129.72-230.25l-59.79-88.6m-197.15-81.71l-76.72 10.74m153.1 105.75l56.38 39.28m64.39-74.06l-88.6-59.79m-278.31-418.29l-12.7-71.18m-14.05-88.17l-1.74-11.99m66.25 355.42l-21-98.21m-38.36-211.04l-5.15-34.18m14.05 88.17l-8.9-53.99m38.36 211.04l-16.76-85.87m988.17 2484.696l-29.34 15.95m76.05-62.77l-21.1 25.662m37-55.068l-15.9 29.406m-21.1 25.662l-25.61 21.158m-29.34 15.95l-32.5 10.146m138.01-169.758l-3.47 34.939-10.09 32.497m.16-134.276l13.4 66.84m-23-738.604l-27.01 26.8m-264.94-63.2l-11.76-34.67m324.32 38.85l-20.61 32.22m-303.71-71.07l-4.18-37.54m341.64 39.87l-13.14 36.52m-269.85 53.11l-24.21-26.38m-20.06 840.936l-16.01-29.406m124.73 102.322l-32.5-10.146m-102.38-124.673l-3.53-34.939m105.91 159.612l-29.41-15.95-25.65-21.158-21.16-25.662m-16.01-29.406l-10.15-32.497m70.43-176.65v-576.003m-24.21-26.38l-18.5-30.91m-11.01 693.894l23.33-33.473 30.39-27.128m222.23-570.093v590.276l36.61 54.688m-624.24-3369.964l-59.79 88.6m594.19 4.95v-377.82m155.54 488.93h333.34m-300.03-300.03l-188.85 188.92m0-377.82l-177.79-177.74m-1194.663-47.75l-40.636 3.36m456.599 394.6l-415.963-397.96m-81.055-2.87l-38.303-15.89m547.251 487.25l-11.93-70.53m-456.599-394.6l-40.419-6.23m550.128 532.77l-41.18-61.41m-547.251-487.25l-34.452-25.67M136132.46-107525.83l-21.86 108.55m-76.22-109.04l-11.18 65.49m97-147.2l12.26 82.2m-112.25-65.32l14.17 64.83m51.43-154.25l34.39 72.54m-206.59-79.48l67.27 39.98 39.33 56.38m12.7-148.56l52.9 59.14m-247.62-13.44l75.42 6.5m1442.49 363.78l666.67-666.67m-444.45 777.78h333.34v222.22h-444.45m-1537.17-373l-64.83 14.17m157.99-111.6l-36.78 58.1-56.38 39.33m-130.26 2.98l-58.16-36.72m123.59 47.91l-65.43-11.19m1334.1 147.8l-300.03-300.03m411.14 522.25h-444.45m666.67 0v311.08m-466.69-1000l355.58 355.59m-111.11 644.41v-311.14m-444.45.06v-222.22m-1145.13 533.3h1589.58m0-311.14v.06m-1589.58 497.55h1589.58m-798.02 1568.42l21.16-25.61m25.66-21.11l29.41-15.89m-102.32 124.46l10.14-32.45m124.68-102.11l34.89-3.53m-67.39 13.63l32.5-10.1m-87.57 47.1l25.66-21.11m-62.77 76.12l15.95-29.4M136760.07-104862.58l3.47 34.89m-13.56-67.34l10.09 32.45m3.47 34.89l-4.55 39.87m-133.47-209.32l32.44 10.1m-67.37-13.63l34.93 3.53m87.46 47.1l21.11 25.61m-46.73-46.72l25.62 21.11m21.11 25.61l15.89 29.4m-92.02-92.01l29.4 15.89m-1453.117 68.8l-64.724-14.16-56.369-39.34m283.529-50.12l-39.062 55.65-58.052 36.79-65.322 11.18m176.867-167.76l-14.431 64.14m-124.458-239.1l416.289-397.96m149.3 164.93l-426.7 407.99m628.68-178.97l-74.65-141.34m155.06-173.66l12.26-82.25m-431.8-1290.2l-16.76 85.93-12.7 71.19-8.9 53.98m-5.15 34.18l-1.74 11.93m6.89-46.11l-5.15 34.18m64.51-343.43l-21 98.15m261.55-332.36l-108.55 21.86m197.15-81.65l-88.6 59.79m-108.55 21.86l-76.72-10.79m-29.95 115.18l-25.33 107.96m55.28-223.14l-29.95 115.18m3363.07-1185.82l100.42 45.35m-473.03-82.68l34.01-.32m524.14 144.64l76.07 76.82m-161.19-138.46l85.12 61.64m-307.44-135.04l121.9 28.05m-338.6-37.65h67.06l149.64 9.6m-575.8-1.95l-16.27 75.74m-151.1 159.67v243.76M138467.32-108353.42l-54.96-5.04m122.77 11.56l-26.25-2.61m35.43 3.53l-9.18-.92m-26.25-2.61l-41.56-3.91m904.35 208.77l73.24 90.98 76.61 103.95m-2762.53-434.51l4.55 39.82m97.77-31.41l4.5 49.96m-102.27-18.55l-3.47 34.94M137104.03-108395.19l-242.72 19.37m-60.77 496.53h400.02m-334.75-446.57l-13.02 84.53m1002.98-153.59l-243.75-7.38m255.69 105.47l-12.32-82.14m-243.37-23.33l-254.18-.92-253.81 8.03m751.36 16.22l.38-15.95m-1388.56 320.48l-47.3-28.7m269.52 36.67v76.07m126.95-176.88l-55.77 59.68m-293.4 228.31v-195.15m222.22 84.04l111.11 111.11m-380.63-223.85l-40.59-37.22m381.29 32.76l-71.18 41.13m-268.55-243l-3.53-34.94 4.18-37.49m25.44 134.28l-15.95-29.41-10.14-32.44m47.25 87.46l-21.16-25.61m-100.2 62.77l-23.34-50.73m-1.34.71l-104.23 80.08m161.46 14.43l-32.55-44.49m-128.91 30.06l-93.97 105.63m199.54-186.42l-1.34.71m-356.95 453.12l67.77 42.04m6.88-183.32l-74.65 141.28m158.75-267.41l-84.1 126.13m618.17-261.98l-32.44 10.09m-69.82 0l-32.5-10.09-29.41-15.9-25.66-21.1m122.46 50.57l-34.89-3.48m69.82 0l-34.93 3.48m262.2-69.89l-36.41 74.05m-129.02-33.63l-29.4 15.9m76.13-62.61l-21.11 25.61m37-55.02l-15.89 29.41m-21.11 25.61l-25.62 21.1m72.71-108.56l-10.09 32.44m-209.53-1084.3l34.89-3.53 34.89 3.53m-131.69 26.1l29.41-15.96m-165.47-559.63l-235.03 85.72m400.5 473.91l32.5-10.14m184.79 908.36l20.61 32.22m-324.32 38.85l11.76-34.67 18.5-30.91m246.44-32.35l27.01 26.86m-273.45 5.49l24.21-26.43m269.85 53.16l13.14 36.52m1196.24-908.53l10.08-32.5m-1322.58-25.93l29.34 15.96m-61.84-26.1l32.5 10.14m1308.97 93.26l3.53-34.83m-1220.55 33.75l10.09 32.5m3.47 34.87l-13.4 66.91m-62.77-210.5l25.61 21.15m21.1 25.66l15.9 29.41m10.09 32.5l3.47 34.87m-50.56-122.44l21.1 25.66m-273.17 211.42l-23.33-33.47m312.56-14.26l-36.61 54.62m-275.95-40.36l-14.92-38.63m68.64 99.18l-30.39-27.08m252.62 6.89v590.28m-222.23 5.92v-576.01m-23.11-264.16l25.65-21.15m-46.81 46.81l21.16-25.66m-37.17 55.07l16.01-29.41m-29.69 96.78l3.53-34.87 10.15-32.5m-8.36 109.91l-5.32-42.54m1897.57 848.36l-15.89 29.42m25.99-61.9l-10.1 32.48m-15.89 29.42l-21.11 25.65m46.73 126.31l-64.35 38.85m151.1-159.67l-35.43 66.57-51.32 54.25m-34.41-357.1l20.57 32.13 13.13 36.4 4.55 39.76-3.47 34.95m-313.1 61.9l-15.94-29.42m-10.15-32.48l-3.53-34.95 15.96-72m-2.28 139.43l-10.15-32.48m292.09 87.55l-25.59 21.17-29.36 16m-67.38 13.62l-34.89-3.47m69.77 0l-34.88 3.47m67.38-13.62l-32.5 10.15m-69.77 0l-32.5-10.15m-29.46-16l-25.66-21.17m-115.61 63.81l-34.45-72.43m155.06 306.43v-133.03m50.12-127.61l-29.46-16m-88.37 101.67l-52.9-59.03m120.61 100.97l-67.71-41.94m62.71-122.84l-21.16-25.65m1409.62-1276.1l-210.73-127.76-223.57-107.38-235.02-85.72m-734.6 530.6l25.61-21.1 29.4-15.9m-76.11 62.61l21.1-25.61m244.85 0l21.15 25.61m-108.72-72.69l32.5 10.08m-134.77 0l32.45-10.08m-64.07 311.41l-30.39-27.14m-12.36 660.32l42.75-57.18v-576m-30.39-27.14l-23.38-33.58m275.99 40.53v590.28l27.01 26.8m9.56-671.87l-36.57 54.79m20.39-218.53l15.96 29.35m-318.96 0l15.9-29.35m313.2 61.85l3.47 34.83-13.39 67.06m-.22-134.39l10.14 32.5m-337.41 77.41l-5.3-42.58m20.23 81.32l-14.93-38.74m235.09-201.87l29.4 15.9 25.67 21.1m-157.39-47.08l34.89-3.53 34.93 3.53"/><path fill="none" stroke-width="200" d="M136750.001-139452.381h-619.048l333.334-380.952h-142.858l-95.238-47.619-47.619-47.619-47.619-95.239v-238.095l47.619-95.238 47.619-47.619 95.238-47.619h285.715l95.238 47.619 47.619 47.619m-1047.619 0l-47.619-47.619 47.619-47.619 47.619 47.619-47.619 47.619v-95.238m-380.952 1000h-619.048l333.334-380.952h-142.858l-95.238-47.619-47.619-47.619-47.619-95.239v-238.095l47.619-95.238 47.619-47.619 95.238-47.619h285.715l95.238 47.619 47.619 47.619m-952.381 571.429l-238.095-666.667-238.096 666.667m-1095.238-619.048l-95.238-47.619h-190.476l-95.239 47.619-47.619 95.238v47.619l47.619 95.238 95.239 47.619h142.857l95.238 47.619 47.619 95.239v47.619l-47.619 95.238-95.238 47.619h-142.857l-95.239-47.619m-857.143-571.429l95.238-47.619h190.477l95.238 47.619 47.619 95.238v380.953l-47.619 95.238-95.238 47.619h-190.477l-95.238-47.619-47.619-95.238v-95.239l476.191-95.238m-904.762-333.333v666.667m0-190.476l-47.619 95.238-47.619 47.619-95.238 47.619h-95.239m-333.333-666.667v666.667m0 333.333l47.619-47.619-47.619-47.619-47.619 47.619 47.619 47.619v-95.238m-904.762-904.762v523.81l47.619 95.238 95.238 47.619h190.477l95.238-47.619m-428.572-571.429l95.238-47.619h238.096l95.238 47.619 47.619 95.238v95.238l-47.619 95.238-95.238 47.619h-238.096l-95.238 47.619m-619.047-428.571l95.238 47.619 47.619 95.238v857.143m-1714.287-333.333v-666.667m428.572 666.667v-523.81l-47.619-95.238-95.238-47.619h-142.858l-95.238 47.619-47.619 47.619m-428.571-47.619l-95.238-47.619h-190.476l-95.239 47.619-47.619 95.238v47.619l47.619 95.238 95.239 47.619h142.857l95.238 47.619 47.619 95.239v47.619l-47.619 95.238-95.238 47.619h-142.857l-95.239-47.619m-476.19-619.048v1000m0-380.952l-95.238 47.619h-190.477l-95.238-47.619-47.619-47.619-47.619-95.238v-285.715l47.619-95.238 47.619-47.619 95.238-47.619h190.477l95.238 47.619m-2095.239 0l95.238-47.619h190.477l95.238 47.619 47.619 47.619 47.619 95.238v285.715l-47.619 95.238-47.619 47.619-95.238 47.619h-190.477l-95.238-47.619m-857.143-619.048v523.81l47.619 95.238 95.238 47.619h190.477l95.238-47.619m-428.572-571.429l95.238-47.619h238.096l95.238 47.619 47.619 95.238v95.238l-47.619 95.238-95.238 47.619h-238.096l-95.238 47.619m-476.19-428.571v1000m0-380.952l-95.238 47.619h-190.477l-95.238-47.619-47.619-47.619-47.619-95.238v-285.715l47.619-95.238 47.619-47.619 95.238-47.619h190.477l95.238 47.619m-1047.619-47.619l95.238 47.619 47.619 95.238v857.143m-904.763-952.381l95.238-47.619h190.477l95.238 47.619 47.619 95.238v380.953l-47.619 95.238-95.238 47.619h-190.477l-95.238-47.619-47.619-95.238v-95.239l476.191-95.238M133705-123915v21500m1000-21500h-1000m7500 0h-6500m6500 21500v-21500m-7500 21500h7500"/><path fill="none" stroke-width="100" d="M139680.27-107736.78l-25.61 21.17m441.19 3440.32l127.76-210.72m-358.02-1442.28l-88.55-14.58m639.66 998.26l62.83-245.33m-148.55-3276.1l-107.37-223.58m-642.95 2828.12l-59.52 88.27m96.4-1752.6l15.95 29.4m265.96 25.61l21.15-25.61m-143.56 76.28l34.89-3.47m61.91-313.16l-29.41-15.94m251.42-1147.63l-146.87-196.66m-341.53 1538.68l10.09 32.5m278.49 1722.44l-29.4-16.01m-20.14-1516.88l29.74 161.36m-1639-2837.3l-262.1-13.18m1993.76 4330.62l-10.1-32.44m-146.86-1696.4l32.5-10.09m104.55-1663.3l-164.77-181.32m-176.6 1444.5l-53.43 43.57m925.35 2600.32l38.57-254.35m-1111.87 1858.615l196.66-146.864m915.21-3998.811l-38.57-254.33m-802.68 2448.24l25.65 21.11m81.71-3762l-181.32-164.77m283.53 2435.66v838.87m63.69-1424.65l-3.47-34.88M139633.49-107690l-15.95 29.4m92.13 226.89l32.5 10.09m134.06 248.7l10.19 167.48m-12.58-442.22l25.61-21.16m-222.6 1688.53l-21.11 25.67m178.39-72.86l-34.89-3.53m67.39 13.61l-32.5-10.08m124.66 236.97l10.1-32.5m-19.91 1546.389l146.87-196.669m-353.68-3487.53l-32.5 10.1m54.68 1923.24l-32.44 10.08m-98.42-1677.03l21.17 25.61m-25.02 1776.04l-3.53 34.89m-23.22 1927.351l181.32-164.768m174.58-1829.913l-16-29.4m-98.36-1996.1l-32.5-10.1m-1836.8-2262.58h-870.93m2605.47 2272.68l-29.4 15.94m131.66-26.04l-34.89-3.51m143.56 269.9l15.96-29.4m35.8 1865.94l-3.47-34.89m-191.85-2071.55l-34.87 3.51m157.28 47.21l-25.61-21.17m-315.43 334.81l88.27 59.51m11.93 1928.77l-85.61 130.69m271.43-2150.71l29.41-15.95m72.8-178.44l-10.08-32.5m-392.9 2146.21l50.34 58.32m348.79-300.55l-21.11-25.67m14.88-1878.31l-15.96-29.4m-303.06 29.4l-10.09 32.5m329.11 102.27l10.08-32.5m-50.61 2042l25.65-21.11M139920.6-107690l-21.15-25.61m-157.28 291.99l34.87 3.47m702.49-565.53l-62.83-245.35m-550.07 2730.7l29.4-16m327.58 1030.32l107.37-223.59m-546.77 812.293l164.77-181.314m-309.24-1513.889l16 29.4m-51.81-2030.11l3.52 34.89m314.23 2020.89l21.11-25.67m-21.11-219.18l-25.65-21.1m-96.79 316.61l34.89-3.47m-231.24-3952.85l-196.66-146.86m-2564.07-422.26l-254.35 38.58m3066.85 2258.03l-21.17 25.61m-26.04 61.9l-3.52 34.88m64.99 1672.21l-88.26 59.51m74-1609.32l25.61 21.16m-50.63 1824.65l10.1 32.5m115.07-1728.14l91.68-15.63m-292.31-453.98l-41.23 55.33m167.32 285.27l29.4 15.95m-972.76-2477.11l-245.34-62.82m1925.13 1742.61l-85.72-235.01m-820.05 2880.85l32.73 70.8m-2439.46-4511.01l-262.04 13.18m-254.35 38.58l-245.33 62.82m3156.41 2420.57l59.52 88.28m972.82 1695.58v-1762.91m-731.99 1636.29l-34.89 3.53m-108.61 266.37l21.11 25.67m100.19-405.43l-108.12 21.86m33.58 404.68l29.41 16m-1240.34-4473.31l-254.34-38.58m1731.66 4387.21l3.47-34.88m-208.01 169.64l34.89 3.47m718.86 42.49l13.13-262.1m-644.81-462.18l-20.83 240.28m-239.48 268.4l3.53 34.88m102.27-194.39l-29.41 16.01m521.11-2886.23l-127.76-210.73m-153.06 3337.24l16-29.4m-319.05-134.71l-10.1 32.44m102.27 194.45l32.44 10.08m182.29-2068.08l3.47-34.89m-247.61 1789.83l-25.65 21.1M139834.13-105490.25l32.5-10.08m-345.11-2449.39l86.09 115.89m723.37 3124.23l85.72-235.01m-770.02-2397.85l108.13 21.81m-160.81 1864.58l64.61 42.38m872.62-2055.61l-13.13-262.05m-862.36 1974.73l-16 29.4m-66.74 444.22l-78.55 117.57"/><path fill="none" stroke-width="200" d="M138963.238-122380.952l-47.619-95.238v-190.477l47.619-95.238 95.238-47.619h380.953l95.238 47.619 47.619 95.238v190.477l-47.619 95.238-95.238 47.619h-95.239l-95.238-476.191m-285.714 857.143l-47.619 95.238v190.476l47.619 95.239 95.238 47.619h47.619l95.238-47.619 47.619-95.239v-142.857l47.619-95.238 95.239-47.619h47.619l95.238 47.619 47.619 95.238v142.857l-47.619 95.239m47.619 476.19h-1000m952.381 0l47.619 95.238v190.477l-47.619 95.238-47.619 47.619-95.238 47.619h-285.715l-95.238-47.619-47.619-47.619-47.619-95.238V-121000l47.619-95.238m523.81 1047.619l47.619-95.238 47.619-47.619 95.238-47.619h47.619l95.238 47.619 47.619 47.619 47.619 95.238v190.477l-47.619 95.238-47.619 47.619-95.238 47.619h-47.619l-95.238-47.619-47.619-47.619-47.619-95.238v-190.477l-47.619-95.238-47.619-47.619-95.239-47.619h-190.476l-95.238 47.619-47.619 47.619-47.619 95.238v190.477l47.619 95.238 47.619 47.619 95.238 47.619h190.476l95.239-47.619 47.619-47.619 47.619-95.238m333.333 571.428l47.619 47.619 47.619 95.238v238.096l-47.619 95.238-47.619 47.619-95.238 47.619h-95.238l-142.857-47.619-571.429-571.429v619.048m1000 857.143v-190.477l-47.619-95.238-47.619-47.619-142.857-95.238-190.476-47.619h-380.953l-95.238 47.619-47.619 47.619-47.619 95.238v190.477l47.619 95.238 47.619 47.619 95.238 47.619h238.095l95.239-47.619 47.619-47.619 47.619-95.238v-190.477l-47.619-95.238-47.619-47.619-95.239-47.619m571.429 1428.572v-190.477l-47.619-95.238-47.619-47.619-142.857-95.238-190.476-47.619h-380.953l-95.238 47.619-47.619 47.619-47.619 95.238v190.477l47.619 95.238 47.619 47.619 95.238 47.619h238.095l95.239-47.619 47.619-47.619 47.619-95.238v-190.477l-47.619-95.238-47.619-47.619-95.239-47.619m-47.619 1000v761.905m-380.952 1000v-571.429m0 285.714h1000l-142.857-95.238-95.238-95.238-47.619-95.238m190.476 952.381l47.619 47.619 47.619 95.238v238.096l-47.619 95.238-47.619 47.619-95.238 47.619h-95.238l-142.857-47.619-571.429-571.429v619.048m666.667 1095.238l-666.667 238.095 666.667 238.096m333.333 285.714v619.048l-380.952-333.334v142.858l-47.619 95.238-47.619 47.619-95.239 47.619h-238.095l-95.238-47.619-47.619-47.619-47.619-95.238v-285.715l47.619-95.238 47.619-47.619m-1795.238-10952.382h1000m-380.952 0l47.619 95.238v190.477l-47.619 95.238-47.619 47.619-95.238 47.619h-285.715l-95.238-47.619-47.619-47.619-47.619-95.238v-190.477l47.619-95.238m-47.619 904.762h666.667m-190.476 0l95.238 47.619 47.619 47.619 47.619 95.238v95.239m-619.048 714.286l-47.619-95.238v-190.477l47.619-95.238 95.238-47.619h380.953l95.238 47.619 47.619 95.238v190.477l-47.619 95.238-95.238 47.619h-95.239l-95.238-476.191m-333.333 1333.334h523.81l95.238-47.619 47.619-95.238v-190.477l-47.619-95.238m-571.429 428.572l-47.619-95.238v-238.096l47.619-95.238 95.238-47.619h95.238l95.238 47.619 47.619 95.238v238.096l47.619 95.238m-428.571 476.19h1000m-619.048 95.238l-380.952 285.715m666.667 0l-380.953-380.953m-285.714 952.381l47.619-95.238 47.619-47.619 95.238-47.619h285.715l95.238 47.619 47.619 47.619 47.619 95.238v142.858l-47.619 95.238-47.619 47.619-95.238 47.619h-285.715l-95.238-47.619-47.619-47.619-47.619-95.238v-142.858m666.667 1190.477h-666.667m666.667-428.572h-523.81l-95.238 47.619-47.619 95.238v142.858l47.619 95.238 47.619 47.619m571.429 333.333v380.952m333.333-238.095h-857.143l-95.238 47.619-47.619 95.238v95.238m0 1095.239h1000m-380.952 0l47.619 95.238v190.477l-47.619 95.238-47.619 47.619-95.238 47.619h-285.715l-95.238-47.619-47.619-47.619-47.619-95.238v-190.477l47.619-95.238m-47.619 1047.619l47.619-95.238 47.619-47.619 95.238-47.619h285.715l95.238 47.619 47.619 47.619 47.619 95.238v142.858l-47.619 95.238-47.619 47.619-95.238 47.619h-285.715l-95.238-47.619-47.619-47.619-47.619-95.238v-142.858m0 1190.477h523.81l95.238-47.619 47.619-95.238v-190.477l-47.619-95.238m-571.429 428.572l-47.619-95.238v-238.096l47.619-95.238 95.238-47.619h95.238l95.238 47.619 47.619 95.238v238.096l47.619 95.238m-428.571 476.19h666.667m-190.476 0l95.238 47.619 47.619 47.619 47.619 95.238v95.239m-666.667 761.905h1000m-952.381 0l-47.619-95.238v-190.477l47.619-95.238 47.619-47.619 95.238-47.619h285.715l95.238 47.619 47.619 47.619 47.619 95.238v190.477l-47.619 95.238m-2319.048-11000.003h1000l-714.286 333.334 714.286 333.333h-1000m0 904.762h523.81l95.238-47.619 47.619-95.238v-190.477l-47.619-95.238m-571.429 428.572l-47.619-95.238v-238.096l47.619-95.238 95.238-47.619h95.238l95.238 47.619 47.619 95.238v238.096l47.619 95.238m238.096 333.333v380.952m333.333-238.095h-857.143l-95.238 47.619-47.619 95.238v95.238m666.667 190.477v380.952m333.333-238.095h-857.143l-95.238 47.619-47.619 95.238v95.238m1000 952.382l-1000 333.333 1000 333.334m-952.381 714.286l-47.619-95.238v-190.477l47.619-95.238 95.238-47.619h380.953l95.238 47.619 47.619 95.238v190.477l-47.619 95.238-95.238 47.619h-95.239l-95.238-476.191m333.334 904.762h-666.667m571.429 0l47.619 47.619 47.619 95.238v142.858l-47.619 95.238-95.238 47.619h-523.81m666.667 476.19h-666.667m571.429 0l47.619 47.619 47.619 95.238v142.858l-47.619 95.238-95.238 47.619h-523.81m904.762 1190.476l47.619 47.619 47.619 95.238v238.096l-47.619 95.238-47.619 47.619-95.238 47.619h-95.238l-142.857-47.619-571.429-571.429v619.048m1000 619.047v95.239l-47.619 95.238-47.619 47.619-95.238 47.619-190.476 47.619h-238.096l-190.476-47.619-95.238-47.619-47.619-47.619-47.619-95.238v-95.239l47.619-95.238 47.619-47.619 95.238-47.619 190.476-47.619h238.096l190.476 47.619 95.238 47.619 47.619 47.619 47.619 95.238m-1000 1285.715v-571.429m0 285.714h1000l-142.857-95.238-95.238-95.238-47.619-95.238m285.714 1428.572v-190.477l-47.619-95.238-47.619-47.619-142.857-95.238-190.476-47.619h-380.953l-95.238 47.619-47.619 47.619-47.619 95.238v190.477l47.619 95.238 47.619 47.619 95.238 47.619h238.095l95.239-47.619 47.619-47.619 47.619-95.238v-190.477l-47.619-95.238-47.619-47.619-95.239-47.619"/><path fill="none" stroke-width="150" d="M113665-106680v-33020h-2540v33020m-280 2820v-1550m280-1270h2540m280 1270v1550h-3100m2161.095 537.619v1000h-380.953l-95.238-47.619-47.619-47.619-47.619-95.238v-142.857l47.619-95.238 47.619-47.619 95.238-47.619h380.953m-952.381 428.571l-47.619 47.619-95.238 47.619h-238.096l-95.238-47.619-47.619-47.619-47.619-95.238v-95.238l47.619-142.857 571.429-571.429h-619.048"/></g><g id="pcb-stackup_bottom_drl2"><use x="116859" y="-137350" xlink:href="#Hkw2ue6hy-_pad-1"/><use x="118359" y="-131350" xlink:href="#Hkw2ue6hy-_pad-1"/><use x="119328" y="-126457" xlink:href="#Hkw2ue6hy-_pad-1"/><use x="121018" y="-131600" xlink:href="#Hkw2ue6hy-_pad-1"/><use x="121793" y="-126111" xlink:href="#Hkw2ue6hy-_pad-1"/><use x="123571" y="-124079" xlink:href="#Hkw2ue6hy-_pad-1"/><use x="123571" y="-125349" xlink:href="#Hkw2ue6hy-_pad-1"/><use x="124391" y="-123513" xlink:href="#Hkw2ue6hy-_pad-1"/><use x="125859" y="-116600" xlink:href="#Hkw2ue6hy-_pad-1"/><use x="128905" y="-126111" xlink:href="#Hkw2ue6hy-_pad-1"/><use x="129109" y="-131100" xlink:href="#Hkw2ue6hy-_pad-1"/><use x="129859" y="-130350" xlink:href="#Hkw2ue6hy-_pad-1"/><use x="131699" y="-115189" xlink:href="#Hkw2ue6hy-_pad-1"/><use x="132521" y="-124438" xlink:href="#Hkw2ue6hy-_pad-1"/><use x="136779" y="-131445" xlink:href="#Hkw2ue6hy-_pad-1"/><use x="117359" y="-114600" xlink:href="#Hkw2ue6hy-_pad-2"/><use x="112395" y="-105410" xlink:href="#Hkw2ue6hy-_pad-3"/><use x="112395" y="-107950" xlink:href="#Hkw2ue6hy-_pad-3"/><use x="112395" y="-110490" xlink:href="#Hkw2ue6hy-_pad-3"/><use x="112395" y="-113030" xlink:href="#Hkw2ue6hy-_pad-3"/><use x="112395" y="-115570" xlink:href="#Hkw2ue6hy-_pad-3"/><use x="112395" y="-118110" xlink:href="#Hkw2ue6hy-_pad-3"/><use x="112395" y="-120650" xlink:href="#Hkw2ue6hy-_pad-3"/><use x="112395" y="-123190" xlink:href="#Hkw2ue6hy-_pad-3"/><use x="112395" y="-125730" xlink:href="#Hkw2ue6hy-_pad-3"/><use x="112395" y="-128270" xlink:href="#Hkw2ue6hy-_pad-3"/><use x="112395" y="-130810" xlink:href="#Hkw2ue6hy-_pad-3"/><use x="112395" y="-133350" xlink:href="#Hkw2ue6hy-_pad-3"/><use x="112395" y="-135890" xlink:href="#Hkw2ue6hy-_pad-3"/><use x="112395" y="-138430" xlink:href="#Hkw2ue6hy-_pad-3"/><use x="122659" y="-137850" xlink:href="#Hkw2ue6hy-_pad-3"/><use x="125199" y="-137850" xlink:href="#Hkw2ue6hy-_pad-3"/><use x="127739" y="-137850" xlink:href="#Hkw2ue6hy-_pad-3"/><use x="130279" y="-137850" xlink:href="#Hkw2ue6hy-_pad-3"/><use x="132819" y="-137850" xlink:href="#Hkw2ue6hy-_pad-3"/><use x="135359" y="-137850" xlink:href="#Hkw2ue6hy-_pad-3"/></g><clipPath id="pcb-stackup_bottom_out"><path fill="none" stroke-width="100" d="M142240-101600h-32385v-39370h32395l-10 39370"/></clipPath><mask id="pcb-stackup_bottom_mech-mask"><g stroke="#000"><path fill="#fff" d="M109855-140970h32395v39370h-32395z"/><use xlink:href="#pcb-stackup_bottom_drl1"/><use xlink:href="#pcb-stackup_bottom_drl2"/></g></mask><mask id="pcb-stackup_bottom_cf-mask"><g fill="#fff" stroke="#fff"><use xlink:href="#pcb-stackup_bottom_sm"/></g></mask><mask id="pcb-stackup_bottom_sm-mask"><g stroke="#000"><path fill="#fff" d="M109855-140970h32395v39370h-32395z"/><use xlink:href="#pcb-stackup_bottom_sm"/></g></mask></defs><g><g mask="url(#pcb-stackup_bottom_mech-mask)" clip-path="url(#pcb-stackup_bottom_out)" transform="rotate(180 126052.5 -121285)"><path fill="currentColor" d="M109855-140970h32395v39370h-32395z" class="pcb-stackup_fr4"/><use fill="currentColor" stroke="currentColor" xlink:href="#pcb-stackup_bottom_cu" class="pcb-stackup_cu"/><use fill="currentColor" stroke="currentColor" xlink:href="#pcb-stackup_bottom_cu" class="pcb-stackup_cf" mask="url(#pcb-stackup_bottom_cf-mask)"/><g mask="url(#pcb-stackup_bottom_sm-mask)"><path fill="currentColor" d="M109855-140970h32395v39370h-32395z" class="pcb-stackup_sm"/><use fill="currentColor" stroke="currentColor" xlink:href="#pcb-stackup_bottom_ss" class="pcb-stackup_ss"/></g></g></g></svg>