<svg xmlns="http://www.w3.org/2000/svg" id="pcb-stackup_bottom" fill-rule="evenodd" stroke-width="0" stroke-linecap="round" stroke-linejoin="round" xmlns:xlink="http://www.w3.org/1999/xlink" clip-rule="evenodd" viewBox="168.7 106.98 3799.21 1535.44"><defs><style>.pcb-stackup_fr4 {color: #4D542C;} .pcb-stackup_cu {color: lightgrey;} .pcb-stackup_cf {color: silver;} .pcb-stackup_sm {color: #000000; opacity: 0.9;} .pcb-stackup_ss {color: white;} .pcb-stackup_sp {color: #000000; opacity: 0;} .pcb-stackup_out {color: black;}</style><path id="ryZJKgTh1Z_pad-12" d="M37 15.326L15.326 37h-30.652L-37 15.326v-30.652L-15.326-37h30.652L37-15.326z"/><circle id="ryZJKgTh1Z_pad-13" r="33"/><path id="ryZJKgTh1Z_pad-14" d="M-62.99-62.99H62.99V62.99H-62.99z"/><circle id="ryZJKgTh1Z_pad-15" r="25.1"/><path id="ryZJKgTh1Z_pad-16" d="M-44.29-44.29h88.58v88.58h-88.58z"/><circle id="ryZJKgTh1Z_pad-19" r="15.845"/><circle id="ryZJKgTh1Z_pad-21" r="17.81"/><path id="ryZJKgTh1Z_pad-22" d="M-17.81-17.81h35.62v35.62h-35.62z"/><path id="ryZJKgTh1Z_pad-12" d="M37 15.326L15.326 37h-30.652L-37 15.326v-30.652L-15.326-37h30.652L37-15.326z"/><circle id="ryZJKgTh1Z_pad-13" r="33"/><path id="ryZJKgTh1Z_pad-14" d="M-62.99-62.99H62.99V62.99H-62.99z"/><circle id="ryZJKgTh1Z_pad-15" r="25.1"/><path id="ryZJKgTh1Z_pad-16" d="M-44.29-44.29h88.58v88.58h-88.58z"/><circle id="ryZJKgTh1Z_pad-19" r="15.845"/><circle id="ryZJKgTh1Z_pad-21" r="17.81"/><path id="ryZJKgTh1Z_pad-22" d="M-17.81-17.81h35.62v35.62h-35.62z"/><path id="ryMyYep3kW_pad-15" d="M-427.165-220.47h854.33v440.94h-854.33z"/><path id="ryZJKgTh1Z_pad-12" d="M37 15.326L15.326 37h-30.652L-37 15.326v-30.652L-15.326-37h30.652L37-15.326z"/><circle id="ryZJKgTh1Z_pad-13" r="33"/><path id="ryZJKgTh1Z_pad-14" d="M-62.99-62.99H62.99V62.99H-62.99z"/><circle id="ryZJKgTh1Z_pad-15" r="25.1"/><path id="ryZJKgTh1Z_pad-16" d="M-44.29-44.29h88.58v88.58h-88.58z"/><circle id="ryZJKgTh1Z_pad-19" r="15.845"/><circle id="ryZJKgTh1Z_pad-21" r="17.81"/><path id="ryZJKgTh1Z_pad-22" d="M-17.81-17.81h35.62v35.62h-35.62z"/><path id="ryZJKgTh1Z_pad-12" d="M37 15.326L15.326 37h-30.652L-37 15.326v-30.652L-15.326-37h30.652L37-15.326z"/><circle id="ryZJKgTh1Z_pad-13" r="33"/><path id="ryZJKgTh1Z_pad-14" d="M-62.99-62.99H62.99V62.99H-62.99z"/><circle id="ryZJKgTh1Z_pad-15" r="25.1"/><path id="ryZJKgTh1Z_pad-16" d="M-44.29-44.29h88.58v88.58h-88.58z"/><circle id="ryZJKgTh1Z_pad-19" r="15.845"/><circle id="ryZJKgTh1Z_pad-21" r="17.81"/><path id="ryZJKgTh1Z_pad-22" d="M-17.81-17.81h35.62v35.62h-35.62z"/><path id="ryMyYep3kW_pad-15" d="M-427.165-220.47h854.33v440.94h-854.33z"/><path id="ryZJKgTh1Z_pad-12" d="M37 15.326L15.326 37h-30.652L-37 15.326v-30.652L-15.326-37h30.652L37-15.326z"/><circle id="ryZJKgTh1Z_pad-13" r="33"/><path id="ryZJKgTh1Z_pad-14" d="M-62.99-62.99H62.99V62.99H-62.99z"/><circle id="ryZJKgTh1Z_pad-15" r="25.1"/><path id="ryZJKgTh1Z_pad-16" d="M-44.29-44.29h88.58v88.58h-88.58z"/><circle id="ryZJKgTh1Z_pad-19" r="15.845"/><circle id="ryZJKgTh1Z_pad-21" r="17.81"/><path id="ryZJKgTh1Z_pad-22" d="M-17.81-17.81h35.62v35.62h-35.62z"/><path id="ryZJKgTh1Z_pad-12" d="M37 15.326L15.326 37h-30.652L-37 15.326v-30.652L-15.326-37h30.652L37-15.326z"/><circle id="ryZJKgTh1Z_pad-13" r="33"/><path id="ryZJKgTh1Z_pad-14" d="M-62.99-62.99H62.99V62.99H-62.99z"/><circle id="ryZJKgTh1Z_pad-15" r="25.1"/><path id="ryZJKgTh1Z_pad-16" d="M-44.29-44.29h88.58v88.58h-88.58z"/><circle id="ryZJKgTh1Z_pad-19" r="15.845"/><circle id="ryZJKgTh1Z_pad-21" r="17.81"/><path id="ryZJKgTh1Z_pad-22" d="M-17.81-17.81h35.62v35.62h-35.62z"/><path id="ryMyYep3kW_pad-15" d="M-427.165-220.47h854.33v440.94h-854.33z"/><path id="ryZJKgTh1Z_pad-12" d="M37 15.326L15.326 37h-30.652L-37 15.326v-30.652L-15.326-37h30.652L37-15.326z"/><circle id="ryZJKgTh1Z_pad-13" r="33"/><path id="ryZJKgTh1Z_pad-14" d="M-62.99-62.99H62.99V62.99H-62.99z"/><circle id="ryZJKgTh1Z_pad-15" r="25.1"/><path id="ryZJKgTh1Z_pad-16" d="M-44.29-44.29h88.58v88.58h-88.58z"/><circle id="ryZJKgTh1Z_pad-19" r="15.845"/><circle id="ryZJKgTh1Z_pad-21" r="17.81"/><path id="ryZJKgTh1Z_pad-22" d="M-17.81-17.81h35.62v35.62h-35.62z"/><path id="ryZJKgTh1Z_pad-12" d="M37 15.326L15.326 37h-30.652L-37 15.326v-30.652L-15.326-37h30.652L37-15.326z"/><circle id="ryZJKgTh1Z_pad-13" r="33"/><path id="ryZJKgTh1Z_pad-14" d="M-62.99-62.99H62.99V62.99H-62.99z"/><circle id="ryZJKgTh1Z_pad-15" r="25.1"/><path id="ryZJKgTh1Z_pad-16" d="M-44.29-44.29h88.58v88.58h-88.58z"/><circle id="ryZJKgTh1Z_pad-19" r="15.845"/><circle id="ryZJKgTh1Z_pad-21" r="17.81"/><path id="ryZJKgTh1Z_pad-22" d="M-17.81-17.81h35.62v35.62h-35.62z"/><path id="ryMyYep3kW_pad-15" d="M-427.165-220.47h854.33v440.94h-854.33z"/><path id="ry4yFl63J-_pad-12" d="M39 16.154L16.154 39h-32.308L-39 16.154v-32.308L-16.154-39h32.308L39-16.154z"/><circle id="ry4yFl63J-_pad-13" r="35"/><path id="ry4yFl63J-_pad-14" d="M-64.99-64.99H64.99V64.99H-64.99z"/><circle id="ry4yFl63J-_pad-15" r="27.1"/><path id="ry4yFl63J-_pad-16" d="M-46.29-46.29h92.58v92.58h-92.58z"/><circle id="ry4yFl63J-_pad-18" r="25.62"/><path id="ryZJKgTh1Z_pad-12" d="M37 15.326L15.326 37h-30.652L-37 15.326v-30.652L-15.326-37h30.652L37-15.326z"/><circle id="ryZJKgTh1Z_pad-13" r="33"/><path id="ryZJKgTh1Z_pad-14" d="M-62.99-62.99H62.99V62.99H-62.99z"/><circle id="ryZJKgTh1Z_pad-15" r="25.1"/><path id="ryZJKgTh1Z_pad-16" d="M-44.29-44.29h88.58v88.58h-88.58z"/><circle id="ryZJKgTh1Z_pad-19" r="15.845"/><circle id="ryZJKgTh1Z_pad-21" r="17.81"/><path id="ryZJKgTh1Z_pad-22" d="M-17.81-17.81h35.62v35.62h-35.62z"/><path id="ryZJKgTh1Z_pad-12" d="M37 15.326L15.326 37h-30.652L-37 15.326v-30.652L-15.326-37h30.652L37-15.326z"/><circle id="ryZJKgTh1Z_pad-13" r="33"/><path id="ryZJKgTh1Z_pad-14" d="M-62.99-62.99H62.99V62.99H-62.99z"/><circle id="ryZJKgTh1Z_pad-15" r="25.1"/><path id="ryZJKgTh1Z_pad-16" d="M-44.29-44.29h88.58v88.58h-88.58z"/><circle id="ryZJKgTh1Z_pad-19" r="15.845"/><circle id="ryZJKgTh1Z_pad-21" r="17.81"/><path id="ryZJKgTh1Z_pad-22" d="M-17.81-17.81h35.62v35.62h-35.62z"/><path id="ryMyYep3kW_pad-15" d="M-427.165-220.47h854.33v440.94h-854.33z"/><path id="ryZJKgTh1Z_pad-12" d="M37 15.326L15.326 37h-30.652L-37 15.326v-30.652L-15.326-37h30.652L37-15.326z"/><circle id="ryZJKgTh1Z_pad-13" r="33"/><path id="ryZJKgTh1Z_pad-14" d="M-62.99-62.99H62.99V62.99H-62.99z"/><circle id="ryZJKgTh1Z_pad-15" r="25.1"/><path id="ryZJKgTh1Z_pad-16" d="M-44.29-44.29h88.58v88.58h-88.58z"/><circle id="ryZJKgTh1Z_pad-19" r="15.845"/><circle id="ryZJKgTh1Z_pad-21" r="17.81"/><path id="ryZJKgTh1Z_pad-22" d="M-17.81-17.81h35.62v35.62h-35.62z"/><path id="ryZJKgTh1Z_pad-12" d="M37 15.326L15.326 37h-30.652L-37 15.326v-30.652L-15.326-37h30.652L37-15.326z"/><circle id="ryZJKgTh1Z_pad-13" r="33"/><path id="ryZJKgTh1Z_pad-14" d="M-62.99-62.99H62.99V62.99H-62.99z"/><circle id="ryZJKgTh1Z_pad-15" r="25.1"/><path id="ryZJKgTh1Z_pad-16" d="M-44.29-44.29h88.58v88.58h-88.58z"/><circle id="ryZJKgTh1Z_pad-19" r="15.845"/><circle id="ryZJKgTh1Z_pad-21" r="17.81"/><path id="ryZJKgTh1Z_pad-22" d="M-17.81-17.81h35.62v35.62h-35.62z"/><path id="ryMyYep3kW_pad-15" d="M-427.165-220.47h854.33v440.94h-854.33z"/><path id="ryZJKgTh1Z_pad-12" d="M37 15.326L15.326 37h-30.652L-37 15.326v-30.652L-15.326-37h30.652L37-15.326z"/><circle id="ryZJKgTh1Z_pad-13" r="33"/><path id="ryZJKgTh1Z_pad-14" d="M-62.99-62.99H62.99V62.99H-62.99z"/><circle id="ryZJKgTh1Z_pad-15" r="25.1"/><path id="ryZJKgTh1Z_pad-16" d="M-44.29-44.29h88.58v88.58h-88.58z"/><circle id="ryZJKgTh1Z_pad-19" r="15.845"/><circle id="ryZJKgTh1Z_pad-21" r="17.81"/><path id="ryZJKgTh1Z_pad-22" d="M-17.81-17.81h35.62v35.62h-35.62z"/><path id="ryZJKgTh1Z_pad-12" d="M37 15.326L15.326 37h-30.652L-37 15.326v-30.652L-15.326-37h30.652L37-15.326z"/><circle id="ryZJKgTh1Z_pad-13" r="33"/><path id="ryZJKgTh1Z_pad-14" d="M-62.99-62.99H62.99V62.99H-62.99z"/><circle id="ryZJKgTh1Z_pad-15" r="25.1"/><path id="ryZJKgTh1Z_pad-16" d="M-44.29-44.29h88.58v88.58h-88.58z"/><circle id="ryZJKgTh1Z_pad-19" r="15.845"/><circle id="ryZJKgTh1Z_pad-21" r="17.81"/><path id="ryZJKgTh1Z_pad-22" d="M-17.81-17.81h35.62v35.62h-35.62z"/><path id="ryMyYep3kW_pad-15" d="M-427.165-220.47h854.33v440.94h-854.33z"/><path id="ryZJKgTh1Z_pad-12" d="M37 15.326L15.326 37h-30.652L-37 15.326v-30.652L-15.326-37h30.652L37-15.326z"/><circle id="ryZJKgTh1Z_pad-13" r="33"/><path id="ryZJKgTh1Z_pad-14" d="M-62.99-62.99H62.99V62.99H-62.99z"/><circle id="ryZJKgTh1Z_pad-15" r="25.1"/><path id="ryZJKgTh1Z_pad-16" d="M-44.29-44.29h88.58v88.58h-88.58z"/><circle id="ryZJKgTh1Z_pad-19" r="15.845"/><circle id="ryZJKgTh1Z_pad-21" r="17.81"/><path id="ryZJKgTh1Z_pad-22" d="M-17.81-17.81h35.62v35.62h-35.62z"/><path id="ryZJKgTh1Z_pad-12" d="M37 15.326L15.326 37h-30.652L-37 15.326v-30.652L-15.326-37h30.652L37-15.326z"/><circle id="ryZJKgTh1Z_pad-13" r="33"/><path id="ryZJKgTh1Z_pad-14" d="M-62.99-62.99H62.99V62.99H-62.99z"/><circle id="ryZJKgTh1Z_pad-15" r="25.1"/><path id="ryZJKgTh1Z_pad-16" d="M-44.29-44.29h88.58v88.58h-88.58z"/><circle id="ryZJKgTh1Z_pad-19" r="15.845"/><circle id="ryZJKgTh1Z_pad-21" r="17.81"/><path id="ryZJKgTh1Z_pad-22" d="M-17.81-17.81h35.62v35.62h-35.62z"/><path id="ryMyYep3kW_pad-15" d="M-427.165-220.47h854.33v440.94h-854.33z"/><path id="ry4yFl63J-_pad-12" d="M39 16.154L16.154 39h-32.308L-39 16.154v-32.308L-16.154-39h32.308L39-16.154z"/><circle id="ry4yFl63J-_pad-13" r="35"/><path id="ry4yFl63J-_pad-14" d="M-64.99-64.99H64.99V64.99H-64.99z"/><circle id="ry4yFl63J-_pad-15" r="27.1"/><path id="ry4yFl63J-_pad-16" d="M-46.29-46.29h92.58v92.58h-92.58z"/><circle id="ry4yFl63J-_pad-18" r="25.62"/><circle id="BJiJYxT2y-_pad-1" r="9.845"/><circle id="BJiJYxT2y-_pad-2" r="11.81"/><circle id="BJiJYxT2y-_pad-3" r="16.73"/><circle id="BJiJYxT2y-_pad-4" r="20"/><circle id="BJiJYxT2y-_pad-5" r="21.655"/><circle id="BJiJYxT2y-_pad-6" r="23.62"/><circle id="BJiJYxT2y-_pad-7" r="29.53"/><circle id="BJiJYxT2y-_pad-8" r="39.37"/><path id="ryZJKgTh1Z_pad-12" d="M37 15.326L15.326 37h-30.652L-37 15.326v-30.652L-15.326-37h30.652L37-15.326z"/><circle id="ryZJKgTh1Z_pad-13" r="33"/><path id="ryZJKgTh1Z_pad-14" d="M-62.99-62.99H62.99V62.99H-62.99z"/><circle id="ryZJKgTh1Z_pad-15" r="25.1"/><path id="ryZJKgTh1Z_pad-16" d="M-44.29-44.29h88.58v88.58h-88.58z"/><circle id="ryZJKgTh1Z_pad-19" r="15.845"/><circle id="ryZJKgTh1Z_pad-21" r="17.81"/><path id="ryZJKgTh1Z_pad-22" d="M-17.81-17.81h35.62v35.62h-35.62z"/><path id="ryZJKgTh1Z_pad-12" d="M37 15.326L15.326 37h-30.652L-37 15.326v-30.652L-15.326-37h30.652L37-15.326z"/><circle id="ryZJKgTh1Z_pad-13" r="33"/><path id="ryZJKgTh1Z_pad-14" d="M-62.99-62.99H62.99V62.99H-62.99z"/><circle id="ryZJKgTh1Z_pad-15" r="25.1"/><path id="ryZJKgTh1Z_pad-16" d="M-44.29-44.29h88.58v88.58h-88.58z"/><circle id="ryZJKgTh1Z_pad-19" r="15.845"/><circle id="ryZJKgTh1Z_pad-21" r="17.81"/><path id="ryZJKgTh1Z_pad-22" d="M-17.81-17.81h35.62v35.62h-35.62z"/><path id="ryMyYep3kW_pad-15" d="M-427.165-220.47h854.33v440.94h-854.33z"/><path id="ryZJKgTh1Z_pad-12" d="M37 15.326L15.326 37h-30.652L-37 15.326v-30.652L-15.326-37h30.652L37-15.326z"/><circle id="ryZJKgTh1Z_pad-13" r="33"/><path id="ryZJKgTh1Z_pad-14" d="M-62.99-62.99H62.99V62.99H-62.99z"/><circle id="ryZJKgTh1Z_pad-15" r="25.1"/><path id="ryZJKgTh1Z_pad-16" d="M-44.29-44.29h88.58v88.58h-88.58z"/><circle id="ryZJKgTh1Z_pad-19" r="15.845"/><circle id="ryZJKgTh1Z_pad-21" r="17.81"/><path id="ryZJKgTh1Z_pad-22" d="M-17.81-17.81h35.62v35.62h-35.62z"/><path id="ryZJKgTh1Z_pad-12" d="M37 15.326L15.326 37h-30.652L-37 15.326v-30.652L-15.326-37h30.652L37-15.326z"/><circle id="ryZJKgTh1Z_pad-13" r="33"/><path id="ryZJKgTh1Z_pad-14" d="M-62.99-62.99H62.99V62.99H-62.99z"/><circle id="ryZJKgTh1Z_pad-15" r="25.1"/><path id="ryZJKgTh1Z_pad-16" d="M-44.29-44.29h88.58v88.58h-88.58z"/><circle id="ryZJKgTh1Z_pad-19" r="15.845"/><circle id="ryZJKgTh1Z_pad-21" r="17.81"/><path id="ryZJKgTh1Z_pad-22" d="M-17.81-17.81h35.62v35.62h-35.62z"/><path id="ryMyYep3kW_pad-15" d="M-427.165-220.47h854.33v440.94h-854.33z"/><path id="ryZJKgTh1Z_pad-12" d="M37 15.326L15.326 37h-30.652L-37 15.326v-30.652L-15.326-37h30.652L37-15.326z"/><circle id="ryZJKgTh1Z_pad-13" r="33"/><path id="ryZJKgTh1Z_pad-14" d="M-62.99-62.99H62.99V62.99H-62.99z"/><circle id="ryZJKgTh1Z_pad-15" r="25.1"/><path id="ryZJKgTh1Z_pad-16" d="M-44.29-44.29h88.58v88.58h-88.58z"/><circle id="ryZJKgTh1Z_pad-19" r="15.845"/><circle id="ryZJKgTh1Z_pad-21" r="17.81"/><path id="ryZJKgTh1Z_pad-22" d="M-17.81-17.81h35.62v35.62h-35.62z"/><path id="ryZJKgTh1Z_pad-12" d="M37 15.326L15.326 37h-30.652L-37 15.326v-30.652L-15.326-37h30.652L37-15.326z"/><circle id="ryZJKgTh1Z_pad-13" r="33"/><path id="ryZJKgTh1Z_pad-14" d="M-62.99-62.99H62.99V62.99H-62.99z"/><circle id="ryZJKgTh1Z_pad-15" r="25.1"/><path id="ryZJKgTh1Z_pad-16" d="M-44.29-44.29h88.58v88.58h-88.58z"/><circle id="ryZJKgTh1Z_pad-19" r="15.845"/><circle id="ryZJKgTh1Z_pad-21" r="17.81"/><path id="ryZJKgTh1Z_pad-22" d="M-17.81-17.81h35.62v35.62h-35.62z"/><path id="ryMyYep3kW_pad-15" d="M-427.165-220.47h854.33v440.94h-854.33z"/><path id="ryZJKgTh1Z_pad-12" d="M37 15.326L15.326 37h-30.652L-37 15.326v-30.652L-15.326-37h30.652L37-15.326z"/><circle id="ryZJKgTh1Z_pad-13" r="33"/><path id="ryZJKgTh1Z_pad-14" d="M-62.99-62.99H62.99V62.99H-62.99z"/><circle id="ryZJKgTh1Z_pad-15" r="25.1"/><path id="ryZJKgTh1Z_pad-16" d="M-44.29-44.29h88.58v88.58h-88.58z"/><circle id="ryZJKgTh1Z_pad-19" r="15.845"/><circle id="ryZJKgTh1Z_pad-21" r="17.81"/><path id="ryZJKgTh1Z_pad-22" d="M-17.81-17.81h35.62v35.62h-35.62z"/><path id="ryZJKgTh1Z_pad-12" d="M37 15.326L15.326 37h-30.652L-37 15.326v-30.652L-15.326-37h30.652L37-15.326z"/><circle id="ryZJKgTh1Z_pad-13" r="33"/><path id="ryZJKgTh1Z_pad-14" d="M-62.99-62.99H62.99V62.99H-62.99z"/><circle id="ryZJKgTh1Z_pad-15" r="25.1"/><path id="ryZJKgTh1Z_pad-16" d="M-44.29-44.29h88.58v88.58h-88.58z"/><circle id="ryZJKgTh1Z_pad-19" r="15.845"/><circle id="ryZJKgTh1Z_pad-21" r="17.81"/><path id="ryZJKgTh1Z_pad-22" d="M-17.81-17.81h35.62v35.62h-35.62z"/><path id="ryMyYep3kW_pad-15" d="M-427.165-220.47h854.33v440.94h-854.33z"/><path id="ry4yFl63J-_pad-12" d="M39 16.154L16.154 39h-32.308L-39 16.154v-32.308L-16.154-39h32.308L39-16.154z"/><circle id="ry4yFl63J-_pad-13" r="35"/><path id="ry4yFl63J-_pad-14" d="M-64.99-64.99H64.99V64.99H-64.99z"/><circle id="ry4yFl63J-_pad-15" r="27.1"/><path id="ry4yFl63J-_pad-16" d="M-46.29-46.29h92.58v92.58h-92.58z"/><circle id="ry4yFl63J-_pad-18" r="25.62"/><path id="ryZJKgTh1Z_pad-12" d="M37 15.326L15.326 37h-30.652L-37 15.326v-30.652L-15.326-37h30.652L37-15.326z"/><circle id="ryZJKgTh1Z_pad-13" r="33"/><path id="ryZJKgTh1Z_pad-14" d="M-62.99-62.99H62.99V62.99H-62.99z"/><circle id="ryZJKgTh1Z_pad-15" r="25.1"/><path id="ryZJKgTh1Z_pad-16" d="M-44.29-44.29h88.58v88.58h-88.58z"/><circle id="ryZJKgTh1Z_pad-19" r="15.845"/><circle id="ryZJKgTh1Z_pad-21" r="17.81"/><path id="ryZJKgTh1Z_pad-22" d="M-17.81-17.81h35.62v35.62h-35.62z"/><path id="ryZJKgTh1Z_pad-12" d="M37 15.326L15.326 37h-30.652L-37 15.326v-30.652L-15.326-37h30.652L37-15.326z"/><circle id="ryZJKgTh1Z_pad-13" r="33"/><path id="ryZJKgTh1Z_pad-14" d="M-62.99-62.99H62.99V62.99H-62.99z"/><circle id="ryZJKgTh1Z_pad-15" r="25.1"/><path id="ryZJKgTh1Z_pad-16" d="M-44.29-44.29h88.58v88.58h-88.58z"/><circle id="ryZJKgTh1Z_pad-19" r="15.845"/><circle id="ryZJKgTh1Z_pad-21" r="17.81"/><path id="ryZJKgTh1Z_pad-22" d="M-17.81-17.81h35.62v35.62h-35.62z"/><path id="ryMyYep3kW_pad-15" d="M-427.165-220.47h854.33v440.94h-854.33z"/><path id="ryZJKgTh1Z_pad-12" d="M37 15.326L15.326 37h-30.652L-37 15.326v-30.652L-15.326-37h30.652L37-15.326z"/><circle id="ryZJKgTh1Z_pad-13" r="33"/><path id="ryZJKgTh1Z_pad-14" d="M-62.99-62.99H62.99V62.99H-62.99z"/><circle id="ryZJKgTh1Z_pad-15" r="25.1"/><path id="ryZJKgTh1Z_pad-16" d="M-44.29-44.29h88.58v88.58h-88.58z"/><circle id="ryZJKgTh1Z_pad-19" r="15.845"/><circle id="ryZJKgTh1Z_pad-21" r="17.81"/><path id="ryZJKgTh1Z_pad-22" d="M-17.81-17.81h35.62v35.62h-35.62z"/><path id="ryZJKgTh1Z_pad-12" d="M37 15.326L15.326 37h-30.652L-37 15.326v-30.652L-15.326-37h30.652L37-15.326z"/><circle id="ryZJKgTh1Z_pad-13" r="33"/><path id="ryZJKgTh1Z_pad-14" d="M-62.99-62.99H62.99V62.99H-62.99z"/><circle id="ryZJKgTh1Z_pad-15" r="25.1"/><path id="ryZJKgTh1Z_pad-16" d="M-44.29-44.29h88.58v88.58h-88.58z"/><circle id="ryZJKgTh1Z_pad-19" r="15.845"/><circle id="ryZJKgTh1Z_pad-21" r="17.81"/><path id="ryZJKgTh1Z_pad-22" d="M-17.81-17.81h35.62v35.62h-35.62z"/><path id="ryMyYep3kW_pad-15" d="M-427.165-220.47h854.33v440.94h-854.33z"/><path id="ryZJKgTh1Z_pad-12" d="M37 15.326L15.326 37h-30.652L-37 15.326v-30.652L-15.326-37h30.652L37-15.326z"/><circle id="ryZJKgTh1Z_pad-13" r="33"/><path id="ryZJKgTh1Z_pad-14" d="M-62.99-62.99H62.99V62.99H-62.99z"/><circle id="ryZJKgTh1Z_pad-15" r="25.1"/><path id="ryZJKgTh1Z_pad-16" d="M-44.29-44.29h88.58v88.58h-88.58z"/><circle id="ryZJKgTh1Z_pad-19" r="15.845"/><circle id="ryZJKgTh1Z_pad-21" r="17.81"/><path id="ryZJKgTh1Z_pad-22" d="M-17.81-17.81h35.62v35.62h-35.62z"/><path id="ryZJKgTh1Z_pad-12" d="M37 15.326L15.326 37h-30.652L-37 15.326v-30.652L-15.326-37h30.652L37-15.326z"/><circle id="ryZJKgTh1Z_pad-13" r="33"/><path id="ryZJKgTh1Z_pad-14" d="M-62.99-62.99H62.99V62.99H-62.99z"/><circle id="ryZJKgTh1Z_pad-15" r="25.1"/><path id="ryZJKgTh1Z_pad-16" d="M-44.29-44.29h88.58v88.58h-88.58z"/><circle id="ryZJKgTh1Z_pad-19" r="15.845"/><circle id="ryZJKgTh1Z_pad-21" r="17.81"/><path id="ryZJKgTh1Z_pad-22" d="M-17.81-17.81h35.62v35.62h-35.62z"/><path id="ryMyYep3kW_pad-15" d="M-427.165-220.47h854.33v440.94h-854.33z"/><path id="ryZJKgTh1Z_pad-12" d="M37 15.326L15.326 37h-30.652L-37 15.326v-30.652L-15.326-37h30.652L37-15.326z"/><circle id="ryZJKgTh1Z_pad-13" r="33"/><path id="ryZJKgTh1Z_pad-14" d="M-62.99-62.99H62.99V62.99H-62.99z"/><circle id="ryZJKgTh1Z_pad-15" r="25.1"/><path id="ryZJKgTh1Z_pad-16" d="M-44.29-44.29h88.58v88.58h-88.58z"/><circle id="ryZJKgTh1Z_pad-19" r="15.845"/><circle id="ryZJKgTh1Z_pad-21" r="17.81"/><path id="ryZJKgTh1Z_pad-22" d="M-17.81-17.81h35.62v35.62h-35.62z"/><path id="ryZJKgTh1Z_pad-12" d="M37 15.326L15.326 37h-30.652L-37 15.326v-30.652L-15.326-37h30.652L37-15.326z"/><circle id="ryZJKgTh1Z_pad-13" r="33"/><path id="ryZJKgTh1Z_pad-14" d="M-62.99-62.99H62.99V62.99H-62.99z"/><circle id="ryZJKgTh1Z_pad-15" r="25.1"/><path id="ryZJKgTh1Z_pad-16" d="M-44.29-44.29h88.58v88.58h-88.58z"/><circle id="ryZJKgTh1Z_pad-19" r="15.845"/><circle id="ryZJKgTh1Z_pad-21" r="17.81"/><path id="ryZJKgTh1Z_pad-22" d="M-17.81-17.81h35.62v35.62h-35.62z"/><path id="ryMyYep3kW_pad-15" d="M-427.165-220.47h854.33v440.94h-854.33z"/><path id="ry4yFl63J-_pad-12" d="M39 16.154L16.154 39h-32.308L-39 16.154v-32.308L-16.154-39h32.308L39-16.154z"/><circle id="ry4yFl63J-_pad-13" r="35"/><path id="ry4yFl63J-_pad-14" d="M-64.99-64.99H64.99V64.99H-64.99z"/><circle id="ry4yFl63J-_pad-15" r="27.1"/><path id="ry4yFl63J-_pad-16" d="M-46.29-46.29h92.58v92.58h-92.58z"/><circle id="ry4yFl63J-_pad-18" r="25.62"/><circle id="BJiJYxT2y-_pad-1" r="9.845"/><circle id="BJiJYxT2y-_pad-2" r="11.81"/><circle id="BJiJYxT2y-_pad-3" r="16.73"/><circle id="BJiJYxT2y-_pad-4" r="20"/><circle id="BJiJYxT2y-_pad-5" r="21.655"/><circle id="BJiJYxT2y-_pad-6" r="23.62"/><circle id="BJiJYxT2y-_pad-7" r="29.53"/><circle id="BJiJYxT2y-_pad-8" r="39.37"/><g id="pcb-stackup_bottom_cu"><path fill="none" stroke-width="8" d="M168.7 1642.42h3799.21"/><path fill="none" stroke-width="7.87" d="M306.5 106.98l.93 2.77.87 2.79.8 2.8.73 2.83.66 2.84.59 2.86.53 2.87.45 2.89.38 2.89.32 2.9.24 2.91.17 2.92.1 2.91.03 2.92-.04 2.92-.11 2.92-.19 2.91-.25 2.91-.33 2.9-.39 2.89-.47 2.89-.53 2.87-.6 2.85-.68 2.84-.74 2.82-.81 2.81-.88 2.78-.95 2.76-1.01 2.74-1.08 2.71-1.14 2.69-1.21 2.66-1.28 2.62-1.33 2.6-1.4 2.56-1.46 2.53-1.53 2.49-1.58 2.45-1.64 2.41-1.7 2.38-1.76 2.33-1.81 2.29-1.87 2.24-1.92 2.2-1.98 2.14-2.03 2.11-2.07 2.05-2.13 2-2.17 1.94-2.22 1.9-2.27 1.84-2.31 1.78-2.35 1.73-2.4 1.67-2.43 1.61-2.48 1.55-2.5 1.49-2.55 1.43-2.58 1.37-2.61 1.31-2.64 1.24-2.68 1.17-2.69 1.11-2.73 1.05-2.75.98-2.77.91-2.8.84-2.81.77-2.84.71-2.84.64-2.87.57-2.87.5-2.89.42-2.9.36-2.9.29-2.91.22-2.92.14-2.92.08h-2.92l-2.92-.06-2.91-.14-2.91-.21-2.91-.28-2.9-.35-2.89-.42-2.87-.49-2.87-.56m0 .01v1377.95M1212.01 303.84l708.27 134.41.36 2.94.44 2.93.5 2.92.58 2.91.65 2.89.72 2.87.79 2.86.86 2.83.93 2.81 1 2.79 1.07 2.77 1.13 2.74 1.2 2.7 1.27 2.68 1.33 2.65 1.4 2.61 1.46 2.58 1.53 2.54 1.58 2.5 1.65 2.47 1.7 2.42 1.77 2.38 1.82 2.34 1.88 2.29 1.94 2.24 1.99 2.19 2.04 2.15 2.1 2.1 2.14 2.04 2.2 1.99 2.24 1.93 2.29 1.88 2.34 1.83 2.38 1.76 2.42 1.71 2.46 1.64 2.51 1.59 2.54 1.52 2.58 1.46 2.61 1.4 2.65 1.33 2.68 1.27 2.7 1.2 2.74 1.13 2.77 1.07 2.79.99 2.81.93 2.84.86 2.85.79 2.88.72 2.89.65 2.9.58 2.92.51 2.93.43 2.94.36 2.95.29 2.96.22 2.96.15 2.96.07h2.96l2.96-.07 2.96-.15 2.96-.22 2.95-.29 2.94-.36 2.93-.43 2.92-.51 2.9-.58 2.89-.65 2.88-.72 2.85-.79 2.84-.86 2.81-.93 2.79-.99 2.77-1.07 2.74-1.13 2.7-1.2 2.68-1.27 2.65-1.33 2.61-1.4 2.58-1.46 2.54-1.52 2.51-1.59 2.46-1.64 2.42-1.71 2.38-1.76 2.34-1.83 2.29-1.88 2.24-1.93 2.2-1.99 2.14-2.04 2.1-2.1 2.04-2.15 1.99-2.19 1.94-2.24 1.88-2.29 1.82-2.34 1.77-2.38 1.7-2.42 1.65-2.47 1.58-2.5 1.53-2.54 1.46-2.58 1.4-2.61 1.33-2.65 1.27-2.68 1.2-2.7 1.13-2.74 1.07-2.77 1-2.79.93-2.81.86-2.83.79-2.86.72-2.87.65-2.89.58-2.91.5-2.92.44-2.93.36-2.94 705.27-134.41V106.99h905.51l-.91 2.79-.85 2.82-.79 2.84-.71 2.86-.64 2.87-.57 2.89-.5 2.9-.43 2.91-.36 2.92-.29 2.93-.21 2.93-.15 2.94-.07 2.95v2.94l.07 2.94.14 2.94.22 2.94.28 2.93.36 2.92.43 2.91.5 2.9.56 2.89.64 2.87.71 2.86.78 2.84.85 2.82.92 2.79.98 2.78 1.05 2.75 1.12 2.72 1.19 2.69 1.24 2.67 1.32 2.63 1.38 2.6 1.44 2.57 1.5 2.53 1.57 2.49 1.62 2.46 1.68 2.41 1.75 2.38 1.8 2.32 1.85 2.29 1.91 2.24 1.97 2.19 2.02 2.14 2.07 2.09 2.12 2.05 2.17 1.99 2.21 1.93 2.27 1.88 2.3 1.83 2.36 1.77 2.39 1.71 2.44 1.65 2.47 1.59 2.52 1.54 2.55 1.47 2.58 1.4 2.62 1.35 2.65 1.28 2.68 1.21 2.71 1.15 2.74 1.08 2.76 1.02 2.79.95 2.81.87 2.83.82 2.85.74 2.86.67 2.88.6 2.9.53 2.91.46 2.91.39 2.93.32 2.93.25 2.94.17 2.94.11 2.95.03 2.94-.04 2.94-.11 2.94-.18 2.93-.26 2.93-.32 2.91-.4 2.91-.47 2.89-.54v748.03h59.05v629.92M1212.01 303.84V106.99H306.5"/><use x="3700.59" y="754.23" xlink:href="#ryZJKgTh1Z_pad-12"/><use x="3800.59" y="754.23" xlink:href="#ryZJKgTh1Z_pad-12"/><use x="3800.59" y="854.23" xlink:href="#ryZJKgTh1Z_pad-12"/><use x="3700.59" y="854.23" xlink:href="#ryZJKgTh1Z_pad-12"/><use x="3700.59" y="954.23" xlink:href="#ryZJKgTh1Z_pad-12"/><use x="3800.59" y="954.23" xlink:href="#ryZJKgTh1Z_pad-12"/><use x="2967.13" y="1110.93" xlink:href="#ryZJKgTh1Z_pad-13"/><use x="2868.7" y="1110.93" xlink:href="#ryZJKgTh1Z_pad-13"/><use x="2770.28" y="1110.93" xlink:href="#ryZJKgTh1Z_pad-13"/><use x="1302.56" y="1110.93" xlink:href="#ryZJKgTh1Z_pad-13"/><use x="1204.13" y="1110.93" xlink:href="#ryZJKgTh1Z_pad-13"/><use x="1105.71" y="1110.93" xlink:href="#ryZJKgTh1Z_pad-13"/><use x="1026.97" y="1386.52" xlink:href="#ryZJKgTh1Z_pad-14"/><use x="1381.3" y="1386.52" xlink:href="#ryZJKgTh1Z_pad-14"/><use x="2691.54" y="1386.52" xlink:href="#ryZJKgTh1Z_pad-14"/><use x="3045.87" y="1386.52" xlink:href="#ryZJKgTh1Z_pad-14"/><use x="3006.3" y="282.3" xlink:href="#ryZJKgTh1Z_pad-15"/><use x="3197.24" y="282.3" xlink:href="#ryZJKgTh1Z_pad-15"/><use x="3242.52" y="164.19" xlink:href="#ryZJKgTh1Z_pad-16"/><use x="2961.02" y="164.19" xlink:href="#ryZJKgTh1Z_pad-16"/><path fill="none" d="M952.17 209.35l.02.97.06.97.1.96.14.96.18.96.21.94.26.94.29.92.34.91.36.9.41.88.44.86.48.85.51.82.54.81.58.78.61.75.63.73.67.71.7.67.72.65.75.61.78.59.79.55.82.52.84.48.86.45.88.42.89.38.91.34.92.3.93.27.95.22.95.19.96.15.96.11.97.07.97.03.97-.01.97-.05.96-.09.96-.13.96-.17.95-.21.93-.24.93-.29.92-.32.9-.36.88-.39.87-.44.85-.46.83-.51.81-.53.78-.57.77-.6.73-.63.71-.66.68-.69.66-.72.62-.74.59-.77.56-.79.53-.82.5-.83.45-.86.43-.87.39-.89.35-.9.31-.92.27-.93.24-.94.2-.95.16-.96.12-.96.08-.97.04-.97v-.96l-.04-.97-.08-.97-.12-.96-.16-.96-.2-.95-.24-.94-.27-.93-.31-.92-.35-.9-.39-.89-.43-.87-.45-.86-.5-.83-.53-.82-.56-.79-.59-.77-.62-.74-.66-.72-.68-.69-.71-.66-.73-.63-.77-.6-.78-.57-.81-.53-.83-.51-.85-.46-.87-.44-.88-.39-.9-.36-.92-.32-.93-.29-.93-.24-.95-.21-.96-.17-.96-.13-.96-.09-.97-.05-.97-.01-.97.03-.97.07-.96.11-.96.15-.95.19-.95.22-.93.27-.92.3-.91.34-.89.38-.88.42-.86.45-.84.48-.82.52-.79.55-.78.59-.75.61-.72.65-.7.67-.67.71-.63.73-.61.75-.58.78-.54.81-.51.82-.48.85-.44.86-.41.88-.36.9-.34.91-.29.92-.26.94-.21.94-.18.96-.14.96-.1.96-.06.97-.02.97m0 236.22l.02.97.06.97.1.96.14.96.18.96.21.94.26.94.29.92.34.91.36.9.41.88.44.86.48.85.51.82.54.81.58.78.61.75.63.73.67.71.7.67.72.65.75.61.78.59.79.55.82.52.84.48.86.45.88.42.89.38.91.34.92.3.93.27.95.22.95.19.96.15.96.11.97.07.97.03.97-.01.97-.05.96-.09.96-.13.96-.17.95-.21.93-.24.93-.29.92-.32.9-.36.88-.39.87-.44.85-.46.83-.51.81-.53.78-.57.77-.6.73-.63.71-.66.68-.69.66-.72.62-.74.59-.77.56-.79.53-.82.5-.83.45-.86.43-.87.39-.89.35-.9.31-.92.27-.93.24-.94.2-.95.16-.96.12-.96.08-.97.04-.97v-.96l-.04-.97-.08-.97-.12-.96-.16-.96-.2-.95-.24-.94-.27-.93-.31-.92-.35-.9-.39-.89-.43-.87-.45-.86-.5-.83-.53-.82-.56-.79-.59-.77-.62-.74-.66-.72-.68-.69-.71-.66-.73-.63-.77-.6-.78-.57-.81-.53-.83-.51-.85-.46-.87-.44-.88-.39-.9-.36-.92-.32-.93-.29-.93-.24-.95-.21-.96-.17-.96-.13-.96-.09-.97-.05-.97-.01-.97.03-.97.07-.96.11-.96.15-.95.19-.95.22-.93.27-.92.3-.91.34-.89.38-.88.42-.86.45-.84.48-.82.52-.79.55-.78.59-.75.61-.72.65-.7.67-.67.71-.63.73-.61.75-.58.78-.54.81-.51.82-.48.85-.44.86-.41.88-.36.9-.34.91-.29.92-.26.94-.21.94-.18.96-.14.96-.1.96-.06.97-.02.97"/><path fill="none" stroke-width="16" d="M934.17 443.86H190.64m0-15.98h747.43m2.43-5.89l11.71-11.7 15.3-6.34h16.56l15.29 6.34 11.71 11.7 6.34 15.3v16.56l-6.34 15.3-11.71 11.71-15.29 6.33h-16.56l-15.3-6.33-11.71-11.71-6.33-15.3v-16.56l6.33-15.3m10.11-10.1H190.64m0-15.98h922.45m1.89-4.57l8.39-8.39 10.97-4.54h11.87l10.97 4.54 6.3 6.3h34.67l30 30h264.16l2.03-.84h11.87l10.97 4.54 8.39 8.39 4.55 10.97v11.87l-4.55 10.97-8.39 8.4-10.97 4.54h-11.87l-10.97-4.54-8.39-8.4-3.28-7.9h-259.29l-11.13-11.13-18.87-18.87h-18.93l-6.3 6.3-10.97 4.54h-11.87l-10.97-4.54-8.39-8.4-4.55-10.97v-11.87l4.55-10.97m15.7-11.42H190.64m0-15.98h1220.39m84.23 15.98h-345.39m54.93 15.99h374.69m-57.38 31.97h225.85m84.23 15.98h-302.07m-2.35 15.99h372.83m.19 1.67l-.53-4.74-598.45-113.57h-89.8v-17.04l-2.07-.39h-7.02l-1.64-1.65-2.29-.43-3.95-5.81-4.97-4.96v-2.33l-1.31-1.92 1.31-6.9V128.93H334.68l1.25 34.38-11.36 41.72-23.26 36.45-33.04 27.88-39.84 16.8-37.79 3.68v1330.58h3755.34v-585.98h-46.21l-12.85-12.85V289.65l-37.72-3.9-39.61-16.88-32.87-27.8-23.2-36.27-11.47-41.5 1.03-34.37h-442.27v85.35l-8.2 8.2h-100.18l-8.2-8.2v-85.35h-164.92v85.35l-8.2 8.2h-100.18l-8.2-8.2v-85.35h-15.24v172.84l1.31 6.89-1.31 1.93v2.34l-4.96 4.96-3.95 5.8-2.29.43-1.65 1.66h-7.02l-2.07.39v17.04h-89.4l-595.86 113.56-.53 4.75-16.44 38.61-26.87 32.24-35 23.14-40.19 12.08h-41.97l-40.18-12.08-35.01-23.14-26.87-32.24-16.44-38.61m6.09 14.31h-395.21m-22.78 0h-484.5m10.54-15.98h457.85m-145.99-111.9H190.64m0-15.98h1021.37m-18.88-15.99H190.64m0-15.99h999.43m0-15.98H233.53M269.86 268.02h920.21m0-15.98H288.8M304.77 236.05h638.86m-3.13-3.12l-6.33-15.3v-16.56l6.33-15.3 11.71-11.71 15.3-6.33h16.56l15.29 6.33 11.71 11.71 6.34 15.3v16.56l-6.34 15.3-11.71 11.71-15.29 6.33h-16.56l-15.3-6.33-11.71-11.71m-5.32-12.86H314.97M324.82 204.08h609.35m5.37-15.98H329.18m4.35-15.99h623.39m37.73 0h195.42m0-15.98h-854.4M335.09 140.14h854.98m0 47.96h-178.03m5.37 15.98h172.66m0 15.99H1016.4m-8.45 15.98h182.12m30.72 175.84h442.94m151.25 119.45l8.39-8.39 10.97-4.54h11.87l10.97 4.54 8.39 8.39 4.55 10.97v11.87l-4.55 10.97-8.39 8.4-10.97 4.54h-8.91l-29.15 29.16h-96.67l4.09 4.09 4.55 10.97v11.87l-4.55 10.97-6.29 6.3v93.59l6.29 6.3 4.55 10.97v11.87l-4.55 10.97-8.39 8.4-10.97 4.54h-11.87l-10.97-4.54-8.39-8.4-4.55-10.97v-11.87l4.55-10.97 6.3-6.3v-93.59l-6.3-6.3-4.55-10.97v-11.87l4.55-10.97 4.09-4.09h-300.92l-66.37 66.37v43.92l6.29 6.3 4.55 10.97v11.87l-4.55 10.97-8.39 8.4-10.97 4.54h-11.87l-10.97-4.54-8.39-8.4-4.55-10.97v-11.87l4.55-10.97 6.3-6.3v-59.66l77.5-77.5 11.13-11.13h440l18.02-18.03v-8.91l4.55-10.97m-3.49 8.43H190.64m0-15.98h1631.89m35.49 0h78.92m18.35 15.98h-86.22m.4 15.99h110.45M1923.62 507.8H190.64m0-15.98h1723.05M1805.9 555.76H190.64m0 15.98h1159.27m-15.98 15.99H190.64m0 15.98H614m.98-2.37l8.39-8.39 10.97-4.54h11.87l10.97 4.54 6.3 6.3h173.59l6.3-6.3 10.97-4.54h11.87l10.97 4.54 8.39 8.39 4.55 10.97v11.87l-4.55 10.97-8.39 8.4-10.97 4.54h-11.87l-10.97-4.54-6.3-6.3H663.48l-6.3 6.3-10.97 4.54h-11.87l-10.97-4.54-8.39-8.4-4.55-10.97v-11.87l4.55-10.97m-4.55 18.36H190.64m0 15.98h424.87M453.48 759.25h744.67l50 50h524.26l148.87-148.87 11.13-11.13h180l68.87-68.87 11.13-11.13h114.66l6.3-6.3 10.97-4.54h11.87l10.97 4.54 8.39 8.39 4.55 10.97v11.87l-4.55 10.97-8.39 8.4-10.97 4.54h-11.87l-10.97-4.54-6.3-6.3h-98.92l-80 80h-180l-148.87 148.87v285.27l-11.13 11.13-25.65 25.65v28.58h10.13l8.2 8.2v47.22l-8.2 8.2h-47.22l-8.21-8.2v-47.22l7.3-7.3v-45.22l11.13-11.13 25.65-25.65v-258.4h-528.87l-11.13-11.13-38.87-38.87H453.48l-6.3 6.3-10.97 4.54h-11.87l-10.97-4.54-8.39-8.4-4.55-10.97v-11.87l4.55-10.97 8.39-8.39 10.97-4.54h11.87l10.97 4.54 6.3 6.3m-49.42 4.31H190.64m0-15.98H1253.3m.97-15.99H190.64m0-15.98h1073.14m0-15.99H190.64m0-15.98h1073.14m0-15.99H190.64m0-15.98h1079.35m15.98-15.99H885.04m5.08-15.98h411.84m15.98-15.99H886.56m60.63-127.88H190.64m0-15.98h746.01m64.32-47.96h109.46m7.27 15.99h-104.19m3.9 15.98h181.61m-15.99-15.98h-20.18M1355.7 619.7h305.82m-.47 15.98h-321.34m-15.98 15.99h347.55m0 15.98h-363.54m-5.96 15.99h369.5m0 15.98h-369.5m0 15.99h369.5m0 15.98h-360m.97 15.99h356.49m-8.31 15.98h-358.27m-38.77 0h-60.93m15.99 15.99h444.21m15.51 15.98h-443.74m-21.77 31.97H190.64m0-15.98h1006.04m31.97 31.97H190.64m0 15.98h636.21m-1.87 1.87l8.39-8.39 10.97-4.54h11.87l10.97 4.54 6.3 6.3h554.67l126.65 126.66h8.91l10.97 4.54 8.39 8.39 4.55 10.97v11.87l-4.55 10.97-8.39 8.4-10.97 4.54h-11.87l-10.97-4.54-8.39-8.4-4.55-10.97v-8.9l-115.52-115.53H873.48l-6.3 6.3-10.97 4.54h-11.87l-10.97-4.54-8.39-8.4-4.55-10.97v-11.87l4.55-10.97m-4.55 14.12H190.64m0 15.98h632.8m19.3 15.99h-652.1m0 15.98h1247.93m-15.98-15.98H857.81m-132.24 103.91l4.55 10.97v11.87l-4.55 10.97-8.39 8.4-10.97 4.54h-11.87l-10.97-4.54-3.3-3.3H479.39l-20.36 20.35 5.31-2.19h11.87l10.97 4.54 6.3 6.3h448.93l58.87-58.87 11.13-11.13h355.74l139.15 139.16h8.91l10.97 4.54 8.39 8.39 4.55 10.97v11.87l-4.55 10.97-8.39 8.4-10.97 4.54h-11.87l-10.97-4.54-8.39-8.4-4.55-10.97v-8.9l-128.02-128.03h-324.26l-70 70H493.48l-6.3 6.3-10.97 4.54h-11.87l-10.97-4.54-8.39-8.4-2.7-6.52v287.81h1.61l8.2 8.2v47.22l-8.2 8.2h-47.22l-8.21-8.2v-47.22l8.21-8.2h1.61v-327.3l12.88-12.89 50-50h148.73l-6.52-2.7-6.3-6.3H473.48l-6.3 6.3-10.97 4.54h-11.87l-10.97-4.54-8.39-8.4-4.55-10.97v-11.87l4.55-10.97 8.39-8.39 10.97-4.54h11.87l10.97 4.54 6.3 6.3h123.59l6.3-6.3 10.97-4.54h11.87l10.97 4.54 8.39 8.39 4.55 10.97v11.87l-4.55 10.97-8.39 8.4-6.52 2.7h49.41l3.3-3.3 10.97-4.54h11.87l10.97 4.54 8.39 8.39m3.31 7.99h273.45m-15.99 15.98H729.65m-10.22 15.99h250.93m-15.99 15.98H462.36m15.98-15.98h202.78m19.16-23.05h-230l-50 50v350m31.81 6.69h497.89m0 15.98H452.09m0-31.97h497.89m0-15.98H450.42m-8.14-15.99h507.7m0-15.98h-507.7m0-15.99h507.7m0-15.98h-507.7m0-15.99h507.7m0-5.32l8.2-8.2h137.58l8.2 8.2v137.59l-8.2 8.2H958.18l-8.2-8.2v-137.59m153.98 5.32h200.35m0-5.32l8.2-8.2h137.58l8.2 8.2v137.59l-8.2 8.2h-137.58l-8.2-8.2v-137.59m0 21.31h-200.35m0 15.98h200.35m0 15.99h-200.35m0 15.98h200.35m0 15.99h-200.35m0 15.98h200.35m0 15.99h-200.35m0 15.98h200.35m153.98 0h920.88m2.94 2.94l-8.39-8.39-4.55-10.97v-8.91l-8.02-8.03h-488.93l-6.3 6.3-10.97 4.55h-11.87l-10.97-4.55-8.39-8.39-4.55-10.97v-11.87l4.55-10.97 8.39-8.4 10.97-4.54h11.87l10.97 4.54 6.3 6.3h504.67l19.15 19.16h8.91l10.97 4.54 8.39 8.4 4.55 10.97v11.87l-4.55 10.97-8.39 8.39-10.97 4.55h-11.87l-10.97-4.55m-12.75-18.92h-911.07m0-15.99h368.91m-8.03-15.98h-360.88m0-15.99h363.22m16.07-15.98h-379.29m0-15.99h1156.25m0-15.98H1458.29m0-15.99h1156.25m0-5.32l8.2-8.2h137.59l8.2 8.2v137.59l-8.2 8.2h-137.59l-8.2-8.2v-137.59m0 53.28h-754.09m10.38 47.95h491.71m21.77-31.97h230.23m0 15.99h-199.33m12.13 15.98h187.2m0 15.99h-185.86m-9.82 15.98h195.68m153.99 0h200.34m0 4.39v-137.59l8.2-8.2h137.59l8.2 8.2v137.59l-8.2 8.2h-137.59l-8.2-8.2m0-20.37h-200.34m0-15.99h200.34m0-15.98h-200.34m0-15.99h200.34m0-15.98h-200.34m0-15.99h200.34m0-15.98h-200.34m0-15.99h200.34m153.99 0h88.42m0-15.98h-2769m0-15.99h2769m0-15.98h-2769m0-15.99h2769m0-15.98h-1431.4m.95-15.99h1430.45m0-15.98H1780.83m0-15.99h1430.45m0-15.98H1762.5m0-15.99h1448.78m0-15.98h-213.97m-3.56 3.56l-17.28 7.16h-18.69l-17.28-7.16-13.22-13.22-7.15-17.28v-18.69l7.15-17.28 13.22-13.22 9.26-3.83h-63.69l9.25 3.83 13.23 13.22 7.15 17.28v18.69l-7.15 17.28-13.23 13.22-17.27 7.16h-18.7l-17.27-7.16-13.22-13.22-7.16-17.28v-18.69l7.16-17.28 13.22-13.22 9.25-3.83h-54.44l.12.06 6.49 4.71 5.68 5.68 4.71 6.5 3.65 7.15 2.48 7.63 1.26 7.93v1.19h-48.18v5.65h-5.65v-5.65h-48.17v-1.19l1.25-7.93 2.48-7.63 3.65-7.15 4.72-6.5 5.67-5.68 6.5-4.71.11-.06h-376.88l-1.21 2.9-8.39 8.4-10.97 4.54h-11.87l-10.97-4.54-8.39-8.4-4.55-10.97v-11.87l4.55-10.97 8.39-8.39 10.97-4.54h11.87l10.97 4.54 1.3 1.3h444.05l-2.1-5.07v-11.87l4.55-10.97 8.39-8.39 10.97-4.54h11.87l10.97 4.54 5.91 5.91 64.5-1.09-2.61-2.62-4.55-10.97v-11.87l4.55-10.97 8.39-8.39 10.97-4.54h11.87l10.97 4.54 6.3 6.3h278.93l108.87-108.87 11.13-11.13h287.18v-6.14l28.88-28.88-28.88-28.87v-8.11h-298.11l4.09 4.09 4.55 10.97v11.87l-4.55 10.97-8.39 8.4-10.97 4.54h-8.91l-9.15 9.16h-460l-20 20h-24.67l-6.3 6.3-10.97 4.54h-11.87l-10.97-4.54-8.39-8.4-4.55-10.97v-11.87l4.55-10.97 8.39-8.39 10.97-4.54h11.87l10.97 4.54 6.3 6.3h8.93l8.87-8.87 11.13-11.13h458.02v-6.94l4.55-10.97 4.09-4.09h-345.59l-6.3 6.3-10.97 4.54h-11.87l-10.97-4.54-6.3-6.3h-43.59l-6.3 6.3-10.97 4.54h-11.87l-10.97-4.54-8.39-8.4-4.55-10.97v-11.87l2.1-5.06h-120.12l-10-10h-8.93l-6.3 6.3-10.97 4.54h-11.87l-10.97-4.54-8.39-8.4-4.55-10.97v-11.87l4.55-10.97 8.39-8.39 10.97-4.54h11.87l10.97 4.54 6.3 6.3h34.67l10 10h614.26l20-20h112.16l6.3-6.3 10.97-4.54h11.87l10.97 4.54 8.39 8.39 4.55 10.97v11.87l-4.55 10.97-8.39 8.4-10.97 4.54h-11.87l-10.97-4.54-6.3-6.3h-96.42l-12 12h287.3l26.02-26.02h42.25l28.87 28.88 28.88-28.88h42.25l29.87 29.88v42.25l-28.87 28.87 28.87 28.88v24.58l14.06 14.06 11.13 11.13v322.16l6.29 6.3 4.55 10.97v11.87l-4.55 10.97-8.39 8.4-10.97 4.54h-11.87l-10.97-4.54-8.39-8.4-4.55-10.97v-11.87l4.55-10.97 6.3-6.3V988.17l-17.06 17.06h-2.44v10.89l-11.13 11.13-20 20h-375.74l-11.13-11.13v-8.55l-319.4 5.42.5.49 23.65 15.77h1.04l6.3-6.3 10.97-4.54h11.87l10.97 4.54 8.39 8.39 4.55 10.97v11.87l-4.55 10.97-8.39 8.4-10.97 4.54h-11.87l-10.97-4.54-6.3-6.3h-4.91l-5.88 1.17-1.76-1.17h-2.11l-4.24-4.24-23.65-15.76h-80.02l9.25 3.83 13.22 13.22 7.16 17.28v18.69l-7.16 17.28-13.22 13.22m15.84-19.55h201.69m0-9.77l-6.3-6.3-4.55-10.97v-11.87l4.55-10.97 8.39-8.39 10.97-4.54h11.87l10.97 4.54 8.39 8.39 4.55 10.97v11.87l-4.55 10.97-6.29 6.3v363.59l6.29 6.3 4.55 10.97v11.87l-4.55 10.97-8.39 8.4-10.97 4.54h-11.87l-10.97-4.54-8.39-8.4-4.55-10.97v-11.87l4.55-10.97 6.3-6.3v-363.59m-6.22-6.21h-190.93m-.97-15.99h187.27m3.75-15.98h-47.82m3.76-15.99h407.4m-2.09 5.03l4.55-10.97 8.39-8.39 10.97-4.54h11.87l10.97 4.54 8.39 8.39 4.55 10.97v11.87l-4.55 10.97-6.29 6.3v191.09l6.29 6.3 4.55 10.97v11.87l-4.55 10.97-8.39 8.4-10.97 4.54h-11.87l-10.97-4.54-8.39-8.4-4.55-10.97v-11.87l4.55-10.97 6.3-6.3v-191.09l-6.3-6.3-4.55-10.97v-11.87m0 10.96h-67.93m-.32-.32l8.39 8.39 4.55 10.97v11.87l-4.55 10.97-3.79 3.8v206.09l6.29 6.3 4.55 10.97v11.87l-4.55 10.97-8.39 8.4-10.97 4.54h-11.87l-10.97-4.54-8.39-8.4-4.55-10.97v-11.87l4.55-10.97 6.3-6.3v-201.33l-.41-.16-8.39-8.4-4.55-10.97v-11.87l4.55-10.97 8.39-8.39 10.97-4.54h11.87l10.97 4.54m11.67 16.3h28.45m2.04-.84h11.87l10.97 4.54 8.39 8.39 4.55 10.97v11.87l-4.55 10.97-6.29 6.3v103.59l6.29 6.3 4.55 10.97v11.87l-4.55 10.97-8.39 8.4-10.97 4.54h-11.87l-10.97-4.54-8.39-8.4-4.55-10.97v-11.87l4.55-10.97 6.3-6.3v-103.59l-6.3-6.3-4.55-10.97v-11.87l4.55-10.97 8.39-8.39 10.97-4.54m13.91.84h20.82m-1.88 15.99h4.09m0 15.98h-1.16m1.16 15.99h-7.76m-4.24 15.98h12m0 15.99h-12m0 15.98h12m0 15.99h-12m0 15.98h12m0 15.99h-12m4.05 15.98h7.95m0 15.99h-1.16m1.16 15.98h-4.01m-5.7 15.99h-12.86m-16.87 0h-35.06m0 15.98H3566m10.35 15.99h-70.59m6.86 15.98h433.36m0-15.98H3614.2m10.36-15.99h321.42m0-15.98h-322m-9.7-15.99h331.7m0-15.98h-331.7m0-15.99h331.7m0-15.98h-62.06m3.7-15.99h58.36m0-15.98h-63.1m-6.1-15.99h69.2m0-15.98h-69.2m0-15.99h69.2m0-15.98h-69.2m0-15.99h69.2m0-15.98h-69.2m0-15.99h69.2m0-15.98h-69.2m0-15.99h69.2m0-15.98h-69.2m0-15.99h69.2m-59.06-15.98h-10.14m0-15.99h10.14m0-15.99h-10.14m0-15.98h10.14m0-15.99h-10.14m0-15.98h10.14m0-15.99h-10.14m0-15.98h10.14m0-15.99h-10.14m-7.42-15.98h17.56m0-15.99h-33.55m-1.78-15.98h35.33m0-15.99h-40.93M3830 811.52h56.92m0-15.99h-55.51m15.99-15.98h39.52m0-15.99h-35.33m0-15.98h35.33m0-15.99h-36.84m-15.99-15.98h52.83m0-15.99h-359.3m-3.6-15.98h362.9m0-15.99H2147.74m15.99-15.98h1723.19m0-15.99H2179.71m15.99-15.98h1691.22m0-15.99H2356.17m3.95-15.98h1526.8m0-15.99H2355.74m-165.83 0h-330.92m-31.32 15.99h346.26m-15.99 15.98h-346.26m-92.65 15.99h422.93m-15.99 15.98H1719.5m-10.22 15.99h220.71M1914 667.65h-204.72m0 15.99h188.74m-15.99 15.98h-172.75m0 15.99h156.77m-15.99 15.98h-140.78m2.53 15.99h122.27m-15.99 15.98h-97.97m-2.22 15.99h84.21m-15.99 15.98h-83.74m58.9 63.94h-332.91m15.99 15.99h316.92m0 15.98h-300.94m15.99 15.99h284.95m0 15.98h-268.97m15.99 15.99h252.98m0 15.98h-237m15.99 15.99h221.01m0 15.98h-194.07m17.73 15.99h176.34m0 15.99h-173.66m-7.2 15.98h180.86m0 15.99h-351.09m15.99 15.98h335.1m0 15.99h-319.12m15.99 15.98h303.13m-9.59 15.99h-277.56m15.99 15.98h245.59m-11.21 15.99h-218.4m30.24 15.98h188.16m0 15.99h-184.38m-4.55 15.98h181.63m0 15.99H442.28m0 15.98H1717.2m.95 15.99H442.28m-44 0H190.64m0 15.98h207.64m0 15.99H190.64m0 15.98h207.64m0 15.99H190.64m0 15.98h207.64m0 15.99H190.64m0 15.98h207.64m0 15.99H190.64m0 15.98h207.64m-8.15 15.99H190.64m0 15.98h197.82m0 15.99H190.64m0 15.98h197.82m-197.82 15.99h3020.64m0 15.98H190.64m0 15.99h3011.22m-1.15 15.98H190.64m0 15.99h3020.03m39.21 0h696.1m0 15.98H190.64m0 15.99h3755.34m0 15.98H190.64m0 15.99h3755.34m0 15.98H190.64m0-383.64h207.64m0-15.98H190.64m0-15.99h207.64m0-15.98H190.64m0-15.99h207.64m0-15.98H190.64m0-15.99h207.64m0-15.98H190.64m0-15.99h207.64m0-15.98H190.64m0-15.99h209.49m15.99-15.98H190.64m0-15.99H432.1m15.99-15.98H190.64m0-15.99h242.52m-11.41-15.99H190.64m0-15.98h230.18m10.12-15.99h-240.3m0-15.98h1263.92m15.98 15.98h-218.42m-2.44-2.43l8.39 8.39 4.55 10.97v11.87l-4.55 10.97-8.39 8.4-10.97 4.54h-11.87l-10.97-4.54-6.3-6.3h-136.09l-6.3 6.3-10.97 4.54h-11.87l-10.97-4.54-8.39-8.4-4.55-10.97v-11.87l4.55-10.97 8.39-8.39 10.97-4.54h11.87l10.97 4.54 6.3 6.3h136.09l6.3-6.3 10.97-4.54h11.87l10.97 4.54m12.55 18.42h224.3m15.98 15.98H1261.3m-11.41 15.99h268.61m9.43 15.99h-149.71m15.99 15.98h140.92m-114.74 79.93h-70.83m0 5.03l-7.16 17.28-13.22 13.22-17.27 7.16h-18.7l-17.27-7.16-13.23-13.22-7.15-17.28v-18.69l7.15-17.28 13.23-13.22 17.27-7.15h18.7l17.27 7.15 13.22 13.22 7.16 17.28v18.69m-4.54 10.95h91.36m15.98 15.99h-119.61m-60.38 0h-38.05m-3.56 3.56l-17.28 7.16h-18.7l-17.27-7.16-13.22-13.22-7.16-17.28v-18.69l7.16-17.28 13.22-13.22 17.27-7.15h18.7l17.28 7.15 13.22 13.22 7.15 17.28v18.69l-7.15 17.28-13.22 13.22m15.84-19.55h13.49m-4.53-15.98h-4.43m-.96-15.99h6.35m7.23-15.98h-20.81m-21.36-15.99h63.53m34.9 0h52.43m15.98 15.99h-47.05m7.23 15.98h55.81m-47.96-47.95H1024.1m-15.99 15.98h70.92m-.05.03l7.15-3.65 7.64-2.48 7.92-1.25h1.19v48.17h-48.17v-1.19l1.25-7.93 2.49-7.63 3.64-7.15 4.72-6.5 5.67-5.68 6.5-4.71m-16.21 15.96h-70.64m-15.99 15.98h79.78m-1.21 14.5h48.17v-5.65h5.66v5.65h48.17v1.19l-1.26 7.93-2.48 7.63-3.64 7.16-4.72 6.49-5.68 5.68-6.49 4.71-7.15 3.65-7.64 2.48-7.93 1.26-1.18-.01v-48.17h-5.66v48.18h-1.19l-7.92-1.26-7.64-2.48-7.15-3.65-6.5-4.71-5.67-5.68-4.72-6.49-3.64-7.16-2.49-7.63-1.25-7.93v-1.19m.05 1.49h-94.6m98.65 15.98H442.28m0-15.98h2.78m-2.78 31.97h627.58m33.02 0h5.66m0-15.99h-5.66m0-15.98h5.66m0-7.14h48.17v-1.19l-1.26-7.93-2.48-7.63-3.64-7.15-4.72-6.5-5.68-5.68-6.49-4.71-7.15-3.65-7.64-2.48-7.93-1.25h-1.18v48.17m0-8.85h-5.66m0-15.98h5.66m0-15.99h-5.66m29.51 0h54.29m-21.35 15.99h-16.68m6.85 15.98h2.6m-.97 15.99h-.47m-4.05 15.98h9.06m12.28 15.99h-32.4m74.11-143.87h-148.27m-34.23 0H717.57m-34.59 0h-45.59m11.41-15.99h372.95m-.93-15.98H649.73m-10.11-15.99h391.32m38.68 0h143.82m254.91 207.81H442.28m0 15.99h1038.15m4.56 15.98H442.28m25.11-191.82h135.77m-2.22-47.96H469.62m-64.26-159.85H190.64m0-15.98h209.79m1373.03 367.66h960.97m2.62 2.62l-5.67-5.68-4.72-6.49-3.65-7.16-2.48-7.63-1.25-7.93v-1.19h48.17v48.18h-1.19l-7.93-1.26-7.63-2.48-7.15-3.65-6.5-4.71m-13.67-18.61h-933.93m9.83-15.98h920.04m1.17-15.99h-921.21m0-15.98h928.05m16.27-15.99h-376.84m-52.97 0h-514.51m0-15.98h511.15m5.58-15.99h-516.73m0-15.98h1001.15m3.72-15.99H1799.28m0-15.99h1112.47m-.93-15.98H1799.28m0-15.99h1121.66m38.68 0h286.65m15.98-15.98H1799.28m0-15.99h1478.96m15.98-15.98H2733.3m2.27-2.28l-8.39 8.4-10.97 4.54h-11.87l-2.03-.84h-509.9l-11.13-11.13V741.45l-6.3-6.3-4.55-10.97v-11.87l4.55-10.97 8.39-8.39 10.97-4.54h11.87l10.97 4.54 8.39 8.39 4.55 10.97v11.87l-4.55 10.97-6.29 6.3v137.8h139.79l-4.09-4.1-4.55-10.97v-11.87l4.55-10.97 8.39-8.39 10.97-4.54h11.87l10.97 4.54 6.3 6.3h233.59l6.3-6.3 10.97-4.54h11.87l10.97 4.54 8.39 8.39 4.55 10.97v11.87l-1.43 3.45 4.68-4.68 10.97-4.54h11.87l10.97 4.54 8.39 8.39 4.55 10.97v11.87l-4.55 10.97m4.55-13.71h570.09m15.98-15.98h-588.91m-18.49-15.99h623.39m15.98-15.98H2841.9m15.99-15.99h797.3m15.99-15.98h-321.97m10.35-15.99h310.21m-15.99-15.98h-294.81m-57.39 0h-1082.3m0 15.98h616.84m-11.8-31.97h-605.04m0-15.98h601.15m-55.53 63.94h-545.62m0 15.98h541.15m3.86 15.99h-77.83m3.66 15.98h11.64m-5.01-127.88h-17.62m-37.71 0h-414.37m3.07-15.98h400.9m.53-15.99h-407.7m-47.15 0h-240.93m-15.98 15.99h250.64m3.07 15.98h-269.7m-15.98 15.99h293.46m0 15.98h-309.45m-15.98 15.99h325.43m0 15.98h-341.42m-15.99 15.99h357.41m0 15.98h-373.39m-8.61 15.99h382m0 15.98h-382m0 15.99h382m0 15.98h-382m0 15.99h383.31m36.69-31.97h136m-4.85-15.99h-131.15m0-15.98h134.81m-222.33-159.85h510.92m35.19 0h680.15m164.6 31.97h144.47m67 0h33m-15.99 15.98h-1.02m-98.6 145.66h-273.33l-108.87 108.87-5.79 5.78 148.78-2.52.14-.13h7.7l7.71-.13.14.13h.19l5.45 5.45 5.54 5.36v.19l.14.13v7.71l.02 1.16h333.11l5.53-5.54-24.52-24.52-30.05 30.04h-20.78v-53h-4v-4h-53v-20.78l30.05-30.05-24.16-24.15m14.2 14.19h-301.73m-15.99 15.99h321.65m-15.98 15.98h-321.65m-15.99 15.99h329.6m0 16.83h53v53h-20.78l-32.22-32.22v-20.78m0 15.14h-361.57m-15.98 15.98h387.89m15.99 15.99h-232.64m-38 31.97h-316.16m-20.55 31.97h-80m21.36 15.99h82.49m67.11-31.97h426.83m25.83 0h230.59m0 15.98h-215.75m2.09 15.99h213.66m0 15.98h-222.3m-2.2 15.99h224.5m0 15.98h-224.5m0 15.99h224.5m0 15.98h-224.5m0 15.99h224.5m0 15.98h-224.5m0 15.99h218.39m-4.74 15.98h-213.65m0 15.99h217.35M3945.98 1371H3509.8m-18.41 15.98h454.59m0 15.99h-696.7m0 15.98h696.7m0 15.99h-696.7m0 15.98h696.7m0 15.99h-696.7m0 15.98h696.7m0 15.99H3258.7m1.14 15.98h686.14m-427.69-223.79h-16.51m0-15.98h13.65m6.79-15.99h-20.44m0-15.98h24.5m0-15.99h-24.5m0-15.98h24.5m0-15.99h-24.5m0-15.98h24.5m0-15.99h-24.5m0-15.98h20.25m-6.6-15.99h-13.65m7.9-15.98h8.68m-57.32 15.98h-211.76m0 15.99h214.5m0 15.98h-214.5m0 15.99h214.5m0 15.98h-214.5m0 15.99h214.5m0 15.98h-214.5m0 15.99h214.5m0 15.98h-214.5m0 15.99h214.5m0 15.98h-214.5m0 15.99h214.5m0 15.98h-214.5m0 15.99h210.51m-6.86 15.98h-203.65m0 15.99h206.48m18.41 15.98h-224.89m-38 0h-88.42m0-15.98h88.42m0-15.99h-88.42m0-15.98h88.42m0 63.94h-88.42m0 15.98h88.42m0 15.99h-88.42m0 15.98h88.42m-407.78-301.09l-6.49 4.71-7.16 3.65-7.63 2.48-7.93 1.26-1.19-.01v-48.17h48.18v1.19l-1.26 7.93-2.48 7.63-3.65 7.16-4.71 6.49-5.68 5.68m2.62-2.62h32.39m-12.27-15.99h-9.07m4.06-15.98h.47m.96-15.99h-2.6m-6.84-15.98h16.67m21.36-15.99h-54.3m-23.85 47.96h-5.65m0 15.98h5.65m0 15.99h-5.65m131.44 0h38.05m-12.28-15.99h-13.49m4.53-15.98h4.43m.96-15.99h-6.35m-7.23-15.98h20.81m21.36-15.99h-63.53m370.22 15.99h206.68m-11.35 15.98h-191.58m-4.63 15.99h195.38m-150.86-159.86h398.58m0 15.99h4m0 15.98h-4m0 15.99h4m26.67 0h48.31m-15.98-15.99h-16.34m54.83 47.96h38.7m0-15.98h-22.71m7.54-15.99h15.17m48.14-447.58H2100.63m24.63-15.99h1761.66m0-15.98H2143.61m13.32-15.99h1729.99m0-15.98H2166.86m6.81-15.99h1713.25m0-15.98H2179.95m68.05-15.99h1638.92m0-15.98H2331.88m83.88-15.99h1471.16m0-15.98H2499.63m83.88-15.99h1303.41m0-15.98H2667.39m83.88-15.99h1135.65m0-15.98H2865.55m18.88-15.99h101m-1.28-.53l-11-11-5.95-14.37v-15.55l5.95-14.37 11-11 14.37-5.95h15.56l14.37 5.95 11 11 5.95 14.37v15.55l-5.95 14.37-11 11-14.37 5.95h-15.56l-14.37-5.95m-12.84-15.46h-83.82m0-15.98h79.71m2.69-15.99h-82.4m0-15.98h93.78m32.26-31.97h176.48m-5.78-15.99h-164.92m0-15.98h164.92m0-15.99h-164.92m0-15.98h164.92m0-15.99h-164.92m-116.58 0h-15.24m0 15.99h15.24m0 15.98h-15.24m0 15.99h15.24m0 15.98h-15.24m0 15.99h21.03m-21.03 15.98h886.02m-10.22-15.98h-468.26m5.78-15.99h452.51m-4.42-15.98h-448.09m0-15.99h443.68m-2.22-15.98h-441.46m0-15.99h441.94m46.94 111.9h-567.42m-2.88-2.88l11 11 5.95 14.37v15.55l-5.95 14.37-11 11-14.37 5.95h-15.55l-14.37-5.95-11-11-5.95-14.37v-15.55l5.95-14.37 11-11 14.37-5.95h15.55l14.37 5.95m14.26 18.86h574.93m36.54 15.99h-608.78m-4.1 15.98h654.68m0 15.99h-668.81m-41.73 0h-149.21m14.12-15.99h120.96m-4.1-15.98H3045.4m-2.7-15.99h118.14m11.37-15.98h-140.88"/><use x="3252.64" y="354.76" xlink:href="#ryZJKgTh1Z_pad-19"/><use x="2790.28" y="558.25" xlink:href="#ryZJKgTh1Z_pad-19"/><use x="2660.28" y="708.25" xlink:href="#ryZJKgTh1Z_pad-19"/><use x="2580.28" y="738.25" xlink:href="#ryZJKgTh1Z_pad-19"/><use x="2660.28" y="858.25" xlink:href="#ryZJKgTh1Z_pad-19"/><use x="2710.28" y="888.25" xlink:href="#ryZJKgTh1Z_pad-19"/><use x="2790.28" y="828.25" xlink:href="#ryZJKgTh1Z_pad-19"/><use x="2850.28" y="748.25" xlink:href="#ryZJKgTh1Z_pad-19"/><use x="2940.28" y="748.25" xlink:href="#ryZJKgTh1Z_pad-19"/><use x="3140.28" y="668.25" xlink:href="#ryZJKgTh1Z_pad-19"/><use x="3330.28" y="788.25" xlink:href="#ryZJKgTh1Z_pad-19"/><use x="3200.28" y="868.25" xlink:href="#ryZJKgTh1Z_pad-19"/><use x="2940.28" y="978.25" xlink:href="#ryZJKgTh1Z_pad-19"/><use x="2830.28" y="1018.25" xlink:href="#ryZJKgTh1Z_pad-19"/><use x="3130.28" y="1068.25" xlink:href="#ryZJKgTh1Z_pad-19"/><use x="3230.28" y="1098.25" xlink:href="#ryZJKgTh1Z_pad-19"/><use x="3480.28" y="1108.25" xlink:href="#ryZJKgTh1Z_pad-19"/><use x="3545.28" y="1128.25" xlink:href="#ryZJKgTh1Z_pad-19"/><use x="3595.28" y="1078.25" xlink:href="#ryZJKgTh1Z_pad-19"/><use x="3857.78" y="1228.25" xlink:href="#ryZJKgTh1Z_pad-19"/><use x="3595.28" y="1315.75" xlink:href="#ryZJKgTh1Z_pad-19"/><use x="3545.28" y="1278.25" xlink:href="#ryZJKgTh1Z_pad-19"/><use x="3482.78" y="1358.25" xlink:href="#ryZJKgTh1Z_pad-19"/><use x="3230.28" y="1508.25" xlink:href="#ryZJKgTh1Z_pad-19"/><use x="3790.28" y="1568.25" xlink:href="#ryZJKgTh1Z_pad-19"/><use x="2399.02" y="1428.56" xlink:href="#ryZJKgTh1Z_pad-19"/><use x="2109.02" y="1518.56" xlink:href="#ryZJKgTh1Z_pad-19"/><use x="1949.02" y="1438.56" xlink:href="#ryZJKgTh1Z_pad-19"/><use x="1849.02" y="1398.56" xlink:href="#ryZJKgTh1Z_pad-19"/><use x="1570.28" y="1180.75" xlink:href="#ryZJKgTh1Z_pad-19"/><use x="1510.28" y="1178.25" xlink:href="#ryZJKgTh1Z_pad-19"/><use x="1557.78" y="1015.75" xlink:href="#ryZJKgTh1Z_pad-19"/><use x="1232.78" y="978.25" xlink:href="#ryZJKgTh1Z_pad-19"/><use x="1050.28" y="978.25" xlink:href="#ryZJKgTh1Z_pad-19"/><use x="850.28" y="878.25" xlink:href="#ryZJKgTh1Z_pad-19"/><use x="770.28" y="728.25" xlink:href="#ryZJKgTh1Z_pad-19"/><use x="860.28" y="618.25" xlink:href="#ryZJKgTh1Z_pad-19"/><use x="640.28" y="618.25" xlink:href="#ryZJKgTh1Z_pad-19"/><use x="430.28" y="778.25" xlink:href="#ryZJKgTh1Z_pad-19"/><use x="450.28" y="978.25" xlink:href="#ryZJKgTh1Z_pad-19"/><use x="470.28" y="1098.25" xlink:href="#ryZJKgTh1Z_pad-19"/><use x="620.28" y="978.25" xlink:href="#ryZJKgTh1Z_pad-19"/><use x="700.28" y="1028.25" xlink:href="#ryZJKgTh1Z_pad-19"/><use x="790.28" y="1228.25" xlink:href="#ryZJKgTh1Z_pad-19"/><use x="520.28" y="1258.25" xlink:href="#ryZJKgTh1Z_pad-19"/><use x="1282.78" y="740.75" xlink:href="#ryZJKgTh1Z_pad-19"/><use x="1690.28" y="768.25" xlink:href="#ryZJKgTh1Z_pad-19"/><use x="1690.28" y="628.25" xlink:href="#ryZJKgTh1Z_pad-19"/><use x="1840.28" y="548.25" xlink:href="#ryZJKgTh1Z_pad-19"/><use x="2200.28" y="718.25" xlink:href="#ryZJKgTh1Z_pad-19"/><use x="2380.28" y="858.25" xlink:href="#ryZJKgTh1Z_pad-19"/><use x="2340.28" y="1053.25" xlink:href="#ryZJKgTh1Z_pad-19"/><use x="1895.28" y="978.25" xlink:href="#ryZJKgTh1Z_pad-19"/><use x="2330.28" y="588.25" xlink:href="#ryZJKgTh1Z_pad-19"/><use x="1500.28" y="448.25" xlink:href="#ryZJKgTh1Z_pad-19"/><use x="1140.28" y="408.25" xlink:href="#ryZJKgTh1Z_pad-19"/><use x="700.28" y="268.25" xlink:href="#ryZJKgTh1Z_pad-19"/><use x="280.28" y="438.25" xlink:href="#ryZJKgTh1Z_pad-19"/><use x="3497.78" y="698.25" xlink:href="#ryZJKgTh1Z_pad-19"/><path fill="none" stroke-width="10" d="M3497.78 698.25h-127.5l-20 20h-640v-10h-50m-80 20v10m80 120h-280m-180 40v-180m-80-50l80-80h130m-210 80h-180l-160 160v285.27l-36.78 36.78v62.75l5.52 5.51m-238.74-40.31l-150-150h-340l-70 70h-480m-20-120h170m230-100h570l137.5 137.5m222.5-187.5h-540l-50-50h-760m210-160h220m-90 80v30m280 250h182.5m50-237.5v-75l77.5-77.5h440l40-40m-150 80v140m205 172.5v37.5m305-80h500l10-10m80-60h40l20-20h460l20-20m40 70h326.29l4.02-4.02m100 0h20.67l36.52 36.52v337.5m-187.5-125v-25m-75 0v237.5m-50-37.5v-150m-62.5-17.5l-2.5-2.5m2.5 2.5v247.5m-252.5 150v-410m-100-30h-30l-30-20h-730v5m490-35l590-10v20h360l20-20v-53.7l.31-.32m-100-200l-5.98-5.98h-844.33m-60-190h-60m450 280l20 20v10m50 110l120-120m-120 120h-310m442.5-350l12.5-12.5m200-150h25m-322.5-90l-45.14-20.99m-883.62 1043.8h-520m268.47 92.47l12.79-12.78m-12.79 12.78l-8.47 27.53m260-120l30 30m1381.26 149.69l10-10m-2290-1120l-10-10h-270l-30-30h-50m-440-110v-30m-420 170v80m510 710l80 70m-350-40l-10 10"/><use x="3620.28" y="465.75" xlink:href="#ryZJKgTh1Z_pad-21"/><use x="3670.28" y="1078.25" xlink:href="#ryZJKgTh1Z_pad-21"/><use x="1749.02" y="1218.56" xlink:href="#ryZJKgTh1Z_pad-22"/><use x="420.28" y="1428.25" xlink:href="#ryZJKgTh1Z_pad-22"/></g><g id="pcb-stackup_bottom_ss"><path fill="none" stroke-width="8" d="M168.7 1642.42h3799.21"/><path fill="none" stroke-width="7.87" d="M306.5 106.98l.93 2.77.87 2.79.8 2.8.73 2.83.66 2.84.59 2.86.53 2.87.45 2.89.38 2.89.32 2.9.24 2.91.17 2.92.1 2.91.03 2.92-.04 2.92-.11 2.92-.19 2.91-.25 2.91-.33 2.9-.39 2.89-.47 2.89-.53 2.87-.6 2.85-.68 2.84-.74 2.82-.81 2.81-.88 2.78-.95 2.76-1.01 2.74-1.08 2.71-1.14 2.69-1.21 2.66-1.28 2.62-1.33 2.6-1.4 2.56-1.46 2.53-1.53 2.49-1.58 2.45-1.64 2.41-1.7 2.38-1.76 2.33-1.81 2.29-1.87 2.24-1.92 2.2-1.98 2.14-2.03 2.11-2.07 2.05-2.13 2-2.17 1.94-2.22 1.9-2.27 1.84-2.31 1.78-2.35 1.73-2.4 1.67-2.43 1.61-2.48 1.55-2.5 1.49-2.55 1.43-2.58 1.37-2.61 1.31-2.64 1.24-2.68 1.17-2.69 1.11-2.73 1.05-2.75.98-2.77.91-2.8.84-2.81.77-2.84.71-2.84.64-2.87.57-2.87.5-2.89.42-2.9.36-2.9.29-2.91.22-2.92.14-2.92.08h-2.92l-2.92-.06-2.91-.14-2.91-.21-2.91-.28-2.9-.35-2.89-.42-2.87-.49-2.87-.56m0 .01v1377.95M1212.01 303.84l708.27 134.41.36 2.94.44 2.93.5 2.92.58 2.91.65 2.89.72 2.87.79 2.86.86 2.83.93 2.81 1 2.79 1.07 2.77 1.13 2.74 1.2 2.7 1.27 2.68 1.33 2.65 1.4 2.61 1.46 2.58 1.53 2.54 1.58 2.5 1.65 2.47 1.7 2.42 1.77 2.38 1.82 2.34 1.88 2.29 1.94 2.24 1.99 2.19 2.04 2.15 2.1 2.1 2.14 2.04 2.2 1.99 2.24 1.93 2.29 1.88 2.34 1.83 2.38 1.76 2.42 1.71 2.46 1.64 2.51 1.59 2.54 1.52 2.58 1.46 2.61 1.4 2.65 1.33 2.68 1.27 2.7 1.2 2.74 1.13 2.77 1.07 2.79.99 2.81.93 2.84.86 2.85.79 2.88.72 2.89.65 2.9.58 2.92.51 2.93.43 2.94.36 2.95.29 2.96.22 2.96.15 2.96.07h2.96l2.96-.07 2.96-.15 2.96-.22 2.95-.29 2.94-.36 2.93-.43 2.92-.51 2.9-.58 2.89-.65 2.88-.72 2.85-.79 2.84-.86 2.81-.93 2.79-.99 2.77-1.07 2.74-1.13 2.7-1.2 2.68-1.27 2.65-1.33 2.61-1.4 2.58-1.46 2.54-1.52 2.51-1.59 2.46-1.64 2.42-1.71 2.38-1.76 2.34-1.83 2.29-1.88 2.24-1.93 2.2-1.99 2.14-2.04 2.1-2.1 2.04-2.15 1.99-2.19 1.94-2.24 1.88-2.29 1.82-2.34 1.77-2.38 1.7-2.42 1.65-2.47 1.58-2.5 1.53-2.54 1.46-2.58 1.4-2.61 1.33-2.65 1.27-2.68 1.2-2.7 1.13-2.74 1.07-2.77 1-2.79.93-2.81.86-2.83.79-2.86.72-2.87.65-2.89.58-2.91.5-2.92.44-2.93.36-2.94 705.27-134.41V106.99h905.51l-.91 2.79-.85 2.82-.79 2.84-.71 2.86-.64 2.87-.57 2.89-.5 2.9-.43 2.91-.36 2.92-.29 2.93-.21 2.93-.15 2.94-.07 2.95v2.94l.07 2.94.14 2.94.22 2.94.28 2.93.36 2.92.43 2.91.5 2.9.56 2.89.64 2.87.71 2.86.78 2.84.85 2.82.92 2.79.98 2.78 1.05 2.75 1.12 2.72 1.19 2.69 1.24 2.67 1.32 2.63 1.38 2.6 1.44 2.57 1.5 2.53 1.57 2.49 1.62 2.46 1.68 2.41 1.75 2.38 1.8 2.32 1.85 2.29 1.91 2.24 1.97 2.19 2.02 2.14 2.07 2.09 2.12 2.05 2.17 1.99 2.21 1.93 2.27 1.88 2.3 1.83 2.36 1.77 2.39 1.71 2.44 1.65 2.47 1.59 2.52 1.54 2.55 1.47 2.58 1.4 2.62 1.35 2.65 1.28 2.68 1.21 2.71 1.15 2.74 1.08 2.76 1.02 2.79.95 2.81.87 2.83.82 2.85.74 2.86.67 2.88.6 2.9.53 2.91.46 2.91.39 2.93.32 2.93.25 2.94.17 2.94.11 2.95.03 2.94-.04 2.94-.11 2.94-.18 2.93-.26 2.93-.32 2.91-.4 2.91-.47 2.89-.54v748.03h59.05v629.92M1212.01 303.84V106.99H306.5"/><path fill="none" stroke-width="6" d="M1231.83 351.18l-4.63 21.78 4.29 6.6 16.33 3.47 6.94-32.67-16.33-3.47-6.6 4.29m36.61 2.09l-6.94 32.67m21.78 4.63l-14.84-37.3m21.78 4.63l-6.94 32.67m15.99-7.98l4.63-21.78m-3.47 16.33l21.78 4.63m-1.16 5.44l4.63-21.77m13.68 2.9l21.78 4.63-6.94 32.67m14.84-2.54l2.31-10.89 6.6-4.28 16.34 3.47m2.31-10.89l-6.94 32.67-16.34-3.47-4.28-6.61m14.36-14.02l-8.58-13.2m35.46 7.54l21.78 4.63-6.94 32.67-21.78-4.63m14.36-14.02l10.89 2.31m11.36 13.8l26.41-17.15 1.16-5.45-21.78-4.63m-5.79 27.23l-1.15 5.44 21.78 4.63m13.68 2.91l21.77 4.63m-10.88-2.31l6.94-32.67m23.64 5.02l10.89 2.32m-5.45-1.16l-6.94 32.67m5.44 1.15l-10.89-2.31m24.57 5.22l6.95-32.67 8.57 13.21 13.21-8.58-6.95 32.67m14.84-2.54l4.29 6.61 10.89 2.31 6.6-4.29 1.16-5.44-4.29-6.6-10.89-2.32-4.29-6.6 1.16-5.44 6.6-4.29 10.89 2.31 4.29 6.6m-9.26 52.72l-6.94 32.67m-13.68-2.91l5.78-27.22-4.28-6.61-10.89-2.31-6.61 4.29-5.78 27.22m-13.68-2.91l6.94-32.67m-3.47 16.34l-10.89-2.32m-14.36 14.02l21.78 4.63m-33.15-18.42l-13.2 8.57-8.58-13.2 4.63-21.78m-14.83 2.53l-4.29-6.6-10.89-2.31-6.6 4.29m21.78 4.62l-4.63 21.78-6.61 4.29-10.89-2.31-4.28-6.61m-14.84 2.54l-21.78-4.63m10.89 2.32l6.94-32.67m-25.72.22l-5.79 27.22m-21.78-4.62l5.79-27.23 6.6-4.29 10.89 2.32 4.29 6.6m-34.3-12.98l-6.95 32.67-16.33-3.47-4.29-6.61 2.31-10.89 6.61-4.28 16.33 3.47m-10.89-2.32l-8.57-13.2m-13.68-2.91l-10.89-2.31m5.44 1.15l-6.94 32.67m5.44 1.16l-10.89-2.31m-12.75-2.71l-14.83-37.3-6.95 32.67m-12.52-8.36l4.63-21.78-4.29-6.6-10.89-2.31-6.6 4.29-2.31 10.88 10.89 2.32m8.57 13.2l-6.6 4.29-10.89-2.31-4.29-6.61m-14.49-25.84l1.15-5.44-5.44-1.16-1.16 5.44 5.45 1.16m-4.29-6.6l13.2-8.58m66.29-12.13l8.58 13.2 13.2-8.58m-19.46 33.48l-6.95 32.67m182.63 21.74l21.78 4.63m-1.16 5.45l4.63-21.78m84.6 17.98l14.84 37.3 6.94-32.67m13.68 2.91l-4.63 21.78 8.58 13.2 13.2-8.57 4.63-21.78m13.68 2.9l-6.95 32.67 13.21-8.57 8.57 13.2 6.95-32.67m-38.93 8.8l-21.78-4.63m105.22 28.06l-1.16 5.44 4.29 6.6 10.89 2.32 6.6-4.29m13.68 2.91l2.31-10.89 6.61-4.29 16.33 3.47m2.32-10.89l-6.95 32.67-16.33-3.47-4.29-6.6m14.36-14.02l-8.57-13.2m-13.68-2.91l-21.78-4.63m21.78 4.63l-26.41 17.15m104.06 33.5l21.78 4.63m-10.89-2.32l6.94-32.67m24.57 5.23l-4.63 21.78 8.58 13.2 13.2-8.57 4.63-21.78m-3.47 16.33l-21.78-4.63m73.23 4.19l-4.62 21.77 4.28 6.61 16.34 3.47 6.94-32.67-16.33-3.47-6.61 4.29m36.62 2.09l21.78 4.63-6.94 32.67-21.78-4.63m14.36-14.02l10.89 2.31m15.99-7.98l6.61-4.29 10.88 2.32 4.29 6.6-4.63 21.78-6.6 4.29-10.89-2.32-4.29-6.6m34.31 12.98l5.78-27.22 6.6-4.29 10.89 2.31 4.29 6.61-5.79 27.22m14.84-2.54l4.29 6.61 16.33 3.47 6.95-32.67-16.34-3.47-6.6 4.28-4.63 21.78m35.46 7.54l4.29 6.6 10.89 2.32 6.6-4.29 4.63-21.78-4.29-6.6-10.89-2.32-6.6 4.29-4.63 21.78m35.46 7.54l2.31-10.89 6.61-4.29 16.33 3.47m2.32-10.89l-6.95 32.67-16.33-3.47-4.29-6.6m14.36-14.02l-8.57-13.21m31.98 23.88l6.61-4.29 16.33 3.47m2.32-10.89l-6.95 32.67-16.33-3.47-4.29-6.61 2.31-10.88m1285.92 4.54v22.27l5.57 5.57h16.7v-33.4h-16.7l-5.57 5.56m35.3-5.56h11.14m-5.57 0v33.4m5.57 0h-11.14m25.12-33.4h22.27v33.4m13.98-5.57l5.57 5.57h11.13l5.57-5.57v-22.27l-5.57-5.56h-11.13l-5.57 5.56v22.27m36.25 0l5.57 5.57h11.13l5.57-5.57v-5.57l-5.57-5.56h-11.13l-5.57-5.57v-5.57l5.57-5.56h11.13l5.57 5.56m13.98-5.56h22.27v33.4h-22.27m11.14-16.7h11.13m13.99 0l5.56-5.57h16.7m-11.13 0l-11.13-11.13m0 16.7v11.13l5.56 5.57h16.7v-33.4m13.99 0v22.26l11.13 11.14 11.13-11.14v-22.26m13.99 5.56v27.84m-13.99-16.7h-22.26m36.25-11.14l5.57-5.56H3767l5.56 5.56v27.84m13.99-5.57v-22.27l5.57-5.56h11.13l5.57 5.56v22.27l-5.57 5.57h-11.13l-5.57-5.57m11.13-16.7l-11.13-11.13m0-25.66v-27.83l5.57-5.57h11.13l5.57 5.57v27.83m13.98-5.57l5.57 5.57h16.7v-33.4h-16.7l-5.57 5.57v22.26m5.57 31.23h11.13l5.57 5.56m-5.57 11.14h-11.13l-5.57-5.57v-5.57l5.57-5.56m11.13 16.7l5.57 5.56v5.57l-5.57 5.57h-11.13l-5.57-5.57m-55.8-53.49l5.56-5.57v-5.56l-5.56-5.57h-11.13l-5.57-5.56v-5.57l5.57-5.57H3767l5.56 5.57m-5.56 27.83h-11.13l-5.57-5.57m-25.12 5.57h-11.13m5.56 0v-27.83l5.57-5.57h5.57l5.56 5.57m0-31.22h-22.26m11.13 0v-33.4m-25.12 0h-11.13m5.57 0v33.4m5.56 0h-11.13m-13.04-5.57l-5.56 5.57h-11.13l-5.57-5.57m-13.99 0v-22.27l-5.56-5.56h-11.14l-5.56 5.56v22.27l5.56 5.57h11.14l5.56-5.57m13.99-22.27l5.57-5.56h11.13l5.56 5.56v22.27m74.41 5.57v-33.4l22.26 33.4v-33.4m13.99 0v22.26l11.13 11.14 11.14-11.14v-22.26m13.98 0v33.4l11.13-11.14 11.14 11.14v-33.4m-11.14-25.66l-11.13-11.13v-22.27m-13.98 0v33.4l-22.27-33.4v33.4m-13.99 0V458.8l-11.13-11.14-11.13 11.14v22.26m-13.99 0l-11.13-11.13-11.13 11.13v-33.4m-13.99 0v22.27l-11.13 11.13-11.13-11.13v-22.27m0 16.7h22.26m36.25-16.7v33.4m0-59.05h-11.13m5.57 0v-33.4m5.56 0h-11.13m-13.03 0v33.4h-16.7l-5.57-5.57v-11.13l5.57-5.57h16.7m-11.14 0l-11.13-11.13m-13.99 0h-22.26m-13.99 0v33.4l-22.26-33.4v33.4m-13.99 0h-16.7l-5.56-5.57v-22.27l5.56-5.56h16.7v33.4m-36.25 0v-33.4h-22.27m-13.98 0v33.4h-16.7l-5.57-5.57v-11.13l5.57-5.57h16.7m-11.13 0l-11.14-11.13m36.25-31.23l5.57 5.57h11.13l5.57-5.57v-5.56l-5.57-5.57h-11.13l-5.57-5.56v-5.57l5.57-5.57h11.13l5.57 5.57m13.99 0l5.56-5.57h16.7v33.4h-16.7l-5.56-5.57v-5.56l5.56-5.57h16.7m13.99 0h22.26m0 5.57l-11.13 11.13-11.13-11.13v-22.27m22.26 0v22.27m13.99-22.27h22.26v33.4m13.04 0h11.13m-5.56 0v-33.4m5.56 0h-11.13m25.12 5.57v22.26l5.56 5.57h16.7v-33.4h-16.7l-5.56 5.57m36.25 0v27.83m22.26 0v-27.83l-5.56-5.57h-11.13l-5.57 5.57m36.25-5.57v22.27l11.13 11.13 11.14-11.13v-22.27m13.98 5.57l5.57-5.57h11.13l5.57 5.57v22.26l-5.57 5.57h-11.13l-5.57-5.57m0-11.13h11.13m-11.13 0v-11.13m-13.98 11.13h-22.27m0 42.36v33.4m-13.99 0h-22.26m11.13 0v-33.4m25.12 0l22.27 33.4v-33.4m13.98 0v22.26l11.13 11.14 11.14-11.14v-22.26m0 16.7h-22.27m22.27 42.35v22.27l-11.14 11.13m-11.13-16.7h22.27m-36.25 59.06h-22.27m-86.49 42.35v22.27l-11.13 11.13-11.13-11.13v-22.27m-13.99 5.57v22.26l-5.57 5.57h-11.13l-5.57-5.57m0-11.13h11.14m-11.14 0v-11.13l5.57-5.57h11.13l5.57 5.57m13.99 11.13h22.26m-72.5-5.56h-16.7l-5.57 5.56v11.13l5.57 5.57h16.7v-33.4m-11.13 11.14l-11.14-11.14m-1.9-25.65h-16.7l-5.56-5.57v-11.13l5.56-5.57h16.7m-11.13 0l-11.13-11.13m-13.99 0h-22.27m11.14 16.7h11.13m0 16.7v-33.4m36.25 0v33.4m-36.25 0h-22.27m0-118.11h22.27m0-16.7h-11.13m30.68-59.06l-5.56-5.56v-5.57m83.63 70.19h11.13m0 16.7v-33.4m0 33.4h-22.26"/><path fill="none" stroke-width="3" d="M813.29 171.49v-19.01l-9.51-9.51-9.51 9.51v19.01m-9.98-14.26v-9.5l-4.76-4.76h-9.51m-4.75 9.51h19.02m0 4.75l-4.76 4.76h-9.51l-4.75-4.76v-4.75m-9.99 0l-9.5 9.51h-4.76m-9.9-4.76l-4.76 4.76H712.1m-9.98 0h-4.76v-19.02m-4.75 0h9.51m9.98 4.76l4.76 4.75h9.5l4.76 4.75m0-14.26h-14.26l-4.76 4.76m-14.74 23.76v4.76m-14.58-19.02v-9.5l-4.75-4.76h-9.51l-4.75 4.76v9.5l4.75 4.76h9.51l4.75-4.76m-29 4.76v-19.02m-19.01 0v14.26l4.75 4.76h14.26m-58 0l-9.51 9.5v-28.52m9.51 0h-19.02m-9.98 0h-4.76v4.76h4.76v-4.76m-14.5 4.76l-19.02 19.01v-19.01l4.76-4.76h9.5l4.76 4.76v19.01l-4.76 4.75h-9.5l-4.76-4.75m-14.74-19.01v-4.76h-4.75v4.76h4.75m-4.75-4.76l9.51-9.5m-48.34 9.5l-19.01 19.02v4.75l4.75 4.75h9.51l4.75-4.75m0-23.77h-19.01m-9.99 4.76l-19.01 19.01v-19.01l4.75-4.76h9.51l4.75 4.76v19.01l-4.75 4.75h-9.51l-4.75-4.75m-9.99-4.75l-9.51 9.5v-28.52m9.51 0h-19.02m-9.98 4.76l-4.76-4.76h-9.5l-4.76 4.76v4.75l4.76 4.75h14.26v-9.5m0 9.5l-9.51 9.51-9.51 4.75m386.36-9.5v-19.02"/><path d="M1117.23 1170.28l-54.53 31.49 31.49 54.53 54.53-31.49-31.49-54.53M1310.14 1256.3l31.49-54.53-54.53-31.49-31.49 54.53 54.53 31.49M1291.04 1602.75l54.53-31.49-31.49-54.53-54.53 31.49 31.49 54.53M1086.31 1512.8l-31.49 54.53 54.53 31.49 31.49-54.53-54.53-31.49M2755.61 1508.86l-31.49 54.53 54.53 31.49 31.49-54.53-54.53-31.49M2960.33 1598.82l54.53-31.49-31.49-54.53-54.53 31.49 31.49 54.53M2983.37 1256.3l31.49-54.53-54.53-31.49-31.49 54.53 54.53 31.49M2782.58 1170.28l-54.53 31.49 31.49 54.53 54.53-31.49-31.49-54.53"/><use x="2048.62" y="1386.52" xlink:href="#ryMyYep3kW_pad-15"/><path fill="none" stroke-width="5.91" d="M3312.38 588.32h33.58l4.52-44.46 10.06-2.91 9.67-4.01 9.16-5.04 34.64 28.24 23.75-23.75-28.24-34.63 5.04-9.17 4.01-9.67 2.91-10.05 44.46-4.52v-33.59l-44.46-4.52-2.91-10.05-4.01-9.67-5.04-9.17 28.24-34.63-23.75-23.75-34.64 28.24-6.82-3.88-7.12-3.3-19.78 47.74 6.43 3.32 5.79 4.36 4.97 5.26 4.02 6.02 2.96 6.6 1.81 7.01.61 7.22-.76 8.04-2.25 7.75-3.65 7.2-4.93 6.4-6.05 5.36-6.93 4.13-7.59 2.77-7.97 1.31-8.07-.21-7.89-1.71-7.44-3.15-6.71-4.49-5.76-5.66-4.6-6.64-3.28-7.38-1.85-7.86-.34-8.07 1.17-7.99 2.63-7.63 4.02-7.01 5.26-6.13 6.3-5.04 7.14-3.78-19.77-47.74-7.12 3.3-6.83 3.88-34.63-28.24-23.75 23.75 28.24 34.63-5.05 9.17-4 9.67-2.91 10.05-44.46 4.52v33.59l44.46 4.52 2.91 10.05 4 9.67 5.05 9.17-28.24 34.63 23.75 23.75 34.63-28.24 9.17 5.04 9.67 4.01 10.05 2.91 4.52 44.46m-.05-.46h33.68m.6-5.89h-34.87m-.6-5.89h36.07m.6-5.89h-37.27m-.6-5.9h38.47m.6-5.89h-39.67m-.6-5.89h40.86m.6-5.89h-42.06m-10.85-5.89h63.77m12.97-5.89h-89.71m-8.96 0h-53.51m3.08 5.89h43.21m-7.23 5.89h-30.09m5.89 5.89h16.98m-7.23 5.89h-3.85m-15.95-29.45h205.03m-4.8-5.89h-195.43m4.8-5.89h185.82m-4.8-5.89h-176.21m4.8-5.89h166.61m-1.72-5.89h-163.17m-3.24-5.89h76.45m-14.67-5.89h-64.36m-2.31-5.89h59.35m-4.9-5.89h-56.15m-28.65-5.9h81.37m-2.39-5.89h-95.68m0-5.89h94.3m-.41-5.89h-93.89m0-5.89h94.18m1.01-5.89h-95.19m.61-5.89h96.62m3.16-5.89h-55.52m1.71-5.89h58.26m6.45-5.89h-62.61m2.44-5.89h68.9m-2.44-5.89h-63.3m.51-5.89h60.35m-2.44-5.89h-62.71m-4.8-5.89h65.07m-2.44-5.89h-67.44m-4.8-5.9h69.8m-2.44-5.89h-14.08m-3.9 0h-54.18m.11-5.89h46.84m-7.22-5.89h-33.73m5.89-5.89h20.62m-7.23-5.89h-7.5m112.27 47.13h62.71m-4.81 5.89h-60.34m-2.44 5.89h63.3m3.16 5.89h-68.9m8.74 5.89h62.6m2.1 5.89h-58.21m4.43 5.89h55.48m-.31-41.23h-65.07m2.44-5.89h67.43m4.81-5.9h-69.8m2.44-5.89h14.07m3.91 0h54.18m-.11-5.89h-46.85m7.23-5.89h33.73m-5.89-5.89h-20.62m7.23-5.89h7.5m47.94 88.36h-96.68m2.02 5.89h95.28m0 5.89h-94.13m.35 5.89h93.78m0 5.89h-94.34m-1.44 5.89h95.78m-16.71 5.89h-81.36m-3.36 5.9h56.08m-1.71 5.89h-59.23m-7.41 5.89h64.34m-2.58 5.89h-76.33m45.31 41.23h53.51m-3.08 5.89h-43.2m7.22 5.89h30.09m-5.89 5.89h-16.97m7.22 5.89h3.86"/><path fill="none" stroke-width="21" d="M3436.28 1253.25h222m29 24v219l.05 1.01.02 1.01-.02 1.02-.06 1.01-.09 1-.13 1.01-.17 1-.21.99-.25.98-.28.97-.31.96-.36.95-.39.94-.42.92-.46.9-.49.89-.52.86-.55.85-.59.83-.62.8-.64.78-.68.75-.7.73-.73.7-.76.68-.78.64-.8.62-.83.58-.85.56-.86.52-.89.49-.91.45-.92.42-.93.39-.95.35-.96.32-.98.28-.98.24-.99.2-1 .17-1 .13-1.01.1h-218m-1 0l-1.01.05-1.01.02-1.02-.02-1.01-.06-1-.09-1.01-.13-1-.17-.99-.21-.98-.25-.97-.28-.96-.31-.95-.36-.94-.39-.92-.42-.9-.46-.89-.49-.86-.52-.85-.55-.83-.59-.8-.62-.78-.64-.75-.68-.73-.7-.7-.73-.68-.76-.64-.78-.62-.8-.58-.83-.56-.85-.52-.86-.49-.89-.45-.91-.42-.92-.39-.93-.35-.95-.32-.96-.28-.98-.24-.98-.2-.99-.17-1-.13-1-.1-1.01v-218m-.01-1l-.06-1-.02-1 .02-1 .06-.99.09-1 .13-.99.17-.98.21-.98.25-.97.28-.96.32-.94.36-.94.39-.92.42-.9.46-.89.5-.87.52-.85.56-.82.59-.81.62-.78.65-.76.68-.74.71-.7.73-.68.76-.65.78-.62.81-.59.83-.56.85-.53.87-.49.88-.46.91-.43.92-.39.93-.36.95-.32.96-.28.96-.25.98-.2.99-.18.99-.13.99-.09m220.01 0l1.01-.05 1.01-.02 1.02.02 1.01.06 1 .09 1.01.13 1 .17.99.21.98.25.97.28.96.31.95.36.94.39.92.42.9.46.89.49.86.52.85.55.83.59.8.62.78.64.75.68.73.7.7.73.68.76.64.78.62.8.58.83.56.85.52.86.49.89.45.91.42.92.39.93.35.95.32.96.28.98.24.98.2.99.17 1 .13 1 .1 1.01"/><path fill="none" stroke-width="24" d="M3550.28 1313.25v81m5 3h-12m7-12l128 129m-127-130l-129 128"/><path fill="none" stroke-width="22" d="M3429.28 1518.25l12-24m220 4l7 22"/><path fill="none" stroke-width="1" d="M3561.68 1312.25l-22.9.1v-7l18.5-9.1h4.4v16m0-.4h-22.9m0-.98h22.9m0-.99h-22.9m0-.98h22.9m0-.99h-22.9m0-.99h22.9m0-.98h-22.9m.8-.99h22.1m0-.98h-20.1m2-.99h18.1m0-.98h-16.09m2-.99h14.09m0-.98h-12.09m2-.99h10.09m0-.98h-8.08m2-.99h6.08"/><path fill="none" d="M952.17 445.57l.02.97.06.97.1.96.14.96.18.96.21.94.26.94.29.92.34.91.36.9.41.88.44.86.48.85.51.82.54.81.58.78.61.75.63.73.67.71.7.67.72.65.75.61.78.59.79.55.82.52.84.48.86.45.88.42.89.38.91.34.92.3.93.27.95.22.95.19.96.15.96.11.97.07.97.03.97-.01.97-.05.96-.09.96-.13.96-.17.95-.21.93-.24.93-.29.92-.32.9-.36.88-.39.87-.44.85-.46.83-.51.81-.53.78-.57.77-.6.73-.63.71-.66.68-.69.66-.72.62-.74.59-.77.56-.79.53-.82.5-.83.45-.86.43-.87.39-.89.35-.9.31-.92.27-.93.24-.94.2-.95.16-.96.12-.96.08-.97.04-.97v-.96l-.04-.97-.08-.97-.12-.96-.16-.96-.2-.95-.24-.94-.27-.93-.31-.92-.35-.9-.39-.89-.43-.87-.45-.86-.5-.83-.53-.82-.56-.79-.59-.77-.62-.74-.66-.72-.68-.69-.71-.66-.73-.63-.77-.6-.78-.57-.81-.53-.83-.51-.85-.46-.87-.44-.88-.39-.9-.36-.92-.32-.93-.29-.93-.24-.95-.21-.96-.17-.96-.13-.96-.09-.97-.05-.97-.01-.97.03-.97.07-.96.11-.96.15-.95.19-.95.22-.93.27-.92.3-.91.34-.89.38-.88.42-.86.45-.84.48-.82.52-.79.55-.78.59-.75.61-.72.65-.7.67-.67.71-.63.73-.61.75-.58.78-.54.81-.51.82-.48.85-.44.86-.41.88-.36.9-.34.91-.29.92-.26.94-.21.94-.18.96-.14.96-.1.96-.06.97-.02.97m0-236.22l.02.97.06.97.1.96.14.96.18.96.21.94.26.94.29.92.34.91.36.9.41.88.44.86.48.85.51.82.54.81.58.78.61.75.63.73.67.71.7.67.72.65.75.61.78.59.79.55.82.52.84.48.86.45.88.42.89.38.91.34.92.3.93.27.95.22.95.19.96.15.96.11.97.07.97.03.97-.01.97-.05.96-.09.96-.13.96-.17.95-.21.93-.24.93-.29.92-.32.9-.36.88-.39.87-.44.85-.46.83-.51.81-.53.78-.57.77-.6.73-.63.71-.66.68-.69.66-.72.62-.74.59-.77.56-.79.53-.82.5-.83.45-.86.43-.87.39-.89.35-.9.31-.92.27-.93.24-.94.2-.95.16-.96.12-.96.08-.97.04-.97v-.96l-.04-.97-.08-.97-.12-.96-.16-.96-.2-.95-.24-.94-.27-.93-.31-.92-.35-.9-.39-.89-.43-.87-.45-.86-.5-.83-.53-.82-.56-.79-.59-.77-.62-.74-.66-.72-.68-.69-.71-.66-.73-.63-.77-.6-.78-.57-.81-.53-.83-.51-.85-.46-.87-.44-.88-.39-.9-.36-.92-.32-.93-.29-.93-.24-.95-.21-.96-.17-.96-.13-.96-.09-.97-.05-.97-.01-.97.03-.97.07-.96.11-.96.15-.95.19-.95.22-.93.27-.92.3-.91.34-.89.38-.88.42-.86.45-.84.48-.82.52-.79.55-.78.59-.75.61-.72.65-.7.67-.67.71-.63.73-.61.75-.58.78-.54.81-.51.82-.48.85-.44.86-.41.88-.36.9-.34.91-.29.92-.26.94-.21.94-.18.96-.14.96-.1.96-.06.97-.02.97"/></g><g id="pcb-stackup_bottom_sp"><path fill="none" stroke-width="8" d="M168.7 1642.42h3799.21"/><path fill="none" stroke-width="7.87" d="M306.5 106.98l.93 2.77.87 2.79.8 2.8.73 2.83.66 2.84.59 2.86.53 2.87.45 2.89.38 2.89.32 2.9.24 2.91.17 2.92.1 2.91.03 2.92-.04 2.92-.11 2.92-.19 2.91-.25 2.91-.33 2.9-.39 2.89-.47 2.89-.53 2.87-.6 2.85-.68 2.84-.74 2.82-.81 2.81-.88 2.78-.95 2.76-1.01 2.74-1.08 2.71-1.14 2.69-1.21 2.66-1.28 2.62-1.33 2.6-1.4 2.56-1.46 2.53-1.53 2.49-1.58 2.45-1.64 2.41-1.7 2.38-1.76 2.33-1.81 2.29-1.87 2.24-1.92 2.2-1.98 2.14-2.03 2.11-2.07 2.05-2.13 2-2.17 1.94-2.22 1.9-2.27 1.84-2.31 1.78-2.35 1.73-2.4 1.67-2.43 1.61-2.48 1.55-2.5 1.49-2.55 1.43-2.58 1.37-2.61 1.31-2.64 1.24-2.68 1.17-2.69 1.11-2.73 1.05-2.75.98-2.77.91-2.8.84-2.81.77-2.84.71-2.84.64-2.87.57-2.87.5-2.89.42-2.9.36-2.9.29-2.91.22-2.92.14-2.92.08h-2.92l-2.92-.06-2.91-.14-2.91-.21-2.91-.28-2.9-.35-2.89-.42-2.87-.49-2.87-.56m0 .01v1377.95M1212.01 303.84l708.27 134.41.36 2.94.44 2.93.5 2.92.58 2.91.65 2.89.72 2.87.79 2.86.86 2.83.93 2.81 1 2.79 1.07 2.77 1.13 2.74 1.2 2.7 1.27 2.68 1.33 2.65 1.4 2.61 1.46 2.58 1.53 2.54 1.58 2.5 1.65 2.47 1.7 2.42 1.77 2.38 1.82 2.34 1.88 2.29 1.94 2.24 1.99 2.19 2.04 2.15 2.1 2.1 2.14 2.04 2.2 1.99 2.24 1.93 2.29 1.88 2.34 1.83 2.38 1.76 2.42 1.71 2.46 1.64 2.51 1.59 2.54 1.52 2.58 1.46 2.61 1.4 2.65 1.33 2.68 1.27 2.7 1.2 2.74 1.13 2.77 1.07 2.79.99 2.81.93 2.84.86 2.85.79 2.88.72 2.89.65 2.9.58 2.92.51 2.93.43 2.94.36 2.95.29 2.96.22 2.96.15 2.96.07h2.96l2.96-.07 2.96-.15 2.96-.22 2.95-.29 2.94-.36 2.93-.43 2.92-.51 2.9-.58 2.89-.65 2.88-.72 2.85-.79 2.84-.86 2.81-.93 2.79-.99 2.77-1.07 2.74-1.13 2.7-1.2 2.68-1.27 2.65-1.33 2.61-1.4 2.58-1.46 2.54-1.52 2.51-1.59 2.46-1.64 2.42-1.71 2.38-1.76 2.34-1.83 2.29-1.88 2.24-1.93 2.2-1.99 2.14-2.04 2.1-2.1 2.04-2.15 1.99-2.19 1.94-2.24 1.88-2.29 1.82-2.34 1.77-2.38 1.7-2.42 1.65-2.47 1.58-2.5 1.53-2.54 1.46-2.58 1.4-2.61 1.33-2.65 1.27-2.68 1.2-2.7 1.13-2.74 1.07-2.77 1-2.79.93-2.81.86-2.83.79-2.86.72-2.87.65-2.89.58-2.91.5-2.92.44-2.93.36-2.94 705.27-134.41V106.99h905.51l-.91 2.79-.85 2.82-.79 2.84-.71 2.86-.64 2.87-.57 2.89-.5 2.9-.43 2.91-.36 2.92-.29 2.93-.21 2.93-.15 2.94-.07 2.95v2.94l.07 2.94.14 2.94.22 2.94.28 2.93.36 2.92.43 2.91.5 2.9.56 2.89.64 2.87.71 2.86.78 2.84.85 2.82.92 2.79.98 2.78 1.05 2.75 1.12 2.72 1.19 2.69 1.24 2.67 1.32 2.63 1.38 2.6 1.44 2.57 1.5 2.53 1.57 2.49 1.62 2.46 1.68 2.41 1.75 2.38 1.8 2.32 1.85 2.29 1.91 2.24 1.97 2.19 2.02 2.14 2.07 2.09 2.12 2.05 2.17 1.99 2.21 1.93 2.27 1.88 2.3 1.83 2.36 1.77 2.39 1.71 2.44 1.65 2.47 1.59 2.52 1.54 2.55 1.47 2.58 1.4 2.62 1.35 2.65 1.28 2.68 1.21 2.71 1.15 2.74 1.08 2.76 1.02 2.79.95 2.81.87 2.83.82 2.85.74 2.86.67 2.88.6 2.9.53 2.91.46 2.91.39 2.93.32 2.93.25 2.94.17 2.94.11 2.95.03 2.94-.04 2.94-.11 2.94-.18 2.93-.26 2.93-.32 2.91-.4 2.91-.47 2.89-.54v748.03h59.05v629.92M1212.01 303.84V106.99H306.5"/><path fill="none" d="M952.17 209.35l.02.97.06.97.1.96.14.96.18.96.21.94.26.94.29.92.34.91.36.9.41.88.44.86.48.85.51.82.54.81.58.78.61.75.63.73.67.71.7.67.72.65.75.61.78.59.79.55.82.52.84.48.86.45.88.42.89.38.91.34.92.3.93.27.95.22.95.19.96.15.96.11.97.07.97.03.97-.01.97-.05.96-.09.96-.13.96-.17.95-.21.93-.24.93-.29.92-.32.9-.36.88-.39.87-.44.85-.46.83-.51.81-.53.78-.57.77-.6.73-.63.71-.66.68-.69.66-.72.62-.74.59-.77.56-.79.53-.82.5-.83.45-.86.43-.87.39-.89.35-.9.31-.92.27-.93.24-.94.2-.95.16-.96.12-.96.08-.97.04-.97v-.96l-.04-.97-.08-.97-.12-.96-.16-.96-.2-.95-.24-.94-.27-.93-.31-.92-.35-.9-.39-.89-.43-.87-.45-.86-.5-.83-.53-.82-.56-.79-.59-.77-.62-.74-.66-.72-.68-.69-.71-.66-.73-.63-.77-.6-.78-.57-.81-.53-.83-.51-.85-.46-.87-.44-.88-.39-.9-.36-.92-.32-.93-.29-.93-.24-.95-.21-.96-.17-.96-.13-.96-.09-.97-.05-.97-.01-.97.03-.97.07-.96.11-.96.15-.95.19-.95.22-.93.27-.92.3-.91.34-.89.38-.88.42-.86.45-.84.48-.82.52-.79.55-.78.59-.75.61-.72.65-.7.67-.67.71-.63.73-.61.75-.58.78-.54.81-.51.82-.48.85-.44.86-.41.88-.36.9-.34.91-.29.92-.26.94-.21.94-.18.96-.14.96-.1.96-.06.97-.02.97m0 236.22l.02.97.06.97.1.96.14.96.18.96.21.94.26.94.29.92.34.91.36.9.41.88.44.86.48.85.51.82.54.81.58.78.61.75.63.73.67.71.7.67.72.65.75.61.78.59.79.55.82.52.84.48.86.45.88.42.89.38.91.34.92.3.93.27.95.22.95.19.96.15.96.11.97.07.97.03.97-.01.97-.05.96-.09.96-.13.96-.17.95-.21.93-.24.93-.29.92-.32.9-.36.88-.39.87-.44.85-.46.83-.51.81-.53.78-.57.77-.6.73-.63.71-.66.68-.69.66-.72.62-.74.59-.77.56-.79.53-.82.5-.83.45-.86.43-.87.39-.89.35-.9.31-.92.27-.93.24-.94.2-.95.16-.96.12-.96.08-.97.04-.97v-.96l-.04-.97-.08-.97-.12-.96-.16-.96-.2-.95-.24-.94-.27-.93-.31-.92-.35-.9-.39-.89-.43-.87-.45-.86-.5-.83-.53-.82-.56-.79-.59-.77-.62-.74-.66-.72-.68-.69-.71-.66-.73-.63-.77-.6-.78-.57-.81-.53-.83-.51-.85-.46-.87-.44-.88-.39-.9-.36-.92-.32-.93-.29-.93-.24-.95-.21-.96-.17-.96-.13-.96-.09-.97-.05-.97-.01-.97.03-.97.07-.96.11-.96.15-.95.19-.95.22-.93.27-.92.3-.91.34-.89.38-.88.42-.86.45-.84.48-.82.52-.79.55-.78.59-.75.61-.72.65-.7.67-.67.71-.63.73-.61.75-.58.78-.54.81-.51.82-.48.85-.44.86-.41.88-.36.9-.34.91-.29.92-.26.94-.21.94-.18.96-.14.96-.1.96-.06.97-.02.97"/></g><g id="pcb-stackup_bottom_sm"><path fill="none" stroke-width="8" d="M168.7 1642.42h3799.21"/><path fill="none" stroke-width="7.87" d="M306.5 106.98l.93 2.77.87 2.79.8 2.8.73 2.83.66 2.84.59 2.86.53 2.87.45 2.89.38 2.89.32 2.9.24 2.91.17 2.92.1 2.91.03 2.92-.04 2.92-.11 2.92-.19 2.91-.25 2.91-.33 2.9-.39 2.89-.47 2.89-.53 2.87-.6 2.85-.68 2.84-.74 2.82-.81 2.81-.88 2.78-.95 2.76-1.01 2.74-1.08 2.71-1.14 2.69-1.21 2.66-1.28 2.62-1.33 2.6-1.4 2.56-1.46 2.53-1.53 2.49-1.58 2.45-1.64 2.41-1.7 2.38-1.76 2.33-1.81 2.29-1.87 2.24-1.92 2.2-1.98 2.14-2.03 2.11-2.07 2.05-2.13 2-2.17 1.94-2.22 1.9-2.27 1.84-2.31 1.78-2.35 1.73-2.4 1.67-2.43 1.61-2.48 1.55-2.5 1.49-2.55 1.43-2.58 1.37-2.61 1.31-2.64 1.24-2.68 1.17-2.69 1.11-2.73 1.05-2.75.98-2.77.91-2.8.84-2.81.77-2.84.71-2.84.64-2.87.57-2.87.5-2.89.42-2.9.36-2.9.29-2.91.22-2.92.14-2.92.08h-2.92l-2.92-.06-2.91-.14-2.91-.21-2.91-.28-2.9-.35-2.89-.42-2.87-.49-2.87-.56m0 .01v1377.95M1212.01 303.84l708.27 134.41.36 2.94.44 2.93.5 2.92.58 2.91.65 2.89.72 2.87.79 2.86.86 2.83.93 2.81 1 2.79 1.07 2.77 1.13 2.74 1.2 2.7 1.27 2.68 1.33 2.65 1.4 2.61 1.46 2.58 1.53 2.54 1.58 2.5 1.65 2.47 1.7 2.42 1.77 2.38 1.82 2.34 1.88 2.29 1.94 2.24 1.99 2.19 2.04 2.15 2.1 2.1 2.14 2.04 2.2 1.99 2.24 1.93 2.29 1.88 2.34 1.83 2.38 1.76 2.42 1.71 2.46 1.64 2.51 1.59 2.54 1.52 2.58 1.46 2.61 1.4 2.65 1.33 2.68 1.27 2.7 1.2 2.74 1.13 2.77 1.07 2.79.99 2.81.93 2.84.86 2.85.79 2.88.72 2.89.65 2.9.58 2.92.51 2.93.43 2.94.36 2.95.29 2.96.22 2.96.15 2.96.07h2.96l2.96-.07 2.96-.15 2.96-.22 2.95-.29 2.94-.36 2.93-.43 2.92-.51 2.9-.58 2.89-.65 2.88-.72 2.85-.79 2.84-.86 2.81-.93 2.79-.99 2.77-1.07 2.74-1.13 2.7-1.2 2.68-1.27 2.65-1.33 2.61-1.4 2.58-1.46 2.54-1.52 2.51-1.59 2.46-1.64 2.42-1.71 2.38-1.76 2.34-1.83 2.29-1.88 2.24-1.93 2.2-1.99 2.14-2.04 2.1-2.1 2.04-2.15 1.99-2.19 1.94-2.24 1.88-2.29 1.82-2.34 1.77-2.38 1.7-2.42 1.65-2.47 1.58-2.5 1.53-2.54 1.46-2.58 1.4-2.61 1.33-2.65 1.27-2.68 1.2-2.7 1.13-2.74 1.07-2.77 1-2.79.93-2.81.86-2.83.79-2.86.72-2.87.65-2.89.58-2.91.5-2.92.44-2.93.36-2.94 705.27-134.41V106.99h905.51l-.91 2.79-.85 2.82-.79 2.84-.71 2.86-.64 2.87-.57 2.89-.5 2.9-.43 2.91-.36 2.92-.29 2.93-.21 2.93-.15 2.94-.07 2.95v2.94l.07 2.94.14 2.94.22 2.94.28 2.93.36 2.92.43 2.91.5 2.9.56 2.89.64 2.87.71 2.86.78 2.84.85 2.82.92 2.79.98 2.78 1.05 2.75 1.12 2.72 1.19 2.69 1.24 2.67 1.32 2.63 1.38 2.6 1.44 2.57 1.5 2.53 1.57 2.49 1.62 2.46 1.68 2.41 1.75 2.38 1.8 2.32 1.85 2.29 1.91 2.24 1.97 2.19 2.02 2.14 2.07 2.09 2.12 2.05 2.17 1.99 2.21 1.93 2.27 1.88 2.3 1.83 2.36 1.77 2.39 1.71 2.44 1.65 2.47 1.59 2.52 1.54 2.55 1.47 2.58 1.4 2.62 1.35 2.65 1.28 2.68 1.21 2.71 1.15 2.74 1.08 2.76 1.02 2.79.95 2.81.87 2.83.82 2.85.74 2.86.67 2.88.6 2.9.53 2.91.46 2.91.39 2.93.32 2.93.25 2.94.17 2.94.11 2.95.03 2.94-.04 2.94-.11 2.94-.18 2.93-.26 2.93-.32 2.91-.4 2.91-.47 2.89-.54v748.03h59.05v629.92M1212.01 303.84V106.99H306.5"/><use x="3700.59" y="754.23" xlink:href="#ry4yFl63J-_pad-12"/><use x="3800.59" y="754.23" xlink:href="#ry4yFl63J-_pad-12"/><use x="3800.59" y="854.23" xlink:href="#ry4yFl63J-_pad-12"/><use x="3700.59" y="854.23" xlink:href="#ry4yFl63J-_pad-12"/><use x="3700.59" y="954.23" xlink:href="#ry4yFl63J-_pad-12"/><use x="3800.59" y="954.23" xlink:href="#ry4yFl63J-_pad-12"/><use x="2967.13" y="1110.93" xlink:href="#ry4yFl63J-_pad-13"/><use x="2868.7" y="1110.93" xlink:href="#ry4yFl63J-_pad-13"/><use x="2770.28" y="1110.93" xlink:href="#ry4yFl63J-_pad-13"/><use x="1302.56" y="1110.93" xlink:href="#ry4yFl63J-_pad-13"/><use x="1204.13" y="1110.93" xlink:href="#ry4yFl63J-_pad-13"/><use x="1105.71" y="1110.93" xlink:href="#ry4yFl63J-_pad-13"/><use x="1026.97" y="1386.52" xlink:href="#ry4yFl63J-_pad-14"/><use x="1381.3" y="1386.52" xlink:href="#ry4yFl63J-_pad-14"/><use x="2691.54" y="1386.52" xlink:href="#ry4yFl63J-_pad-14"/><use x="3045.87" y="1386.52" xlink:href="#ry4yFl63J-_pad-14"/><use x="3006.3" y="282.3" xlink:href="#ry4yFl63J-_pad-15"/><use x="3197.24" y="282.3" xlink:href="#ry4yFl63J-_pad-15"/><use x="3242.52" y="164.19" xlink:href="#ry4yFl63J-_pad-16"/><use x="2961.02" y="164.19" xlink:href="#ry4yFl63J-_pad-16"/><path fill="none" d="M952.17 209.35l.02.97.06.97.1.96.14.96.18.96.21.94.26.94.29.92.34.91.36.9.41.88.44.86.48.85.51.82.54.81.58.78.61.75.63.73.67.71.7.67.72.65.75.61.78.59.79.55.82.52.84.48.86.45.88.42.89.38.91.34.92.3.93.27.95.22.95.19.96.15.96.11.97.07.97.03.97-.01.97-.05.96-.09.96-.13.96-.17.95-.21.93-.24.93-.29.92-.32.9-.36.88-.39.87-.44.85-.46.83-.51.81-.53.78-.57.77-.6.73-.63.71-.66.68-.69.66-.72.62-.74.59-.77.56-.79.53-.82.5-.83.45-.86.43-.87.39-.89.35-.9.31-.92.27-.93.24-.94.2-.95.16-.96.12-.96.08-.97.04-.97v-.96l-.04-.97-.08-.97-.12-.96-.16-.96-.2-.95-.24-.94-.27-.93-.31-.92-.35-.9-.39-.89-.43-.87-.45-.86-.5-.83-.53-.82-.56-.79-.59-.77-.62-.74-.66-.72-.68-.69-.71-.66-.73-.63-.77-.6-.78-.57-.81-.53-.83-.51-.85-.46-.87-.44-.88-.39-.9-.36-.92-.32-.93-.29-.93-.24-.95-.21-.96-.17-.96-.13-.96-.09-.97-.05-.97-.01-.97.03-.97.07-.96.11-.96.15-.95.19-.95.22-.93.27-.92.3-.91.34-.89.38-.88.42-.86.45-.84.48-.82.52-.79.55-.78.59-.75.61-.72.65-.7.67-.67.71-.63.73-.61.75-.58.78-.54.81-.51.82-.48.85-.44.86-.41.88-.36.9-.34.91-.29.92-.26.94-.21.94-.18.96-.14.96-.1.96-.06.97-.02.97m0 236.22l.02.97.06.97.1.96.14.96.18.96.21.94.26.94.29.92.34.91.36.9.41.88.44.86.48.85.51.82.54.81.58.78.61.75.63.73.67.71.7.67.72.65.75.61.78.59.79.55.82.52.84.48.86.45.88.42.89.38.91.34.92.3.93.27.95.22.95.19.96.15.96.11.97.07.97.03.97-.01.97-.05.96-.09.96-.13.96-.17.95-.21.93-.24.93-.29.92-.32.9-.36.88-.39.87-.44.85-.46.83-.51.81-.53.78-.57.77-.6.73-.63.71-.66.68-.69.66-.72.62-.74.59-.77.56-.79.53-.82.5-.83.45-.86.43-.87.39-.89.35-.9.31-.92.27-.93.24-.94.2-.95.16-.96.12-.96.08-.97.04-.97v-.96l-.04-.97-.08-.97-.12-.96-.16-.96-.2-.95-.24-.94-.27-.93-.31-.92-.35-.9-.39-.89-.43-.87-.45-.86-.5-.83-.53-.82-.56-.79-.59-.77-.62-.74-.66-.72-.68-.69-.71-.66-.73-.63-.77-.6-.78-.57-.81-.53-.83-.51-.85-.46-.87-.44-.88-.39-.9-.36-.92-.32-.93-.29-.93-.24-.95-.21-.96-.17-.96-.13-.96-.09-.97-.05-.97-.01-.97.03-.97.07-.96.11-.96.15-.95.19-.95.22-.93.27-.92.3-.91.34-.89.38-.88.42-.86.45-.84.48-.82.52-.79.55-.78.59-.75.61-.72.65-.7.67-.67.71-.63.73-.61.75-.58.78-.54.81-.51.82-.48.85-.44.86-.41.88-.36.9-.34.91-.29.92-.26.94-.21.94-.18.96-.14.96-.1.96-.06.97-.02.97"/><use x="975.79" y="445.57" xlink:href="#ry4yFl63J-_pad-18"/><use x="975.79" y="209.35" xlink:href="#ry4yFl63J-_pad-18"/></g><g id="pcb-stackup_bottom_drl1"><use x="7002.8" y="2682.5" xlink:href="#BJiJYxT2y-_pad-1"/><use x="11402.8" y="4082.5" xlink:href="#BJiJYxT2y-_pad-1"/><use x="8602.8" y="6182.5" xlink:href="#BJiJYxT2y-_pad-1"/><use x="7702.8" y="7282.5" xlink:href="#BJiJYxT2y-_pad-1"/><use x="6402.8" y="6182.5" xlink:href="#BJiJYxT2y-_pad-1"/><use x="4302.8" y="7782.5" xlink:href="#BJiJYxT2y-_pad-1"/><use x="4502.8" y="9782.5" xlink:href="#BJiJYxT2y-_pad-1"/><use x="4702.8" y="10982.5" xlink:href="#BJiJYxT2y-_pad-1"/><use x="6202.8" y="9782.5" xlink:href="#BJiJYxT2y-_pad-1"/><use x="7002.8" y="10282.5" xlink:href="#BJiJYxT2y-_pad-1"/><use x="8502.8" y="8782.5" xlink:href="#BJiJYxT2y-_pad-1"/><use x="10502.8" y="9782.5" xlink:href="#BJiJYxT2y-_pad-1"/><use x="12327.8" y="9782.5" xlink:href="#BJiJYxT2y-_pad-1"/><use x="15577.8" y="10157.5" xlink:href="#BJiJYxT2y-_pad-1"/><use x="15702.8" y="11807.5" xlink:href="#BJiJYxT2y-_pad-1"/><use x="15102.8" y="11782.5" xlink:href="#BJiJYxT2y-_pad-1"/><use x="18490.2" y="13985.6" xlink:href="#BJiJYxT2y-_pad-1"/><use x="19490.2" y="14385.6" xlink:href="#BJiJYxT2y-_pad-1"/><use x="21090.2" y="15185.6" xlink:href="#BJiJYxT2y-_pad-1"/><use x="23990.2" y="14285.6" xlink:href="#BJiJYxT2y-_pad-1"/><use x="23402.8" y="10532.5" xlink:href="#BJiJYxT2y-_pad-1"/><use x="23802.8" y="8582.5" xlink:href="#BJiJYxT2y-_pad-1"/><use x="22002.8" y="7182.5" xlink:href="#BJiJYxT2y-_pad-1"/><use x="23302.8" y="5882.5" xlink:href="#BJiJYxT2y-_pad-1"/><use x="32526.4" y="3547.6" xlink:href="#BJiJYxT2y-_pad-1"/><use x="27902.8" y="5582.5" xlink:href="#BJiJYxT2y-_pad-1"/><use x="26602.8" y="7082.5" xlink:href="#BJiJYxT2y-_pad-1"/><use x="25802.8" y="7382.5" xlink:href="#BJiJYxT2y-_pad-1"/><use x="26602.8" y="8582.5" xlink:href="#BJiJYxT2y-_pad-1"/><use x="27102.8" y="8882.5" xlink:href="#BJiJYxT2y-_pad-1"/><use x="27902.8" y="8282.5" xlink:href="#BJiJYxT2y-_pad-1"/><use x="28502.8" y="7482.5" xlink:href="#BJiJYxT2y-_pad-1"/><use x="29402.8" y="7482.5" xlink:href="#BJiJYxT2y-_pad-1"/><use x="31402.8" y="6682.5" xlink:href="#BJiJYxT2y-_pad-1"/><use x="33302.8" y="7882.5" xlink:href="#BJiJYxT2y-_pad-1"/><use x="32002.8" y="8682.5" xlink:href="#BJiJYxT2y-_pad-1"/><use x="29402.8" y="9782.5" xlink:href="#BJiJYxT2y-_pad-1"/><use x="28302.8" y="10182.5" xlink:href="#BJiJYxT2y-_pad-1"/><use x="31302.8" y="10682.5" xlink:href="#BJiJYxT2y-_pad-1"/><use x="32302.8" y="10982.5" xlink:href="#BJiJYxT2y-_pad-1"/><use x="34802.8" y="11082.5" xlink:href="#BJiJYxT2y-_pad-1"/><use x="35452.8" y="11282.5" xlink:href="#BJiJYxT2y-_pad-1"/><use x="35952.8" y="10782.5" xlink:href="#BJiJYxT2y-_pad-1"/><use x="38577.8" y="12282.5" xlink:href="#BJiJYxT2y-_pad-1"/><use x="35952.8" y="13157.5" xlink:href="#BJiJYxT2y-_pad-1"/><use x="35452.8" y="12782.5" xlink:href="#BJiJYxT2y-_pad-1"/><use x="34827.8" y="13582.5" xlink:href="#BJiJYxT2y-_pad-1"/><use x="32302.8" y="15082.5" xlink:href="#BJiJYxT2y-_pad-1"/><use x="37902.8" y="15682.5" xlink:href="#BJiJYxT2y-_pad-1"/><use x="34977.8" y="6982.5" xlink:href="#BJiJYxT2y-_pad-1"/><use x="18402.8" y="5482.5" xlink:href="#BJiJYxT2y-_pad-1"/><use x="16902.8" y="6282.5" xlink:href="#BJiJYxT2y-_pad-1"/><use x="16902.8" y="7682.5" xlink:href="#BJiJYxT2y-_pad-1"/><use x="18952.8" y="9782.5" xlink:href="#BJiJYxT2y-_pad-1"/><use x="12827.8" y="7407.5" xlink:href="#BJiJYxT2y-_pad-1"/><use x="15002.8" y="4482.5" xlink:href="#BJiJYxT2y-_pad-1"/><use x="2802.8" y="4382.5" xlink:href="#BJiJYxT2y-_pad-1"/><use x="7902.8" y="12282.5" xlink:href="#BJiJYxT2y-_pad-1"/><use x="5202.8" y="12582.5" xlink:href="#BJiJYxT2y-_pad-1"/><use x="36202.8" y="4657.5" xlink:href="#BJiJYxT2y-_pad-2"/><use x="36702.8" y="10782.5" xlink:href="#BJiJYxT2y-_pad-2"/><use x="4202.8" y="14282.5" xlink:href="#BJiJYxT2y-_pad-2"/><use x="17490.2" y="12185.6" xlink:href="#BJiJYxT2y-_pad-2"/><use x="31972.4" y="2823" xlink:href="#BJiJYxT2y-_pad-3"/><use x="30063" y="2823" xlink:href="#BJiJYxT2y-_pad-3"/><use x="38005.9" y="7542.3" xlink:href="#BJiJYxT2y-_pad-4"/><use x="37005.9" y="7542.3" xlink:href="#BJiJYxT2y-_pad-4"/><use x="37005.9" y="8542.3" xlink:href="#BJiJYxT2y-_pad-4"/><use x="38005.9" y="8542.3" xlink:href="#BJiJYxT2y-_pad-4"/><use x="38005.9" y="9542.3" xlink:href="#BJiJYxT2y-_pad-4"/><use x="37005.9" y="9542.3" xlink:href="#BJiJYxT2y-_pad-4"/><use x="11057.1" y="11109.3" xlink:href="#BJiJYxT2y-_pad-5"/><use x="12041.3" y="11109.3" xlink:href="#BJiJYxT2y-_pad-5"/><use x="13025.6" y="11109.3" xlink:href="#BJiJYxT2y-_pad-5"/><use x="29671.3" y="11109.3" xlink:href="#BJiJYxT2y-_pad-5"/><use x="28687" y="11109.3" xlink:href="#BJiJYxT2y-_pad-5"/><use x="27702.8" y="11109.3" xlink:href="#BJiJYxT2y-_pad-5"/><use x="9757.9" y="2093.5" xlink:href="#BJiJYxT2y-_pad-6"/><use x="9757.9" y="4455.7" xlink:href="#BJiJYxT2y-_pad-6"/><use x="32425.2" y="1641.9" xlink:href="#BJiJYxT2y-_pad-7"/><use x="29610.2" y="1641.9" xlink:href="#BJiJYxT2y-_pad-7"/><use x="30458.7" y="13865.2" xlink:href="#BJiJYxT2y-_pad-8"/><use x="26915.4" y="13865.2" xlink:href="#BJiJYxT2y-_pad-8"/><use x="10269.7" y="13865.2" xlink:href="#BJiJYxT2y-_pad-8"/><use x="13813" y="13865.2" xlink:href="#BJiJYxT2y-_pad-8"/></g><clipPath id="pcb-stackup_bottom_out"><path fill="none" stroke-width="8" d="M168.7 1642.42h3799.21V1012.5h-59.05l-5.8-747.02-11.71 1.16-11.77.01-11.71-1.13-11.55-2.26-11.28-3.38-10.89-4.46-10.4-5.5-9.82-6.49-9.14-7.41-8.38-8.27-7.53-9.04-6.62-9.74-5.64-10.33-4.6-10.83-3.53-11.23-2.41-11.52-1.29-11.7-.14-11.77 1.01-11.72 2.14-11.57 3.26-11.31h-905.51v196.85l-706.57 143.2-2.74 11.53-3.86 11.2-4.93 10.77-5.97 10.23-6.94 9.61-7.85 8.87-8.68 8.06-9.43 7.18-10.09 6.21-10.64 5.2-11.11 4.12-11.46 3.02-11.69 1.88-11.83.73-11.84-.44-11.74-1.59-11.52-2.74-11.21-3.85-10.77-4.93-10.24-5.97-9.6-6.94-8.87-7.84-8.07-8.68-7.17-9.43-6.22-10.09-5.2-10.64-4.13-11.11-3.02-11.45-1.88-11.7-708.27-134.41V106.99l-905.51-.01.93 2.77 3.06 11.26 1.95 11.51.83 11.64-.31 11.67-1.44 11.59-2.55 11.38-3.65 11.09-4.71 10.68-5.72 10.18-6.68 9.57-7.58 8.87-8.4 8.1-9.15 7.25-9.81 6.32-10.38 5.35-10.85 4.31-11.22 3.23-11.47 2.13-11.63 1.01-11.67-.12-11.61-1.26-5.74 1376.91M952.17 209.35l.02.97 3.27 11.05 8.1 8.19 11.02 3.38 11.3-2.23 8.9-7.32 4.39-10.66-1.18-11.46-6.47-9.54-10.2-5.34-11.53.11-10.09 5.56-7.53 17.29m0 236.22l.02.97 3.27 11.05 8.1 8.19 11.02 3.38 11.3-2.23 8.9-7.32 4.39-10.66-1.18-11.46-6.47-9.54-10.2-5.34-11.53.11-10.09 5.56-7.53 17.29m43.3 899.61h62.99v82.67h-62.99v-82.67m354.33 0h63v82.67h-63v-82.67m1310.24 0h62.99v82.67h-62.99v-82.67m354.33 0h62.99v82.67h-62.99v-82.67"/></clipPath><mask id="pcb-stackup_bottom_mech-mask"><g stroke="#000"><path fill="#fff" d="M168.7 106.98h3799.21v1535.44H168.7z"/><use xlink:href="#pcb-stackup_bottom_drl1"/></g></mask><mask id="pcb-stackup_bottom_cf-mask"><g fill="#fff" stroke="#fff"><use xlink:href="#pcb-stackup_bottom_sm"/></g></mask><mask id="pcb-stackup_bottom_sm-mask"><g stroke="#000"><path fill="#fff" d="M168.7 106.98h3799.21v1535.44H168.7z"/><use xlink:href="#pcb-stackup_bottom_sm"/></g></mask></defs><g><g mask="url(#pcb-stackup_bottom_mech-mask)" clip-path="url(#pcb-stackup_bottom_out)" transform="rotate(180 2068.305 874.7)"><path fill="currentColor" d="M168.7 106.98h3799.21v1535.44H168.7z" class="pcb-stackup_fr4"/><use fill="currentColor" stroke="currentColor" xlink:href="#pcb-stackup_bottom_cu" class="pcb-stackup_cu"/><use fill="currentColor" stroke="currentColor" xlink:href="#pcb-stackup_bottom_cu" class="pcb-stackup_cf" mask="url(#pcb-stackup_bottom_cf-mask)"/><g mask="url(#pcb-stackup_bottom_sm-mask)"><path fill="currentColor" d="M168.7 106.98h3799.21v1535.44H168.7z" class="pcb-stackup_sm"/><use fill="currentColor" stroke="currentColor" xlink:href="#pcb-stackup_bottom_ss" class="pcb-stackup_ss"/></g><use fill="currentColor" stroke="currentColor" xlink:href="#pcb-stackup_bottom_sp" class="pcb-stackup_sp"/></g></g></svg>