<svg xmlns="http://www.w3.org/2000/svg" id="pcb-stackup_bottom" fill-rule="evenodd" stroke-width="0" stroke-linecap="round" stroke-linejoin="round" xmlns:xlink="http://www.w3.org/1999/xlink" clip-rule="evenodd" viewBox="0 0 34000 25000"><defs><style>.pcb-stackup_fr4 {color: #4D542C;} .pcb-stackup_cu {color: lightgrey;} .pcb-stackup_cf {color: goldenrod;} .pcb-stackup_sm {color: #004400; opacity: 0.9;} .pcb-stackup_ss {color: white;} .pcb-stackup_sp {color: #000000; opacity: 0;} .pcb-stackup_out {color: black;}</style><circle id="By52xT31-_pad-12" r="450"/><circle id="By52xT31-_pad-13" r="2999.74"/><path id="By52xT31-_pad-14" d="M-863.6-1016H863.6v2032H-863.6z"/><rect id="By52xT31-_pad-15" width="1727.2" height="2032" x="-863.6" y="-1016" rx="863.6" ry="863.6"/><circle id="By52xT31-_pad-12" r="450"/><circle id="By52xT31-_pad-13" r="2999.74"/><path id="By52xT31-_pad-14" d="M-863.6-1016H863.6v2032H-863.6z"/><rect id="By52xT31-_pad-15" width="1727.2" height="2032" x="-863.6" y="-1016" rx="863.6" ry="863.6"/><circle id="By52xT31-_pad-12" r="450"/><circle id="By52xT31-_pad-13" r="2999.74"/><path id="By52xT31-_pad-14" d="M-863.6-1016H863.6v2032H-863.6z"/><rect id="By52xT31-_pad-15" width="1727.2" height="2032" x="-863.6" y="-1016" rx="863.6" ry="863.6"/><circle id="By52xT31-_pad-12" r="450"/><circle id="By52xT31-_pad-13" r="2999.74"/><path id="By52xT31-_pad-14" d="M-863.6-1016H863.6v2032H-863.6z"/><rect id="By52xT31-_pad-15" width="1727.2" height="2032" x="-863.6" y="-1016" rx="863.6" ry="863.6"/><circle id="Byu53x63kZ_pad-1" r="250"/><circle id="Byu53x63kZ_pad-2" r="508"/><circle id="Byu53x63kZ_pad-3" r="1650"/><circle id="By52xT31-_pad-12" r="450"/><circle id="By52xT31-_pad-13" r="2999.74"/><path id="By52xT31-_pad-14" d="M-863.6-1016H863.6v2032H-863.6z"/><rect id="By52xT31-_pad-15" width="1727.2" height="2032" x="-863.6" y="-1016" rx="863.6" ry="863.6"/><circle id="By52xT31-_pad-12" r="450"/><circle id="By52xT31-_pad-13" r="2999.74"/><path id="By52xT31-_pad-14" d="M-863.6-1016H863.6v2032H-863.6z"/><rect id="By52xT31-_pad-15" width="1727.2" height="2032" x="-863.6" y="-1016" rx="863.6" ry="863.6"/><circle id="By52xT31-_pad-12" r="450"/><circle id="By52xT31-_pad-13" r="2999.74"/><path id="By52xT31-_pad-14" d="M-863.6-1016H863.6v2032H-863.6z"/><rect id="By52xT31-_pad-15" width="1727.2" height="2032" x="-863.6" y="-1016" rx="863.6" ry="863.6"/><circle id="By52xT31-_pad-12" r="450"/><circle id="By52xT31-_pad-13" r="2999.74"/><path id="By52xT31-_pad-14" d="M-863.6-1016H863.6v2032H-863.6z"/><rect id="By52xT31-_pad-15" width="1727.2" height="2032" x="-863.6" y="-1016" rx="863.6" ry="863.6"/><circle id="Byu53x63kZ_pad-1" r="250"/><circle id="Byu53x63kZ_pad-2" r="508"/><circle id="Byu53x63kZ_pad-3" r="1650"/><g id="pcb-stackup_bottom_cu"><path fill="none" stroke-width="150" d="M0 25000h34000M0 0v25000M34000 0v25000M0 0h34000"/><use x="32300" y="7200" xlink:href="#By52xT31-_pad-12"/><use x="1900" y="7500" xlink:href="#By52xT31-_pad-12"/><use x="9300" y="5100" xlink:href="#By52xT31-_pad-12"/><use x="6500" y="7600" xlink:href="#By52xT31-_pad-12"/><use x="7800" y="2800" xlink:href="#By52xT31-_pad-12"/><use x="11200" y="1800" xlink:href="#By52xT31-_pad-12"/><use x="15500" y="2000" xlink:href="#By52xT31-_pad-12"/><use x="20300" y="2000" xlink:href="#By52xT31-_pad-12"/><use x="25800" y="2200" xlink:href="#By52xT31-_pad-12"/><use x="28700" y="11400" xlink:href="#By52xT31-_pad-12"/><use x="30200" y="15900" xlink:href="#By52xT31-_pad-12"/><use x="27900" y="13500" xlink:href="#By52xT31-_pad-12"/><use x="27800" y="15800" xlink:href="#By52xT31-_pad-12"/><use x="32300" y="11500" xlink:href="#By52xT31-_pad-12"/><use x="32100" y="9200" xlink:href="#By52xT31-_pad-12"/><use x="29600" y="9200" xlink:href="#By52xT31-_pad-12"/><use x="26800" y="9200" xlink:href="#By52xT31-_pad-12"/><use x="25500" y="10600" xlink:href="#By52xT31-_pad-12"/><use x="32300" y="14300" xlink:href="#By52xT31-_pad-12"/><use x="32100" y="17700" xlink:href="#By52xT31-_pad-12"/><use x="27600" y="17900" xlink:href="#By52xT31-_pad-12"/><use x="26000" y="20100" xlink:href="#By52xT31-_pad-12"/><use x="25500" y="22400" xlink:href="#By52xT31-_pad-12"/><use x="23100" y="20900" xlink:href="#By52xT31-_pad-12"/><use x="22000" y="23200" xlink:href="#By52xT31-_pad-12"/><use x="20100" y="20800" xlink:href="#By52xT31-_pad-12"/><use x="22300" y="12200" xlink:href="#By52xT31-_pad-12"/><use x="20400" y="12200" xlink:href="#By52xT31-_pad-12"/><use x="24100" y="12200" xlink:href="#By52xT31-_pad-12"/><use x="25400" y="13500" xlink:href="#By52xT31-_pad-12"/><use x="25500" y="15400" xlink:href="#By52xT31-_pad-12"/><use x="25100" y="17100" xlink:href="#By52xT31-_pad-12"/><use x="24000" y="18500" xlink:href="#By52xT31-_pad-12"/><use x="22200" y="18500" xlink:href="#By52xT31-_pad-12"/><use x="20200" y="18500" xlink:href="#By52xT31-_pad-12"/><use x="6000" y="14600" xlink:href="#By52xT31-_pad-12"/><use x="12900" y="11400" xlink:href="#By52xT31-_pad-12"/><use x="5100" y="17000" xlink:href="#By52xT31-_pad-12"/><use x="9300" y="23000" xlink:href="#By52xT31-_pad-12"/><use x="12900" y="23000" xlink:href="#By52xT31-_pad-12"/><use x="15800" y="23000" xlink:href="#By52xT31-_pad-12"/><use x="14600" y="20500" xlink:href="#By52xT31-_pad-12"/><use x="12200" y="20600" xlink:href="#By52xT31-_pad-12"/><use x="10200" y="20500" xlink:href="#By52xT31-_pad-12"/><use x="8700" y="19300" xlink:href="#By52xT31-_pad-12"/><use x="8700" y="17400" xlink:href="#By52xT31-_pad-12"/><use x="8700" y="15500" xlink:href="#By52xT31-_pad-12"/><use x="9500" y="13600" xlink:href="#By52xT31-_pad-12"/><use x="11700" y="13600" xlink:href="#By52xT31-_pad-12"/><use x="13800" y="13600" xlink:href="#By52xT31-_pad-12"/><use x="7600" y="12300" xlink:href="#By52xT31-_pad-12"/><use x="4800" y="12300" xlink:href="#By52xT31-_pad-12"/><use x="1900" y="13470" xlink:href="#By52xT31-_pad-12"/><use x="1700" y="17200" xlink:href="#By52xT31-_pad-12"/><use x="4100" y="4100" xlink:href="#By52xT31-_pad-13"/><use x="29900" y="4100" xlink:href="#By52xT31-_pad-13"/><use x="4100" y="20900" xlink:href="#By52xT31-_pad-13"/><use x="29900" y="20900" xlink:href="#By52xT31-_pad-13"/><use x="2950" y="9950" xlink:href="#By52xT31-_pad-14"/><use x="5490" y="9950" xlink:href="#By52xT31-_pad-15"/><use x="8030" y="9950" xlink:href="#By52xT31-_pad-15"/><use x="3200" y="14800" xlink:href="#By52xT31-_pad-12"/><use x="18500" y="23000" xlink:href="#By52xT31-_pad-12"/><use x="26400" y="7000" xlink:href="#By52xT31-_pad-12"/><use x="16200" y="13300" xlink:href="#By52xT31-_pad-12"/><use x="18600" y="19650" xlink:href="#By52xT31-_pad-12"/><use x="24200" y="8600" xlink:href="#By52xT31-_pad-12"/><use x="18300" y="9600" xlink:href="#By52xT31-_pad-12"/><use x="17000" y="16900" xlink:href="#By52xT31-_pad-12"/><use x="17000" y="15200" xlink:href="#By52xT31-_pad-12"/><path fill="none" stroke-width="400" d="M18300 9600v1800m300 300v7950m-300-8250l300 300m-300-2100h4900l1000-1000m-7200 8300v-1700"/><path d="M32873 8727h-7395.889l.11 125.897-194.002 469.52-358.912 359.54-469.182 194.821-79.575.069-449.351 449.352-219.37 146.578-17.026 17.026-42.014 27.863-11.505 2.247-43.268 28.911L23200 10627h-3473v8407.169l149.778 360.706.443 508.022-194.002 469.52-358.912 359.54-469.182 194.821-508.022.443L18104.55 20827H17627v3046h15246V8727"/><path fill="none" stroke-width="254" d="M32873 8727h-7395.889l.11 125.897-194.002 469.52-358.912 359.54-469.182 194.821-79.575.069-449.351 449.352-219.37 146.578-17.026 17.026-42.014 27.863-11.505 2.247-43.268 28.911L23200 10627h-3473v8407.169l149.778 360.706.443 508.022-194.002 469.52-358.912 359.54-469.182 194.821-508.022.443L18104.55 20827H17627v3046h15246V8727"/><path d="M16673 21352.606l-362.803-362.803-27.863-42.014L16273 20900v-873h-1273l-49.41-10.006-29.926-17.824-500-400-32.333-38.679L14373 19500V8727h-4246v2673l-10.006 49.41-28.441 41.625-42.394 27.28L10000 11527H8936.503l-259.538 173.418L8030 11829.107l-646.965-128.689L7123.497 11527h-726.994l-259.538 173.418L5490 11829.107l-646.965-128.689L4583.497 11527h-148.149l-17.335 26.939-276.361 188.83-328.052 66.432H2086.4l-306.468-57.666-281.471-181.122-29.663-43.413H1127v12346h15546v-2520.394"/><path fill="none" stroke-width="254" d="M16673 21352.606l-362.803-362.803-27.863-42.014L16273 20900v-873h-1273l-49.41-10.006-29.926-17.824-500-400-32.333-38.679L14373 19500V8727h-4246v2673l-10.006 49.41-28.441 41.625-42.394 27.28L10000 11527H8936.503l-259.538 173.418L8030 11829.107l-646.965-128.689L7123.497 11527h-726.994l-259.538 173.418L5490 11829.107l-646.965-128.689L4583.497 11527h-148.149l-17.335 26.939-276.361 188.83-328.052 66.432H2086.4l-306.468-57.666-281.471-181.122-29.663-43.413H1127v12346h15546v-2520.394"/><path d="M1481.987 8346.061l276.361-188.83 328.052-66.432h1727.2l306.468 57.666 281.471 181.122 29.663 43.413h2692.295l259.538-173.418L8030 8070.893l646.965 128.689 146.176 97.671 487.056-487.056 42.014-27.863L9400 7773h5600l49.41 10.006 40.393 27.191L15552.606 8273h6694.788l962.803-962.803 42.014-27.863L23300 7273h1600l49.41 10.006 40.393 27.191L25452.606 7773H32873V1127H1127v7246h337.652l17.335-26.939"/><path fill="none" stroke-width="254" d="M1481.987 8346.061l276.361-188.83 328.052-66.432h1727.2l306.468 57.666 281.471 181.122 29.663 43.413h2692.295l259.538-173.418L8030 8070.893l646.965 128.689 146.176 97.671 487.056-487.056 42.014-27.863L9400 7773h5600l49.41 10.006 40.393 27.191L15552.606 8273h6694.788l962.803-962.803 42.014-27.863L23300 7273h1600l49.41 10.006 40.393 27.191L25452.606 7773H32873V1127H1127v7246h337.652l17.335-26.939"/><path d="M17573 12125l-221.824-331.984L17273 11400v-1020.832l-54.957-54.861-194.821-469.182-.443-508.022 49.626-120.103H15327v8846h2246v-5948"/><path fill="none" stroke-width="254" d="M17573 12125l-221.824-331.984L17273 11400v-1020.832l-54.957-54.861-194.821-469.182-.443-508.022 49.626-120.103H15327v8846h2246v-5948"/></g><g id="pcb-stackup_bottom_sm"><path fill="none" stroke-width="150" d="M0 25000h34000M0 0v25000M34000 0v25000M0 0h34000"/><path d="M4425.578 7197.677l595.477-122.234 560.389-235.566 503.965-339.928 428.343-431.344 336.401-506.324 231.648-562.02 118.006-595.972v-.01l.066-.334-9.696-694.325-.076-.334v-.012l-134.597-592.437-247.253-555.337-350.407-496.734-440.222-419.217-513.255-325.721-566.752-219.83-598.653-105.558-607.757 12.73-593.717 130.537-557.044 243.367-499.169 346.931-422.278 437.283-329.297 510.968-223.78 565.203-109.737 597.909 8.488 607.83 126.387 594.604 239.475 558.736 343.438 501.578 434.322 425.321 508.66 332.858 563.627 227.72 597.12 113.906 607.878-4.244M30225.578 7197.677l595.477-122.234 560.389-235.566 503.965-339.928 428.343-431.344 336.401-506.324 231.648-562.02 118.006-595.972v-.01l.066-.334-9.696-694.325-.076-.334v-.012l-134.597-592.437-247.253-555.337-350.407-496.734-440.222-419.217-513.255-325.721-566.752-219.83-598.653-105.558-607.757 12.73-593.717 130.537-557.044 243.367-499.169 346.931-422.278 437.283-329.297 510.968-223.78 565.203-109.737 597.909 8.488 607.83 126.387 594.604 239.475 558.736 343.438 501.578 434.322 425.321 508.66 332.858 563.627 227.72 597.12 113.906 607.878-4.244M5683.71 11051.726l.009-.003.04-.004 179.651-55.612 165.428-89.446 144.904-119.875 118.861-145.738 88.29-166.049 54.355-180.035 18.352-187.164v-315.6l-.094-13.454-20.963-186.89-56.864-179.258-90.6-164.8-120.883-144.064-146.564-117.84-166.661-87.128-180.41-53.098-.039-.004-.008-.002-187.239-17.041-186.985 19.653-.009.003-.04.004-179.651 55.612-165.428 89.446-144.904 119.875-118.861 145.738-88.29 166.049-54.355 180.035L4526.4 9792.2v315.6l.094 13.454 20.963 186.89 56.864 179.258 90.6 164.8 120.883 144.064 146.564 117.84 166.661 87.128 180.41 53.098.039.004.008.002 187.239 17.041 186.985-19.653M8223.71 11051.726l.009-.003.04-.004 179.651-55.612 165.428-89.446 144.904-119.875 118.861-145.738 88.29-166.049 54.355-180.035 18.352-187.164v-315.6l-.094-13.454-20.963-186.89-56.864-179.258-90.6-164.8-120.883-144.064-146.564-117.84-166.661-87.128-180.41-53.098-.039-.004-.008-.002-187.239-17.041-186.985 19.653-.009.003-.04.004-179.651 55.612-165.428 89.446-144.904 119.875-118.861 145.738-88.29 166.049-54.355 180.035L7066.4 9792.2v315.6l.094 13.454 20.963 186.89 56.864 179.258 90.6 164.8 120.883 144.064 146.564 117.84 166.661 87.128 180.41 53.098.039.004.008.002 187.239 17.041 186.985-19.653M3913.6 8834H1986.4v2232h1927.2V8834M4425.578 23997.677l595.477-122.234 560.389-235.566 503.965-339.928 428.343-431.344 336.401-506.324 231.648-562.02 118.006-595.972v-.01l.066-.334-9.696-694.325-.076-.334v-.012l-134.597-592.437-247.253-555.337-350.407-496.734-440.222-419.217-513.255-325.721-566.752-219.83-598.653-105.558-607.757 12.73-593.717 130.537-557.044 243.367-499.169 346.931-422.278 437.283-329.297 510.968-223.78 565.203-109.737 597.909 8.488 607.83 126.387 594.604 239.475 558.736 343.438 501.578 434.322 425.321 508.66 332.858 563.627 227.72 597.12 113.906 607.878-4.244M30225.578 23997.677l595.477-122.234 560.389-235.566 503.965-339.928 428.343-431.344 336.401-506.324 231.648-562.02 118.006-595.972v-.01l.066-.334-9.696-694.325-.076-.334v-.012l-134.597-592.437-247.253-555.337-350.407-496.734-440.222-419.217-513.255-325.721-566.752-219.83-598.653-105.558-607.757 12.73-593.717 130.537-557.044 243.367-499.169 346.931-422.278 437.283-329.297 510.968-223.78 565.203-109.737 597.909 8.488 607.83 126.387 594.604 239.475 558.736 343.438 501.578 434.322 425.321 508.66 332.858 563.627 227.72 597.12 113.906 607.878-4.244"/></g><g id="pcb-stackup_bottom_drl1"><use x="1700" y="17200" xlink:href="#Byu53x63kZ_pad-1"/><use x="1900" y="13470" xlink:href="#Byu53x63kZ_pad-1"/><use x="1900" y="7500" xlink:href="#Byu53x63kZ_pad-1"/><use x="3200" y="14800" xlink:href="#Byu53x63kZ_pad-1"/><use x="4800" y="12300" xlink:href="#Byu53x63kZ_pad-1"/><use x="5100" y="17000" xlink:href="#Byu53x63kZ_pad-1"/><use x="6000" y="14600" xlink:href="#Byu53x63kZ_pad-1"/><use x="6500" y="7600" xlink:href="#Byu53x63kZ_pad-1"/><use x="7600" y="12300" xlink:href="#Byu53x63kZ_pad-1"/><use x="7800" y="2800" xlink:href="#Byu53x63kZ_pad-1"/><use x="8700" y="19300" xlink:href="#Byu53x63kZ_pad-1"/><use x="8700" y="17400" xlink:href="#Byu53x63kZ_pad-1"/><use x="8700" y="15500" xlink:href="#Byu53x63kZ_pad-1"/><use x="9300" y="23000" xlink:href="#Byu53x63kZ_pad-1"/><use x="9300" y="5100" xlink:href="#Byu53x63kZ_pad-1"/><use x="9500" y="13600" xlink:href="#Byu53x63kZ_pad-1"/><use x="10200" y="20500" xlink:href="#Byu53x63kZ_pad-1"/><use x="11200" y="1800" xlink:href="#Byu53x63kZ_pad-1"/><use x="11700" y="13600" xlink:href="#Byu53x63kZ_pad-1"/><use x="12200" y="20600" xlink:href="#Byu53x63kZ_pad-1"/><use x="12900" y="23000" xlink:href="#Byu53x63kZ_pad-1"/><use x="12900" y="11400" xlink:href="#Byu53x63kZ_pad-1"/><use x="13800" y="13600" xlink:href="#Byu53x63kZ_pad-1"/><use x="14600" y="20500" xlink:href="#Byu53x63kZ_pad-1"/><use x="15500" y="2000" xlink:href="#Byu53x63kZ_pad-1"/><use x="15800" y="23000" xlink:href="#Byu53x63kZ_pad-1"/><use x="16200" y="13300" xlink:href="#Byu53x63kZ_pad-1"/><use x="17000" y="16900" xlink:href="#Byu53x63kZ_pad-1"/><use x="17000" y="15200" xlink:href="#Byu53x63kZ_pad-1"/><use x="18300" y="9600" xlink:href="#Byu53x63kZ_pad-1"/><use x="18500" y="23000" xlink:href="#Byu53x63kZ_pad-1"/><use x="18600" y="19650" xlink:href="#Byu53x63kZ_pad-1"/><use x="20100" y="20800" xlink:href="#Byu53x63kZ_pad-1"/><use x="20200" y="18500" xlink:href="#Byu53x63kZ_pad-1"/><use x="20300" y="2000" xlink:href="#Byu53x63kZ_pad-1"/><use x="20400" y="12200" xlink:href="#Byu53x63kZ_pad-1"/><use x="22000" y="23200" xlink:href="#Byu53x63kZ_pad-1"/><use x="22200" y="18500" xlink:href="#Byu53x63kZ_pad-1"/><use x="22300" y="12200" xlink:href="#Byu53x63kZ_pad-1"/><use x="23100" y="20900" xlink:href="#Byu53x63kZ_pad-1"/><use x="24000" y="18500" xlink:href="#Byu53x63kZ_pad-1"/><use x="24100" y="12200" xlink:href="#Byu53x63kZ_pad-1"/><use x="24200" y="8600" xlink:href="#Byu53x63kZ_pad-1"/><use x="25100" y="17100" xlink:href="#Byu53x63kZ_pad-1"/><use x="25400" y="13500" xlink:href="#Byu53x63kZ_pad-1"/><use x="25500" y="22400" xlink:href="#Byu53x63kZ_pad-1"/><use x="25500" y="15400" xlink:href="#Byu53x63kZ_pad-1"/><use x="25500" y="10600" xlink:href="#Byu53x63kZ_pad-1"/><use x="25800" y="2200" xlink:href="#Byu53x63kZ_pad-1"/><use x="26000" y="20100" xlink:href="#Byu53x63kZ_pad-1"/><use x="26400" y="7000" xlink:href="#Byu53x63kZ_pad-1"/><use x="26800" y="9200" xlink:href="#Byu53x63kZ_pad-1"/><use x="27600" y="17900" xlink:href="#Byu53x63kZ_pad-1"/><use x="27800" y="15800" xlink:href="#Byu53x63kZ_pad-1"/><use x="27900" y="13500" xlink:href="#Byu53x63kZ_pad-1"/><use x="28700" y="11400" xlink:href="#Byu53x63kZ_pad-1"/><use x="29600" y="9200" xlink:href="#Byu53x63kZ_pad-1"/><use x="30200" y="15900" xlink:href="#Byu53x63kZ_pad-1"/><use x="32100" y="17700" xlink:href="#Byu53x63kZ_pad-1"/><use x="32100" y="9200" xlink:href="#Byu53x63kZ_pad-1"/><use x="32300" y="14300" xlink:href="#Byu53x63kZ_pad-1"/><use x="32300" y="11500" xlink:href="#Byu53x63kZ_pad-1"/><use x="32300" y="7200" xlink:href="#Byu53x63kZ_pad-1"/><use x="2950" y="9950" xlink:href="#Byu53x63kZ_pad-2"/><use x="5490" y="9950" xlink:href="#Byu53x63kZ_pad-2"/><use x="8030" y="9950" xlink:href="#Byu53x63kZ_pad-2"/><use x="4100" y="20900" xlink:href="#Byu53x63kZ_pad-3"/><use x="4100" y="4100" xlink:href="#Byu53x63kZ_pad-3"/><use x="29900" y="20900" xlink:href="#Byu53x63kZ_pad-3"/><use x="29900" y="4100" xlink:href="#Byu53x63kZ_pad-3"/></g><clipPath id="pcb-stackup_bottom_out"><path fill="none" stroke-width="150" d="M0 25000h34000V0H0v25000"/></clipPath><mask id="pcb-stackup_bottom_mech-mask"><g stroke="#000"><path fill="#fff" d="M0 0h34000v25000H0z"/><use xlink:href="#pcb-stackup_bottom_drl1"/></g></mask><mask id="pcb-stackup_bottom_cf-mask"><g fill="#fff" stroke="#fff"><use xlink:href="#pcb-stackup_bottom_sm"/></g></mask><mask id="pcb-stackup_bottom_sm-mask"><g stroke="#000"><path fill="#fff" d="M0 0h34000v25000H0z"/><use xlink:href="#pcb-stackup_bottom_sm"/></g></mask></defs><g><g mask="url(#pcb-stackup_bottom_mech-mask)" clip-path="url(#pcb-stackup_bottom_out)" transform="rotate(180 17000 12500)"><path fill="currentColor" d="M0 0h34000v25000H0z" class="pcb-stackup_fr4"/><use fill="currentColor" stroke="currentColor" xlink:href="#pcb-stackup_bottom_cu" class="pcb-stackup_cu"/><use fill="currentColor" stroke="currentColor" xlink:href="#pcb-stackup_bottom_cu" class="pcb-stackup_cf" mask="url(#pcb-stackup_bottom_cf-mask)"/><g mask="url(#pcb-stackup_bottom_sm-mask)"><path fill="currentColor" d="M0 0h34000v25000H0z" class="pcb-stackup_sm"/></g></g></g></svg>