<svg xmlns="http://www.w3.org/2000/svg" id="pcb-stackup_top" fill-rule="evenodd" stroke-width="0" stroke-linecap="round" stroke-linejoin="round" xmlns:xlink="http://www.w3.org/1999/xlink" clip-rule="evenodd" viewBox="0 0 34000 25000"><defs><style>.pcb-stackup_fr4 {color: #4D542C;} .pcb-stackup_cu {color: lightgrey;} .pcb-stackup_cf {color: goldenrod;} .pcb-stackup_sm {color: #004400; opacity: 0.9;} .pcb-stackup_ss {color: white;} .pcb-stackup_sp {color: #000000; opacity: 0;} .pcb-stackup_out {color: black;}</style><path id="B145hgT2J-_pad-12" d="M-295-225h590v450h-590z"/><circle id="B145hgT2J-_pad-13" r="450"/><path id="B145hgT2J-_pad-14" d="M-900.43-1249.68H900.43v2499.36H-900.43z"/><path id="B145hgT2J-_pad-15" d="M-725-225H725v450H-725z"/><path id="B145hgT2J-_pad-16" d="M-2250-325h4500v650h-4500z"/><path id="B145hgT2J-_pad-17" d="M-2500-350h5000v700h-5000z"/><path id="B145hgT2J-_pad-18" d="M-600-350H600v700H-600z"/><path id="B145hgT2J-_pad-19" d="M-1249.68-900.43h2499.36V900.43h-2499.36z"/><path id="B145hgT2J-_pad-20" d="M-375-400h750v800h-750z"/><path id="B145hgT2J-_pad-21" d="M-850-450H850v900H-850z"/><path id="B145hgT2J-_pad-22" d="M-450-250h900v500h-900z"/><path id="B145hgT2J-_pad-23" d="M-250-450h500v900h-500z"/><path id="B145hgT2J-_pad-24" d="M-800-500H800V500H-800z"/><circle id="B145hgT2J-_pad-25" r="2999.74"/><path id="B145hgT2J-_pad-26" d="M-863.6-1016H863.6v2032H-863.6z"/><rect id="B145hgT2J-_pad-27" width="1727.2" height="2032" x="-863.6" y="-1016" rx="863.6" ry="863.6"/><path id="B145hgT2J-_pad-12" d="M-295-225h590v450h-590z"/><circle id="B145hgT2J-_pad-13" r="450"/><path id="B145hgT2J-_pad-14" d="M-900.43-1249.68H900.43v2499.36H-900.43z"/><path id="B145hgT2J-_pad-15" d="M-725-225H725v450H-725z"/><path id="B145hgT2J-_pad-16" d="M-2250-325h4500v650h-4500z"/><path id="B145hgT2J-_pad-17" d="M-2500-350h5000v700h-5000z"/><path id="B145hgT2J-_pad-18" d="M-600-350H600v700H-600z"/><path id="B145hgT2J-_pad-19" d="M-1249.68-900.43h2499.36V900.43h-2499.36z"/><path id="B145hgT2J-_pad-20" d="M-375-400h750v800h-750z"/><path id="B145hgT2J-_pad-21" d="M-850-450H850v900H-850z"/><path id="B145hgT2J-_pad-22" d="M-450-250h900v500h-900z"/><path id="B145hgT2J-_pad-23" d="M-250-450h500v900h-500z"/><path id="B145hgT2J-_pad-24" d="M-800-500H800V500H-800z"/><circle id="B145hgT2J-_pad-25" r="2999.74"/><path id="B145hgT2J-_pad-26" d="M-863.6-1016H863.6v2032H-863.6z"/><rect id="B145hgT2J-_pad-27" width="1727.2" height="2032" x="-863.6" y="-1016" rx="863.6" ry="863.6"/><path id="B145hgT2J-_pad-12" d="M-295-225h590v450h-590z"/><circle id="B145hgT2J-_pad-13" r="450"/><path id="B145hgT2J-_pad-14" d="M-900.43-1249.68H900.43v2499.36H-900.43z"/><path id="B145hgT2J-_pad-15" d="M-725-225H725v450H-725z"/><path id="B145hgT2J-_pad-16" d="M-2250-325h4500v650h-4500z"/><path id="B145hgT2J-_pad-17" d="M-2500-350h5000v700h-5000z"/><path id="B145hgT2J-_pad-18" d="M-600-350H600v700H-600z"/><path id="B145hgT2J-_pad-19" d="M-1249.68-900.43h2499.36V900.43h-2499.36z"/><path id="B145hgT2J-_pad-20" d="M-375-400h750v800h-750z"/><path id="B145hgT2J-_pad-21" d="M-850-450H850v900H-850z"/><path id="B145hgT2J-_pad-22" d="M-450-250h900v500h-900z"/><path id="B145hgT2J-_pad-23" d="M-250-450h500v900h-500z"/><path id="B145hgT2J-_pad-24" d="M-800-500H800V500H-800z"/><circle id="B145hgT2J-_pad-25" r="2999.74"/><path id="B145hgT2J-_pad-26" d="M-863.6-1016H863.6v2032H-863.6z"/><rect id="B145hgT2J-_pad-27" width="1727.2" height="2032" x="-863.6" y="-1016" rx="863.6" ry="863.6"/><path id="B145hgT2J-_pad-12" d="M-295-225h590v450h-590z"/><circle id="B145hgT2J-_pad-13" r="450"/><path id="B145hgT2J-_pad-14" d="M-900.43-1249.68H900.43v2499.36H-900.43z"/><path id="B145hgT2J-_pad-15" d="M-725-225H725v450H-725z"/><path id="B145hgT2J-_pad-16" d="M-2250-325h4500v650h-4500z"/><path id="B145hgT2J-_pad-17" d="M-2500-350h5000v700h-5000z"/><path id="B145hgT2J-_pad-18" d="M-600-350H600v700H-600z"/><path id="B145hgT2J-_pad-19" d="M-1249.68-900.43h2499.36V900.43h-2499.36z"/><path id="B145hgT2J-_pad-20" d="M-375-400h750v800h-750z"/><path id="B145hgT2J-_pad-21" d="M-850-450H850v900H-850z"/><path id="B145hgT2J-_pad-22" d="M-450-250h900v500h-900z"/><path id="B145hgT2J-_pad-23" d="M-250-450h500v900h-500z"/><path id="B145hgT2J-_pad-24" d="M-800-500H800V500H-800z"/><circle id="B145hgT2J-_pad-25" r="2999.74"/><path id="B145hgT2J-_pad-26" d="M-863.6-1016H863.6v2032H-863.6z"/><rect id="B145hgT2J-_pad-27" width="1727.2" height="2032" x="-863.6" y="-1016" rx="863.6" ry="863.6"/><path id="BJI5hgT2yW_pad-12" d="M-295-225h590v450h-590z"/><path id="BJI5hgT2yW_pad-13" d="M-900.43-1249.68H900.43v2499.36H-900.43z"/><path id="BJI5hgT2yW_pad-14" d="M-725-225H725v450H-725z"/><path id="BJI5hgT2yW_pad-15" d="M-2250-325h4500v650h-4500z"/><path id="BJI5hgT2yW_pad-16" d="M-2500-350h5000v700h-5000z"/><path id="BJI5hgT2yW_pad-17" d="M-600-350H600v700H-600z"/><path id="BJI5hgT2yW_pad-18" d="M-1249.68-900.43h2499.36V900.43h-2499.36z"/><path id="BJI5hgT2yW_pad-19" d="M-375-400h750v800h-750z"/><path id="BJI5hgT2yW_pad-20" d="M-850-450H850v900H-850z"/><path id="BJI5hgT2yW_pad-21" d="M-450-250h900v500h-900z"/><path id="BJI5hgT2yW_pad-22" d="M-250-450h500v900h-500z"/><path id="BJI5hgT2yW_pad-23" d="M-800-500H800V500H-800z"/><path id="B145hgT2J-_pad-12" d="M-295-225h590v450h-590z"/><circle id="B145hgT2J-_pad-13" r="450"/><path id="B145hgT2J-_pad-14" d="M-900.43-1249.68H900.43v2499.36H-900.43z"/><path id="B145hgT2J-_pad-15" d="M-725-225H725v450H-725z"/><path id="B145hgT2J-_pad-16" d="M-2250-325h4500v650h-4500z"/><path id="B145hgT2J-_pad-17" d="M-2500-350h5000v700h-5000z"/><path id="B145hgT2J-_pad-18" d="M-600-350H600v700H-600z"/><path id="B145hgT2J-_pad-19" d="M-1249.68-900.43h2499.36V900.43h-2499.36z"/><path id="B145hgT2J-_pad-20" d="M-375-400h750v800h-750z"/><path id="B145hgT2J-_pad-21" d="M-850-450H850v900H-850z"/><path id="B145hgT2J-_pad-22" d="M-450-250h900v500h-900z"/><path id="B145hgT2J-_pad-23" d="M-250-450h500v900h-500z"/><path id="B145hgT2J-_pad-24" d="M-800-500H800V500H-800z"/><circle id="B145hgT2J-_pad-25" r="2999.74"/><path id="B145hgT2J-_pad-26" d="M-863.6-1016H863.6v2032H-863.6z"/><rect id="B145hgT2J-_pad-27" width="1727.2" height="2032" x="-863.6" y="-1016" rx="863.6" ry="863.6"/><path id="B145hgT2J-_pad-12" d="M-295-225h590v450h-590z"/><circle id="B145hgT2J-_pad-13" r="450"/><path id="B145hgT2J-_pad-14" d="M-900.43-1249.68H900.43v2499.36H-900.43z"/><path id="B145hgT2J-_pad-15" d="M-725-225H725v450H-725z"/><path id="B145hgT2J-_pad-16" d="M-2250-325h4500v650h-4500z"/><path id="B145hgT2J-_pad-17" d="M-2500-350h5000v700h-5000z"/><path id="B145hgT2J-_pad-18" d="M-600-350H600v700H-600z"/><path id="B145hgT2J-_pad-19" d="M-1249.68-900.43h2499.36V900.43h-2499.36z"/><path id="B145hgT2J-_pad-20" d="M-375-400h750v800h-750z"/><path id="B145hgT2J-_pad-21" d="M-850-450H850v900H-850z"/><path id="B145hgT2J-_pad-22" d="M-450-250h900v500h-900z"/><path id="B145hgT2J-_pad-23" d="M-250-450h500v900h-500z"/><path id="B145hgT2J-_pad-24" d="M-800-500H800V500H-800z"/><circle id="B145hgT2J-_pad-25" r="2999.74"/><path id="B145hgT2J-_pad-26" d="M-863.6-1016H863.6v2032H-863.6z"/><rect id="B145hgT2J-_pad-27" width="1727.2" height="2032" x="-863.6" y="-1016" rx="863.6" ry="863.6"/><path id="B145hgT2J-_pad-12" d="M-295-225h590v450h-590z"/><circle id="B145hgT2J-_pad-13" r="450"/><path id="B145hgT2J-_pad-14" d="M-900.43-1249.68H900.43v2499.36H-900.43z"/><path id="B145hgT2J-_pad-15" d="M-725-225H725v450H-725z"/><path id="B145hgT2J-_pad-16" d="M-2250-325h4500v650h-4500z"/><path id="B145hgT2J-_pad-17" d="M-2500-350h5000v700h-5000z"/><path id="B145hgT2J-_pad-18" d="M-600-350H600v700H-600z"/><path id="B145hgT2J-_pad-19" d="M-1249.68-900.43h2499.36V900.43h-2499.36z"/><path id="B145hgT2J-_pad-20" d="M-375-400h750v800h-750z"/><path id="B145hgT2J-_pad-21" d="M-850-450H850v900H-850z"/><path id="B145hgT2J-_pad-22" d="M-450-250h900v500h-900z"/><path id="B145hgT2J-_pad-23" d="M-250-450h500v900h-500z"/><path id="B145hgT2J-_pad-24" d="M-800-500H800V500H-800z"/><circle id="B145hgT2J-_pad-25" r="2999.74"/><path id="B145hgT2J-_pad-26" d="M-863.6-1016H863.6v2032H-863.6z"/><rect id="B145hgT2J-_pad-27" width="1727.2" height="2032" x="-863.6" y="-1016" rx="863.6" ry="863.6"/><path id="B145hgT2J-_pad-12" d="M-295-225h590v450h-590z"/><circle id="B145hgT2J-_pad-13" r="450"/><path id="B145hgT2J-_pad-14" d="M-900.43-1249.68H900.43v2499.36H-900.43z"/><path id="B145hgT2J-_pad-15" d="M-725-225H725v450H-725z"/><path id="B145hgT2J-_pad-16" d="M-2250-325h4500v650h-4500z"/><path id="B145hgT2J-_pad-17" d="M-2500-350h5000v700h-5000z"/><path id="B145hgT2J-_pad-18" d="M-600-350H600v700H-600z"/><path id="B145hgT2J-_pad-19" d="M-1249.68-900.43h2499.36V900.43h-2499.36z"/><path id="B145hgT2J-_pad-20" d="M-375-400h750v800h-750z"/><path id="B145hgT2J-_pad-21" d="M-850-450H850v900H-850z"/><path id="B145hgT2J-_pad-22" d="M-450-250h900v500h-900z"/><path id="B145hgT2J-_pad-23" d="M-250-450h500v900h-500z"/><path id="B145hgT2J-_pad-24" d="M-800-500H800V500H-800z"/><circle id="B145hgT2J-_pad-25" r="2999.74"/><path id="B145hgT2J-_pad-26" d="M-863.6-1016H863.6v2032H-863.6z"/><rect id="B145hgT2J-_pad-27" width="1727.2" height="2032" x="-863.6" y="-1016" rx="863.6" ry="863.6"/><path id="BJI5hgT2yW_pad-12" d="M-295-225h590v450h-590z"/><path id="BJI5hgT2yW_pad-13" d="M-900.43-1249.68H900.43v2499.36H-900.43z"/><path id="BJI5hgT2yW_pad-14" d="M-725-225H725v450H-725z"/><path id="BJI5hgT2yW_pad-15" d="M-2250-325h4500v650h-4500z"/><path id="BJI5hgT2yW_pad-16" d="M-2500-350h5000v700h-5000z"/><path id="BJI5hgT2yW_pad-17" d="M-600-350H600v700H-600z"/><path id="BJI5hgT2yW_pad-18" d="M-1249.68-900.43h2499.36V900.43h-2499.36z"/><path id="BJI5hgT2yW_pad-19" d="M-375-400h750v800h-750z"/><path id="BJI5hgT2yW_pad-20" d="M-850-450H850v900H-850z"/><path id="BJI5hgT2yW_pad-21" d="M-450-250h900v500h-900z"/><path id="BJI5hgT2yW_pad-22" d="M-250-450h500v900h-500z"/><path id="BJI5hgT2yW_pad-23" d="M-800-500H800V500H-800z"/><path id="B145hgT2J-_pad-12" d="M-295-225h590v450h-590z"/><circle id="B145hgT2J-_pad-13" r="450"/><path id="B145hgT2J-_pad-14" d="M-900.43-1249.68H900.43v2499.36H-900.43z"/><path id="B145hgT2J-_pad-15" d="M-725-225H725v450H-725z"/><path id="B145hgT2J-_pad-16" d="M-2250-325h4500v650h-4500z"/><path id="B145hgT2J-_pad-17" d="M-2500-350h5000v700h-5000z"/><path id="B145hgT2J-_pad-18" d="M-600-350H600v700H-600z"/><path id="B145hgT2J-_pad-19" d="M-1249.68-900.43h2499.36V900.43h-2499.36z"/><path id="B145hgT2J-_pad-20" d="M-375-400h750v800h-750z"/><path id="B145hgT2J-_pad-21" d="M-850-450H850v900H-850z"/><path id="B145hgT2J-_pad-22" d="M-450-250h900v500h-900z"/><path id="B145hgT2J-_pad-23" d="M-250-450h500v900h-500z"/><path id="B145hgT2J-_pad-24" d="M-800-500H800V500H-800z"/><circle id="B145hgT2J-_pad-25" r="2999.74"/><path id="B145hgT2J-_pad-26" d="M-863.6-1016H863.6v2032H-863.6z"/><rect id="B145hgT2J-_pad-27" width="1727.2" height="2032" x="-863.6" y="-1016" rx="863.6" ry="863.6"/><path id="B145hgT2J-_pad-12" d="M-295-225h590v450h-590z"/><circle id="B145hgT2J-_pad-13" r="450"/><path id="B145hgT2J-_pad-14" d="M-900.43-1249.68H900.43v2499.36H-900.43z"/><path id="B145hgT2J-_pad-15" d="M-725-225H725v450H-725z"/><path id="B145hgT2J-_pad-16" d="M-2250-325h4500v650h-4500z"/><path id="B145hgT2J-_pad-17" d="M-2500-350h5000v700h-5000z"/><path id="B145hgT2J-_pad-18" d="M-600-350H600v700H-600z"/><path id="B145hgT2J-_pad-19" d="M-1249.68-900.43h2499.36V900.43h-2499.36z"/><path id="B145hgT2J-_pad-20" d="M-375-400h750v800h-750z"/><path id="B145hgT2J-_pad-21" d="M-850-450H850v900H-850z"/><path id="B145hgT2J-_pad-22" d="M-450-250h900v500h-900z"/><path id="B145hgT2J-_pad-23" d="M-250-450h500v900h-500z"/><path id="B145hgT2J-_pad-24" d="M-800-500H800V500H-800z"/><circle id="B145hgT2J-_pad-25" r="2999.74"/><path id="B145hgT2J-_pad-26" d="M-863.6-1016H863.6v2032H-863.6z"/><rect id="B145hgT2J-_pad-27" width="1727.2" height="2032" x="-863.6" y="-1016" rx="863.6" ry="863.6"/><path id="B145hgT2J-_pad-12" d="M-295-225h590v450h-590z"/><circle id="B145hgT2J-_pad-13" r="450"/><path id="B145hgT2J-_pad-14" d="M-900.43-1249.68H900.43v2499.36H-900.43z"/><path id="B145hgT2J-_pad-15" d="M-725-225H725v450H-725z"/><path id="B145hgT2J-_pad-16" d="M-2250-325h4500v650h-4500z"/><path id="B145hgT2J-_pad-17" d="M-2500-350h5000v700h-5000z"/><path id="B145hgT2J-_pad-18" d="M-600-350H600v700H-600z"/><path id="B145hgT2J-_pad-19" d="M-1249.68-900.43h2499.36V900.43h-2499.36z"/><path id="B145hgT2J-_pad-20" d="M-375-400h750v800h-750z"/><path id="B145hgT2J-_pad-21" d="M-850-450H850v900H-850z"/><path id="B145hgT2J-_pad-22" d="M-450-250h900v500h-900z"/><path id="B145hgT2J-_pad-23" d="M-250-450h500v900h-500z"/><path id="B145hgT2J-_pad-24" d="M-800-500H800V500H-800z"/><circle id="B145hgT2J-_pad-25" r="2999.74"/><path id="B145hgT2J-_pad-26" d="M-863.6-1016H863.6v2032H-863.6z"/><rect id="B145hgT2J-_pad-27" width="1727.2" height="2032" x="-863.6" y="-1016" rx="863.6" ry="863.6"/><path id="B145hgT2J-_pad-12" d="M-295-225h590v450h-590z"/><circle id="B145hgT2J-_pad-13" r="450"/><path id="B145hgT2J-_pad-14" d="M-900.43-1249.68H900.43v2499.36H-900.43z"/><path id="B145hgT2J-_pad-15" d="M-725-225H725v450H-725z"/><path id="B145hgT2J-_pad-16" d="M-2250-325h4500v650h-4500z"/><path id="B145hgT2J-_pad-17" d="M-2500-350h5000v700h-5000z"/><path id="B145hgT2J-_pad-18" d="M-600-350H600v700H-600z"/><path id="B145hgT2J-_pad-19" d="M-1249.68-900.43h2499.36V900.43h-2499.36z"/><path id="B145hgT2J-_pad-20" d="M-375-400h750v800h-750z"/><path id="B145hgT2J-_pad-21" d="M-850-450H850v900H-850z"/><path id="B145hgT2J-_pad-22" d="M-450-250h900v500h-900z"/><path id="B145hgT2J-_pad-23" d="M-250-450h500v900h-500z"/><path id="B145hgT2J-_pad-24" d="M-800-500H800V500H-800z"/><circle id="B145hgT2J-_pad-25" r="2999.74"/><path id="B145hgT2J-_pad-26" d="M-863.6-1016H863.6v2032H-863.6z"/><rect id="B145hgT2J-_pad-27" width="1727.2" height="2032" x="-863.6" y="-1016" rx="863.6" ry="863.6"/><path id="BJI5hgT2yW_pad-12" d="M-295-225h590v450h-590z"/><path id="BJI5hgT2yW_pad-13" d="M-900.43-1249.68H900.43v2499.36H-900.43z"/><path id="BJI5hgT2yW_pad-14" d="M-725-225H725v450H-725z"/><path id="BJI5hgT2yW_pad-15" d="M-2250-325h4500v650h-4500z"/><path id="BJI5hgT2yW_pad-16" d="M-2500-350h5000v700h-5000z"/><path id="BJI5hgT2yW_pad-17" d="M-600-350H600v700H-600z"/><path id="BJI5hgT2yW_pad-18" d="M-1249.68-900.43h2499.36V900.43h-2499.36z"/><path id="BJI5hgT2yW_pad-19" d="M-375-400h750v800h-750z"/><path id="BJI5hgT2yW_pad-20" d="M-850-450H850v900H-850z"/><path id="BJI5hgT2yW_pad-21" d="M-450-250h900v500h-900z"/><path id="BJI5hgT2yW_pad-22" d="M-250-450h500v900h-500z"/><path id="BJI5hgT2yW_pad-23" d="M-800-500H800V500H-800z"/><path id="B145hgT2J-_pad-12" d="M-295-225h590v450h-590z"/><circle id="B145hgT2J-_pad-13" r="450"/><path id="B145hgT2J-_pad-14" d="M-900.43-1249.68H900.43v2499.36H-900.43z"/><path id="B145hgT2J-_pad-15" d="M-725-225H725v450H-725z"/><path id="B145hgT2J-_pad-16" d="M-2250-325h4500v650h-4500z"/><path id="B145hgT2J-_pad-17" d="M-2500-350h5000v700h-5000z"/><path id="B145hgT2J-_pad-18" d="M-600-350H600v700H-600z"/><path id="B145hgT2J-_pad-19" d="M-1249.68-900.43h2499.36V900.43h-2499.36z"/><path id="B145hgT2J-_pad-20" d="M-375-400h750v800h-750z"/><path id="B145hgT2J-_pad-21" d="M-850-450H850v900H-850z"/><path id="B145hgT2J-_pad-22" d="M-450-250h900v500h-900z"/><path id="B145hgT2J-_pad-23" d="M-250-450h500v900h-500z"/><path id="B145hgT2J-_pad-24" d="M-800-500H800V500H-800z"/><circle id="B145hgT2J-_pad-25" r="2999.74"/><path id="B145hgT2J-_pad-26" d="M-863.6-1016H863.6v2032H-863.6z"/><rect id="B145hgT2J-_pad-27" width="1727.2" height="2032" x="-863.6" y="-1016" rx="863.6" ry="863.6"/><path id="B145hgT2J-_pad-12" d="M-295-225h590v450h-590z"/><circle id="B145hgT2J-_pad-13" r="450"/><path id="B145hgT2J-_pad-14" d="M-900.43-1249.68H900.43v2499.36H-900.43z"/><path id="B145hgT2J-_pad-15" d="M-725-225H725v450H-725z"/><path id="B145hgT2J-_pad-16" d="M-2250-325h4500v650h-4500z"/><path id="B145hgT2J-_pad-17" d="M-2500-350h5000v700h-5000z"/><path id="B145hgT2J-_pad-18" d="M-600-350H600v700H-600z"/><path id="B145hgT2J-_pad-19" d="M-1249.68-900.43h2499.36V900.43h-2499.36z"/><path id="B145hgT2J-_pad-20" d="M-375-400h750v800h-750z"/><path id="B145hgT2J-_pad-21" d="M-850-450H850v900H-850z"/><path id="B145hgT2J-_pad-22" d="M-450-250h900v500h-900z"/><path id="B145hgT2J-_pad-23" d="M-250-450h500v900h-500z"/><path id="B145hgT2J-_pad-24" d="M-800-500H800V500H-800z"/><circle id="B145hgT2J-_pad-25" r="2999.74"/><path id="B145hgT2J-_pad-26" d="M-863.6-1016H863.6v2032H-863.6z"/><rect id="B145hgT2J-_pad-27" width="1727.2" height="2032" x="-863.6" y="-1016" rx="863.6" ry="863.6"/><path id="B145hgT2J-_pad-12" d="M-295-225h590v450h-590z"/><circle id="B145hgT2J-_pad-13" r="450"/><path id="B145hgT2J-_pad-14" d="M-900.43-1249.68H900.43v2499.36H-900.43z"/><path id="B145hgT2J-_pad-15" d="M-725-225H725v450H-725z"/><path id="B145hgT2J-_pad-16" d="M-2250-325h4500v650h-4500z"/><path id="B145hgT2J-_pad-17" d="M-2500-350h5000v700h-5000z"/><path id="B145hgT2J-_pad-18" d="M-600-350H600v700H-600z"/><path id="B145hgT2J-_pad-19" d="M-1249.68-900.43h2499.36V900.43h-2499.36z"/><path id="B145hgT2J-_pad-20" d="M-375-400h750v800h-750z"/><path id="B145hgT2J-_pad-21" d="M-850-450H850v900H-850z"/><path id="B145hgT2J-_pad-22" d="M-450-250h900v500h-900z"/><path id="B145hgT2J-_pad-23" d="M-250-450h500v900h-500z"/><path id="B145hgT2J-_pad-24" d="M-800-500H800V500H-800z"/><circle id="B145hgT2J-_pad-25" r="2999.74"/><path id="B145hgT2J-_pad-26" d="M-863.6-1016H863.6v2032H-863.6z"/><rect id="B145hgT2J-_pad-27" width="1727.2" height="2032" x="-863.6" y="-1016" rx="863.6" ry="863.6"/><path id="B145hgT2J-_pad-12" d="M-295-225h590v450h-590z"/><circle id="B145hgT2J-_pad-13" r="450"/><path id="B145hgT2J-_pad-14" d="M-900.43-1249.68H900.43v2499.36H-900.43z"/><path id="B145hgT2J-_pad-15" d="M-725-225H725v450H-725z"/><path id="B145hgT2J-_pad-16" d="M-2250-325h4500v650h-4500z"/><path id="B145hgT2J-_pad-17" d="M-2500-350h5000v700h-5000z"/><path id="B145hgT2J-_pad-18" d="M-600-350H600v700H-600z"/><path id="B145hgT2J-_pad-19" d="M-1249.68-900.43h2499.36V900.43h-2499.36z"/><path id="B145hgT2J-_pad-20" d="M-375-400h750v800h-750z"/><path id="B145hgT2J-_pad-21" d="M-850-450H850v900H-850z"/><path id="B145hgT2J-_pad-22" d="M-450-250h900v500h-900z"/><path id="B145hgT2J-_pad-23" d="M-250-450h500v900h-500z"/><path id="B145hgT2J-_pad-24" d="M-800-500H800V500H-800z"/><circle id="B145hgT2J-_pad-25" r="2999.74"/><path id="B145hgT2J-_pad-26" d="M-863.6-1016H863.6v2032H-863.6z"/><rect id="B145hgT2J-_pad-27" width="1727.2" height="2032" x="-863.6" y="-1016" rx="863.6" ry="863.6"/><path id="BJI5hgT2yW_pad-12" d="M-295-225h590v450h-590z"/><path id="BJI5hgT2yW_pad-13" d="M-900.43-1249.68H900.43v2499.36H-900.43z"/><path id="BJI5hgT2yW_pad-14" d="M-725-225H725v450H-725z"/><path id="BJI5hgT2yW_pad-15" d="M-2250-325h4500v650h-4500z"/><path id="BJI5hgT2yW_pad-16" d="M-2500-350h5000v700h-5000z"/><path id="BJI5hgT2yW_pad-17" d="M-600-350H600v700H-600z"/><path id="BJI5hgT2yW_pad-18" d="M-1249.68-900.43h2499.36V900.43h-2499.36z"/><path id="BJI5hgT2yW_pad-19" d="M-375-400h750v800h-750z"/><path id="BJI5hgT2yW_pad-20" d="M-850-450H850v900H-850z"/><path id="BJI5hgT2yW_pad-21" d="M-450-250h900v500h-900z"/><path id="BJI5hgT2yW_pad-22" d="M-250-450h500v900h-500z"/><path id="BJI5hgT2yW_pad-23" d="M-800-500H800V500H-800z"/><circle id="Byu53x63kZ_pad-1" r="250"/><circle id="Byu53x63kZ_pad-2" r="508"/><circle id="Byu53x63kZ_pad-3" r="1650"/><path id="B145hgT2J-_pad-12" d="M-295-225h590v450h-590z"/><circle id="B145hgT2J-_pad-13" r="450"/><path id="B145hgT2J-_pad-14" d="M-900.43-1249.68H900.43v2499.36H-900.43z"/><path id="B145hgT2J-_pad-15" d="M-725-225H725v450H-725z"/><path id="B145hgT2J-_pad-16" d="M-2250-325h4500v650h-4500z"/><path id="B145hgT2J-_pad-17" d="M-2500-350h5000v700h-5000z"/><path id="B145hgT2J-_pad-18" d="M-600-350H600v700H-600z"/><path id="B145hgT2J-_pad-19" d="M-1249.68-900.43h2499.36V900.43h-2499.36z"/><path id="B145hgT2J-_pad-20" d="M-375-400h750v800h-750z"/><path id="B145hgT2J-_pad-21" d="M-850-450H850v900H-850z"/><path id="B145hgT2J-_pad-22" d="M-450-250h900v500h-900z"/><path id="B145hgT2J-_pad-23" d="M-250-450h500v900h-500z"/><path id="B145hgT2J-_pad-24" d="M-800-500H800V500H-800z"/><circle id="B145hgT2J-_pad-25" r="2999.74"/><path id="B145hgT2J-_pad-26" d="M-863.6-1016H863.6v2032H-863.6z"/><rect id="B145hgT2J-_pad-27" width="1727.2" height="2032" x="-863.6" y="-1016" rx="863.6" ry="863.6"/><path id="B145hgT2J-_pad-12" d="M-295-225h590v450h-590z"/><circle id="B145hgT2J-_pad-13" r="450"/><path id="B145hgT2J-_pad-14" d="M-900.43-1249.68H900.43v2499.36H-900.43z"/><path id="B145hgT2J-_pad-15" d="M-725-225H725v450H-725z"/><path id="B145hgT2J-_pad-16" d="M-2250-325h4500v650h-4500z"/><path id="B145hgT2J-_pad-17" d="M-2500-350h5000v700h-5000z"/><path id="B145hgT2J-_pad-18" d="M-600-350H600v700H-600z"/><path id="B145hgT2J-_pad-19" d="M-1249.68-900.43h2499.36V900.43h-2499.36z"/><path id="B145hgT2J-_pad-20" d="M-375-400h750v800h-750z"/><path id="B145hgT2J-_pad-21" d="M-850-450H850v900H-850z"/><path id="B145hgT2J-_pad-22" d="M-450-250h900v500h-900z"/><path id="B145hgT2J-_pad-23" d="M-250-450h500v900h-500z"/><path id="B145hgT2J-_pad-24" d="M-800-500H800V500H-800z"/><circle id="B145hgT2J-_pad-25" r="2999.74"/><path id="B145hgT2J-_pad-26" d="M-863.6-1016H863.6v2032H-863.6z"/><rect id="B145hgT2J-_pad-27" width="1727.2" height="2032" x="-863.6" y="-1016" rx="863.6" ry="863.6"/><path id="B145hgT2J-_pad-12" d="M-295-225h590v450h-590z"/><circle id="B145hgT2J-_pad-13" r="450"/><path id="B145hgT2J-_pad-14" d="M-900.43-1249.68H900.43v2499.36H-900.43z"/><path id="B145hgT2J-_pad-15" d="M-725-225H725v450H-725z"/><path id="B145hgT2J-_pad-16" d="M-2250-325h4500v650h-4500z"/><path id="B145hgT2J-_pad-17" d="M-2500-350h5000v700h-5000z"/><path id="B145hgT2J-_pad-18" d="M-600-350H600v700H-600z"/><path id="B145hgT2J-_pad-19" d="M-1249.68-900.43h2499.36V900.43h-2499.36z"/><path id="B145hgT2J-_pad-20" d="M-375-400h750v800h-750z"/><path id="B145hgT2J-_pad-21" d="M-850-450H850v900H-850z"/><path id="B145hgT2J-_pad-22" d="M-450-250h900v500h-900z"/><path id="B145hgT2J-_pad-23" d="M-250-450h500v900h-500z"/><path id="B145hgT2J-_pad-24" d="M-800-500H800V500H-800z"/><circle id="B145hgT2J-_pad-25" r="2999.74"/><path id="B145hgT2J-_pad-26" d="M-863.6-1016H863.6v2032H-863.6z"/><rect id="B145hgT2J-_pad-27" width="1727.2" height="2032" x="-863.6" y="-1016" rx="863.6" ry="863.6"/><path id="B145hgT2J-_pad-12" d="M-295-225h590v450h-590z"/><circle id="B145hgT2J-_pad-13" r="450"/><path id="B145hgT2J-_pad-14" d="M-900.43-1249.68H900.43v2499.36H-900.43z"/><path id="B145hgT2J-_pad-15" d="M-725-225H725v450H-725z"/><path id="B145hgT2J-_pad-16" d="M-2250-325h4500v650h-4500z"/><path id="B145hgT2J-_pad-17" d="M-2500-350h5000v700h-5000z"/><path id="B145hgT2J-_pad-18" d="M-600-350H600v700H-600z"/><path id="B145hgT2J-_pad-19" d="M-1249.68-900.43h2499.36V900.43h-2499.36z"/><path id="B145hgT2J-_pad-20" d="M-375-400h750v800h-750z"/><path id="B145hgT2J-_pad-21" d="M-850-450H850v900H-850z"/><path id="B145hgT2J-_pad-22" d="M-450-250h900v500h-900z"/><path id="B145hgT2J-_pad-23" d="M-250-450h500v900h-500z"/><path id="B145hgT2J-_pad-24" d="M-800-500H800V500H-800z"/><circle id="B145hgT2J-_pad-25" r="2999.74"/><path id="B145hgT2J-_pad-26" d="M-863.6-1016H863.6v2032H-863.6z"/><rect id="B145hgT2J-_pad-27" width="1727.2" height="2032" x="-863.6" y="-1016" rx="863.6" ry="863.6"/><path id="BJI5hgT2yW_pad-12" d="M-295-225h590v450h-590z"/><path id="BJI5hgT2yW_pad-13" d="M-900.43-1249.68H900.43v2499.36H-900.43z"/><path id="BJI5hgT2yW_pad-14" d="M-725-225H725v450H-725z"/><path id="BJI5hgT2yW_pad-15" d="M-2250-325h4500v650h-4500z"/><path id="BJI5hgT2yW_pad-16" d="M-2500-350h5000v700h-5000z"/><path id="BJI5hgT2yW_pad-17" d="M-600-350H600v700H-600z"/><path id="BJI5hgT2yW_pad-18" d="M-1249.68-900.43h2499.36V900.43h-2499.36z"/><path id="BJI5hgT2yW_pad-19" d="M-375-400h750v800h-750z"/><path id="BJI5hgT2yW_pad-20" d="M-850-450H850v900H-850z"/><path id="BJI5hgT2yW_pad-21" d="M-450-250h900v500h-900z"/><path id="BJI5hgT2yW_pad-22" d="M-250-450h500v900h-500z"/><path id="BJI5hgT2yW_pad-23" d="M-800-500H800V500H-800z"/><path id="B145hgT2J-_pad-12" d="M-295-225h590v450h-590z"/><circle id="B145hgT2J-_pad-13" r="450"/><path id="B145hgT2J-_pad-14" d="M-900.43-1249.68H900.43v2499.36H-900.43z"/><path id="B145hgT2J-_pad-15" d="M-725-225H725v450H-725z"/><path id="B145hgT2J-_pad-16" d="M-2250-325h4500v650h-4500z"/><path id="B145hgT2J-_pad-17" d="M-2500-350h5000v700h-5000z"/><path id="B145hgT2J-_pad-18" d="M-600-350H600v700H-600z"/><path id="B145hgT2J-_pad-19" d="M-1249.68-900.43h2499.36V900.43h-2499.36z"/><path id="B145hgT2J-_pad-20" d="M-375-400h750v800h-750z"/><path id="B145hgT2J-_pad-21" d="M-850-450H850v900H-850z"/><path id="B145hgT2J-_pad-22" d="M-450-250h900v500h-900z"/><path id="B145hgT2J-_pad-23" d="M-250-450h500v900h-500z"/><path id="B145hgT2J-_pad-24" d="M-800-500H800V500H-800z"/><circle id="B145hgT2J-_pad-25" r="2999.74"/><path id="B145hgT2J-_pad-26" d="M-863.6-1016H863.6v2032H-863.6z"/><rect id="B145hgT2J-_pad-27" width="1727.2" height="2032" x="-863.6" y="-1016" rx="863.6" ry="863.6"/><path id="B145hgT2J-_pad-12" d="M-295-225h590v450h-590z"/><circle id="B145hgT2J-_pad-13" r="450"/><path id="B145hgT2J-_pad-14" d="M-900.43-1249.68H900.43v2499.36H-900.43z"/><path id="B145hgT2J-_pad-15" d="M-725-225H725v450H-725z"/><path id="B145hgT2J-_pad-16" d="M-2250-325h4500v650h-4500z"/><path id="B145hgT2J-_pad-17" d="M-2500-350h5000v700h-5000z"/><path id="B145hgT2J-_pad-18" d="M-600-350H600v700H-600z"/><path id="B145hgT2J-_pad-19" d="M-1249.68-900.43h2499.36V900.43h-2499.36z"/><path id="B145hgT2J-_pad-20" d="M-375-400h750v800h-750z"/><path id="B145hgT2J-_pad-21" d="M-850-450H850v900H-850z"/><path id="B145hgT2J-_pad-22" d="M-450-250h900v500h-900z"/><path id="B145hgT2J-_pad-23" d="M-250-450h500v900h-500z"/><path id="B145hgT2J-_pad-24" d="M-800-500H800V500H-800z"/><circle id="B145hgT2J-_pad-25" r="2999.74"/><path id="B145hgT2J-_pad-26" d="M-863.6-1016H863.6v2032H-863.6z"/><rect id="B145hgT2J-_pad-27" width="1727.2" height="2032" x="-863.6" y="-1016" rx="863.6" ry="863.6"/><path id="B145hgT2J-_pad-12" d="M-295-225h590v450h-590z"/><circle id="B145hgT2J-_pad-13" r="450"/><path id="B145hgT2J-_pad-14" d="M-900.43-1249.68H900.43v2499.36H-900.43z"/><path id="B145hgT2J-_pad-15" d="M-725-225H725v450H-725z"/><path id="B145hgT2J-_pad-16" d="M-2250-325h4500v650h-4500z"/><path id="B145hgT2J-_pad-17" d="M-2500-350h5000v700h-5000z"/><path id="B145hgT2J-_pad-18" d="M-600-350H600v700H-600z"/><path id="B145hgT2J-_pad-19" d="M-1249.68-900.43h2499.36V900.43h-2499.36z"/><path id="B145hgT2J-_pad-20" d="M-375-400h750v800h-750z"/><path id="B145hgT2J-_pad-21" d="M-850-450H850v900H-850z"/><path id="B145hgT2J-_pad-22" d="M-450-250h900v500h-900z"/><path id="B145hgT2J-_pad-23" d="M-250-450h500v900h-500z"/><path id="B145hgT2J-_pad-24" d="M-800-500H800V500H-800z"/><circle id="B145hgT2J-_pad-25" r="2999.74"/><path id="B145hgT2J-_pad-26" d="M-863.6-1016H863.6v2032H-863.6z"/><rect id="B145hgT2J-_pad-27" width="1727.2" height="2032" x="-863.6" y="-1016" rx="863.6" ry="863.6"/><path id="B145hgT2J-_pad-12" d="M-295-225h590v450h-590z"/><circle id="B145hgT2J-_pad-13" r="450"/><path id="B145hgT2J-_pad-14" d="M-900.43-1249.68H900.43v2499.36H-900.43z"/><path id="B145hgT2J-_pad-15" d="M-725-225H725v450H-725z"/><path id="B145hgT2J-_pad-16" d="M-2250-325h4500v650h-4500z"/><path id="B145hgT2J-_pad-17" d="M-2500-350h5000v700h-5000z"/><path id="B145hgT2J-_pad-18" d="M-600-350H600v700H-600z"/><path id="B145hgT2J-_pad-19" d="M-1249.68-900.43h2499.36V900.43h-2499.36z"/><path id="B145hgT2J-_pad-20" d="M-375-400h750v800h-750z"/><path id="B145hgT2J-_pad-21" d="M-850-450H850v900H-850z"/><path id="B145hgT2J-_pad-22" d="M-450-250h900v500h-900z"/><path id="B145hgT2J-_pad-23" d="M-250-450h500v900h-500z"/><path id="B145hgT2J-_pad-24" d="M-800-500H800V500H-800z"/><circle id="B145hgT2J-_pad-25" r="2999.74"/><path id="B145hgT2J-_pad-26" d="M-863.6-1016H863.6v2032H-863.6z"/><rect id="B145hgT2J-_pad-27" width="1727.2" height="2032" x="-863.6" y="-1016" rx="863.6" ry="863.6"/><path id="BJI5hgT2yW_pad-12" d="M-295-225h590v450h-590z"/><path id="BJI5hgT2yW_pad-13" d="M-900.43-1249.68H900.43v2499.36H-900.43z"/><path id="BJI5hgT2yW_pad-14" d="M-725-225H725v450H-725z"/><path id="BJI5hgT2yW_pad-15" d="M-2250-325h4500v650h-4500z"/><path id="BJI5hgT2yW_pad-16" d="M-2500-350h5000v700h-5000z"/><path id="BJI5hgT2yW_pad-17" d="M-600-350H600v700H-600z"/><path id="BJI5hgT2yW_pad-18" d="M-1249.68-900.43h2499.36V900.43h-2499.36z"/><path id="BJI5hgT2yW_pad-19" d="M-375-400h750v800h-750z"/><path id="BJI5hgT2yW_pad-20" d="M-850-450H850v900H-850z"/><path id="BJI5hgT2yW_pad-21" d="M-450-250h900v500h-900z"/><path id="BJI5hgT2yW_pad-22" d="M-250-450h500v900h-500z"/><path id="BJI5hgT2yW_pad-23" d="M-800-500H800V500H-800z"/><path id="B145hgT2J-_pad-12" d="M-295-225h590v450h-590z"/><circle id="B145hgT2J-_pad-13" r="450"/><path id="B145hgT2J-_pad-14" d="M-900.43-1249.68H900.43v2499.36H-900.43z"/><path id="B145hgT2J-_pad-15" d="M-725-225H725v450H-725z"/><path id="B145hgT2J-_pad-16" d="M-2250-325h4500v650h-4500z"/><path id="B145hgT2J-_pad-17" d="M-2500-350h5000v700h-5000z"/><path id="B145hgT2J-_pad-18" d="M-600-350H600v700H-600z"/><path id="B145hgT2J-_pad-19" d="M-1249.68-900.43h2499.36V900.43h-2499.36z"/><path id="B145hgT2J-_pad-20" d="M-375-400h750v800h-750z"/><path id="B145hgT2J-_pad-21" d="M-850-450H850v900H-850z"/><path id="B145hgT2J-_pad-22" d="M-450-250h900v500h-900z"/><path id="B145hgT2J-_pad-23" d="M-250-450h500v900h-500z"/><path id="B145hgT2J-_pad-24" d="M-800-500H800V500H-800z"/><circle id="B145hgT2J-_pad-25" r="2999.74"/><path id="B145hgT2J-_pad-26" d="M-863.6-1016H863.6v2032H-863.6z"/><rect id="B145hgT2J-_pad-27" width="1727.2" height="2032" x="-863.6" y="-1016" rx="863.6" ry="863.6"/><path id="B145hgT2J-_pad-12" d="M-295-225h590v450h-590z"/><circle id="B145hgT2J-_pad-13" r="450"/><path id="B145hgT2J-_pad-14" d="M-900.43-1249.68H900.43v2499.36H-900.43z"/><path id="B145hgT2J-_pad-15" d="M-725-225H725v450H-725z"/><path id="B145hgT2J-_pad-16" d="M-2250-325h4500v650h-4500z"/><path id="B145hgT2J-_pad-17" d="M-2500-350h5000v700h-5000z"/><path id="B145hgT2J-_pad-18" d="M-600-350H600v700H-600z"/><path id="B145hgT2J-_pad-19" d="M-1249.68-900.43h2499.36V900.43h-2499.36z"/><path id="B145hgT2J-_pad-20" d="M-375-400h750v800h-750z"/><path id="B145hgT2J-_pad-21" d="M-850-450H850v900H-850z"/><path id="B145hgT2J-_pad-22" d="M-450-250h900v500h-900z"/><path id="B145hgT2J-_pad-23" d="M-250-450h500v900h-500z"/><path id="B145hgT2J-_pad-24" d="M-800-500H800V500H-800z"/><circle id="B145hgT2J-_pad-25" r="2999.74"/><path id="B145hgT2J-_pad-26" d="M-863.6-1016H863.6v2032H-863.6z"/><rect id="B145hgT2J-_pad-27" width="1727.2" height="2032" x="-863.6" y="-1016" rx="863.6" ry="863.6"/><path id="B145hgT2J-_pad-12" d="M-295-225h590v450h-590z"/><circle id="B145hgT2J-_pad-13" r="450"/><path id="B145hgT2J-_pad-14" d="M-900.43-1249.68H900.43v2499.36H-900.43z"/><path id="B145hgT2J-_pad-15" d="M-725-225H725v450H-725z"/><path id="B145hgT2J-_pad-16" d="M-2250-325h4500v650h-4500z"/><path id="B145hgT2J-_pad-17" d="M-2500-350h5000v700h-5000z"/><path id="B145hgT2J-_pad-18" d="M-600-350H600v700H-600z"/><path id="B145hgT2J-_pad-19" d="M-1249.68-900.43h2499.36V900.43h-2499.36z"/><path id="B145hgT2J-_pad-20" d="M-375-400h750v800h-750z"/><path id="B145hgT2J-_pad-21" d="M-850-450H850v900H-850z"/><path id="B145hgT2J-_pad-22" d="M-450-250h900v500h-900z"/><path id="B145hgT2J-_pad-23" d="M-250-450h500v900h-500z"/><path id="B145hgT2J-_pad-24" d="M-800-500H800V500H-800z"/><circle id="B145hgT2J-_pad-25" r="2999.74"/><path id="B145hgT2J-_pad-26" d="M-863.6-1016H863.6v2032H-863.6z"/><rect id="B145hgT2J-_pad-27" width="1727.2" height="2032" x="-863.6" y="-1016" rx="863.6" ry="863.6"/><path id="B145hgT2J-_pad-12" d="M-295-225h590v450h-590z"/><circle id="B145hgT2J-_pad-13" r="450"/><path id="B145hgT2J-_pad-14" d="M-900.43-1249.68H900.43v2499.36H-900.43z"/><path id="B145hgT2J-_pad-15" d="M-725-225H725v450H-725z"/><path id="B145hgT2J-_pad-16" d="M-2250-325h4500v650h-4500z"/><path id="B145hgT2J-_pad-17" d="M-2500-350h5000v700h-5000z"/><path id="B145hgT2J-_pad-18" d="M-600-350H600v700H-600z"/><path id="B145hgT2J-_pad-19" d="M-1249.68-900.43h2499.36V900.43h-2499.36z"/><path id="B145hgT2J-_pad-20" d="M-375-400h750v800h-750z"/><path id="B145hgT2J-_pad-21" d="M-850-450H850v900H-850z"/><path id="B145hgT2J-_pad-22" d="M-450-250h900v500h-900z"/><path id="B145hgT2J-_pad-23" d="M-250-450h500v900h-500z"/><path id="B145hgT2J-_pad-24" d="M-800-500H800V500H-800z"/><circle id="B145hgT2J-_pad-25" r="2999.74"/><path id="B145hgT2J-_pad-26" d="M-863.6-1016H863.6v2032H-863.6z"/><rect id="B145hgT2J-_pad-27" width="1727.2" height="2032" x="-863.6" y="-1016" rx="863.6" ry="863.6"/><path id="BJI5hgT2yW_pad-12" d="M-295-225h590v450h-590z"/><path id="BJI5hgT2yW_pad-13" d="M-900.43-1249.68H900.43v2499.36H-900.43z"/><path id="BJI5hgT2yW_pad-14" d="M-725-225H725v450H-725z"/><path id="BJI5hgT2yW_pad-15" d="M-2250-325h4500v650h-4500z"/><path id="BJI5hgT2yW_pad-16" d="M-2500-350h5000v700h-5000z"/><path id="BJI5hgT2yW_pad-17" d="M-600-350H600v700H-600z"/><path id="BJI5hgT2yW_pad-18" d="M-1249.68-900.43h2499.36V900.43h-2499.36z"/><path id="BJI5hgT2yW_pad-19" d="M-375-400h750v800h-750z"/><path id="BJI5hgT2yW_pad-20" d="M-850-450H850v900H-850z"/><path id="BJI5hgT2yW_pad-21" d="M-450-250h900v500h-900z"/><path id="BJI5hgT2yW_pad-22" d="M-250-450h500v900h-500z"/><path id="BJI5hgT2yW_pad-23" d="M-800-500H800V500H-800z"/><path id="B145hgT2J-_pad-12" d="M-295-225h590v450h-590z"/><circle id="B145hgT2J-_pad-13" r="450"/><path id="B145hgT2J-_pad-14" d="M-900.43-1249.68H900.43v2499.36H-900.43z"/><path id="B145hgT2J-_pad-15" d="M-725-225H725v450H-725z"/><path id="B145hgT2J-_pad-16" d="M-2250-325h4500v650h-4500z"/><path id="B145hgT2J-_pad-17" d="M-2500-350h5000v700h-5000z"/><path id="B145hgT2J-_pad-18" d="M-600-350H600v700H-600z"/><path id="B145hgT2J-_pad-19" d="M-1249.68-900.43h2499.36V900.43h-2499.36z"/><path id="B145hgT2J-_pad-20" d="M-375-400h750v800h-750z"/><path id="B145hgT2J-_pad-21" d="M-850-450H850v900H-850z"/><path id="B145hgT2J-_pad-22" d="M-450-250h900v500h-900z"/><path id="B145hgT2J-_pad-23" d="M-250-450h500v900h-500z"/><path id="B145hgT2J-_pad-24" d="M-800-500H800V500H-800z"/><circle id="B145hgT2J-_pad-25" r="2999.74"/><path id="B145hgT2J-_pad-26" d="M-863.6-1016H863.6v2032H-863.6z"/><rect id="B145hgT2J-_pad-27" width="1727.2" height="2032" x="-863.6" y="-1016" rx="863.6" ry="863.6"/><path id="B145hgT2J-_pad-12" d="M-295-225h590v450h-590z"/><circle id="B145hgT2J-_pad-13" r="450"/><path id="B145hgT2J-_pad-14" d="M-900.43-1249.68H900.43v2499.36H-900.43z"/><path id="B145hgT2J-_pad-15" d="M-725-225H725v450H-725z"/><path id="B145hgT2J-_pad-16" d="M-2250-325h4500v650h-4500z"/><path id="B145hgT2J-_pad-17" d="M-2500-350h5000v700h-5000z"/><path id="B145hgT2J-_pad-18" d="M-600-350H600v700H-600z"/><path id="B145hgT2J-_pad-19" d="M-1249.68-900.43h2499.36V900.43h-2499.36z"/><path id="B145hgT2J-_pad-20" d="M-375-400h750v800h-750z"/><path id="B145hgT2J-_pad-21" d="M-850-450H850v900H-850z"/><path id="B145hgT2J-_pad-22" d="M-450-250h900v500h-900z"/><path id="B145hgT2J-_pad-23" d="M-250-450h500v900h-500z"/><path id="B145hgT2J-_pad-24" d="M-800-500H800V500H-800z"/><circle id="B145hgT2J-_pad-25" r="2999.74"/><path id="B145hgT2J-_pad-26" d="M-863.6-1016H863.6v2032H-863.6z"/><rect id="B145hgT2J-_pad-27" width="1727.2" height="2032" x="-863.6" y="-1016" rx="863.6" ry="863.6"/><path id="B145hgT2J-_pad-12" d="M-295-225h590v450h-590z"/><circle id="B145hgT2J-_pad-13" r="450"/><path id="B145hgT2J-_pad-14" d="M-900.43-1249.68H900.43v2499.36H-900.43z"/><path id="B145hgT2J-_pad-15" d="M-725-225H725v450H-725z"/><path id="B145hgT2J-_pad-16" d="M-2250-325h4500v650h-4500z"/><path id="B145hgT2J-_pad-17" d="M-2500-350h5000v700h-5000z"/><path id="B145hgT2J-_pad-18" d="M-600-350H600v700H-600z"/><path id="B145hgT2J-_pad-19" d="M-1249.68-900.43h2499.36V900.43h-2499.36z"/><path id="B145hgT2J-_pad-20" d="M-375-400h750v800h-750z"/><path id="B145hgT2J-_pad-21" d="M-850-450H850v900H-850z"/><path id="B145hgT2J-_pad-22" d="M-450-250h900v500h-900z"/><path id="B145hgT2J-_pad-23" d="M-250-450h500v900h-500z"/><path id="B145hgT2J-_pad-24" d="M-800-500H800V500H-800z"/><circle id="B145hgT2J-_pad-25" r="2999.74"/><path id="B145hgT2J-_pad-26" d="M-863.6-1016H863.6v2032H-863.6z"/><rect id="B145hgT2J-_pad-27" width="1727.2" height="2032" x="-863.6" y="-1016" rx="863.6" ry="863.6"/><path id="B145hgT2J-_pad-12" d="M-295-225h590v450h-590z"/><circle id="B145hgT2J-_pad-13" r="450"/><path id="B145hgT2J-_pad-14" d="M-900.43-1249.68H900.43v2499.36H-900.43z"/><path id="B145hgT2J-_pad-15" d="M-725-225H725v450H-725z"/><path id="B145hgT2J-_pad-16" d="M-2250-325h4500v650h-4500z"/><path id="B145hgT2J-_pad-17" d="M-2500-350h5000v700h-5000z"/><path id="B145hgT2J-_pad-18" d="M-600-350H600v700H-600z"/><path id="B145hgT2J-_pad-19" d="M-1249.68-900.43h2499.36V900.43h-2499.36z"/><path id="B145hgT2J-_pad-20" d="M-375-400h750v800h-750z"/><path id="B145hgT2J-_pad-21" d="M-850-450H850v900H-850z"/><path id="B145hgT2J-_pad-22" d="M-450-250h900v500h-900z"/><path id="B145hgT2J-_pad-23" d="M-250-450h500v900h-500z"/><path id="B145hgT2J-_pad-24" d="M-800-500H800V500H-800z"/><circle id="B145hgT2J-_pad-25" r="2999.74"/><path id="B145hgT2J-_pad-26" d="M-863.6-1016H863.6v2032H-863.6z"/><rect id="B145hgT2J-_pad-27" width="1727.2" height="2032" x="-863.6" y="-1016" rx="863.6" ry="863.6"/><path id="BJI5hgT2yW_pad-12" d="M-295-225h590v450h-590z"/><path id="BJI5hgT2yW_pad-13" d="M-900.43-1249.68H900.43v2499.36H-900.43z"/><path id="BJI5hgT2yW_pad-14" d="M-725-225H725v450H-725z"/><path id="BJI5hgT2yW_pad-15" d="M-2250-325h4500v650h-4500z"/><path id="BJI5hgT2yW_pad-16" d="M-2500-350h5000v700h-5000z"/><path id="BJI5hgT2yW_pad-17" d="M-600-350H600v700H-600z"/><path id="BJI5hgT2yW_pad-18" d="M-1249.68-900.43h2499.36V900.43h-2499.36z"/><path id="BJI5hgT2yW_pad-19" d="M-375-400h750v800h-750z"/><path id="BJI5hgT2yW_pad-20" d="M-850-450H850v900H-850z"/><path id="BJI5hgT2yW_pad-21" d="M-450-250h900v500h-900z"/><path id="BJI5hgT2yW_pad-22" d="M-250-450h500v900h-500z"/><path id="BJI5hgT2yW_pad-23" d="M-800-500H800V500H-800z"/><circle id="Byu53x63kZ_pad-1" r="250"/><circle id="Byu53x63kZ_pad-2" r="508"/><circle id="Byu53x63kZ_pad-3" r="1650"/><g id="pcb-stackup_top_cu"><path fill="none" stroke-width="150" d="M0 25000h34000M0 0v25000M34000 0v25000M0 0h34000"/><use x="18280" y="11450" xlink:href="#B145hgT2J-_pad-12"/><use x="16170" y="11450" xlink:href="#B145hgT2J-_pad-12"/><use x="32300" y="7200" xlink:href="#B145hgT2J-_pad-13"/><use x="1900" y="7500" xlink:href="#B145hgT2J-_pad-13"/><use x="9300" y="5100" xlink:href="#B145hgT2J-_pad-13"/><use x="6500" y="7600" xlink:href="#B145hgT2J-_pad-13"/><use x="7800" y="2800" xlink:href="#B145hgT2J-_pad-13"/><use x="11200" y="1800" xlink:href="#B145hgT2J-_pad-13"/><use x="15500" y="2000" xlink:href="#B145hgT2J-_pad-13"/><use x="20300" y="2000" xlink:href="#B145hgT2J-_pad-13"/><use x="25800" y="2200" xlink:href="#B145hgT2J-_pad-13"/><use x="28700" y="11400" xlink:href="#B145hgT2J-_pad-13"/><use x="30200" y="15900" xlink:href="#B145hgT2J-_pad-13"/><use x="27900" y="13500" xlink:href="#B145hgT2J-_pad-13"/><use x="27800" y="15800" xlink:href="#B145hgT2J-_pad-13"/><use x="32300" y="11500" xlink:href="#B145hgT2J-_pad-13"/><use x="32100" y="9200" xlink:href="#B145hgT2J-_pad-13"/><use x="29600" y="9200" xlink:href="#B145hgT2J-_pad-13"/><use x="26800" y="9200" xlink:href="#B145hgT2J-_pad-13"/><use x="25500" y="10600" xlink:href="#B145hgT2J-_pad-13"/><use x="32300" y="14300" xlink:href="#B145hgT2J-_pad-13"/><use x="32100" y="17700" xlink:href="#B145hgT2J-_pad-13"/><use x="27600" y="17900" xlink:href="#B145hgT2J-_pad-13"/><use x="26000" y="20100" xlink:href="#B145hgT2J-_pad-13"/><use x="25500" y="22400" xlink:href="#B145hgT2J-_pad-13"/><use x="23100" y="20900" xlink:href="#B145hgT2J-_pad-13"/><use x="22000" y="23200" xlink:href="#B145hgT2J-_pad-13"/><use x="20100" y="20800" xlink:href="#B145hgT2J-_pad-13"/><use x="22300" y="12200" xlink:href="#B145hgT2J-_pad-13"/><use x="20400" y="12200" xlink:href="#B145hgT2J-_pad-13"/><use x="24100" y="12200" xlink:href="#B145hgT2J-_pad-13"/><use x="25400" y="13500" xlink:href="#B145hgT2J-_pad-13"/><use x="25500" y="15400" xlink:href="#B145hgT2J-_pad-13"/><use x="25100" y="17100" xlink:href="#B145hgT2J-_pad-13"/><use x="24000" y="18500" xlink:href="#B145hgT2J-_pad-13"/><use x="22200" y="18500" xlink:href="#B145hgT2J-_pad-13"/><use x="20200" y="18500" xlink:href="#B145hgT2J-_pad-13"/><use x="6000" y="14600" xlink:href="#B145hgT2J-_pad-13"/><use x="12900" y="11400" xlink:href="#B145hgT2J-_pad-13"/><use x="5100" y="17000" xlink:href="#B145hgT2J-_pad-13"/><use x="9300" y="23000" xlink:href="#B145hgT2J-_pad-13"/><use x="12900" y="23000" xlink:href="#B145hgT2J-_pad-13"/><use x="15800" y="23000" xlink:href="#B145hgT2J-_pad-13"/><use x="14600" y="20500" xlink:href="#B145hgT2J-_pad-13"/><use x="12200" y="20600" xlink:href="#B145hgT2J-_pad-13"/><use x="10200" y="20500" xlink:href="#B145hgT2J-_pad-13"/><use x="8700" y="19300" xlink:href="#B145hgT2J-_pad-13"/><use x="8700" y="17400" xlink:href="#B145hgT2J-_pad-13"/><use x="8700" y="15500" xlink:href="#B145hgT2J-_pad-13"/><use x="9500" y="13600" xlink:href="#B145hgT2J-_pad-13"/><use x="11700" y="13600" xlink:href="#B145hgT2J-_pad-13"/><use x="13800" y="13600" xlink:href="#B145hgT2J-_pad-13"/><use x="7600" y="12300" xlink:href="#B145hgT2J-_pad-13"/><use x="4800" y="12300" xlink:href="#B145hgT2J-_pad-13"/><use x="1900" y="13470" xlink:href="#B145hgT2J-_pad-13"/><use x="1700" y="17200" xlink:href="#B145hgT2J-_pad-13"/><use x="11850" y="8548.98" xlink:href="#B145hgT2J-_pad-14"/><use x="11850" y="4551.02" xlink:href="#B145hgT2J-_pad-14"/><use x="15500" y="9575" xlink:href="#B145hgT2J-_pad-15"/><use x="15500" y="8925" xlink:href="#B145hgT2J-_pad-15"/><use x="15500" y="8275" xlink:href="#B145hgT2J-_pad-15"/><use x="15500" y="7625" xlink:href="#B145hgT2J-_pad-15"/><use x="19900" y="7625" xlink:href="#B145hgT2J-_pad-15"/><use x="19900" y="8275" xlink:href="#B145hgT2J-_pad-15"/><use x="19900" y="8925" xlink:href="#B145hgT2J-_pad-15"/><use x="19900" y="9575" xlink:href="#B145hgT2J-_pad-15"/><use x="21825" y="16725" xlink:href="#B145hgT2J-_pad-16"/><use x="21825" y="15375" xlink:href="#B145hgT2J-_pad-16"/><use x="22075" y="14700" xlink:href="#B145hgT2J-_pad-17"/><use x="22075" y="16050" xlink:href="#B145hgT2J-_pad-17"/><use x="22075" y="17400" xlink:href="#B145hgT2J-_pad-17"/><use x="22075" y="13350" xlink:href="#B145hgT2J-_pad-17"/><use x="21825" y="14025" xlink:href="#B145hgT2J-_pad-16"/><use x="18375" y="17280" xlink:href="#B145hgT2J-_pad-18"/><use x="18375" y="16010" xlink:href="#B145hgT2J-_pad-18"/><use x="18375" y="14740" xlink:href="#B145hgT2J-_pad-18"/><use x="18375" y="13470" xlink:href="#B145hgT2J-_pad-18"/><use x="19398.98" y="4700" xlink:href="#B145hgT2J-_pad-19"/><use x="15401.02" y="4700" xlink:href="#B145hgT2J-_pad-19"/><use x="12250" y="15700" xlink:href="#B145hgT2J-_pad-16"/><use x="12250" y="17050" xlink:href="#B145hgT2J-_pad-16"/><use x="12000" y="17725" xlink:href="#B145hgT2J-_pad-17"/><use x="12000" y="16375" xlink:href="#B145hgT2J-_pad-17"/><use x="12000" y="15025" xlink:href="#B145hgT2J-_pad-17"/><use x="12000" y="19075" xlink:href="#B145hgT2J-_pad-17"/><use x="12250" y="18400" xlink:href="#B145hgT2J-_pad-16"/><use x="15700" y="15145" xlink:href="#B145hgT2J-_pad-18"/><use x="15700" y="16415" xlink:href="#B145hgT2J-_pad-18"/><use x="15700" y="17685" xlink:href="#B145hgT2J-_pad-18"/><use x="15700" y="18955" xlink:href="#B145hgT2J-_pad-18"/><use x="24150" y="4900" xlink:href="#B145hgT2J-_pad-20"/><use x="24150" y="3400" xlink:href="#B145hgT2J-_pad-20"/><use x="22150" y="6350" xlink:href="#B145hgT2J-_pad-21"/><use x="22150" y="3450" xlink:href="#B145hgT2J-_pad-21"/><use x="24200" y="7700" xlink:href="#B145hgT2J-_pad-22"/><use x="24200" y="6200" xlink:href="#B145hgT2J-_pad-22"/><use x="17400" y="18900" xlink:href="#B145hgT2J-_pad-22"/><use x="17400" y="20400" xlink:href="#B145hgT2J-_pad-22"/><use x="11900" y="10900" xlink:href="#B145hgT2J-_pad-23"/><use x="10400" y="10900" xlink:href="#B145hgT2J-_pad-23"/><use x="22100" y="10925" xlink:href="#B145hgT2J-_pad-24"/><use x="22100" y="7925" xlink:href="#B145hgT2J-_pad-24"/><use x="4100" y="4100" xlink:href="#B145hgT2J-_pad-25"/><use x="29900" y="4100" xlink:href="#B145hgT2J-_pad-25"/><use x="4100" y="20900" xlink:href="#B145hgT2J-_pad-25"/><use x="29900" y="20900" xlink:href="#B145hgT2J-_pad-25"/><use x="2950" y="9950" xlink:href="#B145hgT2J-_pad-26"/><use x="5490" y="9950" xlink:href="#B145hgT2J-_pad-27"/><use x="8030" y="9950" xlink:href="#B145hgT2J-_pad-27"/><use x="3200" y="14800" xlink:href="#B145hgT2J-_pad-13"/><use x="18500" y="23000" xlink:href="#B145hgT2J-_pad-13"/><use x="26400" y="7000" xlink:href="#B145hgT2J-_pad-13"/><use x="16200" y="13300" xlink:href="#B145hgT2J-_pad-13"/><use x="18600" y="19650" xlink:href="#B145hgT2J-_pad-13"/><use x="24200" y="8600" xlink:href="#B145hgT2J-_pad-13"/><use x="18300" y="9600" xlink:href="#B145hgT2J-_pad-13"/><use x="17000" y="16900" xlink:href="#B145hgT2J-_pad-13"/><use x="17000" y="15200" xlink:href="#B145hgT2J-_pad-13"/><path fill="none" stroke-width="400" d="M17850 20400h-450m1200-750l-750 750m450-10800v1830l-20 20m5920-2850v-900m-8675 1900h2775m-2800-25l25 25m2755 1850v1925l95 95m1525-3895h1825m375 375v975m-375-1350l375 375"/><path fill="none" stroke-width="700" d="M15401.02 4700h-3402.04L11850 4551.02"/><path fill="none" stroke-width="400" d="M5490 9950V7610l10-10m16250 675l350-350m-2200 350h1850m400-1925l-50 50v1525"/><path fill="none" stroke-width="700" d="M19398.98 4700l400 400H21700l450 450v800"/><path fill="none" stroke-width="400" d="M11900 10900V8598.98l-50-50M15500 7625h-3076.02L11900 8148.98M24150 4900v1250l50 50m-8500 11485h515l785-785m0-1700l-55-55h-1245m-200-6220h-1225m1895 1795v730m-320-1050l320 320m-1770-320h1450m-1800-350l350 350m-350-1250v900m225-1125l-225 225m3350 9750h-1645l-55 55M8030 9950h1870l50 50m550-3450l-550 550m9950 525h-1725m-1075-1075l1075 1075m-7675-1075h6600m-7150 3900l450 450m-450-3800v3350"/><path d="M32873 8727h-7395.889l.11 125.897-194.002 469.52-358.912 359.54-469.182 194.821-152.43.133-612.892 612.892-42.014 27.863L23600 10527h-3873v2228.697l24.769 36.251 66.432 328.052v700l-55.595 295.462 55.595 274.538v700l-55.595 295.462 55.595 274.538v700l-55.595 295.462 55.595 274.538v700l-57.666 306.468-33.535 52.115v1045.586l149.778 360.706.443 508.022-194.002 469.52-358.912 359.54-469.182 194.821-79.574.069-199.352 199.352-87.508 58.471-34.278 53.269-276.361 188.83-328.052 66.432h-223V23873h15246V8727"/><path fill="none" stroke-width="254" d="M32873 8727h-7395.889l.11 125.897-194.002 469.52-358.912 359.54-469.182 194.821-152.43.133-612.892 612.892-42.014 27.863L23600 10527h-3873v2228.697l24.769 36.251 66.432 328.052v700l-55.595 295.462 55.595 274.538v700l-55.595 295.462 55.595 274.538v700l-55.595 295.462 55.595 274.538v700l-57.666 306.468-33.535 52.115v1045.586l149.778 360.706.443 508.022-194.002 469.52-358.912 359.54-469.182 194.821-79.574.069-199.352 199.352-87.508 58.471-34.278 53.269-276.361 188.83-328.052 66.432h-223V23873h15246V8727"/><path d="M18773 17953.457l-41.201-203.457v-3086.799H17775l-306.468-57.666-281.471-181.122-188.83-276.361-66.432-328.052v-700l57.666-306.468 83.535-129.817v-1431.109L16447.394 10627h-142.391l-80.003 16.201h-898v3951.796l16.201 80.003v3086.799H16300l306.468 57.666 67.26 43.28 276.272-55.946h900l306.468 57.666 281.471 181.122 18.731 27.413H18773v-119.543"/><path fill="none" stroke-width="254" d="M18773 17953.457l-41.201-203.457v-3086.799H17775l-306.468-57.666-281.471-181.122-188.83-276.361-66.432-328.052v-700l57.666-306.468 83.535-129.817v-1431.109L16447.394 10627h-142.391l-80.003 16.201h-898v3951.796l16.201 80.003v3086.799H16300l306.468 57.666 67.26 43.28 276.272-55.946h900l306.468 57.666 281.471 181.122 18.731 27.413H18773v-119.543"/><path d="M16673 21441.08l-29.468-5.545-281.471-181.122-188.83-276.361-66.432-328.052v-500l.339-1.799H15100l-306.468-57.666-281.471-181.122-188.83-276.361-66.432-328.052v-700l55.595-295.462-55.595-274.538v-700l55.595-295.462-55.595-274.538v-700l55.595-295.462-55.595-274.538v-700l57.666-306.468 58.535-90.966V11421.63l-300.809-59.836-65.207-12.97-333.183-222.625-.002-.003-349.998-349.997-222.625-333.183-40.283-202.517L12547.394 9727H11327v248.932l99.769 146.016 66.432 328.052v900l-57.666 306.468-181.122 281.471-276.361 188.83-328.052 66.432h-500l-306.468-57.666-281.471-181.122-188.83-276.361-30.589-151.052h-406.139l-259.538 173.418L8030 11829.107l-646.965-128.689L7123.497 11527h-726.994l-259.538 173.418L5490 11829.107l-646.965-128.689L4583.497 11527h-148.149l-17.335 26.939-276.361 188.83-328.052 66.432H2086.4l-306.468-57.666-281.471-181.122-29.663-43.413h-440.786l97.984 12346H16673v-2431.92"/><path fill="none" stroke-width="254" d="M16673 21441.08l-29.468-5.545-281.471-181.122-188.83-276.361-66.432-328.052v-500l.339-1.799H15100l-306.468-57.666-281.471-181.122-188.83-276.361-66.432-328.052v-700l55.595-295.462-55.595-274.538v-700l55.595-295.462-55.595-274.538v-700l55.595-295.462-55.595-274.538v-700l57.666-306.468 58.535-90.966V11421.63l-300.809-59.836-65.207-12.97-333.183-222.625-.002-.003-349.998-349.997-222.625-333.183-40.283-202.517L12547.394 9727H11327v248.932l99.769 146.016 66.432 328.052v900l-57.666 306.468-181.122 281.471-276.361 188.83-328.052 66.432h-500l-306.468-57.666-281.471-181.122-188.83-276.361-30.589-151.052h-406.139l-259.538 173.418L8030 11829.107l-646.965-128.689L7123.497 11527h-726.994l-259.538 173.418L5490 11829.107l-646.965-128.689L4583.497 11527h-148.149l-17.335 26.939-276.361 188.83-328.052 66.432H2086.4l-306.468-57.666-281.471-181.122-29.663-43.413h-440.786l97.984 12346H16673v-2431.92"/><path d="M1481.987 8346.061l276.361-188.83 328.052-66.432h1727.2l306.468 57.666 281.471 181.122 29.663 43.413h2692.295l259.538-173.418L8030 8070.893l643 127.9V6900l10.006-49.41 27.191-40.393L10073 5447.394V3100l10.006-49.41 27.191-40.393 123.351-123.351 111.609-173.445 195.234-133.398 69.806-69.806 42.014-27.863L10700 2473h176.184l73.386-14.861h1800.86l78.979 14.861H13500l49.41 10.006 40.393 27.191L14052.606 2973h16.607l82.127-16.631h2499.36l88.386 16.631h1328.087l82.127-16.631h2499.36l88.386 16.631H21300l49.41 10.006 41.625 28.441 27.28 42.394L21427 3100v379.276l39.23 193.724h2228.767l80.003-16.201h750l86.101 16.201H25000l49.41 10.006 40.393 27.191 400 400 27.863 42.014L25527 4200v3573h7346V1127H1127v7246h337.652l17.335-26.939"/><path fill="none" stroke-width="254" d="M1481.987 8346.061l276.361-188.83 328.052-66.432h1727.2l306.468 57.666 281.471 181.122 29.663 43.413h2692.295l259.538-173.418L8030 8070.893l643 127.9V6900l10.006-49.41 27.191-40.393L10073 5447.394V3100l10.006-49.41 27.191-40.393 123.351-123.351 111.609-173.445 195.234-133.398 69.806-69.806 42.014-27.863L10700 2473h176.184l73.386-14.861h1800.86l78.979 14.861H13500l49.41 10.006 40.393 27.191L14052.606 2973h16.607l82.127-16.631h2499.36l88.386 16.631h1328.087l82.127-16.631h2499.36l88.386 16.631H21300l49.41 10.006 41.625 28.441 27.28 42.394L21427 3100v379.276l39.23 193.724h2228.767l80.003-16.201h750l86.101 16.201H25000l49.41 10.006 40.393 27.191 400 400 27.863 42.014L25527 4200v3573h7346V1127H1127v7246h337.652l17.335-26.939"/></g><g id="pcb-stackup_top_sm"><path fill="none" stroke-width="150" d="M0 25000h34000M0 0v25000M34000 0v25000M0 0h34000"/><path d="M4425.578 7197.677l595.477-122.234 560.389-235.566 503.965-339.928 428.343-431.344 336.401-506.324 231.648-562.02 118.006-595.972v-.01l.066-.334-9.696-694.325-.076-.334v-.012l-134.597-592.437-247.253-555.337-350.407-496.734-440.222-419.217-513.255-325.721-566.752-219.83-598.653-105.558-607.757 12.73-593.717 130.537-557.044 243.367-499.169 346.931-422.278 437.283-329.297 510.968-223.78 565.203-109.737 597.909 8.488 607.83 126.387 594.604 239.475 558.736 343.438 501.578 434.322 425.321 508.66 332.858 563.627 227.72 597.12 113.906 607.878-4.244M30225.578 7197.677l595.477-122.234 560.389-235.566 503.965-339.928 428.343-431.344 336.401-506.324 231.648-562.02 118.006-595.972v-.01l.066-.334-9.696-694.325-.076-.334v-.012l-134.597-592.437-247.253-555.337-350.407-496.734-440.222-419.217-513.255-325.721-566.752-219.83-598.653-105.558-607.757 12.73-593.717 130.537-557.044 243.367-499.169 346.931-422.278 437.283-329.297 510.968-223.78 565.203-109.737 597.909 8.488 607.83 126.387 594.604 239.475 558.736 343.438 501.578 434.322 425.321 508.66 332.858 563.627 227.72 597.12 113.906 607.878-4.244M23100 2900h-1900v1100h1900V2900M24625 2900h-950v1000h950V2900M12850.43 3201.34h-2000.86V5900.7h2000.86V3201.34M20748.66 3699.57H18049.3v2000.86h2699.36V3699.57M16750.7 3699.57h-2699.36v2000.86h2699.36V3699.57M24625 4400h-950v1000h950V4400M23100 5800h-1900v1100h1900V5800M24750 5850h-1100v700h1100v-700M12850.43 7199.3h-2000.86v2699.36h2000.86V7199.3M16325 7300h-1650v2600h1650V7300M20725 7300h-1650v2600h1650V7300M23000 7325h-1800v1200h1800V7325M24750 7350h-1100v700h1100v-700M5683.71 11051.726l.009-.003.04-.004 179.651-55.612 165.428-89.446 144.904-119.875 118.861-145.738 88.29-166.049 54.355-180.035 18.352-187.164v-315.6l-.094-13.454-20.963-186.89-56.864-179.258-90.6-164.8-120.883-144.064-146.564-117.84-166.661-87.128-180.41-53.098-.039-.004-.008-.002-187.239-17.041-186.985 19.653-.009.003-.04.004-179.651 55.612-165.428 89.446-144.904 119.875-118.861 145.738-88.29 166.049-54.355 180.035L4526.4 9792.2v315.6l.094 13.454 20.963 186.89 56.864 179.258 90.6 164.8 120.883 144.064 146.564 117.84 166.661 87.128 180.41 53.098.039.004.008.002 187.239 17.041 186.985-19.653M8223.71 11051.726l.009-.003.04-.004 179.651-55.612 165.428-89.446 144.904-119.875 118.861-145.738 88.29-166.049 54.355-180.035 18.352-187.164v-315.6l-.094-13.454-20.963-186.89-56.864-179.258-90.6-164.8-120.883-144.064-146.564-117.84-166.661-87.128-180.41-53.098-.039-.004-.008-.002-187.239-17.041-186.985 19.653-.009.003-.04.004-179.651 55.612-165.428 89.446-144.904 119.875-118.861 145.738-88.29 166.049-54.355 180.035L7066.4 9792.2v315.6l.094 13.454 20.963 186.89 56.864 179.258 90.6 164.8 120.883 144.064 146.564 117.84 166.661 87.128 180.41 53.098.039.004.008.002 187.239 17.041 186.985-19.653M3913.6 8834H1986.4v2232h1927.2V8834M23000 10325h-1800v1200h1800v-1200M10750 10350h-700v1100h700v-1100M12250 10350h-700v1100h700v-1100M16565 11125h-790v650h790v-650M18675 11125h-790v650h790v-650M24675 16950h-450l-13.93-1.98-12.826-5.781-10.708-9.127-7.742-11.748-4.162-13.44-.632-7.924v-350l1.98-13.93 5.781-12.826 9.127-10.708 11.748-7.742 13.44-4.162 7.924-.632h450v-900h-450l-13.93-1.98-12.826-5.781-10.708-9.127-7.742-11.748-4.162-13.44-.632-7.924v-350l1.98-13.93 5.781-12.826 9.127-10.708 11.748-7.742 13.44-4.162 7.924-.632h450v-900h-450l-13.93-1.98-12.826-5.781-10.708-9.127-7.742-11.748-4.162-13.44-.632-7.924v-350l1.98-13.93 5.781-12.826 9.127-10.708 11.748-7.742 13.44-4.162 7.924-.632h450v-900h-5200v4950h5200v-900M19075 13020h-1400v900h1400v-900M19075 14290h-1400v900h1400v-900M14600 14575H9400v900h450l13.93 1.98 12.826 5.781 10.708 9.127 7.742 11.748 4.162 13.44.632 7.924v350l-1.98 13.93-5.781 12.826-9.127 10.708-11.748 7.742-13.44 4.162-7.924.632h-450v900h450l13.93 1.98 12.826 5.781 10.708 9.127 7.742 11.748 4.162 13.44.632 7.924v350l-1.98 13.93-5.781 12.826-9.127 10.708-11.748 7.742-13.44 4.162-7.924.632h-450v900h450l13.93 1.98 12.826 5.781 10.708 9.127 7.742 11.748 4.162 13.44.632 7.924v350l-1.98 13.93-5.781 12.826-9.127 10.708-11.748 7.742-13.44 4.162-7.924.632h-450v900h5200v-4950M16400 14695h-1400v900h1400v-900M19075 15560h-1400v900h1400v-900M16400 15965h-1400v900h1400v-900M19075 16830h-1400v900h1400v-900M16400 17235h-1400v900h1400v-900M30225.578 23997.677l595.477-122.234 560.389-235.566 503.965-339.928 428.343-431.344 336.401-506.324 231.648-562.02 118.006-595.972v-.01l.066-.334-9.696-694.325-.076-.334v-.012l-134.597-592.437-247.253-555.337-350.407-496.734-440.222-419.217-513.255-325.721-566.752-219.83-598.653-105.558-607.757 12.73-593.717 130.537-557.044 243.367-499.169 346.931-422.278 437.283-329.297 510.968-223.78 565.203-109.737 597.909 8.488 607.83 126.387 594.604 239.475 558.736 343.438 501.578 434.322 425.321 508.66 332.858 563.627 227.72 597.12 113.906 607.878-4.244M4425.578 23997.677l595.477-122.234 560.389-235.566 503.965-339.928 428.343-431.344 336.401-506.324 231.648-562.02 118.006-595.972v-.01l.066-.334-9.696-694.325-.076-.334v-.012l-134.597-592.437-247.253-555.337-350.407-496.734-440.222-419.217-513.255-325.721-566.752-219.83-598.653-105.558-607.757 12.73-593.717 130.537-557.044 243.367-499.169 346.931-422.278 437.283-329.297 510.968-223.78 565.203-109.737 597.909 8.488 607.83 126.387 594.604 239.475 558.736 343.438 501.578 434.322 425.321 508.66 332.858 563.627 227.72 597.12 113.906 607.878-4.244M16400 18505h-1400v900h1400v-900M17950 18550h-1100v700h1100v-700M17950 20050h-1100v700h1100v-700"/></g><g id="pcb-stackup_top_sp"><path fill="none" stroke-width="150" d="M0 25000h34000M0 0v25000M34000 0v25000M0 0h34000"/><use x="18280" y="11450" xlink:href="#BJI5hgT2yW_pad-12"/><use x="16170" y="11450" xlink:href="#BJI5hgT2yW_pad-12"/><use x="11850" y="8548.98" xlink:href="#BJI5hgT2yW_pad-13"/><use x="11850" y="4551.02" xlink:href="#BJI5hgT2yW_pad-13"/><use x="15500" y="9575" xlink:href="#BJI5hgT2yW_pad-14"/><use x="15500" y="8925" xlink:href="#BJI5hgT2yW_pad-14"/><use x="15500" y="8275" xlink:href="#BJI5hgT2yW_pad-14"/><use x="15500" y="7625" xlink:href="#BJI5hgT2yW_pad-14"/><use x="19900" y="7625" xlink:href="#BJI5hgT2yW_pad-14"/><use x="19900" y="8275" xlink:href="#BJI5hgT2yW_pad-14"/><use x="19900" y="8925" xlink:href="#BJI5hgT2yW_pad-14"/><use x="19900" y="9575" xlink:href="#BJI5hgT2yW_pad-14"/><use x="21825" y="16725" xlink:href="#BJI5hgT2yW_pad-15"/><use x="21825" y="15375" xlink:href="#BJI5hgT2yW_pad-15"/><use x="22075" y="14700" xlink:href="#BJI5hgT2yW_pad-16"/><use x="22075" y="16050" xlink:href="#BJI5hgT2yW_pad-16"/><use x="22075" y="17400" xlink:href="#BJI5hgT2yW_pad-16"/><use x="22075" y="13350" xlink:href="#BJI5hgT2yW_pad-16"/><use x="21825" y="14025" xlink:href="#BJI5hgT2yW_pad-15"/><use x="18375" y="17280" xlink:href="#BJI5hgT2yW_pad-17"/><use x="18375" y="16010" xlink:href="#BJI5hgT2yW_pad-17"/><use x="18375" y="14740" xlink:href="#BJI5hgT2yW_pad-17"/><use x="18375" y="13470" xlink:href="#BJI5hgT2yW_pad-17"/><use x="19398.98" y="4700" xlink:href="#BJI5hgT2yW_pad-18"/><use x="15401.02" y="4700" xlink:href="#BJI5hgT2yW_pad-18"/><use x="12250" y="15700" xlink:href="#BJI5hgT2yW_pad-15"/><use x="12250" y="17050" xlink:href="#BJI5hgT2yW_pad-15"/><use x="12000" y="17725" xlink:href="#BJI5hgT2yW_pad-16"/><use x="12000" y="16375" xlink:href="#BJI5hgT2yW_pad-16"/><use x="12000" y="15025" xlink:href="#BJI5hgT2yW_pad-16"/><use x="12000" y="19075" xlink:href="#BJI5hgT2yW_pad-16"/><use x="12250" y="18400" xlink:href="#BJI5hgT2yW_pad-15"/><use x="15700" y="15145" xlink:href="#BJI5hgT2yW_pad-17"/><use x="15700" y="16415" xlink:href="#BJI5hgT2yW_pad-17"/><use x="15700" y="17685" xlink:href="#BJI5hgT2yW_pad-17"/><use x="15700" y="18955" xlink:href="#BJI5hgT2yW_pad-17"/><use x="24150" y="4900" xlink:href="#BJI5hgT2yW_pad-19"/><use x="24150" y="3400" xlink:href="#BJI5hgT2yW_pad-19"/><use x="22150" y="6350" xlink:href="#BJI5hgT2yW_pad-20"/><use x="22150" y="3450" xlink:href="#BJI5hgT2yW_pad-20"/><use x="24200" y="7700" xlink:href="#BJI5hgT2yW_pad-21"/><use x="24200" y="6200" xlink:href="#BJI5hgT2yW_pad-21"/><use x="17400" y="18900" xlink:href="#BJI5hgT2yW_pad-21"/><use x="17400" y="20400" xlink:href="#BJI5hgT2yW_pad-21"/><use x="11900" y="10900" xlink:href="#BJI5hgT2yW_pad-22"/><use x="10400" y="10900" xlink:href="#BJI5hgT2yW_pad-22"/><use x="22100" y="10925" xlink:href="#BJI5hgT2yW_pad-23"/><use x="22100" y="7925" xlink:href="#BJI5hgT2yW_pad-23"/></g><g id="pcb-stackup_top_ss"><path fill="none" stroke-width="300" d="M1998.572 15336.429v1500m857.143-1500l-642.857 857.142m642.857 642.858l-857.143-857.143m1785.714 857.143H4070l142.858-71.429 142.857-142.857 71.428-285.714v-500l-71.428-285.715-142.857-142.857-142.858-71.428h-285.714l-142.857 71.428-142.857 142.857-71.429 285.715v500l71.429 285.714L3641.429 16765l142.857 71.429m1214.286-1428.572l214.286-71.428h357.143l142.857 71.428 71.429 71.429 71.428 142.857V15765l-71.428 142.857-71.429 71.429-142.857 71.428-285.714 71.429-142.858 71.428-71.428 71.429-71.429 142.857v142.857l71.429 142.857 71.428 71.429 142.858 71.429h357.142l214.286-71.429m928.571 71.429h142.857L7070 16765l71.429-71.429 71.429-142.857 71.428-285.714v-357.143l-71.428-285.714-71.429-142.857-71.429-71.429-142.857-71.428h-142.857l-142.857 71.428-71.429 71.429-71.428 142.857-71.429 285.714V16265l71.429 285.714 71.428 142.857 71.429 71.429 142.857 71.429m1928.571-1500h-857.143m428.572 0v1500l-142.857-214.286-142.858-142.857-142.857-71.429m-4678.57-2621.428l357.143-1000 357.142 1000m1357.143-1000h-857.143m428.572 0v1500l-142.857-214.286-142.858-142.857-142.857-71.429m1500-928.571l71.428-71.429-71.428-71.428-71.429 71.428 71.429 71.429v-142.857m1000 1500h142.857l142.857-71.429 71.429-71.429 71.429-142.857 71.428-285.714v-357.143l-71.428-285.714-71.429-142.857-71.429-71.429-142.857-71.428h-142.857l-142.857 71.428-71.429 71.429-71.428 142.857-71.429 285.714V13715l71.429 285.714 71.428 142.857 71.429 71.429 142.857 71.429"/><path fill="none" stroke-width="150" d="M0 25000h34000M0 0v25000M34000 0v25000M0 0h34000M16975 11450h-250m750 0h250m-250 0l-500-350v700l500-350m0-350v700m1050 450h-2400m2400-1600h-2400m-6025.06-2300.86h350.52m3149.6 0h-350.52m-3149.6-4049.58h350.52m-350.52 4500.88h350.52m3149.6 0h-350.52m350.52-4500.88h-350.52m-3149.6 4500.88V4299.56m3500.12 4500.88V4299.56M16025 10275v-250m3350 250v-250m0-3100v250m-3350-250v250m0 3100h3350m-3350-3350h3350m-3350 3100h-1250m3350 8000v-200 100m0-5200v250m6100-250v150m0 5150v-150m-6100-50h-500m500-5125h6100m0 5350h-6100m1074.14-11599.94v-350.52m0-3149.6v350.52m-4049.58 3149.6v-350.52m4500.88 350.52v-350.52m0-3149.6v350.52m-4500.88-350.52v350.52m4500.88 3149.6h-4500.88m4500.88-3500.12h-4500.88M15950 14400v200-100m0 5200v-250m-6100 250v-150m0-5150v150m6100 50h500m-500 5125H9850m0-5350h6100m8800-9875v-700m-1200 0v700m-2475-600v2000m2150 0V3900m300 2550v1000m1350 0V6450m-6800 13700v-1000m-1350 0v1000m-6075-8575h1000m0-1350h-1000m12475-1800v2000m-2050 0V8425m9593.78 3585.14l360.68-1470.66 279.4 1061.72 309.88-1071.88 340.36 1450.34m-2710.18-660.4l789.94 10.16 10.16-10.16v10.16m40.64 711.2v-1541.78m-889 1551.94v-1569.72l10.16 10.16m-561.34 1457.96l-350.52 81.28-320.04 10.16-238.76-200.66-30.48-269.24 241.3-241.3 388.62-129.54 180.34-160.02 40.64-299.72-231.14-220.98-320.04-27.94-350.52 109.22m-1038.86 1450.34l-248.92-20.32-241.3-241.3-88.9-490.22 27.94-347.98 200.66-320.04 251.46-121.92 309.88 71.12 218.44 180.34 71.12 459.74-50.8 408.94-109.22 281.94-360.68 129.54m619.76 1729.74l-259.08-561.34 538.48-518.16 520.7 269.24 279.4-160.02m1440.18 20.32l330.2 190.5 439.42-330.2 472.44 490.22-281.94 480.06 190.5 469.9 609.6 187.96v680.72l-558.8 139.7-200.66 571.5 269.24 469.9-469.9 510.54-518.16-261.62-469.9 200.66-170.18 541.02-690.88 17.78-210.82-548.64-419.1-170.18-551.18 269.24-518.16-528.32 248.92-541.02-170.18-480.06-548.64-99.06-10.16-701.04 558.8-200.66 139.7-398.78m2141.22 20.32l299.72 149.86 200.66 198.12 149.86 401.32v398.78l-149.86 350.52-452.12 350.52-449.58 50.8-398.78-101.6-401.32-347.98-149.86-452.12 50.8-497.84 248.92-302.26 350.52-198.12-350.52-1000.76m1051.56 1000.76l398.78-1000.76M4220 8680h5080v2540H4220m-2820 280h1550m1270-280V8680m-1270-280H1400v3100m12461.905 347.619v1000H14100l142.858-47.619 95.238-95.238 47.619-95.238 47.619-190.476v-142.858l-47.619-190.476-47.619-95.238-95.238-95.238-142.858-47.619h-238.095m904.762 1000h619.048l-333.334-380.952h142.858l95.238-47.619 47.619-47.619 47.619-95.239v-238.095l-47.619-95.238-47.619-47.619-95.238-47.619h-285.715l-95.238 47.619-47.619 47.619M9652.381 5986.905h-1000V6225L8700 6367.858l95.238 95.238 95.238 47.619 190.476 47.619h142.858l190.476-47.619 95.238-47.619 95.238-95.238L9652.381 6225v-238.095m0 1523.81v-571.429m0 285.714h-1000l142.857-95.238 95.238-95.238 47.619-95.238m5100 4508.333v-809.524l47.619-95.238 47.619-47.619 95.238-47.619h190.477l95.238 47.619 47.619 47.619 47.619 95.238v809.524m1000-1000h-571.429m285.714 0v1000l-95.238-142.857-95.238-95.238-95.238-47.619m5966.667 7340.476l-95.238 47.619-95.238 95.238-142.857 142.857-95.239 47.619h-95.238m47.619-238.095l-95.238 47.619-95.238 95.238-47.619 190.476v333.334l47.619 190.476 95.238 95.238 95.238 47.619h190.477l95.238-47.619 95.238-95.238 47.619-190.476v-333.334l-47.619-190.476-95.238-95.238-95.238-47.619h-190.477m1380.953 0h-571.429m285.714 0v1000l-95.238-142.857-95.238-95.238-95.238-47.619m-4776.19-17764.286v1000H16800l142.858-47.619 95.238-95.238 47.619-95.238 47.619-190.476V1976.19l-47.619-190.476-47.619-95.238-95.238-95.238-142.858-47.619h-238.095m952.381 904.762l47.619 47.619 95.238 47.619h238.096l95.238-47.619 47.619-47.619 47.619-95.238v-95.238l-47.619-142.857-571.429-571.429h619.048m-4780.953 19304.762l-95.238 47.619-95.238 95.238-142.857 142.857-95.239 47.619h-95.238m47.619-238.095l-95.238 47.619-95.238 95.238-47.619 190.476v333.334l47.619 190.476 95.238 95.238 95.238 47.619h190.477l95.238-47.619 95.238-95.238 47.619-190.476v-333.334l-47.619-190.476-95.238-95.238-95.238-47.619h-190.477m809.524 904.762l47.619 47.619 95.238 47.619h238.096l95.238-47.619 47.619-47.619 47.619-95.238v-95.238l-47.619-142.857-571.429-571.429h619.048m9773.81-19254.762l-47.619-47.619-142.857-47.619h-95.238l-142.858 47.619-95.238 95.238-47.619 95.238-47.619 190.476v142.858l47.619 190.476 47.619 95.238 95.238 95.238 142.858 47.619h95.238l142.857-47.619 47.619-47.619m380.952 0l47.619 47.619 95.238 47.619h238.096l95.238-47.619 47.619-47.619 47.619-95.238v-95.238l-47.619-142.857-571.429-571.429h619.048m-3252.381 0L21350 2073.81m-238.095-476.191v1000h380.953l95.238-47.619 47.619-47.619 47.619-95.238v-142.857l-47.619-95.238-47.619-47.619-95.238-47.619h-380.953m1523.81-476.191h-571.429m285.714 0v1000l-95.238-142.857-95.238-95.238-95.238-47.619m2069.048 6935.714L23800 9723.81m-238.095-476.191v1000h380.953l95.238-47.619 47.619-47.619 47.619-95.238v-142.857l-47.619-95.238-47.619-47.619-95.238-47.619h-380.953m952.381 428.571l47.619 47.619 95.238 47.619h238.096l95.238-47.619 47.619-47.619 47.619-95.238v-95.238l-47.619-142.857-571.429-571.429h619.048m-7902.381 11950L16850 21673.81m-238.095-476.191v1000h380.953l95.238-47.619 47.619-47.619 47.619-95.238v-142.857l-47.619-95.238-47.619-47.619-95.238-47.619h-380.953m904.762 523.809h619.048l-333.334-380.952h142.858l95.238-47.619 47.619-47.619 47.619-95.239v-238.095l-47.619-95.238-47.619-47.619-95.238-47.619h-285.715l-95.238 47.619-47.619 47.619m-6533.333-9245.238L10650 12523.81m-238.095-476.191v1000h380.953l95.238-47.619 47.619-47.619 47.619-95.238v-142.857l-47.619-95.238-47.619-47.619-95.238-47.619h-380.953m1428.572 190.476v-666.667m-238.096 1047.619l-238.095-714.286h619.048m7750-1588.095l-47.619-47.619-142.857-47.619h-95.238l-142.858 47.619-95.238 95.238-47.619 95.238-47.619 190.476v142.858l47.619 190.476 47.619 95.238 95.238 95.238 142.858 47.619h95.238l142.857-47.619 47.619-47.619m952.381-904.762h-571.429m285.714 0v1000l-95.238-142.857-95.238-95.238-95.238-47.619M7361.905 2100l-95.238 47.619H7123.81L6980.952 2100l-95.238-95.238-47.619-95.238-47.619-190.476V1576.19l47.619-190.476 47.619-95.238 95.238-95.238 142.858-47.619h95.238l142.857 47.619 47.619 47.619v333.333h-190.476m619.047-428.571v1000l571.429-1000v1000m476.19-1000v1000h238.095L9266.667 2100l95.238-95.238 47.619-95.238 47.619-190.476V1576.19l-47.619-190.476-47.619-95.238-95.238-95.238-142.858-47.619h-238.095m1523.81 0h-571.429m285.714 0v1000l-95.238-142.857-95.238-95.238-95.238-47.619M28561.905 8400l-95.238 47.619h-142.857L28180.952 8400l-95.238-95.238-47.619-95.238-47.619-190.476V7876.19l47.619-190.476 47.619-95.238 95.238-95.238 142.858-47.619h95.238l142.857 47.619 47.619 47.619v333.333h-190.476m619.047-428.571v1000l571.429-1000v1000m476.19-1000v1000h238.095l142.858-47.619 95.238-95.238 47.619-95.238 47.619-190.476V7876.19l-47.619-190.476-47.619-95.238-95.238-95.238-142.858-47.619h-238.095m952.381 904.762l47.619 47.619 95.238 47.619h238.096l95.238-47.619 47.619-47.619 47.619-95.238v-95.238l-47.619-142.857-571.429-571.429h619.048M6900 22847.619v1000m476.19-1000v1000l571.429-1000v1000m1000-1000H8376.19m285.714 0v1000l-95.238-142.857-95.238-95.238-95.238-47.619m15747.619 385.714h190.477l95.238-47.619 95.238-95.238 47.619-190.476v-333.334l-47.619-190.476-95.238-95.238-95.238-47.619h-190.477l-95.238 47.619-95.238 95.238-47.619 190.476v333.334l47.619 190.476 95.238 95.238 95.238 47.619m857.143 0v-809.524l47.619-95.238 47.619-47.619 95.238-47.619h190.477l95.238 47.619 47.619 47.619 47.619 95.238v809.524m333.333 0h571.429m-285.715-1000v1000m1142.858-1000h-571.429m285.714 0v1000l-95.238-142.857-95.238-95.238-95.238-47.619M1311.905 11897.619v1000h380.953l95.238-47.619 47.619-47.619 47.619-95.238v-142.857l-47.619-95.238-47.619-47.619-95.238-47.619h-380.953m1523.81-476.191h-571.429m285.714 0v1000l-95.238-142.857-95.238-95.238-95.238-47.619"/></g><g id="pcb-stackup_top_drl1"><use x="1700" y="17200" xlink:href="#Byu53x63kZ_pad-1"/><use x="1900" y="13470" xlink:href="#Byu53x63kZ_pad-1"/><use x="1900" y="7500" xlink:href="#Byu53x63kZ_pad-1"/><use x="3200" y="14800" xlink:href="#Byu53x63kZ_pad-1"/><use x="4800" y="12300" xlink:href="#Byu53x63kZ_pad-1"/><use x="5100" y="17000" xlink:href="#Byu53x63kZ_pad-1"/><use x="6000" y="14600" xlink:href="#Byu53x63kZ_pad-1"/><use x="6500" y="7600" xlink:href="#Byu53x63kZ_pad-1"/><use x="7600" y="12300" xlink:href="#Byu53x63kZ_pad-1"/><use x="7800" y="2800" xlink:href="#Byu53x63kZ_pad-1"/><use x="8700" y="19300" xlink:href="#Byu53x63kZ_pad-1"/><use x="8700" y="17400" xlink:href="#Byu53x63kZ_pad-1"/><use x="8700" y="15500" xlink:href="#Byu53x63kZ_pad-1"/><use x="9300" y="23000" xlink:href="#Byu53x63kZ_pad-1"/><use x="9300" y="5100" xlink:href="#Byu53x63kZ_pad-1"/><use x="9500" y="13600" xlink:href="#Byu53x63kZ_pad-1"/><use x="10200" y="20500" xlink:href="#Byu53x63kZ_pad-1"/><use x="11200" y="1800" xlink:href="#Byu53x63kZ_pad-1"/><use x="11700" y="13600" xlink:href="#Byu53x63kZ_pad-1"/><use x="12200" y="20600" xlink:href="#Byu53x63kZ_pad-1"/><use x="12900" y="23000" xlink:href="#Byu53x63kZ_pad-1"/><use x="12900" y="11400" xlink:href="#Byu53x63kZ_pad-1"/><use x="13800" y="13600" xlink:href="#Byu53x63kZ_pad-1"/><use x="14600" y="20500" xlink:href="#Byu53x63kZ_pad-1"/><use x="15500" y="2000" xlink:href="#Byu53x63kZ_pad-1"/><use x="15800" y="23000" xlink:href="#Byu53x63kZ_pad-1"/><use x="16200" y="13300" xlink:href="#Byu53x63kZ_pad-1"/><use x="17000" y="16900" xlink:href="#Byu53x63kZ_pad-1"/><use x="17000" y="15200" xlink:href="#Byu53x63kZ_pad-1"/><use x="18300" y="9600" xlink:href="#Byu53x63kZ_pad-1"/><use x="18500" y="23000" xlink:href="#Byu53x63kZ_pad-1"/><use x="18600" y="19650" xlink:href="#Byu53x63kZ_pad-1"/><use x="20100" y="20800" xlink:href="#Byu53x63kZ_pad-1"/><use x="20200" y="18500" xlink:href="#Byu53x63kZ_pad-1"/><use x="20300" y="2000" xlink:href="#Byu53x63kZ_pad-1"/><use x="20400" y="12200" xlink:href="#Byu53x63kZ_pad-1"/><use x="22000" y="23200" xlink:href="#Byu53x63kZ_pad-1"/><use x="22200" y="18500" xlink:href="#Byu53x63kZ_pad-1"/><use x="22300" y="12200" xlink:href="#Byu53x63kZ_pad-1"/><use x="23100" y="20900" xlink:href="#Byu53x63kZ_pad-1"/><use x="24000" y="18500" xlink:href="#Byu53x63kZ_pad-1"/><use x="24100" y="12200" xlink:href="#Byu53x63kZ_pad-1"/><use x="24200" y="8600" xlink:href="#Byu53x63kZ_pad-1"/><use x="25100" y="17100" xlink:href="#Byu53x63kZ_pad-1"/><use x="25400" y="13500" xlink:href="#Byu53x63kZ_pad-1"/><use x="25500" y="22400" xlink:href="#Byu53x63kZ_pad-1"/><use x="25500" y="15400" xlink:href="#Byu53x63kZ_pad-1"/><use x="25500" y="10600" xlink:href="#Byu53x63kZ_pad-1"/><use x="25800" y="2200" xlink:href="#Byu53x63kZ_pad-1"/><use x="26000" y="20100" xlink:href="#Byu53x63kZ_pad-1"/><use x="26400" y="7000" xlink:href="#Byu53x63kZ_pad-1"/><use x="26800" y="9200" xlink:href="#Byu53x63kZ_pad-1"/><use x="27600" y="17900" xlink:href="#Byu53x63kZ_pad-1"/><use x="27800" y="15800" xlink:href="#Byu53x63kZ_pad-1"/><use x="27900" y="13500" xlink:href="#Byu53x63kZ_pad-1"/><use x="28700" y="11400" xlink:href="#Byu53x63kZ_pad-1"/><use x="29600" y="9200" xlink:href="#Byu53x63kZ_pad-1"/><use x="30200" y="15900" xlink:href="#Byu53x63kZ_pad-1"/><use x="32100" y="17700" xlink:href="#Byu53x63kZ_pad-1"/><use x="32100" y="9200" xlink:href="#Byu53x63kZ_pad-1"/><use x="32300" y="14300" xlink:href="#Byu53x63kZ_pad-1"/><use x="32300" y="11500" xlink:href="#Byu53x63kZ_pad-1"/><use x="32300" y="7200" xlink:href="#Byu53x63kZ_pad-1"/><use x="2950" y="9950" xlink:href="#Byu53x63kZ_pad-2"/><use x="5490" y="9950" xlink:href="#Byu53x63kZ_pad-2"/><use x="8030" y="9950" xlink:href="#Byu53x63kZ_pad-2"/><use x="4100" y="20900" xlink:href="#Byu53x63kZ_pad-3"/><use x="4100" y="4100" xlink:href="#Byu53x63kZ_pad-3"/><use x="29900" y="20900" xlink:href="#Byu53x63kZ_pad-3"/><use x="29900" y="4100" xlink:href="#Byu53x63kZ_pad-3"/></g><clipPath id="pcb-stackup_top_out"><path fill="none" stroke-width="150" d="M0 25000h34000V0H0v25000"/></clipPath><mask id="pcb-stackup_top_mech-mask"><g stroke="#000"><path fill="#fff" d="M0 0h34000v25000H0z"/><use xlink:href="#pcb-stackup_top_drl1"/></g></mask><mask id="pcb-stackup_top_cf-mask"><g fill="#fff" stroke="#fff"><use xlink:href="#pcb-stackup_top_sm"/></g></mask><mask id="pcb-stackup_top_sm-mask"><g stroke="#000"><path fill="#fff" d="M0 0h34000v25000H0z"/><use xlink:href="#pcb-stackup_top_sm"/></g></mask></defs><g><g mask="url(#pcb-stackup_top_mech-mask)" clip-path="url(#pcb-stackup_top_out)" transform="matrix(1 0 0 -1 0 25000)"><path fill="currentColor" d="M0 0h34000v25000H0z" class="pcb-stackup_fr4"/><use fill="currentColor" stroke="currentColor" xlink:href="#pcb-stackup_top_cu" class="pcb-stackup_cu"/><use fill="currentColor" stroke="currentColor" xlink:href="#pcb-stackup_top_cu" class="pcb-stackup_cf" mask="url(#pcb-stackup_top_cf-mask)"/><g mask="url(#pcb-stackup_top_sm-mask)"><path fill="currentColor" d="M0 0h34000v25000H0z" class="pcb-stackup_sm"/><use fill="currentColor" stroke="currentColor" xlink:href="#pcb-stackup_top_ss" class="pcb-stackup_ss"/></g><use fill="currentColor" stroke="currentColor" xlink:href="#pcb-stackup_top_sp" class="pcb-stackup_sp"/></g></g></svg>