<svg xmlns="http://www.w3.org/2000/svg" id="pcb-stackup_bottom" fill-rule="evenodd" stroke-width="0" stroke-linecap="round" stroke-linejoin="round" xmlns:xlink="http://www.w3.org/1999/xlink" clip-rule="evenodd" viewBox="5486 4996 26035 15875"><defs><style>.pcb-stackup_fr4 {color: #4D542C;} .pcb-stackup_cu {color: lightgrey;} .pcb-stackup_cf {color: goldenrod;} .pcb-stackup_sm {color: #2E0051; opacity: 0.9;} .pcb-stackup_ss {color: white;} .pcb-stackup_sp {color: #000000; opacity: 0;} .pcb-stackup_out {color: black;}</style><circle id="rkeNg-6nJ-_pad-10" r="940"/><circle id="rkeNg-6nJ-_pad-12" r="508"/><circle id="rkeNg-6nJ-_pad-10" r="940"/><circle id="rkeNg-6nJ-_pad-12" r="508"/><circle id="rkeNg-6nJ-_pad-10" r="940"/><circle id="rkeNg-6nJ-_pad-12" r="508"/><circle id="rkeNg-6nJ-_pad-10" r="940"/><circle id="rkeNg-6nJ-_pad-12" r="508"/><circle id="ByMEe-63yZ_pad-10" r="1101.5"/><circle id="ByMEe-63yZ_pad-11" r="1041.5"/><circle id="ByMEe-63yZ_pad-12" r="609.5"/><circle id="rkeNg-6nJ-_pad-10" r="940"/><circle id="rkeNg-6nJ-_pad-12" r="508"/><circle id="rkeNg-6nJ-_pad-10" r="940"/><circle id="rkeNg-6nJ-_pad-12" r="508"/><circle id="rkeNg-6nJ-_pad-10" r="940"/><circle id="rkeNg-6nJ-_pad-12" r="508"/><circle id="rkeNg-6nJ-_pad-10" r="940"/><circle id="rkeNg-6nJ-_pad-12" r="508"/><circle id="ByMEe-63yZ_pad-10" r="1101.5"/><circle id="ByMEe-63yZ_pad-11" r="1041.5"/><circle id="ByMEe-63yZ_pad-12" r="609.5"/><circle id="HJmExb6hyZ_pad-1" r="304.8"/><circle id="HJmExb6hyZ_pad-2" r="508"/><circle id="HJmExb6hyZ_pad-3" r="1000"/><circle id="rkeNg-6nJ-_pad-10" r="940"/><circle id="rkeNg-6nJ-_pad-12" r="508"/><circle id="rkeNg-6nJ-_pad-10" r="940"/><circle id="rkeNg-6nJ-_pad-12" r="508"/><circle id="rkeNg-6nJ-_pad-10" r="940"/><circle id="rkeNg-6nJ-_pad-12" r="508"/><circle id="rkeNg-6nJ-_pad-10" r="940"/><circle id="rkeNg-6nJ-_pad-12" r="508"/><circle id="ByMEe-63yZ_pad-10" r="1101.5"/><circle id="ByMEe-63yZ_pad-11" r="1041.5"/><circle id="ByMEe-63yZ_pad-12" r="609.5"/><circle id="rkeNg-6nJ-_pad-10" r="940"/><circle id="rkeNg-6nJ-_pad-12" r="508"/><circle id="rkeNg-6nJ-_pad-10" r="940"/><circle id="rkeNg-6nJ-_pad-12" r="508"/><circle id="rkeNg-6nJ-_pad-10" r="940"/><circle id="rkeNg-6nJ-_pad-12" r="508"/><circle id="rkeNg-6nJ-_pad-10" r="940"/><circle id="rkeNg-6nJ-_pad-12" r="508"/><circle id="ByMEe-63yZ_pad-10" r="1101.5"/><circle id="ByMEe-63yZ_pad-11" r="1041.5"/><circle id="ByMEe-63yZ_pad-12" r="609.5"/><circle id="HJmExb6hyZ_pad-1" r="304.8"/><circle id="HJmExb6hyZ_pad-2" r="508"/><circle id="HJmExb6hyZ_pad-3" r="1000"/><circle id="rkeNg-6nJ-_pad-10" r="940"/><circle id="rkeNg-6nJ-_pad-12" r="508"/><circle id="rkeNg-6nJ-_pad-10" r="940"/><circle id="rkeNg-6nJ-_pad-12" r="508"/><circle id="rkeNg-6nJ-_pad-10" r="940"/><circle id="rkeNg-6nJ-_pad-12" r="508"/><circle id="rkeNg-6nJ-_pad-10" r="940"/><circle id="rkeNg-6nJ-_pad-12" r="508"/><circle id="ByMEe-63yZ_pad-10" r="1101.5"/><circle id="ByMEe-63yZ_pad-11" r="1041.5"/><circle id="ByMEe-63yZ_pad-12" r="609.5"/><circle id="rkeNg-6nJ-_pad-10" r="940"/><circle id="rkeNg-6nJ-_pad-12" r="508"/><circle id="rkeNg-6nJ-_pad-10" r="940"/><circle id="rkeNg-6nJ-_pad-12" r="508"/><circle id="rkeNg-6nJ-_pad-10" r="940"/><circle id="rkeNg-6nJ-_pad-12" r="508"/><circle id="rkeNg-6nJ-_pad-10" r="940"/><circle id="rkeNg-6nJ-_pad-12" r="508"/><circle id="ByMEe-63yZ_pad-10" r="1101.5"/><circle id="ByMEe-63yZ_pad-11" r="1041.5"/><circle id="ByMEe-63yZ_pad-12" r="609.5"/><circle id="HJmExb6hyZ_pad-1" r="304.8"/><circle id="HJmExb6hyZ_pad-2" r="508"/><circle id="HJmExb6hyZ_pad-3" r="1000"/><circle id="rkeNg-6nJ-_pad-10" r="940"/><circle id="rkeNg-6nJ-_pad-12" r="508"/><circle id="rkeNg-6nJ-_pad-10" r="940"/><circle id="rkeNg-6nJ-_pad-12" r="508"/><circle id="rkeNg-6nJ-_pad-10" r="940"/><circle id="rkeNg-6nJ-_pad-12" r="508"/><circle id="rkeNg-6nJ-_pad-10" r="940"/><circle id="rkeNg-6nJ-_pad-12" r="508"/><circle id="ByMEe-63yZ_pad-10" r="1101.5"/><circle id="ByMEe-63yZ_pad-11" r="1041.5"/><circle id="ByMEe-63yZ_pad-12" r="609.5"/><circle id="rkeNg-6nJ-_pad-10" r="940"/><circle id="rkeNg-6nJ-_pad-12" r="508"/><circle id="rkeNg-6nJ-_pad-10" r="940"/><circle id="rkeNg-6nJ-_pad-12" r="508"/><circle id="rkeNg-6nJ-_pad-10" r="940"/><circle id="rkeNg-6nJ-_pad-12" r="508"/><circle id="rkeNg-6nJ-_pad-10" r="940"/><circle id="rkeNg-6nJ-_pad-12" r="508"/><circle id="ByMEe-63yZ_pad-10" r="1101.5"/><circle id="ByMEe-63yZ_pad-11" r="1041.5"/><circle id="ByMEe-63yZ_pad-12" r="609.5"/><circle id="HJmExb6hyZ_pad-1" r="304.8"/><circle id="HJmExb6hyZ_pad-2" r="508"/><circle id="HJmExb6hyZ_pad-3" r="1000"/><g id="pcb-stackup_bottom_cu"><use x="28981" y="10711" xlink:href="#rkeNg-6nJ-_pad-10"/><use x="26441" y="10711" xlink:href="#rkeNg-6nJ-_pad-10"/><use x="28981" y="13251" xlink:href="#rkeNg-6nJ-_pad-10"/><use x="26441" y="13251" xlink:href="#rkeNg-6nJ-_pad-10"/><use x="28981" y="15791" xlink:href="#rkeNg-6nJ-_pad-10"/><use x="26441" y="15791" xlink:href="#rkeNg-6nJ-_pad-10"/><use x="9296" y="6901" xlink:href="#rkeNg-6nJ-_pad-10"/><use x="11836" y="6901" xlink:href="#rkeNg-6nJ-_pad-10"/><use x="14376" y="6901" xlink:href="#rkeNg-6nJ-_pad-10"/><use x="16916" y="6901" xlink:href="#rkeNg-6nJ-_pad-10"/><use x="9931" y="18966" xlink:href="#rkeNg-6nJ-_pad-10"/><use x="12471" y="18966" xlink:href="#rkeNg-6nJ-_pad-10"/><use x="15011" y="18966" xlink:href="#rkeNg-6nJ-_pad-10"/><use x="17551" y="18966" xlink:href="#rkeNg-6nJ-_pad-10"/><path fill="none" stroke-width="254" d="M15494 17239h6858l3886-3886 203-102m-4318 2159l3429-3429h2286l1143-1143v-127m-16459 8128l3429-3429h6172m-9601 3429l-51 127m2566-127h686l1143-1143h2514l686 686m-5029 457l-26 127m-4318-7899h2058l4165-4166m635 4166h8459l228-229 203-127M9322 6952v4115l914 914h6401l914-914M9322 6952l-26-51"/><use x="15494" y="17239" xlink:href="#rkeNg-6nJ-_pad-12"/><use x="22123" y="15410" xlink:href="#rkeNg-6nJ-_pad-12"/><use x="20066" y="18382" xlink:href="#rkeNg-6nJ-_pad-12"/><use x="10693" y="11067" xlink:href="#rkeNg-6nJ-_pad-12"/><use x="17551" y="11067" xlink:href="#rkeNg-6nJ-_pad-12"/><path fill="none" stroke-width="305" d="M12551 10584l3174-3174-79-190-171 415-365 365-476 197h-515l-476-197-365-365-148-358-46 141-96 189-125 171-150 150-171 125-189 96-201 65-210 34h-4V7003h-203v1245h-5l-209-34-201-65-189-96-172-125-149-150-125-171-96-189-46-141-148 358-365 365-226 93v2774l27 26 130-315 243-243 318-132h343l318 132 243 243 2 6h1123m6099 7649l197 476v515l-135 327h6526v-576l151-364-116-279v-754l182-439 93-93 139-139-123-89-149-150-125-171-96-189-66-201-33-210v-4h1245v-203h-1245v-5l33-209 66-201 96-189 125-172 149-149 172-125 189-96 141-46-205-85-3309 3309h-1925l171 171 132 317v344l-132 317-243 243-317 132h-344l-317-132-243-243-132-317v-344l3-6-25-25h-584l54 54M11938 7064h-203m-1163 303h-66m1229 0h203m1163 0h66m2419 0h121m-4976 303h-372m1376 0h203m1004 0h371m2126 0h26m-4443 304h-966m1679 0h203m713 0h966m1519 0h26m-304 303H9804m0 303h4751m-303 304H9804m0 303h4144m-303 303H9804m0 304h3538m-304 303H9804m0 303h335m1109 0h1487m-2826 303h-105m15823 3943h100m-338 304h-65m-119 303h-184m95 303h-399m-303 303h1926m-1193 304h-1036m-303 303h1466m242 303h-2012m-303 304h2320m-165 303h-2458m-304 303h2679m0 304h-4438m-1633 303h-530m2258 0h4343m-6056 303h-420m2118 0h4464m-6024 304h-508m1930 0h4495m-5498 303h-927m1511 0h4880m0 303h-6505"/></g><g id="pcb-stackup_bottom_ss"><path fill="none" stroke-width="152" d="M26330 18262v-1483l-296-296h-594l-296 296v1483m-591 0v-1779h-890l-297 296v1187l297 296h890m-1778 0l-1186-1779m1186 0l-1186 1779m-1778-296l297 296h593l297-296v-297l-297-297h-593l-297-296v-297l297-296h593l297 296"/><path fill="none" stroke-width="203" d="M23305 13508v1559l-780 780-779-780v-1559m0 1169h1559m-2339 390v-1559m0 780l-780 779h-389m-2339 780v-2339h1169l390 390v779l-390 390h-1169m-780 0v-1169l-390-390h-1169v1559m-780 0h-389v-1559m389 0h-779m390 2339v390m-1560-780v-1559l-389-390m0 1559h779m-1559-1559h-1169l-390 390 390 390h779l390 389-390 390H9662m-780 0v-1169l-390-390H7323m0 1559v-1949l390-390h390m22483-1382v-1270"/><path fill="none" stroke-width="76" d="M19368 11444v941h-470l-157-157v-313l157-157h470m-313 0l-314-314m-779 0h314l157 157v314l-157 157h-314l-156-157v-157h627m-936 314l-313-628-314 628m-308 0h-157v-628m157 0h-314m157 941v157m-467-1098h-470l-157 157 157 157h313l157 157-157 157h-470m-308 0h-157v-628m157 0h-314m157 941v157m-624-1098h-313l-157 157v314l157 157h313l157-157v-314l-157-157m-779 0v628h-470l-157-157v-471m-1714 0v941l470-470h-627m9423-1530v-940h-470l-157 156v627l157 157h470m-935-940v156h-157v-156h157m-1403 0v940l-314-313-314 313v-940m-465 627h-313l-157-157v-470h470l157 156-157 157h-470m-309-313v627m0-314l-313 314h-157m-309 313v-940m-470 0l470 313-470 314m-466 0h-314l-157-157v-470h471l156 156-156 157h-471m-308-313v627m0-314l-314 314h-157m-309 0h-157v-627m-156 0h313m-157 940v157m-623-470h-314l-157-157v-470h471l156 156-156 157h-471m-308-313v627h-470l-157-157v-470m7670 7627v-471l-156-156h-471v627m-935 313v-940h470l157 156v314l-157 157h-470m-309 0l-627-627m627 0l-627 627m-308-627h-471l-156 156 156 157h314l157 157-157 157h-470m-309-627v156h-157v-156h157m-468 0v627h-156l-157-157v-470m0 470l-157 157-157-157v-470m-778 0h313l157 156v314l-157 157h-313l-157-157v-157h627"/></g><g id="pcb-stackup_bottom_sm"><use x="27406" y="19406" xlink:href="#ByMEe-63yZ_pad-10"/><use x="27406" y="7406" xlink:href="#ByMEe-63yZ_pad-10"/><use x="28981" y="10711" xlink:href="#ByMEe-63yZ_pad-11"/><use x="26441" y="10711" xlink:href="#ByMEe-63yZ_pad-11"/><use x="28981" y="13251" xlink:href="#ByMEe-63yZ_pad-11"/><use x="26441" y="13251" xlink:href="#ByMEe-63yZ_pad-11"/><use x="28981" y="15791" xlink:href="#ByMEe-63yZ_pad-11"/><use x="26441" y="15791" xlink:href="#ByMEe-63yZ_pad-11"/><use x="9296" y="6901" xlink:href="#ByMEe-63yZ_pad-11"/><use x="11836" y="6901" xlink:href="#ByMEe-63yZ_pad-11"/><use x="14376" y="6901" xlink:href="#ByMEe-63yZ_pad-11"/><use x="16916" y="6901" xlink:href="#ByMEe-63yZ_pad-11"/><use x="9931" y="18966" xlink:href="#ByMEe-63yZ_pad-11"/><use x="12471" y="18966" xlink:href="#ByMEe-63yZ_pad-11"/><use x="15011" y="18966" xlink:href="#ByMEe-63yZ_pad-11"/><use x="17551" y="18966" xlink:href="#ByMEe-63yZ_pad-11"/><use x="15494" y="17239" xlink:href="#ByMEe-63yZ_pad-12"/><use x="22123" y="15410" xlink:href="#ByMEe-63yZ_pad-12"/><use x="20066" y="18382" xlink:href="#ByMEe-63yZ_pad-12"/><use x="10693" y="11067" xlink:href="#ByMEe-63yZ_pad-12"/><use x="17551" y="11067" xlink:href="#ByMEe-63yZ_pad-12"/></g><g id="pcb-stackup_bottom_drl1"><use x="15494" y="17239" xlink:href="#HJmExb6hyZ_pad-1"/><use x="22123" y="15410" xlink:href="#HJmExb6hyZ_pad-1"/><use x="20066" y="18382" xlink:href="#HJmExb6hyZ_pad-1"/><use x="10693" y="11067" xlink:href="#HJmExb6hyZ_pad-1"/><use x="17551" y="11067" xlink:href="#HJmExb6hyZ_pad-1"/><use x="28981" y="10711" xlink:href="#HJmExb6hyZ_pad-2"/><use x="26441" y="10711" xlink:href="#HJmExb6hyZ_pad-2"/><use x="28981" y="13251" xlink:href="#HJmExb6hyZ_pad-2"/><use x="26441" y="13251" xlink:href="#HJmExb6hyZ_pad-2"/><use x="28981" y="15791" xlink:href="#HJmExb6hyZ_pad-2"/><use x="26441" y="15791" xlink:href="#HJmExb6hyZ_pad-2"/><use x="9296" y="6901" xlink:href="#HJmExb6hyZ_pad-2"/><use x="11836" y="6901" xlink:href="#HJmExb6hyZ_pad-2"/><use x="14376" y="6901" xlink:href="#HJmExb6hyZ_pad-2"/><use x="16916" y="6901" xlink:href="#HJmExb6hyZ_pad-2"/><use x="9931" y="18966" xlink:href="#HJmExb6hyZ_pad-2"/><use x="12471" y="18966" xlink:href="#HJmExb6hyZ_pad-2"/><use x="15011" y="18966" xlink:href="#HJmExb6hyZ_pad-2"/><use x="17551" y="18966" xlink:href="#HJmExb6hyZ_pad-2"/><use x="27406" y="19406" xlink:href="#HJmExb6hyZ_pad-3"/><use x="27406" y="7406" xlink:href="#HJmExb6hyZ_pad-3"/></g><clipPath id="pcb-stackup_bottom_out"><path fill="none" stroke-width="305" d="M5486 18331l2540 2540h20955l2540-2540v-7620l-2-150-6-149-10-149-13-149-18-149-21-148-26-147-29-147-33-146-37-145-40-144-45-143-48-142-52-140-55-139-59-137-63-136-66-135-70-132-73-130-76-129-80-127-83-124-86-122-90-120-93-118-95-115-99-112-101-110-105-107-107-105-110-101-112-99-115-95-118-93-120-90-122-86-124-83-127-80-128-76-131-73-132-70-135-66-136-63-137-59-139-55-140-52-142-48-143-45-144-40-145-37-146-33-147-29-147-26-148-21-149-18-149-13-149-10-149-6-150-2H5486v13335m20981-236v-280l93-93h280v373m561 186v-559h-280l-93 93v186l93 94h280m188 0l373-373m-373 0l373 373m189-373h279l94 93-94 93h-186l-93 93 93 94h280m188-373v93h93v-93h-93m281 0v373h93l93-94v-279m0 279l93 94 94-94v-279m468 0h-187l-93 93v186l93 94h187l93-94v-93h-373m-3148 1498l2 63 6 62 10 62 13 62 18 60 21 59 25 58 29 56 32 54 35 52 38 49 42 48 44 44 48 42 49 38 52 35 54 32 56 29 58 25 59 21 60 18 62 13 62 10 62 6 63 2 63-2 62-6 62-10 62-13 60-18 59-21 58-25 56-29 54-32 52-35 49-38 48-42 44-44 42-48 38-49 35-52 32-54 29-56 25-58 21-59 18-60 13-62 10-62 6-62 2-63-2-63-6-62-10-62-13-62-18-60-21-59-25-58-29-56-32-54-35-52-38-49-42-48-44-44-48-42-49-38-52-35-54-32-56-29-58-25-59-21-60-18-62-13-62-10-62-6-63-2-63 2-62 6-62 10-62 13-60 18-59 21-58 25-56 29-54 32-52 35-49 38-48 42-44 44-42 48-38 49-35 52-32 54-29 56-25 58-21 59-18 60-13 62-10 62-6 62-2 63m0-12000l2 63 6 62 10 62 13 62 18 60 21 59 25 58 29 56 32 54 35 52 38 49 42 48 44 44 48 42 49 38 52 35 54 32 56 29 58 25 59 21 60 18 62 13 62 10 62 6 63 2 63-2 62-6 62-10 62-13 60-18 59-21 58-25 56-29 54-32 52-35 49-38 48-42 44-44 42-48 38-49 35-52 32-54 29-56 25-58 21-59 18-60 13-62 10-62 6-62 2-63-2-63-6-62-10-62-13-62-18-60-21-59-25-58-29-56-32-54-35-52-38-49-42-48-44-44-48-42-49-38-52-35-54-32-56-29-58-25-59-21-60-18-62-13-62-10-62-6-63-2-63 2-62 6-62 10-62 13-60 18-59 21-58 25-56 29-54 32-52 35-49 38-48 42-44 44-42 48-38 49-35 52-32 54-29 56-25 58-21 59-18 60-13 62-10 62-6 62-2 63"/></clipPath><mask id="pcb-stackup_bottom_mech-mask"><g stroke="#000"><path fill="#fff" d="M5486 4996h26035v15875H5486z"/><use xlink:href="#pcb-stackup_bottom_drl1"/><use xlink:href="#pcb-stackup_bottom_drl2"/></g></mask><mask id="pcb-stackup_bottom_cf-mask"><g fill="#fff" stroke="#fff"><use xlink:href="#pcb-stackup_bottom_sm"/></g></mask><mask id="pcb-stackup_bottom_sm-mask"><g stroke="#000"><path fill="#fff" d="M5486 4996h26035v15875H5486z"/><use xlink:href="#pcb-stackup_bottom_sm"/></g></mask></defs><g><g mask="url(#pcb-stackup_bottom_mech-mask)" clip-path="url(#pcb-stackup_bottom_out)" transform="rotate(180 18503.5 12933.5)"><path fill="currentColor" d="M5486 4996h26035v15875H5486z" class="pcb-stackup_fr4"/><use fill="currentColor" stroke="currentColor" xlink:href="#pcb-stackup_bottom_cu" class="pcb-stackup_cu"/><use fill="currentColor" stroke="currentColor" xlink:href="#pcb-stackup_bottom_cu" class="pcb-stackup_cf" mask="url(#pcb-stackup_bottom_cf-mask)"/><g mask="url(#pcb-stackup_bottom_sm-mask)"><path fill="currentColor" d="M5486 4996h26035v15875H5486z" class="pcb-stackup_sm"/><use fill="currentColor" stroke="currentColor" xlink:href="#pcb-stackup_bottom_ss" class="pcb-stackup_ss"/></g></g></g></svg>