<svg xmlns="http://www.w3.org/2000/svg" id="pcb-stackup_top" fill-rule="evenodd" stroke-width="0" stroke-linecap="round" stroke-linejoin="round" xmlns:xlink="http://www.w3.org/1999/xlink" clip-rule="evenodd" viewBox="5486 4996 26035 15875"><defs><style>.pcb-stackup_fr4 {color: #4D542C;} .pcb-stackup_cu {color: lightgrey;} .pcb-stackup_cf {color: goldenrod;} .pcb-stackup_sm {color: #2E0051; opacity: 0.9;} .pcb-stackup_ss {color: white;} .pcb-stackup_sp {color: #000000; opacity: 0;} .pcb-stackup_out {color: black;}</style><path id="ryEEebThkW_pad-10" d="M-1600-600h3200V600h-3200z"/><path id="ryEEebThkW_pad-11" d="M-724-559H724V559H-724z"/><circle id="ryEEebThkW_pad-12" r="940"/><path id="ryEEebThkW_pad-13" d="M-600-600H600V600H-600z"/><path id="ryEEebThkW_pad-14" d="M-266.5-774.5h533v1549h-533z"/><path id="ryEEebThkW_pad-15" d="M-508-698.5H508v1397H-508z"/><circle id="ryEEebThkW_pad-17" r="508"/><path id="ryEEebThkW_pad-10" d="M-1600-600h3200V600h-3200z"/><path id="ryEEebThkW_pad-11" d="M-724-559H724V559H-724z"/><circle id="ryEEebThkW_pad-12" r="940"/><path id="ryEEebThkW_pad-13" d="M-600-600H600V600H-600z"/><path id="ryEEebThkW_pad-14" d="M-266.5-774.5h533v1549h-533z"/><path id="ryEEebThkW_pad-15" d="M-508-698.5H508v1397H-508z"/><circle id="ryEEebThkW_pad-17" r="508"/><path id="HJHNlZphkZ_pad-13" d="M-100-100h200v200h-200z"/><path id="ryEEebThkW_pad-10" d="M-1600-600h3200V600h-3200z"/><path id="ryEEebThkW_pad-11" d="M-724-559H724V559H-724z"/><circle id="ryEEebThkW_pad-12" r="940"/><path id="ryEEebThkW_pad-13" d="M-600-600H600V600H-600z"/><path id="ryEEebThkW_pad-14" d="M-266.5-774.5h533v1549h-533z"/><path id="ryEEebThkW_pad-15" d="M-508-698.5H508v1397H-508z"/><circle id="ryEEebThkW_pad-17" r="508"/><path id="ryEEebThkW_pad-10" d="M-1600-600h3200V600h-3200z"/><path id="ryEEebThkW_pad-11" d="M-724-559H724V559H-724z"/><circle id="ryEEebThkW_pad-12" r="940"/><path id="ryEEebThkW_pad-13" d="M-600-600H600V600H-600z"/><path id="ryEEebThkW_pad-14" d="M-266.5-774.5h533v1549h-533z"/><path id="ryEEebThkW_pad-15" d="M-508-698.5H508v1397H-508z"/><circle id="ryEEebThkW_pad-17" r="508"/><path id="HJHNlZphkZ_pad-13" d="M-100-100h200v200h-200z"/><circle id="SyL4lbT3JW_pad-10" r="1101.5"/><path id="SyL4lbT3JW_pad-11" d="M-1701.5-701.5h3403v1403h-3403z"/><path id="SyL4lbT3JW_pad-12" d="M-825.5-660.5h1651v1321h-1651z"/><circle id="SyL4lbT3JW_pad-13" r="1041.5"/><path id="SyL4lbT3JW_pad-14" d="M-701.5-701.5h1403v1403h-1403z"/><path id="SyL4lbT3JW_pad-15" d="M-368.5-876.5h737v1753h-737z"/><path id="SyL4lbT3JW_pad-16" d="M-609.5-800h1219V800h-1219z"/><circle id="SyL4lbT3JW_pad-17" r="609.5"/><path id="ryEEebThkW_pad-10" d="M-1600-600h3200V600h-3200z"/><path id="ryEEebThkW_pad-11" d="M-724-559H724V559H-724z"/><circle id="ryEEebThkW_pad-12" r="940"/><path id="ryEEebThkW_pad-13" d="M-600-600H600V600H-600z"/><path id="ryEEebThkW_pad-14" d="M-266.5-774.5h533v1549h-533z"/><path id="ryEEebThkW_pad-15" d="M-508-698.5H508v1397H-508z"/><circle id="ryEEebThkW_pad-17" r="508"/><path id="ryEEebThkW_pad-10" d="M-1600-600h3200V600h-3200z"/><path id="ryEEebThkW_pad-11" d="M-724-559H724V559H-724z"/><circle id="ryEEebThkW_pad-12" r="940"/><path id="ryEEebThkW_pad-13" d="M-600-600H600V600H-600z"/><path id="ryEEebThkW_pad-14" d="M-266.5-774.5h533v1549h-533z"/><path id="ryEEebThkW_pad-15" d="M-508-698.5H508v1397H-508z"/><circle id="ryEEebThkW_pad-17" r="508"/><path id="HJHNlZphkZ_pad-13" d="M-100-100h200v200h-200z"/><path id="ryEEebThkW_pad-10" d="M-1600-600h3200V600h-3200z"/><path id="ryEEebThkW_pad-11" d="M-724-559H724V559H-724z"/><circle id="ryEEebThkW_pad-12" r="940"/><path id="ryEEebThkW_pad-13" d="M-600-600H600V600H-600z"/><path id="ryEEebThkW_pad-14" d="M-266.5-774.5h533v1549h-533z"/><path id="ryEEebThkW_pad-15" d="M-508-698.5H508v1397H-508z"/><circle id="ryEEebThkW_pad-17" r="508"/><path id="ryEEebThkW_pad-10" d="M-1600-600h3200V600h-3200z"/><path id="ryEEebThkW_pad-11" d="M-724-559H724V559H-724z"/><circle id="ryEEebThkW_pad-12" r="940"/><path id="ryEEebThkW_pad-13" d="M-600-600H600V600H-600z"/><path id="ryEEebThkW_pad-14" d="M-266.5-774.5h533v1549h-533z"/><path id="ryEEebThkW_pad-15" d="M-508-698.5H508v1397H-508z"/><circle id="ryEEebThkW_pad-17" r="508"/><path id="HJHNlZphkZ_pad-13" d="M-100-100h200v200h-200z"/><circle id="SyL4lbT3JW_pad-10" r="1101.5"/><path id="SyL4lbT3JW_pad-11" d="M-1701.5-701.5h3403v1403h-3403z"/><path id="SyL4lbT3JW_pad-12" d="M-825.5-660.5h1651v1321h-1651z"/><circle id="SyL4lbT3JW_pad-13" r="1041.5"/><path id="SyL4lbT3JW_pad-14" d="M-701.5-701.5h1403v1403h-1403z"/><path id="SyL4lbT3JW_pad-15" d="M-368.5-876.5h737v1753h-737z"/><path id="SyL4lbT3JW_pad-16" d="M-609.5-800h1219V800h-1219z"/><circle id="SyL4lbT3JW_pad-17" r="609.5"/><circle id="HJmExb6hyZ_pad-1" r="304.8"/><circle id="HJmExb6hyZ_pad-2" r="508"/><circle id="HJmExb6hyZ_pad-3" r="1000"/><path id="ryEEebThkW_pad-10" d="M-1600-600h3200V600h-3200z"/><path id="ryEEebThkW_pad-11" d="M-724-559H724V559H-724z"/><circle id="ryEEebThkW_pad-12" r="940"/><path id="ryEEebThkW_pad-13" d="M-600-600H600V600H-600z"/><path id="ryEEebThkW_pad-14" d="M-266.5-774.5h533v1549h-533z"/><path id="ryEEebThkW_pad-15" d="M-508-698.5H508v1397H-508z"/><circle id="ryEEebThkW_pad-17" r="508"/><path id="ryEEebThkW_pad-10" d="M-1600-600h3200V600h-3200z"/><path id="ryEEebThkW_pad-11" d="M-724-559H724V559H-724z"/><circle id="ryEEebThkW_pad-12" r="940"/><path id="ryEEebThkW_pad-13" d="M-600-600H600V600H-600z"/><path id="ryEEebThkW_pad-14" d="M-266.5-774.5h533v1549h-533z"/><path id="ryEEebThkW_pad-15" d="M-508-698.5H508v1397H-508z"/><circle id="ryEEebThkW_pad-17" r="508"/><path id="HJHNlZphkZ_pad-13" d="M-100-100h200v200h-200z"/><path id="ryEEebThkW_pad-10" d="M-1600-600h3200V600h-3200z"/><path id="ryEEebThkW_pad-11" d="M-724-559H724V559H-724z"/><circle id="ryEEebThkW_pad-12" r="940"/><path id="ryEEebThkW_pad-13" d="M-600-600H600V600H-600z"/><path id="ryEEebThkW_pad-14" d="M-266.5-774.5h533v1549h-533z"/><path id="ryEEebThkW_pad-15" d="M-508-698.5H508v1397H-508z"/><circle id="ryEEebThkW_pad-17" r="508"/><path id="ryEEebThkW_pad-10" d="M-1600-600h3200V600h-3200z"/><path id="ryEEebThkW_pad-11" d="M-724-559H724V559H-724z"/><circle id="ryEEebThkW_pad-12" r="940"/><path id="ryEEebThkW_pad-13" d="M-600-600H600V600H-600z"/><path id="ryEEebThkW_pad-14" d="M-266.5-774.5h533v1549h-533z"/><path id="ryEEebThkW_pad-15" d="M-508-698.5H508v1397H-508z"/><circle id="ryEEebThkW_pad-17" r="508"/><path id="HJHNlZphkZ_pad-13" d="M-100-100h200v200h-200z"/><circle id="SyL4lbT3JW_pad-10" r="1101.5"/><path id="SyL4lbT3JW_pad-11" d="M-1701.5-701.5h3403v1403h-3403z"/><path id="SyL4lbT3JW_pad-12" d="M-825.5-660.5h1651v1321h-1651z"/><circle id="SyL4lbT3JW_pad-13" r="1041.5"/><path id="SyL4lbT3JW_pad-14" d="M-701.5-701.5h1403v1403h-1403z"/><path id="SyL4lbT3JW_pad-15" d="M-368.5-876.5h737v1753h-737z"/><path id="SyL4lbT3JW_pad-16" d="M-609.5-800h1219V800h-1219z"/><circle id="SyL4lbT3JW_pad-17" r="609.5"/><path id="ryEEebThkW_pad-10" d="M-1600-600h3200V600h-3200z"/><path id="ryEEebThkW_pad-11" d="M-724-559H724V559H-724z"/><circle id="ryEEebThkW_pad-12" r="940"/><path id="ryEEebThkW_pad-13" d="M-600-600H600V600H-600z"/><path id="ryEEebThkW_pad-14" d="M-266.5-774.5h533v1549h-533z"/><path id="ryEEebThkW_pad-15" d="M-508-698.5H508v1397H-508z"/><circle id="ryEEebThkW_pad-17" r="508"/><path id="ryEEebThkW_pad-10" d="M-1600-600h3200V600h-3200z"/><path id="ryEEebThkW_pad-11" d="M-724-559H724V559H-724z"/><circle id="ryEEebThkW_pad-12" r="940"/><path id="ryEEebThkW_pad-13" d="M-600-600H600V600H-600z"/><path id="ryEEebThkW_pad-14" d="M-266.5-774.5h533v1549h-533z"/><path id="ryEEebThkW_pad-15" d="M-508-698.5H508v1397H-508z"/><circle id="ryEEebThkW_pad-17" r="508"/><path id="HJHNlZphkZ_pad-13" d="M-100-100h200v200h-200z"/><path id="ryEEebThkW_pad-10" d="M-1600-600h3200V600h-3200z"/><path id="ryEEebThkW_pad-11" d="M-724-559H724V559H-724z"/><circle id="ryEEebThkW_pad-12" r="940"/><path id="ryEEebThkW_pad-13" d="M-600-600H600V600H-600z"/><path id="ryEEebThkW_pad-14" d="M-266.5-774.5h533v1549h-533z"/><path id="ryEEebThkW_pad-15" d="M-508-698.5H508v1397H-508z"/><circle id="ryEEebThkW_pad-17" r="508"/><path id="ryEEebThkW_pad-10" d="M-1600-600h3200V600h-3200z"/><path id="ryEEebThkW_pad-11" d="M-724-559H724V559H-724z"/><circle id="ryEEebThkW_pad-12" r="940"/><path id="ryEEebThkW_pad-13" d="M-600-600H600V600H-600z"/><path id="ryEEebThkW_pad-14" d="M-266.5-774.5h533v1549h-533z"/><path id="ryEEebThkW_pad-15" d="M-508-698.5H508v1397H-508z"/><circle id="ryEEebThkW_pad-17" r="508"/><path id="HJHNlZphkZ_pad-13" d="M-100-100h200v200h-200z"/><circle id="SyL4lbT3JW_pad-10" r="1101.5"/><path id="SyL4lbT3JW_pad-11" d="M-1701.5-701.5h3403v1403h-3403z"/><path id="SyL4lbT3JW_pad-12" d="M-825.5-660.5h1651v1321h-1651z"/><circle id="SyL4lbT3JW_pad-13" r="1041.5"/><path id="SyL4lbT3JW_pad-14" d="M-701.5-701.5h1403v1403h-1403z"/><path id="SyL4lbT3JW_pad-15" d="M-368.5-876.5h737v1753h-737z"/><path id="SyL4lbT3JW_pad-16" d="M-609.5-800h1219V800h-1219z"/><circle id="SyL4lbT3JW_pad-17" r="609.5"/><circle id="HJmExb6hyZ_pad-1" r="304.8"/><circle id="HJmExb6hyZ_pad-2" r="508"/><circle id="HJmExb6hyZ_pad-3" r="1000"/><path id="ryEEebThkW_pad-10" d="M-1600-600h3200V600h-3200z"/><path id="ryEEebThkW_pad-11" d="M-724-559H724V559H-724z"/><circle id="ryEEebThkW_pad-12" r="940"/><path id="ryEEebThkW_pad-13" d="M-600-600H600V600H-600z"/><path id="ryEEebThkW_pad-14" d="M-266.5-774.5h533v1549h-533z"/><path id="ryEEebThkW_pad-15" d="M-508-698.5H508v1397H-508z"/><circle id="ryEEebThkW_pad-17" r="508"/><path id="ryEEebThkW_pad-10" d="M-1600-600h3200V600h-3200z"/><path id="ryEEebThkW_pad-11" d="M-724-559H724V559H-724z"/><circle id="ryEEebThkW_pad-12" r="940"/><path id="ryEEebThkW_pad-13" d="M-600-600H600V600H-600z"/><path id="ryEEebThkW_pad-14" d="M-266.5-774.5h533v1549h-533z"/><path id="ryEEebThkW_pad-15" d="M-508-698.5H508v1397H-508z"/><circle id="ryEEebThkW_pad-17" r="508"/><path id="HJHNlZphkZ_pad-13" d="M-100-100h200v200h-200z"/><path id="ryEEebThkW_pad-10" d="M-1600-600h3200V600h-3200z"/><path id="ryEEebThkW_pad-11" d="M-724-559H724V559H-724z"/><circle id="ryEEebThkW_pad-12" r="940"/><path id="ryEEebThkW_pad-13" d="M-600-600H600V600H-600z"/><path id="ryEEebThkW_pad-14" d="M-266.5-774.5h533v1549h-533z"/><path id="ryEEebThkW_pad-15" d="M-508-698.5H508v1397H-508z"/><circle id="ryEEebThkW_pad-17" r="508"/><path id="ryEEebThkW_pad-10" d="M-1600-600h3200V600h-3200z"/><path id="ryEEebThkW_pad-11" d="M-724-559H724V559H-724z"/><circle id="ryEEebThkW_pad-12" r="940"/><path id="ryEEebThkW_pad-13" d="M-600-600H600V600H-600z"/><path id="ryEEebThkW_pad-14" d="M-266.5-774.5h533v1549h-533z"/><path id="ryEEebThkW_pad-15" d="M-508-698.5H508v1397H-508z"/><circle id="ryEEebThkW_pad-17" r="508"/><path id="HJHNlZphkZ_pad-13" d="M-100-100h200v200h-200z"/><circle id="SyL4lbT3JW_pad-10" r="1101.5"/><path id="SyL4lbT3JW_pad-11" d="M-1701.5-701.5h3403v1403h-3403z"/><path id="SyL4lbT3JW_pad-12" d="M-825.5-660.5h1651v1321h-1651z"/><circle id="SyL4lbT3JW_pad-13" r="1041.5"/><path id="SyL4lbT3JW_pad-14" d="M-701.5-701.5h1403v1403h-1403z"/><path id="SyL4lbT3JW_pad-15" d="M-368.5-876.5h737v1753h-737z"/><path id="SyL4lbT3JW_pad-16" d="M-609.5-800h1219V800h-1219z"/><circle id="SyL4lbT3JW_pad-17" r="609.5"/><path id="ryEEebThkW_pad-10" d="M-1600-600h3200V600h-3200z"/><path id="ryEEebThkW_pad-11" d="M-724-559H724V559H-724z"/><circle id="ryEEebThkW_pad-12" r="940"/><path id="ryEEebThkW_pad-13" d="M-600-600H600V600H-600z"/><path id="ryEEebThkW_pad-14" d="M-266.5-774.5h533v1549h-533z"/><path id="ryEEebThkW_pad-15" d="M-508-698.5H508v1397H-508z"/><circle id="ryEEebThkW_pad-17" r="508"/><path id="ryEEebThkW_pad-10" d="M-1600-600h3200V600h-3200z"/><path id="ryEEebThkW_pad-11" d="M-724-559H724V559H-724z"/><circle id="ryEEebThkW_pad-12" r="940"/><path id="ryEEebThkW_pad-13" d="M-600-600H600V600H-600z"/><path id="ryEEebThkW_pad-14" d="M-266.5-774.5h533v1549h-533z"/><path id="ryEEebThkW_pad-15" d="M-508-698.5H508v1397H-508z"/><circle id="ryEEebThkW_pad-17" r="508"/><path id="HJHNlZphkZ_pad-13" d="M-100-100h200v200h-200z"/><path id="ryEEebThkW_pad-10" d="M-1600-600h3200V600h-3200z"/><path id="ryEEebThkW_pad-11" d="M-724-559H724V559H-724z"/><circle id="ryEEebThkW_pad-12" r="940"/><path id="ryEEebThkW_pad-13" d="M-600-600H600V600H-600z"/><path id="ryEEebThkW_pad-14" d="M-266.5-774.5h533v1549h-533z"/><path id="ryEEebThkW_pad-15" d="M-508-698.5H508v1397H-508z"/><circle id="ryEEebThkW_pad-17" r="508"/><path id="ryEEebThkW_pad-10" d="M-1600-600h3200V600h-3200z"/><path id="ryEEebThkW_pad-11" d="M-724-559H724V559H-724z"/><circle id="ryEEebThkW_pad-12" r="940"/><path id="ryEEebThkW_pad-13" d="M-600-600H600V600H-600z"/><path id="ryEEebThkW_pad-14" d="M-266.5-774.5h533v1549h-533z"/><path id="ryEEebThkW_pad-15" d="M-508-698.5H508v1397H-508z"/><circle id="ryEEebThkW_pad-17" r="508"/><path id="HJHNlZphkZ_pad-13" d="M-100-100h200v200h-200z"/><circle id="SyL4lbT3JW_pad-10" r="1101.5"/><path id="SyL4lbT3JW_pad-11" d="M-1701.5-701.5h3403v1403h-3403z"/><path id="SyL4lbT3JW_pad-12" d="M-825.5-660.5h1651v1321h-1651z"/><circle id="SyL4lbT3JW_pad-13" r="1041.5"/><path id="SyL4lbT3JW_pad-14" d="M-701.5-701.5h1403v1403h-1403z"/><path id="SyL4lbT3JW_pad-15" d="M-368.5-876.5h737v1753h-737z"/><path id="SyL4lbT3JW_pad-16" d="M-609.5-800h1219V800h-1219z"/><circle id="SyL4lbT3JW_pad-17" r="609.5"/><circle id="HJmExb6hyZ_pad-1" r="304.8"/><circle id="HJmExb6hyZ_pad-2" r="508"/><circle id="HJmExb6hyZ_pad-3" r="1000"/><path id="ryEEebThkW_pad-10" d="M-1600-600h3200V600h-3200z"/><path id="ryEEebThkW_pad-11" d="M-724-559H724V559H-724z"/><circle id="ryEEebThkW_pad-12" r="940"/><path id="ryEEebThkW_pad-13" d="M-600-600H600V600H-600z"/><path id="ryEEebThkW_pad-14" d="M-266.5-774.5h533v1549h-533z"/><path id="ryEEebThkW_pad-15" d="M-508-698.5H508v1397H-508z"/><circle id="ryEEebThkW_pad-17" r="508"/><path id="ryEEebThkW_pad-10" d="M-1600-600h3200V600h-3200z"/><path id="ryEEebThkW_pad-11" d="M-724-559H724V559H-724z"/><circle id="ryEEebThkW_pad-12" r="940"/><path id="ryEEebThkW_pad-13" d="M-600-600H600V600H-600z"/><path id="ryEEebThkW_pad-14" d="M-266.5-774.5h533v1549h-533z"/><path id="ryEEebThkW_pad-15" d="M-508-698.5H508v1397H-508z"/><circle id="ryEEebThkW_pad-17" r="508"/><path id="HJHNlZphkZ_pad-13" d="M-100-100h200v200h-200z"/><path id="ryEEebThkW_pad-10" d="M-1600-600h3200V600h-3200z"/><path id="ryEEebThkW_pad-11" d="M-724-559H724V559H-724z"/><circle id="ryEEebThkW_pad-12" r="940"/><path id="ryEEebThkW_pad-13" d="M-600-600H600V600H-600z"/><path id="ryEEebThkW_pad-14" d="M-266.5-774.5h533v1549h-533z"/><path id="ryEEebThkW_pad-15" d="M-508-698.5H508v1397H-508z"/><circle id="ryEEebThkW_pad-17" r="508"/><path id="ryEEebThkW_pad-10" d="M-1600-600h3200V600h-3200z"/><path id="ryEEebThkW_pad-11" d="M-724-559H724V559H-724z"/><circle id="ryEEebThkW_pad-12" r="940"/><path id="ryEEebThkW_pad-13" d="M-600-600H600V600H-600z"/><path id="ryEEebThkW_pad-14" d="M-266.5-774.5h533v1549h-533z"/><path id="ryEEebThkW_pad-15" d="M-508-698.5H508v1397H-508z"/><circle id="ryEEebThkW_pad-17" r="508"/><path id="HJHNlZphkZ_pad-13" d="M-100-100h200v200h-200z"/><circle id="SyL4lbT3JW_pad-10" r="1101.5"/><path id="SyL4lbT3JW_pad-11" d="M-1701.5-701.5h3403v1403h-3403z"/><path id="SyL4lbT3JW_pad-12" d="M-825.5-660.5h1651v1321h-1651z"/><circle id="SyL4lbT3JW_pad-13" r="1041.5"/><path id="SyL4lbT3JW_pad-14" d="M-701.5-701.5h1403v1403h-1403z"/><path id="SyL4lbT3JW_pad-15" d="M-368.5-876.5h737v1753h-737z"/><path id="SyL4lbT3JW_pad-16" d="M-609.5-800h1219V800h-1219z"/><circle id="SyL4lbT3JW_pad-17" r="609.5"/><path id="ryEEebThkW_pad-10" d="M-1600-600h3200V600h-3200z"/><path id="ryEEebThkW_pad-11" d="M-724-559H724V559H-724z"/><circle id="ryEEebThkW_pad-12" r="940"/><path id="ryEEebThkW_pad-13" d="M-600-600H600V600H-600z"/><path id="ryEEebThkW_pad-14" d="M-266.5-774.5h533v1549h-533z"/><path id="ryEEebThkW_pad-15" d="M-508-698.5H508v1397H-508z"/><circle id="ryEEebThkW_pad-17" r="508"/><path id="ryEEebThkW_pad-10" d="M-1600-600h3200V600h-3200z"/><path id="ryEEebThkW_pad-11" d="M-724-559H724V559H-724z"/><circle id="ryEEebThkW_pad-12" r="940"/><path id="ryEEebThkW_pad-13" d="M-600-600H600V600H-600z"/><path id="ryEEebThkW_pad-14" d="M-266.5-774.5h533v1549h-533z"/><path id="ryEEebThkW_pad-15" d="M-508-698.5H508v1397H-508z"/><circle id="ryEEebThkW_pad-17" r="508"/><path id="HJHNlZphkZ_pad-13" d="M-100-100h200v200h-200z"/><path id="ryEEebThkW_pad-10" d="M-1600-600h3200V600h-3200z"/><path id="ryEEebThkW_pad-11" d="M-724-559H724V559H-724z"/><circle id="ryEEebThkW_pad-12" r="940"/><path id="ryEEebThkW_pad-13" d="M-600-600H600V600H-600z"/><path id="ryEEebThkW_pad-14" d="M-266.5-774.5h533v1549h-533z"/><path id="ryEEebThkW_pad-15" d="M-508-698.5H508v1397H-508z"/><circle id="ryEEebThkW_pad-17" r="508"/><path id="ryEEebThkW_pad-10" d="M-1600-600h3200V600h-3200z"/><path id="ryEEebThkW_pad-11" d="M-724-559H724V559H-724z"/><circle id="ryEEebThkW_pad-12" r="940"/><path id="ryEEebThkW_pad-13" d="M-600-600H600V600H-600z"/><path id="ryEEebThkW_pad-14" d="M-266.5-774.5h533v1549h-533z"/><path id="ryEEebThkW_pad-15" d="M-508-698.5H508v1397H-508z"/><circle id="ryEEebThkW_pad-17" r="508"/><path id="HJHNlZphkZ_pad-13" d="M-100-100h200v200h-200z"/><circle id="SyL4lbT3JW_pad-10" r="1101.5"/><path id="SyL4lbT3JW_pad-11" d="M-1701.5-701.5h3403v1403h-3403z"/><path id="SyL4lbT3JW_pad-12" d="M-825.5-660.5h1651v1321h-1651z"/><circle id="SyL4lbT3JW_pad-13" r="1041.5"/><path id="SyL4lbT3JW_pad-14" d="M-701.5-701.5h1403v1403h-1403z"/><path id="SyL4lbT3JW_pad-15" d="M-368.5-876.5h737v1753h-737z"/><path id="SyL4lbT3JW_pad-16" d="M-609.5-800h1219V800h-1219z"/><circle id="SyL4lbT3JW_pad-17" r="609.5"/><circle id="HJmExb6hyZ_pad-1" r="304.8"/><circle id="HJmExb6hyZ_pad-2" r="508"/><circle id="HJmExb6hyZ_pad-3" r="1000"/><g id="pcb-stackup_top_cu"><use x="14601" y="11886" xlink:href="#ryEEebThkW_pad-10"/><use x="7801" y="11886" xlink:href="#ryEEebThkW_pad-10"/><use x="7801" y="15886" xlink:href="#ryEEebThkW_pad-10"/><use x="14601" y="15886" xlink:href="#ryEEebThkW_pad-10"/><use x="17551" y="12337" xlink:href="#ryEEebThkW_pad-11"/><use x="17551" y="14166" xlink:href="#ryEEebThkW_pad-11"/><use x="28981" y="10711" xlink:href="#ryEEebThkW_pad-12"/><use x="26441" y="10711" xlink:href="#ryEEebThkW_pad-12"/><use x="28981" y="13251" xlink:href="#ryEEebThkW_pad-12"/><use x="26441" y="13251" xlink:href="#ryEEebThkW_pad-12"/><use x="28981" y="15791" xlink:href="#ryEEebThkW_pad-12"/><use x="26441" y="15791" xlink:href="#ryEEebThkW_pad-12"/><use x="9296" y="6901" xlink:href="#ryEEebThkW_pad-12"/><use x="11836" y="6901" xlink:href="#ryEEebThkW_pad-12"/><use x="14376" y="6901" xlink:href="#ryEEebThkW_pad-12"/><use x="16916" y="6901" xlink:href="#ryEEebThkW_pad-12"/><use x="9931" y="18966" xlink:href="#ryEEebThkW_pad-12"/><use x="12471" y="18966" xlink:href="#ryEEebThkW_pad-12"/><use x="15011" y="18966" xlink:href="#ryEEebThkW_pad-12"/><use x="17551" y="18966" xlink:href="#ryEEebThkW_pad-12"/><use x="12056" y="9441" xlink:href="#ryEEebThkW_pad-13"/><use x="14156" y="9441" xlink:href="#ryEEebThkW_pad-13"/><use x="19456" y="9543" xlink:href="#ryEEebThkW_pad-14"/><use x="20726" y="9543" xlink:href="#ryEEebThkW_pad-14"/><use x="21996" y="9543" xlink:href="#ryEEebThkW_pad-14"/><use x="23266" y="9543" xlink:href="#ryEEebThkW_pad-14"/><use x="23266" y="16960" xlink:href="#ryEEebThkW_pad-14"/><use x="21996" y="16960" xlink:href="#ryEEebThkW_pad-14"/><use x="20726" y="16960" xlink:href="#ryEEebThkW_pad-14"/><use x="19456" y="16960" xlink:href="#ryEEebThkW_pad-14"/><use x="15977" y="9441" xlink:href="#ryEEebThkW_pad-15"/><use x="17856" y="9441" xlink:href="#ryEEebThkW_pad-15"/><use x="10236" y="9441" xlink:href="#ryEEebThkW_pad-15"/><use x="8357" y="9441" xlink:href="#ryEEebThkW_pad-15"/><path fill="none" stroke-width="254" d="M23266 16782h686l457-457v-1600l915-915h228l686-686m-2972 3658v178m2972-3836l203 127m-16433 5588l457-457v-228l1143-1143h3657l229 228m-5486 1600l-77 127m12192-3556v1372l-127 178m-1244-178v-914l-229-229 3429-3429h1372l228-229h2286l1143 1143m-8229 3658l-26 178m8255-3709v-127m-8915 5258h229l457-457v-914l-26-51m26-7265v915l-915 914v2972l-2057 2057v1372l-229 229v812m3201-9271l-26-152m-10490-102v1169l457 457m11202-1600V8095l-229-228h-3200l-915-915h-457m4801 2515l101 76m-4902-2591l-178-51m1093 2566h1143l228-229 229 229m-1600 0l-153-26m1600 102l153-76m-1829-229h-229l-914-914h-229l-1371-1372h-457m3200 2286l76 203m-3276-2489l-204-51m204 8967H7950l-149 18m6779-18l21 18m4779-6191v4572l-1371 1372h-2972l-229 229m4572-6173l76-152m-4648 6325l-207 18m2950-5048l-1371-1371m1371 2870v-1499m-1371-1371l-203-26m3403 7341v-1143l3886-3886h1601l457-457h228l686-686m-6858 6172l76 178m6782-6350l203 101M14122 9467v457l-914 914h-229l-1143 1143h-1600l-457-457v-457l-229-229h-914l-229-228V9467m5715 0l34-26m-5749 26l-50-26"/><use x="15494" y="17239" xlink:href="#ryEEebThkW_pad-17"/><use x="22123" y="15410" xlink:href="#ryEEebThkW_pad-17"/><use x="20066" y="18382" xlink:href="#ryEEebThkW_pad-17"/><use x="10693" y="11067" xlink:href="#ryEEebThkW_pad-17"/><use x="17551" y="11067" xlink:href="#ryEEebThkW_pad-17"/><path fill="none" stroke-width="305" d="M18511 8387l209 209v388h114v-363l208-208h828l209 208v633l12 13v86l13 25v-757l208-208h828l209 208v1844l-115 114v231l-914 914v2293l2464-2464 282-283h1601l174-174 283-283h22v-359l197-476 365-365 476-197h408l-414-171-610-610-330-797v-863l273-658h-7434l135 327v286l454 454h3200l283 283 228 228v518h33l208 208 3-10 53-92 76-76 93-53 103-28h320v1181-1181h321l103 28 93 53 75 76 54 92 27 104v828h-673 673v828l-27 104-54 92-75 76-93 53-103 28h-321V9543v1181h-320l-103-28-93-53-76-76-53-92-3-10-208 208h-828l-208-208V8621l38-38v-234h-3146l-483-482-133 133-463 191 196 196h1128m-88 3036l208 208v1412l-190 190 84 49 75 75 54 93 28 103v486h-1004v254h994l226-226v-3539l-64-63v-516h-114v338l-209 208h-310l83 83 131 317v344l-76 184h84m-5735-975h-484v-859h-295v859h-506l-103-28-76-43 202 201 131 317v344l-108 260h187l1052-1051m-2880 2092l-28 103-53 93-76 76-93 53-103 28H7949v-859h-295v859h-847v2038h2742l208 208v246h2889v-246l208-208h3495l208 208v17h1252l25-25h-156v-838h-254v838h-650l-103-28-93-53-76-76-53-93-28-103v-485h1003v-254h-1003v-486l28-103 53-93 76-75 84-49-190-190v-252l-21 21-93 53-103 28h-1506v-859h-295v859h-1506l-103-28-93-53-76-76-53-93-28-103v-506h1859v-295h-1693l-442 442-283 283h-2000l-228-229v305m1323-3948l76-76 93-53 103-28h506v859h295v-859h506l103 28 93 53 76 76 53 93 28 103v506h-859v295h859v506l-28 103-53 93-65 65h91l193-193V8694l208-208h1495l208 208v1495l-208 208h-572l-483 483h605v859h295v-859h1506l103 28 93 53 76 76 53 93 28 103v262l72-72h84l-76-184v-344l69-168-231-232h-1205l-208-208V8596l208-209h468l-533-533-146 146-476 197h-515l-476-197-365-365-148-358-46 141-96 189-125 171-150 150-171 125-189 96-201 65-210 34h-4V7003h-203v1245h-5l-209-34-201-65-189-96-172-125-149-150-125-171-96-189-46-141-148 358-365 365-476 197h-515l-476-197-365-365-197-476v-515l135-327H6807v4563h847v859h295v-859h46l-70-70v-315h-224l-208-208V8596l208-209h1311l208 209v1691l-68 69h289l-68-69V8596l208-209h1310l209 209v50l31-54m7911 9498l-208-208v-1700l-571 571v1106l22 9 365 365 197 476v515l-135 327h6526v-576l151-364-116-279v-754l182-439 93-93 139-139-123-89-149-150-125-171-96-189-66-201-33-210v-4h1245v-203h-1245v-5l33-209 66-201 96-189 125-172 149-149 172-125 189-96 141-46-358-148-57-57h-127l-632 631v1601l-283 282-457 458h-263v617l-209 208h-828l-208-208v-1771l-25 25v682l13 82-13 19v963l-209 208h-828l-208-208v-1844l78-78-61-60-130-316-55 55 28 29v256l115 114v1844l-115 114v129l-282 283-22 22v124l-132 317-243 243-317 132h-344l-317-132-243-243-132-317v-344l50-120h-210M8078 6457H6807m11328 0h7318M8001 6760H6807m11405 0h7115M8001 7064H6807m4928 0h203m6407 0h6893M8087 7367H6807m3699 0h66m1163 0h203m1163 0h66m5482 0h6589M8233 7670H6807m3552 0h372m1004 0h203m1004 0h371m8839 0h3086M8537 7974H6807m3249 0h966m713 0h203m713 0h966m1519 0h240m2300 0h214m4487 0h2917m-9615 303H6807m10466 0h921m4183 0h3043M7508 8580h-701m2398 0h183m1696 0h59m766 0h295m766 0h345m1683 0h130m3576 0h171m1163 0h107m1163 0h104m1166 0h61m1255 0h1652M7493 8884h-686m2413 0h153m2536 0h295m859 0h138m1911 0h1m3607 0h114m1245 0h25m1245 0h25m2565 0h1878M7493 9187h-686m2413 0h153m2536 0h295m859 0h138m1911 0h1m4966 0h25m1245 0h25m2565 0h2181M7493 9490h-686m2413 0h153m2831 0h997m1911 0h1m6236 0h25m2565 0h2066M7493 9794h-686m2413 0h153m2536 0h295m859 0h138m1911 0h1m6236 0h25m2565 0h1588m-18034 303h-686m2413 0h153m2536 0h295m858 0h139m1911 0h1m3607 0h114m2515 0h25m2565 0h1355m-17688 303h-799m4441 0h17m644 0h295m2125 0h897m3381 0h227m2515 0h25m2558 0h1236m-17243 303H6807m4671 0h954m1593 0h2709m1602 0h562m2336 0h1635m795 0h1482m-17197 304h-295m3903 0h572m2325 0h295m1747 0h192m1727 0h483m2139 0h3893m-16981 303h-295m3873 0h298m2629 0h295m1859 0h109m1668 0h513m1836 0h2293m-15078 303h-295m6800 0h295m3864 0h285m1533 0h2292m-8269 304h-1870m6047 0h267m1422 0h2100m-14471 303h-295m4626 0h315m1859 0h295m3882 0h267m1422 0h1797m-14168 303h-295m2154 0h2787m1859 0h295m3882 0h267m1422 0h1494m-13865 303h-295m1971 0h3153m1676 0h295m1676 0h47m2159 0h267m1422 0h1190m-4951 304H6807m11737 0h354m1422 0h887m-4748 303H6807m11837 0h254m1422 0h584m-4483 303H6807m11875 0h216m1422 0h280m-3176 304H6807m10871 0h1220m-2477 303H6807m10617 0h254m7795 0h228m-9280 303H6807m10617 0h254m7492 0h557m-12892 304H9567m6800 0h121m936 0h254m7214 0h497m-12743 303H9757m15135 0h313m-89 303h-224m-3517 303h-141m3658 0h1448m-4966 304h-25m1270 0h25m2248 0h255m-6313 303h-284m2799 0h25m1245 0h25m2248 0h382m-6440 303h-571m3086 0h25m1245 0h25m2003 0h869m-6682 304h-571m3086 0h25m1245 0h25m1700 0h1177m-6687 303h-571m3086 0h25m1245 0h25m1245 0h1467m-6522 303h-571m3086 0h25m1245 0h25m1245 0h1384m-6338 304h-535m2848 0h227m1043 0h227m1043 0h1485m-6071 303h-530m2401 0h4200m-6056 303h-420m2118 0h4464m-6024 304h-508m1930 0h4495m-5498 303h-927m1511 0h4880m0 303h-6505"/></g><g id="pcb-stackup_top_ss"><path fill="none" stroke-width="25" d="M19088 7295h-254v-190l127 63h64l63-63v-127l-63-64h-127l-64 64m374 317v-254l127-127 128 127v254m494 0v-381m753 318l-64 63h-127l-63-63v-254l63-64h127l64 64v127h-127m247-191v381l254-381v381m120 0v-381h191l63 64v254l-63 63h-191m748 0v-381m499 0v381h191l64-63v-127l-64-64h-191m128 0l127-127m374 318l-64 63h-127l-63-63v-64l63-63h127l64-64v-63l-64-64h-127l-63 64m501-64v381m-127 0h254m494 0v-381m690 0v381l-191-190h254m-4597 11303v254l64 63h127l63-63v-254l-63-64h-127l-64 64 254 254m495 63v-381m498 254l128 127v-381m127 0h-255m749 0v381m753-381h-254l254 254v64l-64 63h-127l-63-63m748 63v-381m499 318l64 63h127l63-63v-64l-63-63h-64m64 0l63-64v-63l-63-64h-127l-64 64m-3767 571h-280l93 93-93 94h280m-280 234v-94l47-46h186l47 46v94l-47 46h-186l-47-46m47 327l-47-47v-93l47-47h46l47 47v93l46 47h47l47-47v-93l-47-47m47 281v93m0-46h-280m0 46v-93m1550-842h-280l93 93-93 94h280m0 94v93m0-47h-280m0-46v93m47 280l-47-46v-94l47-46h46l47 46v94l46 46h47l47-46v-94l-47-46m-233 420v-93l47-46h186l47 46v93l-47 47h-186l-47-47m1317-701l-47-47v-93l47-47h46l47 47v93l46 47h47l47-47v-93l-47-47m-186 467l-47-46v-94l47-46h186l47 46v94l-47 46m47 94h-280m186 0l-186 187m140-140l140 140m2165-12178h280v187m-280 280v-186h280v186m-140-93v-93m-140 280h280v140l-47 47h-186l-47-47v-140"/><path fill="none" stroke-width="203" d="M14501 10886H7901m0 6000h6600m0-1800v-2400m-6600 0v2400m1797-1200l2 77 6 78 10 76 14 76 18 76 21 74 26 73 29 72 33 70 36 68 40 67 43 64 46 62 50 59 53 57 55 54 58 51 61 48 63 45 65 42 68 38 69 34 71 31 72 28 74 23 75 20 76 16 76 12 77 8 77 4h78l77-4 77-8 76-12 76-16 75-20 74-23 72-28 71-31 69-34 68-38 65-42 63-45 61-48 58-51 55-54 53-57 50-59 46-62 43-64 40-67 36-68 33-70 29-72 26-73 21-74 18-76 14-76 10-76 6-78 2-77-2-77-6-78-10-76-14-76-18-76-21-74-26-73-29-72-33-70-36-68-40-67-43-64-46-62-50-59-53-57-55-54-58-51-61-48-63-45-65-42-68-38-69-34-71-31-72-28-74-23-75-20-76-16-76-12-77-8-77-4h-78l-77 4-77 8-76 12-76 16-75 20-74 23-72 28-71 31-69 34-68 38-65 42-63 45-61 48-58 51-55 54-53 57-50 59-46 62-43 64-40 67-36 68-33 70-29 72-26 73-21 74-18 76-14 76-10 76-6 78-2 77m503 0l2 63 6 62 10 62 13 62 18 60 21 59 25 58 29 56 32 54 35 52 38 49 42 48 44 44 48 42 49 38 52 35 54 32 56 29 58 25 59 21 60 18 62 13 62 10 62 6 63 2 63-2 62-6 62-10 62-13 60-18 59-21 58-25 56-29 54-32 52-35 49-38 48-42 44-44 42-48 38-49 35-52 32-54 29-56 25-58 21-59 18-60 13-62 10-62 6-62 2-63-2-63-6-62-10-62-13-62-18-60-21-59-25-58-29-56-32-54-35-52-38-49-42-48-44-44-48-42-49-38-52-35-54-32-56-29-58-25-59-21-60-18-62-13-62-10-62-6-63-2-63 2-62 6-62 10-62 13-60 18-59 21-58 25-56 29-54 32-52 35-49 38-48 42-44 44-42 48-38 49-35 52-32 54-29 56-25 58-21 59-18 60-13 62-10 62-6 62-2 63m19415-4445l635 635m0 1270l-635 635 635 635m0 1270l-635 635 635 635m0 1270l-635 635m0-7620h-3810l-635 635v1270l635 635-635 635v1270l635 635-635 635v1270l635 635m0-5080h3810m0 2540h-3810m0 2540h3810m635-635v-1270m0-1270v-1270m0-1270v-1270m335 0v1270M16281 8171h1270l635-635m0-1270l-635-635m-4445 1905l635 635h1270l635-635m0-1270l-635-635h-1270l-635 635m2540 1270l635 635m-635-1905l635-635h1270M8661 8171h1270l635-635m0-1270l-635-635m635 1905l635 635h1270l635-635m0-1270l-635-635h-1270l-635 635m-2540 0v1270l635 635m-635-1905l635-635h1270m8255 635v1270m-1270 12700h1270l635-635m0-1270l-635-635m-4445 1905l635 635h1270l635-635m0-1270l-635-635h-1270l-635 635m2540 1270l635 635m-635-1905l635-635h1270m-8890 2540h1270l635-635m0-1270l-635-635m635 1905l635 635h1270l635-635m0-1270l-635-635h-1270l-635 635m-2540 0v1270l635 635m-635-1905l635-635h1270m8255 635v1270"/><path fill="none" stroke-width="127" d="M24854 9666v-161m0 80h-483m0-80v161m80 535l-80-80v-161l80-81h322l81 81v161l-81 80m-322 561l-80-80v-161l80-81h81l80 81v161l81 80h80l81-80v-161l-81-81m81 562h-483v241l80 81h161l81-81v-241"/><use x="13006" y="9441" xlink:href="#HJHNlZphkZ_pad-13"/><path fill="none" stroke-width="152" d="M21234 10559h254m1016 0h254m1016 0h254m-1270 5385h-254m-1016 0h-254m-1016 0h-254m-1016 0h-254m5334-5385v5385h-254m-5080 0v-5385h254m1016 0h254m-1524 2387l34 2 34 6 33 9 31 13 30 17 28 20 26 22 22 26 20 28 17 30 13 31 9 33 6 34 2 34-2 34-6 34-9 33-13 31-17 30-20 28-22 26-26 22-28 20-30 17-31 13-33 9-34 6-34 2 34-2 34-6 33-9 31-13 30-17 28-20 26-22 22-26 20-28 17-30 13-31 9-33 6-34 2-34-2-34-6-34-9-33-13-31-17-30-20-28-22-26-26-22-28-20-30-17-31-13-33-9-34-6-34-2m-1676-4216h-203m0 1423h203m-7620 0h-203m0-1423h203"/><path fill="none" stroke-width="76" d="M18016 8743l797 796m0-796l-797 796m398 0v-796m-398 398h797m0 398l-797-796m0 796l797-796m-399 0v796m-398-398h797"/></g><g id="pcb-stackup_top_sm"><use x="27406" y="19406" xlink:href="#SyL4lbT3JW_pad-10"/><use x="27406" y="7406" xlink:href="#SyL4lbT3JW_pad-10"/><use x="14601" y="11886" xlink:href="#SyL4lbT3JW_pad-11"/><use x="7801" y="11886" xlink:href="#SyL4lbT3JW_pad-11"/><use x="7801" y="15886" xlink:href="#SyL4lbT3JW_pad-11"/><use x="14601" y="15886" xlink:href="#SyL4lbT3JW_pad-11"/><use x="17551" y="12337" xlink:href="#SyL4lbT3JW_pad-12"/><use x="17551" y="14166" xlink:href="#SyL4lbT3JW_pad-12"/><use x="28981" y="10711" xlink:href="#SyL4lbT3JW_pad-13"/><use x="26441" y="10711" xlink:href="#SyL4lbT3JW_pad-13"/><use x="28981" y="13251" xlink:href="#SyL4lbT3JW_pad-13"/><use x="26441" y="13251" xlink:href="#SyL4lbT3JW_pad-13"/><use x="28981" y="15791" xlink:href="#SyL4lbT3JW_pad-13"/><use x="26441" y="15791" xlink:href="#SyL4lbT3JW_pad-13"/><use x="9296" y="6901" xlink:href="#SyL4lbT3JW_pad-13"/><use x="11836" y="6901" xlink:href="#SyL4lbT3JW_pad-13"/><use x="14376" y="6901" xlink:href="#SyL4lbT3JW_pad-13"/><use x="16916" y="6901" xlink:href="#SyL4lbT3JW_pad-13"/><use x="9931" y="18966" xlink:href="#SyL4lbT3JW_pad-13"/><use x="12471" y="18966" xlink:href="#SyL4lbT3JW_pad-13"/><use x="15011" y="18966" xlink:href="#SyL4lbT3JW_pad-13"/><use x="17551" y="18966" xlink:href="#SyL4lbT3JW_pad-13"/><use x="12056" y="9441" xlink:href="#SyL4lbT3JW_pad-14"/><use x="14156" y="9441" xlink:href="#SyL4lbT3JW_pad-14"/><use x="19456" y="9543" xlink:href="#SyL4lbT3JW_pad-15"/><use x="20726" y="9543" xlink:href="#SyL4lbT3JW_pad-15"/><use x="21996" y="9543" xlink:href="#SyL4lbT3JW_pad-15"/><use x="23266" y="9543" xlink:href="#SyL4lbT3JW_pad-15"/><use x="23266" y="16960" xlink:href="#SyL4lbT3JW_pad-15"/><use x="21996" y="16960" xlink:href="#SyL4lbT3JW_pad-15"/><use x="20726" y="16960" xlink:href="#SyL4lbT3JW_pad-15"/><use x="19456" y="16960" xlink:href="#SyL4lbT3JW_pad-15"/><use x="15977" y="9441" xlink:href="#SyL4lbT3JW_pad-16"/><use x="17856" y="9441" xlink:href="#SyL4lbT3JW_pad-16"/><use x="10236" y="9441" xlink:href="#SyL4lbT3JW_pad-16"/><use x="8357" y="9441" xlink:href="#SyL4lbT3JW_pad-16"/><use x="15494" y="17239" xlink:href="#SyL4lbT3JW_pad-17"/><use x="22123" y="15410" xlink:href="#SyL4lbT3JW_pad-17"/><use x="20066" y="18382" xlink:href="#SyL4lbT3JW_pad-17"/><use x="10693" y="11067" xlink:href="#SyL4lbT3JW_pad-17"/><use x="17551" y="11067" xlink:href="#SyL4lbT3JW_pad-17"/></g><g id="pcb-stackup_top_drl1"><use x="15494" y="17239" xlink:href="#HJmExb6hyZ_pad-1"/><use x="22123" y="15410" xlink:href="#HJmExb6hyZ_pad-1"/><use x="20066" y="18382" xlink:href="#HJmExb6hyZ_pad-1"/><use x="10693" y="11067" xlink:href="#HJmExb6hyZ_pad-1"/><use x="17551" y="11067" xlink:href="#HJmExb6hyZ_pad-1"/><use x="28981" y="10711" xlink:href="#HJmExb6hyZ_pad-2"/><use x="26441" y="10711" xlink:href="#HJmExb6hyZ_pad-2"/><use x="28981" y="13251" xlink:href="#HJmExb6hyZ_pad-2"/><use x="26441" y="13251" xlink:href="#HJmExb6hyZ_pad-2"/><use x="28981" y="15791" xlink:href="#HJmExb6hyZ_pad-2"/><use x="26441" y="15791" xlink:href="#HJmExb6hyZ_pad-2"/><use x="9296" y="6901" xlink:href="#HJmExb6hyZ_pad-2"/><use x="11836" y="6901" xlink:href="#HJmExb6hyZ_pad-2"/><use x="14376" y="6901" xlink:href="#HJmExb6hyZ_pad-2"/><use x="16916" y="6901" xlink:href="#HJmExb6hyZ_pad-2"/><use x="9931" y="18966" xlink:href="#HJmExb6hyZ_pad-2"/><use x="12471" y="18966" xlink:href="#HJmExb6hyZ_pad-2"/><use x="15011" y="18966" xlink:href="#HJmExb6hyZ_pad-2"/><use x="17551" y="18966" xlink:href="#HJmExb6hyZ_pad-2"/><use x="27406" y="19406" xlink:href="#HJmExb6hyZ_pad-3"/><use x="27406" y="7406" xlink:href="#HJmExb6hyZ_pad-3"/></g><clipPath id="pcb-stackup_top_out"><path fill="none" stroke-width="305" d="M5486 18331l2540 2540h20955l2540-2540v-7620l-2-150-6-149-10-149-13-149-18-149-21-148-26-147-29-147-33-146-37-145-40-144-45-143-48-142-52-140-55-139-59-137-63-136-66-135-70-132-73-130-76-129-80-127-83-124-86-122-90-120-93-118-95-115-99-112-101-110-105-107-107-105-110-101-112-99-115-95-118-93-120-90-122-86-124-83-127-80-128-76-131-73-132-70-135-66-136-63-137-59-139-55-140-52-142-48-143-45-144-40-145-37-146-33-147-29-147-26-148-21-149-18-149-13-149-10-149-6-150-2H5486v13335m20981-236v-280l93-93h280v373m561 186v-559h-280l-93 93v186l93 94h280m188 0l373-373m-373 0l373 373m189-373h279l94 93-94 93h-186l-93 93 93 94h280m188-373v93h93v-93h-93m281 0v373h93l93-94v-279m0 279l93 94 94-94v-279m468 0h-187l-93 93v186l93 94h187l93-94v-93h-373m-3148 1498l2 63 6 62 10 62 13 62 18 60 21 59 25 58 29 56 32 54 35 52 38 49 42 48 44 44 48 42 49 38 52 35 54 32 56 29 58 25 59 21 60 18 62 13 62 10 62 6 63 2 63-2 62-6 62-10 62-13 60-18 59-21 58-25 56-29 54-32 52-35 49-38 48-42 44-44 42-48 38-49 35-52 32-54 29-56 25-58 21-59 18-60 13-62 10-62 6-62 2-63-2-63-6-62-10-62-13-62-18-60-21-59-25-58-29-56-32-54-35-52-38-49-42-48-44-44-48-42-49-38-52-35-54-32-56-29-58-25-59-21-60-18-62-13-62-10-62-6-63-2-63 2-62 6-62 10-62 13-60 18-59 21-58 25-56 29-54 32-52 35-49 38-48 42-44 44-42 48-38 49-35 52-32 54-29 56-25 58-21 59-18 60-13 62-10 62-6 62-2 63m0-12000l2 63 6 62 10 62 13 62 18 60 21 59 25 58 29 56 32 54 35 52 38 49 42 48 44 44 48 42 49 38 52 35 54 32 56 29 58 25 59 21 60 18 62 13 62 10 62 6 63 2 63-2 62-6 62-10 62-13 60-18 59-21 58-25 56-29 54-32 52-35 49-38 48-42 44-44 42-48 38-49 35-52 32-54 29-56 25-58 21-59 18-60 13-62 10-62 6-62 2-63-2-63-6-62-10-62-13-62-18-60-21-59-25-58-29-56-32-54-35-52-38-49-42-48-44-44-48-42-49-38-52-35-54-32-56-29-58-25-59-21-60-18-62-13-62-10-62-6-63-2-63 2-62 6-62 10-62 13-60 18-59 21-58 25-56 29-54 32-52 35-49 38-48 42-44 44-42 48-38 49-35 52-32 54-29 56-25 58-21 59-18 60-13 62-10 62-6 62-2 63"/></clipPath><mask id="pcb-stackup_top_mech-mask"><g stroke="#000"><path fill="#fff" d="M5486 4996h26035v15875H5486z"/><use xlink:href="#pcb-stackup_top_drl1"/><use xlink:href="#pcb-stackup_top_drl2"/></g></mask><mask id="pcb-stackup_top_cf-mask"><g fill="#fff" stroke="#fff"><use xlink:href="#pcb-stackup_top_sm"/></g></mask><mask id="pcb-stackup_top_sm-mask"><g stroke="#000"><path fill="#fff" d="M5486 4996h26035v15875H5486z"/><use xlink:href="#pcb-stackup_top_sm"/></g></mask></defs><g><g mask="url(#pcb-stackup_top_mech-mask)" clip-path="url(#pcb-stackup_top_out)" transform="matrix(1 0 0 -1 0 25867)"><path fill="currentColor" d="M5486 4996h26035v15875H5486z" class="pcb-stackup_fr4"/><use fill="currentColor" stroke="currentColor" xlink:href="#pcb-stackup_top_cu" class="pcb-stackup_cu"/><use fill="currentColor" stroke="currentColor" xlink:href="#pcb-stackup_top_cu" class="pcb-stackup_cf" mask="url(#pcb-stackup_top_cf-mask)"/><g mask="url(#pcb-stackup_top_sm-mask)"><path fill="currentColor" d="M5486 4996h26035v15875H5486z" class="pcb-stackup_sm"/><use fill="currentColor" stroke="currentColor" xlink:href="#pcb-stackup_top_ss" class="pcb-stackup_ss"/></g></g></g></svg>