<svg xmlns="http://www.w3.org/2000/svg" id="pcb-stackup_bottom" fill-rule="evenodd" stroke-width="0" stroke-linecap="round" stroke-linejoin="round" xmlns:xlink="http://www.w3.org/1999/xlink" clip-rule="evenodd" viewBox="186000 -157500 52500 13000"><defs><style>.pcb-stackup_fr4 {color: #4D542C;} .pcb-stackup_cu {color: lightgrey;} .pcb-stackup_cf {color: silver;} .pcb-stackup_sm {color: #000000; opacity: 0.9;} .pcb-stackup_ss {color: white;} .pcb-stackup_sp {color: #000000; opacity: 0;} .pcb-stackup_out {color: black;}</style><circle id="Sy1tlanyb_pad-12" r="698.5"/><circle id="Sy1tlanyb_pad-13" r="1125"/><path id="Sy1tlanyb_pad-14" d="M-1000-1000h2000v2000h-2000z"/><circle id="Sy1tlanyb_pad-15" r="875"/><path id="Sy1tlanyb_pad-16" d="M-875-875H875V875H-875z"/><circle id="Sy1tlanyb_pad-12" r="698.5"/><circle id="Sy1tlanyb_pad-13" r="1125"/><path id="Sy1tlanyb_pad-14" d="M-1000-1000h2000v2000h-2000z"/><circle id="Sy1tlanyb_pad-15" r="875"/><path id="Sy1tlanyb_pad-16" d="M-875-875H875V875H-875z"/><circle id="B1lJKea3k-_pad-11" r="698.5"/><circle id="B1lJKea3k-_pad-12" r="1125"/><path id="B1lJKea3k-_pad-13" d="M-1200-1200h2400v2400h-2400z"/><circle id="B1lJKea3k-_pad-14" r="750"/><circle id="B1lJKea3k-_pad-15" r="1500"/><circle id="B1lJKea3k-_pad-16" r="875"/><path id="B1lJKea3k-_pad-17" d="M-875-875H875V875H-875z"/><circle id="Sy1tlanyb_pad-12" r="698.5"/><circle id="Sy1tlanyb_pad-13" r="1125"/><path id="Sy1tlanyb_pad-14" d="M-1000-1000h2000v2000h-2000z"/><circle id="Sy1tlanyb_pad-15" r="875"/><path id="Sy1tlanyb_pad-16" d="M-875-875H875V875H-875z"/><circle id="Sy1tlanyb_pad-12" r="698.5"/><circle id="Sy1tlanyb_pad-13" r="1125"/><path id="Sy1tlanyb_pad-14" d="M-1000-1000h2000v2000h-2000z"/><circle id="Sy1tlanyb_pad-15" r="875"/><path id="Sy1tlanyb_pad-16" d="M-875-875H875V875H-875z"/><circle id="B1lJKea3k-_pad-11" r="698.5"/><circle id="B1lJKea3k-_pad-12" r="1125"/><path id="B1lJKea3k-_pad-13" d="M-1200-1200h2400v2400h-2400z"/><circle id="B1lJKea3k-_pad-14" r="750"/><circle id="B1lJKea3k-_pad-15" r="1500"/><circle id="B1lJKea3k-_pad-16" r="875"/><path id="B1lJKea3k-_pad-17" d="M-875-875H875V875H-875z"/><circle id="Sy1tlanyb_pad-12" r="698.5"/><circle id="Sy1tlanyb_pad-13" r="1125"/><path id="Sy1tlanyb_pad-14" d="M-1000-1000h2000v2000h-2000z"/><circle id="Sy1tlanyb_pad-15" r="875"/><path id="Sy1tlanyb_pad-16" d="M-875-875H875V875H-875z"/><circle id="Sy1tlanyb_pad-12" r="698.5"/><circle id="Sy1tlanyb_pad-13" r="1125"/><path id="Sy1tlanyb_pad-14" d="M-1000-1000h2000v2000h-2000z"/><circle id="Sy1tlanyb_pad-15" r="875"/><path id="Sy1tlanyb_pad-16" d="M-875-875H875V875H-875z"/><circle id="B1lJKea3k-_pad-11" r="698.5"/><circle id="B1lJKea3k-_pad-12" r="1125"/><path id="B1lJKea3k-_pad-13" d="M-1200-1200h2400v2400h-2400z"/><circle id="B1lJKea3k-_pad-14" r="750"/><circle id="B1lJKea3k-_pad-15" r="1500"/><circle id="B1lJKea3k-_pad-16" r="875"/><path id="B1lJKea3k-_pad-17" d="M-875-875H875V875H-875z"/><circle id="Sy1tlanyb_pad-12" r="698.5"/><circle id="Sy1tlanyb_pad-13" r="1125"/><path id="Sy1tlanyb_pad-14" d="M-1000-1000h2000v2000h-2000z"/><circle id="Sy1tlanyb_pad-15" r="875"/><path id="Sy1tlanyb_pad-16" d="M-875-875H875V875H-875z"/><circle id="Sy1tlanyb_pad-12" r="698.5"/><circle id="Sy1tlanyb_pad-13" r="1125"/><path id="Sy1tlanyb_pad-14" d="M-1000-1000h2000v2000h-2000z"/><circle id="Sy1tlanyb_pad-15" r="875"/><path id="Sy1tlanyb_pad-16" d="M-875-875H875V875H-875z"/><circle id="B1lJKea3k-_pad-11" r="698.5"/><circle id="B1lJKea3k-_pad-12" r="1125"/><path id="B1lJKea3k-_pad-13" d="M-1200-1200h2400v2400h-2400z"/><circle id="B1lJKea3k-_pad-14" r="750"/><circle id="B1lJKea3k-_pad-15" r="1500"/><circle id="B1lJKea3k-_pad-16" r="875"/><path id="B1lJKea3k-_pad-17" d="M-875-875H875V875H-875z"/><circle id="Hk8kKg631Z_pad-1" r="406.5"/><circle id="Hk8kKg631Z_pad-2" r="500"/><circle id="Hk8kKg631Z_pad-3" r="750"/><circle id="Hk8kKg631Z_pad-4" r="1500"/><circle id="Sy1tlanyb_pad-12" r="698.5"/><circle id="Sy1tlanyb_pad-13" r="1125"/><path id="Sy1tlanyb_pad-14" d="M-1000-1000h2000v2000h-2000z"/><circle id="Sy1tlanyb_pad-15" r="875"/><path id="Sy1tlanyb_pad-16" d="M-875-875H875V875H-875z"/><circle id="Sy1tlanyb_pad-12" r="698.5"/><circle id="Sy1tlanyb_pad-13" r="1125"/><path id="Sy1tlanyb_pad-14" d="M-1000-1000h2000v2000h-2000z"/><circle id="Sy1tlanyb_pad-15" r="875"/><path id="Sy1tlanyb_pad-16" d="M-875-875H875V875H-875z"/><circle id="B1lJKea3k-_pad-11" r="698.5"/><circle id="B1lJKea3k-_pad-12" r="1125"/><path id="B1lJKea3k-_pad-13" d="M-1200-1200h2400v2400h-2400z"/><circle id="B1lJKea3k-_pad-14" r="750"/><circle id="B1lJKea3k-_pad-15" r="1500"/><circle id="B1lJKea3k-_pad-16" r="875"/><path id="B1lJKea3k-_pad-17" d="M-875-875H875V875H-875z"/><circle id="Sy1tlanyb_pad-12" r="698.5"/><circle id="Sy1tlanyb_pad-13" r="1125"/><path id="Sy1tlanyb_pad-14" d="M-1000-1000h2000v2000h-2000z"/><circle id="Sy1tlanyb_pad-15" r="875"/><path id="Sy1tlanyb_pad-16" d="M-875-875H875V875H-875z"/><circle id="Sy1tlanyb_pad-12" r="698.5"/><circle id="Sy1tlanyb_pad-13" r="1125"/><path id="Sy1tlanyb_pad-14" d="M-1000-1000h2000v2000h-2000z"/><circle id="Sy1tlanyb_pad-15" r="875"/><path id="Sy1tlanyb_pad-16" d="M-875-875H875V875H-875z"/><circle id="B1lJKea3k-_pad-11" r="698.5"/><circle id="B1lJKea3k-_pad-12" r="1125"/><path id="B1lJKea3k-_pad-13" d="M-1200-1200h2400v2400h-2400z"/><circle id="B1lJKea3k-_pad-14" r="750"/><circle id="B1lJKea3k-_pad-15" r="1500"/><circle id="B1lJKea3k-_pad-16" r="875"/><path id="B1lJKea3k-_pad-17" d="M-875-875H875V875H-875z"/><circle id="Sy1tlanyb_pad-12" r="698.5"/><circle id="Sy1tlanyb_pad-13" r="1125"/><path id="Sy1tlanyb_pad-14" d="M-1000-1000h2000v2000h-2000z"/><circle id="Sy1tlanyb_pad-15" r="875"/><path id="Sy1tlanyb_pad-16" d="M-875-875H875V875H-875z"/><circle id="Sy1tlanyb_pad-12" r="698.5"/><circle id="Sy1tlanyb_pad-13" r="1125"/><path id="Sy1tlanyb_pad-14" d="M-1000-1000h2000v2000h-2000z"/><circle id="Sy1tlanyb_pad-15" r="875"/><path id="Sy1tlanyb_pad-16" d="M-875-875H875V875H-875z"/><circle id="B1lJKea3k-_pad-11" r="698.5"/><circle id="B1lJKea3k-_pad-12" r="1125"/><path id="B1lJKea3k-_pad-13" d="M-1200-1200h2400v2400h-2400z"/><circle id="B1lJKea3k-_pad-14" r="750"/><circle id="B1lJKea3k-_pad-15" r="1500"/><circle id="B1lJKea3k-_pad-16" r="875"/><path id="B1lJKea3k-_pad-17" d="M-875-875H875V875H-875z"/><circle id="Sy1tlanyb_pad-12" r="698.5"/><circle id="Sy1tlanyb_pad-13" r="1125"/><path id="Sy1tlanyb_pad-14" d="M-1000-1000h2000v2000h-2000z"/><circle id="Sy1tlanyb_pad-15" r="875"/><path id="Sy1tlanyb_pad-16" d="M-875-875H875V875H-875z"/><circle id="Sy1tlanyb_pad-12" r="698.5"/><circle id="Sy1tlanyb_pad-13" r="1125"/><path id="Sy1tlanyb_pad-14" d="M-1000-1000h2000v2000h-2000z"/><circle id="Sy1tlanyb_pad-15" r="875"/><path id="Sy1tlanyb_pad-16" d="M-875-875H875V875H-875z"/><circle id="B1lJKea3k-_pad-11" r="698.5"/><circle id="B1lJKea3k-_pad-12" r="1125"/><path id="B1lJKea3k-_pad-13" d="M-1200-1200h2400v2400h-2400z"/><circle id="B1lJKea3k-_pad-14" r="750"/><circle id="B1lJKea3k-_pad-15" r="1500"/><circle id="B1lJKea3k-_pad-16" r="875"/><path id="B1lJKea3k-_pad-17" d="M-875-875H875V875H-875z"/><circle id="Hk8kKg631Z_pad-1" r="406.5"/><circle id="Hk8kKg631Z_pad-2" r="500"/><circle id="Hk8kKg631Z_pad-3" r="750"/><circle id="Hk8kKg631Z_pad-4" r="1500"/><g id="pcb-stackup_bottom_cu"><path fill="none" stroke-width="250" d="M219192-148290v-2540"/><use x="215128" y="-147020" xlink:href="#Sy1tlanyb_pad-12"/><use x="215128" y="-154640" xlink:href="#Sy1tlanyb_pad-12"/><use x="200650" y="-148290" xlink:href="#Sy1tlanyb_pad-13"/><use x="200650" y="-153370" xlink:href="#Sy1tlanyb_pad-14"/><use x="223510" y="-148290" xlink:href="#Sy1tlanyb_pad-13"/><use x="223510" y="-153370" xlink:href="#Sy1tlanyb_pad-14"/><use x="219192" y="-150830" xlink:href="#Sy1tlanyb_pad-15"/><use x="219192" y="-153370" xlink:href="#Sy1tlanyb_pad-16"/><use x="219192" y="-148290" xlink:href="#Sy1tlanyb_pad-15"/><use x="204714" y="-154640" xlink:href="#Sy1tlanyb_pad-16"/><use x="204714" y="-147020" xlink:href="#Sy1tlanyb_pad-15"/><use x="208270" y="-147020" xlink:href="#Sy1tlanyb_pad-16"/><use x="208270" y="-154640" xlink:href="#Sy1tlanyb_pad-15"/><use x="211826" y="-147020" xlink:href="#Sy1tlanyb_pad-16"/><use x="211826" y="-154640" xlink:href="#Sy1tlanyb_pad-15"/><path fill="none" stroke-width="520" d="M200650-153370v254m4826 1270l2794-2794m-6350 2794h3556m-4826-1270l1270 1270m6350-2794h8890l1270 1270h5080m-22860 5080h1270m1270 1270h1524m-2794-1270l1270 1270m20320-1270h-4318l-1270 1270h-2794m-6858 0h6858"/></g><g id="pcb-stackup_bottom_sm"><use x="215128" y="-147020" xlink:href="#B1lJKea3k-_pad-11"/><use x="215128" y="-154640" xlink:href="#B1lJKea3k-_pad-11"/><use x="200650" y="-148290" xlink:href="#B1lJKea3k-_pad-12"/><use x="200650" y="-153370" xlink:href="#B1lJKea3k-_pad-13"/><use x="198110" y="-148290" xlink:href="#B1lJKea3k-_pad-14"/><use x="198110" y="-153370" xlink:href="#B1lJKea3k-_pad-14"/><use x="223510" y="-148290" xlink:href="#B1lJKea3k-_pad-12"/><use x="223510" y="-153370" xlink:href="#B1lJKea3k-_pad-13"/><use x="226050" y="-147655" xlink:href="#B1lJKea3k-_pad-14"/><use x="226050" y="-154005" xlink:href="#B1lJKea3k-_pad-14"/><use x="226050" y="-150830" xlink:href="#B1lJKea3k-_pad-15"/><use x="219192" y="-150830" xlink:href="#B1lJKea3k-_pad-16"/><use x="219192" y="-153370" xlink:href="#B1lJKea3k-_pad-17"/><use x="219192" y="-148290" xlink:href="#B1lJKea3k-_pad-16"/><use x="204714" y="-154640" xlink:href="#B1lJKea3k-_pad-17"/><use x="204714" y="-147020" xlink:href="#B1lJKea3k-_pad-16"/><use x="208270" y="-147020" xlink:href="#B1lJKea3k-_pad-17"/><use x="208270" y="-154640" xlink:href="#B1lJKea3k-_pad-16"/><use x="211826" y="-147020" xlink:href="#B1lJKea3k-_pad-17"/><use x="211826" y="-154640" xlink:href="#B1lJKea3k-_pad-16"/></g><g id="pcb-stackup_bottom_ss"><path fill="none" stroke-width="200" d="M215689.881-151352.381l-125 1000m119.047-952.381l101.191-47.619h190.477l89.285 47.619 41.667 47.619 35.714 95.238-35.714 285.715-59.524 95.238-53.571 47.619-101.191 47.619h-190.477l-89.285-47.619m-785.715-571.429l101.191-47.619h190.477l89.285 47.619 35.714 95.238-47.619 380.953-59.523 95.238-101.191 47.619h-190.477l-89.285-47.619-35.715-95.238 11.905-95.239 488.096-95.238m-803.572 333.334h-380.952m321.429-666.667l-107.143 857.143-59.524 95.238-101.19 47.619h-95.238m-291.668-333.333l125-1000m-119.047 952.381l-101.191 47.619h-190.477l-89.285-47.619-41.667-47.619-35.714-95.238 35.714-285.715 59.524-95.238 53.571-47.619 101.191-47.619h190.477l89.285 47.619m-898.809-47.619l-83.334 666.667m23.81-190.476l-59.524 95.238-53.571 47.619-101.191 47.619h-95.239m-392.856-666.667l89.285 47.619 41.667 47.619 35.714 95.238-35.714 285.715-59.524 95.238-53.571 47.619-101.191 47.619h-142.858l-89.285-47.619-41.667-47.619-35.714-95.238 35.714-285.715 59.524-95.238 53.571-47.619 101.191-47.619h142.858m-1196.43 47.619l101.191-47.619h190.477l89.285 47.619 41.667 47.619 35.714 95.238-35.714 285.715-59.524 95.238-53.571 47.619-101.191 47.619h-190.477l-89.285-47.619m-363.095-523.81l-41.667-47.619 53.572-47.619 41.666 47.619-53.571 47.619 11.905-95.238m-910.715 47.619l101.191-47.619h190.477l89.285 47.619 41.667 47.619 35.714 95.238-35.714 285.715-59.524 95.238-53.571 47.619-101.191 47.619h-190.477l-89.285-47.619m-494.047-619.048l89.285 47.619 41.667 47.619 35.714 95.238-35.714 285.715-59.524 95.238-53.571 47.619-101.191 47.619h-142.858l-89.285-47.619-41.667-47.619-35.714-95.238 35.714-285.715 59.524-95.238 53.571-47.619 101.191-47.619h142.858m-773.81 95.238l-41.667-47.619 53.572-47.619 41.666 47.619-53.571 47.619 11.905-95.238m-988.096 666.667l83.334-666.667m345.238 666.667l65.476-523.81-35.714-95.238-89.285-47.619h-142.858l-101.191 47.619-53.571 47.619m-464.285-95.238l-125 1000m-17.857-619.048l-238.096-380.952m-83.334 666.667l428.572-380.953m-1619.048 761.905l1017.858-1285.714m-1303.572 904.762l125-1000m-119.047 952.381l-101.191 47.619h-190.477l-89.285-47.619-41.667-47.619-35.714-95.238 35.714-285.715 59.524-95.238 53.571-47.619 101.191-47.619h190.477l89.285 47.619m-1744.048 1000l1017.858-1285.714m-1303.572 904.762l125-1000m-119.047 952.381l-101.191 47.619h-190.477l-89.285-47.619-41.667-47.619-35.714-95.238 35.714-285.715 59.524-95.238 53.571-47.619 101.191-47.619h190.477l89.285 47.619m-898.809-47.619l-83.334 666.667m-41.666 333.333l53.571-47.619-41.667-47.619-53.571 47.619 41.667 47.619 11.904-95.238m-750-857.143l101.191-47.619h190.477l89.285 47.619 35.714 95.238-47.619 380.953-59.523 95.238-101.191 47.619h-190.477l-89.285-47.619-35.715-95.238 11.905-95.239 488.096-95.238m-851.191 333.334h-523.81l607.144-666.667h-523.81m-523.809 0l89.285 47.619 41.667 47.619 35.714 95.238-35.714 285.715-59.524 95.238-53.571 47.619-101.191 47.619h-142.858l-89.285-47.619-41.667-47.619-35.714-95.238 35.714-285.715 59.524-95.238 53.571-47.619 101.191-47.619h142.858m16066.668 1800l-125 1000h-380.953l-89.286-47.619-41.667-47.619-35.714-95.238 17.857-142.857 59.524-95.238 53.571-47.619 101.191-47.619h380.953m-940.476-476.191l-83.334 666.667m-41.666 333.333l53.571-47.619-41.667-47.619-53.571 47.619 41.667 47.619 11.904-95.238m-750-857.143l101.191-47.619h190.477l89.285 47.619 35.714 95.238-47.619 380.953-59.523 95.238-101.191 47.619h-190.477l-89.285-47.619-35.715-95.238 11.905-95.239 488.096-95.238m-851.191 333.334h-523.81l607.144-666.667h-523.81m-523.809 0l89.285 47.619 41.667 47.619 35.714 95.238-35.714 285.715-59.524 95.238-53.571 47.619-101.191 47.619h-142.858l-89.285-47.619-41.667-47.619-35.714-95.238 35.714-285.715 59.524-95.238 53.571-47.619 101.191-47.619h142.858m-1482.144 47.619l-136.904-47.619h-238.096l-101.191 47.619-53.571 47.619-59.524 95.238-11.905 95.238 35.715 95.238 41.666 47.619 89.286 47.62 184.524 47.619 89.286 47.619 41.667 47.619 35.714 95.238-11.905 95.238-59.524 95.238-53.571 47.619-101.19 47.619h-238.096l-136.905-47.619m-696.429-904.762l101.191-47.619h190.477l89.285 47.619 35.714 95.238-47.619 380.953-59.523 95.238-101.191 47.619h-190.477l-89.285-47.619-35.715-95.238 11.905-95.239 488.096-95.238m-946.429 333.334l83.334-666.667m-71.429 571.429l-53.571 47.619-101.191 47.619h-142.858l-89.285-47.619-35.715-95.238 65.477-523.81m-434.524 47.619l-89.285-47.619h-190.476l-101.192 47.619-59.524 95.238-5.952 47.619 35.714 95.238 89.287 47.619h142.857l89.286 47.619 35.714 95.239-5.953 47.619-59.523 95.238-101.191 47.619h-142.857l-89.286-47.619m-541.666-619.048l89.285 47.619 41.667 47.619 35.714 95.238-35.714 285.715-59.524 95.238-53.571 47.619-101.191 47.619h-142.858l-89.285-47.619-41.667-47.619-35.714-95.238 35.714-285.715 59.524-95.238 53.571-47.619 101.191-47.619h142.858m-761.905 0l-83.334 666.667m23.81-190.476l-59.524 95.238-53.571 47.619-101.191 47.619h-95.239m18183.929 2480.952l-142.857-47.619h-238.096l-95.238 47.619-47.619 47.619-47.619 95.238v95.238l47.619 95.238 47.619 47.619 95.238 47.62 190.477 47.619 95.238 47.619 47.619 47.619 47.619 95.238v95.238l-47.619 95.238-47.619 47.619-95.238 47.619h-238.096l-142.857-47.619m-428.571-952.381v1000m-1000-47.619l95.238 47.619h142.857l142.858-47.619 95.238-95.238 47.619-95.238 47.619-190.476v-142.858l-47.619-190.476-47.619-95.238-95.238-95.238-142.858-47.619h-95.238l-142.857 47.619-47.619 47.619v333.333h190.476m1595.238-9476.19l95.238 47.619h142.857l142.858-47.619 95.238-95.238 47.619-95.238 47.619-190.476v-142.858l-47.619-190.476-47.619-95.238-95.238-95.238-142.858-47.619h-95.238l-142.857 47.619-47.619 47.619v333.333h190.476m-619.047-428.571v1000l-571.429-1000v1000m-476.19-1000v1000H222500l-142.858-47.619-95.238-95.238-47.619-95.238-47.619-190.476v-142.858l47.619-190.476 47.619-95.238 95.238-95.238 142.858-47.619h238.095m-6805.356 3300l-83.334 666.667m23.81-190.476l-59.524 95.238-53.571 47.619-101.191 47.619h-95.239m-636.905-619.048l101.191-47.619h190.477l89.285 47.619 35.714 95.238-47.619 380.953-59.523 95.238-101.191 47.619h-190.477l-89.285-47.619-35.715-95.238 11.905-95.239 488.096-95.238m-851.191 333.334l-154.761-666.667-321.43 666.667m-309.523-571.429l-41.667-47.619 53.572-47.619 41.666 47.619-53.571 47.619 11.905-95.238m-1303.572 904.762l-53.571 47.619-101.19 47.619h-238.096l-89.286-47.619-41.667-47.619-35.714-95.238 11.905-95.238 65.476-142.857 642.858-571.429h-619.048"/></g><g id="pcb-stackup_bottom_drl1"><use x="215128" y="-147020" xlink:href="#Hk8kKg631Z_pad-1"/><use x="215128" y="-154640" xlink:href="#Hk8kKg631Z_pad-1"/><use x="219192" y="-148290" xlink:href="#Hk8kKg631Z_pad-1"/><use x="219192" y="-150830" xlink:href="#Hk8kKg631Z_pad-1"/><use x="219192" y="-153370" xlink:href="#Hk8kKg631Z_pad-1"/><use x="200650" y="-148290" xlink:href="#Hk8kKg631Z_pad-2"/><use x="200650" y="-153370" xlink:href="#Hk8kKg631Z_pad-2"/><use x="204714" y="-147020" xlink:href="#Hk8kKg631Z_pad-2"/><use x="204714" y="-154640" xlink:href="#Hk8kKg631Z_pad-2"/><use x="208270" y="-147020" xlink:href="#Hk8kKg631Z_pad-2"/><use x="208270" y="-154640" xlink:href="#Hk8kKg631Z_pad-2"/><use x="211826" y="-147020" xlink:href="#Hk8kKg631Z_pad-2"/><use x="211826" y="-154640" xlink:href="#Hk8kKg631Z_pad-2"/><use x="223510" y="-148290" xlink:href="#Hk8kKg631Z_pad-2"/><use x="223510" y="-153370" xlink:href="#Hk8kKg631Z_pad-2"/><use x="198110" y="-148290" xlink:href="#Hk8kKg631Z_pad-3"/><use x="198110" y="-153370" xlink:href="#Hk8kKg631Z_pad-3"/><use x="226050" y="-147655" xlink:href="#Hk8kKg631Z_pad-3"/><use x="226050" y="-154005" xlink:href="#Hk8kKg631Z_pad-3"/><use x="226050" y="-150830" xlink:href="#Hk8kKg631Z_pad-4"/></g><clipPath id="pcb-stackup_bottom_out"><path fill="none" stroke-width="200" d="M238500-149500v-3000a5000 5000 0 0 0-5000-5000h-42500a5000 5000 0 0 0-5000 5000v3000a5000 5000 0 0 0 5000 5000h42500a5000 5000 0 0 0 5000-5000m-3500-1500a3000 3000 0 0 1-6000 0 3000 3000 0 0 1 6000 0m-40000 0a3000 3000 0 0 1-6000 0 3000 3000 0 0 1 6000 0"/></clipPath><mask id="pcb-stackup_bottom_mech-mask"><g stroke="#000"><path fill="#fff" d="M186000-157500h52500v13000h-52500z"/><use xlink:href="#pcb-stackup_bottom_drl1"/></g></mask><mask id="pcb-stackup_bottom_cf-mask"><g fill="#fff" stroke="#fff"><use xlink:href="#pcb-stackup_bottom_sm"/></g></mask><mask id="pcb-stackup_bottom_sm-mask"><g stroke="#000"><path fill="#fff" d="M186000-157500h52500v13000h-52500z"/><use xlink:href="#pcb-stackup_bottom_sm"/></g></mask></defs><g><g mask="url(#pcb-stackup_bottom_mech-mask)" clip-path="url(#pcb-stackup_bottom_out)" transform="rotate(180 212250 -151000)"><path fill="currentColor" d="M186000-157500h52500v13000h-52500z" class="pcb-stackup_fr4"/><use fill="currentColor" stroke="currentColor" xlink:href="#pcb-stackup_bottom_cu" class="pcb-stackup_cu"/><use fill="currentColor" stroke="currentColor" xlink:href="#pcb-stackup_bottom_cu" class="pcb-stackup_cf" mask="url(#pcb-stackup_bottom_cf-mask)"/><g mask="url(#pcb-stackup_bottom_sm-mask)"><path fill="currentColor" d="M186000-157500h52500v13000h-52500z" class="pcb-stackup_sm"/><use fill="currentColor" stroke="currentColor" xlink:href="#pcb-stackup_bottom_ss" class="pcb-stackup_ss"/></g></g></g></svg>