<svg xmlns="http://www.w3.org/2000/svg" id="pcb-stackup_top" fill-rule="evenodd" stroke-width="0" stroke-linecap="round" stroke-linejoin="round" xmlns:xlink="http://www.w3.org/1999/xlink" clip-rule="evenodd" viewBox="186000 -157500 52500 13000"><defs><style>.pcb-stackup_fr4 {color: #4D542C;} .pcb-stackup_cu {color: lightgrey;} .pcb-stackup_cf {color: silver;} .pcb-stackup_sm {color: #000000; opacity: 0.9;} .pcb-stackup_ss {color: white;} .pcb-stackup_sp {color: #000000; opacity: 0;} .pcb-stackup_out {color: black;}</style><circle id="HkQkYl6hJ-_pad-11" r="698.5"/><circle id="HkQkYl6hJ-_pad-12" r="1125"/><path id="HkQkYl6hJ-_pad-13" d="M-1000-1000h2000v2000h-2000z"/><circle id="HkQkYl6hJ-_pad-14" r="875"/><path id="HkQkYl6hJ-_pad-15" d="M-875-875H875V875H-875z"/><circle id="HkQkYl6hJ-_pad-11" r="698.5"/><circle id="HkQkYl6hJ-_pad-12" r="1125"/><path id="HkQkYl6hJ-_pad-13" d="M-1000-1000h2000v2000h-2000z"/><circle id="HkQkYl6hJ-_pad-14" r="875"/><path id="HkQkYl6hJ-_pad-15" d="M-875-875H875V875H-875z"/><circle id="ByEJFlahJb_pad-11" r="698.5"/><circle id="ByEJFlahJb_pad-12" r="1125"/><path id="ByEJFlahJb_pad-13" d="M-1200-1200h2400v2400h-2400z"/><circle id="ByEJFlahJb_pad-14" r="750"/><circle id="ByEJFlahJb_pad-15" r="1500"/><circle id="ByEJFlahJb_pad-16" r="875"/><path id="ByEJFlahJb_pad-17" d="M-875-875H875V875H-875z"/><circle id="HkQkYl6hJ-_pad-11" r="698.5"/><circle id="HkQkYl6hJ-_pad-12" r="1125"/><path id="HkQkYl6hJ-_pad-13" d="M-1000-1000h2000v2000h-2000z"/><circle id="HkQkYl6hJ-_pad-14" r="875"/><path id="HkQkYl6hJ-_pad-15" d="M-875-875H875V875H-875z"/><circle id="HkQkYl6hJ-_pad-11" r="698.5"/><circle id="HkQkYl6hJ-_pad-12" r="1125"/><path id="HkQkYl6hJ-_pad-13" d="M-1000-1000h2000v2000h-2000z"/><circle id="HkQkYl6hJ-_pad-14" r="875"/><path id="HkQkYl6hJ-_pad-15" d="M-875-875H875V875H-875z"/><circle id="ByEJFlahJb_pad-11" r="698.5"/><circle id="ByEJFlahJb_pad-12" r="1125"/><path id="ByEJFlahJb_pad-13" d="M-1200-1200h2400v2400h-2400z"/><circle id="ByEJFlahJb_pad-14" r="750"/><circle id="ByEJFlahJb_pad-15" r="1500"/><circle id="ByEJFlahJb_pad-16" r="875"/><path id="ByEJFlahJb_pad-17" d="M-875-875H875V875H-875z"/><circle id="HkQkYl6hJ-_pad-11" r="698.5"/><circle id="HkQkYl6hJ-_pad-12" r="1125"/><path id="HkQkYl6hJ-_pad-13" d="M-1000-1000h2000v2000h-2000z"/><circle id="HkQkYl6hJ-_pad-14" r="875"/><path id="HkQkYl6hJ-_pad-15" d="M-875-875H875V875H-875z"/><circle id="HkQkYl6hJ-_pad-11" r="698.5"/><circle id="HkQkYl6hJ-_pad-12" r="1125"/><path id="HkQkYl6hJ-_pad-13" d="M-1000-1000h2000v2000h-2000z"/><circle id="HkQkYl6hJ-_pad-14" r="875"/><path id="HkQkYl6hJ-_pad-15" d="M-875-875H875V875H-875z"/><circle id="ByEJFlahJb_pad-11" r="698.5"/><circle id="ByEJFlahJb_pad-12" r="1125"/><path id="ByEJFlahJb_pad-13" d="M-1200-1200h2400v2400h-2400z"/><circle id="ByEJFlahJb_pad-14" r="750"/><circle id="ByEJFlahJb_pad-15" r="1500"/><circle id="ByEJFlahJb_pad-16" r="875"/><path id="ByEJFlahJb_pad-17" d="M-875-875H875V875H-875z"/><circle id="HkQkYl6hJ-_pad-11" r="698.5"/><circle id="HkQkYl6hJ-_pad-12" r="1125"/><path id="HkQkYl6hJ-_pad-13" d="M-1000-1000h2000v2000h-2000z"/><circle id="HkQkYl6hJ-_pad-14" r="875"/><path id="HkQkYl6hJ-_pad-15" d="M-875-875H875V875H-875z"/><circle id="HkQkYl6hJ-_pad-11" r="698.5"/><circle id="HkQkYl6hJ-_pad-12" r="1125"/><path id="HkQkYl6hJ-_pad-13" d="M-1000-1000h2000v2000h-2000z"/><circle id="HkQkYl6hJ-_pad-14" r="875"/><path id="HkQkYl6hJ-_pad-15" d="M-875-875H875V875H-875z"/><circle id="ByEJFlahJb_pad-11" r="698.5"/><circle id="ByEJFlahJb_pad-12" r="1125"/><path id="ByEJFlahJb_pad-13" d="M-1200-1200h2400v2400h-2400z"/><circle id="ByEJFlahJb_pad-14" r="750"/><circle id="ByEJFlahJb_pad-15" r="1500"/><circle id="ByEJFlahJb_pad-16" r="875"/><path id="ByEJFlahJb_pad-17" d="M-875-875H875V875H-875z"/><circle id="Hk8kKg631Z_pad-1" r="406.5"/><circle id="Hk8kKg631Z_pad-2" r="500"/><circle id="Hk8kKg631Z_pad-3" r="750"/><circle id="Hk8kKg631Z_pad-4" r="1500"/><circle id="HkQkYl6hJ-_pad-11" r="698.5"/><circle id="HkQkYl6hJ-_pad-12" r="1125"/><path id="HkQkYl6hJ-_pad-13" d="M-1000-1000h2000v2000h-2000z"/><circle id="HkQkYl6hJ-_pad-14" r="875"/><path id="HkQkYl6hJ-_pad-15" d="M-875-875H875V875H-875z"/><circle id="HkQkYl6hJ-_pad-11" r="698.5"/><circle id="HkQkYl6hJ-_pad-12" r="1125"/><path id="HkQkYl6hJ-_pad-13" d="M-1000-1000h2000v2000h-2000z"/><circle id="HkQkYl6hJ-_pad-14" r="875"/><path id="HkQkYl6hJ-_pad-15" d="M-875-875H875V875H-875z"/><circle id="ByEJFlahJb_pad-11" r="698.5"/><circle id="ByEJFlahJb_pad-12" r="1125"/><path id="ByEJFlahJb_pad-13" d="M-1200-1200h2400v2400h-2400z"/><circle id="ByEJFlahJb_pad-14" r="750"/><circle id="ByEJFlahJb_pad-15" r="1500"/><circle id="ByEJFlahJb_pad-16" r="875"/><path id="ByEJFlahJb_pad-17" d="M-875-875H875V875H-875z"/><circle id="HkQkYl6hJ-_pad-11" r="698.5"/><circle id="HkQkYl6hJ-_pad-12" r="1125"/><path id="HkQkYl6hJ-_pad-13" d="M-1000-1000h2000v2000h-2000z"/><circle id="HkQkYl6hJ-_pad-14" r="875"/><path id="HkQkYl6hJ-_pad-15" d="M-875-875H875V875H-875z"/><circle id="HkQkYl6hJ-_pad-11" r="698.5"/><circle id="HkQkYl6hJ-_pad-12" r="1125"/><path id="HkQkYl6hJ-_pad-13" d="M-1000-1000h2000v2000h-2000z"/><circle id="HkQkYl6hJ-_pad-14" r="875"/><path id="HkQkYl6hJ-_pad-15" d="M-875-875H875V875H-875z"/><circle id="ByEJFlahJb_pad-11" r="698.5"/><circle id="ByEJFlahJb_pad-12" r="1125"/><path id="ByEJFlahJb_pad-13" d="M-1200-1200h2400v2400h-2400z"/><circle id="ByEJFlahJb_pad-14" r="750"/><circle id="ByEJFlahJb_pad-15" r="1500"/><circle id="ByEJFlahJb_pad-16" r="875"/><path id="ByEJFlahJb_pad-17" d="M-875-875H875V875H-875z"/><circle id="HkQkYl6hJ-_pad-11" r="698.5"/><circle id="HkQkYl6hJ-_pad-12" r="1125"/><path id="HkQkYl6hJ-_pad-13" d="M-1000-1000h2000v2000h-2000z"/><circle id="HkQkYl6hJ-_pad-14" r="875"/><path id="HkQkYl6hJ-_pad-15" d="M-875-875H875V875H-875z"/><circle id="HkQkYl6hJ-_pad-11" r="698.5"/><circle id="HkQkYl6hJ-_pad-12" r="1125"/><path id="HkQkYl6hJ-_pad-13" d="M-1000-1000h2000v2000h-2000z"/><circle id="HkQkYl6hJ-_pad-14" r="875"/><path id="HkQkYl6hJ-_pad-15" d="M-875-875H875V875H-875z"/><circle id="ByEJFlahJb_pad-11" r="698.5"/><circle id="ByEJFlahJb_pad-12" r="1125"/><path id="ByEJFlahJb_pad-13" d="M-1200-1200h2400v2400h-2400z"/><circle id="ByEJFlahJb_pad-14" r="750"/><circle id="ByEJFlahJb_pad-15" r="1500"/><circle id="ByEJFlahJb_pad-16" r="875"/><path id="ByEJFlahJb_pad-17" d="M-875-875H875V875H-875z"/><circle id="HkQkYl6hJ-_pad-11" r="698.5"/><circle id="HkQkYl6hJ-_pad-12" r="1125"/><path id="HkQkYl6hJ-_pad-13" d="M-1000-1000h2000v2000h-2000z"/><circle id="HkQkYl6hJ-_pad-14" r="875"/><path id="HkQkYl6hJ-_pad-15" d="M-875-875H875V875H-875z"/><circle id="HkQkYl6hJ-_pad-11" r="698.5"/><circle id="HkQkYl6hJ-_pad-12" r="1125"/><path id="HkQkYl6hJ-_pad-13" d="M-1000-1000h2000v2000h-2000z"/><circle id="HkQkYl6hJ-_pad-14" r="875"/><path id="HkQkYl6hJ-_pad-15" d="M-875-875H875V875H-875z"/><circle id="ByEJFlahJb_pad-11" r="698.5"/><circle id="ByEJFlahJb_pad-12" r="1125"/><path id="ByEJFlahJb_pad-13" d="M-1200-1200h2400v2400h-2400z"/><circle id="ByEJFlahJb_pad-14" r="750"/><circle id="ByEJFlahJb_pad-15" r="1500"/><circle id="ByEJFlahJb_pad-16" r="875"/><path id="ByEJFlahJb_pad-17" d="M-875-875H875V875H-875z"/><circle id="Hk8kKg631Z_pad-1" r="406.5"/><circle id="Hk8kKg631Z_pad-2" r="500"/><circle id="Hk8kKg631Z_pad-3" r="750"/><circle id="Hk8kKg631Z_pad-4" r="1500"/><g id="pcb-stackup_top_cu"><use x="215128" y="-147020" xlink:href="#HkQkYl6hJ-_pad-11"/><use x="215128" y="-154640" xlink:href="#HkQkYl6hJ-_pad-11"/><use x="200650" y="-148290" xlink:href="#HkQkYl6hJ-_pad-12"/><use x="200650" y="-153370" xlink:href="#HkQkYl6hJ-_pad-13"/><use x="223510" y="-148290" xlink:href="#HkQkYl6hJ-_pad-12"/><use x="223510" y="-153370" xlink:href="#HkQkYl6hJ-_pad-13"/><use x="219192" y="-150830" xlink:href="#HkQkYl6hJ-_pad-14"/><use x="219192" y="-153370" xlink:href="#HkQkYl6hJ-_pad-15"/><use x="219192" y="-148290" xlink:href="#HkQkYl6hJ-_pad-14"/><use x="204714" y="-154640" xlink:href="#HkQkYl6hJ-_pad-15"/><use x="204714" y="-147020" xlink:href="#HkQkYl6hJ-_pad-14"/><use x="208270" y="-147020" xlink:href="#HkQkYl6hJ-_pad-15"/><use x="208270" y="-154640" xlink:href="#HkQkYl6hJ-_pad-14"/><use x="211826" y="-147020" xlink:href="#HkQkYl6hJ-_pad-15"/><use x="211826" y="-154640" xlink:href="#HkQkYl6hJ-_pad-14"/><path fill="none" stroke-width="520" d="M219192-148290v-2540m-14478-3810v2032m3556 3302v2286m-3556-5588l3556 3302"/></g><g id="pcb-stackup_top_sm"><use x="215128" y="-147020" xlink:href="#ByEJFlahJb_pad-11"/><use x="215128" y="-154640" xlink:href="#ByEJFlahJb_pad-11"/><use x="200650" y="-148290" xlink:href="#ByEJFlahJb_pad-12"/><use x="200650" y="-153370" xlink:href="#ByEJFlahJb_pad-13"/><use x="198110" y="-148290" xlink:href="#ByEJFlahJb_pad-14"/><use x="198110" y="-153370" xlink:href="#ByEJFlahJb_pad-14"/><use x="223510" y="-148290" xlink:href="#ByEJFlahJb_pad-12"/><use x="223510" y="-153370" xlink:href="#ByEJFlahJb_pad-13"/><use x="226050" y="-147655" xlink:href="#ByEJFlahJb_pad-14"/><use x="226050" y="-154005" xlink:href="#ByEJFlahJb_pad-14"/><use x="226050" y="-150830" xlink:href="#ByEJFlahJb_pad-15"/><use x="219192" y="-150830" xlink:href="#ByEJFlahJb_pad-16"/><use x="219192" y="-153370" xlink:href="#ByEJFlahJb_pad-17"/><use x="219192" y="-148290" xlink:href="#ByEJFlahJb_pad-16"/><use x="204714" y="-154640" xlink:href="#ByEJFlahJb_pad-17"/><use x="204714" y="-147020" xlink:href="#ByEJFlahJb_pad-16"/><use x="208270" y="-147020" xlink:href="#ByEJFlahJb_pad-17"/><use x="208270" y="-154640" xlink:href="#ByEJFlahJb_pad-16"/><use x="211826" y="-147020" xlink:href="#ByEJFlahJb_pad-17"/><use x="211826" y="-154640" xlink:href="#ByEJFlahJb_pad-16"/></g><g id="pcb-stackup_top_ss"><path fill="none" stroke-width="200" d="M222476.191-145904.762l142.857-47.619h238.096l95.238 47.619 47.619 47.619 47.619 95.238v95.238l-47.619 95.238-47.619 47.619-95.238 47.62-190.477 47.619-95.238 47.619-47.619 47.619-47.619 95.238v95.238l47.619 95.238 47.619 47.619 95.238 47.619h238.096l142.857-47.619m428.571-952.381v1000m1000-47.619l-95.238 47.619h-142.857l-142.858-47.619-95.238-95.238-47.619-95.238-47.619-190.476v-142.858l47.619-190.476 47.619-95.238 95.238-95.238 142.858-47.619h95.238l142.857 47.619 47.619 47.619v333.333h-190.476M222738.096-156000l-95.238 47.619h-142.857l-142.858-47.619-95.238-95.238-47.619-95.238-47.619-190.476v-142.858l47.619-190.476 47.619-95.238 95.238-95.238 142.858-47.619h95.238l142.857 47.619 47.619 47.619v333.333h-190.476m619.047-428.571v1000l571.429-1000v1000m476.19-1000v1000H224500l142.858-47.619 95.238-95.238 47.619-95.238 47.619-190.476v-142.858l-47.619-190.476-47.619-95.238-95.238-95.238-142.858-47.619h-238.095"/><path fill="none" stroke-width="203.2" d="M215128-147020v-508m0-7112v508h1016v6604h-2032v-6604h1016m508 6604l508-508"/><path fill="none" stroke-width="150" d="M202110-146330v-9000h-5500v9000h5500m25400 0v-9000h-5500v9000h5500m-9818-1960v-5080m3000 5080v-5080m0 5080a1500 1500 0 0 1-3000 0m0-5080a1500 1500 0 0 1 3000 0"/><path fill="none" stroke-width="304.8" d="M204714-154640v762h1016v6096h-1016v762m0-762h-1016v-6096h1016m1016 508h-2032m0 254h2032m2540 6096v-762h-1016v-6096h1016v-762m0 762h1016v6096h-1016m-1016-508h2032m0-254h-2032m4572 1524v-762h-1016v-6096h1016v-762m0 762h1016v6096h-1016m-1016-508h2032m0-254h-2032"/><path fill="none" stroke-width="150" d="M215489.905-151058.571v-457.143m0 228.571h-800l114.285-76.19 76.191-76.191 38.095-76.19m571.429 800h-800l571.428 266.667-571.428 266.667h800m-17551.81-1179.525v800h304.762l76.191-38.095 38.095-38.095 38.095-76.191v-114.285l-38.095-76.191-38.095-38.095-76.191-38.095h-304.762m800-380.953v800m380.952-380.952h266.667m114.286-419.048h-380.953v800H199500m266.667 0H200300l-533.333-800H200300m457.143 800h152.381l76.191-38.095 76.19-76.19 38.095-152.381v-266.667l-38.095-152.381-76.19-76.191-76.191-38.095h-152.381l-76.19 38.095-76.191 76.191-38.095 152.381v266.667l38.095 152.381 76.191 76.19 76.19 38.095m16231.428-1391.905h533.334m-838.095-190.476l571.428-190.476v495.238m190.476 304.762l38.096 38.095 38.095-38.095-38.095-38.095-38.096 38.095h76.191m-800 304.762v533.333l800-342.857m-533.334 647.619h533.334m-457.143 0l-38.095 38.095-38.096 76.191v114.286l38.096 76.19 76.19 38.095h419.048m-419.048 647.62v-266.667m419.048 0h-800v380.953"/><path fill="none" stroke-width="200" d="M205037.81-152112.476l38.095 114.286v190.476l-38.095 76.19-38.096 38.096-76.19 38.095h-76.191l-76.19-38.095-38.095-38.096-38.096-76.19-38.095-152.381-38.095-76.191-38.095-38.095-76.191-38.095h-76.19l-76.191 38.095-38.095 38.095-38.095 76.191v190.476l38.095 114.286m685.714 800l38.096-38.095 38.095-114.286v-76.19l-38.095-114.286-76.191-76.191-76.19-38.095-152.381-38.095h-114.286l-152.381 38.095-76.191 38.095-76.19 76.191-38.095 114.286v76.19l38.095 114.286 38.095 38.095m723.81 342.857h-800m380.952 0v457.143m419.048 0h-800m800 380.952h-800m800 457.143l-457.143-342.857m-342.857 342.857l457.143-457.143m-38.096 952.381h380.953m-800-266.667l419.047 266.667-419.047 266.667m4317.905-4673.143l38.095 114.286v190.476l-38.095 76.19-38.096 38.096-76.19 38.095h-76.191l-76.19-38.095-38.095-38.096-38.096-76.19-38.095-152.381-38.095-76.191-38.095-38.095-76.191-38.095h-76.19l-76.191 38.095-38.095 38.095-38.095 76.191v190.476l38.095 114.286m685.714 800l38.096-38.095 38.095-114.286v-76.19l-38.095-114.286-76.191-76.191-76.19-38.095-152.381-38.095h-114.286l-152.381 38.095-76.191 38.095-76.19 76.191-38.095 114.286v76.19l38.095 114.286 38.095 38.095m723.81 342.857h-800m380.952 0v457.143m419.048 0h-800m800 380.952h-800m800 457.143l-457.143-342.857m-342.857 342.857l457.143-457.143m-38.096 952.381h380.953m-800-266.667l419.047 266.667-419.047 266.667"/><path fill="none" stroke-width="150" d="M211397.905-153066.666v533.333l800-533.333v533.333m-800 1295.239v-380.953l380.952-38.095-38.095 38.095-38.095 76.191v190.476l38.095 76.19 38.095 38.096 76.191 38.095h190.476l76.19-38.095 38.096-38.096 38.095-76.19v-190.476l-38.095-76.191-38.096-38.095m0 800l38.096 38.095 38.095-38.095-38.095-38.095-38.096 38.095h76.191m0 800v-457.143m0 228.571h-800l114.285-76.19 76.191-76.191 38.095-76.19m-228.571 685.714l800 266.667-800 266.667"/></g><g id="pcb-stackup_top_drl1"><use x="215128" y="-147020" xlink:href="#Hk8kKg631Z_pad-1"/><use x="215128" y="-154640" xlink:href="#Hk8kKg631Z_pad-1"/><use x="219192" y="-148290" xlink:href="#Hk8kKg631Z_pad-1"/><use x="219192" y="-150830" xlink:href="#Hk8kKg631Z_pad-1"/><use x="219192" y="-153370" xlink:href="#Hk8kKg631Z_pad-1"/><use x="200650" y="-148290" xlink:href="#Hk8kKg631Z_pad-2"/><use x="200650" y="-153370" xlink:href="#Hk8kKg631Z_pad-2"/><use x="204714" y="-147020" xlink:href="#Hk8kKg631Z_pad-2"/><use x="204714" y="-154640" xlink:href="#Hk8kKg631Z_pad-2"/><use x="208270" y="-147020" xlink:href="#Hk8kKg631Z_pad-2"/><use x="208270" y="-154640" xlink:href="#Hk8kKg631Z_pad-2"/><use x="211826" y="-147020" xlink:href="#Hk8kKg631Z_pad-2"/><use x="211826" y="-154640" xlink:href="#Hk8kKg631Z_pad-2"/><use x="223510" y="-148290" xlink:href="#Hk8kKg631Z_pad-2"/><use x="223510" y="-153370" xlink:href="#Hk8kKg631Z_pad-2"/><use x="198110" y="-148290" xlink:href="#Hk8kKg631Z_pad-3"/><use x="198110" y="-153370" xlink:href="#Hk8kKg631Z_pad-3"/><use x="226050" y="-147655" xlink:href="#Hk8kKg631Z_pad-3"/><use x="226050" y="-154005" xlink:href="#Hk8kKg631Z_pad-3"/><use x="226050" y="-150830" xlink:href="#Hk8kKg631Z_pad-4"/></g><clipPath id="pcb-stackup_top_out"><path fill="none" stroke-width="200" d="M238500-149500v-3000a5000 5000 0 0 0-5000-5000h-42500a5000 5000 0 0 0-5000 5000v3000a5000 5000 0 0 0 5000 5000h42500a5000 5000 0 0 0 5000-5000m-3500-1500a3000 3000 0 0 1-6000 0 3000 3000 0 0 1 6000 0m-40000 0a3000 3000 0 0 1-6000 0 3000 3000 0 0 1 6000 0"/></clipPath><mask id="pcb-stackup_top_mech-mask"><g stroke="#000"><path fill="#fff" d="M186000-157500h52500v13000h-52500z"/><use xlink:href="#pcb-stackup_top_drl1"/></g></mask><mask id="pcb-stackup_top_cf-mask"><g fill="#fff" stroke="#fff"><use xlink:href="#pcb-stackup_top_sm"/></g></mask><mask id="pcb-stackup_top_sm-mask"><g stroke="#000"><path fill="#fff" d="M186000-157500h52500v13000h-52500z"/><use xlink:href="#pcb-stackup_top_sm"/></g></mask></defs><g><g mask="url(#pcb-stackup_top_mech-mask)" clip-path="url(#pcb-stackup_top_out)" transform="matrix(1 0 0 -1 0 -302000)"><path fill="currentColor" d="M186000-157500h52500v13000h-52500z" class="pcb-stackup_fr4"/><use fill="currentColor" stroke="currentColor" xlink:href="#pcb-stackup_top_cu" class="pcb-stackup_cu"/><use fill="currentColor" stroke="currentColor" xlink:href="#pcb-stackup_top_cu" class="pcb-stackup_cf" mask="url(#pcb-stackup_top_cf-mask)"/><g mask="url(#pcb-stackup_top_sm-mask)"><path fill="currentColor" d="M186000-157500h52500v13000h-52500z" class="pcb-stackup_sm"/><use fill="currentColor" stroke="currentColor" xlink:href="#pcb-stackup_top_ss" class="pcb-stackup_ss"/></g></g></g></svg>