<svg xmlns="http://www.w3.org/2000/svg" id="pcb-stackup_bottom" fill-rule="evenodd" stroke-width="0" stroke-linecap="round" stroke-linejoin="round" xmlns:xlink="http://www.w3.org/1999/xlink" clip-rule="evenodd" viewBox="33020 -74930 48260 50800"><defs><style>.pcb-stackup_fr4 {color: #4D542C;} .pcb-stackup_cu {color: lightgrey;} .pcb-stackup_cf {color: silver;} .pcb-stackup_sm {color: #000000; opacity: 0.9;} .pcb-stackup_ss {color: white;} .pcb-stackup_sp {color: #000000; opacity: 0;} .pcb-stackup_out {color: black;}</style><rect id="B1gAaga3JW_pad-11" width="2286" height="1574.8" x="-1143" y="-787.4" rx="787.4" ry="787.4"/><path id="B1gAaga3JW_pad-12" d="M-1143-787.4h2286V787.4h-2286z"/><circle id="B1gAaga3JW_pad-13" r="698.5"/><circle id="B1gAaga3JW_pad-14" r="999.49"/><path id="B1gAaga3JW_pad-15" d="M-999.49-999.49H999.49V999.49H-999.49z"/><rect id="B1gAaga3JW_pad-16" width="2499.36" height="1998.98" x="-1249.68" y="-999.49" rx="999.49" ry="999.49"/><rect id="B1gAaga3JW_pad-17" width="2032" height="1727.2" x="-1016" y="-863.6" rx="863.6" ry="863.6"/><path id="B1gAaga3JW_pad-18" d="M-1016-863.6h2032V863.6h-2032z"/><rect id="B1gAaga3JW_pad-19" width="2032" height="2032" x="-1016" y="-1016" rx="1016" ry="1016"/><circle id="B1gAaga3JW_pad-20" r="650"/><path id="B1gAaga3JW_pad-21" d="M-650-650H650V650H-650z"/><circle id="B1gAaga3JW_pad-22" r="838.2"/><path id="B1gAaga3JW_pad-23" d="M-4445-4445h8890v8890h-8890z"/><circle id="B1gAaga3JW_pad-24" r="889"/><path id="B1gAaga3JW_pad-25" d="M-889-889H889V889H-889z"/><circle id="B1gAaga3JW_pad-26" r="444.5"/><rect id="B1gAaga3JW_pad-11" width="2286" height="1574.8" x="-1143" y="-787.4" rx="787.4" ry="787.4"/><path id="B1gAaga3JW_pad-12" d="M-1143-787.4h2286V787.4h-2286z"/><circle id="B1gAaga3JW_pad-13" r="698.5"/><circle id="B1gAaga3JW_pad-14" r="999.49"/><path id="B1gAaga3JW_pad-15" d="M-999.49-999.49H999.49V999.49H-999.49z"/><rect id="B1gAaga3JW_pad-16" width="2499.36" height="1998.98" x="-1249.68" y="-999.49" rx="999.49" ry="999.49"/><rect id="B1gAaga3JW_pad-17" width="2032" height="1727.2" x="-1016" y="-863.6" rx="863.6" ry="863.6"/><path id="B1gAaga3JW_pad-18" d="M-1016-863.6h2032V863.6h-2032z"/><rect id="B1gAaga3JW_pad-19" width="2032" height="2032" x="-1016" y="-1016" rx="1016" ry="1016"/><circle id="B1gAaga3JW_pad-20" r="650"/><path id="B1gAaga3JW_pad-21" d="M-650-650H650V650H-650z"/><circle id="B1gAaga3JW_pad-22" r="838.2"/><path id="B1gAaga3JW_pad-23" d="M-4445-4445h8890v8890h-8890z"/><circle id="B1gAaga3JW_pad-24" r="889"/><path id="B1gAaga3JW_pad-25" d="M-889-889H889V889H-889z"/><circle id="B1gAaga3JW_pad-26" r="444.5"/><rect id="S1b0pepnkZ_pad-11" width="2286" height="1574.8" x="-1143" y="-787.4" rx="787.4" ry="787.4"/><path id="S1b0pepnkZ_pad-12" d="M-1143-787.4h2286V787.4h-2286z"/><circle id="S1b0pepnkZ_pad-13" r="698.5"/><circle id="S1b0pepnkZ_pad-14" r="999.49"/><path id="S1b0pepnkZ_pad-15" d="M-999.49-999.49H999.49V999.49H-999.49z"/><rect id="S1b0pepnkZ_pad-16" width="2499.36" height="1998.98" x="-1249.68" y="-999.49" rx="999.49" ry="999.49"/><rect id="S1b0pepnkZ_pad-17" width="2032" height="1727.2" x="-1016" y="-863.6" rx="863.6" ry="863.6"/><path id="S1b0pepnkZ_pad-18" d="M-1016-863.6h2032V863.6h-2032z"/><rect id="S1b0pepnkZ_pad-19" width="2032" height="2032" x="-1016" y="-1016" rx="1016" ry="1016"/><circle id="S1b0pepnkZ_pad-20" r="650"/><path id="S1b0pepnkZ_pad-21" d="M-650-650H650V650H-650z"/><circle id="S1b0pepnkZ_pad-22" r="838.2"/><path id="S1b0pepnkZ_pad-23" d="M-4445-4445h8890v8890h-8890z"/><circle id="S1b0pepnkZ_pad-24" r="889"/><path id="S1b0pepnkZ_pad-25" d="M-889-889H889V889H-889z"/><rect id="B1gAaga3JW_pad-11" width="2286" height="1574.8" x="-1143" y="-787.4" rx="787.4" ry="787.4"/><path id="B1gAaga3JW_pad-12" d="M-1143-787.4h2286V787.4h-2286z"/><circle id="B1gAaga3JW_pad-13" r="698.5"/><circle id="B1gAaga3JW_pad-14" r="999.49"/><path id="B1gAaga3JW_pad-15" d="M-999.49-999.49H999.49V999.49H-999.49z"/><rect id="B1gAaga3JW_pad-16" width="2499.36" height="1998.98" x="-1249.68" y="-999.49" rx="999.49" ry="999.49"/><rect id="B1gAaga3JW_pad-17" width="2032" height="1727.2" x="-1016" y="-863.6" rx="863.6" ry="863.6"/><path id="B1gAaga3JW_pad-18" d="M-1016-863.6h2032V863.6h-2032z"/><rect id="B1gAaga3JW_pad-19" width="2032" height="2032" x="-1016" y="-1016" rx="1016" ry="1016"/><circle id="B1gAaga3JW_pad-20" r="650"/><path id="B1gAaga3JW_pad-21" d="M-650-650H650V650H-650z"/><circle id="B1gAaga3JW_pad-22" r="838.2"/><path id="B1gAaga3JW_pad-23" d="M-4445-4445h8890v8890h-8890z"/><circle id="B1gAaga3JW_pad-24" r="889"/><path id="B1gAaga3JW_pad-25" d="M-889-889H889V889H-889z"/><circle id="B1gAaga3JW_pad-26" r="444.5"/><rect id="B1gAaga3JW_pad-11" width="2286" height="1574.8" x="-1143" y="-787.4" rx="787.4" ry="787.4"/><path id="B1gAaga3JW_pad-12" d="M-1143-787.4h2286V787.4h-2286z"/><circle id="B1gAaga3JW_pad-13" r="698.5"/><circle id="B1gAaga3JW_pad-14" r="999.49"/><path id="B1gAaga3JW_pad-15" d="M-999.49-999.49H999.49V999.49H-999.49z"/><rect id="B1gAaga3JW_pad-16" width="2499.36" height="1998.98" x="-1249.68" y="-999.49" rx="999.49" ry="999.49"/><rect id="B1gAaga3JW_pad-17" width="2032" height="1727.2" x="-1016" y="-863.6" rx="863.6" ry="863.6"/><path id="B1gAaga3JW_pad-18" d="M-1016-863.6h2032V863.6h-2032z"/><rect id="B1gAaga3JW_pad-19" width="2032" height="2032" x="-1016" y="-1016" rx="1016" ry="1016"/><circle id="B1gAaga3JW_pad-20" r="650"/><path id="B1gAaga3JW_pad-21" d="M-650-650H650V650H-650z"/><circle id="B1gAaga3JW_pad-22" r="838.2"/><path id="B1gAaga3JW_pad-23" d="M-4445-4445h8890v8890h-8890z"/><circle id="B1gAaga3JW_pad-24" r="889"/><path id="B1gAaga3JW_pad-25" d="M-889-889H889V889H-889z"/><circle id="B1gAaga3JW_pad-26" r="444.5"/><rect id="S1b0pepnkZ_pad-11" width="2286" height="1574.8" x="-1143" y="-787.4" rx="787.4" ry="787.4"/><path id="S1b0pepnkZ_pad-12" d="M-1143-787.4h2286V787.4h-2286z"/><circle id="S1b0pepnkZ_pad-13" r="698.5"/><circle id="S1b0pepnkZ_pad-14" r="999.49"/><path id="S1b0pepnkZ_pad-15" d="M-999.49-999.49H999.49V999.49H-999.49z"/><rect id="S1b0pepnkZ_pad-16" width="2499.36" height="1998.98" x="-1249.68" y="-999.49" rx="999.49" ry="999.49"/><rect id="S1b0pepnkZ_pad-17" width="2032" height="1727.2" x="-1016" y="-863.6" rx="863.6" ry="863.6"/><path id="S1b0pepnkZ_pad-18" d="M-1016-863.6h2032V863.6h-2032z"/><rect id="S1b0pepnkZ_pad-19" width="2032" height="2032" x="-1016" y="-1016" rx="1016" ry="1016"/><circle id="S1b0pepnkZ_pad-20" r="650"/><path id="S1b0pepnkZ_pad-21" d="M-650-650H650V650H-650z"/><circle id="S1b0pepnkZ_pad-22" r="838.2"/><path id="S1b0pepnkZ_pad-23" d="M-4445-4445h8890v8890h-8890z"/><circle id="S1b0pepnkZ_pad-24" r="889"/><path id="S1b0pepnkZ_pad-25" d="M-889-889H889V889H-889z"/><circle id="rkPRag6nJb_pad-1" r="12.5"/><circle id="rkPRag6nJb_pad-2" r="15.5"/><circle id="rkPRag6nJb_pad-3" r="16"/><circle id="rkPRag6nJb_pad-4" r="19.5"/><circle id="rkPRag6nJb_pad-5" r="20"/><circle id="rkPRag6nJb_pad-6" r="22.5"/><circle id="rkPRag6nJb_pad-7" r="23.5"/><circle id="rkPRag6nJb_pad-8" r="25"/><circle id="rkPRag6nJb_pad-9" r="59"/><circle id="rkPRag6nJb_pad-10" r="60"/><rect id="B1gAaga3JW_pad-11" width="2286" height="1574.8" x="-1143" y="-787.4" rx="787.4" ry="787.4"/><path id="B1gAaga3JW_pad-12" d="M-1143-787.4h2286V787.4h-2286z"/><circle id="B1gAaga3JW_pad-13" r="698.5"/><circle id="B1gAaga3JW_pad-14" r="999.49"/><path id="B1gAaga3JW_pad-15" d="M-999.49-999.49H999.49V999.49H-999.49z"/><rect id="B1gAaga3JW_pad-16" width="2499.36" height="1998.98" x="-1249.68" y="-999.49" rx="999.49" ry="999.49"/><rect id="B1gAaga3JW_pad-17" width="2032" height="1727.2" x="-1016" y="-863.6" rx="863.6" ry="863.6"/><path id="B1gAaga3JW_pad-18" d="M-1016-863.6h2032V863.6h-2032z"/><rect id="B1gAaga3JW_pad-19" width="2032" height="2032" x="-1016" y="-1016" rx="1016" ry="1016"/><circle id="B1gAaga3JW_pad-20" r="650"/><path id="B1gAaga3JW_pad-21" d="M-650-650H650V650H-650z"/><circle id="B1gAaga3JW_pad-22" r="838.2"/><path id="B1gAaga3JW_pad-23" d="M-4445-4445h8890v8890h-8890z"/><circle id="B1gAaga3JW_pad-24" r="889"/><path id="B1gAaga3JW_pad-25" d="M-889-889H889V889H-889z"/><circle id="B1gAaga3JW_pad-26" r="444.5"/><rect id="B1gAaga3JW_pad-11" width="2286" height="1574.8" x="-1143" y="-787.4" rx="787.4" ry="787.4"/><path id="B1gAaga3JW_pad-12" d="M-1143-787.4h2286V787.4h-2286z"/><circle id="B1gAaga3JW_pad-13" r="698.5"/><circle id="B1gAaga3JW_pad-14" r="999.49"/><path id="B1gAaga3JW_pad-15" d="M-999.49-999.49H999.49V999.49H-999.49z"/><rect id="B1gAaga3JW_pad-16" width="2499.36" height="1998.98" x="-1249.68" y="-999.49" rx="999.49" ry="999.49"/><rect id="B1gAaga3JW_pad-17" width="2032" height="1727.2" x="-1016" y="-863.6" rx="863.6" ry="863.6"/><path id="B1gAaga3JW_pad-18" d="M-1016-863.6h2032V863.6h-2032z"/><rect id="B1gAaga3JW_pad-19" width="2032" height="2032" x="-1016" y="-1016" rx="1016" ry="1016"/><circle id="B1gAaga3JW_pad-20" r="650"/><path id="B1gAaga3JW_pad-21" d="M-650-650H650V650H-650z"/><circle id="B1gAaga3JW_pad-22" r="838.2"/><path id="B1gAaga3JW_pad-23" d="M-4445-4445h8890v8890h-8890z"/><circle id="B1gAaga3JW_pad-24" r="889"/><path id="B1gAaga3JW_pad-25" d="M-889-889H889V889H-889z"/><circle id="B1gAaga3JW_pad-26" r="444.5"/><rect id="S1b0pepnkZ_pad-11" width="2286" height="1574.8" x="-1143" y="-787.4" rx="787.4" ry="787.4"/><path id="S1b0pepnkZ_pad-12" d="M-1143-787.4h2286V787.4h-2286z"/><circle id="S1b0pepnkZ_pad-13" r="698.5"/><circle id="S1b0pepnkZ_pad-14" r="999.49"/><path id="S1b0pepnkZ_pad-15" d="M-999.49-999.49H999.49V999.49H-999.49z"/><rect id="S1b0pepnkZ_pad-16" width="2499.36" height="1998.98" x="-1249.68" y="-999.49" rx="999.49" ry="999.49"/><rect id="S1b0pepnkZ_pad-17" width="2032" height="1727.2" x="-1016" y="-863.6" rx="863.6" ry="863.6"/><path id="S1b0pepnkZ_pad-18" d="M-1016-863.6h2032V863.6h-2032z"/><rect id="S1b0pepnkZ_pad-19" width="2032" height="2032" x="-1016" y="-1016" rx="1016" ry="1016"/><circle id="S1b0pepnkZ_pad-20" r="650"/><path id="S1b0pepnkZ_pad-21" d="M-650-650H650V650H-650z"/><circle id="S1b0pepnkZ_pad-22" r="838.2"/><path id="S1b0pepnkZ_pad-23" d="M-4445-4445h8890v8890h-8890z"/><circle id="S1b0pepnkZ_pad-24" r="889"/><path id="S1b0pepnkZ_pad-25" d="M-889-889H889V889H-889z"/><rect id="B1gAaga3JW_pad-11" width="2286" height="1574.8" x="-1143" y="-787.4" rx="787.4" ry="787.4"/><path id="B1gAaga3JW_pad-12" d="M-1143-787.4h2286V787.4h-2286z"/><circle id="B1gAaga3JW_pad-13" r="698.5"/><circle id="B1gAaga3JW_pad-14" r="999.49"/><path id="B1gAaga3JW_pad-15" d="M-999.49-999.49H999.49V999.49H-999.49z"/><rect id="B1gAaga3JW_pad-16" width="2499.36" height="1998.98" x="-1249.68" y="-999.49" rx="999.49" ry="999.49"/><rect id="B1gAaga3JW_pad-17" width="2032" height="1727.2" x="-1016" y="-863.6" rx="863.6" ry="863.6"/><path id="B1gAaga3JW_pad-18" d="M-1016-863.6h2032V863.6h-2032z"/><rect id="B1gAaga3JW_pad-19" width="2032" height="2032" x="-1016" y="-1016" rx="1016" ry="1016"/><circle id="B1gAaga3JW_pad-20" r="650"/><path id="B1gAaga3JW_pad-21" d="M-650-650H650V650H-650z"/><circle id="B1gAaga3JW_pad-22" r="838.2"/><path id="B1gAaga3JW_pad-23" d="M-4445-4445h8890v8890h-8890z"/><circle id="B1gAaga3JW_pad-24" r="889"/><path id="B1gAaga3JW_pad-25" d="M-889-889H889V889H-889z"/><circle id="B1gAaga3JW_pad-26" r="444.5"/><rect id="B1gAaga3JW_pad-11" width="2286" height="1574.8" x="-1143" y="-787.4" rx="787.4" ry="787.4"/><path id="B1gAaga3JW_pad-12" d="M-1143-787.4h2286V787.4h-2286z"/><circle id="B1gAaga3JW_pad-13" r="698.5"/><circle id="B1gAaga3JW_pad-14" r="999.49"/><path id="B1gAaga3JW_pad-15" d="M-999.49-999.49H999.49V999.49H-999.49z"/><rect id="B1gAaga3JW_pad-16" width="2499.36" height="1998.98" x="-1249.68" y="-999.49" rx="999.49" ry="999.49"/><rect id="B1gAaga3JW_pad-17" width="2032" height="1727.2" x="-1016" y="-863.6" rx="863.6" ry="863.6"/><path id="B1gAaga3JW_pad-18" d="M-1016-863.6h2032V863.6h-2032z"/><rect id="B1gAaga3JW_pad-19" width="2032" height="2032" x="-1016" y="-1016" rx="1016" ry="1016"/><circle id="B1gAaga3JW_pad-20" r="650"/><path id="B1gAaga3JW_pad-21" d="M-650-650H650V650H-650z"/><circle id="B1gAaga3JW_pad-22" r="838.2"/><path id="B1gAaga3JW_pad-23" d="M-4445-4445h8890v8890h-8890z"/><circle id="B1gAaga3JW_pad-24" r="889"/><path id="B1gAaga3JW_pad-25" d="M-889-889H889V889H-889z"/><circle id="B1gAaga3JW_pad-26" r="444.5"/><rect id="S1b0pepnkZ_pad-11" width="2286" height="1574.8" x="-1143" y="-787.4" rx="787.4" ry="787.4"/><path id="S1b0pepnkZ_pad-12" d="M-1143-787.4h2286V787.4h-2286z"/><circle id="S1b0pepnkZ_pad-13" r="698.5"/><circle id="S1b0pepnkZ_pad-14" r="999.49"/><path id="S1b0pepnkZ_pad-15" d="M-999.49-999.49H999.49V999.49H-999.49z"/><rect id="S1b0pepnkZ_pad-16" width="2499.36" height="1998.98" x="-1249.68" y="-999.49" rx="999.49" ry="999.49"/><rect id="S1b0pepnkZ_pad-17" width="2032" height="1727.2" x="-1016" y="-863.6" rx="863.6" ry="863.6"/><path id="S1b0pepnkZ_pad-18" d="M-1016-863.6h2032V863.6h-2032z"/><rect id="S1b0pepnkZ_pad-19" width="2032" height="2032" x="-1016" y="-1016" rx="1016" ry="1016"/><circle id="S1b0pepnkZ_pad-20" r="650"/><path id="S1b0pepnkZ_pad-21" d="M-650-650H650V650H-650z"/><circle id="S1b0pepnkZ_pad-22" r="838.2"/><path id="S1b0pepnkZ_pad-23" d="M-4445-4445h8890v8890h-8890z"/><circle id="S1b0pepnkZ_pad-24" r="889"/><path id="S1b0pepnkZ_pad-25" d="M-889-889H889V889H-889z"/><circle id="rkPRag6nJb_pad-1" r="12.5"/><circle id="rkPRag6nJb_pad-2" r="15.5"/><circle id="rkPRag6nJb_pad-3" r="16"/><circle id="rkPRag6nJb_pad-4" r="19.5"/><circle id="rkPRag6nJb_pad-5" r="20"/><circle id="rkPRag6nJb_pad-6" r="22.5"/><circle id="rkPRag6nJb_pad-7" r="23.5"/><circle id="rkPRag6nJb_pad-8" r="25"/><circle id="rkPRag6nJb_pad-9" r="59"/><circle id="rkPRag6nJb_pad-10" r="60"/><g id="pcb-stackup_bottom_cu"><use x="63500" y="-40640" xlink:href="#B1gAaga3JW_pad-11"/><use x="63500" y="-43180" xlink:href="#B1gAaga3JW_pad-11"/><use x="63500" y="-45720" xlink:href="#B1gAaga3JW_pad-11"/><use x="63500" y="-48260" xlink:href="#B1gAaga3JW_pad-11"/><use x="63500" y="-50800" xlink:href="#B1gAaga3JW_pad-11"/><use x="63500" y="-53340" xlink:href="#B1gAaga3JW_pad-11"/><use x="63500" y="-55880" xlink:href="#B1gAaga3JW_pad-11"/><use x="63500" y="-58420" xlink:href="#B1gAaga3JW_pad-11"/><use x="63500" y="-60960" xlink:href="#B1gAaga3JW_pad-11"/><use x="63500" y="-63500" xlink:href="#B1gAaga3JW_pad-11"/><use x="63500" y="-66040" xlink:href="#B1gAaga3JW_pad-11"/><use x="63500" y="-68580" xlink:href="#B1gAaga3JW_pad-11"/><use x="63500" y="-71120" xlink:href="#B1gAaga3JW_pad-11"/><use x="63500" y="-38100" xlink:href="#B1gAaga3JW_pad-12"/><use x="71120" y="-71120" xlink:href="#B1gAaga3JW_pad-11"/><use x="71120" y="-68580" xlink:href="#B1gAaga3JW_pad-11"/><use x="71120" y="-66040" xlink:href="#B1gAaga3JW_pad-11"/><use x="71120" y="-63500" xlink:href="#B1gAaga3JW_pad-11"/><use x="71120" y="-60960" xlink:href="#B1gAaga3JW_pad-11"/><use x="71120" y="-58420" xlink:href="#B1gAaga3JW_pad-11"/><use x="71120" y="-55880" xlink:href="#B1gAaga3JW_pad-11"/><use x="71120" y="-53340" xlink:href="#B1gAaga3JW_pad-11"/><use x="71120" y="-50800" xlink:href="#B1gAaga3JW_pad-11"/><use x="71120" y="-48260" xlink:href="#B1gAaga3JW_pad-11"/><use x="71120" y="-45720" xlink:href="#B1gAaga3JW_pad-11"/><use x="71120" y="-43180" xlink:href="#B1gAaga3JW_pad-11"/><use x="71120" y="-40640" xlink:href="#B1gAaga3JW_pad-11"/><use x="71120" y="-38100" xlink:href="#B1gAaga3JW_pad-11"/><use x="52070" y="-60960" xlink:href="#B1gAaga3JW_pad-13"/><use x="52070" y="-58420" xlink:href="#B1gAaga3JW_pad-13"/><use x="52070" y="-66040" xlink:href="#B1gAaga3JW_pad-13"/><use x="52070" y="-68580" xlink:href="#B1gAaga3JW_pad-13"/><use x="46990" y="-38100" xlink:href="#B1gAaga3JW_pad-13"/><use x="41910" y="-38100" xlink:href="#B1gAaga3JW_pad-13"/><use x="72390" y="-34290" xlink:href="#B1gAaga3JW_pad-14"/><use x="62230" y="-34290" xlink:href="#B1gAaga3JW_pad-15"/><use x="49530" y="-49530" xlink:href="#B1gAaga3JW_pad-13"/><use x="49530" y="-54610" xlink:href="#B1gAaga3JW_pad-13"/><use x="41910" y="-49530" xlink:href="#B1gAaga3JW_pad-13"/><use x="41910" y="-54610" xlink:href="#B1gAaga3JW_pad-13"/><use x="48260" y="-64670.94" xlink:href="#B1gAaga3JW_pad-16"/><use x="48260" y="-59789.06" xlink:href="#B1gAaga3JW_pad-16"/><use x="40640" y="-59690" xlink:href="#B1gAaga3JW_pad-17"/><use x="40640" y="-62230" xlink:href="#B1gAaga3JW_pad-17"/><use x="40640" y="-64770" xlink:href="#B1gAaga3JW_pad-17"/><use x="40640" y="-67310" xlink:href="#B1gAaga3JW_pad-17"/><use x="40640" y="-69850" xlink:href="#B1gAaga3JW_pad-17"/><use x="38100" y="-59690" xlink:href="#B1gAaga3JW_pad-17"/><use x="38100" y="-62230" xlink:href="#B1gAaga3JW_pad-17"/><use x="38100" y="-64770" xlink:href="#B1gAaga3JW_pad-17"/><use x="38100" y="-67310" xlink:href="#B1gAaga3JW_pad-17"/><use x="38100" y="-69850" xlink:href="#B1gAaga3JW_pad-17"/><use x="38100" y="-38100" xlink:href="#B1gAaga3JW_pad-18"/><use x="38100" y="-40640" xlink:href="#B1gAaga3JW_pad-17"/><use x="38100" y="-43180" xlink:href="#B1gAaga3JW_pad-17"/><use x="38100" y="-45720" xlink:href="#B1gAaga3JW_pad-17"/><use x="38100" y="-48260" xlink:href="#B1gAaga3JW_pad-17"/><use x="38100" y="-50800" xlink:href="#B1gAaga3JW_pad-17"/><use x="55880" y="-38100" xlink:href="#B1gAaga3JW_pad-18"/><use x="55880" y="-40640" xlink:href="#B1gAaga3JW_pad-17"/><use x="55880" y="-43180" xlink:href="#B1gAaga3JW_pad-17"/><use x="55880" y="-45720" xlink:href="#B1gAaga3JW_pad-17"/><use x="55880" y="-48260" xlink:href="#B1gAaga3JW_pad-17"/><use x="55880" y="-50800" xlink:href="#B1gAaga3JW_pad-17"/><use x="55880" y="-53340" xlink:href="#B1gAaga3JW_pad-17"/><use x="55880" y="-55880" xlink:href="#B1gAaga3JW_pad-17"/><use x="78740" y="-30480" xlink:href="#B1gAaga3JW_pad-19"/><use x="78740" y="-33020" xlink:href="#B1gAaga3JW_pad-19"/><use x="55880" y="-63500" xlink:href="#B1gAaga3JW_pad-17"/><use x="55880" y="-66040" xlink:href="#B1gAaga3JW_pad-17"/><use x="55880" y="-68580" xlink:href="#B1gAaga3JW_pad-17"/><use x="55880" y="-71120" xlink:href="#B1gAaga3JW_pad-17"/><use x="78740" y="-71120" xlink:href="#B1gAaga3JW_pad-17"/><use x="78740" y="-68580" xlink:href="#B1gAaga3JW_pad-17"/><use x="78740" y="-66040" xlink:href="#B1gAaga3JW_pad-17"/><use x="78740" y="-63500" xlink:href="#B1gAaga3JW_pad-17"/><use x="78740" y="-60960" xlink:href="#B1gAaga3JW_pad-17"/><use x="78740" y="-58420" xlink:href="#B1gAaga3JW_pad-17"/><use x="78740" y="-55880" xlink:href="#B1gAaga3JW_pad-17"/><use x="78740" y="-53340" xlink:href="#B1gAaga3JW_pad-17"/><use x="78740" y="-50800" xlink:href="#B1gAaga3JW_pad-17"/><use x="78740" y="-48260" xlink:href="#B1gAaga3JW_pad-17"/><use x="78740" y="-45720" xlink:href="#B1gAaga3JW_pad-17"/><use x="78740" y="-43180" xlink:href="#B1gAaga3JW_pad-17"/><use x="78740" y="-40640" xlink:href="#B1gAaga3JW_pad-17"/><use x="78740" y="-38100" xlink:href="#B1gAaga3JW_pad-17"/><use x="69850" y="-27980" xlink:href="#B1gAaga3JW_pad-20"/><use x="69850" y="-30480" xlink:href="#B1gAaga3JW_pad-21"/><use x="60960" y="-30440" xlink:href="#B1gAaga3JW_pad-20"/><use x="60960" y="-27940" xlink:href="#B1gAaga3JW_pad-21"/><use x="49530" y="-71120" xlink:href="#B1gAaga3JW_pad-22"/><use x="46990" y="-71120" xlink:href="#B1gAaga3JW_pad-22"/><use x="44450" y="-69850" xlink:href="#B1gAaga3JW_pad-14"/><use x="44450" y="-59690" xlink:href="#B1gAaga3JW_pad-14"/><use x="52070" y="-48260" xlink:href="#B1gAaga3JW_pad-14"/><use x="52070" y="-38100" xlink:href="#B1gAaga3JW_pad-14"/><use x="39370" y="-30480" xlink:href="#B1gAaga3JW_pad-23"/><use x="55880" y="-33020" xlink:href="#B1gAaga3JW_pad-24"/><use x="55880" y="-30480" xlink:href="#B1gAaga3JW_pad-25"/><use x="55880" y="-27940" xlink:href="#B1gAaga3JW_pad-24"/><use x="71120" y="-58420" xlink:href="#B1gAaga3JW_pad-26"/><use x="44450" y="-40640" xlink:href="#B1gAaga3JW_pad-26"/><path fill="none" stroke-width="508" d="M44450-59690h-3810m0-2540v-7620m1270 15240l-1270-1270m0-2540v-1270m0 3810v-2540m0-1270v-2540m22980 31790h-2660l-40-40h-5040m13970 2500h-3770m5040-25360h-1270l-2540 2540v16670l-3690 3690m15120-2580h-2540m-10120 5040l-2460-2460m8810 2460h-6350m10120-5040l-3770 5040m-2580-25360h8890m-15240-2540h3810m-25400 1270l-3810 3810v2540m12700-7620l-1270 1270h-7620m21590-1270H50800l1270-1270v-1270M40640-69850v7620m3810-3810l2540-2540h5080m-7620 8890v-6350m22860 10160l2540 2540m1270-5080h7620m-26670-7620h-2540l-1270 1270v99.06M52070-66040v2540l2540 2540h8890m-11430 0h-2540l-1170.94 1170.94H48260M63500-58420h-8890l-2540-2540m-99.06-99.06l99.06 99.06m0 22860h-5080m5080 0h11430M41910-49530h7620M38100-38100h3810m13970-2540H44450m11430 0h7620m-7620-2540h7620m-25400 2540h3810m2540-2540h11430m-13970 2540l2540-2540m11430-2540h7620m-7620-2540h7620m-7620-2540h7620m-7620-12700h7620m-7620-2540h7620m-7620-2540h7620m-7620-2540h7620m7620 0h7620m-7620 2540h7620m-7620 2540h7620m-7620 2540h7620m-7620 2540h7620m-7620 5080h7620m-7620 5080h7620m-7620 2540h7620m-7620 2540h7620m-7620 2540h7620m-7620 2540h7620m-7620 2540h7620M45720-71120h1270m-2540 1270l1270-1270"/><path d="M80849-74499h-425.655v3379l-114.074 573.489-324.856 486.181-314.781 210.33 314.781 210.33 324.856 486.181 114.074 573.489-114.074 573.489-324.856 486.181-314.781 210.33 314.781 210.33 324.856 486.181 114.074 573.489-114.074 573.489-324.856 486.181-314.781 210.33 314.781 210.33 324.856 486.181 114.074 573.489-114.074 573.489-324.856 486.181-314.781 210.33 314.781 210.33 324.856 486.181 114.074 573.489-114.074 573.489-324.856 486.181-314.781 210.33 314.781 210.33 324.856 486.181 114.074 573.489-114.074 573.489-324.856 486.181-314.781 210.33 314.781 210.33 324.856 486.181 114.074 573.489v5080l-114.074 573.489-324.856 486.181-314.781 210.33 314.781 210.33 324.856 486.181 114.074 573.489-114.074 573.489-324.856 486.181-314.781 210.33 314.781 210.33 324.856 486.181 114.074 573.489-114.074 573.489-324.856 486.181-314.781 210.33 314.781 210.33 324.856 486.181 114.074 573.489-114.074 573.489-324.856 486.181-314.781 210.33 314.781 210.33 324.856 486.181 114.074 573.489-114.074 573.489-324.856 486.181-314.781 210.33 314.781 210.33 324.856 486.181 114.074 573.489-114.074 573.489-215.051 321.847v3841.594l-58.68 216.07H78867v-1168.976l216.072-58.255 492.127 234.373 364.975 404.861 154.046 371.927v-3841.594l-109.805 164.334-486.181 324.856-573.489 114.074H78613v3454.4h-1168.54l-58.68-216.07 154.046-371.927 364.975-404.861 492.127-234.373 216.072 58.255V-36601.4h-57.745l-573.489-114.074-486.181-324.856-114.039-170.67h-3356.772v3244.694l-248.312 600.961-459.389 460.191-600.526 249.36-650.241.568-600.961-248.312-317.905-317.35V-29830l-46.977 242.123-139.79 212.804-66.359 44.794v1230.169l-33.53 408.784-91.928 221.934-159.088 69.555-179.605-179.605v359.21l-69.555 159.088-390.498 125.458-408.784-33.53-221.934-91.928-69.555-159.088 580.163-580.163 580.163 580.163v-359.21L70029.605-27980l580.163-580.163 159.088 69.555 125.458 390.498v-1230.169l-144.674 97.656-249.64 50.063h-69.837v442.792L69850-28159.605l-179.605-179.605v359.21l-580.163 580.163-159.088-69.555-125.458-390.498 33.53-408.784 91.928-221.934 159.088-69.555 580.163 580.163v-359.21l-400.558-400.558 69.555-159.088 390.498-125.458 408.784 33.53 221.934 91.928 69.555 159.088v-442.792H69200l-242.123-46.977-212.804-139.79-142.45-211.033-50.063-249.64v-1300l46.977-242.123 139.79-212.804 211.033-142.45 249.64-50.063h1300l242.123 46.977 212.804 139.79 142.45 211.033 50.063 249.64v-2090.888l-142.286-142.039-249.36-600.526-.568-650.241 248.312-600.961 459.389-460.191 600.526-249.36 650.241-.568 600.961 248.312 460.191 459.389 249.36 600.526.568 650.241V-37211h-1430.517l-78.035 116.789-461.46 308.337-544.329 108.274h-780.866l-544.329-108.274-461.46-308.337-308.337-461.46-108.274-544.329 108.274-544.329 308.337-461.46 395.42-264.211-395.42-264.211-308.337-461.46-108.274-544.329 108.274-544.329 308.337-461.46 395.42-264.211-395.42-264.211-308.337-461.46-108.274-544.329 108.274-544.329 308.337-461.46 395.42-264.211-395.42-264.211-308.337-461.46-108.274-544.329 108.274-544.329 308.337-461.46 395.42-264.211-395.42-264.211-308.337-461.46-108.274-544.329 108.274-544.329 308.337-461.46 395.42-264.211-395.42-264.211-308.337-461.46-108.274-544.329 108.274-544.329 308.337-461.46 461.46-308.337 388.913-77.359-374.211-117.655-351.526-294.479-211.324-429.25 61.701-180.131H70993v20h254v-20h1294.209l61.701 180.131-211.324 429.25-351.526 294.479-374.212 117.655 388.914 77.359 461.46 308.337 78.035 116.789h4787.289l114.039-170.67 486.181-324.856 131.743-26.205-155.229-53.699-363.699-322.703-209.974-433.749 60.681-192.118H78613v20h254v-20h1167.712l60.681 192.118-209.974 433.749-363.699 322.703-155.23 53.699 131.744 26.205 486.181 324.856 324.856 486.181 114.074 573.489v-5080l-114.074 573.489-324.856 486.181-486.181 324.856-131.744 26.206 155.23 53.698 363.699 322.703 209.974 433.749-60.681 192.118H78867v-20h-254v20h-1167.712l-60.681-192.118 209.974-433.749 363.699-322.703 155.229-53.698-131.743-26.206-486.181-324.856-114.039-170.67h-4787.289l-78.035 116.789-461.46 308.337-388.914 77.36 374.212 117.654 351.526 294.479 211.324 429.25-61.701 180.131H71247v-20h-254v20h-1294.209l-61.701-180.131 211.324-429.25 351.526-294.479 374.211-117.654-388.913-77.36-461.46-308.337-308.337-461.46-108.274-544.329 108.274-544.329 308.337-461.46 395.42-264.211-395.42-264.211-308.337-461.46-108.274-544.329 108.274-544.329 308.337-461.46 395.42-264.211-395.42-264.211-308.337-461.46-108.274-544.329 108.274-544.329 308.337-461.46 395.42-264.211-395.42-264.211-308.337-461.46-108.274-544.329 108.274-544.329 308.337-461.46 395.42-264.211-395.42-264.211-308.337-461.46-108.274-544.329 108.274-544.329 308.337-461.46 395.42-264.211-395.42-264.211-308.337-461.46-108.274-544.329 108.274-544.329 308.337-461.46 395.42-264.211-395.42-264.211-308.337-461.46-108.274-544.329 108.274-544.329 308.337-461.46 461.46-308.337 544.329-108.274h780.866l544.329 108.274 461.46 308.337 78.035 116.789h4787.289l114.039-170.67 486.181-324.856 573.489-114.074h369.49l573.489 114.074 486.181 324.856 324.856 486.181 114.074 573.489v-3379H65312.833v3379l-108.274 544.329-308.337 461.46-395.421 264.211 395.421 264.211 308.337 461.46 108.274 544.329-108.274 544.329-308.337 461.46-395.421 264.211 395.421 264.211 308.337 461.46 108.274 544.329-108.274 544.329-308.337 461.46-395.421 264.211 395.421 264.211 308.337 461.46 108.274 544.329-108.274 544.329-308.337 461.46-395.421 264.211 395.421 264.211 308.337 461.46 108.274 544.329-108.274 544.329-308.337 461.46-395.421 264.211 395.421 264.211 308.337 461.46 108.274 544.329v5080l-108.274 544.329-308.337 461.46-395.421 264.211 395.421 264.211 308.337 461.46 108.274 544.329-108.274 544.329-308.337 461.46-395.421 264.211 395.421 264.211 308.337 461.46 108.274 544.329-108.274 544.329-308.337 461.46-395.421 264.211 395.421 264.211 308.337 461.46 108.274 544.329-108.274 544.329-308.337 461.46-395.421 264.211 395.421 264.211 308.337 461.46 108.274 544.329-108.274 544.329-308.337 461.46-395.421 264.211 395.421 264.211 308.337 461.46 108.274 544.329-108.274 544.329-308.337 461.46-172.236 115.085 161.137 31.263 212.804 139.79 142.45 211.033 50.063 249.64v1574.8l-46.977 242.123-139.79 212.804-211.033 142.45-249.64 50.063h-766.07v3374.65l-46.977 242.123-139.79 212.804-211.033 142.45-249.64 50.063h-972.05V-27290l-46.977 242.123-139.79 212.804-211.033 142.45-249.64 50.063h-1300l-242.123-46.977-212.804-139.79-142.45-211.033-50.063-249.64v-1300l46.977-242.123 139.79-212.804 211.033-142.45 249.64-50.063h1300l242.123 46.977 212.804 139.79 142.45 211.033 50.063 249.64v-4053.07h-253.126v2082.96l-33.53 408.784-91.928 221.934-159.088 69.555-179.605-179.605v359.21l-69.555 159.088-390.498 125.458-408.784-33.53-221.934-91.928-69.555-159.088 580.163-580.163 580.163 580.163v-359.21L61139.605-30440l580.163-580.163 159.088 69.555 125.458 390.498v-2082.96h-464.151v1443.302L60960-30619.605l-179.605-179.605v359.21l-580.163 580.163-159.088-69.555-125.458-390.498 33.53-408.784 91.928-221.934 159.088-69.555 580.163 580.163v-359.21l-400.558-400.558 69.555-159.088 390.498-125.458 408.784 33.53 221.934 91.928 69.555 159.088v-1443.302h-309.653l-242.123-46.977-212.804-139.79-142.45-211.033-50.063-249.64v-1998.98l46.977-242.123 139.79-212.804 211.033-142.45 249.64-50.063h1998.98l242.123 46.977 212.804 139.79 142.45 211.033 50.063 249.64v-1375.67H62357l-242.123-46.977-212.804-139.79-142.45-211.033-29.689-148.04h-4191.423l-42.048 216.723-92.199 140.356v9215.733l-231.526 560.337-428.334 429.082-559.932 232.504-606.284.529-560.337-231.526-429.082-428.334-232.504-559.932-.529-606.284 231.526-560.337 407.14-407.851h-79.188l-140.034-58.004-107.176-107.177-58.004-140.034V-30257.75l95.25-95.25H55753v20h254v-20h1047.75l95.25 95.25V-29515.215l-58.004 140.034-107.176 107.177-140.034 58.004h-79.86l406.305 405.596 232.504 559.932.529 606.284v-5080l-231.526 560.337-407.141 407.851h79.189l140.034 58.004 107.176 107.177 58.004 140.034V-30702.25l-95.25 95.25H56007v-20h-254v20h-1047.75l-95.25-95.25V-31444.785l58.004-140.034 107.176-107.177 140.034-58.004h79.859l-406.304-405.596-232.504-559.932-.529-606.284 231.526-560.337 428.334-429.082 559.932-232.504 606.284-.529 560.337 231.526 429.082 428.334 232.504 559.932.529 606.284v-4135.733l-47.591 72.448-211.033 142.45-249.64 50.063h-2032l-242.123-46.977-212.804-139.79-142.45-211.033-44.97-224.24h-750.459l-14.732 35.655-459.389 460.191-600.526 249.36-650.241.568-600.961-248.312-460.191-459.389-15.81-38.073H47986.76l-240.407 240.827-489.94 203.441-530.499.463-490.294-202.585-375.447-374.793-203.441-489.94-.463-530.499 202.585-490.294 374.793-375.447 489.94-203.441 530.499-.463 490.294 202.585 242.568 242.146h2681.857l14.733-35.655 459.389-460.191 600.526-249.36 650.241-.568 600.961 248.312 460.191 459.389 15.809 38.073h750.833l42.049-216.723 139.79-212.804 211.033-142.45 38.602-7.741-17.377-11.612-114.039-170.67h-9433.683l-25.577 25.622-396.618 164.691-203.228.177V-26035l-46.977 242.123-139.79 212.804-211.033 142.45-249.64 50.063h-8890l-242.123-46.977-212.804-139.79-142.45-211.033-50.063-249.64v-8890l46.977-242.123 139.79-212.804 211.033-142.45 249.64-50.063h8890l242.123 46.977 212.804 139.79 142.45 211.033 50.063 249.64v-4635.51l-226.224.197-396.905-163.998-303.933-303.403-164.691-396.618-.365-418.754-831.704 831.704-288.412 192.711L41910-39751h-2451.547l-114.038 170.67-15.783 10.546 29.491 5.721 212.804 139.79 142.45 211.033 44.969 224.24h1154.893l240.408-240.827 489.94-203.441 530.499-.463 490.294 202.585 375.447 374.793 203.441 489.94.463 530.499-202.585 490.294-374.793 375.447-489.94 203.441-530.499.463-490.294-202.585-242.569-242.146h-1154.54l-42.048 216.723-139.79 212.804-211.033 142.45-249.64 50.063h-2032l-242.123-46.977-212.804-139.79-142.45-211.033-50.063-249.64v-1727.2l46.977-242.123 139.79-212.804 211.033-142.45 38.602-7.741-17.377-11.612-324.856-486.181-114.074-573.489 114.074-573.489 324.856-486.181 314.78-210.33-314.78-210.33-324.856-486.181-114.074-573.489 114.074-573.489 324.856-486.181 314.78-210.33-314.78-210.33-324.856-486.181-114.074-573.489 114.074-573.489 324.856-486.181 486.181-324.856 131.743-26.205-155.229-53.699-363.699-322.703-209.974-433.749 60.681-192.118H37973v20h254v-20h1167.712l60.681 192.118-209.974 433.749-363.699 322.703-155.23 53.699 131.744 26.205 486.181 324.856 324.856 486.181 114.074 573.489-114.074 573.489-324.856 486.181-314.781 210.33 314.781 210.33 324.856 486.181 114.074 573.489-114.074 573.489-324.856 486.181-314.781 210.33 314.781 210.33 114.038 170.67h2083.311l2279.618-2279.618 288.412-192.711L44450-44069h10071.546l114.039-170.67 314.78-210.33-314.78-210.33-324.856-486.181-114.074-573.489 114.074-573.489 324.856-486.181 314.78-210.33-314.78-210.33-324.856-486.181-114.074-573.489 114.074-573.489 324.856-486.181 314.78-210.33-314.78-210.33-324.856-486.181-114.074-573.489 114.074-573.489 324.856-486.181 314.78-210.33-314.78-210.33-324.856-486.181-114.074-573.489 114.074-573.489 324.856-486.181 486.181-324.856 131.743-26.205-155.229-53.699-363.699-322.703-209.974-433.749 60.681-192.118H55753v20h254v-20h1167.712l60.681 192.118-209.974 433.749-363.699 322.703-155.23 53.699 131.744 26.205 486.181 324.856 324.856 486.181 114.074 573.489-114.074 573.489-324.856 486.181-314.781 210.33 314.781 210.33 114.038 170.67h4787.289l78.036-116.789 395.42-264.211-395.42-264.211-308.337-461.46-108.274-544.329 108.274-544.329 308.337-461.46 461.46-308.337 388.913-77.359-374.211-117.655-351.526-294.479-211.324-429.25 61.701-180.131H63373v20h254v-20h1294.209l61.701 180.131-211.324 429.25-351.526 294.479-374.212 117.655 388.914 77.359 461.46 308.337 308.337 461.46 108.274 544.329v-5080l-108.274 544.329-308.337 461.46-461.46 308.337-388.914 77.36 374.212 117.654 351.526 294.479 211.324 429.25-61.701 180.131H63627v-20h-254v20h-1294.209l-61.701-180.131 211.324-429.25 351.526-294.479 374.211-117.654-388.913-77.36-461.46-308.337-78.036-116.789h-4790.349v1331.882l-60.681 192.118H56007v-1023.643l195.213-83.884 459.507 158.957 363.699 322.703 209.974 433.749V-57531H55753v1524h-1167.712l-60.681-192.118 209.974-433.749 363.699-322.703 459.507-158.957 195.213 83.884V-57531h-1143l-340.206-67.671-288.412-192.711-276.608-276.607v10131.683l-248.312 600.961-459.389 460.191-600.526 249.36-650.241.568-600.961-248.312-460.191-459.389-249.36-600.526-.538-615.882-148.903 149.162-489.94 203.441-530.499.463-490.294-202.585-242.569-242.146H42906.76l-240.407 240.827-489.94 203.441-530.499.463-490.294-202.585-375.447-374.793-203.441-489.94-.463-530.499 202.585-490.294 374.793-375.447 489.94-203.441 530.499-.463 490.294 202.585 242.568 242.146h5626.291l240.408-240.827 489.94-203.441 530.499-.463 490.294 202.585 375.447 374.793 203.441 489.94.376 431.338 279.283-279.771 600.526-249.36 650.241-.568 600.961 248.312 460.191 459.389 249.36 600.526.568 650.241v-10131.683l-570.402-570.402 28.365 86.657-32.767 428.2-100.825 243.413-164.112 75.549-179.605-179.605v359.21l-75.549 164.112-408.145 133.592-428.2-32.767-243.413-100.825-75.549-164.112 615.428-615.428 615.428 615.428v-359.21L52249.605-58420l14.142-14.142-179.605-179.605-14.142 14.142-179.605-179.605v359.21l-615.428 615.428-164.112-75.549-133.592-408.145 32.767-428.2 100.825-243.413 164.112-75.549 615.428 615.428v-359.21l-435.823-435.823 75.549-164.112 408.145-133.592 348.423 26.663-140.491-140.491-340.284.296-490.294-202.585-242.569-242.146h-450.314v5329.266l-32.767 428.2-100.825 243.413-164.112 75.549-179.605-179.605v359.21l-75.549 164.112-408.145 133.592-428.2-32.767-243.413-100.825-75.549-164.112 615.428-615.428 615.428 615.428v-359.21L49709.605-54610l615.428-615.428 164.112 75.549 133.592 408.145V-60071h-497.216l56.082 281.94-36.175 181.865v4202.162L49530-54789.605l-179.605-179.605v359.21l-615.428 615.428-164.112-75.549-133.592-408.145 32.767-428.2 100.825-243.413 164.112-75.549 615.428 615.428v-359.21l-435.823-435.823 75.549-164.112 408.145-133.592 428.2 32.767 243.413 100.825 75.549 164.112v-4202.162l-88.243 443.627-354.313 530.267-530.267 354.313-625.492 124.418h-574.226l-625.492-124.418-530.267-354.313-354.313-530.267-124.418-625.492 124.418-625.492 354.313-530.267 530.267-354.313 625.492-124.418h574.226l157.81 31.391 196.459-196.459 288.412-192.711h.001L49530-61849h1543.239l240.408-240.827 489.94-203.441 215.72-.188-577.925-577.926-192.711-288.412L51181-63500v-1543.239L51073.051-65151h-986.938l95.49 480.06-124.418 625.492-354.313 530.267-530.267 354.313-625.492 124.418h-574.226l-625.492-124.418-530.267-354.313-354.313-530.267-124.418-625.492 124.418-625.492 354.313-530.267 530.267-354.313 625.492-124.418h565.307l363.188-363.188 288.412-192.711h.001L49530-66929h1543.239l240.408-240.827 489.94-203.441 530.499-.463 490.294 202.585 375.447 374.793 203.441 489.94.463 530.499-202.585 490.294-242.146 242.569v1174.815L54978.236-61849h7047.506l78.036-116.789 395.42-264.211-395.42-264.211-78.036-116.789h-4787.289l-114.038 170.67-486.181 324.856-573.489 114.074h-369.49l-573.489-114.074-486.181-324.856-324.856-486.181-114.074-573.489 114.074-573.489 324.856-486.181 314.78-210.33-314.78-210.33-324.856-486.181-114.074-573.489 114.074-573.489 324.856-486.181 314.78-210.33-314.78-210.33-324.856-486.181-114.074-573.489 114.074-573.489 324.856-486.181 314.78-210.33-314.78-210.33-324.856-486.181-114.074-573.489 114.074-573.489 324.856-486.181 486.181-324.856 573.489-114.074h369.49l573.489 114.074 486.181 324.856 114.038 170.67h4787.289l78.036-116.789 461.46-308.337 544.329-108.274h780.866l544.329 108.274 461.46 308.337 308.337 461.46 108.274 544.329v-3379H53162.737v5787.266l-32.767 428.2-100.825 243.413-164.112 75.549-179.605-179.605v359.21l-75.549 164.112-408.145 133.592-428.2-32.767-243.413-100.825-75.549-164.112 615.428-615.428 615.428 615.428v-359.21L52249.605-68580l615.428-615.428 164.112 75.549 133.592 408.145V-74499h-477.309v5123.967L52070-68759.605l-179.605-179.605v359.21l-615.428 615.428-164.112-75.549-133.592-408.145 32.767-428.2 100.825-243.413 164.112-75.549 615.428 615.428v-359.21l-435.823-435.823 75.549-164.112 408.145-133.592 428.2 32.767 243.413 100.825 75.549 164.112V-74499h-1681.973v3670.752l-223.808 541.659-414.056 414.779-541.268 224.754-586.075.511-541.659-223.808-414.779-414.056-21.586-51.982-20.577 49.802-414.056 414.779-541.268 224.754-586.075.511-541.659-223.808-72.179-72.052.364 416.099-242.065 585.843v9046.712l-28.042 548.476-155.944 376.484-195.351 112.558-179.605-179.605v359.21l-112.558 195.351-517.458 183.986-548.476-28.042-376.484-155.944-112.558-195.351 833.767-833.767 833.767 833.767v-359.21L44629.605-59690l833.767-833.767 195.351 112.558 183.986 517.458v-9046.712l-6.247 15.118-459.389 460.191-93.306 38.745v7723.037L44450-59869.605l-179.605-179.605v359.21l-833.767 833.767-195.351-112.558-183.986-517.458 28.042-548.476 155.944-376.484 195.351-112.558 833.767 833.767v-359.21l-654.162-654.162 112.558-195.351 517.458-183.986 548.476 28.042 376.484 155.944 112.558 195.351v-7723.037l-507.22 210.615-650.241.568-600.961-248.312-460.191-459.389-62.417-150.316v14331.509l-32.767 428.2-100.825 243.413-164.112 75.549-179.605-179.605v359.21l-75.549 164.112-408.145 133.592-428.2-32.767-243.413-100.825-75.549-164.112 615.428-615.428 615.428 615.428v-359.21L42089.605-54610l615.428-615.428 164.112 75.549 133.592 408.145v-14331.509l-186.943-450.21-.568-650.241 248.312-600.961 459.389-460.191 600.526-249.36 650.241-.568 38.1 15.744 279.588-279.588 288.412-192.711h.001L45720-72009h75.845l358.564-359.19 541.268-224.754 586.075-.511 541.659 223.808 414.779 414.056 21.585 51.983 20.578-49.803 414.056-414.779 541.268-224.754 586.075-.511 541.659 223.808 414.779 414.056 224.754 541.268.511 586.075V-74499h-8478.027v19093.967L41910-54789.605l-179.605-179.605v359.21l-615.428 615.428-164.112-75.549-133.592-408.145 32.767-428.2 100.825-243.413 164.112-75.549 615.428 615.428v-359.21l-435.823-435.823 75.549-164.112 408.145-133.592 428.2 32.767 243.413 100.825 75.549 164.112V-74499h-6478.793l721.165 297.98 601.109 600.061 325.719 784.418.742 849.356-298.174 721.634 518.059-103.049h369.49l573.489 114.074 486.181 324.856 25.585 38.291 25.585-38.291 486.181-324.856 573.489-114.074h369.49l573.489 114.074 486.181 324.856 324.856 486.181 114.074 573.489-114.074 573.489-324.856 486.181-314.781 210.33 314.781 210.33 324.856 486.181 114.074 573.489-114.074 573.489-324.856 486.181-314.781 210.33 314.781 210.33 324.856 486.181 114.074 573.489-114.074 573.489-324.856 486.181-314.781 210.33 314.781 210.33 324.856 486.181 114.074 573.489-114.074 573.489-324.856 486.181-314.781 210.33 314.781 210.33 324.856 486.181 114.074 573.489-114.074 573.489-324.856 486.181-486.181 324.856-573.489 114.074h-369.49l-573.489-114.074-426.373-284.893v10011.249l-60.681 192.118H38227v-1023.643l195.213-83.884 459.507 158.957 363.699 322.703 209.974 433.749v-1901.764l-209.974 433.749-363.699 322.703-459.507 158.957-195.213-83.884V-50673h1167.712l60.681 192.118v-638.236l-60.681 192.118H38227v-1023.643l195.213-83.884 459.507 158.957 363.699 322.703 209.974 433.749v-7471.249l-59.808-39.963-25.585-38.29-25.585 38.29-486.181 324.856-573.489 114.074H37973v9804.4h-1167.712l-60.681-192.118 209.974-433.749 363.699-322.703 459.507-158.957 195.213 83.884v-238.714l-195.213 83.884-459.507-158.957-363.699-322.703-209.974-433.749 60.681-192.118H37973v-254h-1167.712l-60.681-192.118 209.974-433.749 363.699-322.703 459.507-158.957 195.213 83.884V-58191.4h-57.745l-573.489-114.074-486.181-324.856-324.856-486.181-114.074-573.489 114.074-573.489 324.856-486.181 314.78-210.33-314.78-210.33-324.856-486.181-114.074-573.489 114.074-573.489 324.856-486.181 314.78-210.33-314.78-210.33-324.856-486.181-114.074-573.489 114.074-573.489 324.856-486.181 314.78-210.33-314.78-210.33-324.856-486.181-114.074-573.489 114.074-573.489 324.856-486.181 314.78-210.33-314.78-210.33-324.856-486.181-114.074-573.489 114.074-573.489 53.496-80.063-597.684 248.18-849.356.742-784.985-324.35-601.109-600.061-300.091-722.698V-24561h47398v-2122.364l-297.98 721.164-600.061 601.109-784.418 325.719-849.356.742-784.985-324.35-601.109-600.061-325.719-784.418-.742-849.356 324.35-784.985 600.061-601.109 314.864-130.743-303.683-202.915-357.892-535.623-125.675-631.81 125.675-631.81 357.892-535.623 372.534-248.92-7.955-3.789-364.975-404.861-154.046-371.927 58.68-216.07H78613v20h254v-20h1168.54l58.68 216.07-154.046 371.927-364.975 404.861-7.956 3.789 372.535 248.92 357.892 535.623 125.675 631.81-125.675 631.81-357.892 535.623-303.534 202.815 311.556 128.732 601.109 600.061L80849-27658.26V-74499"/><path fill="none" stroke-width="254" d="M80849-74499h-425.655v3379l-114.074 573.489-324.856 486.181-314.781 210.33 314.781 210.33 324.856 486.181 114.074 573.489-114.074 573.489-324.856 486.181-314.781 210.33 314.781 210.33 324.856 486.181 114.074 573.489-114.074 573.489-324.856 486.181-314.781 210.33 314.781 210.33 324.856 486.181 114.074 573.489-114.074 573.489-324.856 486.181-314.781 210.33 314.781 210.33 324.856 486.181 114.074 573.489-114.074 573.489-324.856 486.181-314.781 210.33 314.781 210.33 324.856 486.181 114.074 573.489-114.074 573.489-324.856 486.181-314.781 210.33 314.781 210.33 324.856 486.181 114.074 573.489v5080l-114.074 573.489-324.856 486.181-314.781 210.33 314.781 210.33 324.856 486.181 114.074 573.489-114.074 573.489-324.856 486.181-314.781 210.33 314.781 210.33 324.856 486.181 114.074 573.489-114.074 573.489-324.856 486.181-314.781 210.33 314.781 210.33 324.856 486.181 114.074 573.489-114.074 573.489-324.856 486.181-314.781 210.33 314.781 210.33 324.856 486.181 114.074 573.489-114.074 573.489-324.856 486.181-314.781 210.33 314.781 210.33 324.856 486.181 114.074 573.489-114.074 573.489-215.051 321.847v3841.594l-58.68 216.07H78867v-1168.976l216.072-58.255 492.127 234.373 364.975 404.861 154.046 371.927v-3841.594l-109.805 164.334-486.181 324.856-573.489 114.074H78613v3454.4h-1168.54l-58.68-216.07 154.046-371.927 364.975-404.861 492.127-234.373 216.072 58.255V-36601.4h-57.745l-573.489-114.074-486.181-324.856-114.039-170.67h-3356.772v3244.694l-248.312 600.961-459.389 460.191-600.526 249.36-650.241.568-600.961-248.312-317.905-317.35V-29830l-46.977 242.123-139.79 212.804-66.359 44.794v1230.169l-33.53 408.784-91.928 221.934-159.088 69.555-179.605-179.605v359.21l-69.555 159.088-390.498 125.458-408.784-33.53-221.934-91.928-69.555-159.088 580.163-580.163 580.163 580.163v-359.21L70029.605-27980l580.163-580.163 159.088 69.555 125.458 390.498v-1230.169l-144.674 97.656-249.64 50.063h-69.837v442.792L69850-28159.605l-179.605-179.605v359.21l-580.163 580.163-159.088-69.555-125.458-390.498 33.53-408.784 91.928-221.934 159.088-69.555 580.163 580.163v-359.21l-400.558-400.558 69.555-159.088 390.498-125.458 408.784 33.53 221.934 91.928 69.555 159.088v-442.792H69200l-242.123-46.977-212.804-139.79-142.45-211.033-50.063-249.64v-1300l46.977-242.123 139.79-212.804 211.033-142.45 249.64-50.063h1300l242.123 46.977 212.804 139.79 142.45 211.033 50.063 249.64v-2090.888l-142.286-142.039-249.36-600.526-.568-650.241 248.312-600.961 459.389-460.191 600.526-249.36 650.241-.568 600.961 248.312 460.191 459.389 249.36 600.526.568 650.241V-37211h-1430.517l-78.035 116.789-461.46 308.337-544.329 108.274h-780.866l-544.329-108.274-461.46-308.337-308.337-461.46-108.274-544.329 108.274-544.329 308.337-461.46 395.42-264.211-395.42-264.211-308.337-461.46-108.274-544.329 108.274-544.329 308.337-461.46 395.42-264.211-395.42-264.211-308.337-461.46-108.274-544.329 108.274-544.329 308.337-461.46 395.42-264.211-395.42-264.211-308.337-461.46-108.274-544.329 108.274-544.329 308.337-461.46 395.42-264.211-395.42-264.211-308.337-461.46-108.274-544.329 108.274-544.329 308.337-461.46 395.42-264.211-395.42-264.211-308.337-461.46-108.274-544.329 108.274-544.329 308.337-461.46 461.46-308.337 388.913-77.359-374.211-117.655-351.526-294.479-211.324-429.25 61.701-180.131H70993v20h254v-20h1294.209l61.701 180.131-211.324 429.25-351.526 294.479-374.212 117.655 388.914 77.359 461.46 308.337 78.035 116.789h4787.289l114.039-170.67 486.181-324.856 131.743-26.205-155.229-53.699-363.699-322.703-209.974-433.749 60.681-192.118H78613v20h254v-20h1167.712l60.681 192.118-209.974 433.749-363.699 322.703-155.23 53.699 131.744 26.205 486.181 324.856 324.856 486.181 114.074 573.489v-5080l-114.074 573.489-324.856 486.181-486.181 324.856-131.744 26.206 155.23 53.698 363.699 322.703 209.974 433.749-60.681 192.118H78867v-20h-254v20h-1167.712l-60.681-192.118 209.974-433.749 363.699-322.703 155.229-53.698-131.743-26.206-486.181-324.856-114.039-170.67h-4787.289l-78.035 116.789-461.46 308.337-388.914 77.36 374.212 117.654 351.526 294.479 211.324 429.25-61.701 180.131H71247v-20h-254v20h-1294.209l-61.701-180.131 211.324-429.25 351.526-294.479 374.211-117.654-388.913-77.36-461.46-308.337-308.337-461.46-108.274-544.329 108.274-544.329 308.337-461.46 395.42-264.211-395.42-264.211-308.337-461.46-108.274-544.329 108.274-544.329 308.337-461.46 395.42-264.211-395.42-264.211-308.337-461.46-108.274-544.329 108.274-544.329 308.337-461.46 395.42-264.211-395.42-264.211-308.337-461.46-108.274-544.329 108.274-544.329 308.337-461.46 395.42-264.211-395.42-264.211-308.337-461.46-108.274-544.329 108.274-544.329 308.337-461.46 395.42-264.211-395.42-264.211-308.337-461.46-108.274-544.329 108.274-544.329 308.337-461.46 395.42-264.211-395.42-264.211-308.337-461.46-108.274-544.329 108.274-544.329 308.337-461.46 461.46-308.337 544.329-108.274h780.866l544.329 108.274 461.46 308.337 78.035 116.789h4787.289l114.039-170.67 486.181-324.856 573.489-114.074h369.49l573.489 114.074 486.181 324.856 324.856 486.181 114.074 573.489v-3379H65312.833v3379l-108.274 544.329-308.337 461.46-395.421 264.211 395.421 264.211 308.337 461.46 108.274 544.329-108.274 544.329-308.337 461.46-395.421 264.211 395.421 264.211 308.337 461.46 108.274 544.329-108.274 544.329-308.337 461.46-395.421 264.211 395.421 264.211 308.337 461.46 108.274 544.329-108.274 544.329-308.337 461.46-395.421 264.211 395.421 264.211 308.337 461.46 108.274 544.329-108.274 544.329-308.337 461.46-395.421 264.211 395.421 264.211 308.337 461.46 108.274 544.329v5080l-108.274 544.329-308.337 461.46-395.421 264.211 395.421 264.211 308.337 461.46 108.274 544.329-108.274 544.329-308.337 461.46-395.421 264.211 395.421 264.211 308.337 461.46 108.274 544.329-108.274 544.329-308.337 461.46-395.421 264.211 395.421 264.211 308.337 461.46 108.274 544.329-108.274 544.329-308.337 461.46-395.421 264.211 395.421 264.211 308.337 461.46 108.274 544.329-108.274 544.329-308.337 461.46-395.421 264.211 395.421 264.211 308.337 461.46 108.274 544.329-108.274 544.329-308.337 461.46-172.236 115.085 161.137 31.263 212.804 139.79 142.45 211.033 50.063 249.64v1574.8l-46.977 242.123-139.79 212.804-211.033 142.45-249.64 50.063h-766.07v3374.65l-46.977 242.123-139.79 212.804-211.033 142.45-249.64 50.063h-972.05V-27290l-46.977 242.123-139.79 212.804-211.033 142.45-249.64 50.063h-1300l-242.123-46.977-212.804-139.79-142.45-211.033-50.063-249.64v-1300l46.977-242.123 139.79-212.804 211.033-142.45 249.64-50.063h1300l242.123 46.977 212.804 139.79 142.45 211.033 50.063 249.64v-4053.07h-253.126v2082.96l-33.53 408.784-91.928 221.934-159.088 69.555-179.605-179.605v359.21l-69.555 159.088-390.498 125.458-408.784-33.53-221.934-91.928-69.555-159.088 580.163-580.163 580.163 580.163v-359.21L61139.605-30440l580.163-580.163 159.088 69.555 125.458 390.498v-2082.96h-464.151v1443.302L60960-30619.605l-179.605-179.605v359.21l-580.163 580.163-159.088-69.555-125.458-390.498 33.53-408.784 91.928-221.934 159.088-69.555 580.163 580.163v-359.21l-400.558-400.558 69.555-159.088 390.498-125.458 408.784 33.53 221.934 91.928 69.555 159.088v-1443.302h-309.653l-242.123-46.977-212.804-139.79-142.45-211.033-50.063-249.64v-1998.98l46.977-242.123 139.79-212.804 211.033-142.45 249.64-50.063h1998.98l242.123 46.977 212.804 139.79 142.45 211.033 50.063 249.64v-1375.67H62357l-242.123-46.977-212.804-139.79-142.45-211.033-29.689-148.04h-4191.423l-42.048 216.723-92.199 140.356v9215.733l-231.526 560.337-428.334 429.082-559.932 232.504-606.284.529-560.337-231.526-429.082-428.334-232.504-559.932-.529-606.284 231.526-560.337 407.14-407.851h-79.188l-140.034-58.004-107.176-107.177-58.004-140.034V-30257.75l95.25-95.25H55753v20h254v-20h1047.75l95.25 95.25V-29515.215l-58.004 140.034-107.176 107.177-140.034 58.004h-79.86l406.305 405.596 232.504 559.932.529 606.284v-5080l-231.526 560.337-407.141 407.851h79.189l140.034 58.004 107.176 107.177 58.004 140.034V-30702.25l-95.25 95.25H56007v-20h-254v20h-1047.75l-95.25-95.25V-31444.785l58.004-140.034 107.176-107.177 140.034-58.004h79.859l-406.304-405.596-232.504-559.932-.529-606.284 231.526-560.337 428.334-429.082 559.932-232.504 606.284-.529 560.337 231.526 429.082 428.334 232.504 559.932.529 606.284v-4135.733l-47.591 72.448-211.033 142.45-249.64 50.063h-2032l-242.123-46.977-212.804-139.79-142.45-211.033-44.97-224.24h-750.459l-14.732 35.655-459.389 460.191-600.526 249.36-650.241.568-600.961-248.312-460.191-459.389-15.81-38.073H47986.76l-240.407 240.827-489.94 203.441-530.499.463-490.294-202.585-375.447-374.793-203.441-489.94-.463-530.499 202.585-490.294 374.793-375.447 489.94-203.441 530.499-.463 490.294 202.585 242.568 242.146h2681.857l14.733-35.655 459.389-460.191 600.526-249.36 650.241-.568 600.961 248.312 460.191 459.389 15.809 38.073h750.833l42.049-216.723 139.79-212.804 211.033-142.45 38.602-7.741-17.377-11.612-114.039-170.67h-9433.683l-25.577 25.622-396.618 164.691-203.228.177V-26035l-46.977 242.123-139.79 212.804-211.033 142.45-249.64 50.063h-8890l-242.123-46.977-212.804-139.79-142.45-211.033-50.063-249.64v-8890l46.977-242.123 139.79-212.804 211.033-142.45 249.64-50.063h8890l242.123 46.977 212.804 139.79 142.45 211.033 50.063 249.64v-4635.51l-226.224.197-396.905-163.998-303.933-303.403-164.691-396.618-.365-418.754-831.704 831.704-288.412 192.711L41910-39751h-2451.547l-114.038 170.67-15.783 10.546 29.491 5.721 212.804 139.79 142.45 211.033 44.969 224.24h1154.893l240.408-240.827 489.94-203.441 530.499-.463 490.294 202.585 375.447 374.793 203.441 489.94.463 530.499-202.585 490.294-374.793 375.447-489.94 203.441-530.499.463-490.294-202.585-242.569-242.146h-1154.54l-42.048 216.723-139.79 212.804-211.033 142.45-249.64 50.063h-2032l-242.123-46.977-212.804-139.79-142.45-211.033-50.063-249.64v-1727.2l46.977-242.123 139.79-212.804 211.033-142.45 38.602-7.741-17.377-11.612-324.856-486.181-114.074-573.489 114.074-573.489 324.856-486.181 314.78-210.33-314.78-210.33-324.856-486.181-114.074-573.489 114.074-573.489 324.856-486.181 314.78-210.33-314.78-210.33-324.856-486.181-114.074-573.489 114.074-573.489 324.856-486.181 486.181-324.856 131.743-26.205-155.229-53.699-363.699-322.703-209.974-433.749 60.681-192.118H37973v20h254v-20h1167.712l60.681 192.118-209.974 433.749-363.699 322.703-155.23 53.699 131.744 26.205 486.181 324.856 324.856 486.181 114.074 573.489-114.074 573.489-324.856 486.181-314.781 210.33 314.781 210.33 324.856 486.181 114.074 573.489-114.074 573.489-324.856 486.181-314.781 210.33 314.781 210.33 114.038 170.67h2083.311l2279.618-2279.618 288.412-192.711L44450-44069h10071.546l114.039-170.67 314.78-210.33-314.78-210.33-324.856-486.181-114.074-573.489 114.074-573.489 324.856-486.181 314.78-210.33-314.78-210.33-324.856-486.181-114.074-573.489 114.074-573.489 324.856-486.181 314.78-210.33-314.78-210.33-324.856-486.181-114.074-573.489 114.074-573.489 324.856-486.181 314.78-210.33-314.78-210.33-324.856-486.181-114.074-573.489 114.074-573.489 324.856-486.181 486.181-324.856 131.743-26.205-155.229-53.699-363.699-322.703-209.974-433.749 60.681-192.118H55753v20h254v-20h1167.712l60.681 192.118-209.974 433.749-363.699 322.703-155.23 53.699 131.744 26.205 486.181 324.856 324.856 486.181 114.074 573.489-114.074 573.489-324.856 486.181-314.781 210.33 314.781 210.33 114.038 170.67h4787.289l78.036-116.789 395.42-264.211-395.42-264.211-308.337-461.46-108.274-544.329 108.274-544.329 308.337-461.46 461.46-308.337 388.913-77.359-374.211-117.655-351.526-294.479-211.324-429.25 61.701-180.131H63373v20h254v-20h1294.209l61.701 180.131-211.324 429.25-351.526 294.479-374.212 117.655 388.914 77.359 461.46 308.337 308.337 461.46 108.274 544.329v-5080l-108.274 544.329-308.337 461.46-461.46 308.337-388.914 77.36 374.212 117.654 351.526 294.479 211.324 429.25-61.701 180.131H63627v-20h-254v20h-1294.209l-61.701-180.131 211.324-429.25 351.526-294.479 374.211-117.654-388.913-77.36-461.46-308.337-78.036-116.789h-4790.349v1331.882l-60.681 192.118H56007v-1023.643l195.213-83.884 459.507 158.957 363.699 322.703 209.974 433.749V-57531H55753v1524h-1167.712l-60.681-192.118 209.974-433.749 363.699-322.703 459.507-158.957 195.213 83.884V-57531h-1143l-340.206-67.671-288.412-192.711-276.608-276.607v10131.683l-248.312 600.961-459.389 460.191-600.526 249.36-650.241.568-600.961-248.312-460.191-459.389-249.36-600.526-.538-615.882-148.903 149.162-489.94 203.441-530.499.463-490.294-202.585-242.569-242.146H42906.76l-240.407 240.827-489.94 203.441-530.499.463-490.294-202.585-375.447-374.793-203.441-489.94-.463-530.499 202.585-490.294 374.793-375.447 489.94-203.441 530.499-.463 490.294 202.585 242.568 242.146h5626.291l240.408-240.827 489.94-203.441 530.499-.463 490.294 202.585 375.447 374.793 203.441 489.94.376 431.338 279.283-279.771 600.526-249.36 650.241-.568 600.961 248.312 460.191 459.389 249.36 600.526.568 650.241v-10131.683l-570.402-570.402 28.365 86.657-32.767 428.2-100.825 243.413-164.112 75.549-179.605-179.605v359.21l-75.549 164.112-408.145 133.592-428.2-32.767-243.413-100.825-75.549-164.112 615.428-615.428 615.428 615.428v-359.21L52249.605-58420l14.142-14.142-179.605-179.605-14.142 14.142-179.605-179.605v359.21l-615.428 615.428-164.112-75.549-133.592-408.145 32.767-428.2 100.825-243.413 164.112-75.549 615.428 615.428v-359.21l-435.823-435.823 75.549-164.112 408.145-133.592 348.423 26.663-140.491-140.491-340.284.296-490.294-202.585-242.569-242.146h-450.314v5329.266l-32.767 428.2-100.825 243.413-164.112 75.549-179.605-179.605v359.21l-75.549 164.112-408.145 133.592-428.2-32.767-243.413-100.825-75.549-164.112 615.428-615.428 615.428 615.428v-359.21L49709.605-54610l615.428-615.428 164.112 75.549 133.592 408.145V-60071h-497.216l56.082 281.94-36.175 181.865v4202.162L49530-54789.605l-179.605-179.605v359.21l-615.428 615.428-164.112-75.549-133.592-408.145 32.767-428.2 100.825-243.413 164.112-75.549 615.428 615.428v-359.21l-435.823-435.823 75.549-164.112 408.145-133.592 428.2 32.767 243.413 100.825 75.549 164.112v-4202.162l-88.243 443.627-354.313 530.267-530.267 354.313-625.492 124.418h-574.226l-625.492-124.418-530.267-354.313-354.313-530.267-124.418-625.492 124.418-625.492 354.313-530.267 530.267-354.313 625.492-124.418h574.226l157.81 31.391 196.459-196.459 288.412-192.711h.001L49530-61849h1543.239l240.408-240.827 489.94-203.441 215.72-.188-577.925-577.926-192.711-288.412L51181-63500v-1543.239L51073.051-65151h-986.938l95.49 480.06-124.418 625.492-354.313 530.267-530.267 354.313-625.492 124.418h-574.226l-625.492-124.418-530.267-354.313-354.313-530.267-124.418-625.492 124.418-625.492 354.313-530.267 530.267-354.313 625.492-124.418h565.307l363.188-363.188 288.412-192.711h.001L49530-66929h1543.239l240.408-240.827 489.94-203.441 530.499-.463 490.294 202.585 375.447 374.793 203.441 489.94.463 530.499-202.585 490.294-242.146 242.569v1174.815L54978.236-61849h7047.506l78.036-116.789 395.42-264.211-395.42-264.211-78.036-116.789h-4787.289l-114.038 170.67-486.181 324.856-573.489 114.074h-369.49l-573.489-114.074-486.181-324.856-324.856-486.181-114.074-573.489 114.074-573.489 324.856-486.181 314.78-210.33-314.78-210.33-324.856-486.181-114.074-573.489 114.074-573.489 324.856-486.181 314.78-210.33-314.78-210.33-324.856-486.181-114.074-573.489 114.074-573.489 324.856-486.181 314.78-210.33-314.78-210.33-324.856-486.181-114.074-573.489 114.074-573.489 324.856-486.181 486.181-324.856 573.489-114.074h369.49l573.489 114.074 486.181 324.856 114.038 170.67h4787.289l78.036-116.789 461.46-308.337 544.329-108.274h780.866l544.329 108.274 461.46 308.337 308.337 461.46 108.274 544.329v-3379H53162.737v5787.266l-32.767 428.2-100.825 243.413-164.112 75.549-179.605-179.605v359.21l-75.549 164.112-408.145 133.592-428.2-32.767-243.413-100.825-75.549-164.112 615.428-615.428 615.428 615.428v-359.21L52249.605-68580l615.428-615.428 164.112 75.549 133.592 408.145V-74499h-477.309v5123.967L52070-68759.605l-179.605-179.605v359.21l-615.428 615.428-164.112-75.549-133.592-408.145 32.767-428.2 100.825-243.413 164.112-75.549 615.428 615.428v-359.21l-435.823-435.823 75.549-164.112 408.145-133.592 428.2 32.767 243.413 100.825 75.549 164.112V-74499h-1681.973v3670.752l-223.808 541.659-414.056 414.779-541.268 224.754-586.075.511-541.659-223.808-414.779-414.056-21.586-51.982-20.577 49.802-414.056 414.779-541.268 224.754-586.075.511-541.659-223.808-72.179-72.052.364 416.099-242.065 585.843v9046.712l-28.042 548.476-155.944 376.484-195.351 112.558-179.605-179.605v359.21l-112.558 195.351-517.458 183.986-548.476-28.042-376.484-155.944-112.558-195.351 833.767-833.767 833.767 833.767v-359.21L44629.605-59690l833.767-833.767 195.351 112.558 183.986 517.458v-9046.712l-6.247 15.118-459.389 460.191-93.306 38.745v7723.037L44450-59869.605l-179.605-179.605v359.21l-833.767 833.767-195.351-112.558-183.986-517.458 28.042-548.476 155.944-376.484 195.351-112.558 833.767 833.767v-359.21l-654.162-654.162 112.558-195.351 517.458-183.986 548.476 28.042 376.484 155.944 112.558 195.351v-7723.037l-507.22 210.615-650.241.568-600.961-248.312-460.191-459.389-62.417-150.316v14331.509l-32.767 428.2-100.825 243.413-164.112 75.549-179.605-179.605v359.21l-75.549 164.112-408.145 133.592-428.2-32.767-243.413-100.825-75.549-164.112 615.428-615.428 615.428 615.428v-359.21L42089.605-54610l615.428-615.428 164.112 75.549 133.592 408.145v-14331.509l-186.943-450.21-.568-650.241 248.312-600.961 459.389-460.191 600.526-249.36 650.241-.568 38.1 15.744 279.588-279.588 288.412-192.711h.001L45720-72009h75.845l358.564-359.19 541.268-224.754 586.075-.511 541.659 223.808 414.779 414.056 21.585 51.983 20.578-49.803 414.056-414.779 541.268-224.754 586.075-.511 541.659 223.808 414.779 414.056 224.754 541.268.511 586.075V-74499h-8478.027v19093.967L41910-54789.605l-179.605-179.605v359.21l-615.428 615.428-164.112-75.549-133.592-408.145 32.767-428.2 100.825-243.413 164.112-75.549 615.428 615.428v-359.21l-435.823-435.823 75.549-164.112 408.145-133.592 428.2 32.767 243.413 100.825 75.549 164.112V-74499h-6478.793l721.165 297.98 601.109 600.061 325.719 784.418.742 849.356-298.174 721.634 518.059-103.049h369.49l573.489 114.074 486.181 324.856 25.585 38.291 25.585-38.291 486.181-324.856 573.489-114.074h369.49l573.489 114.074 486.181 324.856 324.856 486.181 114.074 573.489-114.074 573.489-324.856 486.181-314.781 210.33 314.781 210.33 324.856 486.181 114.074 573.489-114.074 573.489-324.856 486.181-314.781 210.33 314.781 210.33 324.856 486.181 114.074 573.489-114.074 573.489-324.856 486.181-314.781 210.33 314.781 210.33 324.856 486.181 114.074 573.489-114.074 573.489-324.856 486.181-314.781 210.33 314.781 210.33 324.856 486.181 114.074 573.489-114.074 573.489-324.856 486.181-486.181 324.856-573.489 114.074h-369.49l-573.489-114.074-426.373-284.893v10011.249l-60.681 192.118H38227v-1023.643l195.213-83.884 459.507 158.957 363.699 322.703 209.974 433.749v-1901.764l-209.974 433.749-363.699 322.703-459.507 158.957-195.213-83.884V-50673h1167.712l60.681 192.118v-638.236l-60.681 192.118H38227v-1023.643l195.213-83.884 459.507 158.957 363.699 322.703 209.974 433.749v-7471.249l-59.808-39.963-25.585-38.29-25.585 38.29-486.181 324.856-573.489 114.074H37973v9804.4h-1167.712l-60.681-192.118 209.974-433.749 363.699-322.703 459.507-158.957 195.213 83.884v-238.714l-195.213 83.884-459.507-158.957-363.699-322.703-209.974-433.749 60.681-192.118H37973v-254h-1167.712l-60.681-192.118 209.974-433.749 363.699-322.703 459.507-158.957 195.213 83.884V-58191.4h-57.745l-573.489-114.074-486.181-324.856-324.856-486.181-114.074-573.489 114.074-573.489 324.856-486.181 314.78-210.33-314.78-210.33-324.856-486.181-114.074-573.489 114.074-573.489 324.856-486.181 314.78-210.33-314.78-210.33-324.856-486.181-114.074-573.489 114.074-573.489 324.856-486.181 314.78-210.33-314.78-210.33-324.856-486.181-114.074-573.489 114.074-573.489 324.856-486.181 314.78-210.33-314.78-210.33-324.856-486.181-114.074-573.489 114.074-573.489 53.496-80.063-597.684 248.18-849.356.742-784.985-324.35-601.109-600.061-300.091-722.698V-24561h47398v-2122.364l-297.98 721.164-600.061 601.109-784.418 325.719-849.356.742-784.985-324.35-601.109-600.061-325.719-784.418-.742-849.356 324.35-784.985 600.061-601.109 314.864-130.743-303.683-202.915-357.892-535.623-125.675-631.81 125.675-631.81 357.892-535.623 372.534-248.92-7.955-3.789-364.975-404.861-154.046-371.927 58.68-216.07H78613v20h254v-20h1168.54l58.68 216.07-154.046 371.927-364.975 404.861-7.956 3.789 372.535 248.92 357.892 535.623 125.675 631.81-125.675 631.81-357.892 535.623-303.534 202.815 311.556 128.732 601.109 600.061L80849-27658.26V-74499"/></g><g id="pcb-stackup_bottom_sm"><use x="63500" y="-40640" xlink:href="#S1b0pepnkZ_pad-11"/><use x="63500" y="-43180" xlink:href="#S1b0pepnkZ_pad-11"/><use x="63500" y="-45720" xlink:href="#S1b0pepnkZ_pad-11"/><use x="63500" y="-48260" xlink:href="#S1b0pepnkZ_pad-11"/><use x="63500" y="-50800" xlink:href="#S1b0pepnkZ_pad-11"/><use x="63500" y="-53340" xlink:href="#S1b0pepnkZ_pad-11"/><use x="63500" y="-55880" xlink:href="#S1b0pepnkZ_pad-11"/><use x="63500" y="-58420" xlink:href="#S1b0pepnkZ_pad-11"/><use x="63500" y="-60960" xlink:href="#S1b0pepnkZ_pad-11"/><use x="63500" y="-63500" xlink:href="#S1b0pepnkZ_pad-11"/><use x="63500" y="-66040" xlink:href="#S1b0pepnkZ_pad-11"/><use x="63500" y="-68580" xlink:href="#S1b0pepnkZ_pad-11"/><use x="63500" y="-71120" xlink:href="#S1b0pepnkZ_pad-11"/><use x="63500" y="-38100" xlink:href="#S1b0pepnkZ_pad-12"/><use x="71120" y="-71120" xlink:href="#S1b0pepnkZ_pad-11"/><use x="71120" y="-68580" xlink:href="#S1b0pepnkZ_pad-11"/><use x="71120" y="-66040" xlink:href="#S1b0pepnkZ_pad-11"/><use x="71120" y="-63500" xlink:href="#S1b0pepnkZ_pad-11"/><use x="71120" y="-60960" xlink:href="#S1b0pepnkZ_pad-11"/><use x="71120" y="-58420" xlink:href="#S1b0pepnkZ_pad-11"/><use x="71120" y="-55880" xlink:href="#S1b0pepnkZ_pad-11"/><use x="71120" y="-53340" xlink:href="#S1b0pepnkZ_pad-11"/><use x="71120" y="-50800" xlink:href="#S1b0pepnkZ_pad-11"/><use x="71120" y="-48260" xlink:href="#S1b0pepnkZ_pad-11"/><use x="71120" y="-45720" xlink:href="#S1b0pepnkZ_pad-11"/><use x="71120" y="-43180" xlink:href="#S1b0pepnkZ_pad-11"/><use x="71120" y="-40640" xlink:href="#S1b0pepnkZ_pad-11"/><use x="71120" y="-38100" xlink:href="#S1b0pepnkZ_pad-11"/><use x="52070" y="-60960" xlink:href="#S1b0pepnkZ_pad-13"/><use x="52070" y="-58420" xlink:href="#S1b0pepnkZ_pad-13"/><use x="52070" y="-66040" xlink:href="#S1b0pepnkZ_pad-13"/><use x="52070" y="-68580" xlink:href="#S1b0pepnkZ_pad-13"/><use x="46990" y="-38100" xlink:href="#S1b0pepnkZ_pad-13"/><use x="41910" y="-38100" xlink:href="#S1b0pepnkZ_pad-13"/><use x="72390" y="-34290" xlink:href="#S1b0pepnkZ_pad-14"/><use x="62230" y="-34290" xlink:href="#S1b0pepnkZ_pad-15"/><use x="49530" y="-49530" xlink:href="#S1b0pepnkZ_pad-13"/><use x="49530" y="-54610" xlink:href="#S1b0pepnkZ_pad-13"/><use x="41910" y="-49530" xlink:href="#S1b0pepnkZ_pad-13"/><use x="41910" y="-54610" xlink:href="#S1b0pepnkZ_pad-13"/><use x="48260" y="-64670.94" xlink:href="#S1b0pepnkZ_pad-16"/><use x="48260" y="-59789.06" xlink:href="#S1b0pepnkZ_pad-16"/><use x="40640" y="-59690" xlink:href="#S1b0pepnkZ_pad-17"/><use x="40640" y="-62230" xlink:href="#S1b0pepnkZ_pad-17"/><use x="40640" y="-64770" xlink:href="#S1b0pepnkZ_pad-17"/><use x="40640" y="-67310" xlink:href="#S1b0pepnkZ_pad-17"/><use x="40640" y="-69850" xlink:href="#S1b0pepnkZ_pad-17"/><use x="38100" y="-59690" xlink:href="#S1b0pepnkZ_pad-17"/><use x="38100" y="-62230" xlink:href="#S1b0pepnkZ_pad-17"/><use x="38100" y="-64770" xlink:href="#S1b0pepnkZ_pad-17"/><use x="38100" y="-67310" xlink:href="#S1b0pepnkZ_pad-17"/><use x="38100" y="-69850" xlink:href="#S1b0pepnkZ_pad-17"/><use x="38100" y="-38100" xlink:href="#S1b0pepnkZ_pad-18"/><use x="38100" y="-40640" xlink:href="#S1b0pepnkZ_pad-17"/><use x="38100" y="-43180" xlink:href="#S1b0pepnkZ_pad-17"/><use x="38100" y="-45720" xlink:href="#S1b0pepnkZ_pad-17"/><use x="38100" y="-48260" xlink:href="#S1b0pepnkZ_pad-17"/><use x="38100" y="-50800" xlink:href="#S1b0pepnkZ_pad-17"/><use x="55880" y="-38100" xlink:href="#S1b0pepnkZ_pad-18"/><use x="55880" y="-40640" xlink:href="#S1b0pepnkZ_pad-17"/><use x="55880" y="-43180" xlink:href="#S1b0pepnkZ_pad-17"/><use x="55880" y="-45720" xlink:href="#S1b0pepnkZ_pad-17"/><use x="55880" y="-48260" xlink:href="#S1b0pepnkZ_pad-17"/><use x="55880" y="-50800" xlink:href="#S1b0pepnkZ_pad-17"/><use x="55880" y="-53340" xlink:href="#S1b0pepnkZ_pad-17"/><use x="55880" y="-55880" xlink:href="#S1b0pepnkZ_pad-17"/><use x="78740" y="-30480" xlink:href="#S1b0pepnkZ_pad-19"/><use x="78740" y="-33020" xlink:href="#S1b0pepnkZ_pad-19"/><use x="55880" y="-63500" xlink:href="#S1b0pepnkZ_pad-17"/><use x="55880" y="-66040" xlink:href="#S1b0pepnkZ_pad-17"/><use x="55880" y="-68580" xlink:href="#S1b0pepnkZ_pad-17"/><use x="55880" y="-71120" xlink:href="#S1b0pepnkZ_pad-17"/><use x="78740" y="-71120" xlink:href="#S1b0pepnkZ_pad-17"/><use x="78740" y="-68580" xlink:href="#S1b0pepnkZ_pad-17"/><use x="78740" y="-66040" xlink:href="#S1b0pepnkZ_pad-17"/><use x="78740" y="-63500" xlink:href="#S1b0pepnkZ_pad-17"/><use x="78740" y="-60960" xlink:href="#S1b0pepnkZ_pad-17"/><use x="78740" y="-58420" xlink:href="#S1b0pepnkZ_pad-17"/><use x="78740" y="-55880" xlink:href="#S1b0pepnkZ_pad-17"/><use x="78740" y="-53340" xlink:href="#S1b0pepnkZ_pad-17"/><use x="78740" y="-50800" xlink:href="#S1b0pepnkZ_pad-17"/><use x="78740" y="-48260" xlink:href="#S1b0pepnkZ_pad-17"/><use x="78740" y="-45720" xlink:href="#S1b0pepnkZ_pad-17"/><use x="78740" y="-43180" xlink:href="#S1b0pepnkZ_pad-17"/><use x="78740" y="-40640" xlink:href="#S1b0pepnkZ_pad-17"/><use x="78740" y="-38100" xlink:href="#S1b0pepnkZ_pad-17"/><use x="69850" y="-27980" xlink:href="#S1b0pepnkZ_pad-20"/><use x="69850" y="-30480" xlink:href="#S1b0pepnkZ_pad-21"/><use x="60960" y="-30440" xlink:href="#S1b0pepnkZ_pad-20"/><use x="60960" y="-27940" xlink:href="#S1b0pepnkZ_pad-21"/><use x="49530" y="-71120" xlink:href="#S1b0pepnkZ_pad-22"/><use x="46990" y="-71120" xlink:href="#S1b0pepnkZ_pad-22"/><use x="44450" y="-69850" xlink:href="#S1b0pepnkZ_pad-14"/><use x="44450" y="-59690" xlink:href="#S1b0pepnkZ_pad-14"/><use x="52070" y="-48260" xlink:href="#S1b0pepnkZ_pad-14"/><use x="52070" y="-38100" xlink:href="#S1b0pepnkZ_pad-14"/><use x="39370" y="-30480" xlink:href="#S1b0pepnkZ_pad-23"/><use x="55880" y="-33020" xlink:href="#S1b0pepnkZ_pad-24"/><use x="55880" y="-30480" xlink:href="#S1b0pepnkZ_pad-25"/><use x="55880" y="-27940" xlink:href="#S1b0pepnkZ_pad-24"/></g><g id="pcb-stackup_bottom_drl1" transform="scale(25.4)"><use x="1750" y="-1600" xlink:href="#rkPRag6nJb_pad-1"/><use x="2800" y="-2300" xlink:href="#rkPRag6nJb_pad-1"/><use x="2400" y="-1100" xlink:href="#rkPRag6nJb_pad-2"/><use x="2400" y="-1198.4" xlink:href="#rkPRag6nJb_pad-2"/><use x="2750" y="-1101.6" xlink:href="#rkPRag6nJb_pad-2"/><use x="2750" y="-1200" xlink:href="#rkPRag6nJb_pad-2"/><use x="1650" y="-1500" xlink:href="#rkPRag6nJb_pad-3"/><use x="1650" y="-1950" xlink:href="#rkPRag6nJb_pad-3"/><use x="1650" y="-2150" xlink:href="#rkPRag6nJb_pad-3"/><use x="1850" y="-1500" xlink:href="#rkPRag6nJb_pad-3"/><use x="1850" y="-2800" xlink:href="#rkPRag6nJb_pad-3"/><use x="1950" y="-1950" xlink:href="#rkPRag6nJb_pad-3"/><use x="1950" y="-2150" xlink:href="#rkPRag6nJb_pad-3"/><use x="1950" y="-2800" xlink:href="#rkPRag6nJb_pad-3"/><use x="2050" y="-2300" xlink:href="#rkPRag6nJb_pad-3"/><use x="2050" y="-2400" xlink:href="#rkPRag6nJb_pad-3"/><use x="2050" y="-2600" xlink:href="#rkPRag6nJb_pad-3"/><use x="2050" y="-2700" xlink:href="#rkPRag6nJb_pad-3"/><use x="2500" y="-1500" xlink:href="#rkPRag6nJb_pad-3"/><use x="2500" y="-1600" xlink:href="#rkPRag6nJb_pad-3"/><use x="2500" y="-1700" xlink:href="#rkPRag6nJb_pad-3"/><use x="2500" y="-1800" xlink:href="#rkPRag6nJb_pad-3"/><use x="2500" y="-1900" xlink:href="#rkPRag6nJb_pad-3"/><use x="2500" y="-2000" xlink:href="#rkPRag6nJb_pad-3"/><use x="2500" y="-2100" xlink:href="#rkPRag6nJb_pad-3"/><use x="2500" y="-2200" xlink:href="#rkPRag6nJb_pad-3"/><use x="2500" y="-2300" xlink:href="#rkPRag6nJb_pad-3"/><use x="2500" y="-2400" xlink:href="#rkPRag6nJb_pad-3"/><use x="2500" y="-2500" xlink:href="#rkPRag6nJb_pad-3"/><use x="2500" y="-2600" xlink:href="#rkPRag6nJb_pad-3"/><use x="2500" y="-2700" xlink:href="#rkPRag6nJb_pad-3"/><use x="2500" y="-2800" xlink:href="#rkPRag6nJb_pad-3"/><use x="2800" y="-1500" xlink:href="#rkPRag6nJb_pad-3"/><use x="2800" y="-1600" xlink:href="#rkPRag6nJb_pad-3"/><use x="2800" y="-1700" xlink:href="#rkPRag6nJb_pad-3"/><use x="2800" y="-1800" xlink:href="#rkPRag6nJb_pad-3"/><use x="2800" y="-1900" xlink:href="#rkPRag6nJb_pad-3"/><use x="2800" y="-2000" xlink:href="#rkPRag6nJb_pad-3"/><use x="2800" y="-2100" xlink:href="#rkPRag6nJb_pad-3"/><use x="2800" y="-2200" xlink:href="#rkPRag6nJb_pad-3"/><use x="2800" y="-2300" xlink:href="#rkPRag6nJb_pad-3"/><use x="2800" y="-2400" xlink:href="#rkPRag6nJb_pad-3"/><use x="2800" y="-2500" xlink:href="#rkPRag6nJb_pad-3"/><use x="2800" y="-2600" xlink:href="#rkPRag6nJb_pad-3"/><use x="2800" y="-2700" xlink:href="#rkPRag6nJb_pad-3"/><use x="2800" y="-2800" xlink:href="#rkPRag6nJb_pad-3"/><use x="1750" y="-2350" xlink:href="#rkPRag6nJb_pad-4"/><use x="1750" y="-2750" xlink:href="#rkPRag6nJb_pad-4"/><use x="2050" y="-1500" xlink:href="#rkPRag6nJb_pad-4"/><use x="2050" y="-1900" xlink:href="#rkPRag6nJb_pad-4"/><use x="2450" y="-1350" xlink:href="#rkPRag6nJb_pad-4"/><use x="1500" y="-1500" xlink:href="#rkPRag6nJb_pad-5"/><use x="1500" y="-1600" xlink:href="#rkPRag6nJb_pad-5"/><use x="1500" y="-1700" xlink:href="#rkPRag6nJb_pad-5"/><use x="1500" y="-1800" xlink:href="#rkPRag6nJb_pad-5"/><use x="1500" y="-1900" xlink:href="#rkPRag6nJb_pad-5"/><use x="1500" y="-2000" xlink:href="#rkPRag6nJb_pad-5"/><use x="1500" y="-2350" xlink:href="#rkPRag6nJb_pad-5"/><use x="1500" y="-2450" xlink:href="#rkPRag6nJb_pad-5"/><use x="1500" y="-2550" xlink:href="#rkPRag6nJb_pad-5"/><use x="1500" y="-2650" xlink:href="#rkPRag6nJb_pad-5"/><use x="1500" y="-2750" xlink:href="#rkPRag6nJb_pad-5"/><use x="1600" y="-2350" xlink:href="#rkPRag6nJb_pad-5"/><use x="1600" y="-2450" xlink:href="#rkPRag6nJb_pad-5"/><use x="1600" y="-2550" xlink:href="#rkPRag6nJb_pad-5"/><use x="1600" y="-2650" xlink:href="#rkPRag6nJb_pad-5"/><use x="1600" y="-2750" xlink:href="#rkPRag6nJb_pad-5"/><use x="2200" y="-1500" xlink:href="#rkPRag6nJb_pad-5"/><use x="2200" y="-1600" xlink:href="#rkPRag6nJb_pad-5"/><use x="2200" y="-1700" xlink:href="#rkPRag6nJb_pad-5"/><use x="2200" y="-1800" xlink:href="#rkPRag6nJb_pad-5"/><use x="2200" y="-1900" xlink:href="#rkPRag6nJb_pad-5"/><use x="2200" y="-2000" xlink:href="#rkPRag6nJb_pad-5"/><use x="2200" y="-2100" xlink:href="#rkPRag6nJb_pad-5"/><use x="2200" y="-2200" xlink:href="#rkPRag6nJb_pad-5"/><use x="2200" y="-2500" xlink:href="#rkPRag6nJb_pad-5"/><use x="2200" y="-2600" xlink:href="#rkPRag6nJb_pad-5"/><use x="2200" y="-2700" xlink:href="#rkPRag6nJb_pad-5"/><use x="2200" y="-2800" xlink:href="#rkPRag6nJb_pad-5"/><use x="3100" y="-1200" xlink:href="#rkPRag6nJb_pad-5"/><use x="3100" y="-1300" xlink:href="#rkPRag6nJb_pad-5"/><use x="3100" y="-1500" xlink:href="#rkPRag6nJb_pad-5"/><use x="3100" y="-1600" xlink:href="#rkPRag6nJb_pad-5"/><use x="3100" y="-1700" xlink:href="#rkPRag6nJb_pad-5"/><use x="3100" y="-1800" xlink:href="#rkPRag6nJb_pad-5"/><use x="3100" y="-1900" xlink:href="#rkPRag6nJb_pad-5"/><use x="3100" y="-2000" xlink:href="#rkPRag6nJb_pad-5"/><use x="3100" y="-2100" xlink:href="#rkPRag6nJb_pad-5"/><use x="3100" y="-2200" xlink:href="#rkPRag6nJb_pad-5"/><use x="3100" y="-2300" xlink:href="#rkPRag6nJb_pad-5"/><use x="3100" y="-2400" xlink:href="#rkPRag6nJb_pad-5"/><use x="3100" y="-2500" xlink:href="#rkPRag6nJb_pad-5"/><use x="3100" y="-2600" xlink:href="#rkPRag6nJb_pad-5"/><use x="3100" y="-2700" xlink:href="#rkPRag6nJb_pad-5"/><use x="3100" y="-2800" xlink:href="#rkPRag6nJb_pad-5"/><use x="2200" y="-1100" xlink:href="#rkPRag6nJb_pad-6"/><use x="2200" y="-1200" xlink:href="#rkPRag6nJb_pad-6"/><use x="2200" y="-1300" xlink:href="#rkPRag6nJb_pad-6"/><use x="1900" y="-2353.9" xlink:href="#rkPRag6nJb_pad-7"/><use x="1900" y="-2546.1" xlink:href="#rkPRag6nJb_pad-7"/><use x="2850" y="-1350" xlink:href="#rkPRag6nJb_pad-8"/><use x="1400" y="-2850" xlink:href="#rkPRag6nJb_pad-9"/><use x="3100" y="-1069.7" xlink:href="#rkPRag6nJb_pad-9"/><use x="1550" y="-1200" xlink:href="#rkPRag6nJb_pad-10"/></g><clipPath id="pcb-stackup_bottom_out"><path fill="none" stroke-width="100" d="M33020-74930v50800h48260v-50800H33020"/></clipPath><mask id="pcb-stackup_bottom_mech-mask"><g stroke="#000"><path fill="#fff" d="M33020-74930h48260v50800H33020z"/><use xlink:href="#pcb-stackup_bottom_drl1"/></g></mask><mask id="pcb-stackup_bottom_cf-mask"><g fill="#fff" stroke="#fff"><use xlink:href="#pcb-stackup_bottom_sm"/></g></mask><mask id="pcb-stackup_bottom_sm-mask"><g stroke="#000"><path fill="#fff" d="M33020-74930h48260v50800H33020z"/><use xlink:href="#pcb-stackup_bottom_sm"/></g></mask></defs><g><g mask="url(#pcb-stackup_bottom_mech-mask)" clip-path="url(#pcb-stackup_bottom_out)" transform="rotate(180 57150 -49530)"><path fill="currentColor" d="M33020-74930h48260v50800H33020z" class="pcb-stackup_fr4"/><use fill="currentColor" stroke="currentColor" xlink:href="#pcb-stackup_bottom_cu" class="pcb-stackup_cu"/><use fill="currentColor" stroke="currentColor" xlink:href="#pcb-stackup_bottom_cu" class="pcb-stackup_cf" mask="url(#pcb-stackup_bottom_cf-mask)"/><g mask="url(#pcb-stackup_bottom_sm-mask)"><path fill="currentColor" d="M33020-74930h48260v50800H33020z" class="pcb-stackup_sm"/></g></g></g></svg>